<svg xmlns="http://www.w3.org/2000/svg" xmlns:xlink="http://www.w3.org/1999/xlink" viewBox="0 0 375 245"><defs><style>.cls-1{fill:#fff;}.cls-16,.cls-2,.cls-3{fill:#3c3c41;}.cls-2{opacity:0.05;}.cls-2,.cls-3{isolation:isolate;}.cls-3{opacity:0.18;}.cls-4{fill:#6ebcdb;}.cls-5{fill:#5db4d7;}.cls-6{fill:#e6e6e6;}.cls-7{fill:#86d633;}.cls-8{fill:url(#Degradado_sin_nombre);}.cls-9{fill:#003067;}.cls-10{fill:#50e6ff;}.cls-11{fill:url(#Degradado_sin_nombre_2);}.cls-12{fill:url(#Degradado_sin_nombre_3);}.cls-13,.cls-14,.cls-15,.cls-17,.cls-18,.cls-19,.cls-20{fill:none;stroke:#3c3c41;stroke-linecap:round;stroke-miterlimit:10;}.cls-14{stroke-dasharray:0.96 2.88 3.84 2.88;}.cls-15{stroke-dasharray:3.84 2.88 0.96 2.88 3.84 2.88;}.cls-17{stroke-dasharray:0.95 2.86 3.81 2.86;}.cls-18{stroke-dasharray:3.81 2.86 0.95 2.86 3.81 2.86;}.cls-19{stroke-dasharray:0.86 2.58 3.44 2.58;}.cls-20{stroke-dasharray:3.44 2.58 0.86 2.58 3.44 2.58;}.cls-21{fill:url(#Degradado_sin_nombre_4);}.cls-22{fill:#b4ec36;}.cls-23{fill:#5ea0ef;}.cls-24{fill:#1e1e1e;}</style><linearGradient id="Degradado_sin_nombre" x1="240.52" y1="344.72" x2="240.52" y2="376.72" gradientTransform="translate(0 -298)" gradientUnits="userSpaceOnUse"><stop offset="0" stop-color="#b3b2b3"/><stop offset="0.38" stop-color="#afaeaf"/><stop offset="0.76" stop-color="#a2a2a2"/><stop offset="1" stop-color="#979797"/></linearGradient><linearGradient id="Degradado_sin_nombre_2" x1="240.52" y1="423.22" x2="240.52" y2="455.22" xlink:href="#Degradado_sin_nombre"/><linearGradient id="Degradado_sin_nombre_3" x1="240.52" y1="503.4" x2="240.52" y2="535.4" xlink:href="#Degradado_sin_nombre"/><linearGradient id="Degradado_sin_nombre_4" x1="144.48" y1="457.63" x2="144.48" y2="422.85" gradientTransform="translate(0 -298)" gradientUnits="userSpaceOnUse"><stop offset="0" stop-color="#5e9624"/><stop offset="0.02" stop-color="#5f9724"/><stop offset="1" stop-color="#76bc2d"/></linearGradient></defs><title>OJ105690781</title><g id="bg"><rect class="cls-1" y="35" width="375" height="210"/><rect class="cls-2" y="35" width="375" height="210"/><rect class="cls-1" width="375" height="35"/><rect class="cls-3" width="375" height="35"/></g><g id="shapes"><g id="ad94e297-0e86-4eaf-aac0-d146ee9aea65"><path class="cls-4" d="M120.79,24.14l-3.63-3.75a1.77,1.77,0,0,1-.6.11,1.88,1.88,0,1,1,0-3.76,1.86,1.86,0,0,1,1.76,1.18h3.58v1.26h-3.52c-.06.15-.13.29-.2.44l3.34,3.45,1.82-2.76V11.65H120.9L124,8.53l3,3.12h-2.44v6.77l4.59-7-4.63-4.63a.8.8,0,0,0-1.13,0h0L112.18,18a.8.8,0,0,0,0,1.13h0l11.21,11.21-4-4Z"/><path class="cls-5" d="M123.31,24.3v-4l-1.82,2.77,1.34,1.43A1.2,1.2,0,0,1,123.31,24.3Z"/><path class="cls-5" d="M135.71,18l-6.56-6.57-4.59,7v5.89a1.27,1.27,0,0,1,.41.23l4.82-4.87a2.23,2.23,0,0,1-.24-.49h-3.61V17.92h3.66a1.87,1.87,0,1,1,1.74,2.58,3,3,0,0,1-.52-.08l-5.12,5.16a2.67,2.67,0,0,1,.08.48,1.88,1.88,0,0,1-3.76.15,1.83,1.83,0,0,1,.1-.7l-1.33-1.33-1.43,2.13,4,4a.79.79,0,0,0,1.12,0h0l11.21-11.2a.79.79,0,0,0,0-1.12h0Z"/><path class="cls-6" d="M129.6,17.92h-3.66v1.26h3.61a1.77,1.77,0,0,1-.09-.56A1.86,1.86,0,0,1,129.6,17.92Z"/><path class="cls-6" d="M118.35,19.18h3.52V17.92h-3.58a1.69,1.69,0,0,1,.15.7A1.77,1.77,0,0,1,118.35,19.18Z"/><path class="cls-6" d="M125.7,25.58l5.12-5.16a2,2,0,0,1-1-.75L125,24.54A1.74,1.74,0,0,1,125.7,25.58Z"/><path class="cls-6" d="M122.87,24.5l-1.34-1.43-3.38-3.45a2,2,0,0,1-1,.77l3.63,3.75,1.33,1.33A1.79,1.79,0,0,1,122.87,24.5Z"/><path class="cls-1" d="M127,11.65l-3-3.12-3.08,3.12h2.44V24.3a1.35,1.35,0,0,0-.44.2,1.88,1.88,0,0,0-.51,2.6,1.93,1.93,0,0,0,1,.74,1.87,1.87,0,0,0,2.33-1.25,2.34,2.34,0,0,0,.08-.53,2.67,2.67,0,0,0-.08-.48,1.72,1.72,0,0,0-.73-1,1.27,1.27,0,0,0-.41-.23V11.65ZM124,27.1a1,1,0,1,1,1-1h0A1,1,0,0,1,124,27.1Z"/><path class="cls-1" d="M118.15,19.62c.07-.15.14-.29.2-.44a1.77,1.77,0,0,0,.09-.56,1.69,1.69,0,0,0-.15-.7,1.87,1.87,0,1,0-1.73,2.58,1.77,1.77,0,0,0,.6-.11A1.94,1.94,0,0,0,118.15,19.62Zm-1.59,0a1,1,0,1,1,1-1h0a1.05,1.05,0,0,1-1,1.08h0Z"/><path class="cls-1" d="M130.82,20.42a3,3,0,0,0,.52.08,1.87,1.87,0,1,0-1.88-1.88,1.77,1.77,0,0,0,.09.56,2.23,2.23,0,0,0,.24.49A2,2,0,0,0,130.82,20.42Zm.52-2.83a1,1,0,0,1,.92,1.08s0,0,0,.07a1,1,0,0,1-2.06,0A1,1,0,0,1,131,17.6h.07a1,1,0,0,1,.24,0Z"/><path class="cls-7" d="M124,25a1,1,0,0,0,0,2.08,1,1,0,0,0,1-1h0a1,1,0,0,0-.92-1.08Z"/><circle class="cls-7" cx="116.56" cy="18.62" r="1.04"/><path class="cls-7" d="M131.34,19.66a1,1,0,0,0,0-2.08,1,1,0,0,0-1,1h0a1,1,0,0,0,.92,1.08Z"/></g><path class="cls-8" d="M250.91,77.63a1.16,1.16,0,0,1-1.2,1.09H231.33a1.16,1.16,0,0,1-1.2-1.09V47.81a1.16,1.16,0,0,1,1.2-1.09h18.38a1.16,1.16,0,0,1,1.2,1.09Z"/><path class="cls-9" d="M233.19,60.4a2.39,2.39,0,0,1,2.22-2.5h10.38A2.37,2.37,0,0,1,248,60.4h0a2.37,2.37,0,0,1-2.12,2.6H235.45a2.39,2.39,0,0,1-2.22-2.49Z"/><path class="cls-9" d="M233.19,53a2.38,2.38,0,0,1,2.22-2.49h10.38A2.38,2.38,0,0,1,248,53h0a2.4,2.4,0,0,1-2.21,2.5H235.45a2.4,2.4,0,0,1-2.22-2.5Z"/><circle class="cls-10" cx="236.1" cy="53" r="1.66"/><circle class="cls-10" cx="236.1" cy="60.4" r="1.66"/><path class="cls-11" d="M250.91,156.13a1.16,1.16,0,0,1-1.2,1.09H231.33a1.16,1.16,0,0,1-1.2-1.09V126.31a1.16,1.16,0,0,1,1.2-1.09h18.38a1.16,1.16,0,0,1,1.2,1.09Z"/><path class="cls-9" d="M233.19,138.9a2.39,2.39,0,0,1,2.22-2.5h10.38a2.37,2.37,0,0,1,2.21,2.5h0a2.37,2.37,0,0,1-2.13,2.59H235.45a2.39,2.39,0,0,1-2.22-2.49Z"/><path class="cls-9" d="M233.19,131.5a2.38,2.38,0,0,1,2.22-2.49h10.38A2.38,2.38,0,0,1,248,131.5h0a2.4,2.4,0,0,1-2.21,2.5H235.45a2.4,2.4,0,0,1-2.22-2.5Z"/><circle class="cls-10" cx="236.1" cy="131.5" r="1.66"/><circle class="cls-10" cx="236.1" cy="138.9" r="1.66"/><path class="cls-12" d="M250.91,236.31a1.16,1.16,0,0,1-1.2,1.09H231.33a1.16,1.16,0,0,1-1.2-1.09V206.48a1.15,1.15,0,0,1,1.2-1.08h18.38a1.15,1.15,0,0,1,1.2,1.08Z"/><path class="cls-9" d="M233.19,219.08a2.4,2.4,0,0,1,2.22-2.51h10.38a2.4,2.4,0,0,1,2.21,2.51h0a2.38,2.38,0,0,1-2.13,2.59H235.45a2.38,2.38,0,0,1-2.22-2.48Z"/><path class="cls-9" d="M233.19,211.67a2.38,2.38,0,0,1,2.22-2.48h10.38a2.36,2.36,0,0,1,2.21,2.48h0a2.4,2.4,0,0,1-2.21,2.51H235.45a2.4,2.4,0,0,1-2.22-2.51Z"/><circle class="cls-10" cx="236.1" cy="211.67" r="1.66"/><circle class="cls-10" cx="236.1" cy="219.08" r="1.66"/><line class="cls-13" x1="144.27" y1="160.45" x2="144.27" y2="158.45"/><line class="cls-14" x1="144.27" y1="155.57" x2="144.27" y2="146.44"/><path class="cls-15" d="M144.27,145V66.89a5,5,0,0,1,5-5h68.28"/><line class="cls-13" x1="218.99" y1="61.89" x2="220.99" y2="61.89"/><polygon class="cls-16" points="219.9 65.63 226.37 61.89 219.9 58.15 219.9 65.63"/><line class="cls-13" x1="143.77" y1="193.29" x2="143.77" y2="195.29"/><line class="cls-17" x1="143.77" y1="198.14" x2="143.77" y2="207.19"/><path class="cls-18" d="M143.77,208.62v7.62a5,5,0,0,0,5,5h68.79"/><line class="cls-13" x1="218.99" y1="221.24" x2="220.99" y2="221.24"/><polygon class="cls-16" points="219.9 224.98 226.37 221.24 219.9 217.5 219.9 224.98"/><line class="cls-13" x1="158.46" y1="142.11" x2="160.46" y2="142.11"/><line class="cls-19" x1="163.04" y1="142.11" x2="171.22" y2="142.11"/><line class="cls-20" x1="172.51" y1="142.11" x2="217.7" y2="142.11"/><line class="cls-13" x1="218.99" y1="142.11" x2="220.99" y2="142.11"/><polygon class="cls-16" points="219.9 145.85 226.37 142.11 219.9 138.37 219.9 145.85"/><path class="cls-21" d="M129.77,140.83l14-14a1,1,0,0,1,1.41,0h0l14,14a1,1,0,0,1,0,1.41h0l-14,14a1,1,0,0,1-1.4,0l-14-14a1,1,0,0,1,0-1.41Z"/><path class="cls-22" d="M148.13,133.22l-3.53-3.52a.2.2,0,0,0-.27,0l-3.53,3.52a.16.16,0,0,0,0,.21l0,0a.16.16,0,0,0,.17.07h2a.18.18,0,0,1,.18.18V137a.21.21,0,0,0,.19.19h2.2a.19.19,0,0,0,.18-.19v-3.3a.18.18,0,0,1,.18-.18H148a.17.17,0,0,0,.2-.13A.14.14,0,0,0,148.13,133.22Z"/><path class="cls-22" d="M136.13,137.57l-3.49,3.54a.17.17,0,0,0,0,.24h0l3.49,3.52a.19.19,0,0,0,.26,0,.2.2,0,0,0,.06-.14v-2a.19.19,0,0,1,.18-.19H140a.16.16,0,0,0,.16-.16h0v-2.22a.16.16,0,0,0,0-.23h-3.4a.17.17,0,0,1-.18-.15v-2a.2.2,0,0,0-.37-.13Z"/><path class="cls-22" d="M152.93,144.88l3.55-3.53a.18.18,0,0,0,0-.25l-3.55-3.53a.18.18,0,0,0-.25,0h0a.21.21,0,0,0,0,.11v2.08a.17.17,0,0,1-.16.17h-3.35a.16.16,0,0,0-.17.15h0v2.22a.17.17,0,0,0,.15.18h3.35a.19.19,0,0,1,.18.19v2.06a.18.18,0,0,0,.2.16h0Z"/><path class="cls-1" d="M149.12,141.55a4.65,4.65,0,1,0-5.9,4.45v1.58a2.86,2.86,0,1,0,2.61,0v-1.67A4.63,4.63,0,0,0,149.12,141.55Z"/><circle id="e99c3387-15c3-4f28-bd4b-cb209b430e06" class="cls-23" cx="144.48" cy="141.53" r="2.7"/></g><g id="txt"><path class="cls-24" d="M120.55,173.42H119l-.85-2.37h-3.63l-.81,2.37h-1.54l3.42-9.08h1.56Zm-2.79-3.53-1.26-3.58a3.75,3.75,0,0,1-.15-.69h0a3.36,3.36,0,0,1-.14.68l-1.26,3.59Z"/><path class="cls-24" d="M126.37,173.42h-5.5v-.5L124.5,168h-3.28v-1.09h5.16v.53l-3.57,4.86h3.56Z"/><path class="cls-24" d="M133.2,173.42h-1.37v-1h0a2.16,2.16,0,0,1-2,1.17c-1.53,0-2.29-.92-2.29-2.75v-3.88h1.37v3.71c0,1.21.46,1.82,1.39,1.82a1.42,1.42,0,0,0,1.12-.5,1.92,1.92,0,0,0,.43-1.31v-3.72h1.37Z"/><path class="cls-24" d="M138.83,168.25a1.52,1.52,0,0,0-.81-.2,1.25,1.25,0,0,0-1.08.58,2.64,2.64,0,0,0-.42,1.56v3.23h-1.37v-6.48h1.37v1.28h0a1.76,1.76,0,0,1,1.7-1.4,1.53,1.53,0,0,1,.58.09Z"/><path class="cls-24" d="M145.14,170.54h-4.46a1.81,1.81,0,0,0,2,2,3.25,3.25,0,0,0,2-.65V173a4.05,4.05,0,0,1-2.28.57,2.89,2.89,0,0,1-2.25-.88,3.51,3.51,0,0,1-.82-2.46,3.55,3.55,0,0,1,.88-2.47,2.83,2.83,0,0,1,2.19-1,2.6,2.6,0,0,1,2,.83,3.39,3.39,0,0,1,.73,2.28Zm-1.34-1a1.91,1.91,0,0,0-.38-1.27,1.32,1.32,0,0,0-1.07-.45,1.51,1.51,0,0,0-1.09.47,2.14,2.14,0,0,0-.57,1.25Z"/><path class="cls-24" d="M154.69,173.42h-4.95v-9.08h1.4v7.87h3.55Z"/><path class="cls-24" d="M155.44,170.23a3.43,3.43,0,0,1,.91-2.52,3.31,3.31,0,0,1,2.48-.93,3.07,3.07,0,0,1,2.34.9,3.36,3.36,0,0,1,.86,2.45,3.45,3.45,0,0,1-.9,2.5,3.22,3.22,0,0,1-2.43.94,3.18,3.18,0,0,1-2.38-.91A3.33,3.33,0,0,1,155.44,170.23Zm1.4,0a2.43,2.43,0,0,0,.52,1.66,1.75,1.75,0,0,0,1.41.6q1.86,0,1.86-2.31a2.6,2.6,0,0,0-.48-1.69,1.69,1.69,0,0,0-1.38-.59,1.72,1.72,0,0,0-1.42.63A2.59,2.59,0,0,0,156.84,170.21Z"/><path class="cls-24" d="M163.55,167.37a4.44,4.44,0,0,1,2.29-.59,2.21,2.21,0,0,1,2.46,2.54v4.1H167v-1h0a2.13,2.13,0,0,1-2,1.14,2.09,2.09,0,0,1-1.5-.52,1.82,1.82,0,0,1-.55-1.39c0-1.21.73-1.93,2.18-2.13l1.88-.26c0-1-.43-1.44-1.27-1.44a3.45,3.45,0,0,0-2.15.75Zm2,3a1.94,1.94,0,0,0-1,.36,1,1,0,0,0-.29.78.9.9,0,0,0,.31.7,1.15,1.15,0,0,0,.79.27,1.53,1.53,0,0,0,1.15-.49,1.72,1.72,0,0,0,.46-1.23v-.58Z"/><path class="cls-24" d="M175.94,173.42h-1.37v-1h0a2.33,2.33,0,0,1-2.15,1.18,2.41,2.41,0,0,1-2-.88,3.6,3.6,0,0,1-.73-2.36,3.87,3.87,0,0,1,.82-2.58,2.69,2.69,0,0,1,2.14-1,2,2,0,0,1,1.88,1h0v-4h1.37Zm-1.36-3.8a1.72,1.72,0,0,0-.48-1.24,1.58,1.58,0,0,0-1.18-.5,1.6,1.6,0,0,0-1.32.64,2.8,2.8,0,0,0-.5,1.75,2.53,2.53,0,0,0,.47,1.61,1.53,1.53,0,0,0,1.26.59,1.58,1.58,0,0,0,1.26-.59,2.18,2.18,0,0,0,.49-1.47Z"/><path class="cls-24" d="M120.78,186.62v-9.08h2.84a3.26,3.26,0,0,1,2,.57,1.84,1.84,0,0,1,.74,1.53,2.07,2.07,0,0,1-.45,1.32,2.46,2.46,0,0,1-1.19.79v0a2.39,2.39,0,0,1,1.49.69,2.13,2.13,0,0,1,.56,1.5,2.43,2.43,0,0,1-.84,1.92,3.35,3.35,0,0,1-2.24.73Zm1.41-7.93v2.66h1a1.84,1.84,0,0,0,1.25-.39,1.32,1.32,0,0,0,.44-1.06c0-.8-.55-1.21-1.65-1.21Zm0,3.82v3h1.33a2,2,0,0,0,1.33-.4,1.34,1.34,0,0,0,.48-1.1c0-1-.65-1.45-2-1.45Z"/><path class="cls-24" d="M128.51,180.57a4.44,4.44,0,0,1,2.29-.59,2.21,2.21,0,0,1,2.46,2.54v4.1h-1.34v-1h0a2.13,2.13,0,0,1-2,1.14,2.1,2.1,0,0,1-1.51-.52,1.82,1.82,0,0,1-.55-1.39c0-1.21.73-1.93,2.18-2.13l1.88-.26c0-1-.42-1.44-1.27-1.44a3.47,3.47,0,0,0-2.15.75Zm2,3a1.94,1.94,0,0,0-1,.36,1,1,0,0,0-.29.78.9.9,0,0,0,.31.7,1.15,1.15,0,0,0,.79.27,1.53,1.53,0,0,0,1.15-.49,1.72,1.72,0,0,0,.46-1.23v-.58Z"/><path class="cls-24" d="M135.07,186.62V177h1.38v9.6Z"/><path class="cls-24" d="M138.54,180.57a4.45,4.45,0,0,1,2.3-.59c1.63,0,2.45.85,2.45,2.54v4.1H142v-1h0a2.15,2.15,0,0,1-2,1.14,2.1,2.1,0,0,1-1.51-.52,1.82,1.82,0,0,1-.54-1.39c0-1.21.72-1.93,2.17-2.13l1.88-.26c0-1-.42-1.44-1.27-1.44a3.47,3.47,0,0,0-2.15.75Zm2,3a1.94,1.94,0,0,0-1,.36,1,1,0,0,0-.29.78.9.9,0,0,0,.31.7,1.17,1.17,0,0,0,.79.27,1.51,1.51,0,0,0,1.15-.49A1.72,1.72,0,0,0,142,184v-.58Z"/><path class="cls-24" d="M150.8,186.62h-1.37V183c0-1.24-.45-1.87-1.36-1.87a1.44,1.44,0,0,0-1.13.52,2,2,0,0,0-.45,1.32v3.7h-1.38v-6.48h1.38v1.06h0a2.31,2.31,0,0,1,2.11-1.22c1.45,0,2.17.89,2.17,2.68Z"/><path class="cls-24" d="M157.22,186.34a3.51,3.51,0,0,1-1.84.43,3.05,3.05,0,0,1-2.29-.9,3.19,3.19,0,0,1-.88-2.34,3.54,3.54,0,0,1,.94-2.59,3.38,3.38,0,0,1,2.52-1,3.49,3.49,0,0,1,1.56.31v1.29a2.52,2.52,0,0,0-1.49-.5,2,2,0,0,0-1.54.64,2.42,2.42,0,0,0-.59,1.71,2.3,2.3,0,0,0,.56,1.64,1.94,1.94,0,0,0,1.5.6,2.62,2.62,0,0,0,1.55-.53Z"/><path class="cls-24" d="M164.12,183.75h-4.45a1.8,1.8,0,0,0,2,2,3.27,3.27,0,0,0,2-.65v1.14a4.1,4.1,0,0,1-2.28.57,2.93,2.93,0,0,1-2.26-.88,3.51,3.51,0,0,1-.81-2.46,3.55,3.55,0,0,1,.87-2.47,2.85,2.85,0,0,1,2.2-1,2.59,2.59,0,0,1,2,.83,3.34,3.34,0,0,1,.73,2.28Zm-1.34-1a1.91,1.91,0,0,0-.38-1.27,1.3,1.3,0,0,0-1.06-.45,1.49,1.49,0,0,0-1.09.47,2.21,2.21,0,0,0-.58,1.25Z"/><path class="cls-24" d="M169.24,181.45a1.52,1.52,0,0,0-.81-.2,1.25,1.25,0,0,0-1.08.58,2.64,2.64,0,0,0-.42,1.56v3.23h-1.37v-6.48h1.37v1.28h0a1.76,1.76,0,0,1,1.7-1.4,1.53,1.53,0,0,1,.58.09Z"/><path class="cls-24" d="M146.66,13.76H145.1v.72h1.38v4.74H145.1V20h1.55v.95H145.1v1.52h-.94V20.93h-1.68V20h1.68v-.76h-1.37V14.48h1.37v-.72H142.5v-.91h1.66V12h.94v.85h1.56Zm-2.5,2.64v-1h-.54v1Zm0,2V17.27h-.54v1.08Zm1.47-2v-1h-.53v1Zm0,2V17.27h-.53v1.08Zm4.08,3.29c0,.54-.33.8-1,.8h-.4l-.28-1,.54,0c.15,0,.23-.06.23-.17v-1H148a5.71,5.71,0,0,1-.77,2.19l-.75-.62a5.43,5.43,0,0,0,.71-2.85V16h2.57ZM153,14.55l-.52.87a9.48,9.48,0,0,1-1.21-.76v.7h-3v-.8c-.32.22-.71.47-1.15.73l-.51-.9a7.2,7.2,0,0,0,2.89-2.47l1,.27a1.76,1.76,0,0,1-.13.21A6.6,6.6,0,0,0,153,14.55Zm-4.19,3.14v-.82H148v.82Zm0,1.74v-.84H148v.84Zm2.16-5a6,6,0,0,1-1.16-1.25,7.51,7.51,0,0,1-1.35,1.25Zm.2,6.17h-.87V16.23h.87Zm1.35,1a.88.88,0,0,1-.21.54c-.13.19-.49.28-1.07.28h-.46l-.31-1a3.75,3.75,0,0,0,.48,0,1.22,1.22,0,0,0,.57-.07.19.19,0,0,0,.08-.17V15.73h.92Z"/><path class="cls-24" d="M165,21.71l-.84.79A13.24,13.24,0,0,1,159.74,16a11.51,11.51,0,0,1-4.64,6.45l-.78-.84a11.15,11.15,0,0,0,4.4-5.72,9.86,9.86,0,0,0,.59-2.3l0-.24h-1.45V12.26h2.46a12.65,12.65,0,0,0,1.37,5.61A13.25,13.25,0,0,0,165,21.71Z"/><path class="cls-24" d="M177.37,21.86H175.8l-4.34-6.69a4.43,4.43,0,0,1-.36-.64h0a12.33,12.33,0,0,1,.05,1.33v6h-1.36V12.79h1.66l4.21,6.56c.2.31.34.53.4.65h0a10.09,10.09,0,0,1-.06-1.3V12.79h1.37Z"/><path class="cls-24" d="M187,21.86h-1.55l-.85-2.36H181l-.81,2.36h-1.54L182,12.79h1.56Zm-2.79-3.52L183,14.76a3.2,3.2,0,0,1-.14-.69h0a4.13,4.13,0,0,1-.15.68l-1.26,3.59Z"/><path class="cls-24" d="M193.05,14h-2.6v7.86H189V14h-2.61V12.79h6.62Z"/><path class="cls-24" d="M201.63,17.22h-1.71A8.68,8.68,0,0,1,198,22.5l-.87-.8a7.12,7.12,0,0,0,1.76-4.48h-1.77v-1h1.82V14.57h-1.58v-1h1.58V12H200v1.61h1.43v1H200v1.69h1.67Zm.1,3.13-.81.71a10.81,10.81,0,0,0-1.1-1.93l.76-.69A9.17,9.17,0,0,1,201.73,20.35Zm5.89-.3a6.83,6.83,0,0,1-.15,1.53.85.85,0,0,1-.43.64,4.6,4.6,0,0,1-1.37.13c-.62,0-.93-.33-.93-1V18.91H204a4.22,4.22,0,0,1-2.09,3.63l-.77-.84a3.51,3.51,0,0,0,1.34-1.19,2.8,2.8,0,0,0,.48-1.6h-1V12.23h5.1v6.68h-1.28V21c0,.18.12.28.36.28a.4.4,0,0,0,.36-.13,1.84,1.84,0,0,0,.11-.77,6.32,6.32,0,0,0,0-.74ZM206,14.15v-.93h-2.95v.93ZM206,16v-.91h-2.95V16Zm0,1.93V17h-2.95v1Z"/><path class="cls-24" d="M214.73,19.55h-3.58l.78.47a14,14,0,0,1-2.06,2.52l-.9-.68a13.52,13.52,0,0,0,2-2.31h-1.13V12.24h4.89Zm-1.07-5.19V13.25h-2.72v1.11Zm0,2.09V15.29h-2.72v1.16Zm0,2.12V17.4h-2.72v1.17Zm1.51,3.22-.92.6a13.42,13.42,0,0,0-1.57-2l.94-.55A12.38,12.38,0,0,1,215.17,21.79ZM217,20.25H216V12.82H217Zm2.23,1.11c0,.76-.42,1.13-1.26,1.1l-1.45,0-.32-1.08,1,0a3.18,3.18,0,0,0,.86-.06.25.25,0,0,0,.13-.26V12h1.06Z"/><path class="cls-24" d="M261.77,60.09a16.49,16.49,0,0,1-1.15,1.78v6.05H260V62.71q-.71.76-1.29,1.29l-.44-.51a13.8,13.8,0,0,0,3-3.62Zm-.36-2.43a11.58,11.58,0,0,1-2.64,2.63l-.41-.47a8.86,8.86,0,0,0,2.47-2.44Zm7.47,9.69-.24.62a14.21,14.21,0,0,1-3.57-1.33A13.68,13.68,0,0,1,261.3,68l-.32-.57a12.23,12.23,0,0,0,3.49-1.13,9.38,9.38,0,0,1-1.53-1.45,12.34,12.34,0,0,1-1.24.84l-.45-.46a7.06,7.06,0,0,0,1.28-.84c-.19-.22-.36-.44-.5-.63l.48-.39a6.17,6.17,0,0,0,.48.6,4.09,4.09,0,0,0,1-1.29l-2,.08-.15-.62a12.5,12.5,0,0,0,3.1-1.64l-2.66.15-.11-.62a8.82,8.82,0,0,0,3.09-2.61l.6.23a9.13,9.13,0,0,1-2.48,2.34c.6,0,1.42-.07,2.46-.17.55-.44,1.07-.89,1.53-1.33l.62.28a19.88,19.88,0,0,1-4.59,3.34,40.19,40.19,0,0,0,4-.32,10.39,10.39,0,0,0-.75-1l.52-.32A12.25,12.25,0,0,1,268.87,63l-.53.32a6.61,6.61,0,0,0-.57-1c-.94.11-2,.21-3.12.29a6.94,6.94,0,0,1-.62,1.12h3.72v.59a11.1,11.1,0,0,1-2.08,2A12.44,12.44,0,0,0,268.88,67.35Zm-2-3.07h-3.39a.4.4,0,0,1-.1.12,8.19,8.19,0,0,0,1.65,1.5A8.83,8.83,0,0,0,266.9,64.28Z"/><path class="cls-24" d="M273.89,59.94H273l.44.41c-.07,1.23-.29,3.14-.67,5.71.21-.06.51-.16.9-.31l0,.64a28.82,28.82,0,0,1-3.52,1l-.14-.63a5.84,5.84,0,0,0,.94-.22,51.34,51.34,0,0,0-.42-6.26l.47-.37h-.83v-.6h1.56a12.71,12.71,0,0,0-.59-1.68l.57-.21a14.92,14.92,0,0,1,.63,1.89h1.49Zm-1,0h-1.72a58.26,58.26,0,0,1,.45,6.48l.53-.16A50.82,50.82,0,0,0,272.89,59.94Zm7.68,2h-3.16c-.14.44-.31.89-.49,1.33h3.2v3.89c0,.54-.34.82-1,.82l-.31,0-.16-.6.41,0q.48,0,.48-.39V63.84h-1.14v3.7h-.6v-3.7h-1.16v3.7H276v-3.7h-1.17V68h-.58V63.25h2a10.06,10.06,0,0,0,.49-1.33h-2.94v-.58h6.75ZM280,60.14h-5.46V58h.61v1.54h1.75V57.5h.61v2.07h1.86V58H280Z"/><path class="cls-24" d="M287.09,60.71a.68.68,0,0,1,.49.2.7.7,0,0,1,0,1,.67.67,0,0,1-.49.19.65.65,0,0,1-.48-.19.65.65,0,0,1,0-1A.62.62,0,0,1,287.09,60.71Zm0,5.4a.65.65,0,0,1,.68.68.65.65,0,0,1-.19.48.64.64,0,0,1-.49.21.68.68,0,0,1-.69-.69.64.64,0,0,1,.21-.49A.65.65,0,0,1,287.09,66.11Z"/><path class="cls-24" d="M304.17,67.11l-.19.61h-4.39a5.44,5.44,0,0,1-4.11-1.34A9,9,0,0,1,294,68l-.47-.41a6.9,6.9,0,0,0,2.37-3.88h-2v-.57c.6-.69,1.25-1.5,1.92-2.43h-2.11v-.6h2.83v.6c-.39.55-1,1.34-1.84,2.4h1.86v.6a8.91,8.91,0,0,1-.8,2.17,4.83,4.83,0,0,0,3.63,1.23Zm-8-7.84-.46.43A8,8,0,0,0,294,57.93l.43-.43A10.42,10.42,0,0,1,296.18,59.27Zm7.91,6H301v1.33h-.63V65.31h-3.15v-.58h3.15v-.94h-2.66V59.9h2.66V59h-3v-.58h3v-1H301v1h3V59h-3v.93h2.68v3.89H301v.94h3.13Zm-3.76-3.79v-1h-2v1Zm0,1.7V62.11h-2v1.11Zm2.7-1.7v-1H301v1Zm0,1.7V62.11H301v1.11Z"/><path class="cls-24" d="M308.8,60.22h-1.17v2.41a9.5,9.5,0,0,0,1.06-.44l.08.63-1.14.47v3.82a.77.77,0,0,1-.88.87l-.92,0-.2-.66.69,0a1.18,1.18,0,0,0,.59-.08A.25.25,0,0,0,307,67V63.54l-1.46.48-.14-.6c.48-.14,1-.32,1.6-.54V60.22h-1.57v-.63H307V57.45h.61v2.14h1.17Zm7.06,3.8h-1.59a5.51,5.51,0,0,1-1.26,2,22.74,22.74,0,0,1,2.78,1.51l-.36.5a17.54,17.54,0,0,0-2.9-1.57A9.76,9.76,0,0,1,308.76,68l-.37-.56a9.43,9.43,0,0,0,3.43-1.19c-.44-.2-1.09-.45-2-.76.23-.34.53-.82.88-1.45H309v-.59h2.09a12.17,12.17,0,0,0,.61-1.26l.59.17a8.3,8.3,0,0,1-.5,1.09h2.06a4.76,4.76,0,0,0,.2-.68l.59.1a4.26,4.26,0,0,1-.14.58h1.4Zm0-2.1H309v-.6h1.94a9.89,9.89,0,0,0-.6-1.88h-1.14v-.58h2.94a4.28,4.28,0,0,0-.47-1.18l.55-.28a7,7,0,0,1,.61,1.46h2.78v.58h-1c-.21.69-.42,1.31-.64,1.88h1.92ZM313.6,64h-2.17c-.25.47-.47.86-.66,1.15.44.15,1,.36,1.65.64A5.31,5.31,0,0,0,313.6,64Zm.3-4.58H311a15.12,15.12,0,0,1,.57,1.88h1.72A18,18,0,0,0,313.9,59.44Z"/><path class="cls-24" d="M320.57,64.68c-1.24.69-2.33,1.26-3.3,1.69l-.08-.63c.67-.31,1.17-.56,1.49-.75V61.25h-1.39v-.61h1.39v-3.2h.61v3.22h1.26v.59h-1.26v3.43c.25-.12.64-.33,1.17-.65Zm7.08,1.23h-3.38v2h-.63v-2H320.4v-.6h3.22V64.07h-2.57V58.33h1.78a6.3,6.3,0,0,0,.41-.93l.59.17c-.11.27-.21.52-.32.76h3.39v2.34h-5.25v1H327v2.44h-2.74v1.24h3.38Zm-1.38-5.84V58.94h-4.62v1.13Zm.13,3.41V62.22h-4.75v1.26Z"/><path class="cls-24" d="M331.7,65.91a3.3,3.3,0,0,0,2.09.74,2.39,2.39,0,0,0,1.53-.47,1.61,1.61,0,0,0,.59-1.31c0-1.21-.85-1.82-2.56-1.82h-.75v-.84h.71c1.52,0,2.28-.56,2.28-1.69s-.58-1.58-1.74-1.58a2.86,2.86,0,0,0-1.8.66v-1a4,4,0,0,1,2.05-.52,2.69,2.69,0,0,1,1.78.59,2,2,0,0,1,.71,1.57,2.24,2.24,0,0,1-1.82,2.31v0a2.34,2.34,0,0,1,1.55.68,2,2,0,0,1,.59,1.48,2.44,2.44,0,0,1-.89,2,3.44,3.44,0,0,1-2.28.74,3.78,3.78,0,0,1-2-.48Z"/><path class="cls-24" d="M338.41,65.91a3.3,3.3,0,0,0,2.1.74,2.43,2.43,0,0,0,1.53-.47,1.61,1.61,0,0,0,.59-1.31c0-1.21-.86-1.82-2.57-1.82h-.75v-.84H340c1.51,0,2.27-.56,2.27-1.69s-.58-1.58-1.73-1.58a2.91,2.91,0,0,0-1.81.66v-1a4,4,0,0,1,2.05-.52,2.72,2.72,0,0,1,1.79.59,2,2,0,0,1,.7,1.57,2.23,2.23,0,0,1-1.82,2.31v0a2.35,2.35,0,0,1,1.56.68,2,2,0,0,1,.59,1.48,2.42,2.42,0,0,1-.9,2,3.4,3.4,0,0,1-2.28.74,3.8,3.8,0,0,1-2-.48Z"/><path class="cls-24" d="M344.9,64.82a2.45,2.45,0,0,1,.49-1.44,2.79,2.79,0,0,1,1.27-1,3.14,3.14,0,0,1-1-.88,2,2,0,0,1-.37-1.14,2.22,2.22,0,0,1,.31-1.16,2.19,2.19,0,0,1,.9-.83,2.86,2.86,0,0,1,2.55,0,2.1,2.1,0,0,1,.89.83,2.14,2.14,0,0,1,.32,1.16,1.93,1.93,0,0,1-.37,1.13,3,3,0,0,1-1,.89,2.82,2.82,0,0,1,1.28,1,2.41,2.41,0,0,1,.47,1.42,2.68,2.68,0,0,1-.36,1.38,2.46,2.46,0,0,1-1,.94,3.2,3.2,0,0,1-1.49.34,3.13,3.13,0,0,1-1.48-.34,2.41,2.41,0,0,1-1-.94A2.64,2.64,0,0,1,344.9,64.82Zm1,0a1.81,1.81,0,0,0,.53,1.37,1.89,1.89,0,0,0,1.38.5,1.93,1.93,0,0,0,1.38-.51,1.82,1.82,0,0,0,.53-1.36,1.8,1.8,0,0,0-.54-1.33,1.85,1.85,0,0,0-1.37-.54,1.88,1.88,0,0,0-1.37.53A1.79,1.79,0,0,0,345.88,64.77Zm.33-4.28a1.47,1.47,0,0,0,.46,1.09,1.52,1.52,0,0,0,1.12.46,1.55,1.55,0,0,0,1.12-.46,1.53,1.53,0,0,0,0-2.21,1.6,1.6,0,0,0-1.12-.44,1.54,1.54,0,0,0-1.14.45A1.51,1.51,0,0,0,346.21,60.49Z"/><path class="cls-24" d="M352.12,66.22a3.18,3.18,0,0,0,1.6.43,2.22,2.22,0,0,0,1.93-1,5,5,0,0,0,.7-2.87h0a2.12,2.12,0,0,1-2,1.18,2.51,2.51,0,0,1-1.92-.8,2.85,2.85,0,0,1-.74-2,3,3,0,0,1,.79-2.16,2.71,2.71,0,0,1,2.1-.87,2.37,2.37,0,0,1,2.09,1.07,5.4,5.4,0,0,1,.73,3.07,6.78,6.78,0,0,1-.95,3.86,3.11,3.11,0,0,1-2.71,1.38,3.68,3.68,0,0,1-1.56-.3Zm.51-5.24a2.2,2.2,0,0,0,.5,1.52,1.72,1.72,0,0,0,1.37.57,1.74,1.74,0,0,0,1.28-.51,1.69,1.69,0,0,0,.5-1.24,2.76,2.76,0,0,0-.5-1.7,1.61,1.61,0,0,0-1.35-.68,1.65,1.65,0,0,0-1.3.59A2.2,2.2,0,0,0,352.63,61Z"/><path class="cls-24" d="M261.77,136.76a16.49,16.49,0,0,1-1.15,1.78v6.05H260v-5.21q-.71.76-1.29,1.29l-.44-.51a13.8,13.8,0,0,0,3-3.62Zm-.36-2.43a11.8,11.8,0,0,1-2.64,2.63l-.41-.47a8.86,8.86,0,0,0,2.47-2.44Zm7.47,9.69-.24.62a14.21,14.21,0,0,1-3.57-1.33,13.68,13.68,0,0,1-3.77,1.31l-.32-.57a12.23,12.23,0,0,0,3.49-1.13,9.38,9.38,0,0,1-1.53-1.45,12.34,12.34,0,0,1-1.24.84l-.45-.46a7.06,7.06,0,0,0,1.28-.84c-.19-.22-.36-.44-.5-.63l.48-.39a6.17,6.17,0,0,0,.48.6,4,4,0,0,0,1-1.3l-2,.09-.15-.62a12.5,12.5,0,0,0,3.1-1.64l-2.66.15-.11-.62a8.82,8.82,0,0,0,3.09-2.61l.6.23a9.13,9.13,0,0,1-2.48,2.34c.6,0,1.42-.07,2.46-.17.55-.44,1.07-.89,1.53-1.33l.62.28a19.88,19.88,0,0,1-4.59,3.34,40.19,40.19,0,0,0,4-.32,10.39,10.39,0,0,0-.75-1l.52-.32a12.25,12.25,0,0,1,1.72,2.54l-.53.32a6.61,6.61,0,0,0-.57-1c-.94.11-2,.21-3.12.29a6.94,6.94,0,0,1-.62,1.12h3.72V141a11.1,11.1,0,0,1-2.08,2A12.44,12.44,0,0,0,268.88,144Zm-2-3.07h-3.39a.4.4,0,0,1-.1.12,8.19,8.19,0,0,0,1.65,1.5A8.83,8.83,0,0,0,266.9,141Z"/><path class="cls-24" d="M273.89,136.61H273l.44.41c-.07,1.23-.29,3.14-.67,5.71.21-.06.51-.16.9-.31l0,.64a28.82,28.82,0,0,1-3.52,1l-.14-.63a5.84,5.84,0,0,0,.94-.22,51.34,51.34,0,0,0-.42-6.26l.47-.37h-.83V136h1.56a12.71,12.71,0,0,0-.59-1.68l.57-.21a14.92,14.92,0,0,1,.63,1.89h1.49Zm-1,0h-1.72a58.26,58.26,0,0,1,.45,6.48l.53-.16A50.82,50.82,0,0,0,272.89,136.61Zm7.68,2h-3.16c-.14.44-.31.89-.49,1.33h3.2v3.89c0,.54-.34.82-1,.82l-.31,0-.16-.6.41,0q.48,0,.48-.39v-3.13h-1.14v3.7h-.6v-3.7h-1.16v3.7H276v-3.7h-1.17v4.14h-.58v-4.73h2a10.06,10.06,0,0,0,.49-1.33h-2.94V138h6.75Zm-.62-1.78h-5.46V134.7h.61v1.54h1.75v-2.07h.61v2.07h1.86V134.7H280Z"/><path class="cls-24" d="M287.09,137.38a.68.68,0,0,1,.49.2.7.7,0,0,1,0,1,.67.67,0,0,1-.49.19.65.65,0,0,1-.48-.19.65.65,0,0,1,0-1A.62.62,0,0,1,287.09,137.38Zm0,5.4a.65.65,0,0,1,.68.68.65.65,0,0,1-.19.48.64.64,0,0,1-.49.21.68.68,0,0,1-.69-.69.64.64,0,0,1,.21-.49A.65.65,0,0,1,287.09,142.78Z"/><path class="cls-24" d="M304.17,143.78l-.19.61h-4.39a5.44,5.44,0,0,1-4.11-1.34,9,9,0,0,1-1.44,1.62l-.47-.41a6.9,6.9,0,0,0,2.37-3.88h-2v-.57c.6-.69,1.25-1.5,1.92-2.43h-2.11v-.6h2.83v.6c-.39.55-1,1.34-1.84,2.4h1.86v.6a8.91,8.91,0,0,1-.8,2.17,4.83,4.83,0,0,0,3.63,1.23Zm-8-7.84-.46.43A8,8,0,0,0,294,134.6l.43-.43A10.42,10.42,0,0,1,296.18,135.94Zm7.91,6H301v1.33h-.63V142h-3.15v-.58h3.15v-.94h-2.66v-3.89h2.66v-.93h-3v-.58h3v-.95H301v.95h3v.58h-3v.93h2.68v3.89H301v.94h3.13Zm-3.76-3.79v-1h-2v1Zm0,1.7v-1.11h-2v1.11Zm2.7-1.7v-1H301v1Zm0,1.7v-1.11H301v1.11Z"/><path class="cls-24" d="M308.8,136.89h-1.17v2.4a7.53,7.53,0,0,0,1.06-.43l.08.63-1.14.47v3.82a.77.77,0,0,1-.88.87l-.92,0-.2-.66.69,0a1.18,1.18,0,0,0,.59-.08.25.25,0,0,0,.11-.23v-3.47l-1.46.48-.14-.6c.48-.14,1-.32,1.6-.54v-2.66h-1.57v-.63H307v-2.14h.61v2.14h1.17Zm7.06,3.8h-1.59a5.51,5.51,0,0,1-1.26,2,22.74,22.74,0,0,1,2.78,1.51l-.36.5a17.54,17.54,0,0,0-2.9-1.57,9.76,9.76,0,0,1-3.77,1.48l-.37-.56a9.43,9.43,0,0,0,3.43-1.19c-.44-.2-1.09-.45-2-.76.23-.34.53-.82.88-1.45H309v-.59h2.09a12.17,12.17,0,0,0,.61-1.26l.59.17a8.3,8.3,0,0,1-.5,1.09h2.06a4.76,4.76,0,0,0,.2-.68l.59.1a4.26,4.26,0,0,1-.14.58h1.4Zm0-2.1H309V138h1.94a9.89,9.89,0,0,0-.6-1.88h-1.14v-.58h2.94a4.28,4.28,0,0,0-.47-1.18l.55-.28a7,7,0,0,1,.61,1.46h2.78v.58h-1c-.21.69-.42,1.31-.64,1.88h1.92Zm-2.24,2.1h-2.17c-.25.47-.47.85-.66,1.15.44.15,1,.36,1.65.64A5.31,5.31,0,0,0,313.6,140.69Zm.3-4.58H311a15.12,15.12,0,0,1,.57,1.88h1.72A18,18,0,0,0,313.9,136.11Z"/><path class="cls-24" d="M320.57,141.35c-1.24.69-2.33,1.26-3.3,1.69l-.08-.63c.67-.31,1.17-.56,1.49-.75v-3.74h-1.39v-.61h1.39v-3.2h.61v3.22h1.26v.59h-1.26v3.43c.25-.12.64-.33,1.17-.65Zm7.08,1.23h-3.38v2h-.63v-2H320.4V142h3.22v-1.24h-2.57V135h1.78a6.3,6.3,0,0,0,.41-.93l.59.17c-.11.27-.21.52-.32.76h3.39v2.34h-5.25v1H327v2.44h-2.74V142h3.38Zm-1.38-5.84v-1.13h-4.62v1.13Zm.13,3.41v-1.26h-4.75v1.26Z"/><path class="cls-24" d="M336.21,134.92V141h1.37v.83h-1.37V144h-1v-2.17H331V141a29.83,29.83,0,0,0,2.3-3,29,29,0,0,0,1.85-3.1Zm-1,6.08v-4.49l-.12,0a30.48,30.48,0,0,1-3.06,4.52Z"/><path class="cls-24" d="M342.93,134.92V141h1.36v.83h-1.36V144h-1v-2.17h-4.26V141a29.89,29.89,0,0,0,2.31-3,28.8,28.8,0,0,0,1.84-3.1ZM342,141v-4.49l-.13,0a29,29,0,0,1-3.06,4.52Z"/><path class="cls-24" d="M345.13,142.58a3.3,3.3,0,0,0,2.09.74,2.39,2.39,0,0,0,1.53-.47,1.61,1.61,0,0,0,.59-1.31c0-1.21-.85-1.82-2.56-1.82H346v-.84h.71c1.52,0,2.28-.56,2.28-1.69s-.58-1.58-1.74-1.58a2.86,2.86,0,0,0-1.8.66v-1a4,4,0,0,1,2-.52,2.69,2.69,0,0,1,1.78.59,2,2,0,0,1,.71,1.57,2.24,2.24,0,0,1-1.82,2.31v0a2.34,2.34,0,0,1,1.55.68,2,2,0,0,1,.59,1.48,2.44,2.44,0,0,1-.89,2,3.44,3.44,0,0,1-2.28.74,3.75,3.75,0,0,1-2-.48Z"/><path class="cls-24" d="M22.75,130.5a.79.79,0,0,1-.21.56.82.82,0,0,1-.57.23h-.78a6.12,6.12,0,0,1-.62,0l-.23-.65a14,14,0,0,0,1.51.05.26.26,0,0,0,.19-.09.34.34,0,0,0,.08-.21v-1.75H19.38a6.38,6.38,0,0,1-1.17,2.75l-.48-.43a7.09,7.09,0,0,0,1.15-4.37v-2.67h3.87Zm5.49-7.64H17.74v-.6h10.5ZM22.12,128v-1.48H19.5c0,.31,0,.8-.07,1.48Zm0-2.11v-1.39H19.5v1.39Zm0-4.1-.61.25A7,7,0,0,0,20.3,121l.67-.27A7.72,7.72,0,0,1,22.12,121.82Zm3.7-.83a5.54,5.54,0,0,1-1.18,1.07l-.65-.33a6.67,6.67,0,0,0,1.27-1Zm-.91,8.29H24.3v-5.19h.61Zm2.39,1.14a.9.9,0,0,1-.16.55.63.63,0,0,1-.4.27,4.62,4.62,0,0,1-.93.06l-.85,0-.23-.66,1.66.06c.2,0,.3-.1.3-.35V123.8h.61Z"/><path class="cls-24" d="M33.38,123.23h-.85l.45.41q-.1,1.88-.68,5.76c.21-.06.51-.16.91-.31l0,.65a32.78,32.78,0,0,1-3.55,1l-.14-.64a7.7,7.7,0,0,0,.95-.22,52.26,52.26,0,0,0-.43-6.31l.47-.38H29.7v-.6h1.57a13.41,13.41,0,0,0-.59-1.7l.57-.2a13.16,13.16,0,0,1,.64,1.9h1.49Zm-1,0H30.65a59.28,59.28,0,0,1,.45,6.53l.53-.15A50.42,50.42,0,0,0,32.38,123.23Zm7.74,2H36.94c-.15.44-.32.89-.5,1.34h3.22v3.92c0,.55-.34.82-1,.82h-.32l-.16-.61a3.4,3.4,0,0,0,.42,0q.48,0,.48-.39v-3.16H37.91v3.73H37.3v-3.73H36.14v3.73h-.59v-3.73H34.38v4.18h-.59v-4.77h2a10.23,10.23,0,0,0,.5-1.34h-3v-.58h6.81Zm-.62-1.79H34v-2.13h.62v1.55h1.76v-2.08H37v2.08h1.88v-1.55h.64Z"/><path class="cls-24" d="M46.69,124a.68.68,0,0,1,.69.69.69.69,0,0,1-.2.48.73.73,0,0,1-1,0,.62.62,0,0,1-.2-.48.63.63,0,0,1,.2-.49A.68.68,0,0,1,46.69,124Zm0,5.44a.64.64,0,0,1,.49.2.66.66,0,0,1,.2.49.7.7,0,0,1-.2.49.7.7,0,0,1-1,0,.64.64,0,0,1-.2-.49.65.65,0,0,1,.2-.5A.67.67,0,0,1,46.69,129.45Z"/><path class="cls-24" d="M63.9,130.46l-.2.61H59.29a5.53,5.53,0,0,1-4.15-1.34,9.1,9.1,0,0,1-1.45,1.63l-.47-.41A7.09,7.09,0,0,0,55.61,127h-2v-.57c.62-.7,1.26-1.51,1.94-2.45H53.38v-.61h2.85V124c-.39.55-1,1.36-1.85,2.41h1.87V127a8.91,8.91,0,0,1-.81,2.19,4.87,4.87,0,0,0,3.66,1.24Zm-8-7.9-.47.43a8.28,8.28,0,0,0-1.73-1.78l.43-.43A11,11,0,0,1,55.85,122.56Zm8,6.09H60.66V130H60v-1.34H56.85v-.59H60v-.94H57.35V123.2H60v-.94H57v-.59h3v-1h.64v1h3v.59h-3v.94h2.7v3.92h-2.7v.94h3.16ZM60,124.83v-1H58v1Zm0,1.71v-1.12H58v1.12Zm2.72-1.71v-1H60.66v1Zm0,1.71v-1.12H60.66v1.12Z"/><path class="cls-24" d="M68.56,123.51H67.39v2.43a8.46,8.46,0,0,0,1.06-.44l.09.64-1.15.47v3.85a.79.79,0,0,1-.9.88l-.92,0-.2-.66.69,0a1.18,1.18,0,0,0,.6-.09.27.27,0,0,0,.11-.23v-3.5l-1.47.49-.14-.61c.48-.14,1-.32,1.61-.55v-2.68H65.18v-.63h1.59v-2.15h.62v2.15h1.17Zm7.12,3.84H74.07a5.61,5.61,0,0,1-1.26,2.05,25.43,25.43,0,0,1,2.8,1.52l-.37.51a17.38,17.38,0,0,0-2.92-1.58,10,10,0,0,1-3.8,1.49l-.37-.56a9.59,9.59,0,0,0,3.46-1.21c-.44-.2-1.11-.45-2-.76.23-.34.53-.83.89-1.46H68.73v-.6h2.1a11.47,11.47,0,0,0,.62-1.27l.59.17a9.93,9.93,0,0,1-.5,1.1h2.07a4.56,4.56,0,0,0,.2-.69l.6.11a3.32,3.32,0,0,1-.15.58h1.42Zm0-2.12H68.75v-.61h2a10.66,10.66,0,0,0-.6-1.88H69v-.6h3a4.76,4.76,0,0,0-.47-1.18l.55-.28a7,7,0,0,1,.61,1.46h2.8v.6h-1c-.2.68-.42,1.31-.64,1.88h1.94Zm-2.26,2.12H71.22c-.26.47-.48.86-.68,1.15.45.16,1,.37,1.67.65A5.38,5.38,0,0,0,73.4,127.35Zm.3-4.61H70.77a13.77,13.77,0,0,1,.58,1.88h1.73A18.83,18.83,0,0,0,73.7,122.74Z"/><path class="cls-24" d="M80.42,128c-1.24.7-2.35,1.27-3.32,1.7l-.08-.63q1-.47,1.5-.75v-3.78h-1.4V124h1.4v-3.23h.61V124H80.4v.59H79.13V128c.25-.12.64-.33,1.18-.65Zm7.13,1.24h-3.4v2h-.64v-2H80.25v-.6h3.24v-1.26H80.91v-5.78h1.78a4.73,4.73,0,0,0,.42-.93l.6.17c-.11.27-.22.52-.33.76H86.8V124H81.51v1h5.41v2.45H84.15v1.26h3.4Zm-1.38-5.88v-1.14H81.51v1.14Zm.13,3.43v-1.27H81.51v1.27Z"/><path class="cls-24" d="M91.63,129.25a3.31,3.31,0,0,0,2.12.75,2.33,2.33,0,0,0,1.53-.48,1.6,1.6,0,0,0,.6-1.32q0-1.83-2.58-1.83h-.76v-.84h.72c1.53,0,2.29-.57,2.29-1.71s-.58-1.59-1.74-1.59a2.89,2.89,0,0,0-1.82.66v-1a3.92,3.92,0,0,1,2.06-.53,2.68,2.68,0,0,1,1.8.6,1.94,1.94,0,0,1,.71,1.58,2.26,2.26,0,0,1-1.83,2.33v0a2.36,2.36,0,0,1,1.56.69,2,2,0,0,1,.6,1.5,2.44,2.44,0,0,1-.9,2,3.47,3.47,0,0,1-2.3.74,3.76,3.76,0,0,1-2.06-.49Z"/><path class="cls-24" d="M98.4,129.25a3.28,3.28,0,0,0,2.11.75,2.38,2.38,0,0,0,1.54-.48,1.59,1.59,0,0,0,.59-1.32q0-1.83-2.58-1.83h-.75v-.84H100c1.53,0,2.29-.57,2.29-1.71s-.58-1.59-1.75-1.59a2.93,2.93,0,0,0-1.82.66v-1a4,4,0,0,1,2.07-.53,2.72,2.72,0,0,1,1.8.6,2,2,0,0,1,.71,1.58,2.25,2.25,0,0,1-1.84,2.33v0a2.4,2.4,0,0,1,1.57.69,2,2,0,0,1,.59,1.5,2.44,2.44,0,0,1-.9,2,3.45,3.45,0,0,1-2.3.74,3.75,3.75,0,0,1-2-.49Z"/><path class="cls-24" d="M104.94,128.16a2.39,2.39,0,0,1,.49-1.45,2.79,2.79,0,0,1,1.28-1,2.88,2.88,0,0,1-1-.89,1.92,1.92,0,0,1-.37-1.14,2.23,2.23,0,0,1,.31-1.17,2.29,2.29,0,0,1,.91-.83,2.61,2.61,0,0,1,1.28-.31,2.79,2.79,0,0,1,1.29.3,2.24,2.24,0,0,1,1.22,2,2,2,0,0,1-.37,1.14,3.09,3.09,0,0,1-1,.89,2.82,2.82,0,0,1,1.29,1,2.49,2.49,0,0,1,.47,1.43,2.68,2.68,0,0,1-.36,1.38,2.51,2.51,0,0,1-1,1,3.24,3.24,0,0,1-1.5.34,3.17,3.17,0,0,1-1.49-.34,2.45,2.45,0,0,1-1-1A2.57,2.57,0,0,1,104.94,128.16Zm1-.06a1.8,1.8,0,0,0,.53,1.38,2.13,2.13,0,0,0,2.78,0,1.8,1.8,0,0,0,.54-1.37,1.83,1.83,0,0,0-.55-1.34,1.87,1.87,0,0,0-1.38-.54,1.9,1.9,0,0,0-1.38.53A1.83,1.83,0,0,0,105.93,128.1Zm.33-4.31a1.5,1.5,0,0,0,.46,1.1,1.53,1.53,0,0,0,1.13.47,1.56,1.56,0,0,0,1.12-.47,1.55,1.55,0,0,0,0-2.23,1.62,1.62,0,0,0-1.13-.44,1.52,1.52,0,0,0-1.59,1.57Z"/><path class="cls-24" d="M112.21,129.57a3.32,3.32,0,0,0,1.61.43,2.24,2.24,0,0,0,2-1,5.07,5.07,0,0,0,.7-2.9h0a2.11,2.11,0,0,1-2.06,1.2,2.52,2.52,0,0,1-1.93-.81,2.89,2.89,0,0,1-.75-2,3.12,3.12,0,0,1,.8-2.18,2.75,2.75,0,0,1,2.12-.87,2.39,2.39,0,0,1,2.11,1.08,5.57,5.57,0,0,1,.73,3.1,6.77,6.77,0,0,1-1,3.88,3.11,3.11,0,0,1-2.73,1.39,3.76,3.76,0,0,1-1.57-.3Zm.51-5.29a2.25,2.25,0,0,0,.5,1.53,1.74,1.74,0,0,0,1.39.58,1.76,1.76,0,0,0,1.8-1.77,2.75,2.75,0,0,0-.51-1.7,1.71,1.71,0,0,0-2.67-.09A2.16,2.16,0,0,0,112.72,124.28Z"/><path class="cls-24" d="M70.92,143.7l-.2.61H66.3A5.48,5.48,0,0,1,62.16,143a9.21,9.21,0,0,1-1.46,1.64l-.47-.41a7,7,0,0,0,2.39-3.92h-2v-.57c.61-.7,1.26-1.51,1.94-2.45H60.39v-.61h2.85v.61c-.39.55-1,1.35-1.84,2.41h1.87v.61a8.91,8.91,0,0,1-.81,2.19,4.87,4.87,0,0,0,3.66,1.24Zm-8.05-7.9-.47.43a8.53,8.53,0,0,0-1.73-1.78l.43-.43A11,11,0,0,1,62.87,135.8Zm8,6.09H67.68v1.34H67v-1.34H63.87v-.59H67v-1H64.36v-3.92H67v-.93H64v-.59H67v-1h.64v1h3v.59h-3v.93h2.7v3.92h-2.7v1h3.16ZM67,138.07v-1H65v1Zm0,1.71v-1.12H65v1.12Zm2.72-1.71v-1H67.68v1Zm0,1.71v-1.12H67.68v1.12Z"/><path class="cls-24" d="M75.52,136.75H74.34v2.43a7.88,7.88,0,0,0,1.06-.44l.09.63c-.14.07-.52.23-1.15.48v3.85a.79.79,0,0,1-.89.88l-.92,0-.21-.67.7,0a1.18,1.18,0,0,0,.59-.08.26.26,0,0,0,.12-.24V140.1l-1.48.48-.13-.6c.47-.14,1-.32,1.61-.55v-2.68H72.14v-.63h1.59V134h.61v2.15h1.18Zm7.12,3.83H81a5.58,5.58,0,0,1-1.27,2.06,24.54,24.54,0,0,1,2.8,1.52l-.36.51a17.78,17.78,0,0,0-2.92-1.58,10.25,10.25,0,0,1-3.8,1.49L75.1,144a9.35,9.35,0,0,0,3.46-1.2c-.44-.2-1.1-.45-2-.76.23-.34.53-.83.88-1.47H75.68V140h2.11a11.41,11.41,0,0,0,.61-1.27l.6.17a8.55,8.55,0,0,1-.51,1.1h2.08a3.7,3.7,0,0,0,.19-.69l.61.11c0,.14-.08.34-.15.58h1.42Zm0-2.12h-6.9v-.6h2a9.53,9.53,0,0,0-.6-1.89H75.91v-.59h3a4.86,4.86,0,0,0-.48-1.18l.56-.28a7.6,7.6,0,0,1,.61,1.46h2.8V136H81.32c-.21.69-.42,1.32-.64,1.89h1.93Zm-2.26,2.12H78.17c-.25.48-.48.87-.67,1.16.44.15,1,.37,1.66.64A5,5,0,0,0,80.35,140.58Zm.3-4.61H77.73a16,16,0,0,1,.58,1.89H80A16.11,16.11,0,0,0,80.65,136Z"/><path class="cls-24" d="M87.32,141.25C86.07,142,85,142.51,84,143l-.07-.64a14.62,14.62,0,0,0,1.5-.75v-3.77H84v-.61h1.4V134H86v3.25h1.27v.59H86v3.46a13,13,0,0,0,1.18-.65Zm7.13,1.24H91v2h-.63v-2H87.15v-.6h3.24v-1.26H87.8v-5.78h1.79a5.77,5.77,0,0,0,.41-.93l.6.17c-.11.27-.21.52-.32.76H93.7v2.36H88.4v1h5.41v2.45H91v1.26h3.41Zm-1.39-5.88v-1.14H88.4v1.14Zm.13,3.43v-1.27H88.4V140Z"/><path class="cls-24" d="M103,134.77v6.13h1.37v.84H103v2.18h-1v-2.18H97.7v-.83a29.29,29.29,0,0,0,2.32-3,28.36,28.36,0,0,0,1.86-3.12Zm-1,6.13v-4.52l-.13,0a30.63,30.63,0,0,1-3.08,4.55Z"/><path class="cls-24" d="M109.66,134.77v6.13H111v.84h-1.38v2.18h-1v-2.18h-4.29v-.83a29.29,29.29,0,0,0,2.32-3,28.36,28.36,0,0,0,1.86-3.12Zm-1,6.13v-4.52l-.13,0a30,30,0,0,1-3.09,4.55Z"/><path class="cls-24" d="M111.82,142.49a3.28,3.28,0,0,0,2.11.75,2.38,2.38,0,0,0,1.54-.48,1.59,1.59,0,0,0,.59-1.32q0-1.83-2.58-1.83h-.75v-.84h.72c1.52,0,2.29-.57,2.29-1.72s-.58-1.58-1.75-1.58a2.93,2.93,0,0,0-1.82.66v-1a3.93,3.93,0,0,1,2.07-.53,2.72,2.72,0,0,1,1.8.6,2,2,0,0,1,.71,1.58,2.25,2.25,0,0,1-1.84,2.33v0a2.45,2.45,0,0,1,1.57.68,2.06,2.06,0,0,1,.59,1.5,2.46,2.46,0,0,1-.9,2,3.45,3.45,0,0,1-2.3.74,3.73,3.73,0,0,1-2.05-.49Z"/><path class="cls-24" d="M77.43,156.9l-.2.61H72.82a5.49,5.49,0,0,1-4.15-1.35,8.81,8.81,0,0,1-1.45,1.64l-.47-.41a7,7,0,0,0,2.39-3.92h-2v-.57c.61-.7,1.26-1.51,1.93-2.45H66.91v-.61h2.85v.61c-.39.55-1,1.35-1.85,2.41h1.87v.61a8.91,8.91,0,0,1-.81,2.19,4.87,4.87,0,0,0,3.66,1.24ZM69.38,149l-.46.43a8.79,8.79,0,0,0-1.73-1.78l.43-.43A10.53,10.53,0,0,1,69.38,149Zm8,6.09H74.19v1.34h-.63v-1.34H70.38v-.59h3.18v-.95H70.88v-3.92h2.68v-.93h-3v-.59h3v-1h.63v1h3v.59h-3v.93h2.7v3.92h-2.7v.95h3.16Zm-3.79-3.82v-1H71.5v1Zm0,1.71v-1.12H71.5V153Zm2.72-1.71v-1H74.19v1Zm0,1.71v-1.12H74.19V153Z"/><path class="cls-24" d="M82.09,150H80.92v2.43a7.88,7.88,0,0,0,1.06-.44l.09.63c-.14.07-.52.23-1.15.48v3.85a.79.79,0,0,1-.89.88l-.93,0-.2-.67.7,0a1.18,1.18,0,0,0,.59-.08.26.26,0,0,0,.11-.24V153.3l-1.47.48-.14-.6c.48-.14,1-.32,1.61-.55V150H78.72v-.63H80.3v-2.15h.62v2.15h1.17Zm7.12,3.83h-1.6a5.58,5.58,0,0,1-1.27,2.06,25.43,25.43,0,0,1,2.8,1.52l-.36.51a17.93,17.93,0,0,0-2.93-1.58,10.19,10.19,0,0,1-3.79,1.49l-.38-.57a9.35,9.35,0,0,0,3.46-1.2c-.44-.2-1.1-.45-2-.76.23-.34.52-.83.88-1.47H82.26v-.59h2.11a13.5,13.5,0,0,0,.61-1.27l.6.17c-.13.33-.3.69-.51,1.1h2.08a4.68,4.68,0,0,0,.19-.69l.6.11a4.64,4.64,0,0,1-.14.58h1.41Zm0-2.11h-6.9v-.61h1.95a11.05,11.05,0,0,0-.6-1.89H82.49v-.59h3A4.76,4.76,0,0,0,85,147.4l.55-.28a6.52,6.52,0,0,1,.61,1.46H89v.59h-1c-.21.69-.42,1.32-.65,1.89h1.94Zm-2.26,2.11H84.75c-.26.48-.48.87-.67,1.16.44.15,1,.37,1.66.64A5.18,5.18,0,0,0,86.93,153.78Zm.3-4.61H84.31a15.74,15.74,0,0,1,.57,1.89h1.73A16.1,16.1,0,0,0,87.23,149.17Z"/><path class="cls-24" d="M94,154.45c-1.24.7-2.35,1.26-3.32,1.7l-.08-.64a12.76,12.76,0,0,0,1.5-.75V151h-1.4v-.61h1.4v-3.23h.61v3.25h1.27V151H92.66v3.46c.25-.12.65-.33,1.18-.65Zm7.13,1.24h-3.4v2h-.63v-2H93.78v-.6H97v-1.26H94.44v-5.78h1.79a5.77,5.77,0,0,0,.41-.93l.6.17-.32.76h3.42v2.36H95v1h5.41v2.45H97.68v1.26h3.4Zm-1.38-5.88v-1.14H95v1.14Zm.13,3.43V152H95v1.27Z"/><path class="cls-24" d="M104.94,154.59a2.41,2.41,0,0,1,.49-1.45,2.83,2.83,0,0,1,1.28-1,3,3,0,0,1-1-.89,1.92,1.92,0,0,1-.37-1.14,2.15,2.15,0,0,1,.32-1.17,2.19,2.19,0,0,1,.9-.83,2.61,2.61,0,0,1,1.28-.31,2.79,2.79,0,0,1,1.29.3,2.24,2.24,0,0,1,1.22,2,1.91,1.91,0,0,1-.37,1.13,3,3,0,0,1-1,.9,2.82,2.82,0,0,1,1.29,1,2.46,2.46,0,0,1,.47,1.42,2.69,2.69,0,0,1-.36,1.39,2.51,2.51,0,0,1-1,1,3.24,3.24,0,0,1-1.5.34,3.17,3.17,0,0,1-1.49-.34,2.45,2.45,0,0,1-1-1A2.58,2.58,0,0,1,104.94,154.59Zm1-.05a1.8,1.8,0,0,0,.53,1.38,2.13,2.13,0,0,0,2.78,0,1.82,1.82,0,0,0,.54-1.37,1.8,1.8,0,0,0-.55-1.34,2,2,0,0,0-2.76,0A1.83,1.83,0,0,0,105.93,154.54Zm.33-4.32a1.57,1.57,0,0,0,1.59,1.57,1.55,1.55,0,0,0,1.12-.46,1.55,1.55,0,0,0,0-2.23,1.59,1.59,0,0,0-1.13-.45,1.52,1.52,0,0,0-1.15.46A1.54,1.54,0,0,0,106.26,150.22Z"/><path class="cls-24" d="M111.66,152.73a6.86,6.86,0,0,1,.79-3.66,2.53,2.53,0,0,1,2.27-1.25c1.9,0,2.86,1.56,2.86,4.69a6.63,6.63,0,0,1-.79,3.52,2.52,2.52,0,0,1-2.27,1.24,2.34,2.34,0,0,1-2.13-1.19A6.38,6.38,0,0,1,111.66,152.73Zm1,0c0,2.5.66,3.76,2,3.76s1.95-1.27,1.95-3.81-.64-4-1.9-4S112.66,150,112.66,152.68Z"/><path class="cls-24" d="M261.77,217.67a17.38,17.38,0,0,1-1.15,1.77v6.05H260v-5.2c-.47.5-.9.93-1.29,1.28l-.44-.5a13.7,13.7,0,0,0,3-3.63Zm-.36-2.44a11.38,11.38,0,0,1-2.64,2.63l-.41-.47a9,9,0,0,0,2.47-2.43Zm7.47,9.7-.24.61a14.6,14.6,0,0,1-3.57-1.32,14,14,0,0,1-3.77,1.31L261,225a12.23,12.23,0,0,0,3.49-1.12,9.84,9.84,0,0,1-1.53-1.46,9.69,9.69,0,0,1-1.24.84l-.45-.46a6.6,6.6,0,0,0,1.28-.83c-.19-.23-.36-.44-.5-.64l.48-.38c.1.14.26.34.48.59a4,4,0,0,0,1-1.29l-2,.09-.15-.63a12.43,12.43,0,0,0,3.1-1.63l-2.66.14-.11-.62a8.61,8.61,0,0,0,3.09-2.61l.6.23a9.13,9.13,0,0,1-2.48,2.34c.6,0,1.42-.07,2.46-.16.55-.45,1.07-.89,1.53-1.34l.62.28a19.94,19.94,0,0,1-4.59,3.35c1,0,2.33-.13,4-.33a9.24,9.24,0,0,0-.75-1l.52-.33a12.56,12.56,0,0,1,1.72,2.55l-.53.31a7.13,7.13,0,0,0-.57-1c-.94.12-2,.21-3.12.29a7.12,7.12,0,0,1-.62,1.13h3.72v.59a11.81,11.81,0,0,1-2.08,2A12.83,12.83,0,0,0,268.88,224.93Zm-2-3.07h-3.39a.52.52,0,0,1-.1.11,8.19,8.19,0,0,0,1.65,1.5A9.05,9.05,0,0,0,266.9,221.86Z"/><path class="cls-24" d="M274,217.51h-.85l.44.41q-.1,1.86-.67,5.71c.21-.06.51-.16.9-.31l0,.65a30.76,30.76,0,0,1-3.52,1l-.14-.63a9.21,9.21,0,0,0,.94-.22,51.5,51.5,0,0,0-.42-6.27l.47-.37h-.83v-.6h1.56a13.8,13.8,0,0,0-.59-1.68l.57-.2a12.9,12.9,0,0,1,.63,1.88H274Zm-1,0h-1.72a58.58,58.58,0,0,1,.45,6.48l.53-.15A51.14,51.14,0,0,0,273,217.51Zm7.68,2h-3.16c-.14.45-.31.89-.49,1.34h3.2v3.88c0,.55-.34.82-1,.82a1.72,1.72,0,0,1-.31,0l-.16-.59h.41c.32,0,.48-.13.48-.38v-3.14h-1.14v3.7h-.6v-3.7h-1.16v3.7h-.58v-3.7h-1.17v4.14h-.58v-4.72h2a10.19,10.19,0,0,0,.49-1.34h-2.94v-.57h6.75Zm-.62-1.78h-5.46v-2.1h.61v1.53h1.75v-2.06h.61v2.06h1.86v-1.53H280Z"/><path class="cls-24" d="M287.21,218.28a.67.67,0,0,1,.68.68.65.65,0,0,1-.19.48.68.68,0,0,1-.49.2.66.66,0,0,1-.48-.2.65.65,0,0,1,0-1A.66.66,0,0,1,287.21,218.28Zm0,5.4a.68.68,0,0,1,.49.2.66.66,0,0,1,.19.49.68.68,0,0,1-.19.48.66.66,0,0,1-.49.2.7.7,0,0,1-.49-.2.69.69,0,0,1,0-1A.65.65,0,0,1,287.21,223.68Z"/><path class="cls-24" d="M304.35,224.69l-.19.6h-4.39a5.44,5.44,0,0,1-4.11-1.33,9,9,0,0,1-1.44,1.62l-.47-.41a6.93,6.93,0,0,0,2.37-3.89h-2v-.57c.61-.69,1.25-1.5,1.93-2.43h-2.11v-.6h2.83v.6c-.39.55-1,1.35-1.84,2.4h1.86v.6a9.18,9.18,0,0,1-.8,2.17,4.79,4.79,0,0,0,3.63,1.24Zm-8-7.85-.46.43a8,8,0,0,0-1.72-1.76l.43-.43A10.37,10.37,0,0,1,296.36,216.84Zm7.91,6h-3.13v1.33h-.64v-1.33h-3.14v-.59h3.14v-.93h-2.65v-3.9h2.65v-.93h-3V216h3v-1h.64v1h3v.58h-3v.93h2.68v3.9h-2.68v.93h3.13Zm-3.77-3.79v-1h-2v1Zm0,1.69v-1.11h-2v1.11Zm2.71-1.69v-1h-2.07v1Zm0,1.69v-1.11h-2.07v1.11Z"/><path class="cls-24" d="M309,217.79h-1.17v2.41a9,9,0,0,0,1.06-.43l.08.62c-.13.07-.51.23-1.14.47v3.83a.77.77,0,0,1-.88.86l-.92,0-.2-.66.69,0a1.31,1.31,0,0,0,.59-.08.28.28,0,0,0,.11-.24v-3.47l-1.46.48-.14-.6c.48-.14,1-.32,1.6-.54v-2.66h-1.57v-.63h1.57V215h.61v2.13H309Zm7.06,3.8h-1.59a5.36,5.36,0,0,1-1.26,2,24.19,24.19,0,0,1,2.78,1.51l-.36.51a17.54,17.54,0,0,0-2.9-1.57,9.92,9.92,0,0,1-3.77,1.47l-.37-.55a9.24,9.24,0,0,0,3.43-1.2c-.44-.2-1.09-.45-2-.75.23-.34.53-.83.88-1.46H309.2V221h2.09a10.47,10.47,0,0,0,.61-1.26l.6.17A9.28,9.28,0,0,1,312,221h2.06a4.39,4.39,0,0,0,.2-.68l.59.11a4.56,4.56,0,0,1-.14.57h1.4Zm0-2.1h-6.85v-.6h1.94a9.78,9.78,0,0,0-.6-1.87h-1.14v-.59h2.94a4.4,4.4,0,0,0-.47-1.18l.55-.27a6.93,6.93,0,0,1,.61,1.45h2.78V217h-1c-.21.68-.42,1.31-.64,1.87h1.92Zm-2.24,2.1h-2.17c-.25.48-.47.86-.66,1.15.44.15,1,.37,1.65.64A5.21,5.21,0,0,0,313.84,221.59Zm.3-4.57h-2.9a15,15,0,0,1,.57,1.87h1.72A17.83,17.83,0,0,0,314.14,217Z"/><path class="cls-24" d="M320.87,222.25c-1.23.7-2.33,1.26-3.3,1.69l-.07-.63c.66-.3,1.16-.55,1.48-.74v-3.75h-1.39v-.6H319V215h.61v3.22h1.26v.59h-1.26v3.43c.25-.11.64-.33,1.17-.64Zm7.08,1.24h-3.38v2h-.63v-2H320.7v-.6h3.22v-1.25h-2.57V215.9h1.78a5.28,5.28,0,0,0,.41-.92l.59.17c-.11.26-.21.52-.32.75h3.39v2.34H322v1h5.37v2.44h-2.75v1.25H328Zm-1.38-5.85v-1.13H322v1.13Zm.13,3.41v-1.26H322v1.26Z"/><path class="cls-24" d="M331.89,222.4a2.43,2.43,0,0,1,.49-1.44,2.86,2.86,0,0,1,1.27-1,3,3,0,0,1-1-.88,1.91,1.91,0,0,1-.37-1.13,2.23,2.23,0,0,1,.31-1.17,2.17,2.17,0,0,1,.9-.82,2.9,2.9,0,0,1,2.55,0,2.23,2.23,0,0,1,.89.83,2.17,2.17,0,0,1,.32,1.17,1.9,1.9,0,0,1-.37,1.12,2.86,2.86,0,0,1-1,.89,2.84,2.84,0,0,1,1.28,1,2.39,2.39,0,0,1,.47,1.42,2.62,2.62,0,0,1-.36,1.37,2.56,2.56,0,0,1-1,.95,3.33,3.33,0,0,1-1.49.33,3.25,3.25,0,0,1-1.48-.33,2.54,2.54,0,0,1-1-.94A2.69,2.69,0,0,1,331.89,222.4Zm1-.06a1.8,1.8,0,0,0,.53,1.37,2.11,2.11,0,0,0,2.76,0,2,2,0,0,0,0-2.69,1.85,1.85,0,0,0-1.37-.54,1.88,1.88,0,0,0-1.37.53A1.81,1.81,0,0,0,332.87,222.34Zm.33-4.28a1.49,1.49,0,0,0,.46,1.1,1.52,1.52,0,0,0,1.12.46,1.56,1.56,0,0,0,1.12-.47,1.49,1.49,0,0,0,.47-1.09,1.47,1.47,0,0,0-.47-1.11,1.56,1.56,0,0,0-1.12-.45,1.52,1.52,0,0,0-1.58,1.56Z"/><path class="cls-24" d="M338.62,220.55a6.81,6.81,0,0,1,.79-3.64,2.51,2.51,0,0,1,2.25-1.23q2.83,0,2.83,4.65a6.52,6.52,0,0,1-.77,3.49,2.5,2.5,0,0,1-2.26,1.24,2.33,2.33,0,0,1-2.11-1.19A6.39,6.39,0,0,1,338.62,220.55Zm1-.05c0,2.48.65,3.72,1.94,3.72s1.93-1.26,1.93-3.77-.62-3.94-1.88-3.94S339.62,217.84,339.62,220.5Z"/></g></svg>