<svg xmlns="http://www.w3.org/2000/svg" xmlns:xlink="http://www.w3.org/1999/xlink" viewBox="0 0 375 245"><defs><style>.cls-1{fill:#fff;}.cls-11,.cls-2,.cls-3{fill:#3c3c41;}.cls-2{opacity:0.05;}.cls-2,.cls-3{isolation:isolate;}.cls-3{opacity:0.18;}.cls-4{fill:url(#Degradado_sin_nombre);}.cls-5{fill:#003067;}.cls-6{fill:#50e6ff;}.cls-7{fill:url(#Degradado_sin_nombre_2);}.cls-8{fill:url(#Degradado_sin_nombre_3);}.cls-10,.cls-15,.cls-16,.cls-9{fill:none;stroke:#3c3c41;stroke-miterlimit:10;}.cls-10{stroke-dasharray:8.26 4.13;}.cls-12{fill:url(#Degradado_sin_nombre_4);}.cls-13{fill:#b4ec36;}.cls-14{fill:#5ea0ef;}.cls-15{stroke-dasharray:7.6 3.8;}.cls-16{stroke-dasharray:8.39 4.2;}.cls-17{fill:#1e1e1e;}</style><linearGradient id="Degradado_sin_nombre" x1="240.52" y1="304.5" x2="240.52" y2="336.5" gradientTransform="translate(0 -258)" gradientUnits="userSpaceOnUse"><stop offset="0" stop-color="#b3b2b3"/><stop offset="0.38" stop-color="#afaeaf"/><stop offset="0.76" stop-color="#a2a2a2"/><stop offset="1" stop-color="#979797"/></linearGradient><linearGradient id="Degradado_sin_nombre_2" x1="240.52" y1="383" x2="240.52" y2="415" xlink:href="#Degradado_sin_nombre"/><linearGradient id="Degradado_sin_nombre_3" x1="240.52" y1="463.18" x2="240.52" y2="495.18" xlink:href="#Degradado_sin_nombre"/><linearGradient id="Degradado_sin_nombre_4" x1="144.48" y1="417.41" x2="144.48" y2="382.63" gradientTransform="translate(0 -258)" gradientUnits="userSpaceOnUse"><stop offset="0" stop-color="#5e9624"/><stop offset="0.02" stop-color="#5f9724"/><stop offset="1" stop-color="#76bc2d"/></linearGradient></defs><title>OJ105690780</title><g id="bg"><rect class="cls-1" y="35" width="375" height="210"/><rect class="cls-2" y="35" width="375" height="210"/><rect class="cls-1" width="375" height="35"/><rect class="cls-3" width="375" height="35"/></g><g id="shapes"><path class="cls-4" d="M250.91,77.41a1.16,1.16,0,0,1-1.2,1.09H231.33a1.16,1.16,0,0,1-1.2-1.09V47.59a1.16,1.16,0,0,1,1.2-1.09h18.38a1.16,1.16,0,0,1,1.2,1.09Z"/><path class="cls-5" d="M233.19,60.18a2.38,2.38,0,0,1,2.22-2.5h10.37a2.39,2.39,0,0,1,2.22,2.5h0a2.36,2.36,0,0,1-2.11,2.59H235.45a2.39,2.39,0,0,1-2.22-2.49Z"/><path class="cls-5" d="M233.19,52.78a2.37,2.37,0,0,1,2.22-2.49h10.37A2.38,2.38,0,0,1,248,52.78h0a2.39,2.39,0,0,1-2.22,2.5H235.45a2.39,2.39,0,0,1-2.22-2.5Z"/><circle class="cls-6" cx="236.09" cy="52.78" r="1.66"/><circle class="cls-6" cx="236.09" cy="60.18" r="1.66"/><path class="cls-7" d="M250.91,155.91a1.16,1.16,0,0,1-1.2,1.09H231.33a1.16,1.16,0,0,1-1.2-1.09V126.09a1.16,1.16,0,0,1,1.2-1.09h18.38a1.16,1.16,0,0,1,1.2,1.09Z"/><path class="cls-5" d="M233.19,138.68a2.38,2.38,0,0,1,2.22-2.5h10.37a2.39,2.39,0,0,1,2.22,2.5h0a2.36,2.36,0,0,1-2.11,2.59H235.45a2.39,2.39,0,0,1-2.22-2.49Z"/><path class="cls-5" d="M233.19,131.28a2.37,2.37,0,0,1,2.22-2.49h10.37a2.38,2.38,0,0,1,2.22,2.49h0a2.39,2.39,0,0,1-2.22,2.5H235.45a2.39,2.39,0,0,1-2.22-2.5Z"/><circle class="cls-6" cx="236.09" cy="131.28" r="1.66"/><circle class="cls-6" cx="236.09" cy="138.68" r="1.66"/><path class="cls-8" d="M250.91,236.09a1.16,1.16,0,0,1-1.2,1.09H231.33a1.16,1.16,0,0,1-1.2-1.09V206.27a1.15,1.15,0,0,1,1.2-1.09h18.38a1.16,1.16,0,0,1,1.2,1.09Z"/><path class="cls-5" d="M233.19,218.86a2.4,2.4,0,0,1,2.22-2.51h10.37a2.4,2.4,0,0,1,2.22,2.51h0a2.37,2.37,0,0,1-2.13,2.59H235.45a2.39,2.39,0,0,1-2.22-2.49Z"/><path class="cls-5" d="M233.19,211.45a2.36,2.36,0,0,1,2.22-2.48h10.37a2.38,2.38,0,0,1,2.22,2.48h0a2.4,2.4,0,0,1-2.22,2.51H235.45a2.4,2.4,0,0,1-2.22-2.51Z"/><circle class="cls-6" cx="236.09" cy="211.45" r="1.66"/><circle class="cls-6" cx="236.09" cy="218.86" r="1.66"/><line class="cls-9" x1="144.98" y1="160.39" x2="144.98" y2="156.39"/><path class="cls-10" d="M145,152.26V66.83a5,5,0,0,1,5-5h65.65"/><line class="cls-9" x1="217.7" y1="61.83" x2="221.7" y2="61.83"/><polygon class="cls-11" points="220.6 65.57 227.08 61.83 220.6 58.09 220.6 65.57"/><path class="cls-12" d="M129.77,140.61l14-14a1,1,0,0,1,1.41,0h0l14,14a1,1,0,0,1,0,1.41h0l-14,14a1,1,0,0,1-1.4,0l-14-14a1,1,0,0,1,0-1.41h0Z"/><path class="cls-13" d="M148.13,133l-3.53-3.52a.2.2,0,0,0-.27,0L140.8,133a.16.16,0,0,0-.06.22h0a.18.18,0,0,0,.18.07H143a.18.18,0,0,1,.18.18v3.33a.19.19,0,0,0,.18.19h2.2a.2.2,0,0,0,.19-.19h0v-3.33a.18.18,0,0,1,.18-.18H148a.16.16,0,0,0,.2-.12A.16.16,0,0,0,148.13,133Z"/><path class="cls-13" d="M136.13,137.35l-3.5,3.55a.2.2,0,0,0,0,.25l3.5,3.51a.18.18,0,0,0,.25,0h0a.2.2,0,0,0,.06-.14v-2.05a.18.18,0,0,1,.18-.18H140a.17.17,0,0,0,.16-.17V139.9a.17.17,0,0,0-.06-.23h-3.34a.17.17,0,0,1-.18-.15h0v-2a.21.21,0,0,0-.12-.25.19.19,0,0,0-.27,0A.17.17,0,0,0,136.13,137.35Z"/><path class="cls-13" d="M152.93,144.66l3.55-3.53a.2.2,0,0,0,0-.25l-3.55-3.53a.18.18,0,0,0-.25,0h0a.21.21,0,0,0,0,.11v2.08a.18.18,0,0,1-.17.17h-3.35a.16.16,0,0,0-.16.16h0v2.22a.16.16,0,0,0,.14.18h3.35a.18.18,0,0,1,.18.18v2.06a.16.16,0,0,0,.18.16h.09Z"/><path class="cls-1" d="M149.11,141.33a4.65,4.65,0,1,0-5.9,4.45v1.58a2.85,2.85,0,1,0,3.84,1.22h0a2.87,2.87,0,0,0-1.22-1.22v-1.67A4.61,4.61,0,0,0,149.11,141.33Z"/><circle id="e99c3387-15c3-4f28-bd4b-cb209b430e06" class="cls-14" cx="144.48" cy="141.31" r="2.7"/><line class="cls-9" x1="144.48" y1="193.23" x2="144.48" y2="197.23"/><path class="cls-15" d="M144.48,201v15.15a5,5,0,0,0,5,5H215.8"/><line class="cls-9" x1="217.7" y1="221.18" x2="221.7" y2="221.18"/><polygon class="cls-11" points="220.6 224.92 227.08 221.18 220.6 217.44 220.6 224.92"/><line class="cls-9" x1="159.16" y1="142.05" x2="163.16" y2="142.05"/><line class="cls-16" x1="167.36" y1="142.05" x2="215.6" y2="142.05"/><line class="cls-9" x1="217.7" y1="142.05" x2="221.7" y2="142.05"/><polygon class="cls-11" points="220.6 145.78 227.08 142.04 220.6 138.31 220.6 145.78"/></g><g id="txt"><path class="cls-17" d="M120.44,173.17h-1.55l-.85-2.36h-3.63l-.81,2.36h-1.55l3.43-9.07H117Zm-2.79-3.52-1.27-3.58a5.27,5.27,0,0,1-.14-.69h0a3.25,3.25,0,0,1-.14.67l-1.26,3.6Z"/><path class="cls-17" d="M126.26,173.17h-5.5v-.5l3.63-4.89h-3.28v-1.09h5.16v.54l-3.57,4.85h3.56Z"/><path class="cls-17" d="M133.09,173.17h-1.37v-1h0a2.16,2.16,0,0,1-2,1.17c-1.53,0-2.29-.92-2.29-2.75v-3.89h1.37v3.72c0,1.21.46,1.81,1.39,1.81a1.39,1.39,0,0,0,1.11-.49,1.94,1.94,0,0,0,.44-1.31v-3.73h1.37Z"/><path class="cls-17" d="M138.71,168a1.46,1.46,0,0,0-.8-.19,1.28,1.28,0,0,0-1.09.58,2.68,2.68,0,0,0-.41,1.55v3.23H135v-6.48h1.38V168h0a1.76,1.76,0,0,1,1.7-1.4,1.73,1.73,0,0,1,.57.08Z"/><path class="cls-17" d="M145,170.3h-4.45a1.8,1.8,0,0,0,2,2,3.24,3.24,0,0,0,2-.64v1.14a4.1,4.1,0,0,1-2.28.57,2.93,2.93,0,0,1-2.25-.88,3.47,3.47,0,0,1-.82-2.46,3.55,3.55,0,0,1,.88-2.48,2.81,2.81,0,0,1,2.19-1,2.57,2.57,0,0,1,2,.83,3.31,3.31,0,0,1,.73,2.28Zm-1.33-1a2,2,0,0,0-.38-1.28,1.34,1.34,0,0,0-1.07-.44,1.45,1.45,0,0,0-1.09.47,2.11,2.11,0,0,0-.57,1.25Z"/><path class="cls-17" d="M154.58,173.17h-5V164.1H151V172h3.55Z"/><path class="cls-17" d="M155.33,170a3.4,3.4,0,0,1,.91-2.52,3.3,3.3,0,0,1,2.48-.93,3.07,3.07,0,0,1,2.34.9,3.34,3.34,0,0,1,.86,2.45,3.43,3.43,0,0,1-.91,2.5,3.58,3.58,0,0,1-4.8,0A3.34,3.34,0,0,1,155.33,170Zm1.4,0a2.51,2.51,0,0,0,.51,1.67,1.8,1.8,0,0,0,1.41.59c1.25,0,1.87-.76,1.87-2.3a2.63,2.63,0,0,0-.48-1.7,1.72,1.72,0,0,0-1.39-.58,1.74,1.74,0,0,0-1.41.62A2.61,2.61,0,0,0,156.73,170Z"/><path class="cls-17" d="M163.44,167.13a4.41,4.41,0,0,1,2.29-.59,2.21,2.21,0,0,1,2.46,2.54v4.09h-1.34v-1h0a2.14,2.14,0,0,1-2,1.14,2.12,2.12,0,0,1-1.5-.52,1.8,1.8,0,0,1-.55-1.39c0-1.22.73-1.93,2.18-2.13l1.88-.26c0-1-.43-1.45-1.28-1.45a3.4,3.4,0,0,0-2.14.76Zm2,3a1.84,1.84,0,0,0-1,.36,1,1,0,0,0-.29.77.9.9,0,0,0,.31.7,1.19,1.19,0,0,0,.8.27,1.53,1.53,0,0,0,1.15-.48,1.78,1.78,0,0,0,.46-1.24V170Z"/><path class="cls-17" d="M175.83,173.17h-1.37v-1h0a2.35,2.35,0,0,1-2.15,1.18,2.44,2.44,0,0,1-2-.88,3.61,3.61,0,0,1-.73-2.37,3.86,3.86,0,0,1,.82-2.57,2.66,2.66,0,0,1,2.14-1,2,2,0,0,1,1.88,1h0v-4h1.37Zm-1.36-3.79a1.7,1.7,0,0,0-.48-1.24,1.58,1.58,0,0,0-1.18-.5,1.55,1.55,0,0,0-1.32.64A2.8,2.8,0,0,0,171,170a2.5,2.5,0,0,0,.47,1.6,1.48,1.48,0,0,0,1.26.59,1.57,1.57,0,0,0,1.26-.58,2.25,2.25,0,0,0,.49-1.47Z"/><path class="cls-17" d="M120.67,186.37V177.3h2.84a3.23,3.23,0,0,1,2,.57,1.78,1.78,0,0,1,.74,1.52,2.07,2.07,0,0,1-.45,1.32,2.32,2.32,0,0,1-1.19.8v0a2.4,2.4,0,0,1,1.5.7,2.13,2.13,0,0,1,.56,1.5,2.37,2.37,0,0,1-.85,1.91,3.27,3.27,0,0,1-2.23.73Zm1.41-7.92v2.66h1a1.85,1.85,0,0,0,1.25-.39,1.35,1.35,0,0,0,.44-1.06c0-.81-.55-1.21-1.65-1.21Zm0,3.82v2.95h1.32a2,2,0,0,0,1.34-.4,1.35,1.35,0,0,0,.47-1.11q0-1.44-1.95-1.44Z"/><path class="cls-17" d="M128.4,180.33a4.44,4.44,0,0,1,2.29-.59,2.21,2.21,0,0,1,2.46,2.54v4.09h-1.34v-1h0a2.33,2.33,0,0,1-3.47.62,1.84,1.84,0,0,1-.55-1.39c0-1.22.73-1.93,2.18-2.13l1.88-.26c0-1-.43-1.45-1.27-1.45a3.46,3.46,0,0,0-2.15.76Zm2,3a1.84,1.84,0,0,0-1,.36,1,1,0,0,0-.29.77.88.88,0,0,0,.32.7,1.15,1.15,0,0,0,.79.27,1.52,1.52,0,0,0,1.15-.48,1.73,1.73,0,0,0,.46-1.24v-.57Z"/><path class="cls-17" d="M135,186.37v-9.59h1.37v9.59Z"/><path class="cls-17" d="M138.43,180.33a4.44,4.44,0,0,1,2.29-.59,2.21,2.21,0,0,1,2.46,2.54v4.09h-1.34v-1h0a2.33,2.33,0,0,1-3.47.62,1.84,1.84,0,0,1-.55-1.39c0-1.22.73-1.93,2.18-2.13l1.88-.26c0-1-.43-1.45-1.27-1.45a3.46,3.46,0,0,0-2.15.76Zm2,3a1.77,1.77,0,0,0-1,.36,1,1,0,0,0-.29.77.87.87,0,0,0,.31.7,1.15,1.15,0,0,0,.79.27,1.52,1.52,0,0,0,1.15-.48,1.73,1.73,0,0,0,.46-1.24v-.57Z"/><path class="cls-17" d="M150.69,186.37h-1.37v-3.66c0-1.25-.45-1.87-1.36-1.87a1.41,1.41,0,0,0-1.13.52,1.94,1.94,0,0,0-.45,1.32v3.69H145v-6.48h1.38V181h0a2.3,2.3,0,0,1,2.11-1.21c1.45,0,2.17.89,2.17,2.67Z"/><path class="cls-17" d="M157.11,186.1a3.6,3.6,0,0,1-1.84.43,3.05,3.05,0,0,1-2.29-.9,3.19,3.19,0,0,1-.88-2.34,3.52,3.52,0,0,1,.94-2.59,3.89,3.89,0,0,1,4.08-.65v1.29a2.53,2.53,0,0,0-1.5-.5,2,2,0,0,0-1.53.64,2.37,2.37,0,0,0-.59,1.71,2.28,2.28,0,0,0,.56,1.64,1.94,1.94,0,0,0,1.5.59,2.6,2.6,0,0,0,1.55-.52Z"/><path class="cls-17" d="M164,183.5h-4.45a1.79,1.79,0,0,0,2,2,3.27,3.27,0,0,0,2-.64V186a4.1,4.1,0,0,1-2.28.57,3,3,0,0,1-2.26-.88,3.51,3.51,0,0,1-.81-2.46,3.59,3.59,0,0,1,.87-2.48,2.84,2.84,0,0,1,2.2-1,2.59,2.59,0,0,1,2,.83,3.31,3.31,0,0,1,.73,2.28Zm-1.34-1a2,2,0,0,0-.38-1.28,1.32,1.32,0,0,0-1.06-.44,1.44,1.44,0,0,0-1.09.47,2.18,2.18,0,0,0-.58,1.25Z"/><path class="cls-17" d="M169.12,181.21a1.38,1.38,0,0,0-.8-.2,1.28,1.28,0,0,0-1.09.58,2.68,2.68,0,0,0-.41,1.55v3.23h-1.38v-6.48h1.38v1.29h0a1.76,1.76,0,0,1,1.7-1.4,1.73,1.73,0,0,1,.57.08Z"/><path class="cls-17" d="M155.48,20.3H150l.55.65a16.4,16.4,0,0,1-3.64,1.6l-.65-.93a17.79,17.79,0,0,0,3.31-1.32H147.7V14.93a5.88,5.88,0,0,1-.92.55l-.59-.86a13.65,13.65,0,0,0,3.64-2.71l1.17.28a2.22,2.22,0,0,1-.4.43h3.72v.91a7.21,7.21,0,0,1-.77.73h1.93Zm-2.7-6.77h-3.11c-.37.31-.69.55-.95.73h3.18A7.55,7.55,0,0,0,152.78,13.53ZM154.44,16v-.78h-5.69V16Zm0,1.68v-.8h-5.69v.8Zm0,1.72v-.83h-5.69v.83Zm2.45,2.15-.49,1a24,24,0,0,0-3.9-.95l.51-1A28.54,28.54,0,0,1,156.89,21.51Z"/><path class="cls-17" d="M168.89,20.09a5,5,0,0,1-.48,1.73,1,1,0,0,1-.93.66.87.87,0,0,1-.59-.22,3.7,3.7,0,0,1-.68-1.11A15.68,15.68,0,0,1,165,22.52l-.88-.64a2.25,2.25,0,0,0,.37-.33h-2.32v.92h-1v-.92h-2.71v-.77h2.71v-.62h-2.26V16.85h2.26V16.3H158.5v-.77h2.64V14.9H158.3v-.83h2.84v-.62h-2.49v-.81h2.49V12h1v.64h2.54v.81h-2.54v.62h3.11c0-.66,0-1.35,0-2.09h1l0,2.09h2.47v.83h-2.43a31.68,31.68,0,0,0,.24,3.67,13.93,13.93,0,0,0,.93-3l1,.28a15.64,15.64,0,0,1-1.57,4.17,4.43,4.43,0,0,0,.27.76,3.24,3.24,0,0,0,.23.46l.06,0c.17,0,.32-.57.46-1.7Zm-7.75-1.93v-.57h-1.28v.57Zm0,1.27v-.6h-1.28v.6Zm4.65.49a20.62,20.62,0,0,1-.5-5h-3.14v.63h2.55v.77h-2.55v.55h2.26v3.31h-2.26v.62h2.5v.58A10,10,0,0,0,165.79,19.92Zm-2.38-1.77v-.56h-1.26v.56Zm0,1.28v-.6h-1.26v.6Zm5.06-6.12-.8.53a5.74,5.74,0,0,0-1-1.26l.74-.58A5.56,5.56,0,0,1,168.47,13.31Z"/><path class="cls-17" d="M180.73,18.77h-4.67v3.75H175V18.77h-4.68V17.71H175v-4.3H170.6V12.35h9.88v1.06h-4.42v4.3h4.67Zm-7-2-1,.47a15.54,15.54,0,0,0-1.55-2.82l1-.5A15.47,15.47,0,0,1,173.72,16.79ZM180,14.45a13.09,13.09,0,0,1-1.71,2.85l-1-.49A13.59,13.59,0,0,0,179,14Z"/><path class="cls-17" d="M185,15.59a7.08,7.08,0,0,1-.67,1.27V22.5h-1V18.14l-.66.65-.4-1.08a7.67,7.67,0,0,0,1.81-2.59Zm.18-3.3a7,7,0,0,1-2.38,3l-.44-1a7.3,7.3,0,0,0,1.92-2.42Zm4.6,6.39h-4.3V15l-.35.32-.62-.81a9.1,9.1,0,0,0,2.25-2.63l1,.23a5,5,0,0,1-.33.58h1.94v.92c-.21.31-.41.57-.58.78h.95Zm.48,1.7H188a3.75,3.75,0,0,1-2.63,2.24l-.53-.83a3,3,0,0,0,2-1.41h-2v-.93h2.26a2.68,2.68,0,0,0,0-.42h1a2,2,0,0,1,0,.41h2.13Zm-2.08-6.73h-1.37c-.15.19-.38.45-.68.78h1.45A5.48,5.48,0,0,0,188.16,13.65Zm-1,2.47v-.79h-.74v.79Zm0,1.68v-.86h-.74v.86Zm2.77,3.68-.53.75a9,9,0,0,0-1.54-.81l.53-.79A7.77,7.77,0,0,1,189.94,21.48Zm-1.13-5.36v-.79h-.76v.79Zm0,1.68v-.86h-.76v.86Zm4-1.66h-.72v5.25a1,1,0,0,1-.31.87,1.34,1.34,0,0,1-.85.24l-.46,0-.27-1a4.26,4.26,0,0,0,.54,0c.27,0,.41-.09.41-.28V16.14h-1v-1h2.65Zm-.21-2.83h-2.38v-1h2.38Z"/><path class="cls-17" d="M204.94,18.76l-.47,1c-.13,0-.29-.07-.48-.12V22.5h-1v-.57h-1.82v.57h-1V18.81h2a6.19,6.19,0,0,1-1.76-1.56h-1.45a7,7,0,0,1-2,1.56h2.16V22.5h-1v-.57H196.2v.57h-1V19.64a3.06,3.06,0,0,1-.43.13l-.54-.89a11,11,0,0,0,3.17-1.63h-3v-.94h3.95a6,6,0,0,0,.5-.8l1.11.13a5.44,5.44,0,0,1-.38.67h2.57a3.93,3.93,0,0,0-.67-.39l.85-.51a3.44,3.44,0,0,1,.89.62l-.47.28h1.92v.94h-3A6.47,6.47,0,0,0,204.94,18.76Zm-6-3.42h-3.87v-3.1h3.87Zm-1-.92V13.16h-1.8v1.26ZM198,21V19.72H196.2V21Zm6-5.65h-4v-3.1h4Zm-1-.92V13.16h-1.93v1.26ZM203,21V19.72h-1.82V21Z"/><path class="cls-17" d="M210.86,17.24h-1.71a8.68,8.68,0,0,1-2,5.28l-.87-.8a7.18,7.18,0,0,0,1.76-4.48h-1.78v-1h1.83V14.59h-1.59v-1h1.59V12h1.05v1.62h1.43v1h-1.43v1.69h1.67Zm.1,3.13-.81.71a10.9,10.9,0,0,0-1.1-1.94l.76-.69A9.48,9.48,0,0,1,211,20.37Zm5.89-.3a6.83,6.83,0,0,1-.15,1.53.87.87,0,0,1-.43.64,4.72,4.72,0,0,1-1.37.12.84.84,0,0,1-.93-1V18.93h-.72a4.19,4.19,0,0,1-2.1,3.62l-.76-.83a3.62,3.62,0,0,0,1.34-1.2,2.75,2.75,0,0,0,.48-1.59h-1V12.25h5.1v6.68H215V21c0,.19.12.28.36.28a.46.46,0,0,0,.36-.12,1.88,1.88,0,0,0,.11-.77,5.45,5.45,0,0,0,0-.75Zm-1.62-5.91v-.93h-2.95v.93Zm0,1.86V15.1h-2.95V16Zm0,1.92V17h-2.95v1Z"/><path class="cls-17" d="M224,19.57h-3.58l.78.46a13.6,13.6,0,0,1-2.07,2.52l-.89-.67a13.52,13.52,0,0,0,2-2.31h-1.13V12.26H224Zm-1.07-5.19V13.27h-2.72v1.11Zm0,2.09V15.31h-2.72v1.16Zm0,2.11V17.42h-2.72v1.16Zm1.51,3.23-.92.6a14.28,14.28,0,0,0-1.57-2l.94-.55A12.44,12.44,0,0,1,224.4,21.81Zm1.86-1.55h-1.07V12.83h1.07Zm2.23,1.12c0,.75-.42,1.12-1.26,1.1l-1.45,0-.32-1.08c.33,0,.66,0,1,0a3.18,3.18,0,0,0,.86-.06.28.28,0,0,0,.13-.26V12h1.06Z"/><path class="cls-17" d="M261.51,60a17,17,0,0,1-1.16,1.78v6h-.63v-5.2c-.47.51-.9.93-1.29,1.28l-.44-.5a13.7,13.7,0,0,0,3-3.63Zm-.37-2.44a11.18,11.18,0,0,1-2.63,2.63l-.41-.47a9,9,0,0,0,2.47-2.43Zm7.48,9.7-.24.61a13.69,13.69,0,0,1-3.57-1.32A14.14,14.14,0,0,1,261,67.89l-.32-.58a12.23,12.23,0,0,0,3.49-1.12,9.5,9.5,0,0,1-1.54-1.46,9,9,0,0,1-1.23.84l-.45-.45a6.59,6.59,0,0,0,1.27-.84l-.49-.63.48-.39q.15.21.48.6a4,4,0,0,0,1-1.3l-2,.09-.15-.63a12.43,12.43,0,0,0,3.1-1.63l-2.67.14-.11-.62a8.7,8.7,0,0,0,3.1-2.6l.6.22a8.83,8.83,0,0,1-2.48,2.34c.6,0,1.42-.07,2.46-.16.55-.44,1.06-.89,1.53-1.34l.62.28A19.94,19.94,0,0,1,263.09,62c1,0,2.33-.12,4-.32a8.39,8.39,0,0,0-.75-1l.52-.33a12.56,12.56,0,0,1,1.72,2.55l-.53.31a7,7,0,0,0-.57-1c-.94.11-2,.2-3.13.28a6.39,6.39,0,0,1-.62,1.13h3.72v.59a10.81,10.81,0,0,1-2.08,2A12.5,12.5,0,0,0,268.62,67.29Zm-2-3.07h-3.39a.63.63,0,0,1-.1.12,8.42,8.42,0,0,0,1.64,1.5A9.2,9.2,0,0,0,266.64,64.22Z"/><path class="cls-17" d="M273.68,59.87h-.85l.45.41q-.11,1.86-.67,5.71c.2,0,.5-.16.9-.31l0,.65a30.43,30.43,0,0,1-3.53,1l-.13-.63a7.54,7.54,0,0,0,.94-.22,51.22,51.22,0,0,0-.42-6.26l.46-.38H270v-.6h1.56a15.74,15.74,0,0,0-.59-1.68l.56-.2a12.85,12.85,0,0,1,.64,1.88h1.48Zm-1,0H271a58.58,58.58,0,0,1,.45,6.48l.52-.15A49.65,49.65,0,0,0,272.69,59.87Zm7.68,2h-3.16c-.15.45-.31.89-.49,1.34h3.19v3.88c0,.55-.33.82-1,.82h-.32l-.16-.6.42,0q.48,0,.48-.39V63.77h-1.15v3.7h-.59v-3.7h-1.16v3.7h-.59v-3.7h-1.16v4.15h-.59V63.19h2a10.23,10.23,0,0,0,.5-1.34h-2.95v-.57h6.76Zm-.62-1.77h-5.46V58h.61V59.5h1.75V57.44h.6V59.5h1.87V58h.63Z"/><path class="cls-17" d="M287,60.65a.65.65,0,0,1,.68.67.65.65,0,0,1-.19.48.7.7,0,0,1-.49.2.73.73,0,0,1-.49-.19.69.69,0,0,1,0-1A.69.69,0,0,1,287,60.65ZM287,66a.7.7,0,0,1,.49.2.66.66,0,0,1,.19.49.66.66,0,0,1-.19.48.7.7,0,0,1-1,0,.66.66,0,0,1-.2-.48.69.69,0,0,1,.2-.5A.73.73,0,0,1,287,66Z"/><path class="cls-17" d="M304.09,67.05l-.2.6h-4.38a5.44,5.44,0,0,1-4.11-1.33A9,9,0,0,1,294,67.94l-.47-.41a6.9,6.9,0,0,0,2.37-3.88h-2v-.57c.61-.69,1.25-1.51,1.92-2.43h-2.1V60h2.83v.61c-.39.54-1,1.34-1.84,2.39h1.86v.61a9.25,9.25,0,0,1-.8,2.16,4.79,4.79,0,0,0,3.63,1.24Zm-8-7.85-.46.43a8.42,8.42,0,0,0-1.72-1.76l.43-.43A10.76,10.76,0,0,1,296.1,59.2Zm7.91,6h-3.13v1.33h-.64V65.25H297.1v-.59h3.14v-.93h-2.65V59.84h2.65V58.9h-3v-.58h3v-.94h.64v.94h3v.58h-3v.94h2.67v3.89h-2.67v.93H304Zm-3.77-3.79v-1h-2v1Zm0,1.69v-1.1h-2v1.1Zm2.7-1.69v-1h-2.06v1Zm0,1.69v-1.1h-2.06v1.1Z"/><path class="cls-17" d="M308.78,60.15h-1.17v2.41a7.52,7.52,0,0,0,1.05-.43l.09.62c-.13.07-.52.23-1.14.47v3.83a.78.78,0,0,1-.89.87l-.91,0-.2-.66.69,0a1.34,1.34,0,0,0,.59-.08.29.29,0,0,0,.11-.24V63.48l-1.46.48-.14-.61a16.8,16.8,0,0,0,1.6-.54V60.15h-1.58v-.62H307V57.39h.61v2.14h1.17ZM315.84,64h-1.59A5.65,5.65,0,0,1,313,66a23.48,23.48,0,0,1,2.78,1.52l-.36.5a17.54,17.54,0,0,0-2.9-1.57,10.15,10.15,0,0,1-3.77,1.48l-.37-.56a9.31,9.31,0,0,0,3.43-1.2c-.44-.19-1.09-.45-2-.75.23-.34.52-.83.88-1.45h-1.77v-.6H311a10.47,10.47,0,0,0,.61-1.26l.59.17a9.08,9.08,0,0,1-.5,1.09h2.06a3.57,3.57,0,0,0,.19-.68l.6.11a4.18,4.18,0,0,1-.14.57h1.4Zm0-2.11H309v-.6h1.94a10.81,10.81,0,0,0-.6-1.87h-1.14v-.59h2.94a4.57,4.57,0,0,0-.47-1.17l.55-.28a6.91,6.91,0,0,1,.6,1.45h2.79v.59h-1c-.21.68-.42,1.31-.64,1.87h1.92ZM313.57,64h-2.16a12,12,0,0,1-.67,1.14c.45.16,1,.37,1.66.64A5.11,5.11,0,0,0,313.57,64Zm.3-4.58H311a15.8,15.8,0,0,1,.58,1.87h1.71A15.76,15.76,0,0,0,313.87,59.38Z"/><path class="cls-17" d="M320.61,64.61c-1.24.7-2.34,1.26-3.3,1.7l-.08-.64a15.72,15.72,0,0,0,1.49-.74V61.18h-1.39v-.6h1.39v-3.2h.6v3.21h1.26v.59h-1.26v3.43c.25-.11.64-.33,1.18-.64Zm7.08,1.24H324.3v2h-.62v-2h-3.24v-.6h3.21V64h-2.56V58.27h1.77a5,5,0,0,0,.41-.93l.6.17-.32.76h3.39V60.6h-5.25v1h5.36V64H324.3v1.25h3.39ZM326.31,60V58.88h-4.62V60Zm.13,3.41V62.16h-4.75v1.26Z"/><path class="cls-17" d="M331.63,64.76a2.39,2.39,0,0,1,.49-1.44,2.81,2.81,0,0,1,1.27-1,2.91,2.91,0,0,1-1-.88,1.91,1.91,0,0,1-.37-1.13,2.18,2.18,0,0,1,1.21-2,2.67,2.67,0,0,1,1.27-.3,2.87,2.87,0,0,1,1.28.29,2.23,2.23,0,0,1,.89.83,2.29,2.29,0,0,1,.32,1.17,1.9,1.9,0,0,1-.37,1.12,2.94,2.94,0,0,1-1,.89,2.84,2.84,0,0,1,1.28,1,2.46,2.46,0,0,1,.47,1.42,2.68,2.68,0,0,1-.36,1.38,2.53,2.53,0,0,1-1,.94,3.33,3.33,0,0,1-1.49.33,3.25,3.25,0,0,1-1.48-.33,2.47,2.47,0,0,1-1-.94A2.59,2.59,0,0,1,331.63,64.76Zm1-.05a1.83,1.83,0,0,0,.53,1.37,1.93,1.93,0,0,0,1.38.5,1.89,1.89,0,0,0,1.38-.52,1.95,1.95,0,0,0,0-2.68,1.86,1.86,0,0,0-1.37-.54,1.82,1.82,0,0,0-1.37.53A1.79,1.79,0,0,0,332.61,64.71Zm.33-4.29a1.49,1.49,0,0,0,.46,1.1,1.6,1.6,0,0,0,2.71-1.1,1.49,1.49,0,0,0-.47-1.11,1.56,1.56,0,0,0-1.12-.45,1.52,1.52,0,0,0-1.58,1.56Z"/><path class="cls-17" d="M338.36,62.91a6.91,6.91,0,0,1,.78-3.64A2.52,2.52,0,0,1,341.4,58q2.84,0,2.83,4.65a6.68,6.68,0,0,1-.77,3.5,2.52,2.52,0,0,1-2.26,1.23,2.32,2.32,0,0,1-2.11-1.19A6.27,6.27,0,0,1,338.36,62.91Zm1,0c0,2.48.64,3.73,1.94,3.73s1.93-1.26,1.93-3.78-.63-3.93-1.88-3.93S339.36,60.2,339.36,62.86Z"/><path class="cls-17" d="M261.51,136.7a15.89,15.89,0,0,1-1.16,1.77v6.05h-.63v-5.2c-.47.51-.9.93-1.29,1.28l-.44-.5a13.7,13.7,0,0,0,3-3.63Zm-.37-2.44a11.18,11.18,0,0,1-2.63,2.63l-.41-.47a9,9,0,0,0,2.47-2.43Zm7.48,9.7-.24.61a14.06,14.06,0,0,1-3.57-1.32,14.14,14.14,0,0,1-3.77,1.31l-.32-.58a12.23,12.23,0,0,0,3.49-1.12,9.5,9.5,0,0,1-1.54-1.46,9,9,0,0,1-1.23.84l-.45-.45a6.59,6.59,0,0,0,1.27-.84c-.18-.23-.35-.44-.49-.64l.48-.38q.15.21.48.6a4,4,0,0,0,1-1.3l-2,.09-.15-.63a12.43,12.43,0,0,0,3.1-1.63l-2.67.14-.11-.62A8.64,8.64,0,0,0,265,134l.6.23a8.83,8.83,0,0,1-2.48,2.34c.6,0,1.42-.07,2.46-.16.55-.44,1.06-.89,1.53-1.34l.62.28a19.94,19.94,0,0,1-4.59,3.35c1,0,2.33-.13,4-.32a8.39,8.39,0,0,0-.75-1l.52-.33a12.56,12.56,0,0,1,1.72,2.55l-.53.31a7.75,7.75,0,0,0-.57-1c-.94.12-2,.21-3.13.29a6.39,6.39,0,0,1-.62,1.13h3.72v.59a11.13,11.13,0,0,1-2.08,2A12.5,12.5,0,0,0,268.62,144Zm-2-3.07h-3.39a1.27,1.27,0,0,1-.1.12,8.42,8.42,0,0,0,1.64,1.5A9.2,9.2,0,0,0,266.64,140.89Z"/><path class="cls-17" d="M273.68,136.54h-.85l.45.41q-.11,1.86-.67,5.71c.2,0,.5-.16.9-.31l0,.65a30.43,30.43,0,0,1-3.53,1l-.13-.63a7.54,7.54,0,0,0,.94-.22,51.22,51.22,0,0,0-.42-6.26l.46-.38H270v-.6h1.56a15.74,15.74,0,0,0-.59-1.68l.56-.2a12.85,12.85,0,0,1,.64,1.88h1.48Zm-1,0H271a58.58,58.58,0,0,1,.45,6.48l.52-.15A49.65,49.65,0,0,0,272.69,136.54Zm7.68,2h-3.16c-.15.45-.31.89-.49,1.34h3.19v3.88c0,.55-.33.82-1,.82a1.89,1.89,0,0,1-.32,0l-.16-.59h.42c.32,0,.48-.12.48-.38v-3.14h-1.15v3.7h-.59v-3.7h-1.16v3.7h-.59v-3.7h-1.16v4.15h-.59v-4.73h2a10.23,10.23,0,0,0,.5-1.34h-2.95V138h6.76Zm-.62-1.77h-5.46v-2.11h.61v1.53h1.75v-2.06h.6v2.06h1.87v-1.53h.63Z"/><path class="cls-17" d="M287,137.31a.7.7,0,0,1,.49.2.68.68,0,0,1,.19.48.65.65,0,0,1-.19.48.7.7,0,0,1-1,0,.63.63,0,0,1-.2-.48.66.66,0,0,1,.2-.48A.7.7,0,0,1,287,137.31Zm0,5.4a.7.7,0,0,1,.49.2.66.66,0,0,1,.19.49.67.67,0,0,1-.68.68.63.63,0,0,1-.49-.2.66.66,0,0,1-.2-.48.69.69,0,0,1,.2-.5A.73.73,0,0,1,287,142.71Z"/><path class="cls-17" d="M304.09,143.72l-.2.6h-4.38A5.44,5.44,0,0,1,295.4,143a9,9,0,0,1-1.44,1.62l-.47-.41a6.89,6.89,0,0,0,2.37-3.89h-2v-.56c.61-.7,1.25-1.51,1.92-2.44h-2.1v-.6h2.83v.6c-.39.55-1,1.35-1.84,2.4h1.86v.6a9.18,9.18,0,0,1-.8,2.17,4.79,4.79,0,0,0,3.63,1.24Zm-8-7.85-.46.43a8.42,8.42,0,0,0-1.72-1.76l.43-.43A10.76,10.76,0,0,1,296.1,135.87Zm7.91,6h-3.13v1.33h-.64v-1.33H297.1v-.59h3.14v-.93h-2.65v-3.89h2.65v-.94h-3V135h3v-1h.64v1h3v.58h-3v.94h2.67v3.89h-2.67v.93H304Zm-3.77-3.79v-1h-2v1Zm0,1.69v-1.11h-2v1.11Zm2.7-1.69v-1h-2.06v1Zm0,1.69v-1.11h-2.06v1.11Z"/><path class="cls-17" d="M308.78,136.82h-1.17v2.41a7.52,7.52,0,0,0,1.05-.43l.09.62c-.13.07-.52.23-1.14.47v3.83a.78.78,0,0,1-.89.87l-.91,0-.2-.66.69,0a1.34,1.34,0,0,0,.59-.08.3.3,0,0,0,.11-.24v-3.47l-1.46.49-.14-.61c.47-.14,1-.31,1.6-.54v-2.66h-1.58v-.62H307v-2.14h.61v2.14h1.17Zm7.06,3.81h-1.59a5.65,5.65,0,0,1-1.26,2,23.48,23.48,0,0,1,2.78,1.52l-.36.5a17.54,17.54,0,0,0-2.9-1.57,10.15,10.15,0,0,1-3.77,1.48l-.37-.56a9.31,9.31,0,0,0,3.43-1.2c-.44-.2-1.09-.45-2-.75.23-.34.52-.83.88-1.45h-1.77V140H311a10.47,10.47,0,0,0,.61-1.26l.59.17a9.08,9.08,0,0,1-.5,1.09h2.06a3.57,3.57,0,0,0,.19-.68l.6.11a4.56,4.56,0,0,1-.14.57h1.4Zm0-2.11H309v-.6h1.94a10.54,10.54,0,0,0-.6-1.87h-1.14v-.59h2.94a4.57,4.57,0,0,0-.47-1.17l.55-.28a6.91,6.91,0,0,1,.6,1.45h2.79v.59h-1c-.21.68-.42,1.31-.64,1.87h1.92Zm-2.25,2.11h-2.16a12,12,0,0,1-.67,1.14c.45.16,1,.37,1.66.64A5.11,5.11,0,0,0,313.57,140.63Zm.3-4.58H311a15.25,15.25,0,0,1,.58,1.87h1.71A15.76,15.76,0,0,0,313.87,136.05Z"/><path class="cls-17" d="M320.61,141.28c-1.24.7-2.34,1.26-3.3,1.69l-.08-.63a15.72,15.72,0,0,0,1.49-.74v-3.75h-1.39v-.6h1.39V134h.6v3.22h1.26v.59h-1.26v3.43c.25-.11.64-.33,1.18-.64Zm7.08,1.24H324.3v2h-.62v-2h-3.24v-.6h3.21v-1.25h-2.56v-5.73h1.77a5,5,0,0,0,.41-.93l.6.17-.32.76h3.39v2.33h-5.25v1h5.36v2.44H324.3v1.25h3.39Zm-1.38-5.84v-1.14h-4.62v1.14Zm.13,3.41v-1.26h-4.75v1.26Z"/><path class="cls-17" d="M331.63,141.43a2.39,2.39,0,0,1,.49-1.44,2.81,2.81,0,0,1,1.27-1,2.91,2.91,0,0,1-1-.88A1.91,1.91,0,0,1,332,137a2.15,2.15,0,0,1,1.21-2,2.67,2.67,0,0,1,1.27-.3,2.87,2.87,0,0,1,1.28.29,2.23,2.23,0,0,1,.89.83A2.29,2.29,0,0,1,337,137a1.9,1.9,0,0,1-.37,1.12,2.94,2.94,0,0,1-1,.89,2.84,2.84,0,0,1,1.28,1,2.46,2.46,0,0,1,.47,1.42,2.62,2.62,0,0,1-.36,1.37,2.49,2.49,0,0,1-1,.95,3.33,3.33,0,0,1-1.49.33,3.25,3.25,0,0,1-1.48-.33,2.47,2.47,0,0,1-1-.94A2.59,2.59,0,0,1,331.63,141.43Zm1-.05a1.83,1.83,0,0,0,.53,1.37,1.93,1.93,0,0,0,1.38.5,1.89,1.89,0,0,0,1.38-.52,1.8,1.8,0,0,0,.53-1.35,1.82,1.82,0,0,0-.54-1.34,1.89,1.89,0,0,0-1.37-.53,1.82,1.82,0,0,0-1.37.53A1.79,1.79,0,0,0,332.61,141.38Zm.33-4.29a1.49,1.49,0,0,0,.46,1.1,1.52,1.52,0,0,0,1.12.46,1.48,1.48,0,0,0,1.11-.47,1.47,1.47,0,0,0,.48-1.09,1.49,1.49,0,0,0-.47-1.11,1.56,1.56,0,0,0-1.12-.45,1.52,1.52,0,0,0-1.58,1.56Z"/><path class="cls-17" d="M338.36,139.58a6.91,6.91,0,0,1,.78-3.64,2.52,2.52,0,0,1,2.26-1.23q2.84,0,2.83,4.65a6.62,6.62,0,0,1-.77,3.49,2.51,2.51,0,0,1-2.26,1.24,2.32,2.32,0,0,1-2.11-1.19A6.27,6.27,0,0,1,338.36,139.58Zm1-.05c0,2.48.64,3.73,1.94,3.73s1.93-1.26,1.93-3.78-.63-3.94-1.88-3.94S339.36,136.87,339.36,139.53Z"/><path class="cls-17" d="M36.46,143.75a.75.75,0,0,1-.77.79h-.77l-.62,0-.23-.64c.31,0,.81.05,1.5.05a.28.28,0,0,0,.19-.1.32.32,0,0,0,.08-.2V141.9H33.11A6.28,6.28,0,0,1,32,144.63l-.48-.43a7,7,0,0,0,1.14-4.33v-2.66h3.84Zm5.45-7.58H31.49v-.6H41.91Zm-6.07,5.13v-1.47h-2.6c0,.31,0,.8-.07,1.47Zm0-2.09v-1.38h-2.6v1.38Zm0-4.07-.61.25a6.24,6.24,0,0,0-1.2-1.1l.67-.27A8.09,8.09,0,0,1,35.84,135.14Zm3.67-.83a5.29,5.29,0,0,1-1.18,1.07l-.63-.33A6.87,6.87,0,0,0,39,134Zm-.9,8.23H38V137.4h.6ZM41,143.67a.9.9,0,0,1-.16.55.63.63,0,0,1-.4.27,4.68,4.68,0,0,1-.92,0c-.26,0-.54,0-.84,0l-.23-.65,1.64,0c.2,0,.3-.1.3-.34v-6.47H41Z"/><path class="cls-17" d="M47,136.54h-.85l.44.41q-.11,1.86-.67,5.71a8.2,8.2,0,0,0,.9-.31l0,.65a31.7,31.7,0,0,1-3.53,1l-.14-.63a7.15,7.15,0,0,0,.94-.22,51.22,51.22,0,0,0-.42-6.26l.47-.38h-.83v-.6h1.56a13.8,13.8,0,0,0-.59-1.68l.57-.2a11.8,11.8,0,0,1,.63,1.88H47Zm-1,0H44.31a61,61,0,0,1,.44,6.48l.53-.15A51.14,51.14,0,0,0,46,136.54Zm7.68,2H50.55c-.15.45-.32.89-.5,1.34h3.2v3.88c0,.55-.34.82-1,.82a1.72,1.72,0,0,1-.31,0l-.16-.59h.41c.32,0,.48-.12.48-.38v-3.14H51.51v3.7h-.6v-3.7H49.75v3.7h-.58v-3.7H48v4.15h-.58v-4.73h2a10.19,10.19,0,0,0,.49-1.34H47V138H53.7Zm-.62-1.77H47.62v-2.11h.61v1.53H50v-2.06h.61v2.06h1.87v-1.53h.62Z"/><path class="cls-17" d="M60.22,137.31a.66.66,0,0,1,.49.2.69.69,0,0,1,.2.48.69.69,0,0,1-1.17.48.6.6,0,0,1-.21-.48.63.63,0,0,1,.21-.48A.66.66,0,0,1,60.22,137.31Zm0,5.4a.68.68,0,0,1,.69.69.67.67,0,0,1-.2.48.66.66,0,0,1-.49.2.69.69,0,0,1-.48-1.18A.69.69,0,0,1,60.22,142.71Z"/><path class="cls-17" d="M77.31,143.72l-.2.6H72.72A5.46,5.46,0,0,1,68.61,143a9,9,0,0,1-1.44,1.62l-.47-.41a6.89,6.89,0,0,0,2.37-3.89h-2v-.56c.61-.7,1.25-1.51,1.92-2.44H66.86v-.6h2.83v.6c-.39.55-1,1.35-1.84,2.4h1.86v.6a8.75,8.75,0,0,1-.8,2.17,4.79,4.79,0,0,0,3.63,1.24Zm-8-7.85-.46.43a8.17,8.17,0,0,0-1.72-1.76l.43-.43A10.37,10.37,0,0,1,69.31,135.87Zm7.91,6H74.09v1.33h-.63v-1.33H70.31v-.59h3.15v-.93H70.8v-3.89h2.66v-.94h-3V135h3v-1h.63v1h3v.58h-3v.94h2.68v3.89H74.09v.93h3.13Zm-3.76-3.79v-1h-2v1Zm0,1.69v-1.11h-2v1.11Zm2.7-1.69v-1H74.09v1Zm0,1.69v-1.11H74.09v1.11Z"/><path class="cls-17" d="M81.93,136.82H80.76v2.41a7.08,7.08,0,0,0,1.06-.43l.09.62c-.14.07-.52.23-1.15.47v3.83a.77.77,0,0,1-.88.87l-.92,0-.2-.66.69,0a1.31,1.31,0,0,0,.59-.08.28.28,0,0,0,.11-.24v-3.47l-1.46.49-.14-.61c.48-.14,1-.31,1.6-.54v-2.66H78.58v-.62h1.57v-2.14h.61v2.14h1.17ZM89,140.63H87.4a5.39,5.39,0,0,1-1.26,2,23.67,23.67,0,0,1,2.79,1.52l-.37.5a17.54,17.54,0,0,0-2.9-1.57,10.09,10.09,0,0,1-3.77,1.48l-.37-.56a9.24,9.24,0,0,0,3.43-1.2c-.43-.2-1.09-.45-2-.75.23-.34.53-.83.88-1.45H82.09V140h2.1a12.19,12.19,0,0,0,.6-1.26l.6.17a7.9,7.9,0,0,1-.51,1.09h2.06a3.51,3.51,0,0,0,.2-.68l.6.11q0,.21-.15.57H89Zm0-2.11H82.12v-.6h1.94a9.12,9.12,0,0,0-.6-1.87H82.32v-.59h2.94a4.23,4.23,0,0,0-.47-1.17l.56-.28a6.91,6.91,0,0,1,.6,1.45h2.78v.59h-1c-.2.68-.42,1.31-.64,1.87H89Zm-2.24,2.11H84.57c-.26.47-.48.85-.67,1.14.44.16,1,.37,1.65.64A5.27,5.27,0,0,0,86.73,140.63Zm.3-4.58h-2.9a15,15,0,0,1,.57,1.87h1.72A17.83,17.83,0,0,0,87,136.05Z"/><path class="cls-17" d="M93.7,141.28c-1.23.7-2.33,1.26-3.3,1.69l-.07-.63c.66-.3,1.16-.55,1.48-.74v-3.75H90.43v-.6h1.38V134h.61v3.22h1.26v.59H92.42v3.43c.25-.11.64-.33,1.17-.64Zm7.08,1.24H97.4v2h-.63v-2H93.53v-.6h3.22v-1.25H94.18v-5.73H96a5.77,5.77,0,0,0,.41-.93l.59.17c-.11.27-.21.52-.32.76H100v2.33H94.78v1h5.37v2.44H97.4v1.25h3.38Zm-1.38-5.84v-1.14H94.78v1.14Zm.13,3.41v-1.26H94.78v1.26Z"/><path class="cls-17" d="M104.61,141.43a2.44,2.44,0,0,1,.48-1.44,2.86,2.86,0,0,1,1.27-1,2.91,2.91,0,0,1-1-.88A1.91,1.91,0,0,1,105,137a2.23,2.23,0,0,1,.31-1.17,2.31,2.31,0,0,1,.9-.82,2.7,2.7,0,0,1,1.27-.3,2.83,2.83,0,0,1,1.28.29,2.23,2.23,0,0,1,.89.83A2.19,2.19,0,0,1,110,137a1.9,1.9,0,0,1-.37,1.12,2.76,2.76,0,0,1-1,.89,2.84,2.84,0,0,1,1.28,1,2.4,2.4,0,0,1,.48,1.42,2.63,2.63,0,0,1-.37,1.37,2.49,2.49,0,0,1-1,.95,3.33,3.33,0,0,1-1.49.33,3.28,3.28,0,0,1-1.48-.33,2.53,2.53,0,0,1-1-.94A2.68,2.68,0,0,1,104.61,141.43Zm1-.05a1.83,1.83,0,0,0,.53,1.37,1.93,1.93,0,0,0,1.38.5,1.89,1.89,0,0,0,1.38-.52,1.76,1.76,0,0,0,.53-1.35,1.86,1.86,0,0,0-.53-1.34,1.9,1.9,0,0,0-1.38-.53,1.84,1.84,0,0,0-1.37.53A1.79,1.79,0,0,0,105.58,141.38Zm.33-4.29a1.58,1.58,0,0,0,2.7,1.09,1.49,1.49,0,0,0,.47-1.09,1.45,1.45,0,0,0-.47-1.11,1.57,1.57,0,0,0-2.7,1.11Z"/><path class="cls-17" d="M111.27,139.58a6.81,6.81,0,0,1,.79-3.64,2.51,2.51,0,0,1,2.25-1.23q2.84,0,2.84,4.65a6.52,6.52,0,0,1-.78,3.49,2.5,2.5,0,0,1-2.26,1.24A2.33,2.33,0,0,1,112,142.9,6.36,6.36,0,0,1,111.27,139.58Zm1-.05c0,2.48.65,3.73,2,3.73s1.92-1.26,1.92-3.78-.62-3.94-1.88-3.94S112.27,136.87,112.27,139.53Z"/><path class="cls-17" d="M261.51,217.6a15.15,15.15,0,0,1-1.16,1.78v6.05h-.63v-5.21q-.71.76-1.29,1.29L258,221a13.8,13.8,0,0,0,3-3.62Zm-.37-2.43a11.37,11.37,0,0,1-2.63,2.63l-.41-.47a8.86,8.86,0,0,0,2.47-2.44Zm7.48,9.69-.24.62a14.45,14.45,0,0,1-3.57-1.32,14.12,14.12,0,0,1-3.77,1.3l-.32-.57a12.23,12.23,0,0,0,3.49-1.13,9.47,9.47,0,0,1-1.54-1.45,11.2,11.2,0,0,1-1.23.84l-.45-.46a6.59,6.59,0,0,0,1.27-.84c-.18-.22-.35-.43-.49-.63l.48-.39a6.17,6.17,0,0,0,.48.6,3.92,3.92,0,0,0,1-1.29l-2,.08-.15-.62a12.5,12.5,0,0,0,3.1-1.64l-2.67.15-.11-.62a8.74,8.74,0,0,0,3.1-2.61l.6.23a9.13,9.13,0,0,1-2.48,2.34c.6,0,1.42-.07,2.46-.17.55-.44,1.06-.88,1.53-1.33l.62.28a19.88,19.88,0,0,1-4.59,3.34,40.41,40.41,0,0,0,4-.32,10.39,10.39,0,0,0-.75-1l.52-.32a12.29,12.29,0,0,1,1.72,2.55l-.53.31a6.61,6.61,0,0,0-.57-1c-.94.11-2,.21-3.13.29a6.24,6.24,0,0,1-.62,1.12h3.72v.59a10.81,10.81,0,0,1-2.08,2A12.5,12.5,0,0,0,268.62,224.86Zm-2-3.07h-3.39a.63.63,0,0,1-.1.12,8.42,8.42,0,0,0,1.64,1.5A8.61,8.61,0,0,0,266.64,221.79Z"/><path class="cls-17" d="M273.68,217.45h-.85l.45.41c-.07,1.23-.29,3.14-.67,5.71.2-.06.5-.16.9-.31l0,.64a28.55,28.55,0,0,1-3.53,1l-.13-.63a6.11,6.11,0,0,0,.94-.22,51.34,51.34,0,0,0-.42-6.26l.46-.37H270v-.6h1.56a14.34,14.34,0,0,0-.59-1.68l.56-.21a13.43,13.43,0,0,1,.64,1.89h1.48Zm-1,0H271a58.26,58.26,0,0,1,.45,6.48l.52-.16A49.34,49.34,0,0,0,272.69,217.45Zm7.68,2h-3.16c-.15.44-.31.89-.49,1.33h3.19v3.89c0,.54-.33.82-1,.82l-.32,0-.16-.6.42,0q.48,0,.48-.39v-3.13h-1.15v3.7h-.59v-3.7h-1.16v3.7h-.59v-3.7h-1.16v4.14h-.59v-4.73h2a10.1,10.1,0,0,0,.5-1.33h-2.95v-.58h6.76Zm-.62-1.78h-5.46v-2.11h.61v1.54h1.75V215h.6v2.07h1.87v-1.54h.63Z"/><path class="cls-17" d="M287,218.22a.7.7,0,0,1,.49.2.7.7,0,0,1,0,1,.73.73,0,0,1-1,0,.68.68,0,0,1,0-1A.7.7,0,0,1,287,218.22Zm0,5.4a.69.69,0,0,1,.49.19.67.67,0,0,1,.19.49.69.69,0,0,1-.19.49.7.7,0,0,1-1,0,.68.68,0,0,1-.2-.49.66.66,0,0,1,.2-.49A.69.69,0,0,1,287,223.62Z"/><path class="cls-17" d="M304.09,224.62l-.2.61h-4.38a5.44,5.44,0,0,1-4.11-1.34,9,9,0,0,1-1.44,1.62l-.47-.41a6.87,6.87,0,0,0,2.37-3.88h-2v-.57q.92-1,1.92-2.43h-2.1v-.6h2.83v.6c-.39.55-1,1.35-1.84,2.4h1.86v.6a9.35,9.35,0,0,1-.8,2.17,4.83,4.83,0,0,0,3.63,1.23Zm-8-7.84-.46.43a8.2,8.2,0,0,0-1.72-1.77l.43-.43A11.21,11.21,0,0,1,296.1,216.78Zm7.91,6.05h-3.13v1.33h-.64v-1.33H297.1v-.59h3.14v-.94h-2.65v-3.89h2.65v-.93h-3v-.58h3v-1h.64v1h3v.58h-3v.93h2.67v3.89h-2.67v.94H304Zm-3.77-3.8v-1h-2v1Zm0,1.7v-1.11h-2v1.11Zm2.7-1.7v-1h-2.06v1Zm0,1.7v-1.11h-2.06v1.11Z"/><path class="cls-17" d="M308.78,217.73h-1.17v2.41a7.87,7.87,0,0,0,1.05-.44l.09.63c-.13.07-.52.22-1.14.47v3.82a.78.78,0,0,1-.89.87l-.91,0-.2-.65c.28,0,.51,0,.69,0a1.2,1.2,0,0,0,.59-.08.27.27,0,0,0,.11-.23v-3.47l-1.46.48-.14-.6c.47-.14,1-.32,1.6-.54v-2.66h-1.58v-.63H307V215h.61v2.14h1.17Zm7.06,3.8h-1.59a5.79,5.79,0,0,1-1.26,2,25.06,25.06,0,0,1,2.78,1.51l-.36.5a18.31,18.31,0,0,0-2.9-1.57,9.83,9.83,0,0,1-3.77,1.48l-.37-.56a9.5,9.5,0,0,0,3.43-1.19c-.44-.2-1.09-.45-2-.76.23-.34.52-.82.88-1.45h-1.77v-.59H311a12.17,12.17,0,0,0,.61-1.26l.59.17a9.86,9.86,0,0,1-.5,1.09h2.06a3.8,3.8,0,0,0,.19-.68l.6.1a4.26,4.26,0,0,1-.14.58h1.4Zm0-2.1H309v-.6h1.94a10.66,10.66,0,0,0-.6-1.88h-1.14v-.58h2.94a4.76,4.76,0,0,0-.47-1.18l.55-.27a6.7,6.7,0,0,1,.6,1.45h2.79V217h-1c-.21.69-.42,1.31-.64,1.88h1.92Zm-2.25,2.1h-2.16a12.33,12.33,0,0,1-.67,1.15c.45.15,1,.36,1.66.64A5.15,5.15,0,0,0,313.57,221.53Zm.3-4.58H311a15.9,15.9,0,0,1,.58,1.88h1.71A15.93,15.93,0,0,0,313.87,217Z"/><path class="cls-17" d="M320.61,222.19c-1.24.69-2.34,1.26-3.3,1.69l-.08-.63c.67-.31,1.17-.56,1.49-.75v-3.74h-1.39v-.6h1.39V215h.6v3.22h1.26v.59h-1.26v3.43c.25-.12.64-.33,1.18-.65Zm7.08,1.23H324.3v2h-.62v-2h-3.24v-.59h3.21v-1.25h-2.56v-5.74h1.77a4.62,4.62,0,0,0,.41-.92l.6.16-.32.76h3.39v2.34h-5.25v1h5.36v2.44H324.3v1.25h3.39Zm-1.38-5.84v-1.13h-4.62v1.13Zm.13,3.41v-1.26h-4.75V221Z"/><path class="cls-17" d="M331.63,222.33a2.39,2.39,0,0,1,.49-1.44,2.79,2.79,0,0,1,1.27-1,3.14,3.14,0,0,1-1-.88,1.94,1.94,0,0,1-.37-1.14,2.22,2.22,0,0,1,.31-1.16,2.26,2.26,0,0,1,.9-.83,2.67,2.67,0,0,1,1.27-.3,2.74,2.74,0,0,1,1.28.3,2.16,2.16,0,0,1,.89.83,2.22,2.22,0,0,1,.32,1.16,1.93,1.93,0,0,1-.37,1.13,3.16,3.16,0,0,1-1,.89,2.77,2.77,0,0,1,1.28,1,2.43,2.43,0,0,1,.47,1.41,2.68,2.68,0,0,1-.36,1.38,2.46,2.46,0,0,1-1,.94,3.2,3.2,0,0,1-1.49.34,3.13,3.13,0,0,1-1.48-.34,2.41,2.41,0,0,1-1-.94A2.55,2.55,0,0,1,331.63,222.33Zm1-.05a1.8,1.8,0,0,0,.53,1.37,1.9,1.9,0,0,0,1.38.51,1.94,1.94,0,0,0,1.38-.52,1.82,1.82,0,0,0,.53-1.36,1.8,1.8,0,0,0-.54-1.33,2,2,0,0,0-2.74,0A1.79,1.79,0,0,0,332.61,222.28Zm.33-4.28a1.5,1.5,0,0,0,.46,1.1,1.56,1.56,0,0,0,1.12.46,1.52,1.52,0,0,0,1.11-.47,1.47,1.47,0,0,0,.48-1.09,1.49,1.49,0,0,0-.47-1.12,1.6,1.6,0,0,0-1.12-.44,1.52,1.52,0,0,0-1.58,1.56Z"/><path class="cls-17" d="M338.36,220.49a6.89,6.89,0,0,1,.78-3.64,2.51,2.51,0,0,1,2.26-1.24q2.84,0,2.83,4.65a6.66,6.66,0,0,1-.77,3.5A2.52,2.52,0,0,1,341.2,225a2.31,2.31,0,0,1-2.11-1.18A6.31,6.31,0,0,1,338.36,220.49Zm1-.06c0,2.49.64,3.73,1.94,3.73s1.93-1.26,1.93-3.78-.63-3.93-1.88-3.93S339.36,217.78,339.36,220.43Z"/></g></svg>