<svg xmlns="http://www.w3.org/2000/svg" viewBox="0 0 224.94 200.3"><title>OJ104440668</title><path d="M211.09,79h-20.5a1.09,1.09,0,0,0-1.09,1.1V96.88a1.09,1.09,0,0,0,1.09,1.1h5.28a3.29,3.29,0,0,0,3.21,2.27,3.38,3.38,0,0,0,0-6.75,3.29,3.29,0,0,0-3.21,2.27h-4.19v-12H210v12h-3.45a7.61,7.61,0,0,0-7.46-6.56,8.25,8.25,0,0,0-3.64.92l1,2a5.27,5.27,0,0,1,2.55-.67,5.46,5.46,0,0,1,0,10.91,5.27,5.27,0,0,1-2.55-.67l-1,2a7.51,7.51,0,0,0,3.64.92A7.61,7.61,0,0,0,206.54,98h4.55a1.09,1.09,0,0,0,1.09-1.1V80.13A1.14,1.14,0,0,0,211.09,79Z" fill="#008bfd" fill-rule="evenodd"/><path d="M73.65,106H59.44V77.6H73.65v7.67h.76V76.83H58.68v29.91H74.41v-2.32h-.76Z" fill="#0078d7" fill-rule="evenodd"/><path d="M72.88,78.39H60.24V83H72.88ZM63.3,80.31h6.53v.76H63.3Zm6.59,1.84H63.27v-.76h6.62Z" fill="#0078d7" fill-rule="evenodd"/><path d="M60.21,83.74V86.8h8.6V85.27h4.08V83.74Z" fill="#0078d7" fill-rule="evenodd"/><rect x="60.21" y="87.57" width="8.6" height="2.68" fill="#0078d7"/><path d="M60.21,105.21H72.86v-.8H68.78V91h-8.6v14.17Zm1.53-2.74H64v1.21H61.74Z" fill="#0078d7" fill-rule="evenodd"/><path d="M83.43,102.15H81v-1.87H78.46v1.87H76a1.32,1.32,0,0,0-1.31,1.15h10A1.29,1.29,0,0,0,83.43,102.15Z" fill="#0078d7" fill-rule="evenodd"/><path d="M88.27,88.17H71.17a.65.65,0,0,0-.67.61V98.91a.65.65,0,0,0,.67.6h17.1a.64.64,0,0,0,.67-.6V88.78A.63.63,0,0,0,88.27,88.17Zm-1,9.84H72.19V89.7H87.25Z" fill="#0078d7" fill-rule="evenodd"/><path d="M83.63,95.52V92.08l-3.51-1.84L76.62,92v3.54l3.5,1.81Zm-4.4-2.29.89-.45.86.45-.86.48Zm0-1.15.86-.44.86.44-.86.48Zm1.91,4.53-1,.51v-.93l1-.51Zm0-1.18-1,.51V95l1-.51Zm0-1.12-1,.51V93.9l1-.51Zm-.82-1.65.86-.45.89.45-.86.44Zm2,3.34-.95.51v-.92l.95-.51Zm0-1.18-.95.51v-.92l.95-.51Zm0-1.14-.95.51v-.9l.95-.51Zm1.05,1.75-.86.44V95l.86-.45Zm0-1.15-.86.45V93.8l.86-.44Zm0-1.14-.86.44v-.92l.86-.45Zm-.19-1.06-.89.45-.89-.45.86-.44Zm-1.11-.57-.89.45-.86-.45.86-.44Zm-2-1.05.86.45-.86.44-.89-.44ZM79,91.07l.86.44L79,92l-.86-.45Zm-1.08.57.89.44-.89.45-.9-.45Zm-.26,4.27-.86-.45v-.92l.86.44Zm0-1.18-.86-.45v-.92l.86.44Zm0-1.15-.86-.44v-.9l.86.45Zm1.18,2.93-1-.51v-.92l1,.51Zm0-1.18-1-.51V93.9l1,.51Zm0-1.14-1-.51v-.9l1,.51Zm-.7-1.53.89-.45.86.45-.89.48ZM80,97.12l-1-.51v-.89l1,.5ZM80,96l-1-.51v-.92l1,.51Zm0-1.15-1-.51v-.92l1,.51Z" fill="#0078d7" fill-rule="evenodd"/><path d="M84.06,154.79H63.56a1.09,1.09,0,0,0-1.09,1.1v16.75a1.09,1.09,0,0,0,1.09,1.1h5.28A3.29,3.29,0,0,0,72.05,176a3.38,3.38,0,0,0,0-6.75,3.29,3.29,0,0,0-3.21,2.27H64.65v-12H83v12H79.51A7.61,7.61,0,0,0,72.05,165a8.25,8.25,0,0,0-3.64.92l1,2a5.27,5.27,0,0,1,2.55-.67,5.46,5.46,0,0,1,0,10.91,5.27,5.27,0,0,1-2.55-.67l-1,2a7.51,7.51,0,0,0,3.64.92,7.61,7.61,0,0,0,7.46-6.56h4.55a1.09,1.09,0,0,0,1.09-1.1V155.89A1.14,1.14,0,0,0,84.06,154.79Z" fill="#008bfd" fill-rule="evenodd"/><g style="isolation:isolate"><path d="M36.55,189.51a13.8,13.8,0,0,1-.61,2.78l-.52-.22a9.77,9.77,0,0,0,.63-2.7Zm2-.65H37.43v4.93H36.9v-4.93H35.5v-.51h1.4v-3.3h.53v3.3h1.13Zm-2-1.35-.5.22a8.07,8.07,0,0,0-.52-1.72l.44-.22A10,10,0,0,1,36.58,187.51Zm2.2-1.56a13.45,13.45,0,0,1-.54,1.87l-.5-.22a7.69,7.69,0,0,0,.57-1.84Zm.15,5.39-.47.24a10.24,10.24,0,0,0-.63-2l.43-.22A12,12,0,0,1,38.93,191.34Zm4.77,1.79a.56.56,0,0,1-.24.49,1.9,1.9,0,0,1-1,.17l-.54,0-.16-.51.87,0a1,1,0,0,0,.44-.06.22.22,0,0,0,.1-.19v-.8H39.73a4.41,4.41,0,0,1-.83,1.57l-.45-.33a3.78,3.78,0,0,0,.89-2.71v-1.52H43.7Zm.46-4.49H38.92v-.49h2.37v-.7h-2V187h2v-.69H39.14v-.48h2.15V185h.52v.78H44v.48H41.81V187h1.93v.46H41.81v.7h2.35Zm-1,3.07V191H39.86a4.89,4.89,0,0,1,0,.75Zm0-1.25v-.73H39.86v.73Z" fill="#008bfd"/><path d="M54.13,193.63H45.45v-.43h4.13v-1.86H48.21c-.07.11-.16.28-.3.49a10.2,10.2,0,0,1,1.37.7l-.27.39a8.79,8.79,0,0,0-1.41-.75,3.24,3.24,0,0,1-1.25.72l-.33-.34a3,3,0,0,0,1.69-1.21H45.77v-.45h8.08v.45H52.6a2.6,2.6,0,0,1-.28.45,12.1,12.1,0,0,1,1.29.67l-.26.38a9.2,9.2,0,0,0-1.32-.68,3.57,3.57,0,0,1-1.28.75l-.29-.36a2.84,2.84,0,0,0,1.65-1.21h-2v1.86h4Zm-.2-5.3h-.47v-1.55h-3.4v1.91h-.49v-1.91H46.16v1.54h-.49v-2h3.9v-.64H46v-.43h7.65v.43H50.06v.64h3.87Zm-5.78,2.14H46V189h2.13Zm-.45-.41v-.65H46.47v.65Zm1.42-1.69c-.76.12-1.57.21-2.42.27l-.15-.4A17.24,17.24,0,0,0,49,188Zm0-1-.16.42a17.28,17.28,0,0,0-2.32-.29l.19-.41A15.11,15.11,0,0,1,49.12,187.37Zm1.77,3.1H48.73V189h2.16Zm-.46-.41v-.65H49.18v.65ZM53,187.41a21.18,21.18,0,0,1-2.32.38l-.17-.41a14.22,14.22,0,0,0,2.26-.34Zm.05,1-.18.41a14.94,14.94,0,0,0-2.35-.42l.18-.41C51.7,188.1,52.48,188.24,53.06,188.38Zm.52,2.09H51.46V189h2.12Zm-.44-.41v-.65H51.9v.65Z" fill="#008bfd"/><path d="M67.17,185.73,65,193.3H64l-1.58-5.57a4.76,4.76,0,0,1-.12-.77h0a3.9,3.9,0,0,1-.13.76L60.6,193.3h-1l-2.23-7.57h.91L60,191.58a3,3,0,0,1,.13.76h0a5.23,5.23,0,0,1,.16-.76L62,185.73h.79l1.63,5.9a5.58,5.58,0,0,1,.13.7h0a4.22,4.22,0,0,1,.15-.72l1.57-5.88Z" fill="#008bfd"/><path d="M72.23,190.8H68.41a2.07,2.07,0,0,0,.49,1.43,1.68,1.68,0,0,0,1.28.5,2.72,2.72,0,0,0,1.69-.61v.78a3.08,3.08,0,0,1-1.88.52,2.26,2.26,0,0,1-1.78-.73,3.07,3.07,0,0,1-.65-2.08,3,3,0,0,1,.71-2,2.24,2.24,0,0,1,1.76-.81,2,2,0,0,1,1.62.68,2.85,2.85,0,0,1,.58,1.91Zm-.83-.72a1.86,1.86,0,0,0-.37-1.19,1.26,1.26,0,0,0-1-.42,1.44,1.44,0,0,0-1,.43,1.91,1.91,0,0,0-.56,1.18Z" fill="#008bfd"/><path d="M74.38,192.51v.79h-.82v-8h.82v3.55h0a2.05,2.05,0,0,1,1.87-1.08,2,2,0,0,1,1.63.73,2.94,2.94,0,0,1,.59,1.94,3.36,3.36,0,0,1-.66,2.17,2.23,2.23,0,0,1-1.81.81,1.78,1.78,0,0,1-1.62-.91Zm0-1.41a1.61,1.61,0,0,0,.45,1.16,1.53,1.53,0,0,0,1.12.47,1.46,1.46,0,0,0,1.25-.61,2.77,2.77,0,0,0,.46-1.7,2.16,2.16,0,0,0-.43-1.43,1.39,1.39,0,0,0-1.14-.53,1.6,1.6,0,0,0-1.23.53,1.93,1.93,0,0,0-.48,1.34Z" fill="#008bfd"/><path d="M88.3,193.3h-.92l-.82-2.15H83.32l-.77,2.15h-.93l2.91-7.57h.85Zm-2-2.91-1.21-3.27a3.33,3.33,0,0,1-.12-.5h0a3.35,3.35,0,0,1-.12.5l-1.2,3.27Z" fill="#008bfd"/><path d="M90.26,190.43v2.87h-.83v-7.57h2a2.75,2.75,0,0,1,1.86.59A2.13,2.13,0,0,1,94,188a2.24,2.24,0,0,1-.79,1.8,2.71,2.71,0,0,1-1.94.65Zm0-3.93v3.15h.95a2.11,2.11,0,0,0,1.42-.42,1.5,1.5,0,0,0,.49-1.21c0-1-.6-1.52-1.79-1.52Z" fill="#008bfd"/><path d="M96.27,193.3h-.83v-7.57h.83Z" fill="#008bfd"/></g><path d="M17.37,169.49H10.65a.59.59,0,0,1-.61-.57v-6.44H12v-1.77H24.4a.59.59,0,0,1,.62.57v.09a6.4,6.4,0,0,1,1,.33v-.42a1.53,1.53,0,0,0-1.58-1.46h-13L9.08,162v6.9a1.51,1.51,0,0,0,1.57,1.46h7.28A5.8,5.8,0,0,1,17.37,169.49Z" fill="gray" fill-rule="evenodd"/><path d="M26,171l2.34,3.26-2.17-.54-.61,1.64-2.34-2.88-1.75,2.88-.8-1.74-2.17.54,2.14-3.42s.58.92,2.69.92S26,171,26,171Z" fill="gray" fill-rule="evenodd"/><path d="M23.43,170.42a3.43,3.43,0,1,1,0-6.83,3.43,3.43,0,1,1,0,6.83Zm0-6.06a2.66,2.66,0,1,0,2.9,2.65A2.78,2.78,0,0,0,23.43,164.36Z" fill="gray" fill-rule="evenodd"/><path d="M23.43,172.23a5.24,5.24,0,1,1,0-10.45,5.24,5.24,0,1,1,0,10.45Zm0-9.69a4.48,4.48,0,1,0,0,8.93,4.48,4.48,0,1,0,0-8.93Z" fill="gray" fill-rule="evenodd"/><rect x="112.23" y="61.11" width="114.21" height="20" fill="none"/><g style="isolation:isolate"><path d="M126.92,74.23a.59.59,0,0,1-.29.57,3.36,3.36,0,0,1-1.3.16h-.45l-.16-.55.73,0a3,3,0,0,0,.83-.06.2.2,0,0,0,.11-.19V71.77h-2.82V74.7H123V71.77h-2.85a6.67,6.67,0,0,1-1,3.15l-.47-.33a6.24,6.24,0,0,0,1-3.6V66.4h7.24ZM123,68.76V66.94h-2.79v1.82Zm0,2.49V69.31h-2.79v1.94Zm3.37-2.49V66.94h-2.82v1.82Zm0,2.49V69.31h-2.82v1.94Z" fill="#00b0f0"/><path d="M137,66.73a32.65,32.65,0,0,1-6.43.7v1.32H137V72h-6.5A5.28,5.28,0,0,1,129,75l-.38-.45a4,4,0,0,0,1.1-1.8,15.46,15.46,0,0,0,.28-3.53V66.93a32.31,32.31,0,0,0,6.66-.68Zm-.56,4.7V69.28h-5.86c0,.38,0,1.09-.05,2.15Z" fill="#00b0f0"/><path d="M141.81,68.28h-.71l.38.34c-.06,1-.25,2.62-.57,4.76a7.74,7.74,0,0,0,.76-.26l0,.54a27.16,27.16,0,0,1-2.94.86l-.12-.53a5.32,5.32,0,0,0,.79-.18,41.67,41.67,0,0,0-.36-5.22l.39-.31h-.68v-.5h1.29a12.34,12.34,0,0,0-.48-1.4l.46-.17a9.92,9.92,0,0,1,.53,1.57h1.24Zm-.83,0h-1.43a47.75,47.75,0,0,1,.37,5.4l.44-.13A41.19,41.19,0,0,0,141,68.28Zm6.4,1.65h-2.63c-.12.37-.26.74-.41,1.11H147v3.24c0,.45-.28.68-.84.68h-.27l-.13-.5h.35c.26,0,.39-.1.39-.32V71.53h-.95v3.08h-.5V71.53h-1v3.08h-.49V71.53h-1V75h-.49V71h1.65a8.73,8.73,0,0,0,.42-1.11h-2.46v-.48h5.63Zm-.51-1.48h-4.55V66.69h.5V68h1.46V66.25h.51V68h1.55V66.69h.53Z" fill="#00b0f0"/><path d="M151.78,67.72h-3.09v-.51H150a5.64,5.64,0,0,0-.41-.92l.45-.17a5.2,5.2,0,0,1,.48,1.09h1.22Zm-.19,1.45h-2.68v-.5h2.68Zm0,1.42h-2.68v-.5h2.68Zm-.19,4.09h-.5v-.54h-1.31v.78h-.51V71.56h2.32Zm-.5-1V72.07h-1.31v1.57Zm2-1.94a10,10,0,0,1-.76,2.43l-.46-.2a9.54,9.54,0,0,0,.72-2.35ZM157,66.43c0,.74-.07,1.45-.13,2.15a9.47,9.47,0,0,1-.15,1.23.85.85,0,0,1-.23.35,1.06,1.06,0,0,1-.45.23,4,4,0,0,1-1,0l-.15-.53c.32,0,.55,0,.69,0a.69.69,0,0,0,.67-.29,12.17,12.17,0,0,0,.25-2.69h-1.36a3.89,3.89,0,0,1-2.84,3.87L152,70.4a4.19,4.19,0,0,0,1.84-1.16,5.6,5.6,0,0,0-1.25-1.07l.34-.35a5.91,5.91,0,0,1,1.2,1,4.35,4.35,0,0,0,.51-1.88h-2.49v-.51ZM156,73a4.48,4.48,0,0,1-.19,1.35.73.73,0,0,1-.37.4,3,3,0,0,1-.93.09,1.58,1.58,0,0,1-.89-.18.8.8,0,0,1-.25-.67V71.57h.5V74a.29.29,0,0,0,.13.23,2,2,0,0,0,.74.08c.3,0,.49,0,.58-.17a3.62,3.62,0,0,0,.21-1.31Zm-.61-1.13-.37.35a8.31,8.31,0,0,0-1.14-1.35l.33-.36A7.2,7.2,0,0,1,155.41,71.84Zm2,2-.47.22a11,11,0,0,0-.77-2.32l.43-.19A12.07,12.07,0,0,1,157.38,73.79Z" fill="#00b0f0"/><path d="M161.71,67.7h-3v-.47h1.42a5.6,5.6,0,0,0-.37-.92l.43-.17a6.13,6.13,0,0,1,.42,1.09h1.13Zm-.24,1.41h-2.54v-.47h2.54Zm0,1.54h-2.54v-.49h2.54Zm-.06,4.07h-.51v-.59h-1.42v.81H159V71.6h2.43Zm-.51-1.08V72.11h-1.42v1.53Zm3.43-6.73a5.35,5.35,0,0,1-.54,1.24,7.63,7.63,0,0,1-1.73,2.1l-.37-.33a9.54,9.54,0,0,0,1.24-1.29,6,6,0,0,0-.89-.75l.33-.32a6.92,6.92,0,0,1,.83.66,6.42,6.42,0,0,0,.63-1.31H162v-.46h2.29Zm2.93,7.81h-5.47v-.47h1.61a12.87,12.87,0,0,0-.47-1.45l.35-.32h-.81V70.4h4v2.08h-.71l.37.32a13,13,0,0,1-.54,1.45h1.68ZM165.93,72V70.88H163V72Zm-.23-2.33h-2.44v-.46h2.44Zm0,2.81h-2.31a12.55,12.55,0,0,1,.59,1.77h1.13A9.26,9.26,0,0,0,165.65,72.48Zm1.74-2.66-.33.41a6.7,6.7,0,0,1-2.43-3.75l.43-.27c.12.41.22.72.29.93a6,6,0,0,0,.84-.78l.33.31a7,7,0,0,1-1,.92,5.5,5.5,0,0,0,.34.63,4.93,4.93,0,0,0,.91-.92l.35.28a5.68,5.68,0,0,1-1,1A6.73,6.73,0,0,0,167.39,69.82Z" fill="#00b0f0"/><path d="M170.62,71.74A17.63,17.63,0,0,1,169.08,75l-.44-.36a15.3,15.3,0,0,0,1.49-3.17Zm0-1.52-.36.39a9.37,9.37,0,0,0-1.58-1.32l.33-.41A10.65,10.65,0,0,1,170.59,70.22Zm.18-2.68-.34.42A10.38,10.38,0,0,0,169,66.58l.34-.41A11.21,11.21,0,0,1,170.77,67.54Zm1.54,3.21a8.56,8.56,0,0,1-.3,2.64A3.33,3.33,0,0,1,170.73,75l-.41-.39a3,3,0,0,0,1-1.07,5.44,5.44,0,0,0,.42-2.75Zm5.1-.41-.44.34a8.35,8.35,0,0,0-.6-.81c-2,.23-3.67.39-5.11.5l-.14-.52a5.41,5.41,0,0,0,2-2.1h-2.09v-.52h2.38a9.54,9.54,0,0,0,.47-1.07l.54.14a9.72,9.72,0,0,1-.41.93h3.21v.52h-3.47a6.7,6.7,0,0,1-1.67,2c1.27-.08,2.56-.2,3.86-.35a6.59,6.59,0,0,0-.89-.86l.41-.35A11.81,11.81,0,0,1,177.41,70.34ZM174,75h-.53V70.75H174Zm3.37-.12h-1.32c-.51,0-.76-.24-.76-.71V70.75h.51v3.31q0,.27.3.27h1.27Z" fill="#00b0f0"/><path d="M182.09,71.17l-.37.4a6.72,6.72,0,0,0-.85-1.25V75h-.53V70.3A14.45,14.45,0,0,1,179,72.77l-.36-.41a13.58,13.58,0,0,0,1.67-3.2h-1.62v-.5h1.65V67.18l-1.22.23-.27-.5a10.85,10.85,0,0,0,2.89-.69l.31.46c-.49.17-.88.29-1.18.38v1.6h1.18v.5h-1.18v.41A9.77,9.77,0,0,1,182.09,71.17Zm5.29,3.54h-5.63v-.49h2.57V72.69h-2.21v-.5h2.21V70.74c-1.07.07-1.72.1-2,.11l-.23-.51a22.2,22.2,0,0,0,4.76-.53l.33.45a23.69,23.69,0,0,1-2.35.42v1.51H187v.5h-2.15v1.53h2.53Zm-.64-5.48h-4.29V66.5h4.29Zm-.53-.51V67H183v1.72Z" fill="#00b0f0"/></g><path d="M52.52,39.11a13.15,13.15,0,0,1-.61,2.78l-.51-.22A9.77,9.77,0,0,0,52,39Zm2-.65H53.4V43.4h-.52V38.46H51.47V38h1.41V34.66h.52V38h1.14Zm-2-1.35-.49.22a9.43,9.43,0,0,0-.52-1.72l.44-.22A9.28,9.28,0,0,1,52.55,37.11Zm2.21-1.56a12.42,12.42,0,0,1-.55,1.87l-.49-.22a8.54,8.54,0,0,0,.57-1.84Zm.15,5.39-.48.24a9.93,9.93,0,0,0-.63-1.94l.43-.23A11.11,11.11,0,0,1,54.91,40.94Zm4.77,1.79a.55.55,0,0,1-.24.49,1.93,1.93,0,0,1-1,.17l-.54,0-.17-.51c.25,0,.54,0,.88,0a1,1,0,0,0,.44-.06.22.22,0,0,0,.1-.19v-.8H55.7a4.24,4.24,0,0,1-.83,1.58l-.45-.34a3.74,3.74,0,0,0,.9-2.71V38.84h4.36Zm.46-4.49H54.9v-.49h2.37v-.7h-2v-.46h2v-.68H55.12v-.49h2.15v-.77h.51v.77H60v.49H57.78v.68h1.94v.46H57.78v.7h2.36Zm-1,3.08v-.76H55.84a6.91,6.91,0,0,1-.05.76Zm0-1.26v-.73H55.84v.73Z" fill="#008bfd"/><path d="M70.28,43.23H61.6V42.8h4.13V40.94H64.35l-.29.49a10,10,0,0,1,1.36.7l-.26.39a10.45,10.45,0,0,0-1.42-.75,3.1,3.1,0,0,1-1.25.72l-.32-.33a3.1,3.1,0,0,0,1.69-1.22H61.92V40.5H70v.44H68.74a2.07,2.07,0,0,1-.27.45,14.3,14.3,0,0,1,1.29.67l-.26.38a9.2,9.2,0,0,0-1.32-.68,3.52,3.52,0,0,1-1.29.75l-.28-.35a2.9,2.9,0,0,0,1.65-1.22h-2V42.8h4Zm-.2-5.3H69.6V36.38H66.21v1.91h-.49V36.38H62.3v1.54h-.48V36h3.9v-.64H62.14v-.43h7.64v.43H66.21V36h3.87ZM64.3,40.08H62.17v-1.5H64.3Zm-.45-.41V39H62.62v.66ZM65.27,38c-.77.12-1.57.21-2.42.27l-.16-.4a17.27,17.27,0,0,0,2.41-.26Zm0-1-.16.42a17.49,17.49,0,0,0-2.32-.29l.19-.41A15.26,15.26,0,0,1,65.27,37ZM67,40.08H64.88v-1.5H67Zm-.46-.41V39H65.33v.66ZM69.15,37a18.5,18.5,0,0,1-2.31.38L66.66,37a14.17,14.17,0,0,0,2.27-.34Zm0,1-.17.4A16.32,16.32,0,0,0,66.67,38l.18-.4A20,20,0,0,1,69.2,38Zm.53,2.09H67.61v-1.5h2.12Zm-.44-.41V39H68.05v.66Z" fill="#008bfd"/><path d="M83.65,35.33,81.51,42.9h-1L79,37.33a3.26,3.26,0,0,1-.12-.77h0a3.91,3.91,0,0,1-.14.76L77.09,42.9h-1l-2.23-7.57h.92l1.64,5.85a3.46,3.46,0,0,1,.13.76h0a4.15,4.15,0,0,1,.16-.76l1.69-5.85h.78l1.64,5.9a4.55,4.55,0,0,1,.12.7h0a2.89,2.89,0,0,1,.15-.72l1.57-5.88Z" fill="#008bfd"/><path d="M89.15,40.4H85.32a2.08,2.08,0,0,0,.5,1.43,1.68,1.68,0,0,0,1.28.5,2.67,2.67,0,0,0,1.68-.61v.78a3.05,3.05,0,0,1-1.87.53,2.26,2.26,0,0,1-1.78-.74,3,3,0,0,1-.65-2.08,3,3,0,0,1,.7-2A2.25,2.25,0,0,1,87,37.37a2,2,0,0,1,1.62.68A2.87,2.87,0,0,1,89.15,40Zm-.84-.72a1.7,1.7,0,0,0-.37-1.18,1.23,1.23,0,0,0-1-.43,1.45,1.45,0,0,0-1,.43,2,2,0,0,0-.57,1.18Z" fill="#008bfd"/><path d="M91.46,42.11v.79h-.81v-8h.81v3.55h0a2,2,0,0,1,1.87-1.09A2,2,0,0,1,95,38.1a2.94,2.94,0,0,1,.6,1.94,3.31,3.31,0,0,1-.67,2.17,2.21,2.21,0,0,1-1.8.82,1.79,1.79,0,0,1-1.62-.92Zm0-1.4a1.59,1.59,0,0,0,.46,1.15,1.58,1.58,0,0,0,2.37-.14,2.84,2.84,0,0,0,.46-1.7,2.24,2.24,0,0,0-.43-1.43,1.41,1.41,0,0,0-1.15-.53,1.61,1.61,0,0,0-1.23.53,1.93,1.93,0,0,0-.48,1.34Z" fill="#008bfd"/><path d="M62.43,47.87H55.05v2.88a12.84,12.84,0,0,1-.79,4.71l-.43-.36a12.15,12.15,0,0,0,.72-4.34V47.4h3.74c-.13-.22-.26-.43-.4-.64l.52-.12a3.25,3.25,0,0,1,.45.76h3.57Zm-5.68,5.38a7.12,7.12,0,0,1-1.18,1.92l-.39-.34A6,6,0,0,0,56.27,53Zm.56-5a6.75,6.75,0,0,1-.62,1.35V52.7h-.5V50.28a6.11,6.11,0,0,1-.62.72l-.33-.39A7,7,0,0,0,56.86,48Zm5,4.39H57.88v-2.5c-.17.21-.39.47-.68.8l-.3-.42a9.18,9.18,0,0,0,1.66-2.44l.44.17a5.9,5.9,0,0,1-.35.72h1.5a4.08,4.08,0,0,0-.38-.68l.49-.14a3.78,3.78,0,0,1,.44.82h1.59v.46H60.45V50h1.7v.46h-1.7v.63h1.7v.46h-1.7v.62h1.87ZM61,54.13a1.81,1.81,0,0,1-.18.77.72.72,0,0,1-.43.35,8.12,8.12,0,0,1-1.47.08,5.42,5.42,0,0,1-1-.06.61.61,0,0,1-.37-.25,1,1,0,0,1-.12-.54V53h.5v1.47c0,.16.05.25.14.29a5.48,5.48,0,0,0,1,.05,6.78,6.78,0,0,0,1.11-.05.41.41,0,0,0,.27-.21,1.53,1.53,0,0,0,.09-.65ZM60,50V49.4H58.39V50Zm0,1.09v-.63H58.39v.63Zm0,1.08v-.62H58.39v.62Zm-.1,1.79-.44.28a6.39,6.39,0,0,0-.87-1L59,52.9A7.14,7.14,0,0,1,59.87,53.94Zm2.71.88-.43.26a9.63,9.63,0,0,0-1.21-1.77l.44-.27A10.29,10.29,0,0,1,62.58,54.82Z" fill="#008bfd"/><path d="M72.25,54.69a.58.58,0,0,1-.29.56,3.17,3.17,0,0,1-1.31.17h-.44l-.16-.55c.24,0,.49,0,.72,0a3,3,0,0,0,.83-.06.2.2,0,0,0,.12-.19V52.23H68.89v2.93h-.54V52.23H65.5a6.78,6.78,0,0,1-1,3.15L64,55.05a6.32,6.32,0,0,0,1-3.6V46.86h7.24Zm-3.9-5.47V47.4h-2.8v1.82Zm0,2.49V49.77h-2.8v1.94Zm3.37-2.49V47.4H68.89v1.82Zm0,2.49V49.77H68.89v1.94Z" fill="#008bfd"/><path d="M77.58,51.63l-.36.4a6.76,6.76,0,0,0-.86-1.25v4.63h-.52V50.76a13.73,13.73,0,0,1-1.35,2.47l-.35-.41a14,14,0,0,0,1.67-3.2H74.19v-.5h1.65V47.64l-1.22.23-.27-.5a11,11,0,0,0,2.89-.69l.31.46c-.49.17-.89.29-1.19.38v1.6h1.19v.5H76.36V50A8.73,8.73,0,0,1,77.58,51.63Zm5.3,3.54H77.25v-.49h2.57V53.15H77.6v-.5h2.22V51.2c-1.07.07-1.73.1-2,.11l-.24-.51a22.78,22.78,0,0,0,4.76-.53l.34.45a23.69,23.69,0,0,1-2.35.42v1.51H82.5v.5H80.35v1.53h2.53Zm-.64-5.48H78V47h4.29Zm-.53-.51V47.46H78.48v1.72Z" fill="#008bfd"/><path d="M93.05,53.26c-.3,1.5-.72,2.25-1.28,2.25a.67.67,0,0,1-.39-.13,2.17,2.17,0,0,1-.53-.61,5.25,5.25,0,0,1-.62-1.21,8.51,8.51,0,0,1-.41-2c-.09-.88-.15-1.75-.19-2.62H84.4v-.54h5.19c0-.74,0-1.32,0-1.72h.52c0,.79,0,1.36,0,1.72H93v.54H90.13c0,.69.11,1.62.25,2.8a6.1,6.1,0,0,0,.71,2.51c.34.51.57.76.68.76s.33-.24.48-.71A6.17,6.17,0,0,0,92.54,53Zm-3.7.39c-1.62.41-3.14.74-4.56,1l-.13-.52c.54-.09,1.22-.21,2-.37v-2.9H84.94v-.54h4.13v.54H87.22v2.78q1.17-.26,2.13-.51Zm3.23-5.77-.44.3A6,6,0,0,0,91,47.12l.43-.34A5.65,5.65,0,0,1,92.58,47.88Z" fill="#008bfd"/><path d="M183.06,114.2a13.7,13.7,0,0,1-.61,2.77l-.51-.22a10.54,10.54,0,0,0,.63-2.7Zm2-.65h-1.14v4.93h-.52v-4.93H182V113h1.41v-3.29h.52V113h1.14Zm-2-1.36-.49.22a9.67,9.67,0,0,0-.52-1.72l.44-.22A9.83,9.83,0,0,1,183.09,112.19Zm2.21-1.55a12.42,12.42,0,0,1-.55,1.87l-.49-.22a8.91,8.91,0,0,0,.57-1.84Zm.15,5.39-.48.24a10,10,0,0,0-.63-2l.43-.23A11.2,11.2,0,0,1,185.45,116Zm4.77,1.78a.57.57,0,0,1-.24.5,2,2,0,0,1-1,.16,5,5,0,0,1-.54,0l-.17-.5.87,0a.89.89,0,0,0,.45-.07.21.21,0,0,0,.1-.18v-.8h-3.47a4.34,4.34,0,0,1-.83,1.57l-.45-.33a3.74,3.74,0,0,0,.9-2.71v-1.52h4.36Zm.46-4.48h-5.24v-.5h2.37v-.7h-2v-.45h2V111h-2.15v-.49h2.15v-.77h.51v.77h2.17V111h-2.17v.69h1.94v.45h-1.94v.7h2.36Zm-1,3.07v-.75h-3.33a6.9,6.9,0,0,1,0,.75Zm0-1.26v-.72h-3.33v.72Z" fill="#008bfd"/><path d="M200.82,118.32h-8.68v-.43h4.13V116h-1.38c-.06.11-.16.27-.29.48a13,13,0,0,1,1.36.7l-.26.39a9.51,9.51,0,0,0-1.42-.74,3.16,3.16,0,0,1-1.25.71l-.32-.33A3.09,3.09,0,0,0,194.4,116h-1.94v-.45h8.07V116h-1.25a2.33,2.33,0,0,1-.27.45c.54.25,1,.48,1.28.66l-.25.39a9.22,9.22,0,0,0-1.32-.68,3.64,3.64,0,0,1-1.29.74l-.28-.35A2.89,2.89,0,0,0,198.8,116h-2v1.86h4Zm-.2-5.31h-.48v-1.54h-3.39v1.91h-.49v-1.91h-3.42V113h-.48v-2h3.9v-.64h-3.58V110h7.64v.43h-3.57V111h3.87Zm-5.78,2.15h-2.13v-1.5h2.13Zm-.45-.41v-.66h-1.23v.66Zm1.42-1.7c-.77.12-1.58.21-2.42.28l-.16-.4a17.57,17.57,0,0,0,2.41-.27Zm0-1-.16.42a17.65,17.65,0,0,0-2.32-.3l.19-.41A15.56,15.56,0,0,1,195.81,112.06Zm1.77,3.1h-2.16v-1.5h2.16Zm-.46-.41v-.66h-1.25v.66Zm2.57-2.65a21.37,21.37,0,0,1-2.31.38l-.18-.41a14.09,14.09,0,0,0,2.26-.35Zm.05,1-.17.4a18.1,18.1,0,0,0-2.36-.42l.18-.4C198.38,112.79,199.16,112.93,199.74,113.07Zm.53,2.09h-2.12v-1.5h2.12Zm-.44-.41v-.66h-1.24v.66Z" fill="#008bfd"/><path d="M211.09,118h-.92l-.82-2.14H206.1l-.76,2.14h-.93l2.91-7.56h.84Zm-2-2.91-1.21-3.26a3.71,3.71,0,0,1-.11-.5h0a1.92,1.92,0,0,1-.12.5l-1.19,3.26Z" fill="#008bfd"/><path d="M213.22,115.11V118h-.83v-7.56h2a2.7,2.7,0,0,1,1.85.59,2.1,2.1,0,0,1,.67,1.66,2.29,2.29,0,0,1-.78,1.8,2.72,2.72,0,0,1-1.94.64Zm0-3.92v3.15h.94a2.09,2.09,0,0,0,1.43-.43,1.48,1.48,0,0,0,.49-1.2c0-1-.6-1.52-1.8-1.52Z" fill="#008bfd"/><path d="M219.4,118h-.83v-7.56h.83Z" fill="#008bfd"/><path d="M189.86,123h-7.38v2.88a13.07,13.07,0,0,1-.79,4.72l-.43-.37a12.15,12.15,0,0,0,.72-4.34v-3.36h3.74l-.4-.64.52-.12a3.47,3.47,0,0,1,.45.76h3.57Zm-5.68,5.38a7.12,7.12,0,0,1-1.18,1.92l-.39-.33a6.13,6.13,0,0,0,1.09-1.8Zm.56-5a6.5,6.5,0,0,1-.62,1.35v3.13h-.5v-2.41a7.14,7.14,0,0,1-.62.71l-.33-.39a6.81,6.81,0,0,0,1.62-2.57Zm5,4.39h-4.44v-2.5c-.17.21-.39.48-.68.81l-.3-.42a9.21,9.21,0,0,0,1.66-2.45l.44.17a5.27,5.27,0,0,1-.35.72h1.5a4.53,4.53,0,0,0-.38-.68l.49-.14a4.6,4.6,0,0,1,.44.82h1.59v.47h-1.84v.57h1.7v.47h-1.7v.63h1.7v.46h-1.7v.62h1.87Zm-1.3,1.52a1.78,1.78,0,0,1-.18.77.65.65,0,0,1-.44.35,7.05,7.05,0,0,1-1.46.08,6.92,6.92,0,0,1-1.05,0,.65.65,0,0,1-.37-.25,1,1,0,0,1-.12-.55v-1.44h.5v1.47c0,.16,0,.26.14.29a4.32,4.32,0,0,0,1,.06,6.78,6.78,0,0,0,1.11-.05.41.41,0,0,0,.27-.21A1.58,1.58,0,0,0,188,129Zm-1.06-4.15v-.57h-1.57v.57Zm0,1.1v-.63h-1.58v.63Zm0,1.08v-.62h-1.58v.62Zm-.1,1.78-.44.29a6,6,0,0,0-.87-1l.44-.3A7.71,7.71,0,0,1,187.3,129Zm2.71.89-.43.26a10.08,10.08,0,0,0-1.21-1.78l.44-.27A10.37,10.37,0,0,1,190,129.91Z" fill="#008bfd"/><path d="M199.68,129.77a.61.61,0,0,1-.29.57,3.26,3.26,0,0,1-1.31.16h-.44l-.16-.54.72,0a3.21,3.21,0,0,0,.83-.05.21.21,0,0,0,.12-.19v-2.42h-2.83v2.93h-.54v-2.93h-2.85a6.78,6.78,0,0,1-1,3.15l-.47-.32a6.33,6.33,0,0,0,1-3.61v-4.59h7.24Zm-3.9-5.46v-1.83H193v1.83Zm0,2.49v-2H193v2Zm3.37-2.49v-1.83h-2.83v1.83Zm0,2.49v-2h-2.83v2Z" fill="#008bfd"/><path d="M205,126.71l-.36.4a7.12,7.12,0,0,0-.86-1.25v4.63h-.52v-4.65a14,14,0,0,1-1.35,2.47l-.35-.41a13.68,13.68,0,0,0,1.67-3.19h-1.62v-.51h1.65v-1.48l-1.22.23-.27-.49a11,11,0,0,0,2.89-.69l.31.46-1.19.38v1.59H205v.51h-1.19v.41A9.24,9.24,0,0,1,205,126.71Zm5.3,3.54h-5.63v-.49h2.57v-1.52H205v-.51h2.22v-1.45l-2,.12-.24-.52a22.84,22.84,0,0,0,4.76-.52l.34.44c-.67.16-1.46.3-2.35.42v1.51h2.15v.51h-2.15v1.52h2.53Zm-.64-5.48h-4.29V122h4.29Zm-.53-.5v-1.73h-3.23v1.73Z" fill="#008bfd"/><path d="M220.48,128.34c-.3,1.5-.73,2.25-1.28,2.25a.74.74,0,0,1-.39-.12,2.33,2.33,0,0,1-.53-.61,5.46,5.46,0,0,1-.62-1.21,8.51,8.51,0,0,1-.41-2c-.09-.88-.15-1.76-.19-2.63h-5.23v-.53H217c0-.75,0-1.32,0-1.73h.52c0,.79,0,1.37,0,1.73h2.91V124h-2.89c0,.7.11,1.63.25,2.8a6.21,6.21,0,0,0,.71,2.52c.34.5.57.76.68.76s.32-.24.48-.72a6.64,6.64,0,0,0,.29-1.27Zm-3.7.39c-1.62.41-3.14.75-4.56,1l-.13-.53c.54-.08,1.22-.21,2-.36V126h-1.77v-.55h4.13V126h-1.85v2.77c.78-.16,1.49-.33,2.13-.5ZM220,123l-.44.31a6,6,0,0,0-1.12-1.06l.43-.35A5.65,5.65,0,0,1,220,123Z" fill="#008bfd"/><path d="M50,114.2a13.55,13.55,0,0,1-.61,2.77l-.51-.22a10.54,10.54,0,0,0,.63-2.7Zm2-.65H50.9v4.93h-.52v-4.93H49V113h1.41v-3.29h.52V113H52Zm-2-1.36-.49.22a9.92,9.92,0,0,0-.52-1.72l.44-.22A9.83,9.83,0,0,1,50.05,112.19Zm2.21-1.55a12.42,12.42,0,0,1-.55,1.87l-.49-.22a8.72,8.72,0,0,0,.57-1.84Zm.15,5.39-.48.24a10,10,0,0,0-.63-2l.43-.23A12.11,12.11,0,0,1,52.41,116Zm4.77,1.78a.57.57,0,0,1-.24.5,2,2,0,0,1-1,.16,5.15,5.15,0,0,1-.55,0l-.16-.5.87,0a.82.82,0,0,0,.44-.07.19.19,0,0,0,.1-.18v-.8H53.2a4.34,4.34,0,0,1-.83,1.57l-.45-.33a3.74,3.74,0,0,0,.9-2.71v-1.52h4.36Zm.46-4.48H52.4v-.5h2.37v-.7h-2v-.45h2V111H52.62v-.49h2.15v-.77h.51v.77h2.17V111H55.28v.69h1.94v.45H55.28v.7h2.36Zm-1,3.07v-.75H53.33a6.63,6.63,0,0,1,0,.75Zm0-1.26v-.72H53.33v.72Z" fill="#0078d7"/><path d="M67.78,118.32H59.09v-.43h4.14V116H61.85c-.06.11-.16.27-.29.48a13,13,0,0,1,1.36.7l-.26.39a9.51,9.51,0,0,0-1.42-.74,3,3,0,0,1-1.25.71l-.32-.33A3.09,3.09,0,0,0,61.36,116H59.42v-.45h8.07V116H66.24a2.07,2.07,0,0,1-.27.45c.54.25,1,.48,1.28.66l-.25.39a10.38,10.38,0,0,0-1.32-.68,3.5,3.5,0,0,1-1.29.74l-.29-.35A2.82,2.82,0,0,0,65.75,116h-2v1.86h4.05Zm-.2-5.31H67.1v-1.54H63.7v1.91h-.48v-1.91H59.8V113h-.48v-2h3.9v-.64H59.64V110h7.64v.43H63.7V111h3.88Zm-5.78,2.15H59.67v-1.5H61.8Zm-.45-.41v-.66H60.12v.66Zm1.42-1.7c-.77.12-1.58.21-2.43.28l-.15-.4a17.57,17.57,0,0,0,2.41-.27Zm0-1-.16.42a17.65,17.65,0,0,0-2.32-.3l.19-.41A15.56,15.56,0,0,1,62.77,112.06Zm1.76,3.1H62.38v-1.5h2.15Zm-.45-.41v-.66H62.83v.66Zm2.57-2.65a21.18,21.18,0,0,1-2.32.38l-.17-.41a14.09,14.09,0,0,0,2.26-.35Zm0,1-.17.4a18.1,18.1,0,0,0-2.36-.42l.18-.4C65.34,112.79,66.12,112.93,66.7,113.07Zm.53,2.09H65.11v-1.5h2.12Zm-.44-.41v-.66H65.55v.66Z" fill="#0078d7"/><path d="M72.51,116.68a11.17,11.17,0,0,1-3,1.59l-.29-.48a10.11,10.11,0,0,0,2.84-1.46Zm5.5-.82H73.86v2.64h-.52v-2.64h-4.1v-.47h4.1v-.76h-3v-3h2.71v-1.86h.52v.63h3.55v.5H73.61v.73h3.18v3H73.86v.76H78Zm-1.71-3v-.73H70.89v.73Zm0,1.31v-.8H70.89v.8ZM78,117.9l-.37.42a16.19,16.19,0,0,0-3-1.54l.34-.45A18.81,18.81,0,0,1,78,117.9Z" fill="#0078d7"/><path d="M88.11,110.49H84.18a13.61,13.61,0,0,1-.62,1.3h3.87v6.67h-.52v-.6H80.65v.6h-.53v-6.67H83a5.42,5.42,0,0,0,.65-1.3H79.43V110h8.68Zm-6,6.84v-5H80.65v5Zm2.9-3.77v-1.24H82.61v1.24Zm0,1.85v-1.35H82.61v1.35Zm0,1.92v-1.44H82.61v1.44Zm1.94,0v-5H85.49v5Z" fill="#0078d7"/><path d="M98.18,111H90.81v2.88a13.07,13.07,0,0,1-.79,4.72l-.43-.37a12.15,12.15,0,0,0,.72-4.34v-3.36h3.74l-.4-.64.52-.12a3.91,3.91,0,0,1,.45.76h3.56Zm-5.67,5.38a7.38,7.38,0,0,1-1.18,1.92l-.39-.33a6.13,6.13,0,0,0,1.09-1.8Zm.56-5a6.5,6.5,0,0,1-.62,1.35v3.13H92v-2.41a7.14,7.14,0,0,1-.62.71l-.33-.39a7.07,7.07,0,0,0,1.62-2.57Zm5,4.39H93.64v-2.5c-.17.21-.39.48-.68.81l-.3-.42a9.21,9.21,0,0,0,1.66-2.45l.44.17a4.76,4.76,0,0,1-.35.72h1.5a5.72,5.72,0,0,0-.38-.68l.49-.14a4.6,4.6,0,0,1,.44.82h1.59v.47H96.21v.57h1.7v.47h-1.7v.63h1.7v.46h-1.7v.62h1.87Zm-1.3,1.52a1.78,1.78,0,0,1-.18.77.67.67,0,0,1-.44.35,12.38,12.38,0,0,1-2.52,0,.66.66,0,0,1-.36-.25,1,1,0,0,1-.12-.55v-1.44h.5v1.47c0,.16,0,.26.14.29a4.32,4.32,0,0,0,1,.06,6.78,6.78,0,0,0,1.11,0,.37.37,0,0,0,.26-.21,1.4,1.4,0,0,0,.1-.66Zm-1.06-4.15v-.57H94.15v.57Zm0,1.1v-.63H94.15v.63Zm0,1.08v-.62H94.15v.62Zm-.1,1.78-.44.29a6,6,0,0,0-.87-1l.44-.3A7.71,7.71,0,0,1,95.63,117Zm2.71.89-.43.26a10.08,10.08,0,0,0-1.21-1.78l.43-.27A10.25,10.25,0,0,1,98.34,117.91Z" fill="#0078d7"/><path d="M67.33,129.77a.61.61,0,0,1-.29.57,3.26,3.26,0,0,1-1.31.16h-.44l-.16-.54.72,0a3.21,3.21,0,0,0,.83-.05.21.21,0,0,0,.12-.19v-2.42H64v2.93h-.54v-2.93H60.58a6.67,6.67,0,0,1-1,3.15l-.46-.32a6.33,6.33,0,0,0,1-3.61v-4.59h7.24Zm-3.9-5.46v-1.83h-2.8v1.83Zm0,2.49v-2h-2.8v2Zm3.37-2.49v-1.83H64v1.83Zm0,2.49v-2H64v2Z" fill="#0078d7"/><path d="M72.66,126.71l-.36.4a7.12,7.12,0,0,0-.86-1.25v4.63h-.52v-4.65a13.65,13.65,0,0,1-1.35,2.47l-.35-.41a13.68,13.68,0,0,0,1.67-3.19H69.27v-.51h1.65v-1.48L69.7,123l-.27-.49a11,11,0,0,0,2.89-.69l.31.46-1.19.38v1.59h1.19v.51H71.44v.41A9.24,9.24,0,0,1,72.66,126.71Zm5.3,3.54H72.33v-.49H74.9v-1.52H72.68v-.51H74.9v-1.45l-2,.12-.24-.52a22.92,22.92,0,0,0,4.76-.52l.34.44c-.67.16-1.46.3-2.35.42v1.51h2.15v.51H75.43v1.52H78Zm-.64-5.48H73V122h4.29Zm-.53-.5v-1.73H73.56v1.73Z" fill="#0078d7"/><path d="M88.13,128.34c-.3,1.5-.73,2.25-1.28,2.25a.74.74,0,0,1-.39-.12,2.51,2.51,0,0,1-.54-.61,5.92,5.92,0,0,1-.61-1.21,8.51,8.51,0,0,1-.41-2c-.09-.88-.15-1.76-.19-2.63H79.48v-.53h5.19c0-.75,0-1.32,0-1.73h.52c0,.79,0,1.37,0,1.73H88.1V124H85.21c0,.7.11,1.63.25,2.8a6.05,6.05,0,0,0,.71,2.52c.34.5.57.76.68.76s.32-.24.48-.72a6.64,6.64,0,0,0,.29-1.27Zm-3.7.39c-1.62.41-3.14.75-4.56,1l-.13-.53c.54-.08,1.22-.21,2.05-.36V126H80v-.55h4.13V126H82.3v2.77c.78-.16,1.49-.33,2.13-.5ZM87.66,123l-.44.31a6,6,0,0,0-1.12-1.06l.43-.35A6,6,0,0,1,87.66,123Z" fill="#0078d7"/><path d="M12.61,107.29a3.42,3.42,0,0,1-.28.62,8,8,0,0,1-.64,1,7.94,7.94,0,0,1,.86,1.15l-.35.41a6,6,0,0,0-.75-1.12v4.28h-.52v-3.74a15.13,15.13,0,0,1-1.14,1l-.35-.42a8.68,8.68,0,0,0,2.64-3.28H9.63v-.51h3Zm-.83-1-.48.24a6.58,6.58,0,0,0-.84-1.4l.48-.26A8.3,8.3,0,0,1,11.78,106.3Zm5.93-.45a16.7,16.7,0,0,1-2.72,5.8v1.08a.29.29,0,0,0,.12.24,2.69,2.69,0,0,0,.9.08,1.42,1.42,0,0,0,.72-.1.72.72,0,0,0,.18-.43,5,5,0,0,0,.07-1l.52.2a3.55,3.55,0,0,1-.12,1.11,1,1,0,0,1-.38.59,2.47,2.47,0,0,1-1,.14,3.18,3.18,0,0,1-1.25-.14.57.57,0,0,1-.27-.56v-.65a13.24,13.24,0,0,1-1.81,1.53l-.37-.42a9.94,9.94,0,0,0,2.18-1.91v-4.18H15v3.51a15.09,15.09,0,0,0,2.21-5Zm-3.83,2.45a12.11,12.11,0,0,1-.79,3.12l-.5-.17a11.46,11.46,0,0,0,.79-3.07Zm2.47-1.6-.4.37a9.2,9.2,0,0,0-1.73-1.74l.35-.37A11.85,11.85,0,0,1,16.35,106.7Zm1.9,4.46-.53.19a11.18,11.18,0,0,0-.68-2.47l.46-.19A11.47,11.47,0,0,1,18.25,111.16Z" fill="#008bfd"/><path d="M26.48,107.28A11.37,11.37,0,0,1,22.92,110a.18.18,0,0,0,.15.17,5.9,5.9,0,0,0,1.16,0,6.31,6.31,0,0,0,1.36-.08c.2-.06.33-.44.37-1.15l.48.25a2.33,2.33,0,0,1-.21,1,.79.79,0,0,1-.45.42,4.45,4.45,0,0,1-1.11.08c-1,0-1.56,0-1.77,0a.67.67,0,0,1-.47-.42c-.85.39-1.68.72-2.48,1l-.25-.42a24.34,24.34,0,0,0,2.68-1.09V106.9h.52v2.57A9.94,9.94,0,0,0,26.11,107Zm-4.44.38a11.71,11.71,0,0,1-2,2l-.36-.37a10.69,10.69,0,0,0,1.92-1.87Zm5.95.07h-.51v-1.49H20.6v1.49h-.51v-2h3.75a2.67,2.67,0,0,0-.3-.7l.47-.16a5.16,5.16,0,0,1,.36.86H28Zm-.66,6h-.52v-.26H20.7v-2h.52V113H23.7v-2h.51v2h2.6v-1.57h.52Zm-2.55-6-.41.27a7.46,7.46,0,0,0-.95-1.22l.44-.27A6.35,6.35,0,0,1,24.78,107.77Zm3.56,2-.38.35a11.39,11.39,0,0,0-1.59-1.84l.38-.32A12.53,12.53,0,0,1,28.34,109.79Z" fill="#008bfd"/><path d="M13.34,178.42a4,4,0,0,1-.28.61,8,8,0,0,1-.64,1.05,7.47,7.47,0,0,1,.86,1.16l-.35.41a5.74,5.74,0,0,0-.75-1.12v4.27h-.52v-3.74a11.79,11.79,0,0,1-1.14,1.05l-.35-.42a8.58,8.58,0,0,0,2.64-3.27H10.36v-.51h3Zm-.83-1-.48.24a6.64,6.64,0,0,0-.84-1.41l.48-.25A7.93,7.93,0,0,1,12.51,177.43Zm5.93-.45a16.63,16.63,0,0,1-2.72,5.79v1.09a.26.26,0,0,0,.12.23,2.69,2.69,0,0,0,.9.08,1.42,1.42,0,0,0,.72-.1.69.69,0,0,0,.18-.43,4.92,4.92,0,0,0,.07-1l.52.2a3.48,3.48,0,0,1-.12,1.1,1,1,0,0,1-.38.59,2.26,2.26,0,0,1-1,.15,3.4,3.4,0,0,1-1.25-.14.59.59,0,0,1-.27-.57v-.65a12,12,0,0,1-1.81,1.53l-.37-.41a10.26,10.26,0,0,0,2.18-1.92v-4.18h.52v3.52a15.29,15.29,0,0,0,2.21-5Zm-3.83,2.44a11.9,11.9,0,0,1-.79,3.12l-.5-.17a11.49,11.49,0,0,0,.79-3.06Zm2.47-1.59-.4.36A9.14,9.14,0,0,0,15,176.46l.35-.38A11.39,11.39,0,0,1,17.08,177.83Zm1.9,4.46-.53.19a11.25,11.25,0,0,0-.68-2.48l.46-.19A11.55,11.55,0,0,1,19,182.29Z" fill="#008bfd"/><path d="M27.21,178.4a11.37,11.37,0,0,1-3.56,2.72q0,.12.15.18a7,7,0,0,0,1.16,0,6.07,6.07,0,0,0,1.36-.09c.2,0,.33-.44.37-1.14l.48.25a2.37,2.37,0,0,1-.21,1,.86.86,0,0,1-.45.42,5,5,0,0,1-1.11.08,14.28,14.28,0,0,1-1.77-.06.68.68,0,0,1-.47-.41c-.85.38-1.68.72-2.48,1l-.25-.42a24.26,24.26,0,0,0,2.68-1.1V178h.52v2.57a10.22,10.22,0,0,0,3.21-2.51Zm-4.44.38a11.42,11.42,0,0,1-2,2l-.36-.37a11.43,11.43,0,0,0,1.92-1.87Zm5.95.08h-.51v-1.5H21.33v1.5h-.51v-2h3.75a2.42,2.42,0,0,0-.3-.7l.47-.16a4.54,4.54,0,0,1,.36.86h3.62Zm-.66,6h-.52v-.26H21.43v-2.05H22v1.58h2.48v-2h.51v2h2.6v-1.58h.52Zm-2.55-5.94-.41.27a7.14,7.14,0,0,0-1-1.23l.44-.26A6.05,6.05,0,0,1,25.51,178.9Zm3.56,2-.38.34a11.84,11.84,0,0,0-1.59-1.84l.38-.31A12,12,0,0,1,29.07,180.92Z" fill="#008bfd"/><path d="M13.34,30.1a3.53,3.53,0,0,1-.28.61,6.83,6.83,0,0,1-.64,1.05,8,8,0,0,1,.86,1.16l-.35.41a6,6,0,0,0-.75-1.12v4.28h-.52V32.75a15.13,15.13,0,0,1-1.14,1l-.35-.42a8.68,8.68,0,0,0,2.64-3.28H10.36v-.51h3Zm-.83-1-.48.24a6.58,6.58,0,0,0-.84-1.4l.48-.26A7.93,7.93,0,0,1,12.51,29.11Zm5.93-.45a16.63,16.63,0,0,1-2.72,5.79v1.09a.26.26,0,0,0,.12.23,2.42,2.42,0,0,0,.9.08,1.61,1.61,0,0,0,.72-.09.76.76,0,0,0,.18-.44,4.85,4.85,0,0,0,.07-1l.52.2a3.55,3.55,0,0,1-.12,1.11,1,1,0,0,1-.38.58,2.26,2.26,0,0,1-1,.15,3.4,3.4,0,0,1-1.25-.14.58.58,0,0,1-.27-.56V35a12.48,12.48,0,0,1-1.81,1.52L13,36.14a10.21,10.21,0,0,0,2.18-1.91V30.05h.52v3.51a15.19,15.19,0,0,0,2.21-5Zm-3.83,2.45a12.11,12.11,0,0,1-.79,3.12l-.5-.18A11.49,11.49,0,0,0,14.11,31Zm2.47-1.6-.4.36A9.45,9.45,0,0,0,15,28.14l.35-.37A11,11,0,0,1,17.08,29.51ZM19,34l-.53.19a11,11,0,0,0-.68-2.47l.46-.19A11.47,11.47,0,0,1,19,34Z" fill="#008bfd"/><path d="M27.21,30.08a11.22,11.22,0,0,1-3.56,2.72c0,.09.05.14.15.18A7,7,0,0,0,25,33a6.07,6.07,0,0,0,1.36-.09c.2,0,.33-.43.37-1.14l.48.25A2.37,2.37,0,0,1,27,33a.86.86,0,0,1-.45.42,5,5,0,0,1-1.11.08,14.28,14.28,0,0,1-1.77-.06.63.63,0,0,1-.47-.41c-.85.38-1.68.72-2.48,1l-.25-.42a24.34,24.34,0,0,0,2.68-1.09V29.71h.52v2.57a10.08,10.08,0,0,0,3.21-2.51Zm-4.44.39a11.71,11.71,0,0,1-2,2l-.36-.37a11,11,0,0,0,1.92-1.87Zm5.95.07h-.51V29H21.33v1.5h-.51v-2h3.75a2.54,2.54,0,0,0-.3-.7l.47-.16a4.83,4.83,0,0,1,.36.86h3.62Zm-.66,6h-.52v-.26H21.43V34.22H22v1.57h2.48v-2h.51v2h2.6V34.22h.52Zm-2.55-6-.41.27a7.06,7.06,0,0,0-1-1.22l.44-.27A6.05,6.05,0,0,1,25.51,30.58Zm3.56,2-.38.35a11,11,0,0,0-1.59-1.84l.38-.32A12.53,12.53,0,0,1,29.07,32.6Z" fill="#008bfd"/><path d="M17.37,98.69H10.65a.59.59,0,0,1-.61-.57V91.68H12V89.91H24.4a.59.59,0,0,1,.62.57v.09a6.4,6.4,0,0,1,1,.33v-.42A1.53,1.53,0,0,0,24.4,89h-13l-2.34,2.2v6.9a1.51,1.51,0,0,0,1.57,1.46h7.28A5.8,5.8,0,0,1,17.37,98.69Z" fill="gray" fill-rule="evenodd"/><path d="M26,100.22l2.34,3.26-2.17-.54-.61,1.64-2.34-2.88-1.75,2.88-.8-1.74-2.17.54L20.65,100s.58.92,2.69.92S26,100.22,26,100.22Z" fill="gray" fill-rule="evenodd"/><path d="M23.43,99.63a3.43,3.43,0,1,1,0-6.83,3.43,3.43,0,1,1,0,6.83Zm0-6.06a2.66,2.66,0,1,0,2.9,2.65A2.78,2.78,0,0,0,23.43,93.57Z" fill="gray" fill-rule="evenodd"/><path d="M23.43,101.44a5.24,5.24,0,1,1,0-10.45,5.24,5.24,0,1,1,0,10.45Zm0-9.69a4.48,4.48,0,1,0,0,8.93,4.48,4.48,0,1,0,0-8.93Z" fill="gray" fill-rule="evenodd"/><path d="M17.37,21.52H10.65A.59.59,0,0,1,10,21V14.51H12V12.74H24.4a.59.59,0,0,1,.62.57v.09a6.4,6.4,0,0,1,1,.33v-.42a1.53,1.53,0,0,0-1.58-1.46h-13l-2.34,2.2V21a1.51,1.51,0,0,0,1.57,1.46h7.28A5.8,5.8,0,0,1,17.37,21.52Z" fill="gray" fill-rule="evenodd"/><path d="M26,23.05l2.34,3.26-2.17-.54-.61,1.64-2.34-2.88-1.75,2.88-.8-1.74-2.17.54,2.14-3.42s.58.92,2.69.92S26,23.05,26,23.05Z" fill="gray" fill-rule="evenodd"/><path d="M23.43,22.45A3.58,3.58,0,0,1,19.72,19a3.58,3.58,0,0,1,3.71-3.42A3.58,3.58,0,0,1,27.15,19,3.58,3.58,0,0,1,23.43,22.45Zm0-6.06A2.78,2.78,0,0,0,20.54,19a2.91,2.91,0,0,0,5.79,0A2.79,2.79,0,0,0,23.43,16.39Z" fill="gray" fill-rule="evenodd"/><path d="M23.43,24.27a5.48,5.48,0,0,1-5.7-5.22,5.48,5.48,0,0,1,5.7-5.23,5.48,5.48,0,0,1,5.69,5.23A5.47,5.47,0,0,1,23.43,24.27Zm0-9.69a4.7,4.7,0,0,0-4.88,4.47,4.69,4.69,0,0,0,4.88,4.46,4.68,4.68,0,0,0,4.87-4.46A4.69,4.69,0,0,0,23.43,14.58Z" fill="gray" fill-rule="evenodd"/><path d="M80.65,24.41a11.81,11.81,0,0,1-16.84-2.29A12.56,12.56,0,0,1,66.05,4.83a11.82,11.82,0,0,1,16.84,2.3A12.54,12.54,0,0,1,80.65,24.41ZM84.31,6A13.57,13.57,0,0,0,65,3.37,14.43,14.43,0,0,0,62.4,23.24a13.62,13.62,0,0,0,11,5.55,13.45,13.45,0,0,0,8.39-2.92A14.44,14.44,0,0,0,84.31,6Z" fill="#008bfd"/><path d="M66.68,17.19a17,17,0,0,1-2-2.35,18.28,18.28,0,0,0-1.66,6.88c.11.16.11.29.23.44a12.55,12.55,0,0,0,2,2.05A14.13,14.13,0,0,1,66.68,17.19Z" fill="#008bfd"/><path d="M71.29,7.75a21,21,0,0,0-3.33,3,15.71,15.71,0,0,0-1.61,2,15.42,15.42,0,0,0,1.9,2.46,16.32,16.32,0,0,1,2.2-2.56,26.47,26.47,0,0,1,3.13-2.61C72.78,9.31,72,8.54,71.29,7.75Z" fill="#008bfd"/><path d="M82.76,7A12,12,0,0,0,81,5.13a12.53,12.53,0,0,0-8,1.53c.76.84,1.51,1.63,2.24,2.36C79.63,6.59,82.76,7,82.76,7Z" fill="#008bfd"/><path d="M65,15a19.82,19.82,0,0,1,1.19-2.06,9.84,9.84,0,0,1-1.6-6.79,13.09,13.09,0,0,0-1.29,1.6C62.87,9.34,62.85,11.9,65,15Z" fill="#008bfd"/><path d="M70.52,17.37a21.6,21.6,0,0,1-2.27-2.14,14.25,14.25,0,0,0-1.14,1.95,23.54,23.54,0,0,0,2.09,1.91,19.12,19.12,0,0,0,12.56,4.38,9,9,0,0,0,1.54-1.94C82.07,21.79,76.81,22.48,70.52,17.37Z" fill="#008bfd"/><path d="M65.16,14.83a15.72,15.72,0,0,0,2,2.35,15.36,15.36,0,0,1,1.14-1.95,15.42,15.42,0,0,1-1.9-2.46A15.58,15.58,0,0,0,65.16,14.83Z" fill="#008bfd"/><path d="M73.58,10.07a97,97,0,0,0,11.15,8.82,9.82,9.82,0,0,0,.33-1.05A95.51,95.51,0,0,1,75.23,9Q74.44,9.47,73.58,10.07Z" fill="#008bfd"/><path d="M73,6.66q-1.65-1.77-3.36-3.8A10.05,10.05,0,0,0,68,3.52a26.3,26.3,0,0,0,3.24,4.22A17.22,17.22,0,0,1,73,6.66Z" fill="#008bfd"/><path d="M73.06,6.62a18.74,18.74,0,0,0-1.87,1.19c.72.78,1.45,1.59,2.25,2.35.57-.4,1.34-.88,1.87-1.18C74.57,8.25,73.82,7.46,73.06,6.62Z" fill="#008bfd"/><path d="M72.86,6.52a16.24,16.24,0,0,0-1.67,1.12c.72.79,1.74,1.81,2.54,2.57.57-.4,1-.8,1.58-1.11C74.57,8.38,73.61,7.35,72.86,6.52Z" fill="#008bfd"/><path d="M78.92,13.07a2.7,2.7,0,0,0-.48,3.7,2.56,2.56,0,0,0,3.63.51,2.72,2.72,0,0,0,.48-3.72A2.55,2.55,0,0,0,78.92,13.07Z" fill="#008bfd"/><path d="M73.75,19.2a2.52,2.52,0,0,0-.45,3.44,2.37,2.37,0,0,0,3.36.45,2.49,2.49,0,0,0,.44-3.43A2.36,2.36,0,0,0,73.75,19.2Z" fill="#008bfd"/><path d="M64.6,11.87a3.79,3.79,0,0,0-.68,5.21,3.58,3.58,0,0,0,5.1.7,3.8,3.8,0,0,0,.67-5.23A3.59,3.59,0,0,0,64.6,11.87Z" fill="#008bfd"/><path d="M107,154V131.82C107,113.88,106,92,144,92" fill="none" stroke="#505050" stroke-miterlimit="10"/><path d="M87.59,165.63h8.24c6.36,0,11.15-3.46,11.15-9.41v-16.7" fill="none" stroke="#505050" stroke-miterlimit="10"/><path d="M106.19,29.55V51.92c0,18.06-1,40.08,37,40.08" fill="none" stroke="#505050" stroke-miterlimit="10"/><path d="M89.12,16.36h7.26c5.59,0,9.81,3.67,9.81,10V44.08" fill="none" stroke="#505050" stroke-miterlimit="10"/><path d="M181,87.78l8,4-8,4a9,9,0,0,0,0-8" fill="#505050" fill-rule="evenodd"/><path d="M181,87.79l8,4-8,4a9,9,0,0,0,0-8" fill="#505050" fill-rule="evenodd"/><path d="M181,87.79l8,4-8,4a9.06,9.06,0,0,0,0-8" fill="#505050" fill-rule="evenodd"/><rect x="91.55" y="91.49" width="91.09" height="1" rx="0.42" fill="#505050"/></svg>