<svg xmlns="http://www.w3.org/2000/svg" viewBox="0 0 224.4 98.83"><title>OJ104544462</title><path d="M60.23,66.79H46V38.41H60.23v7.68H61V37.65H45.26v29.9H61V65.23h-.76Z" fill="#0078d7"/><path d="M59.47,39.21H46.83v4.58H59.47Zm-9.58,1.91h6.53v.76H49.89ZM56.48,43H49.86V42.2h6.62Z" fill="#0078d7"/><path d="M46.79,44.57v3h8.6V46.1h4.08V44.57Z" fill="#0078d7"/><rect x="46.79" y="48.38" width="8.6" height="2.68" fill="#0078d7"/><path d="M46.79,66H59.44v-.79H55.36V51.85h-8.6V66Zm1.53-2.73h2.29V64.5H48.32Z" fill="#0078d7"/><path d="M70,63H67.55V61.09H65V63H62.59a1.32,1.32,0,0,0-1.31,1.14h10C71.35,63.54,70.68,63,70,63Z" fill="#0078d7"/><path d="M74.85,49H57.75a.64.64,0,0,0-.67.6V59.72a.64.64,0,0,0,.67.6h17.1a.64.64,0,0,0,.67-.6V49.59A.62.62,0,0,0,74.85,49Zm-1,9.84H58.77V50.52H73.83Z" fill="#0078d7"/><path d="M70.21,56.35V52.91L66.7,51.06l-3.5,1.78v3.54l3.5,1.81Zm-4.4-2.3.89-.44.86.44-.86.48Zm0-1.14.86-.45.86.45-.86.48Zm1.91,4.52-1,.51V57l1-.51Zm0-1.18-1,.51v-.92l1-.51Zm0-1.11-1,.51v-.93l1-.51Zm-.82-1.66.86-.44.89.44-.86.45Zm2,3.35-1,.5v-.92l1-.51Zm0-1.18-1,.51v-.93l1-.51Zm0-1.15L68,55v-.89l1-.51Zm1,1.75-.86.45v-.93l.86-.44Zm0-1.14-.86.44v-.92l.86-.45ZM70,54l-.86.44v-.92L70,53Zm-.19-1.05-.89.44L68,52.91l.86-.45Zm-1.11-.58-.89.45-.86-.45.86-.44Zm-2-1,.86.45-.86.45-.89-.45Zm-1.11.61.86.44-.86.45-.86-.45Zm-1.08.57.89.45-.89.44-.9-.44Zm-.26,4.27-.86-.45v-.92l.86.45Zm0-1.18-.86-.44v-.93l.86.45Zm0-1.15L63.39,54v-.89l.86.44Zm1.18,2.93-1-.5V55.9l1,.51Zm0-1.17-1-.51v-.93l1,.51Zm0-1.15-1-.51v-.89l1,.51Zm-.7-1.53.89-.44.86.44-.89.48Zm1.88,4.46-1-.51v-.89l1,.51Zm0-1.15-1-.51v-.92l1,.51Zm0-1.14-1-.51v-.93l1,.51Z" fill="#0078d7"/><g style="isolation:isolate"><path d="M26.49,69.78c-.07.31-.17.68-.31,1.13l-.21.63v6.9h-.53v-5.5a12,12,0,0,1-.77,1.43l-.28-.54A15.19,15.19,0,0,0,26,69.63Zm6.7,6.82H31.74v1a.92.92,0,0,1-.2.59c-.13.16-.43.24-.91.24a4.22,4.22,0,0,1-.57,0l-.28-.49c.3,0,.56,0,.79,0a1.32,1.32,0,0,0,.52-.06.15.15,0,0,0,.1-.16V76.6H26.42v-.45h4.77v-.58h.55v.58h1.45Zm0-1.15-.35.32c-.1-.13-.23-.3-.4-.5l-5.85.31-.08-.44,2.9-.16V74.3H27V71.53h2.41v-.69h-2.8v-.46h2.8v-.75H30v.75h3v.46H30v.69h2.51V74.3h-.35A7.49,7.49,0,0,1,33.22,75.45Zm-3.73,2.26-.38.39a13.93,13.93,0,0,0-1.76-1l.36-.39A14.71,14.71,0,0,1,29.49,77.71Zm0-5V72H27.56v.71Zm0,1.16v-.73H27.56v.73ZM32,72.68V72H30v.71Zm0,1.16v-.73H30v.73Zm.06,1a3.12,3.12,0,0,0-.44-.4l.18-.14H30v.64C30.63,74.9,31.31,74.86,32,74.84Z" fill="#008bfd"/><path d="M35.53,76.05a9.93,9.93,0,0,1-.61,2.35l-.47-.17a9.53,9.53,0,0,0,.59-2.3Zm2.41-.62-.46.16a4.7,4.7,0,0,0-.16-.58,24.4,24.4,0,0,1-2.64.69l-.15-.46a14.94,14.94,0,0,0,2-2.47q-.8.17-1.77.3l-.13-.48a10.53,10.53,0,0,0,1.65-2.94l.47.17a10.22,10.22,0,0,1-1.46,2.68,14,14,0,0,0,1.57-.28,5.59,5.59,0,0,0,.4-.76l.46.2A15.13,15.13,0,0,1,35.4,75a12.25,12.25,0,0,0,1.76-.5c-.07-.19-.15-.4-.25-.62l.45-.19A9,9,0,0,1,37.94,75.43ZM36.76,78l-.51.1a7.78,7.78,0,0,0-.32-2l.5-.07A11.76,11.76,0,0,1,36.76,78Zm1.14-.79-.47.15a9.07,9.07,0,0,0-.4-1.42l.46-.14A9,9,0,0,1,37.9,77.19Zm5.23-5.88H40.07a12.23,12.23,0,0,1-1.34,2.25,26.07,26.07,0,0,0,3.13-.33,7.75,7.75,0,0,0-.74-.93l.44-.28A13.55,13.55,0,0,1,43,74.11l-.42.31a5.56,5.56,0,0,0-.46-.75l-.93.15v3.73c0,.15.08.22.23.22h.71a.32.32,0,0,0,.23-.09,1.3,1.3,0,0,0,.15-.61c0-.34.06-.74.07-1.18l.5.18A6.53,6.53,0,0,1,43,77.61a.82.82,0,0,1-.37.54,1.9,1.9,0,0,1-.84.13,1.69,1.69,0,0,1-.81-.14.6.6,0,0,1-.22-.54V73.89c-.55.06-.9.09-1,.09a5.27,5.27,0,0,1-1.86,4.45l-.35-.36a4.31,4.31,0,0,0,1.25-1.57A5.83,5.83,0,0,0,39.18,74a8.83,8.83,0,0,1-1.1.06L38,73.64a8.13,8.13,0,0,0,1.55-2.33H37.83v-.49h1.92c.12-.25.27-.65.47-1.18l.49.15c-.17.46-.31.81-.42,1h2.84Z" fill="#008bfd"/><path d="M53.13,78.21H44.44v-.5h4.11V76.3H45.09v-.49h3.46v-1h.52v1h3.39v.49H49.07v1.41h4.06ZM49.76,72.6H48.33v2.26h-.51V72.6H46.48a3.48,3.48,0,0,1-1.43,2.53l-.42-.36A3.09,3.09,0,0,0,46,72.6H44.5v-.51H46c0-.6,0-1.14,0-1.63H44.8V70h4.83v.49h-1.3v1.63h1.43Zm-1.94-.51V70.46H46.57c0,.4,0,.94-.06,1.63ZM51,73.52h-.51V70.18H51Zm1.73.82a.67.67,0,0,1-.16.47.72.72,0,0,1-.36.23,3,3,0,0,1-.75.06l-.73,0-.22-.55c.34,0,.65,0,.94,0a2.64,2.64,0,0,0,.52,0,.32.32,0,0,0,.18-.15.58.58,0,0,0,.07-.3V69.74h.51Z" fill="#008bfd"/><path d="M63,70.89H55.66v2.88a12.77,12.77,0,0,1-.79,4.71l-.43-.36a12.15,12.15,0,0,0,.72-4.34V70.42H58.9c-.13-.21-.26-.43-.4-.64l.52-.12a3.47,3.47,0,0,1,.45.76H63Zm-5.68,5.38a7.12,7.12,0,0,1-1.18,1.92l-.39-.34a6,6,0,0,0,1.09-1.79Zm.56-5a6.5,6.5,0,0,1-.62,1.35v3.13h-.5V73.3a6.11,6.11,0,0,1-.62.72l-.33-.39a6.88,6.88,0,0,0,1.62-2.57Zm5,4.39H58.49v-2.5c-.16.21-.39.48-.68.8l-.3-.42a8.8,8.8,0,0,0,1.66-2.44l.44.17a5.27,5.27,0,0,1-.35.72h1.5a4.08,4.08,0,0,0-.38-.68l.49-.14a4,4,0,0,1,.44.82H62.9v.46H61.06V73h1.7v.47h-1.7v.62h1.7v.46h-1.7v.62h1.87Zm-1.3,1.52a1.78,1.78,0,0,1-.18.77.69.69,0,0,1-.43.35,8.12,8.12,0,0,1-1.47.08,5.42,5.42,0,0,1-1-.06.58.58,0,0,1-.36-.24A1,1,0,0,1,58,77.5V76.06h.5v1.47c0,.16.05.26.14.29a4.63,4.63,0,0,0,1,.05,7.69,7.69,0,0,0,1.12,0,.41.41,0,0,0,.26-.21,1.58,1.58,0,0,0,.09-.66ZM60.57,73v-.58H59V73Zm0,1.09v-.62H59v.62Zm0,1.08v-.62H59v.62ZM60.48,77l-.44.28a6.87,6.87,0,0,0-.87-1l.44-.29A7.14,7.14,0,0,1,60.48,77Zm2.71.88-.43.26a9.82,9.82,0,0,0-1.21-1.77l.44-.27A10.69,10.69,0,0,1,63.19,77.84Z" fill="#008bfd"/><path d="M72.69,77.71a.59.59,0,0,1-.29.57,3.2,3.2,0,0,1-1.3.16h-.45l-.16-.55.72,0a3,3,0,0,0,.83-.06.19.19,0,0,0,.12-.19V75.25H69.33v2.93h-.54V75.25H65.94a6.67,6.67,0,0,1-1,3.15l-.47-.33a6.27,6.27,0,0,0,1-3.6V69.88h7.24Zm-3.9-5.47V70.42H66v1.82Zm0,2.49V72.79H66v1.94Zm3.37-2.49V70.42H69.33v1.82Zm0,2.49V72.79H69.33v1.94Z" fill="#008bfd"/><path d="M77.85,74.65l-.36.4a7.12,7.12,0,0,0-.86-1.25v4.63h-.52V73.78a13.39,13.39,0,0,1-1.35,2.47l-.35-.41a13.88,13.88,0,0,0,1.67-3.19H74.46v-.51h1.65V70.66l-1.22.23-.27-.5a10.5,10.5,0,0,0,2.89-.68l.31.45c-.49.17-.88.3-1.19.39v1.59h1.19v.51H76.63v.41A8.41,8.41,0,0,1,77.85,74.65Zm5.3,3.54H77.52V77.7h2.57V76.17H77.87v-.5h2.22V74.22c-1.07.07-1.73.11-2,.11l-.24-.51a22.13,22.13,0,0,0,4.76-.53l.34.45a23.69,23.69,0,0,1-2.35.42v1.51h2.15v.5H80.62V77.7h2.53Zm-.64-5.48H78.22V70h4.29Zm-.53-.5V70.48H78.75v1.73Z" fill="#008bfd"/><path d="M93.15,76.28c-.3,1.5-.72,2.25-1.28,2.25a.74.74,0,0,1-.39-.12A2.53,2.53,0,0,1,91,77.8a5.92,5.92,0,0,1-.62-1.21,8.59,8.59,0,0,1-.4-2c-.09-.88-.16-1.76-.2-2.63H84.5v-.53h5.19c0-.75,0-1.32,0-1.73h.52c0,.79,0,1.37,0,1.73h2.91v.53H90.23c0,.7.11,1.63.25,2.8a6,6,0,0,0,.72,2.52c.33.5.56.76.68.76s.32-.24.47-.72A6,6,0,0,0,92.64,76Zm-3.7.39c-1.62.41-3.14.75-4.56,1l-.13-.52,2-.36v-2.9H85v-.55h4.13v.55H87.32v2.77q1.17-.24,2.13-.51Zm3.23-5.77-.44.3a5.67,5.67,0,0,0-1.12-1l.43-.35A5.65,5.65,0,0,1,92.68,70.9Z" fill="#008bfd"/></g><path d="M7.85,44.76a4.5,4.5,0,0,0-3,5.67c.66,2.55,3,4.21,5.27,3.66a4.49,4.49,0,0,0,3-5.66C12.57,45.76,10.16,44.1,7.85,44.76Z" fill="#008bfd"/><path d="M12.78,54.78c-.43,0-.88.77-1.54,1.11s-1.31.89-3.17,0S6,54.22,4.43,54.22s-4,2.78-4,6.88H16a12.15,12.15,0,0,0-1.11-4.21C13.77,54.78,13.23,54.78,12.78,54.78Z" fill="#008bfd"/><path d="M14.19,49.84H10.07a.7.7,0,0,0-.65.65v2.85a.73.73,0,0,0,.76.66h.76v5.15a1,1,0,0,0,1,1.09,1,1,0,0,0,1-1h.21V58.6c0-.22.33-.33.33-.33v-.33c-.33-.11-.54-.32-.54-.43v-.33L13.1,57a3.53,3.53,0,0,0,.33-.55,2.4,2.4,0,0,1-.33-.55c-.1-.11-.1-.33-.21-.44V55.2a2.52,2.52,0,0,1,.76-1.09h.54a.71.71,0,0,0,.65-.66v-3A.62.62,0,0,0,14.19,49.84ZM11.8,59.37c0,.22,0,.33-.21.33s-.22-.22-.22-.33V54.55c0-.22.11-.33.22-.33s.21.22.21.33Zm.33-7.78a.66.66,0,0,1,0-1.32.71.71,0,0,1,.65.66A.63.63,0,0,1,12.13,51.59Z" fill="#008bfd" stroke="gray" stroke-linecap="round" stroke-linejoin="round" stroke-width="0.75"/><path d="M11.57,59.67a.24.24,0,0,1-.22-.22v-5a.22.22,0,0,1,.44,0v5.1C11.79,59.67,11.68,59.67,11.57,59.67Z" fill="#fff"/><ellipse cx="12.14" cy="50.92" rx="0.66" ry="0.67" fill="#fff"/><path d="M191.76,41.68h-20.5a1.1,1.1,0,0,0-1.09,1.11V59.53a1.09,1.09,0,0,0,1.09,1.1h5.28a3.29,3.29,0,0,0,3.21,2.27,3.37,3.37,0,0,0,0-6.74,3.29,3.29,0,0,0-3.21,2.27h-4.19v-12h18.31v12h-3.45a7.61,7.61,0,0,0-7.46-6.57,8.25,8.25,0,0,0-3.64.92l1,2a5.28,5.28,0,0,1,2.55-.68,5.46,5.46,0,0,1,0,10.92,5.28,5.28,0,0,1-2.55-.68l-1,2a7.4,7.4,0,0,0,3.64.92,7.61,7.61,0,0,0,7.46-6.56h4.55a1.09,1.09,0,0,0,1.09-1.1V42.79A1.14,1.14,0,0,0,191.76,41.68Z" fill="#008bfd"/><g style="isolation:isolate"><path d="M159.17,77.92h-.92l-.82-2.15h-3.24l-.77,2.15h-.93l2.91-7.56h.85Zm-2-2.91-1.22-3.26a3.71,3.71,0,0,1-.11-.5h0a3.35,3.35,0,0,1-.12.5L154.48,75Z" fill="#008bfd"/><path d="M161.13,75.05v2.87h-.83V70.36h2a2.75,2.75,0,0,1,1.86.59,2.12,2.12,0,0,1,.67,1.66,2.3,2.3,0,0,1-.79,1.8,2.72,2.72,0,0,1-1.94.64Zm0-3.92v3.15h1a2.08,2.08,0,0,0,1.42-.43,1.48,1.48,0,0,0,.49-1.2c0-1-.6-1.52-1.8-1.52Z" fill="#008bfd"/><path d="M167.14,77.92h-.83V70.36h.83Z" fill="#008bfd"/><path d="M179.92,70.89h-7.38v2.88a12.77,12.77,0,0,1-.79,4.71l-.43-.36a12.15,12.15,0,0,0,.72-4.34V70.42h3.74l-.4-.64.52-.12a3.47,3.47,0,0,1,.45.76h3.57Zm-5.68,5.38a7.12,7.12,0,0,1-1.18,1.92l-.39-.33a6.13,6.13,0,0,0,1.09-1.8Zm.56-5a6.5,6.5,0,0,1-.62,1.35v3.13h-.5V73.3a6.11,6.11,0,0,1-.62.72l-.33-.39a6.88,6.88,0,0,0,1.62-2.57Zm5,4.39h-4.44v-2.5c-.16.21-.39.48-.68.8l-.3-.42a8.8,8.8,0,0,0,1.66-2.44l.44.17a5.27,5.27,0,0,1-.35.72h1.5a4.53,4.53,0,0,0-.38-.68l.49-.14a4,4,0,0,1,.44.82h1.59v.47h-1.84V73h1.7v.47h-1.7v.63h1.7v.45h-1.7v.62h1.87Zm-1.3,1.52a1.78,1.78,0,0,1-.18.77.69.69,0,0,1-.43.35,7.24,7.24,0,0,1-1.47.08,5.42,5.42,0,0,1-1.05-.06.55.55,0,0,1-.36-.24,1,1,0,0,1-.13-.55V76.06h.5v1.47c0,.16.05.26.14.29a4.63,4.63,0,0,0,1,.05,7.69,7.69,0,0,0,1.12,0,.41.41,0,0,0,.26-.21A1.58,1.58,0,0,0,178,77ZM177.45,73v-.57h-1.57V73Zm0,1.1v-.63h-1.58v.63Zm0,1.07v-.62h-1.58v.62Zm-.1,1.79-.44.28a6.87,6.87,0,0,0-.87-1l.44-.29A7.14,7.14,0,0,1,177.36,77Zm2.71.89-.43.25a9.82,9.82,0,0,0-1.21-1.77l.44-.27A10.37,10.37,0,0,1,180.07,77.85Z" fill="#008bfd"/><path d="M189.57,77.71a.59.59,0,0,1-.29.57,3.2,3.2,0,0,1-1.3.16h-.45l-.16-.55.72,0a3.73,3.73,0,0,0,.83,0,.21.21,0,0,0,.12-.2V75.25h-2.83v2.93h-.54V75.25h-2.85a6.67,6.67,0,0,1-1,3.15l-.47-.33a6.27,6.27,0,0,0,1-3.6V69.88h7.24Zm-3.9-5.47V70.42h-2.8v1.82Zm0,2.49V72.79h-2.8v1.94ZM189,72.24V70.42h-2.83v1.82Zm0,2.49V72.79h-2.83v1.94Z" fill="#008bfd"/><path d="M194.73,74.65l-.36.4a7.12,7.12,0,0,0-.86-1.25v4.63H193V73.78a13.39,13.39,0,0,1-1.35,2.47l-.35-.41A13.31,13.31,0,0,0,193,72.65h-1.62v-.51H193V70.66l-1.22.23-.27-.5a10.5,10.5,0,0,0,2.89-.68l.31.45c-.49.17-.88.3-1.19.39v1.59h1.19v.51h-1.19v.41A8.41,8.41,0,0,1,194.73,74.65Zm5.3,3.54H194.4V77.7H197V76.18h-2.22v-.51H197V74.22c-1.07.07-1.73.11-2,.11l-.24-.51a22.13,22.13,0,0,0,4.76-.53l.34.45a23.69,23.69,0,0,1-2.35.42v1.51h2.15v.51H197.5V77.7H200Zm-.64-5.48H195.1V70h4.29Zm-.53-.5V70.48h-3.23v1.73Z" fill="#008bfd"/><path d="M210,76.28c-.3,1.5-.72,2.25-1.28,2.25a.74.74,0,0,1-.39-.12,2.78,2.78,0,0,1-.53-.61,5.92,5.92,0,0,1-.62-1.21,8.59,8.59,0,0,1-.4-2c-.09-.88-.16-1.76-.2-2.63h-5.23v-.53h5.19c0-.75,0-1.32,0-1.73h.52c0,.79,0,1.37,0,1.73H210v.53h-2.89c0,.7.11,1.63.25,2.8a6,6,0,0,0,.72,2.52c.33.5.56.76.68.76s.32-.24.47-.72a6,6,0,0,0,.29-1.28Zm-3.7.39c-1.62.41-3.14.75-4.56,1l-.13-.52,2.05-.36v-2.9h-1.77v-.55h4.13v.55H204.2v2.77c.78-.16,1.49-.33,2.13-.5Zm3.23-5.77-.44.3a6,6,0,0,0-1.12-1l.43-.35A5.65,5.65,0,0,1,209.56,70.9Z" fill="#008bfd"/></g><path d="M161.69,50.43l8.05,4-3.46,1.74-4.5,2.27a9,9,0,0,0,0-8" fill="#505050"/><rect x="36.94" y="8" width="187.09" height="20" fill="none"/><g style="isolation:isolate"><path d="M44.58,6.3H41.7V5.66h2.88Z" fill="#00b0f0"/><path d="M51.2,5.16c-.24.13-.55.27-.94.44V8.72a.7.7,0,0,1-.8.78l-.71,0L48.61,9a4.17,4.17,0,0,0,.52,0,1.61,1.61,0,0,0,.54-.05.19.19,0,0,0,.08-.15v-3c-.41.16-.79.29-1.16.41l-.16-.51a12.88,12.88,0,0,0,1.32-.45V3H48.44V2.53h1.31V.74h.51V2.53h.85V3h-.85V5a8.63,8.63,0,0,0,.79-.36Zm6,3.91-.31.46a15.78,15.78,0,0,1-2.55-1.18,10.65,10.65,0,0,1-2.92,1.21L51,9.15A12.37,12.37,0,0,0,53.86,8,5.3,5.3,0,0,1,52.2,6.21h-.39v-.5H56.4v.5A5.07,5.07,0,0,1,54.81,8,12.17,12.17,0,0,0,57.19,9.07ZM56.87,5.4h-.5v-1H52v1h-.52V3.85h5.4Zm-.33-4.21a20,20,0,0,1-4.82.7l-.23-.49A17.92,17.92,0,0,0,56.25.73ZM52.79,3.34l-.43.23a5.64,5.64,0,0,0-.73-1.2l.46-.23A6.14,6.14,0,0,1,52.79,3.34Zm3,2.87h-3a4.55,4.55,0,0,0,1.56,1.52A4.86,4.86,0,0,0,55.81,6.21ZM54.7,3.36l-.46.19a4.69,4.69,0,0,0-.52-1.23l.47-.21A6,6,0,0,1,54.7,3.36Zm2.08-1.23A6.62,6.62,0,0,1,56,3.59l-.46-.25a7.12,7.12,0,0,0,.81-1.43Z" fill="#00b0f0"/><path d="M61.52,5.07l-.36.41a11.66,11.66,0,0,0-.77-1.06V9.49h-.48V4.43a10.23,10.23,0,0,1-1.15,2.32l-.36-.4a11.33,11.33,0,0,0,1.46-3.18H58.53V2.7h1.38V.76h.48V2.7h.9v.47h-.9v.55A10.6,10.6,0,0,1,61.52,5.07Zm5.62,4H62.51v.43H62V6.17a7.59,7.59,0,0,1-.78.73l-.32-.42a6.45,6.45,0,0,0,1.69-2.05l.49.19c-.12.2-.23.38-.34.54h1.74a2.8,2.8,0,0,0-.27-.39l.46-.22a7.07,7.07,0,0,1,.4.61h1.86v.43H64.83v.68h1.86v.44H64.83V7.4h1.86v.46H64.83V8.6h2.31ZM63.72,2.37h-.5V1.93H61.41V1.48h1.81V.79h.5Zm.2,1.92H61.77V2.66h2.15Zm-.45-.44V3.1H62.23v.75Zm.86,2.42V5.59H62.51v.68Zm0,1.13V6.71H62.51V7.4Zm0,1.2V7.86H62.51V8.6Zm2.44-4.31H64.59V2.66h2.18Zm.35-2.36H65.35v.44h-.51V.79h.51v.69h1.77Zm-.81,1.92V3.1H65.05v.75Z" fill="#00b0f0"/><path d="M71.8,1.73H70.43a11.67,11.67,0,0,1-.68,2.48h1.77V8.35H71V7.91h-1.1v.68h-.52V5a10,10,0,0,1-.58.91l-.39-.4a8.29,8.29,0,0,0,1.53-3.82H68.61V1.24H71.8ZM71,7.41V4.69h-1.1V7.41Zm1.8-.67a10.9,10.9,0,0,1-.59,2.51l-.47-.18a10,10,0,0,0,.58-2.4ZM77,1.49H75v1h1.69V3H75V4h1.7v.49H75V5.63H76.9A22.35,22.35,0,0,1,76.78,8a3.1,3.1,0,0,1-.27,1.12.84.84,0,0,1-.42.33A4.74,4.74,0,0,1,75,9.5L74.8,9a5.11,5.11,0,0,0,1,0,.75.75,0,0,0,.26-.19,3.66,3.66,0,0,0,.21-1.23c.07-.72.09-1.2.09-1.45H72.3V1H77Zm-2.49,1v-1H72.82v1Zm0,1.51V3H72.82V4Zm0,1.63V4.49H72.82V5.63ZM73.84,9l-.5.07c0-.16,0-.32,0-.49a10.44,10.44,0,0,0-.13-1.67l.47-.07A15.83,15.83,0,0,1,73.84,9ZM75,8.33l-.48.18a7.12,7.12,0,0,0-.38-1.62l.46-.12A8.89,8.89,0,0,1,75,8.33Zm.93-.4-.45.18a7.43,7.43,0,0,0-.39-1.34l.42-.14A7.09,7.09,0,0,1,75.92,7.93Z" fill="#00b0f0"/><path d="M80.37,6.3a18.56,18.56,0,0,1-1.53,3.25l-.44-.36A16.1,16.1,0,0,0,79.89,6Zm0-1.52L80,5.17a9.34,9.34,0,0,0-1.57-1.33l.32-.41A10.88,10.88,0,0,1,80.35,4.78Zm.18-2.68-.35.42A10.05,10.05,0,0,0,78.7,1.13l.35-.41A13.57,13.57,0,0,1,80.53,2.1Zm1.53,3.2A8.68,8.68,0,0,1,81.76,8a3.24,3.24,0,0,1-1.27,1.56l-.41-.38a3,3,0,0,0,1-1.08,5.51,5.51,0,0,0,.43-2.75Zm5.11-.41-.44.35a7.33,7.33,0,0,0-.6-.82c-2,.23-3.67.4-5.12.5l-.13-.51a5.46,5.46,0,0,0,2-2.1H80.81V1.78H83.2c.12-.24.28-.59.47-1.07l.54.15c-.06.16-.2.47-.41.92H87v.53H83.53a6.66,6.66,0,0,1-1.67,2c1.28-.08,2.57-.2,3.87-.35a7.23,7.23,0,0,0-.89-.86l.41-.36A12.16,12.16,0,0,1,87.17,4.89ZM83.75,9.51h-.52V5.3h.52Zm3.38-.11H85.8c-.5,0-.75-.24-.75-.71V5.3h.51V8.61q0,.27.3.27h1.27Z" fill="#00b0f0"/><path d="M91.84,5.72l-.36.4a7.12,7.12,0,0,0-.86-1.25V9.5H90.1V4.85a13.52,13.52,0,0,1-1.35,2.48l-.35-.41a14,14,0,0,0,1.67-3.2H88.45V3.21H90.1V1.73L88.88,2l-.27-.49A11,11,0,0,0,91.5.78l.31.46-1.19.38V3.21h1.19v.51H90.62v.41A8.74,8.74,0,0,1,91.84,5.72Zm5.3,3.54H91.51V8.78h2.57V7.25H91.86V6.74h2.22V5.29l-2,.12-.24-.52a22.18,22.18,0,0,0,4.76-.52l.34.45c-.67.15-1.46.29-2.35.42v1.5h2.15v.51H94.61V8.78h2.53ZM96.5,3.79H92.21V1.06H96.5ZM96,3.28V1.55H92.74V3.28Z" fill="#00b0f0"/><path d="M102.62,10.71A6.71,6.71,0,0,1,101,6.11a7,7,0,0,1,1.63-4.68h.74A7.16,7.16,0,0,0,101.7,6.1a7,7,0,0,0,1.65,4.61Z" fill="#00b0f0"/><path d="M106.62,1c-.08.22-.21.56-.4,1l-.3.7V9.55h-.52V3.67a10,10,0,0,1-1.05,1.56l-.28-.48a14.58,14.58,0,0,0,2.09-4Zm6.25,1.38h-3V3.51h2.46V6.09h-2.51A4.48,4.48,0,0,1,109.36,8a9.38,9.38,0,0,0,3.5,1l-.2.51a9.15,9.15,0,0,1-3.6-1.11,3.83,3.83,0,0,1-2.51,1.14l-.21-.48a3.76,3.76,0,0,0,2.28-.95,6,6,0,0,1-1.43-1.43l.44-.24a5.88,5.88,0,0,0,1.28,1.26,3.68,3.68,0,0,0,.44-1.64h-2.48V3.51h2.51V2.33h-2.82V1.84h2.82v-1h.54v1h3ZM109.36,4h-1.94V5.59h1.93C109.37,5,109.37,4.48,109.36,4Zm2.49,1.59V4h-1.92q0,.78,0,1.59Z" fill="#00b0f0"/><path d="M122.39,8.79a.59.59,0,0,1-.29.56,3.26,3.26,0,0,1-1.31.16h-.44L120.19,9l.72,0a3,3,0,0,0,.83-.06.21.21,0,0,0,.12-.19V6.32H119V9.25h-.54V6.32h-2.86a6.67,6.67,0,0,1-1,3.15l-.47-.32a6.26,6.26,0,0,0,1-3.61V1h7.24Zm-3.9-5.47V1.5h-2.8V3.32Zm0,2.49V3.86h-2.8V5.81Zm3.37-2.49V1.5H119V3.32Zm0,2.49V3.86H119V5.81Z" fill="#00b0f0"/><path d="M127.8,6.12V9H127V1.43h2a2.7,2.7,0,0,1,1.85.59,2.1,2.1,0,0,1,.67,1.66,2.29,2.29,0,0,1-.78,1.8,2.67,2.67,0,0,1-1.94.64Zm0-3.92V5.35h1a2.08,2.08,0,0,0,1.42-.43,1.48,1.48,0,0,0,.49-1.2c0-1-.6-1.52-1.8-1.52Z" fill="#00b0f0"/><path d="M138.17,9H137l-3-3.47-.2-.26h0V9H133V1.43h.83V5h0a3.11,3.11,0,0,1,.2-.25l2.88-3.31h1l-3.28,3.63Z" fill="#00b0f0"/><path d="M143.85,8.67a4.37,4.37,0,0,1-2.09.45,3.33,3.33,0,0,1-2.56-1,3.82,3.82,0,0,1-1-2.71,4.11,4.11,0,0,1,1.07-2.9,3.61,3.61,0,0,1,2.78-1.16,4.36,4.36,0,0,1,1.78.32v.9a3.67,3.67,0,0,0-1.8-.45,2.74,2.74,0,0,0-2.15.9,3.39,3.39,0,0,0-.8,2.34,3.23,3.23,0,0,0,.75,2.21,2.54,2.54,0,0,0,2,.85,3.74,3.74,0,0,0,2-.51Z" fill="#00b0f0"/><path d="M149.38,9h-4V1.43h3.8v.76h-3V4.77H149v.76h-2.75v2.7h3.15Z" fill="#00b0f0"/><path d="M150,10.71a7,7,0,0,0,1.64-4.61A7.07,7.07,0,0,0,150,1.43h.75a7,7,0,0,1,1.64,4.68,6.73,6.73,0,0,1-1.64,4.6Z" fill="#00b0f0"/><path d="M44.58,18.3H41.7v-.64h2.88Z" fill="#00b0f0"/><path d="M53.13,13.83h-2v.64h1.63v1.66H51.14v.21a10,10,0,0,1,1.47.74l-.22.45a12.62,12.62,0,0,0-1.25-.69v1h-.49V16.64a8.83,8.83,0,0,1-1.88,1.26l-.34-.42a7.33,7.33,0,0,0,2.06-1.35H48.93V14.47h1.72v-.64H48.51v-.49h2.14v-.53h.49v.53h2Zm4,7.53h-8.7v-.48H50.2V19.31h.5v1.57h1.9V18.77H48.69V18.3H57v.47H53.13v.78h3.45V20H53.13v.89h4Zm-6.5-5.72v-.71h-1.2v.71Zm1.62,0v-.71H51.14v.71Zm4.93,1.78-.27.46A4.77,4.77,0,0,1,55.16,17a9.11,9.11,0,0,1-1.92.91l-.36-.43a6.89,6.89,0,0,0,1.93-.85,4.15,4.15,0,0,1-.69-1.16l.45-.22a3.3,3.3,0,0,0,.64,1,3.08,3.08,0,0,0,.88-1.92H54.48a5.82,5.82,0,0,1-1.14,1.36L53,15.39a5.55,5.55,0,0,0,1.71-2.63l.45.19a4.78,4.78,0,0,1-.39,1h2.36v.47h-.53a3.6,3.6,0,0,1-1,2.27A4.23,4.23,0,0,0,57.2,17.42Z" fill="#00b0f0"/><path d="M67.19,15.64l-.34.44a11.94,11.94,0,0,1-4.07-2.66,14.75,14.75,0,0,1-4.05,2.67l-.33-.45a12.15,12.15,0,0,0,4.37-3l.51.2a.86.86,0,0,1-.15.22A11.72,11.72,0,0,0,67.19,15.64Zm-1.26,5.89H65.4v-.67H60.17v.67h-.54v-4h6.3Zm-.53-1.19V18.09H60.17v2.25Zm0-4.17H60.2v-.54h5.18Z" fill="#00b0f0"/><path d="M77.14,19.35c-.3,1.51-.72,2.26-1.28,2.26a.75.75,0,0,1-.39-.13,2.33,2.33,0,0,1-.53-.61,5.46,5.46,0,0,1-.62-1.21,8.51,8.51,0,0,1-.41-2c-.09-.88-.15-1.76-.19-2.63H68.49v-.53h5.19c0-.75,0-1.32,0-1.73h.52c0,.79,0,1.37,0,1.73h2.91V15H74.22c0,.7.11,1.63.25,2.8a6.21,6.21,0,0,0,.71,2.52c.34.51.57.76.68.76s.33-.24.48-.72a6.64,6.64,0,0,0,.29-1.27Zm-3.7.4c-1.62.41-3.14.74-4.56,1l-.13-.53c.54-.08,1.22-.21,2-.36V17H69v-.54h4.13V17H71.31v2.78q1.17-.25,2.13-.51ZM76.67,14l-.44.31a6,6,0,0,0-1.12-1.06l.43-.34A5.56,5.56,0,0,1,76.67,14Z" fill="#00b0f0"/><path d="M90.16,13.43,88,21H87l-1.58-5.58a3.17,3.17,0,0,1-.12-.76h0a3.68,3.68,0,0,1-.14.75L83.59,21h-1L80.4,13.43h.92L83,19.28a4.17,4.17,0,0,1,.13.76h0a4.17,4.17,0,0,1,.17-.76L85,13.43h.78l1.63,5.9a4.21,4.21,0,0,1,.13.7h0a2.89,2.89,0,0,1,.15-.72l1.57-5.88Z" fill="#00b0f0"/><path d="M91.07,13.65a.57.57,0,0,1,.16-.39.51.51,0,0,1,.37-.16.54.54,0,0,1,.39.17.49.49,0,0,1,.16.38A.51.51,0,0,1,92,14a.57.57,0,0,1-.39.16.49.49,0,0,1-.38-.16A.52.52,0,0,1,91.07,13.65ZM91.19,21V15.59H92V21Z" fill="#00b0f0"/><path d="M98.21,21H97.4V17.91c0-1.17-.43-1.75-1.28-1.75a1.4,1.4,0,0,0-1.1.5,1.84,1.84,0,0,0-.43,1.25V21h-.82V15.59h.82v.91h0a2,2,0,0,1,1.78-1,1.64,1.64,0,0,1,1.35.57,2.5,2.5,0,0,1,.47,1.65Z" fill="#00b0f0"/><path d="M104.42,21h-.81v-.93h0a2.18,2.18,0,0,1-3.49.32,2.94,2.94,0,0,1-.61-2,3.25,3.25,0,0,1,.68-2.14,2.22,2.22,0,0,1,1.79-.81,1.74,1.74,0,0,1,1.63.88h0V13h.81Zm-.81-3.26a1.55,1.55,0,0,0-.45-1.12,1.47,1.47,0,0,0-1.1-.46,1.52,1.52,0,0,0-1.28.6,2.64,2.64,0,0,0-.46,1.62,2.36,2.36,0,0,0,.44,1.49,1.45,1.45,0,0,0,1.19.56,1.53,1.53,0,0,0,1.19-.53,1.89,1.89,0,0,0,.47-1.34Z" fill="#00b0f0"/><path d="M105.83,18.36a3,3,0,0,1,.73-2.12,2.65,2.65,0,0,1,2-.77,2.41,2.41,0,0,1,1.87.74,3,3,0,0,1,.68,2.07,2.93,2.93,0,0,1-.73,2.06,2.55,2.55,0,0,1-1.94.78,2.5,2.5,0,0,1-1.89-.75A2.78,2.78,0,0,1,105.83,18.36Zm.83,0a2.25,2.25,0,0,0,.5,1.53,1.69,1.69,0,0,0,1.34.57,1.62,1.62,0,0,0,1.31-.56,2.36,2.36,0,0,0,.47-1.56,2.47,2.47,0,0,0-.46-1.59,1.63,1.63,0,0,0-1.32-.56,1.66,1.66,0,0,0-1.34.58A2.38,2.38,0,0,0,106.66,18.33Z" fill="#00b0f0"/><path d="M119.24,15.59,117.62,21h-.84l-1.14-3.92a2.29,2.29,0,0,1-.08-.48h0a1.92,1.92,0,0,1-.11.47L114.2,21h-.81l-1.64-5.41h.86l1.14,4.1a2,2,0,0,1,.07.48h0a3.56,3.56,0,0,1,.1-.49l1.26-4.09H116l1.13,4.11a2.94,2.94,0,0,1,.08.48h0a2,2,0,0,1,.08-.48l1.13-4.11Z" fill="#00b0f0"/><path d="M119.92,19.9a2.54,2.54,0,0,0,1.55.52c.77,0,1.15-.26,1.15-.78a.68.68,0,0,0-.25-.55,3.64,3.64,0,0,0-1-.5,2.91,2.91,0,0,1-1.17-.7,1.32,1.32,0,0,1-.28-.87,1.3,1.3,0,0,1,.59-1.12,2.4,2.4,0,0,1,1.46-.43,3.08,3.08,0,0,1,1.24.24v.85a2.47,2.47,0,0,0-1.37-.39,1.26,1.26,0,0,0-.78.22.66.66,0,0,0-.3.56.7.7,0,0,0,.2.54,4,4,0,0,0,.94.48,3.35,3.35,0,0,1,1.24.71,1.3,1.3,0,0,1,.31.88,1.31,1.31,0,0,1-.59,1.14,2.57,2.57,0,0,1-1.52.42,3,3,0,0,1-1.43-.32Z" fill="#00b0f0"/><path d="M127.82,18.42a14.07,14.07,0,0,1-.27,2.42l-.47-.1a12.8,12.8,0,0,0,.31-2.37Zm2.89-4.92h-1.13v1h.94v.47h-.94v.93h.94v.5h-.94v1h.94c0,.55,0,1,0,1.35,0,.71,0,1.27-.06,1.7a1.87,1.87,0,0,1-.22.83.67.67,0,0,1-.37.24,3.86,3.86,0,0,1-.83.06l-.15-.52h.6a.45.45,0,0,0,.44-.27,8.09,8.09,0,0,0,.12-2c0-.36,0-.68,0-1h-2.46V13h3.12Zm-2.2,7.22-.41.06c0-.32,0-.62,0-.92,0-.52,0-1-.06-1.39l.38-.06q.09,1.39.09,1.77C128.53,20.37,128.52,20.55,128.51,20.72Zm.56-6.26v-1h-1v1Zm0,1.41V15h-1v.92Zm0,1.49v-1h-1v1Zm.21,3-.4.06a10.58,10.58,0,0,0-.21-1.95l.37-.09A14.9,14.9,0,0,1,129.28,20.32Zm.62-.54-.34.09a13.16,13.16,0,0,0-.3-1.57l.32-.07A11,11,0,0,1,129.9,19.78Zm5.95-4.61-.26.42a6.93,6.93,0,0,1-2.42-2.11,9.29,9.29,0,0,1-2.27,2.08l-.31-.42a7.41,7.41,0,0,0,2.46-2.43l.51.17-.09.18A7,7,0,0,0,135.85,15.17Zm-2.78,5.41-.36.37a5.29,5.29,0,0,0-.74-.85,7,7,0,0,1-.94,1.41l-.41-.28a6.87,6.87,0,0,0,1.32-2.45l.47.16c-.1.29-.18.52-.25.68A7.6,7.6,0,0,1,133.07,20.58Zm-.13-2H131V16.17h1.91Zm-.48-.46V16.63h-1v1.45Zm2-2.62h-2.67V15h2.67Zm1.36,5.7-.37.34a7.45,7.45,0,0,0-1.22-1.27,7.51,7.51,0,0,1-.91,1.34l-.41-.32a6.61,6.61,0,0,0,1.39-2.51l.49.18c-.1.27-.21.56-.35.85A9.38,9.38,0,0,1,135.84,21.16Zm-.45-2.62h-1.93V16.17h1.93Zm-.47-.46V16.63h-1v1.45Z" fill="#00b0f0"/><path d="M140.13,14.26h-3v-.48h1.42a6,6,0,0,0-.37-.91l.43-.18a8.8,8.8,0,0,1,.42,1.09h1.12Zm-.24,1.4h-2.53v-.47h2.53Zm0,1.55h-2.53v-.5h2.53Zm0,4.06h-.51v-.58h-1.42v.8h-.51V18.15h2.44Zm-.51-1.08V18.67h-1.42v1.52Zm3.43-6.72a5.16,5.16,0,0,1-.55,1.23,7.3,7.3,0,0,1-1.72,2.11l-.38-.34a8,8,0,0,0,1.24-1.29,6.49,6.49,0,0,0-.88-.74l.33-.32a9,9,0,0,1,.83.65,6.36,6.36,0,0,0,.63-1.3h-1.79V13h2.29Zm2.93,7.8h-5.47V20.8h1.61a12.13,12.13,0,0,0-.48-1.45l.36-.31h-.81V17h4V19h-.7l.37.31A12.3,12.3,0,0,1,144,20.8h1.68Zm-1.33-2.72V17.44h-2.94v1.11Zm-.23-2.33h-2.44v-.45h2.44ZM144.07,19h-2.31a14.17,14.17,0,0,1,.6,1.76h1.13A9.47,9.47,0,0,0,144.07,19Zm1.75-2.66-.33.41A6.6,6.6,0,0,1,143.06,13l.43-.28c.12.41.22.72.29.94a5.53,5.53,0,0,0,.84-.79l.33.32a7.65,7.65,0,0,1-1,.91,5.5,5.5,0,0,0,.34.63,4.83,4.83,0,0,0,.91-.91l.35.27a5.75,5.75,0,0,1-1,1A7.06,7.06,0,0,0,145.82,16.38Z" fill="#00b0f0"/><path d="M44.58,30.3H41.7v-.64h2.88Z" fill="#00b0f0"/><path d="M50.91,25c-.07.22-.21.56-.4,1l-.3.7v6.87H49.7V27.67a11.57,11.57,0,0,1-1.05,1.56l-.29-.48a14.31,14.31,0,0,0,2.09-4Zm6.25,1.38H54.21v1.18h2.46v2.58H54.16a4.48,4.48,0,0,1-.5,1.92,9.32,9.32,0,0,0,3.49,1l-.2.51a9.26,9.26,0,0,1-3.6-1.11,3.83,3.83,0,0,1-2.51,1.14l-.21-.48a3.76,3.76,0,0,0,2.28-1,6,6,0,0,1-1.43-1.43l.44-.24a6.12,6.12,0,0,0,1.28,1.26,3.68,3.68,0,0,0,.44-1.64H51.17V27.51h2.51V26.33H50.85v-.49h2.83v-1h.53v1h2.95ZM53.66,28H51.71v1.59h1.93C53.66,29,53.67,28.48,53.66,28Zm2.49,1.59V28H54.22q0,.78,0,1.59Z" fill="#00b0f0"/><path d="M66.68,32.79a.59.59,0,0,1-.29.56,3.26,3.26,0,0,1-1.31.16h-.44L64.48,33l.72,0a3,3,0,0,0,.83-.06.21.21,0,0,0,.12-.19V30.32H63.32v2.93h-.54V30.32H59.93a6.78,6.78,0,0,1-1,3.15l-.47-.32a6.33,6.33,0,0,0,1-3.61V25h7.24Zm-3.9-5.47V25.5H60v1.82Zm0,2.49V27.86H60v1.95Zm3.37-2.49V25.5H63.32v1.82Zm0,2.49V27.86H63.32v1.95Z" fill="#00b0f0"/><path d="M77.13,28.21H73.81a15,15,0,0,1-1.71,1.17H76v4.11h-.52V33H71v.51h-.52V30.17a15.19,15.19,0,0,1-1.73.63l-.29-.47A14.89,14.89,0,0,0,73,28.21H68.47v-.5H72.2V26.28H69.4v-.51h2.8V24.71h.53v1.06h2v.51h-2v1.43h.9a20.87,20.87,0,0,0,2.48-2.55l.39.32a21.36,21.36,0,0,1-2.09,2.23h2.72Zm-1.67,2.72V29.88H71.13l-.15.05v1Zm0,1.53v-1H71v1Z" fill="#00b0f0"/><path d="M82,25.43l-3.63,8.82h-.76l3.61-8.82Z" fill="#00b0f0"/><path d="M89.41,27.07a11.48,11.48,0,0,1-3.56,2.72A.18.18,0,0,0,86,30a5.54,5.54,0,0,0,1.17.06,6.13,6.13,0,0,0,1.36-.09c.2-.06.32-.44.37-1.14l.48.25a2.12,2.12,0,0,1-.22,1,.76.76,0,0,1-.45.42,4.45,4.45,0,0,1-1.11.08,14.93,14.93,0,0,1-1.76-.05.66.66,0,0,1-.47-.41c-.86.38-1.69.72-2.49,1l-.24-.42a24.26,24.26,0,0,0,2.68-1.1V26.7h.52v2.56A9.94,9.94,0,0,0,89,26.75ZM85,27.45a11.75,11.75,0,0,1-2,2L82.63,29a11,11,0,0,0,1.91-1.87Zm6,.08h-.51V26H83.53v1.5H83v-2h3.75a3.28,3.28,0,0,0-.3-.69l.47-.16a5.57,5.57,0,0,1,.36.85h3.62Zm-.66,6h-.52v-.26H83.63V31.2h.52v1.58h2.47v-2h.52v2h2.6V31.2h.52Zm-2.55-5.94-.41.26a8,8,0,0,0-1-1.22l.44-.27A6.55,6.55,0,0,1,87.71,27.57Zm3.56,2-.38.34a12.49,12.49,0,0,0-1.59-1.84l.38-.31A12.61,12.61,0,0,1,91.27,29.59Z" fill="#00b0f0"/><path d="M96,25.73H94.6a11.67,11.67,0,0,1-.68,2.48h1.77v4.14h-.54v-.44h-1.1v.68h-.52V29A10,10,0,0,1,93,30l-.39-.4a8.29,8.29,0,0,0,1.53-3.82H92.78v-.49H96Zm-.82,5.68V28.69h-1.1v2.72Zm1.8-.67a10.9,10.9,0,0,1-.59,2.51l-.47-.18a10,10,0,0,0,.58-2.4Zm4.18-5.25h-2v1h1.69V27H99.14v1h1.7v.49h-1.7v1.14h1.93A22.35,22.35,0,0,1,101,32a3.1,3.1,0,0,1-.27,1.12.84.84,0,0,1-.42.33,4.74,4.74,0,0,1-1.12.09L99,33a5.16,5.16,0,0,0,1,0,.75.75,0,0,0,.26-.19,3.66,3.66,0,0,0,.21-1.23c.07-.72.09-1.2.09-1.45H96.47V25h4.66Zm-2.49,1v-1H97v1Zm0,1.51V27H97v1Zm0,1.63V28.49H97v1.14ZM98,33l-.5.07c0-.16,0-.32,0-.49a10.44,10.44,0,0,0-.13-1.67l.47-.07A15.83,15.83,0,0,1,98,33Zm1.15-.62-.48.18a7.12,7.12,0,0,0-.38-1.62l.46-.12A8.89,8.89,0,0,1,99.16,32.33Zm.93-.4-.45.18a7.43,7.43,0,0,0-.39-1.34l.42-.14A7.09,7.09,0,0,1,100.09,31.93Z" fill="#00b0f0"/></g><line x1="75.52" y1="54.53" x2="162.7" y2="54.53" fill="none" stroke="#505050" stroke-miterlimit="10"/></svg>