<svg xmlns="http://www.w3.org/2000/svg" viewBox="0 0 204.71 66.15"><title>OJ104546516</title><line x1="62.13" y1="20.99" x2="163.68" y2="20.99" fill="none" stroke="#505050" stroke-miterlimit="10"/><path d="M69.66,9.34H63.58c-.23,0-.38.15-.38.46V12a.35.35,0,0,0,.38.37H67v3.39c0,.23.15.38.45.38h2.18a.35.35,0,0,0,.37-.38v-6A.35.35,0,0,0,69.66,9.34Zm-17.19,21H49V27c0-.22-.15-.37-.45-.37H46.4A.35.35,0,0,0,46,27v6a.36.36,0,0,0,.38.39h6.07c.23,0,.38-.15.38-.46V30.72A.36.36,0,0,0,52.47,30.34Zm13.58-3.69a.9.9,0,0,0-.45.08l-2.32-4.07a2.77,2.77,0,0,0-1.88-4.81,3,3,0,0,0-1.12.22L57.8,14.61a2,2,0,0,0,.53-1.5A2.33,2.33,0,1,0,56,15.44a2.38,2.38,0,0,0,.75-.15l2.48,3.54a2.82,2.82,0,0,0-.68,1.43l-7.2.6a1.78,1.78,0,0,0-1.65-1,1.88,1.88,0,0,0,0,3.76,1.92,1.92,0,0,0,1.87-1.58l7.06-.6a3.74,3.74,0,0,0,.67,1.2L57.5,25.6h-.22a1.88,1.88,0,1,0,1.87,1.88,2.13,2.13,0,0,0-.52-1.35l1.72-2.86a4,4,0,0,0,1,.15,3.38,3.38,0,0,0,.82-.15l2.33,4.06a2.34,2.34,0,0,0-.68,1.58,2.18,2.18,0,1,0,2.25-2.26Z" fill="#007efd"/><g style="isolation:isolate"><path d="M35.52,45.5a12.54,12.54,0,0,1-1.44,2.11l-.41-.31a10,10,0,0,0,1.4-2Zm6.86-.61H33.69v-.5h1.49V42.68H33.89v-.51h1.29V41h.51v1.22H37V41h.52v1.22h1.3V41h.49v1.22h1.34V41h.48v1.22h1.08v.51H41.1v1.71h1.28ZM42,40.53H35.2a6.46,6.46,0,0,1-1,.89l-.4-.36A9.81,9.81,0,0,0,36,38.86l.52.2c-.24.32-.51.66-.8,1H42ZM37,44.39V42.68H35.69v1.71Zm.4,3.13-.5.09a9.73,9.73,0,0,0-.32-2.18l.51-.11A10.06,10.06,0,0,1,37.37,47.52Zm1.42-3.13V42.68h-1.3v1.71Zm1.09,3.06-.48.18a12.23,12.23,0,0,0-.79-2.15l.48-.18A11,11,0,0,1,39.88,47.45Zm.74-3.06V42.68H39.28v1.71Zm1.75,3-.45.23a12.17,12.17,0,0,0-1.23-2.1l.47-.24A12.14,12.14,0,0,1,42.37,47.39Z" fill="#007efd"/><path d="M45.24,44.4A18.82,18.82,0,0,1,44,47.61l-.44-.28a19.44,19.44,0,0,0,1.21-3.16Zm.18-1.77-.36.39a11.69,11.69,0,0,0-1.37-1.26l.33-.4A16.43,16.43,0,0,1,45.42,42.63Zm.06-2.52-.38.36a8.59,8.59,0,0,0-1.29-1.23l.36-.37A9.37,9.37,0,0,1,45.48,40.11Zm4.38,3.17-.26.44a8.67,8.67,0,0,0-2-1,6,6,0,0,1-.82.73h2.15v.49h-.87v.74h1.56v.47H48.06v1.64c.4,0,1-.16,1.75-.32l0,.46c-1.47.3-2.84.53-4.11.68l-.1-.44c.86-.11,1.51-.2,1.94-.27V45.15H45.94v-.47h1.62v-.74h-1v-.32l-.89.57-.32-.39A7.18,7.18,0,0,0,47.59,42l.51.18-.15.18A14.73,14.73,0,0,1,49.86,43.28Zm-2.21-1.85-.43.18a.43.43,0,0,0-.06-.17c-.34.21-.75.44-1.23.68l-.22-.43a.44.44,0,0,0,.13-.28V39.5a10.23,10.23,0,0,0,1.34-.59l.32.34a7.09,7.09,0,0,1-1.19.56v1.61A6.73,6.73,0,0,0,47,41a1.88,1.88,0,0,0-.2-.46l.39-.21A4.57,4.57,0,0,1,47.65,41.43Zm-.53,5-.39.25a5.89,5.89,0,0,0-.56-.9l.36-.27A6.26,6.26,0,0,1,47.12,46.42Zm2.53-7.3a8.63,8.63,0,0,1-.15,2.54.86.86,0,0,1-.78.31l-.14-.49h.17a.49.49,0,0,0,.27-.06.25.25,0,0,0,.1-.16c0-.07,0-.3.05-.68s0-.72,0-1h-.53a7.43,7.43,0,0,1-.5,2.33l-.43-.2a6.63,6.63,0,0,0,.46-2.13h-.48v-.45Zm-.24,6.52a4.42,4.42,0,0,1-.51.81l-.4-.2a5.47,5.47,0,0,0,.49-.8Zm1.35.16h-.5V39.56h.5Zm1.35,1.14c0,.46-.27.68-.8.68h-.75l-.16-.51h.48a2,2,0,0,0,.62,0c.08,0,.12-.12.12-.28V38.9h.49Z" fill="#007efd"/><path d="M62.21,46.05A3.18,3.18,0,0,1,62,47.21a.74.74,0,0,1-.35.29,6.68,6.68,0,0,1-1.38.07,6,6,0,0,1-1.07,0,.61.61,0,0,1-.38-.23.69.69,0,0,1-.17-.48V46.1H57.37a2,2,0,0,1-.47.81,2.16,2.16,0,0,1-1.13.51,9.74,9.74,0,0,1-1.91.2l-.18-.44a8.71,8.71,0,0,0,2.21-.26,1.29,1.29,0,0,0,1-.82H55.35V43h5.34v3.1H59.1v.73a.22.22,0,0,0,.18.22,5.18,5.18,0,0,0,1.07.06,6.11,6.11,0,0,0,1,0,.44.44,0,0,0,.27-.28,3.21,3.21,0,0,0,.13-.89Zm-4.27-6.52H56.43v.56h1.16v1.36H56.43v.63h1.43v.41H54.15V39.12h3.79Zm-2,.56v-.56H54.65v.56Zm1.18,1v-.57H54.65v.57Zm-1.18,1v-.63H54.65v.63Zm4.23,1.82v-.49H55.85v.49Zm0,.89v-.5H55.85v.5Zm0,.9v-.5H55.85v.5Zm1.94-5.85H58.93a6.53,6.53,0,0,1-.71.89l-.42-.25A5.7,5.7,0,0,0,59,38.85l.42.16-.21.42h3Zm-.22,2.67H58.28V41.08h3.64Zm-2.54-.37v-.68h-.65v.68Zm2.33-1.48H59v-.39h2.69Zm-1.26,1.48v-.68h-.66v.68Zm1,0v-.68h-.61v.68Z" fill="#007efd"/><path d="M72.43,44.68l-.28.48-.61-.24v2.71h-.49v-.55h-2v.55h-.51V44.57h2.22A7.83,7.83,0,0,1,68.6,43H67.43a6.7,6.7,0,0,1-2,1.55h2.07v3.06h-.53v-.55H65v.55h-.54V45a4.22,4.22,0,0,1-.6.2l-.23-.47A7.42,7.42,0,0,0,66.76,43H63.7v-.47h3.49a6.2,6.2,0,0,0,.59-.92l.47.14a2.74,2.74,0,0,1-.44.78h4.48V43H69.35A7.41,7.41,0,0,0,72.43,44.68Zm-5.08-3.19h-2.9V39.12h2.9Zm-.5-.48V39.6H65V41Zm.09,5.56V45.05H65v1.52Zm4.62-5.08h-3V39.12h3Zm-.51,5.08V45.05h-2v1.52Zm0-5.56V39.6h-1.9V41ZM71,42.07l-.3.39a4,4,0,0,0-.84-.39l.25-.41A3.74,3.74,0,0,1,71,42.07Z" fill="#007efd"/><path d="M82.25,40.09H74.87V43a12.84,12.84,0,0,1-.79,4.71l-.43-.36A12,12,0,0,0,74.38,43V39.62h3.74c-.13-.22-.27-.43-.4-.64l.51-.12a3.25,3.25,0,0,1,.45.76h3.57Zm-5.68,5.38a7.36,7.36,0,0,1-1.17,1.92L75,47.05a6.07,6.07,0,0,0,1.09-1.79Zm.57-5a7.3,7.3,0,0,1-.62,1.34v3.13H76V42.5a7.25,7.25,0,0,1-.62.72l-.34-.4a7,7,0,0,0,1.63-2.56Zm5,4.39H77.71v-2.5l-.69.8-.29-.42a9.18,9.18,0,0,0,1.66-2.44l.43.17a4.23,4.23,0,0,1-.35.71H80a5.1,5.1,0,0,0-.38-.67l.48-.15a3.83,3.83,0,0,1,.44.82h1.6v.47H80.27v.57H82v.47h-1.7v.63H82v.46h-1.7v.62h1.88Zm-1.3,1.52a2.23,2.23,0,0,1-.18.77.69.69,0,0,1-.44.34,6.82,6.82,0,0,1-1.47.09,5.56,5.56,0,0,1-1.05-.06.58.58,0,0,1-.36-.25,1,1,0,0,1-.13-.54V45.26h.51v1.47c0,.16,0,.25.14.29a5.48,5.48,0,0,0,1,0A7,7,0,0,0,80,47a.41.41,0,0,0,.26-.21,1.58,1.58,0,0,0,.09-.66Zm-1.06-4.16v-.57H78.21v.57Zm0,1.1v-.63H78.21v.63Zm0,1.08v-.62H78.21v.62Zm-.11,1.78-.44.29a5.56,5.56,0,0,0-.86-1l.43-.3A6.47,6.47,0,0,1,79.69,46.15ZM82.4,47,82,47.3a9.11,9.11,0,0,0-1.21-1.78l.44-.26A9.27,9.27,0,0,1,82.4,47Z" fill="#007efd"/><path d="M51.91,58.91a.58.58,0,0,1-.29.56,3.26,3.26,0,0,1-1.31.16h-.45l-.16-.54.73,0a3,3,0,0,0,.83-.06.2.2,0,0,0,.11-.19V56.45H48.55v2.93H48V56.45H45.15a6.67,6.67,0,0,1-1,3.15l-.47-.33a6.25,6.25,0,0,0,1-3.61V51.07h7.25ZM48,53.44V51.62H45.21v1.82Zm0,2.49V54H45.21v2Zm3.37-2.49V51.62H48.55v1.82Zm0,2.49V54H48.55v2Z" fill="#007efd"/><path d="M57.07,55.85l-.36.4A7.29,7.29,0,0,0,55.85,55v4.62h-.53V55A14.45,14.45,0,0,1,54,57.45L53.62,57a13.22,13.22,0,0,0,1.67-3.2H53.67v-.5h1.65V51.86l-1.22.23-.27-.5a11,11,0,0,0,2.9-.69l.3.46-1.18.38v1.6H57v.5H55.85v.41A9.22,9.22,0,0,1,57.07,55.85Zm5.29,3.54H56.73V58.9H59.3V57.37H57.09v-.5H59.3V55.42l-2,.11L57.09,55a22.86,22.86,0,0,0,4.76-.53l.33.45q-1,.23-2.34.42v1.51H62v.5H59.84V58.9h2.52Zm-.63-5.48h-4.3V51.18h4.3Zm-.54-.51V51.68H58V53.4Z" fill="#007efd"/><path d="M72.36,57.48c-.29,1.5-.72,2.25-1.27,2.25a.67.67,0,0,1-.39-.13,2.32,2.32,0,0,1-.54-.61,5.46,5.46,0,0,1-.61-1.21,8.51,8.51,0,0,1-.41-2C69.05,54.86,69,54,69,53.12H63.72v-.54H68.9c0-.74,0-1.32,0-1.72h.53c0,.79,0,1.36,0,1.72h2.91v.54h-2.9c0,.69.11,1.62.25,2.79a6,6,0,0,0,.72,2.52c.34.51.56.76.68.76s.32-.24.48-.72a6.64,6.64,0,0,0,.29-1.27Zm-3.7.39c-1.61.41-3.13.74-4.56,1L64,58.35c.54-.09,1.22-.21,2.05-.37v-2.9H64.25v-.54h4.14v.54H66.53v2.78q1.18-.26,2.13-.51ZM71.9,52.1l-.44.3a6.07,6.07,0,0,0-1.13-1.06l.43-.34A5.17,5.17,0,0,1,71.9,52.1Z" fill="#007efd"/></g><path d="M7.85,13.61a4.49,4.49,0,0,0-3,5.66c.66,2.56,3,4.22,5.27,3.67a4.5,4.5,0,0,0,3-5.67C12.57,14.61,10.16,12.94,7.85,13.61Z" fill="#008bfd"/><path d="M12.79,23.63c-.44,0-.88.78-1.54,1.11s-1.32.89-3.18,0S6,23.08,4.44,23.08.38,25.85.38,30H16a12.14,12.14,0,0,0-1.1-4.22C13.77,23.63,13.23,23.63,12.79,23.63Z" fill="#008bfd"/><path d="M14.19,18.69H10.07a.71.71,0,0,0-.65.66V22.2a.73.73,0,0,0,.76.66h.76V28a1,1,0,0,0,1,1.1,1,1,0,0,0,1-1h.21v-.65c0-.22.33-.33.33-.33V26.8c-.33-.11-.54-.33-.54-.44V26l.21-.22a3.55,3.55,0,0,0,.33-.54,2.4,2.4,0,0,1-.33-.55c-.1-.11-.1-.33-.21-.44v-.22a2.51,2.51,0,0,1,.76-1.1h.54a.7.7,0,0,0,.65-.65v-3A.63.63,0,0,0,14.19,18.69ZM11.8,28.22c0,.22,0,.33-.21.33s-.22-.22-.22-.33V23.4c0-.22.11-.33.22-.33s.21.22.21.33Zm.33-7.78a.69.69,0,0,1-.65-.65.7.7,0,0,1,.65-.66.71.71,0,0,1,.65.66A.62.62,0,0,1,12.13,20.44Z" fill="#008bfd" stroke="gray" stroke-linecap="round" stroke-linejoin="round" stroke-width="0.75"/><path d="M11.57,28.53a.24.24,0,0,1-.22-.22v-5a.22.22,0,1,1,.44,0v5.11C11.79,28.53,11.68,28.53,11.57,28.53Z" fill="#fff"/><ellipse cx="12.14" cy="19.77" rx="0.66" ry="0.67" fill="#fff"/><path d="M191.76,8.21h-20.5a1.09,1.09,0,0,0-1.09,1.1V26.05a1.1,1.1,0,0,0,1.09,1.11h5.28a3.29,3.29,0,0,0,3.21,2.27,3.38,3.38,0,0,0,0-6.75A3.29,3.29,0,0,0,176.54,25h-4.19V13h18.31V25h-3.45a7.61,7.61,0,0,0-7.46-6.56,8.25,8.25,0,0,0-3.64.92l1,2a5.27,5.27,0,0,1,2.55-.67,5.46,5.46,0,0,1,0,10.91,5.27,5.27,0,0,1-2.55-.67l-1,2a7.51,7.51,0,0,0,3.64.92,7.61,7.61,0,0,0,7.46-6.56h4.55a1.1,1.1,0,0,0,1.09-1.11V9.31A1.14,1.14,0,0,0,191.76,8.21Z" fill="#008bfd"/><g style="isolation:isolate"><path d="M179.17,46.72h-.92l-.82-2.15h-3.24l-.77,2.15h-.93l2.91-7.57h.85Zm-2-2.91-1.21-3.27a3.71,3.71,0,0,1-.11-.5h0a3.35,3.35,0,0,1-.12.5l-1.2,3.27Z" fill="#008bfd"/><path d="M181.13,43.85v2.87h-.83V39.15h2a2.75,2.75,0,0,1,1.86.59,2.13,2.13,0,0,1,.67,1.66,2.28,2.28,0,0,1-.79,1.8,2.72,2.72,0,0,1-1.94.65Zm0-3.93v3.15h1a2.13,2.13,0,0,0,1.42-.42,1.52,1.52,0,0,0,.49-1.21c0-1-.6-1.52-1.8-1.52Z" fill="#008bfd"/><path d="M187.14,46.72h-.83V39.15h.83Z" fill="#008bfd"/><path d="M170.78,51.69H163.4v2.88a12.84,12.84,0,0,1-.79,4.71l-.43-.36a12.19,12.19,0,0,0,.72-4.34V51.22h3.74c-.13-.22-.26-.43-.4-.64l.52-.13a3.55,3.55,0,0,1,.45.77h3.57Zm-5.68,5.38A6.91,6.91,0,0,1,163.92,59l-.39-.33a6.07,6.07,0,0,0,1.09-1.79Zm.56-5a6.69,6.69,0,0,1-.62,1.34v3.13h-.5V54.1a7,7,0,0,1-.62.72l-.33-.4a6.85,6.85,0,0,0,1.62-2.56Zm5,4.39h-4.44v-2.5c-.16.2-.39.47-.68.8l-.3-.42a9.34,9.34,0,0,0,1.66-2.44l.44.17a5.17,5.17,0,0,1-.35.71h1.5a4.12,4.12,0,0,0-.38-.67l.49-.15a4.33,4.33,0,0,1,.44.82h1.59v.47H168.8v.57h1.7v.47h-1.7v.63h1.7v.46h-1.7V56h1.87Zm-1.3,1.51a1.87,1.87,0,0,1-.18.78.67.67,0,0,1-.43.34,7,7,0,0,1-1.47.09,5.42,5.42,0,0,1-1-.06.56.56,0,0,1-.36-.25.92.92,0,0,1-.13-.54V56.86h.5v1.47a.29.29,0,0,0,.14.29,5.48,5.48,0,0,0,1,.05,6.78,6.78,0,0,0,1.11-.05.41.41,0,0,0,.27-.21,1.58,1.58,0,0,0,.09-.66Zm-1.06-4.15v-.57h-1.57v.57Zm0,1.1v-.63h-1.58v.63Zm0,1.08v-.62h-1.58V56Zm-.1,1.78-.44.29a6,6,0,0,0-.87-1l.44-.3A7.71,7.71,0,0,1,168.22,57.75Zm2.71.89-.43.26a10.08,10.08,0,0,0-1.21-1.78l.44-.26A10.29,10.29,0,0,1,170.93,58.64Z" fill="#008bfd"/><path d="M180.43,58.51a.58.58,0,0,1-.29.56,3.23,3.23,0,0,1-1.31.16h-.44l-.16-.54.72,0a3,3,0,0,0,.83-.06.2.2,0,0,0,.12-.19V56.05h-2.83V59h-.54V56.05h-2.85a6.59,6.59,0,0,1-1,3.14l-.47-.32a6.33,6.33,0,0,0,1-3.61V50.67h7.24ZM176.53,53V51.22h-2.8V53Zm0,2.49v-2h-2.8v2ZM179.9,53V51.22h-2.83V53Zm0,2.49v-2h-2.83v2Z" fill="#008bfd"/><path d="M185.59,55.44l-.36.41a6.76,6.76,0,0,0-.86-1.25v4.62h-.52V54.58a13.73,13.73,0,0,1-1.35,2.47l-.35-.41a14,14,0,0,0,1.67-3.2H182.2v-.5h1.65V51.46l-1.22.23-.27-.5a10.85,10.85,0,0,0,2.89-.69l.31.46-1.19.38v1.6h1.19v.5h-1.19v.41A8.74,8.74,0,0,1,185.59,55.44Zm5.3,3.54h-5.63V58.5h2.57V57h-2.22v-.5h2.22V55l-2,.11-.24-.52a22.18,22.18,0,0,0,4.76-.52l.34.45c-.67.15-1.45.29-2.35.42v1.51h2.15V57h-2.15V58.5h2.53Zm-.64-5.47H186V50.78h4.29Zm-.53-.51V51.27h-3.23V53Z" fill="#008bfd"/><path d="M200.89,57.08c-.3,1.5-.72,2.25-1.28,2.25a.67.67,0,0,1-.39-.13,2.53,2.53,0,0,1-.53-.61,5.46,5.46,0,0,1-.62-1.21,8.11,8.11,0,0,1-.4-2c-.09-.88-.16-1.76-.2-2.62h-5.23v-.54h5.19c0-.74,0-1.32,0-1.73h.52c0,.8,0,1.37,0,1.73h2.91v.54H198c0,.69.11,1.62.25,2.79a6.16,6.16,0,0,0,.71,2.52c.34.51.57.76.69.76s.32-.24.47-.72a6,6,0,0,0,.29-1.27Zm-3.7.39c-1.62.41-3.14.74-4.56,1l-.13-.53c.54-.08,1.23-.21,2.05-.36v-2.9h-1.77v-.54h4.13v.54h-1.85v2.78q1.17-.26,2.13-.51Zm3.23-5.78L200,52a6,6,0,0,0-1.12-1.06l.43-.34A5.56,5.56,0,0,1,200.42,51.69Z" fill="#008bfd"/></g><path d="M161.69,17l8.05,4-8,4a9,9,0,0,0,0-8" fill="#505050"/><rect x="73.89" y="0.37" width="90.38" height="20" fill="none"/><g style="isolation:isolate"><path d="M92.46,10.47H88a5.87,5.87,0,0,1-1.39,1.19v1.6a16.54,16.54,0,0,0,2-.54l.18.43a18.2,18.2,0,0,1-2.67.74l-.2-.45c.14-.06.21-.14.21-.25V11.91a8.54,8.54,0,0,1-2,.83l-.29-.46a7.76,7.76,0,0,0,3.53-1.81H83.79V10h4.26a2.79,2.79,0,0,0-.31-.6l.52-.17c.12.22.25.47.38.77h3.82Zm-5.25-.91H86.7V8H85.51a2.77,2.77,0,0,1-1.09,1.8L84,9.41A2,2,0,0,0,85,8H83.8V7.52h2.9V6.78H84.51V5.39H85v.9H86.7V5.17h.51Zm5.25-2.78H90.34V8.36h1.91v.48H87.9V8.36h1.91V6.78H87.67V6.3h2.14V5.16h.52V6.3h2.13Zm.06,6.68-.3.49a6.11,6.11,0,0,1-3.58-2.71l.47-.21A4.25,4.25,0,0,0,90,12.15a6.21,6.21,0,0,0,1.58-1.1l.37.33a7.67,7.67,0,0,1-1.5,1.11A6.87,6.87,0,0,0,92.52,13.46Z" fill="#00b0f0"/><path d="M102.44,13.66H93.79v-.44H95V9h2.33l.25-.7H93.86V7.83H97.7l.19-.66H94.26V5.38h7.67V7.17h-3.5l-.2.66h4.06v.46H98.07l-.23.7h3.41v4.23h1.19Zm-5.8-6.9v-1H94.77v1Zm4.1,3.27V9.41H95.48V10Zm0,1v-.63H95.48v.63Zm0,1.08v-.68H95.48v.68Zm0,1.07v-.65H95.48v.65ZM99,6.76v-1H97.16v1Zm2.37,0v-1H99.56v1Z" fill="#00b0f0"/><path d="M107.16,10.1l-.36.4a7.12,7.12,0,0,0-.86-1.25v4.63h-.52V9.23a13.06,13.06,0,0,1-1.35,2.47l-.35-.41a13.68,13.68,0,0,0,1.67-3.19h-1.62V7.59h1.65V6.11l-1.22.23-.27-.49a11,11,0,0,0,2.89-.69l.31.46L105.94,6V7.59h1.19V8.1h-1.19v.41A8.74,8.74,0,0,1,107.16,10.1Zm5.3,3.54h-5.63v-.49h2.57V11.63h-2.22v-.51h2.22V9.67l-2,.12-.24-.52a22.18,22.18,0,0,0,4.76-.52l.34.44a23.69,23.69,0,0,1-2.35.42v1.51h2.15v.51h-2.15v1.52h2.53Zm-.64-5.48h-4.29V5.44h4.29Zm-.53-.5V5.93h-3.23V7.66Z" fill="#00b0f0"/><path d="M122.46,11.73c-.3,1.5-.72,2.25-1.28,2.25a.74.74,0,0,1-.39-.12,2.53,2.53,0,0,1-.53-.61,5.46,5.46,0,0,1-.62-1.21,8.51,8.51,0,0,1-.41-2c-.08-.88-.15-1.76-.19-2.63h-5.23V6.84H119c0-.75,0-1.32,0-1.73h.52c0,.79,0,1.37,0,1.73h2.91v.53h-2.89c0,.7.11,1.63.25,2.8a6.21,6.21,0,0,0,.71,2.52c.34.5.57.76.69.76s.32-.24.47-.72a6,6,0,0,0,.29-1.27Zm-3.7.39c-1.62.41-3.14.75-4.56,1l-.13-.53c.54-.08,1.22-.21,2.05-.36V9.34h-1.77V8.79h4.13v.55h-1.85v2.77c.78-.16,1.49-.33,2.13-.5ZM122,6.35l-.44.31a6,6,0,0,0-1.12-1.06l.43-.35A6,6,0,0,1,122,6.35Z" fill="#00b0f0"/><path d="M127.12,6.11h-1.37a10.87,10.87,0,0,1-.68,2.47h1.77v4.15h-.54v-.44h-1.1V13h-.52V9.41a9.25,9.25,0,0,1-.58.92l-.39-.4a8.29,8.29,0,0,0,1.53-3.82h-1.31V5.62h3.19Zm-.82,5.68V9.07h-1.1v2.72Zm1.8-.67a10.9,10.9,0,0,1-.59,2.51l-.47-.18a10.16,10.16,0,0,0,.58-2.4Zm4.18-5.26h-2v1H132v.47h-1.69v1H132v.5h-1.7V10h1.93a22.35,22.35,0,0,1-.12,2.33,3.1,3.1,0,0,1-.27,1.12.86.86,0,0,1-.41.33,4.84,4.84,0,0,1-1.13.09l-.17-.5a5.11,5.11,0,0,0,1,0,.68.68,0,0,0,.26-.2,3.65,3.65,0,0,0,.22-1.22c.06-.72.08-1.2.08-1.45h-4.09V5.4h4.66Zm-2.49,1v-1h-1.65v1Zm0,1.5v-1h-1.65v1Zm0,1.64V8.87h-1.65V10Zm-.63,3.32-.5.07c0-.16,0-.33,0-.49a10.46,10.46,0,0,0-.14-1.67l.47-.07A14.37,14.37,0,0,1,129.16,13.33Zm1.15-.62-.48.18a7.12,7.12,0,0,0-.38-1.62l.46-.12A8.89,8.89,0,0,1,130.31,12.71Zm.93-.4-.45.18a7.43,7.43,0,0,0-.39-1.34l.42-.14A7.09,7.09,0,0,1,131.24,12.31Z" fill="#00b0f0"/><path d="M135.69,10.67a18.31,18.31,0,0,1-1.53,3.26l-.44-.36a15.55,15.55,0,0,0,1.49-3.17Zm0-1.51-.37.39a9,9,0,0,0-1.57-1.33l.32-.41A10.88,10.88,0,0,1,135.67,9.16Zm.18-2.68-.35.42A9.57,9.57,0,0,0,134,5.51l.35-.41A13.57,13.57,0,0,1,135.85,6.48Zm1.53,3.2a8.68,8.68,0,0,1-.3,2.65,3.24,3.24,0,0,1-1.27,1.56l-.41-.38a3,3,0,0,0,1-1.08,5.51,5.51,0,0,0,.43-2.75Zm5.11-.41-.44.34a8.35,8.35,0,0,0-.6-.81c-2,.23-3.67.4-5.12.5l-.13-.52a5.43,5.43,0,0,0,2-2.09h-2.09V6.16h2.39A10.69,10.69,0,0,0,139,5.09l.54.14c-.06.17-.2.48-.41.93h3.21v.53h-3.48a6.66,6.66,0,0,1-1.67,2q1.92-.12,3.87-.36a8,8,0,0,0-.89-.85l.41-.36A12.16,12.16,0,0,1,142.49,9.27Zm-3.42,4.62h-.52V9.68h.52Zm3.38-.12h-1.33c-.5,0-.75-.23-.75-.7V9.68h.51V13q0,.27.3.27h1.27Z" fill="#00b0f0"/><path d="M147.16,10.1l-.36.4a7.12,7.12,0,0,0-.86-1.25v4.63h-.52V9.23a13.06,13.06,0,0,1-1.35,2.47l-.35-.41a13.68,13.68,0,0,0,1.67-3.19h-1.62V7.59h1.65V6.11l-1.22.23-.27-.49a11,11,0,0,0,2.89-.69l.31.46L145.94,6V7.59h1.19V8.1h-1.19v.41A8.74,8.74,0,0,1,147.16,10.1Zm5.3,3.54h-5.63v-.49h2.57V11.63h-2.22v-.51h2.22V9.67l-2,.12-.24-.52a22.18,22.18,0,0,0,4.76-.52l.34.44a23.69,23.69,0,0,1-2.35.42v1.51h2.15v.51h-2.15v1.52h2.53Zm-.64-5.48h-4.29V5.44h4.29Zm-.53-.5V5.93h-3.23V7.66Z" fill="#00b0f0"/></g></svg>