<svg xmlns="http://www.w3.org/2000/svg" viewBox="0 0 424.04 484"><title>OJ104440672</title><path d="M70,24.4a11.81,11.81,0,0,1-16.84-2.29A12.56,12.56,0,0,1,55.43,4.82a11.82,11.82,0,0,1,16.84,2.3A12.54,12.54,0,0,1,70,24.4ZM73.69,6A13.57,13.57,0,0,0,54.33,3.36a14.43,14.43,0,0,0-2.55,19.87,13.62,13.62,0,0,0,11,5.55,13.45,13.45,0,0,0,8.39-2.92A14.44,14.44,0,0,0,73.69,6Z" fill="#008bfd"/><path d="M56.06,17.19a17,17,0,0,1-2-2.35,18.28,18.28,0,0,0-1.66,6.88c.11.16.11.29.23.44a12.55,12.55,0,0,0,2,2.05A14.13,14.13,0,0,1,56.06,17.19Z" fill="#008bfd"/><path d="M60.67,7.74a21,21,0,0,0-3.33,3,15.71,15.71,0,0,0-1.61,2,15.42,15.42,0,0,0,1.9,2.46,16.32,16.32,0,0,1,2.2-2.56A26.47,26.47,0,0,1,63,10.06C62.16,9.3,61.38,8.53,60.67,7.74Z" fill="#008bfd"/><path d="M72.15,7a12,12,0,0,0-1.73-1.82,12.53,12.53,0,0,0-8,1.53c.76.84,1.51,1.63,2.24,2.36C69,6.59,72.15,7,72.15,7Z" fill="#008bfd"/><path d="M54.34,15a19.82,19.82,0,0,1,1.19-2.06,9.84,9.84,0,0,1-1.6-6.79,13.09,13.09,0,0,0-1.29,1.6C52.26,9.34,52.24,11.9,54.34,15Z" fill="#008bfd"/><path d="M59.9,17.37a21.6,21.6,0,0,1-2.27-2.14,14.25,14.25,0,0,0-1.14,1.95,23.54,23.54,0,0,0,2.09,1.91,19.12,19.12,0,0,0,12.56,4.38,9,9,0,0,0,1.54-1.94C71.45,21.79,66.19,22.48,59.9,17.37Z" fill="#008bfd"/><path d="M54.55,14.83a15.72,15.72,0,0,0,2,2.35,15.36,15.36,0,0,1,1.14-1.95,15.42,15.42,0,0,1-1.9-2.46A15.58,15.58,0,0,0,54.55,14.83Z" fill="#008bfd"/><path d="M63,10.07a97,97,0,0,0,11.15,8.82,9.82,9.82,0,0,0,.33-1.05A95.51,95.51,0,0,1,64.61,9Q63.82,9.47,63,10.07Z" fill="#008bfd"/><path d="M62.38,6.66Q60.73,4.89,59,2.86a10.05,10.05,0,0,0-1.59.66,26.3,26.3,0,0,0,3.24,4.22A17.22,17.22,0,0,1,62.38,6.66Z" fill="#008bfd"/><path d="M62.45,6.62a18.74,18.74,0,0,0-1.87,1.19c.72.78,1.45,1.59,2.25,2.35.57-.4,1.34-.88,1.87-1.18C64,8.25,63.21,7.46,62.45,6.62Z" fill="#008bfd"/><path d="M62.25,6.52a16.24,16.24,0,0,0-1.67,1.12c.72.79,1.74,1.81,2.54,2.57.57-.4,1.05-.8,1.58-1.11C64,8.38,63,7.35,62.25,6.52Z" fill="#008bfd"/><path d="M68.3,13.07a2.7,2.7,0,0,0-.48,3.7,2.56,2.56,0,0,0,3.63.51,2.72,2.72,0,0,0,.48-3.72A2.55,2.55,0,0,0,68.3,13.07Z" fill="#008bfd"/><path d="M63.13,19.19a2.52,2.52,0,0,0-.45,3.44,2.37,2.37,0,0,0,3.36.45,2.49,2.49,0,0,0,.44-3.43A2.36,2.36,0,0,0,63.13,19.19Z" fill="#008bfd"/><path d="M54,11.86a3.79,3.79,0,0,0-.68,5.21,3.58,3.58,0,0,0,5.1.7,3.8,3.8,0,0,0,.67-5.23A3.59,3.59,0,0,0,54,11.86Z" fill="#008bfd"/><path d="M70,164a11.81,11.81,0,0,1-16.84-2.29,12.56,12.56,0,0,1,2.24-17.29,11.82,11.82,0,0,1,16.84,2.3A12.54,12.54,0,0,1,70,164Zm3.66-18.41A13.57,13.57,0,0,0,54.33,143a14.43,14.43,0,0,0-2.55,19.87,13.62,13.62,0,0,0,11,5.55,13.45,13.45,0,0,0,8.39-2.92A14.44,14.44,0,0,0,73.69,145.6Z" fill="#008bfd"/><path d="M56.06,156.8a17,17,0,0,1-2-2.35,18.28,18.28,0,0,0-1.66,6.88c.11.16.11.29.23.44a12.55,12.55,0,0,0,2,2A14.13,14.13,0,0,1,56.06,156.8Z" fill="#008bfd"/><path d="M60.67,147.35a21,21,0,0,0-3.33,3,15.71,15.71,0,0,0-1.61,2,15.42,15.42,0,0,0,1.9,2.46,16.32,16.32,0,0,1,2.2-2.56A26.47,26.47,0,0,1,63,149.67C62.16,148.91,61.38,148.14,60.67,147.35Z" fill="#008bfd"/><path d="M72.15,146.55a12,12,0,0,0-1.73-1.82,12.53,12.53,0,0,0-8,1.53c.76.84,1.51,1.63,2.24,2.36C69,146.19,72.15,146.55,72.15,146.55Z" fill="#008bfd"/><path d="M54.34,154.58a19.82,19.82,0,0,1,1.19-2.06,9.84,9.84,0,0,1-1.6-6.79,13.09,13.09,0,0,0-1.29,1.6C52.26,148.94,52.24,151.5,54.34,154.58Z" fill="#008bfd"/><path d="M59.9,157a21.6,21.6,0,0,1-2.27-2.14,14.25,14.25,0,0,0-1.14,1.95,23.54,23.54,0,0,0,2.09,1.91,19.12,19.12,0,0,0,12.56,4.38,9,9,0,0,0,1.54-1.94C71.45,161.4,66.19,162.09,59.9,157Z" fill="#008bfd"/><path d="M54.55,154.44a15.72,15.72,0,0,0,2,2.35,15.36,15.36,0,0,1,1.14-1.95,15.42,15.42,0,0,1-1.9-2.46A15.58,15.58,0,0,0,54.55,154.44Z" fill="#008bfd"/><path d="M63,149.67a97,97,0,0,0,11.15,8.82,9.82,9.82,0,0,0,.33-1.05,95.51,95.51,0,0,1-9.83-8.82Q63.82,149.07,63,149.67Z" fill="#008bfd"/><path d="M62.38,146.27q-1.65-1.77-3.36-3.8a10.05,10.05,0,0,0-1.59.66,26.3,26.3,0,0,0,3.24,4.22A17.22,17.22,0,0,1,62.38,146.27Z" fill="#008bfd"/><path d="M62.45,146.23a18.74,18.74,0,0,0-1.87,1.19c.72.78,1.45,1.59,2.25,2.35.57-.4,1.34-.88,1.87-1.18C64,147.86,63.21,147.07,62.45,146.23Z" fill="#008bfd"/><path d="M62.25,146.12a16.24,16.24,0,0,0-1.67,1.12c.72.79,1.74,1.81,2.54,2.57.57-.4,1.05-.8,1.58-1.11C64,148,63,147,62.25,146.12Z" fill="#008bfd"/><path d="M68.3,152.68a2.7,2.7,0,0,0-.48,3.7,2.56,2.56,0,0,0,3.63.51,2.72,2.72,0,0,0,.48-3.72A2.55,2.55,0,0,0,68.3,152.68Z" fill="#008bfd"/><path d="M63.13,158.8a2.52,2.52,0,0,0-.45,3.44,2.37,2.37,0,0,0,3.36.45,2.49,2.49,0,0,0,.44-3.43A2.36,2.36,0,0,0,63.13,158.8Z" fill="#008bfd"/><path d="M54,151.47a3.79,3.79,0,0,0-.68,5.21,3.58,3.58,0,0,0,5.1.7,3.8,3.8,0,0,0,.67-5.23A3.59,3.59,0,0,0,54,151.47Z" fill="#008bfd"/><path d="M70,94.28A11.81,11.81,0,0,1,53.19,92,12.56,12.56,0,0,1,55.43,74.7,11.82,11.82,0,0,1,72.27,77,12.54,12.54,0,0,1,70,94.28Zm3.66-18.41a13.57,13.57,0,0,0-19.36-2.63,14.43,14.43,0,0,0-2.55,19.87,13.62,13.62,0,0,0,11,5.55,13.45,13.45,0,0,0,8.39-2.92A14.44,14.44,0,0,0,73.69,75.87Z" fill="#008bfd"/><path d="M56.06,87.07a17,17,0,0,1-2-2.35,18.28,18.28,0,0,0-1.66,6.88c.11.16.11.29.23.44a12.55,12.55,0,0,0,2,2A14.13,14.13,0,0,1,56.06,87.07Z" fill="#008bfd"/><path d="M60.67,77.62a21,21,0,0,0-3.33,3,15.71,15.71,0,0,0-1.61,2.05,15.42,15.42,0,0,0,1.9,2.46,16.32,16.32,0,0,1,2.2-2.56A26.47,26.47,0,0,1,63,79.94C62.16,79.18,61.38,78.41,60.67,77.62Z" fill="#008bfd"/><path d="M72.15,76.83A12,12,0,0,0,70.42,75a12.53,12.53,0,0,0-8,1.53c.76.84,1.51,1.63,2.24,2.36C69,76.47,72.15,76.83,72.15,76.83Z" fill="#008bfd"/><path d="M54.34,84.86a19.82,19.82,0,0,1,1.19-2.06A9.84,9.84,0,0,1,53.93,76a13.09,13.09,0,0,0-1.29,1.6C52.26,79.22,52.24,81.78,54.34,84.86Z" fill="#008bfd"/><path d="M59.9,87.25a21.6,21.6,0,0,1-2.27-2.14,14.25,14.25,0,0,0-1.14,2A23.54,23.54,0,0,0,58.58,89a19.12,19.12,0,0,0,12.56,4.38,9,9,0,0,0,1.54-1.94C71.45,91.67,66.19,92.36,59.9,87.25Z" fill="#008bfd"/><path d="M54.55,84.71a15.72,15.72,0,0,0,2,2.35,15.36,15.36,0,0,1,1.14-2,15.42,15.42,0,0,1-1.9-2.46A15.58,15.58,0,0,0,54.55,84.71Z" fill="#008bfd"/><path d="M63,80a97,97,0,0,0,11.15,8.82,9.82,9.82,0,0,0,.33-1,95.51,95.51,0,0,1-9.83-8.82Q63.82,79.35,63,80Z" fill="#008bfd"/><path d="M62.38,76.54q-1.65-1.77-3.36-3.8a10.05,10.05,0,0,0-1.59.66,26.3,26.3,0,0,0,3.24,4.22A17.22,17.22,0,0,1,62.38,76.54Z" fill="#008bfd"/><path d="M62.45,76.5a18.74,18.74,0,0,0-1.87,1.19c.72.78,1.45,1.59,2.25,2.35.57-.4,1.34-.88,1.87-1.18C64,78.13,63.21,77.34,62.45,76.5Z" fill="#008bfd"/><path d="M62.25,76.4a16.24,16.24,0,0,0-1.67,1.12c.72.79,1.74,1.81,2.54,2.57.57-.4,1.05-.8,1.58-1.11C64,78.26,63,77.23,62.25,76.4Z" fill="#008bfd"/><path d="M68.3,83a2.7,2.7,0,0,0-.48,3.7,2.56,2.56,0,0,0,3.63.51,2.72,2.72,0,0,0,.48-3.72A2.55,2.55,0,0,0,68.3,83Z" fill="#008bfd"/><path d="M63.13,89.07a2.52,2.52,0,0,0-.45,3.44A2.37,2.37,0,0,0,66,93a2.49,2.49,0,0,0,.44-3.43A2.36,2.36,0,0,0,63.13,89.07Z" fill="#008bfd"/><path d="M54,81.74A3.79,3.79,0,0,0,53.31,87a3.58,3.58,0,0,0,5.1.7,3.8,3.8,0,0,0,.67-5.23A3.59,3.59,0,0,0,54,81.74Z" fill="#008bfd"/><g style="isolation:isolate"><path d="M41.48,244.38l-2.15,7.56h-1l-1.58-5.57a3.77,3.77,0,0,1-.12-.76h0a3.68,3.68,0,0,1-.13.75l-1.59,5.58H34l-2.24-7.56h.92l1.64,5.85a3,3,0,0,1,.13.76h0a5,5,0,0,1,.16-.76l1.69-5.85h.79l1.63,5.89a4.71,4.71,0,0,1,.12.71h0a4.22,4.22,0,0,1,.15-.72l1.57-5.88Z" fill="#008bfd"/><path d="M46.54,249.44H42.72a2.1,2.1,0,0,0,.49,1.44,1.67,1.67,0,0,0,1.28.49,2.66,2.66,0,0,0,1.69-.61v.78a3,3,0,0,1-1.88.53,2.24,2.24,0,0,1-1.78-.74,3,3,0,0,1-.65-2.07,3,3,0,0,1,.71-2,2.26,2.26,0,0,1,1.76-.8,2,2,0,0,1,1.62.68,2.85,2.85,0,0,1,.58,1.91Zm-.84-.71a1.78,1.78,0,0,0-.36-1.19,1.26,1.26,0,0,0-1-.42,1.44,1.44,0,0,0-1,.43,1.91,1.91,0,0,0-.56,1.18Z" fill="#008bfd"/><path d="M48.69,251.15v.79h-.82v-8h.82v3.55h0a2.05,2.05,0,0,1,1.87-1.08,2,2,0,0,1,1.63.73,3,3,0,0,1,.59,1.94,3.32,3.32,0,0,1-.66,2.16,2.21,2.21,0,0,1-1.81.82,1.77,1.77,0,0,1-1.62-.92Zm0-1.4a1.61,1.61,0,0,0,.45,1.16,1.53,1.53,0,0,0,1.12.47,1.47,1.47,0,0,0,1.25-.62,2.75,2.75,0,0,0,.46-1.7,2.15,2.15,0,0,0-.43-1.42,1.39,1.39,0,0,0-1.14-.53,1.6,1.6,0,0,0-1.23.53,1.91,1.91,0,0,0-.48,1.34Z" fill="#008bfd"/><path d="M65.08,244.91H57.7v2.88a12.86,12.86,0,0,1-.79,4.72l-.43-.36a12.21,12.21,0,0,0,.72-4.35v-3.36h3.74c-.13-.21-.26-.42-.4-.63l.52-.13a3.72,3.72,0,0,1,.45.76h3.57Zm-5.68,5.38a7.12,7.12,0,0,1-1.18,1.92l-.39-.33a5.92,5.92,0,0,0,1.09-1.8Zm.56-5a6.69,6.69,0,0,1-.62,1.34v3.13h-.5v-2.41a7.14,7.14,0,0,1-.62.71l-.33-.39a6.81,6.81,0,0,0,1.62-2.57Zm5,4.38H60.53v-2.5c-.16.21-.39.48-.68.81l-.3-.42a9,9,0,0,0,1.66-2.45l.44.18a5.17,5.17,0,0,1-.35.71h1.5a4.53,4.53,0,0,0-.38-.68l.49-.14a4,4,0,0,1,.44.82h1.59v.47H63.1V247h1.7v.47H63.1v.63h1.7v.46H63.1v.62H65Zm-1.3,1.52a1.78,1.78,0,0,1-.18.77.66.66,0,0,1-.43.35,7.24,7.24,0,0,1-1.47.08,5.76,5.76,0,0,1-1.05-.05.6.6,0,0,1-.36-.25,1,1,0,0,1-.13-.55v-1.44h.5v1.47c0,.16.05.26.14.29a4.37,4.37,0,0,0,1,.06,7,7,0,0,0,1.11-.05.41.41,0,0,0,.26-.21,1.58,1.58,0,0,0,.09-.66ZM62.61,247v-.57H61V247Zm0,1.1v-.63H61v.63Zm0,1.08v-.62H61v.62Zm-.1,1.78-.44.29a5.57,5.57,0,0,0-.87-1l.44-.3A7.71,7.71,0,0,1,62.52,251Zm2.71.89-.43.26a9.57,9.57,0,0,0-1.21-1.78l.44-.27A10.37,10.37,0,0,1,65.23,251.87Z" fill="#008bfd"/><path d="M74.73,251.73a.58.58,0,0,1-.29.57,3.2,3.2,0,0,1-1.3.16h-.45l-.16-.54.72,0a3,3,0,0,0,.83-.06.21.21,0,0,0,.12-.19v-2.42H71.37v2.93h-.54v-2.93H68a6.67,6.67,0,0,1-1,3.15l-.47-.32a6.33,6.33,0,0,0,1-3.61V243.9h7.24Zm-3.9-5.46v-1.83H68v1.83Zm0,2.49v-1.95H68v1.95Zm3.37-2.49v-1.83H71.37v1.83Zm0,2.49v-1.95H71.37v1.95Z" fill="#008bfd"/><path d="M79.89,248.67l-.36.4a7.12,7.12,0,0,0-.86-1.25v4.63h-.52V247.8a13.06,13.06,0,0,1-1.35,2.47l-.35-.41a13.31,13.31,0,0,0,1.67-3.19H76.5v-.51h1.65v-1.48l-1.22.23-.27-.49a10.85,10.85,0,0,0,2.89-.69l.31.46-1.19.38v1.59h1.19v.51H78.67v.41A8.74,8.74,0,0,1,79.89,248.67Zm5.3,3.54H79.56v-.48h2.57V250.2H79.91v-.51h2.22v-1.45l-2,.12-.24-.52a22.18,22.18,0,0,0,4.76-.52l.34.45c-.67.15-1.45.29-2.35.42v1.5h2.15v.51H82.66v1.53h2.53Zm-.64-5.48H80.26V244h4.29Zm-.53-.5V244.5H80.79v1.73Z" fill="#008bfd"/><path d="M95.19,250.3c-.29,1.51-.72,2.26-1.28,2.26a.75.75,0,0,1-.39-.13,2.78,2.78,0,0,1-.53-.61,5.92,5.92,0,0,1-.62-1.21,8.59,8.59,0,0,1-.4-2c-.09-.88-.16-1.76-.2-2.63H86.54v-.53h5.19c0-.75,0-1.32,0-1.73h.52c0,.79,0,1.37,0,1.73h2.91v.53H92.27c0,.7.11,1.63.25,2.8a6,6,0,0,0,.72,2.52c.33.51.56.76.68.76s.32-.24.47-.72a6,6,0,0,0,.29-1.27Zm-3.7.39c-1.62.42-3.14.75-4.56,1l-.13-.53c.54-.08,1.23-.21,2-.36v-2.9H87.08v-.55h4.13v.55H89.36v2.78q1.17-.25,2.13-.51Zm3.23-5.77-.44.31a5.75,5.75,0,0,0-1.12-1.06l.43-.35A5.67,5.67,0,0,1,94.72,244.92Z" fill="#008bfd"/></g><path d="M305.43,284h-20.5a1.1,1.1,0,0,0-1.09,1.11v16.74a1.09,1.09,0,0,0,1.09,1.1h5.28a3.29,3.29,0,0,0,3.21,2.27,3.38,3.38,0,0,0,0-6.75,3.29,3.29,0,0,0-3.21,2.27H286v-12h18.31v12h-3.45a7.61,7.61,0,0,0-7.46-6.56,8.25,8.25,0,0,0-3.64.92l1,2a5.27,5.27,0,0,1,2.55-.67,5.46,5.46,0,0,1,0,10.92,5.28,5.28,0,0,1-2.55-.68l-1,2a7.4,7.4,0,0,0,3.64.92,7.61,7.61,0,0,0,7.46-6.56h4.55a1.09,1.09,0,0,0,1.09-1.1V285.08A1.14,1.14,0,0,0,305.43,284Z" fill="#008bfd"/><g style="isolation:isolate"><path d="M294.09,323.24h-.92l-.82-2.15h-3.24l-.77,2.15h-.93l2.91-7.57h.85Zm-2-2.91-1.21-3.27a3.71,3.71,0,0,1-.11-.5h0a2.33,2.33,0,0,1-.13.5l-1.19,3.27Z" fill="#008bfd"/><path d="M296.05,320.36v2.88h-.83v-7.57h2a2.75,2.75,0,0,1,1.86.59,2.13,2.13,0,0,1,.66,1.66,2.28,2.28,0,0,1-.78,1.8,2.67,2.67,0,0,1-1.94.64Zm0-3.92v3.15H297a2.13,2.13,0,0,0,1.42-.42,1.52,1.52,0,0,0,.49-1.21c0-1-.6-1.52-1.8-1.52Z" fill="#008bfd"/><path d="M302.06,323.24h-.83v-7.57h.83Z" fill="#008bfd"/><path d="M284.45,328.2h-7.38v2.89a12.84,12.84,0,0,1-.79,4.71l-.43-.36a12.19,12.19,0,0,0,.72-4.34v-3.36h3.74c-.13-.22-.26-.43-.4-.64l.52-.13a3.55,3.55,0,0,1,.45.77h3.57Zm-5.68,5.39a7.06,7.06,0,0,1-1.18,1.91l-.39-.33a6.07,6.07,0,0,0,1.09-1.79Zm.56-5a6.69,6.69,0,0,1-.62,1.34V333h-.5v-2.41a6.16,6.16,0,0,1-.62.71l-.33-.39a6.85,6.85,0,0,0,1.62-2.56Zm5,4.39H279.9v-2.5c-.16.2-.39.47-.68.8l-.3-.42a9.34,9.34,0,0,0,1.66-2.44l.44.17a5.17,5.17,0,0,1-.35.71h1.5a4.12,4.12,0,0,0-.38-.67l.49-.15a4.33,4.33,0,0,1,.44.82h1.59v.47h-1.84v.57h1.7v.47h-1.7v.63h1.7v.46h-1.7v.62h1.87Zm-1.3,1.51a1.87,1.87,0,0,1-.18.78.67.67,0,0,1-.43.34,7,7,0,0,1-1.47.09,5.42,5.42,0,0,1-1-.06.61.61,0,0,1-.37-.25,1,1,0,0,1-.12-.54v-1.44h.5v1.47a.29.29,0,0,0,.14.29,5.48,5.48,0,0,0,1,.05,6.78,6.78,0,0,0,1.11-.05.41.41,0,0,0,.27-.21,1.58,1.58,0,0,0,.09-.66ZM282,330.31v-.57h-1.57v.57Zm0,1.1v-.63h-1.58v.63Zm0,1.08v-.62h-1.58v.62Zm-.1,1.78-.44.29a6,6,0,0,0-.87-1l.44-.3A7.71,7.71,0,0,1,281.89,334.27Zm2.71.89-.43.26a10.08,10.08,0,0,0-1.21-1.78l.44-.26A10.29,10.29,0,0,1,284.6,335.16Z" fill="#008bfd"/><path d="M294.1,335a.59.59,0,0,1-.29.56,3.23,3.23,0,0,1-1.31.16h-.44l-.16-.54.72,0a3,3,0,0,0,.83-.06.2.2,0,0,0,.12-.19v-2.41h-2.83v2.92h-.54v-2.92h-2.85a6.74,6.74,0,0,1-1,3.14l-.47-.32a6.33,6.33,0,0,0,1-3.61v-4.59h7.24Zm-3.9-5.47v-1.82h-2.8v1.82Zm0,2.49V330.1h-2.8v1.95Zm3.37-2.49v-1.82h-2.83v1.82Zm0,2.49V330.1h-2.83v1.95Z" fill="#008bfd"/><path d="M299.26,332l-.36.4a7.51,7.51,0,0,0-.86-1.25v4.63h-.52V331.1a13.73,13.73,0,0,1-1.35,2.47l-.35-.41a14,14,0,0,0,1.67-3.2h-1.62v-.51h1.65V328l-1.22.22-.27-.49a10.85,10.85,0,0,0,2.89-.69l.31.46-1.19.38v1.59h1.19V330H298v.41A8.74,8.74,0,0,1,299.26,332Zm5.3,3.54h-5.63V335h2.57v-1.53h-2.22V333h2.22v-1.45l-2,.12-.24-.52a22.18,22.18,0,0,0,4.76-.52l.34.45c-.67.15-1.45.29-2.35.42V333h2.15v.51H302V335h2.53Zm-.64-5.47h-4.29V327.3h4.29Zm-.53-.51v-1.73h-3.23v1.73Z" fill="#008bfd"/><path d="M314.56,333.6c-.3,1.5-.72,2.25-1.28,2.25a.67.67,0,0,1-.39-.13,2.53,2.53,0,0,1-.53-.61,5.46,5.46,0,0,1-.62-1.21,8.51,8.51,0,0,1-.41-2c-.08-.88-.15-1.76-.19-2.63h-5.23v-.53h5.19c0-.74,0-1.32,0-1.73h.52c0,.8,0,1.37,0,1.73h2.91v.53h-2.89c0,.7.11,1.63.25,2.8a6.21,6.21,0,0,0,.71,2.52c.34.51.57.76.69.76s.32-.24.47-.72a6,6,0,0,0,.29-1.27Zm-3.7.39c-1.62.41-3.14.74-4.56,1l-.13-.53c.54-.08,1.23-.21,2.05-.36v-2.9h-1.77v-.54h4.13v.54h-1.85V334q1.17-.25,2.13-.51Zm3.23-5.78-.44.31a6,6,0,0,0-1.12-1.06l.43-.34A5.56,5.56,0,0,1,314.09,328.21Z" fill="#008bfd"/></g><path d="M77.21,427.2H71.13c-.23,0-.38.14-.38.45v2.18a.36.36,0,0,0,.38.38h3.45v3.38c0,.22.15.37.45.37h2.18a.35.35,0,0,0,.37-.37v-6A.34.34,0,0,0,77.21,427.2ZM60,448.18H56.57V444.8c0-.22-.15-.37-.45-.37H54a.35.35,0,0,0-.38.37v6a.35.35,0,0,0,.38.37H60c.23,0,.38-.15.38-.46v-2.18A.36.36,0,0,0,60,448.18ZM73.6,444.5a.9.9,0,0,0-.45.08l-2.32-4.06a2.9,2.9,0,0,0,.9-2,2.79,2.79,0,0,0-3.9-2.56l-2.48-3.47a2,2,0,0,0,.53-1.5,2.33,2.33,0,1,0-2.33,2.32,2.38,2.38,0,0,0,.75-.14l2.48,3.54a2.82,2.82,0,0,0-.68,1.43l-7.2.6a1.78,1.78,0,0,0-1.65-1,1.88,1.88,0,0,0,0,3.76,1.92,1.92,0,0,0,1.87-1.59l7.06-.6a3.94,3.94,0,0,0,.67,1.22l-1.8,2.93h-.22a1.88,1.88,0,1,0,1.87,1.88,2.11,2.11,0,0,0-.52-1.35l1.72-2.86a4.59,4.59,0,0,0,1,.15,3.94,3.94,0,0,0,.82-.15L72,445.18a2.3,2.3,0,0,0-.68,1.57,2.18,2.18,0,1,0,2.25-2.25Z" fill="#007efd"/><g style="isolation:isolate"><path d="M41.57,464.13a14.49,14.49,0,0,1-1.44,2.12l-.42-.32a10.49,10.49,0,0,0,1.41-2Zm6.86-.61h-8.7V463h1.49v-1.71H39.93v-.51h1.29v-1.21h.51v1.21H43v-1.21h.51v1.21h1.3v-1.21h.5v1.21h1.33v-1.21h.49v1.21h1.08v.51H47.15V463h1.28Zm-.36-4.35H41.24a7,7,0,0,1-1,.88l-.4-.36A10.19,10.19,0,0,0,42,457.5l.51.19c-.24.33-.51.66-.8,1h6.36ZM43,463v-1.71H41.73V463Zm.4,3.13-.51.1a10.32,10.32,0,0,0-.31-2.19l.5-.11A10.71,10.71,0,0,1,43.42,466.15ZM44.83,463v-1.71h-1.3V463Zm1.1,3.06-.49.19a12.67,12.67,0,0,0-.78-2.16l.47-.18A11.93,11.93,0,0,1,45.93,466.08Zm.73-3.06v-1.71H45.33V463Zm1.76,3-.46.24a11.87,11.87,0,0,0-1.23-2.11l.48-.24A13.24,13.24,0,0,1,48.42,466Z" fill="#007efd"/><path d="M51.28,463a19.7,19.7,0,0,1-1.21,3.21l-.45-.28a19.44,19.44,0,0,0,1.21-3.16Zm.18-1.76-.35.39a11.05,11.05,0,0,0-1.38-1.27l.34-.4A14.53,14.53,0,0,1,51.46,461.27Zm.07-2.53-.38.36a9.67,9.67,0,0,0-1.29-1.23l.35-.36A9.27,9.27,0,0,1,51.53,458.74Zm4.38,3.17-.27.44a8.79,8.79,0,0,0-2-1,7.49,7.49,0,0,1-.82.74H55v.48H54.1v.74h1.56v.47H54.1v1.65c.4-.06,1-.17,1.75-.33l0,.46c-1.47.3-2.84.53-4.1.68l-.11-.44,2-.27v-1.75H52v-.47h1.62v-.74h-1v-.32l-.88.57-.33-.39a7.35,7.35,0,0,0,2.21-1.83l.5.18L54,461A14.22,14.22,0,0,1,55.91,461.91Zm-2.22-1.85-.43.18a.58.58,0,0,0,0-.17c-.35.21-.76.44-1.23.68l-.22-.43a.45.45,0,0,0,.12-.28v-1.9a12.75,12.75,0,0,0,1.35-.6l.31.34a7.39,7.39,0,0,1-1.18.56v1.61c.28-.15.51-.28.68-.39a2.84,2.84,0,0,0-.21-.46l.4-.21A5.08,5.08,0,0,1,53.69,460.06Zm-.53,5-.39.25a5.89,5.89,0,0,0-.56-.9l.37-.27A7,7,0,0,1,53.16,465.05Zm2.54-7.3a8.44,8.44,0,0,1-.16,2.54c-.12.21-.38.31-.78.31l-.14-.49h.17a.49.49,0,0,0,.27-.06.21.21,0,0,0,.1-.16c0-.07,0-.29.05-.67s0-.73,0-1h-.52a7.72,7.72,0,0,1-.51,2.33l-.43-.2a6.63,6.63,0,0,0,.46-2.13h-.48v-.45Zm-.25,6.52a4.42,4.42,0,0,1-.51.81l-.4-.2a4.73,4.73,0,0,0,.49-.8Zm1.35.16h-.5v-6.24h.5Zm1.35,1.14c0,.46-.27.69-.79.69l-.76,0-.16-.51h.48a2,2,0,0,0,.62-.05q.12,0,.12-.27v-7.89h.49Z" fill="#007efd"/><path d="M68.25,464.68a3.18,3.18,0,0,1-.26,1.16.74.74,0,0,1-.35.29,6.68,6.68,0,0,1-1.38.07,7.76,7.76,0,0,1-1.07,0,.65.65,0,0,1-.38-.24.68.68,0,0,1-.16-.48v-.71H63.42a2,2,0,0,1-.48.81,2.16,2.16,0,0,1-1.13.51,9.59,9.59,0,0,1-1.9.21l-.19-.45a9.28,9.28,0,0,0,2.21-.25,1.3,1.3,0,0,0,1-.83H61.39v-3.1h5.35v3.1h-1.6v.73c0,.11.06.18.19.22a5.05,5.05,0,0,0,1.06.06,6.11,6.11,0,0,0,1,0,.44.44,0,0,0,.27-.28,3.44,3.44,0,0,0,.14-.89ZM64,458.16H62.47v.56h1.17v1.36H62.47v.63H63.9v.41H60.19v-3.37H64Zm-2,.56v-.56H60.7v.56Zm1.18,1v-.57H60.7v.57Zm-1.18,1v-.63H60.7v.63Zm4.23,1.82V462H61.89v.49Zm0,.89v-.49H61.89v.49Zm0,.9v-.5H61.89v.5Zm1.94-5.85H65a7.49,7.49,0,0,1-.7.89l-.42-.25A5.72,5.72,0,0,0,65,457.48l.42.16-.21.42h3ZM68,461.14H64.32v-1.43H68Zm-2.54-.37v-.68h-.65v.68Zm2.33-1.48H65.06v-.39h2.69Zm-1.26,1.48v-.68h-.66v.68Zm1,0v-.68H66.9v.68Z" fill="#007efd"/><path d="M78.47,463.31l-.27.48-.61-.23v2.71h-.5v-.56h-2v.56H74.6V463.2h2.22a7.75,7.75,0,0,1-2.17-1.54H73.47a6.68,6.68,0,0,1-2,1.54h2.07v3.07H73v-.56H71v.56H70.5V463.6a5.27,5.27,0,0,1-.6.2l-.23-.46a7.72,7.72,0,0,0,3.14-1.68H69.74v-.48h3.5a7.54,7.54,0,0,0,.59-.92l.46.14a3,3,0,0,1-.43.78h4.47v.48H75.39A7.52,7.52,0,0,0,78.47,463.31Zm-5.07-3.19H70.5v-2.37h2.9Zm-.51-.48v-1.41H71v1.41Zm.1,5.56v-1.52H71v1.52Zm4.62-5.08h-3v-2.37h3Zm-.52,5.08v-1.52h-2v1.52Zm0-5.56v-1.41h-1.9v1.41ZM77,460.7l-.29.39a4.11,4.11,0,0,0-.85-.39l.26-.41A4.07,4.07,0,0,1,77,460.7Z" fill="#007efd"/><path d="M88.29,458.72H80.92v2.88a13.05,13.05,0,0,1-.79,4.71L79.7,466a12.15,12.15,0,0,0,.72-4.34v-3.36h3.74c-.13-.22-.27-.43-.4-.64l.52-.12a3.62,3.62,0,0,1,.44.76h3.57Zm-5.67,5.38A7.38,7.38,0,0,1,81.44,466l-.39-.34a6.07,6.07,0,0,0,1.09-1.79Zm.56-5a6.5,6.5,0,0,1-.62,1.35v3.13h-.5v-2.42a6.11,6.11,0,0,1-.62.72l-.33-.39a7.23,7.23,0,0,0,1.62-2.57Zm5,4.39H83.75V461c-.17.21-.4.47-.69.8l-.29-.42a9.18,9.18,0,0,0,1.66-2.44l.44.17a6,6,0,0,1-.36.72H86a5,5,0,0,0-.38-.68l.49-.14a4.27,4.27,0,0,1,.44.82h1.59v.46H86.32v.58H88v.46h-1.7v.63H88v.46h-1.7V463h1.87ZM86.89,465a2,2,0,0,1-.18.77.74.74,0,0,1-.44.35,8,8,0,0,1-1.47.08,5.56,5.56,0,0,1-1-.06.61.61,0,0,1-.36-.25,1,1,0,0,1-.13-.54v-1.44h.51v1.47c0,.16,0,.25.14.29a5.48,5.48,0,0,0,1,.05,6.87,6.87,0,0,0,1.11-.05.39.39,0,0,0,.26-.21,1.53,1.53,0,0,0,.09-.65Zm-1.06-4.15v-.58H84.26v.58Zm0,1.09v-.63H84.26v.63Zm0,1.08v-.62H84.26V463Zm-.1,1.79-.44.28a6.39,6.39,0,0,0-.87-1l.44-.29A7.14,7.14,0,0,1,85.74,464.79Zm2.71.88-.43.26a9.19,9.19,0,0,0-1.22-1.77l.44-.27A9.81,9.81,0,0,1,88.45,465.67Z" fill="#007efd"/><path d="M58,477.54a.61.61,0,0,1-.29.57,3.46,3.46,0,0,1-1.31.16h-.44l-.16-.55q.36,0,.72,0a3,3,0,0,0,.83-.06.2.2,0,0,0,.12-.19v-2.41H54.59V478h-.54v-2.93H51.19a6.67,6.67,0,0,1-1,3.15l-.46-.33a6.32,6.32,0,0,0,1-3.6v-4.59H58Zm-3.9-5.47v-1.82h-2.8v1.82Zm0,2.49v-1.94h-2.8v1.94Zm3.37-2.49v-1.82H54.59v1.82Zm0,2.49v-1.94H54.59v1.94Z" fill="#007efd"/><path d="M63.11,474.48l-.36.4a6.76,6.76,0,0,0-.86-1.25v4.63h-.52v-4.65A15.11,15.11,0,0,1,60,476.08l-.35-.41a14,14,0,0,0,1.67-3.2H59.71V472h1.66v-1.48l-1.23.23-.26-.5a11,11,0,0,0,2.89-.69l.3.46c-.48.17-.88.29-1.18.38V472h1.18v.5H61.89v.41A9.22,9.22,0,0,1,63.11,474.48Zm5.3,3.54H62.78v-.49h2.56V476H63.13v-.5h2.21v-1.45c-1.06.07-1.72.1-2,.11l-.24-.51a22.86,22.86,0,0,0,4.76-.53l.34.45c-.67.16-1.46.29-2.35.42v1.51H68v.5H65.88v1.53h2.53Zm-.64-5.48h-4.3v-2.73h4.3Zm-.54-.51v-1.72H64V472Z" fill="#007efd"/><path d="M78.41,476.11c-.3,1.5-.73,2.25-1.28,2.25a.67.67,0,0,1-.39-.13,2.32,2.32,0,0,1-.54-.61,5.67,5.67,0,0,1-.61-1.21,8.51,8.51,0,0,1-.41-2c-.09-.88-.15-1.75-.19-2.62H69.76v-.54h5.18c0-.74,0-1.32,0-1.72h.52c0,.79,0,1.36,0,1.72h2.91v.54H75.49c0,.69.11,1.62.25,2.8a6,6,0,0,0,.71,2.51c.34.51.56.76.68.76s.32-.24.48-.71a6.9,6.9,0,0,0,.29-1.28Zm-3.7.39c-1.62.41-3.14.74-4.57,1L70,477c.54-.09,1.22-.21,2-.37v-2.9H70.3v-.54h4.13v.54H72.58v2.78q1.17-.25,2.13-.51Zm3.23-5.77-.44.3A6,6,0,0,0,76.38,470l.42-.34A5.41,5.41,0,0,1,77.94,470.73Z" fill="#007efd"/></g><path d="M71.17,279.66H54.32c-1.48,0-1.5.4-1.5,2.23v29.55c0,1.83,0,2.17,1.49,2.22H71.17c1.47-.05,1.49-.39,1.49-2.22V281.89C72.66,280.06,72.64,279.71,71.17,279.66Zm-10.76,1.15h4.67a.18.18,0,0,1,0,.36H60.41a.18.18,0,0,1,0-.36Zm.12,31.09H59.39c-.19,0-.34-.07-.34-.27s.15-.26.34-.26h1.14c.19,0,.35.07.35.26S60.72,311.9,60.53,311.9Zm3,.2H62c-.26,0-.47-.11-.47-.37s.21-.36.47-.36h1.55c.26,0,.47.1.47.37S63.78,312.1,63.52,312.1Zm2.59-.2H65c-.18,0-.34-.08-.34-.27s.16-.27.34-.27h1.14c.19,0,.34.08.34.27S66.3,311.9,66.11,311.9Zm5.12-3.45c0,1.56-.14,1.9-1.56,1.92H55.81c-1.41,0-1.56-.36-1.56-1.92V283.87c0-1.63.16-1.63,1.74-1.63h13.5c1.59,0,1.75,0,1.75,1.63Z" fill="#008bfd"/><path d="M70.26,284.87c0-1.57-.19-1.58-1.73-1.58H56.9c-1.54,0-1.69,0-1.69,1.58v22.54c0,1.57.16,1.85,1.69,1.85H68.53c1.54,0,1.73-.28,1.73-1.86Zm-8,16.65-4.77-2.83V293l4.77,2.82ZM58,292.25l4.76-2.81,4.78,2.83-4.75,2.81Zm10,6.44-4.77,2.83v-5.63L68,293.07Z" fill="#008bfd"/><g style="isolation:isolate"><g style="isolation:isolate"><path d="M51.13,321.48a10.76,10.76,0,0,1-1,1.37V328h-.52v-4.5a14.39,14.39,0,0,1-1.3,1.2l-.27-.41a11.75,11.75,0,0,0,2.62-3.06Zm-.23-2a9.27,9.27,0,0,1-2.51,2.08l-.3-.41a8.82,8.82,0,0,0,2.38-2Zm5.89,3.2H55.21v4.44a.73.73,0,0,1-.17.52.65.65,0,0,1-.38.22,5,5,0,0,1-.86.05l-.9,0-.21-.54.89,0a5.07,5.07,0,0,0,1,0c.07,0,.1-.08.1-.17v-4.48H51.13v-.53h5.66Zm-.49-2.53H51.55v-.53H56.3Z" fill="#008bfd"/><path d="M62.88,319.62a12,12,0,0,1-2,.37v.78h2v.48h-2V322h1.83v2.91H60.86v.71h1.83v.47H60.86v1c.59-.05,1.19-.13,1.83-.23v.49c-1.79.23-3.31.42-4.55.55l-.12-.51c.73-.06,1.51-.13,2.35-.23v-1.08H58.52v-.47h1.85v-.71H58.53V322h1.84v-.73H58.18v-.48h2.19v-.71c-.55.05-1.17.07-1.85.07l-.17-.46a16.71,16.71,0,0,0,4.26-.47Zm-2.51,3.55v-.69H59v.69Zm0,1.24v-.76H59v.76Zm1.82-1.24v-.69H60.86v.69Zm0,1.24v-.76H60.86v.76Zm4.14-3.24c0,1.47,0,2.81-.07,4a13.26,13.26,0,0,1-.17,2.12.9.9,0,0,1-.36.47,2.08,2.08,0,0,1-1,.16h-.36l-.17-.52,1,0a.49.49,0,0,0,.34-.14.66.66,0,0,0,.17-.45l.09-1.93c0-1.07.07-2.15.07-3.23h-1A12.93,12.93,0,0,1,63.28,328l-.45-.22a12.38,12.38,0,0,0,1.48-6.1H63.24v-.5h1.09l0-2h.5c0,.81,0,1.47,0,2Z" fill="#008bfd"/><path d="M76.65,320.39H69.27v2.88a12.84,12.84,0,0,1-.79,4.71l-.43-.36a12.15,12.15,0,0,0,.72-4.34v-3.36h3.74c-.13-.22-.26-.43-.4-.64l.52-.12a3.25,3.25,0,0,1,.45.76h3.57ZM71,325.77a7.12,7.12,0,0,1-1.18,1.92l-.39-.34a5.87,5.87,0,0,0,1.09-1.79Zm.56-5a6.75,6.75,0,0,1-.62,1.35v3.13h-.5V322.8a6.11,6.11,0,0,1-.62.72l-.33-.39a7,7,0,0,0,1.62-2.57Zm5,4.39H72.1v-2.5c-.16.21-.39.47-.68.8l-.3-.42a9,9,0,0,0,1.66-2.44l.44.17a5.9,5.9,0,0,1-.35.72h1.5a4.08,4.08,0,0,0-.38-.68l.49-.14a3.78,3.78,0,0,1,.44.82h1.59v.46H74.67v.58h1.7V323h-1.7v.63h1.7v.46h-1.7v.62h1.87Zm-1.3,1.52a1.85,1.85,0,0,1-.18.77.67.67,0,0,1-.43.34,7,7,0,0,1-1.47.09,5.42,5.42,0,0,1-1-.06.56.56,0,0,1-.36-.25.92.92,0,0,1-.13-.54v-1.44h.5V327c0,.16,0,.25.14.29a5.48,5.48,0,0,0,1,.05,7,7,0,0,0,1.12-.05.41.41,0,0,0,.26-.21,1.56,1.56,0,0,0,.09-.65Zm-1.06-4.15v-.58H72.61v.58Zm0,1.09V323H72.61v.63Zm0,1.08v-.62H72.61v.62Zm-.1,1.79-.44.28a6.39,6.39,0,0,0-.87-1l.44-.29A7.14,7.14,0,0,1,74.09,326.46Zm2.71.88-.43.26a9.16,9.16,0,0,0-1.21-1.77l.44-.27A10.29,10.29,0,0,1,76.8,327.34Z" fill="#008bfd"/><path d="M56.3,339.21a.56.56,0,0,1-.29.56,3.15,3.15,0,0,1-1.3.17h-.45l-.16-.55.72,0a3,3,0,0,0,.83-.06.2.2,0,0,0,.12-.19v-2.41H52.94v2.93H52.4v-2.93H49.55a6.67,6.67,0,0,1-1,3.15l-.47-.33a6.32,6.32,0,0,0,1-3.6v-4.59H56.3Zm-3.9-5.47v-1.82H49.6v1.82Zm0,2.49v-1.94H49.6v1.94Zm3.37-2.49v-1.82H52.94v1.82Zm0,2.49v-1.94H52.94v1.94Z" fill="#008bfd"/><path d="M61.46,336.15l-.36.4a6.76,6.76,0,0,0-.86-1.25v4.63h-.52v-4.65a13.73,13.73,0,0,1-1.35,2.47l-.35-.41a13.58,13.58,0,0,0,1.67-3.2H58.07v-.5h1.65v-1.48l-1.22.23-.27-.5a10.85,10.85,0,0,0,2.89-.69l.31.46-1.19.38v1.6h1.19v.5H60.24v.41A8.73,8.73,0,0,1,61.46,336.15Zm5.3,3.54H61.13v-.49H63.7v-1.53H61.48v-.5H63.7v-1.45l-2,.11-.24-.51a22.78,22.78,0,0,0,4.76-.53l.34.45c-.67.15-1.45.29-2.35.42v1.51h2.15v.5H64.23v1.53h2.53Zm-.64-5.48H61.83v-2.73h4.29Zm-.53-.51V332H62.36v1.72Z" fill="#008bfd"/><path d="M76.76,337.78c-.3,1.5-.72,2.25-1.28,2.25a.67.67,0,0,1-.39-.13,2.55,2.55,0,0,1-.53-.61,5.67,5.67,0,0,1-.62-1.21,8.59,8.59,0,0,1-.4-2c-.09-.88-.16-1.75-.2-2.62H68.11v-.54H73.3c0-.74,0-1.32,0-1.72h.52c0,.79,0,1.36,0,1.72h2.91v.54H73.84c0,.69.11,1.62.25,2.79a5.94,5.94,0,0,0,.72,2.52c.33.51.56.76.68.76s.32-.24.47-.72a6,6,0,0,0,.29-1.27Zm-3.7.39c-1.62.41-3.14.74-4.56,1l-.13-.52c.54-.09,1.23-.21,2-.37v-2.9H68.65v-.54h4.13v.54H70.93v2.78q1.17-.26,2.13-.51Zm3.23-5.77-.44.3a5.75,5.75,0,0,0-1.12-1.06l.43-.34A5.4,5.4,0,0,1,76.29,332.4Z" fill="#008bfd"/></g></g><path d="M275.36,292.72l8,4-8,4a9.08,9.08,0,0,0,0-8" fill="#505050"/><path d="M67.79,384.27H53.58V355.89H67.79v7.68h.76v-8.44H52.82V385H68.55v-2.32h-.76Z" fill="#0078d7"/><path d="M67,356.69H54.38v4.58H67Zm-9.58,1.91H64v.76H57.44ZM64,360.45H57.41v-.77H64Z" fill="#0078d7"/><path d="M54.34,362v3h8.6v-1.53H67V362Z" fill="#0078d7"/><rect x="54.34" y="365.86" width="8.6" height="2.68" fill="#0078d7"/><path d="M54.34,383.5H67v-.79H62.91V369.33h-8.6V383.5Zm1.53-2.74h2.29V382H55.87Z" fill="#0078d7"/><path d="M77.57,380.45H75.11v-1.88H72.6v1.88H70.15a1.32,1.32,0,0,0-1.31,1.14h10A1.28,1.28,0,0,0,77.57,380.45Z" fill="#0078d7"/><path d="M82.4,366.47H65.3a.64.64,0,0,0-.67.6V377.2a.64.64,0,0,0,.67.6H82.4a.64.64,0,0,0,.67-.6V367.07A.62.62,0,0,0,82.4,366.47Zm-1,9.84H66.32V368H81.38Z" fill="#0078d7"/><path d="M77.76,373.82v-3.44l-3.51-1.85-3.5,1.78v3.54l3.5,1.81Zm-4.4-2.3.89-.44.86.44-.86.48Zm0-1.14.86-.45.86.45-.86.47Zm1.91,4.52-1,.51v-.93l1-.5Zm0-1.18-1,.51v-.92l1-.51Zm0-1.11-1,.51v-.93l1-.51ZM74.48,371l.86-.45.89.45-.86.45Zm2,3.34-1,.51v-.92l1-.51Zm0-1.17-1,.5v-.92l1-.51Zm0-1.15-1,.51v-.89l1-.51Zm1,1.75-.86.45v-.93l.86-.44Zm0-1.15-.86.45v-.92l.86-.45Zm0-1.14-.86.44V371l.86-.45Zm-.19-1.05-.89.44-.89-.44.86-.45Zm-1.11-.58-.89.45-.86-.45.86-.44Zm-2-1.05.86.45-.86.44-.89-.44Zm-1.11.61.86.44-.86.45-.86-.45Zm-1.08.57.89.45-.89.44-.9-.44Zm-.26,4.27-.86-.45v-.92l.86.44Zm0-1.18-.86-.45v-.92l.86.45Zm0-1.15-.86-.44v-.89l.86.44ZM73,374.8l-1-.51v-.92l1,.51Zm0-1.18-1-.5v-.93l1,.51Zm0-1.14L72,372v-.89l1,.51Zm-.7-1.53.89-.45L74,371l-.89.48Zm1.88,4.46-1-.51V374l1,.51Zm0-1.15-1-.51v-.92l1,.51Zm0-1.14-1-.51v-.93l1,.51Z" fill="#0078d7"/><g style="isolation:isolate"><path d="M45,388c-.07.3-.17.68-.31,1.13l-.21.63v6.9H44v-5.5a12.84,12.84,0,0,1-.77,1.43l-.28-.54a15.31,15.31,0,0,0,1.58-4.2Zm6.7,6.82H50.26v1a.92.92,0,0,1-.2.6,1.24,1.24,0,0,1-.91.23,4.45,4.45,0,0,1-.57,0l-.28-.49a7.86,7.86,0,0,0,.79,0,1.4,1.4,0,0,0,.52-.05.15.15,0,0,0,.1-.16v-1.15H44.94v-.45h4.77v-.59h.55v.59h1.45Zm0-1.15-.35.32c-.1-.13-.23-.3-.4-.5l-5.85.31-.08-.45,2.9-.15v-.69H45.55v-2.76H48v-.69h-2.8v-.46H48v-.75h.52v.75h3v.46h-3v.69H51v2.76h-.35A8,8,0,0,1,51.74,393.66ZM48,395.92l-.38.39a13.93,13.93,0,0,0-1.76-1l.36-.39A14.71,14.71,0,0,1,48,395.92Zm0-5v-.71H46.08v.71Zm0,1.16v-.73H46.08v.73Zm2.51-1.16v-.71h-2v.71Zm0,1.16v-.73h-2v.73Zm.06,1a2.61,2.61,0,0,0-.44-.4l.18-.15H48.48v.65C49.15,393.1,49.83,393.07,50.53,393.05Z" fill="#0078d7"/><path d="M54.05,394.26a10.07,10.07,0,0,1-.61,2.35l-.47-.17a9.53,9.53,0,0,0,.59-2.3Zm2.41-.62-.46.16a4.25,4.25,0,0,0-.16-.58,24.4,24.4,0,0,1-2.64.69l-.15-.46A15.94,15.94,0,0,0,55,391c-.53.11-1.12.21-1.77.29l-.13-.47a10.67,10.67,0,0,0,1.65-2.94l.47.17a10.38,10.38,0,0,1-1.46,2.68,12,12,0,0,0,1.57-.29,4.85,4.85,0,0,0,.4-.75l.46.2a15.13,15.13,0,0,1-2.29,3.37,12.25,12.25,0,0,0,1.76-.5c-.07-.19-.15-.4-.25-.62l.45-.19A9,9,0,0,1,56.46,393.64Zm-1.18,2.55-.51.1a7.78,7.78,0,0,0-.32-2l.5-.08A12,12,0,0,1,55.28,396.19Zm1.14-.79-.47.15a8.78,8.78,0,0,0-.4-1.42L56,394A8.41,8.41,0,0,1,56.42,395.4Zm5.23-5.88H58.59a13,13,0,0,1-1.34,2.25,26.07,26.07,0,0,0,3.13-.33,7.75,7.75,0,0,0-.74-.93l.44-.28a13.09,13.09,0,0,1,1.47,2.09l-.42.31a5.56,5.56,0,0,0-.46-.75l-.93.15v3.73c0,.15.08.22.23.22h.71a.32.32,0,0,0,.23-.09,1.34,1.34,0,0,0,.15-.61c0-.35.06-.74.07-1.18l.5.18a6.53,6.53,0,0,1-.15,1.54.82.82,0,0,1-.37.54,1.93,1.93,0,0,1-.84.13,1.67,1.67,0,0,1-.81-.14.6.6,0,0,1-.22-.54v-3.72c-.55.07-.9.1-1,.1a5.27,5.27,0,0,1-1.86,4.45l-.35-.36a4.42,4.42,0,0,0,1.25-1.57,5.86,5.86,0,0,0,.45-2.47,9,9,0,0,1-1.1.06l-.11-.45A8.5,8.5,0,0,0,58,389.52H56.35V389h1.92c.12-.26.27-.65.47-1.18l.49.15c-.17.46-.31.81-.42,1h2.84Z" fill="#0078d7"/><path d="M71.65,396.42H63v-.5h4.11v-1.41H63.61V394h3.46v-1h.52v1H71v.49H67.59v1.41h4.06Zm-3.37-5.61H66.85v2.26h-.51v-2.26H65a3.44,3.44,0,0,1-1.43,2.52l-.42-.35a3.11,3.11,0,0,0,1.34-2.17H63v-.51h1.5c0-.6,0-1.14,0-1.63H63.32v-.49h4.83v.49h-1.3v1.63h1.43Zm-1.94-.51v-1.63H65.09c0,.39,0,.94-.06,1.63Zm3.13,1.43H69v-3.34h.51Zm1.73.82A.67.67,0,0,1,71,393a.72.72,0,0,1-.36.23,3.25,3.25,0,0,1-.75.05H69.2l-.22-.55c.34,0,.65.05.94.05a2.64,2.64,0,0,0,.52,0,.32.32,0,0,0,.18-.15.6.6,0,0,0,.07-.3V388h.51Z" fill="#0078d7"/><path d="M81.56,389.1H74.18V392a12.84,12.84,0,0,1-.79,4.71l-.43-.36a12.15,12.15,0,0,0,.72-4.34v-3.36h3.74c-.13-.21-.26-.43-.4-.64l.52-.12a3.25,3.25,0,0,1,.45.76h3.57Zm-5.68,5.38a7.12,7.12,0,0,1-1.18,1.92l-.39-.34a6,6,0,0,0,1.09-1.79Zm.56-5a6.5,6.5,0,0,1-.62,1.35v3.13h-.5v-2.42a6.11,6.11,0,0,1-.62.72l-.33-.39A6.88,6.88,0,0,0,76,389.27Zm5,4.39H77v-2.5c-.16.21-.39.48-.68.8l-.3-.42a9,9,0,0,0,1.66-2.44l.44.17a5.9,5.9,0,0,1-.35.72h1.5a4.08,4.08,0,0,0-.38-.68l.49-.14a4,4,0,0,1,.44.82h1.59v.46H79.58v.58h1.7v.46h-1.7v.63h1.7v.46h-1.7v.62h1.87Zm-1.3,1.52a1.78,1.78,0,0,1-.18.77.69.69,0,0,1-.43.35,8.12,8.12,0,0,1-1.47.08,5.42,5.42,0,0,1-1-.06.58.58,0,0,1-.36-.24,1,1,0,0,1-.13-.55v-1.44H77v1.47c0,.16,0,.26.14.29a4.63,4.63,0,0,0,1,.05,7.42,7.42,0,0,0,1.11,0,.46.46,0,0,0,.27-.22,1.5,1.5,0,0,0,.09-.65Zm-1.06-4.15v-.58H77.52v.58Zm0,1.09v-.63H77.52v.63Zm0,1.08v-.62H77.52v.62Zm-.1,1.79-.44.28a6.39,6.39,0,0,0-.87-1l.44-.29A7.14,7.14,0,0,1,79,395.17Zm2.71.88-.43.26a9.48,9.48,0,0,0-1.21-1.77l.44-.27A10.69,10.69,0,0,1,81.71,396.05Z" fill="#0078d7"/><path d="M56.21,407.92a.61.61,0,0,1-.29.57,3.43,3.43,0,0,1-1.31.16h-.44l-.16-.55.72,0a3,3,0,0,0,.83-.06.2.2,0,0,0,.12-.19v-2.41H52.85v2.93h-.54v-2.93H49.46a6.67,6.67,0,0,1-1,3.15l-.47-.33a6.3,6.3,0,0,0,1-3.6v-4.59h7.24Zm-3.9-5.47v-1.82h-2.8v1.82Zm0,2.49V403h-2.8v1.94Zm3.37-2.49v-1.82H52.85v1.82Zm0,2.49V403H52.85v1.94Z" fill="#0078d7"/><path d="M61.37,404.86l-.36.4a6.76,6.76,0,0,0-.86-1.25v4.63h-.52V404a13.39,13.39,0,0,1-1.35,2.47l-.35-.41a13.76,13.76,0,0,0,1.67-3.2H58v-.5h1.65v-1.48l-1.22.23-.27-.5a10.48,10.48,0,0,0,2.89-.69l.31.46c-.49.17-.89.29-1.19.38v1.6h1.19v.5H60.15v.41A8.73,8.73,0,0,1,61.37,404.86Zm5.3,3.54H61v-.49h2.57v-1.53H61.39v-.5h2.22v-1.45c-1.07.07-1.73.11-2,.11l-.24-.51a22.13,22.13,0,0,0,4.76-.53l.34.45a23.69,23.69,0,0,1-2.35.42v1.51h2.15v.5H64.14v1.53h2.53ZM66,402.92H61.74v-2.73H66Zm-.53-.51v-1.72H62.27v1.72Z" fill="#0078d7"/><path d="M76.67,406.49c-.3,1.5-.72,2.25-1.28,2.25a.74.74,0,0,1-.39-.12,2.65,2.65,0,0,1-.53-.62,5.57,5.57,0,0,1-.62-1.2,8.11,8.11,0,0,1-.4-2.05c-.09-.88-.16-1.75-.2-2.62H68v-.54h5.19c0-.74,0-1.31,0-1.72h.52c0,.79,0,1.36,0,1.72h2.91v.54H73.75c0,.69.11,1.63.25,2.8a6.1,6.1,0,0,0,.71,2.51c.34.51.57.76.69.76s.32-.23.47-.71a6,6,0,0,0,.29-1.28Zm-3.7.39c-1.62.41-3.14.75-4.56,1l-.13-.52c.54-.09,1.23-.21,2-.37v-2.9H68.56v-.54h4.13v.54H70.84v2.78q1.17-.24,2.13-.51Zm3.23-5.77-.44.3a6.4,6.4,0,0,0-1.12-1.06l.43-.34A5.65,5.65,0,0,1,76.2,401.11Z" fill="#0078d7"/></g><path d="M7.85,152.05a4.49,4.49,0,0,0-3,5.66c.66,2.56,3,4.22,5.27,3.67a4.49,4.49,0,0,0,3-5.66C12.57,153.05,10.16,151.39,7.85,152.05Z" fill="#008bfd"/><path d="M12.78,162.07c-.43,0-.88.77-1.54,1.11s-1.31.88-3.17,0-2.1-1.67-3.64-1.67-4,2.78-4,6.88H16a12.24,12.24,0,0,0-1.11-4.22C13.77,162.07,13.23,162.07,12.78,162.07Z" fill="#008bfd"/><path d="M14.19,157.12H10.07a.71.71,0,0,0-.65.66v2.85a.73.73,0,0,0,.76.66h.76v5.15a1,1,0,0,0,1,1.09,1,1,0,0,0,1-1h.21v-.66c0-.22.33-.33.33-.33v-.33c-.33-.11-.54-.33-.54-.44v-.32l.21-.22a3.53,3.53,0,0,0,.33-.55,2.4,2.4,0,0,1-.33-.55c-.1-.11-.1-.33-.21-.44v-.22a2.52,2.52,0,0,1,.76-1.09h.54a.71.71,0,0,0,.65-.66v-3A.63.63,0,0,0,14.19,157.12Zm-2.39,9.54c0,.22,0,.33-.21.33s-.22-.22-.22-.33v-4.82c0-.22.11-.33.22-.33s.21.22.21.33Zm.33-7.78a.66.66,0,0,1,0-1.32.71.71,0,0,1,.65.66A.63.63,0,0,1,12.13,158.88Z" fill="#008bfd" stroke="gray" stroke-linecap="round" stroke-linejoin="round" stroke-width="0.75"/><path d="M11.57,167a.24.24,0,0,1-.22-.22v-5a.22.22,0,1,1,.44,0v5.1C11.79,167,11.68,167,11.57,167Z" fill="#fff"/><ellipse cx="12.14" cy="158.2" rx="0.66" ry="0.67" fill="#fff"/><path d="M275.36,292.71l8,4-8,4a9.06,9.06,0,0,0,0-8" fill="#505050"/><path d="M275.37,292.71l8,4-8,4a9,9,0,0,0,0-8" fill="#505050"/><path d="M275.37,292.71l8,4-8,4a9,9,0,0,0,0-8" fill="#505050"/><path d="M275.37,292.71l8,4-8,4a9,9,0,0,0,0-8" fill="#505050"/><path d="M413.15,284h-20.5a1.1,1.1,0,0,0-1.09,1.11v16.74a1.09,1.09,0,0,0,1.09,1.1h5.28a3.29,3.29,0,0,0,3.21,2.27,3.38,3.38,0,0,0,0-6.75,3.29,3.29,0,0,0-3.21,2.27h-4.19v-12h18.31v12H408.6a7.61,7.61,0,0,0-7.46-6.56,8.25,8.25,0,0,0-3.64.92l1,2a5.27,5.27,0,0,1,2.55-.67,5.46,5.46,0,0,1,0,10.92,5.28,5.28,0,0,1-2.55-.68l-1,2a7.4,7.4,0,0,0,3.64.92,7.61,7.61,0,0,0,7.46-6.56h4.55a1.09,1.09,0,0,0,1.09-1.1V285.08A1.14,1.14,0,0,0,413.15,284Z" fill="#008bfd"/><g style="isolation:isolate"><path d="M401.06,323.24h-.93l-.82-2.15h-3.24l-.77,2.15h-.92l2.91-7.57h.84Zm-2-2.91-1.21-3.27a3.71,3.71,0,0,1-.11-.5h0a1.92,1.92,0,0,1-.12.5l-1.2,3.27Z" fill="#008bfd"/><path d="M402.76,320.36v2.88h-.83v-7.57H404a2.7,2.7,0,0,1,1.85.59,2.1,2.1,0,0,1,.67,1.66,2.25,2.25,0,0,1-.79,1.8,2.65,2.65,0,0,1-1.93.64Zm0-3.92v3.15h.95a2.16,2.16,0,0,0,1.43-.42,1.55,1.55,0,0,0,.49-1.21c0-1-.6-1.52-1.8-1.52Z" fill="#008bfd"/><path d="M408.53,323.24h-.83v-7.57h.83Z" fill="#008bfd"/><path d="M391.54,328.2h-7.38v2.89a12.84,12.84,0,0,1-.79,4.71l-.43-.36a12.19,12.19,0,0,0,.72-4.34v-3.36h3.74c-.13-.22-.26-.43-.4-.64l.52-.13a3.55,3.55,0,0,1,.45.77h3.57Zm-5.68,5.39a7.06,7.06,0,0,1-1.18,1.91l-.39-.33a6.07,6.07,0,0,0,1.09-1.79Zm.56-5a6.69,6.69,0,0,1-.62,1.34V333h-.5v-2.41a6.16,6.16,0,0,1-.62.71l-.33-.39a6.85,6.85,0,0,0,1.62-2.56Zm5,4.39H387v-2.5c-.16.2-.39.47-.68.8l-.3-.42a9.1,9.1,0,0,0,1.66-2.44l.44.17a5.17,5.17,0,0,1-.35.71h1.5a4.12,4.12,0,0,0-.38-.67l.49-.15a4.33,4.33,0,0,1,.44.82h1.59v.47h-1.84v.57h1.7v.47h-1.7v.63h1.7v.46h-1.7v.62h1.87Zm-1.3,1.51a1.87,1.87,0,0,1-.18.78.67.67,0,0,1-.43.34,7,7,0,0,1-1.47.09,5.42,5.42,0,0,1-1.05-.06.56.56,0,0,1-.36-.25.94.94,0,0,1-.13-.54v-1.44h.5v1.47a.29.29,0,0,0,.14.29,5.48,5.48,0,0,0,1,.05,7,7,0,0,0,1.12-.05.41.41,0,0,0,.26-.21,1.58,1.58,0,0,0,.09-.66Zm-1.06-4.15v-.57H387.5v.57Zm0,1.1v-.63H387.5v.63Zm0,1.08v-.62H387.5v.62Zm-.1,1.78-.44.29a6,6,0,0,0-.87-1l.44-.3A7.71,7.71,0,0,1,389,334.27Zm2.71.89-.43.26a9.57,9.57,0,0,0-1.21-1.78l.44-.26A10.29,10.29,0,0,1,391.69,335.16Z" fill="#008bfd"/><path d="M400.94,335a.59.59,0,0,1-.29.56,3.23,3.23,0,0,1-1.31.16h-.44l-.16-.54.72,0a3,3,0,0,0,.83-.06.2.2,0,0,0,.12-.19v-2.41h-2.83v2.92H397v-2.92h-2.85a6.63,6.63,0,0,1-1,3.14l-.47-.32a6.33,6.33,0,0,0,1-3.61v-4.59h7.24Zm-3.9-5.47v-1.82h-2.8v1.82Zm0,2.49V330.1h-2.8v1.95Zm3.37-2.49v-1.82h-2.83v1.82Zm0,2.49V330.1h-2.83v1.95Z" fill="#008bfd"/><path d="M405.85,332l-.36.4a7.51,7.51,0,0,0-.86-1.25v4.63h-.52V331.1a13.73,13.73,0,0,1-1.35,2.47l-.35-.41a14,14,0,0,0,1.67-3.2h-1.62v-.51h1.65V328l-1.22.22-.27-.49a10.85,10.85,0,0,0,2.89-.69l.31.46-1.19.38v1.59h1.19V330h-1.19v.41A8.74,8.74,0,0,1,405.85,332Zm5.3,3.54h-5.63V335h2.57v-1.53h-2.22V333h2.22v-1.45l-2,.12-.24-.52a22.18,22.18,0,0,0,4.76-.52l.34.45c-.67.15-1.45.29-2.35.42V333h2.15v.51h-2.15V335h2.53Zm-.64-5.47h-4.29V327.3h4.29Zm-.53-.51v-1.73h-3.23v1.73Z" fill="#008bfd"/><path d="M420.9,333.6c-.3,1.5-.72,2.25-1.28,2.25a.67.67,0,0,1-.39-.13,2.53,2.53,0,0,1-.53-.61,5.92,5.92,0,0,1-.62-1.21,8.11,8.11,0,0,1-.4-2c-.09-.88-.16-1.76-.2-2.63h-5.23v-.53h5.19c0-.74,0-1.32,0-1.73h.52c0,.8,0,1.37,0,1.73h2.91v.53H418c0,.7.11,1.63.25,2.8a6,6,0,0,0,.72,2.52c.33.51.56.76.68.76s.32-.24.47-.72a6,6,0,0,0,.29-1.27Zm-3.7.39c-1.62.41-3.14.74-4.56,1l-.13-.53c.54-.08,1.23-.21,2.05-.36v-2.9h-1.77v-.54h4.13v.54h-1.85V334q1.17-.25,2.13-.51Zm3.23-5.78-.44.31a5.75,5.75,0,0,0-1.12-1.06l.43-.34A5.56,5.56,0,0,1,420.43,328.21Z" fill="#008bfd"/></g><path d="M383.08,292.71l8,4-8,4a9,9,0,0,0,0-8" fill="#505050"/><path d="M10.33,216.18a4.49,4.49,0,0,0-3,5.66c.66,2.56,3,4.22,5.27,3.67a4.49,4.49,0,0,0,3-5.66C15.05,217.18,12.64,215.52,10.33,216.18Z" fill="#008bfd"/><path d="M15.27,226.2c-.44,0-.88.77-1.54,1.11s-1.32.88-3.18,0-2.09-1.67-3.63-1.67-4.06,2.78-4.06,6.88H18.45a12.14,12.14,0,0,0-1.1-4.22C16.25,226.2,15.71,226.2,15.27,226.2Z" fill="#008bfd"/><path d="M16.67,221.25H12.55a.71.71,0,0,0-.65.66v2.85a.73.73,0,0,0,.76.66h.76v5.15a1,1,0,0,0,1,1.09,1,1,0,0,0,1-1h.21V230c0-.22.33-.33.33-.33v-.33c-.33-.11-.54-.33-.54-.44v-.32l.21-.22a3.53,3.53,0,0,0,.33-.55,2.4,2.4,0,0,1-.33-.55c-.1-.11-.1-.33-.21-.44v-.22a2.52,2.52,0,0,1,.76-1.09h.54a.71.71,0,0,0,.65-.66v-3A.63.63,0,0,0,16.67,221.25Zm-2.39,9.54c0,.22,0,.33-.21.33s-.22-.22-.22-.33V226c0-.22.11-.33.22-.33s.21.22.21.33Zm.33-7.78a.66.66,0,0,1,0-1.32.71.71,0,0,1,.65.66A.63.63,0,0,1,14.61,223Z" fill="#008bfd" stroke="gray" stroke-linecap="round" stroke-linejoin="round" stroke-width="0.75"/><path d="M14.05,231.09a.24.24,0,0,1-.22-.22v-5a.22.22,0,1,1,.44,0V231C14.27,231.09,14.16,231.09,14.05,231.09Z" fill="#fff"/><ellipse cx="14.62" cy="222.34" rx="0.66" ry="0.67" fill="#fff"/><path d="M7.85,76.58a4.49,4.49,0,0,0-3,5.66c.66,2.56,3,4.22,5.27,3.67a4.49,4.49,0,0,0,3-5.66C12.57,77.58,10.16,75.92,7.85,76.58Z" fill="#008bfd"/><path d="M12.78,86.6c-.43,0-.88.77-1.54,1.11s-1.31.88-3.17,0S6,86,4.43,86s-4,2.78-4,6.88H16a12.24,12.24,0,0,0-1.11-4.22C13.77,86.6,13.23,86.6,12.78,86.6Z" fill="#008bfd"/><path d="M14.19,81.65H10.07a.71.71,0,0,0-.65.66v2.85a.73.73,0,0,0,.76.66h.76V91a1,1,0,0,0,1,1.09,1,1,0,0,0,1-1h.21v-.66c0-.22.33-.33.33-.33v-.33c-.33-.11-.54-.33-.54-.44V89l.21-.22a3.53,3.53,0,0,0,.33-.55,2.4,2.4,0,0,1-.33-.55c-.1-.11-.1-.33-.21-.44V87a2.52,2.52,0,0,1,.76-1.09h.54a.71.71,0,0,0,.65-.66v-3A.63.63,0,0,0,14.19,81.65ZM11.8,91.19c0,.22,0,.33-.21.33s-.22-.22-.22-.33V86.37c0-.22.11-.33.22-.33s.21.22.21.33Zm.33-7.78a.66.66,0,0,1,0-1.32.71.71,0,0,1,.65.66A.63.63,0,0,1,12.13,83.41Z" fill="#008bfd" stroke="gray" stroke-linecap="round" stroke-linejoin="round" stroke-width="0.75"/><path d="M11.57,91.49a.24.24,0,0,1-.22-.22v-5a.22.22,0,1,1,.44,0v5.1C11.79,91.49,11.68,91.49,11.57,91.49Z" fill="#fff"/><ellipse cx="12.14" cy="82.73" rx="0.66" ry="0.67" fill="#fff"/><path d="M10.33,368.69a4.49,4.49,0,0,0-3,5.66c.66,2.56,3,4.22,5.27,3.67a4.49,4.49,0,0,0,3-5.66C15.05,369.69,12.64,368,10.33,368.69Z" fill="#008bfd"/><path d="M15.27,378.71c-.44,0-.88.77-1.54,1.11s-1.32.88-3.18,0-2.09-1.67-3.63-1.67S2.86,380.93,2.86,385H18.45a12.14,12.14,0,0,0-1.1-4.22C16.25,378.71,15.71,378.71,15.27,378.71Z" fill="#008bfd"/><path d="M16.67,373.76H12.55a.71.71,0,0,0-.65.66v2.85a.73.73,0,0,0,.76.66h.76v5.15a1,1,0,0,0,1,1.09,1,1,0,0,0,1-1h.21v-.66c0-.22.33-.33.33-.33v-.33c-.33-.11-.54-.33-.54-.44v-.32l.21-.22a3.53,3.53,0,0,0,.33-.55,2.4,2.4,0,0,1-.33-.55c-.1-.11-.1-.33-.21-.44v-.22a2.52,2.52,0,0,1,.76-1.09h.54a.71.71,0,0,0,.65-.66v-3A.63.63,0,0,0,16.67,373.76Zm-2.39,9.54c0,.22,0,.33-.21.33s-.22-.22-.22-.33v-4.82c0-.22.11-.33.22-.33s.21.22.21.33Zm.33-7.78a.66.66,0,0,1,0-1.32.71.71,0,0,1,.65.66A.63.63,0,0,1,14.61,375.52Z" fill="#008bfd" stroke="gray" stroke-linecap="round" stroke-linejoin="round" stroke-width="0.75"/><path d="M14.05,383.6a.24.24,0,0,1-.22-.22v-5a.22.22,0,1,1,.44,0v5.1C14.27,383.6,14.16,383.6,14.05,383.6Z" fill="#fff"/><ellipse cx="14.62" cy="374.84" rx="0.66" ry="0.67" fill="#fff"/><path d="M10.33,431.4a4.49,4.49,0,0,0-3,5.66c.66,2.56,3,4.22,5.27,3.67a4.49,4.49,0,0,0,3-5.66C15.05,432.4,12.64,430.74,10.33,431.4Z" fill="#008bfd"/><path d="M15.27,441.42c-.44,0-.88.77-1.54,1.11s-1.32.88-3.18,0-2.09-1.67-3.63-1.67-4.06,2.78-4.06,6.88H18.45a12.14,12.14,0,0,0-1.1-4.22C16.25,441.42,15.71,441.42,15.27,441.42Z" fill="#008bfd"/><path d="M16.67,436.47H12.55a.71.71,0,0,0-.65.66V440a.73.73,0,0,0,.76.66h.76v5.15a1,1,0,0,0,1,1.09,1,1,0,0,0,1-1h.21v-.66c0-.22.33-.33.33-.33v-.33c-.33-.11-.54-.33-.54-.44v-.32l.21-.22a3.53,3.53,0,0,0,.33-.55,2.4,2.4,0,0,1-.33-.55c-.1-.11-.1-.33-.21-.44v-.22a2.52,2.52,0,0,1,.76-1.09h.54a.71.71,0,0,0,.65-.66v-3A.63.63,0,0,0,16.67,436.47ZM14.28,446c0,.22,0,.33-.21.33s-.22-.22-.22-.33v-4.82c0-.22.11-.33.22-.33s.21.22.21.33Zm.33-7.78a.66.66,0,0,1,0-1.32.71.71,0,0,1,.65.66A.63.63,0,0,1,14.61,438.23Z" fill="#008bfd" stroke="gray" stroke-linecap="round" stroke-linejoin="round" stroke-width="0.75"/><path d="M14.05,446.31a.24.24,0,0,1-.22-.22v-5a.22.22,0,1,1,.44,0v5.1C14.27,446.31,14.16,446.31,14.05,446.31Z" fill="#fff"/><ellipse cx="14.62" cy="437.56" rx="0.66" ry="0.67" fill="#fff"/><g style="isolation:isolate"><path d="M47.36,41.63H43.27V43h-.51V41.63H38.67v-.49h4.09v-.81H39.7V37.17h6.64v3.16H43.27v.81h4.09ZM42.58,36.5H39.39v-2h3.19ZM42.07,36V35H39.91v1Zm.69,2.47v-.8H40.23v.8Zm0,1.38V39H40.23v.89Zm3.06-1.38v-.8H43.27v.8Zm0,1.38V39H43.27v.89Zm.86-3.34H43.5v-2h3.18ZM46.15,36V35H44v1Z" fill="#008bfd"/><path d="M57.34,38.76H48.67v-.57h8.67Z" fill="#008bfd"/><path d="M67.36,35.05h-4a10.49,10.49,0,0,1-.43,1.08h3.33v4.93H61.88l.3.3a12.24,12.24,0,0,1-3,1.71l-.35-.46a10,10,0,0,0,2.9-1.55h-2V36.13h2.59a7.09,7.09,0,0,0,.43-1.08H58.66v-.5h8.7Zm-1.63,2.48v-.88H60.31v.88Zm0,1.48V38H60.31v1Zm0,1.53v-1H60.31v1Zm1.46,2-.28.49a12.33,12.33,0,0,0-3-1.25l.26-.45A17.77,17.77,0,0,1,67.19,42.56Z" fill="#008bfd"/><path d="M77.33,35.05H73.4c-.22.51-.43,1-.62,1.29h3.87V43h-.52v-.6H69.87V43h-.53V36.34h2.83a5.49,5.49,0,0,0,.64-1.29H68.65v-.5h8.68Zm-6,6.84v-5H69.87v5Zm2.9-3.78V36.87H71.83v1.24Zm0,1.85V38.61H71.83V40Zm0,1.93V40.45H71.83v1.44Zm1.94,0v-5H74.7v5Z" fill="#008bfd"/><path d="M87.23,35.5H79.86v2.88a12.85,12.85,0,0,1-.8,4.72l-.42-.36a12.21,12.21,0,0,0,.72-4.35V35H83.1c-.13-.22-.27-.43-.4-.64l.52-.13a4,4,0,0,1,.44.77h3.57Zm-5.67,5.38a7.38,7.38,0,0,1-1.18,1.92L80,42.47a6.13,6.13,0,0,0,1.09-1.8Zm.56-5a6.69,6.69,0,0,1-.62,1.34v3.13H81V37.92a7.14,7.14,0,0,1-.62.71l-.33-.39a7.07,7.07,0,0,0,1.62-2.57Zm5,4.39H82.69v-2.5l-.69.8-.29-.42a9.21,9.21,0,0,0,1.66-2.45l.44.18a5.27,5.27,0,0,1-.36.71H85a5.72,5.72,0,0,0-.38-.68l.49-.14a4.6,4.6,0,0,1,.44.82H87.1V37H85.26v.57H87v.47h-1.7v.63H87v.46h-1.7v.62h1.87Zm-1.3,1.51a2,2,0,0,1-.18.78.69.69,0,0,1-.44.34,7.11,7.11,0,0,1-1.47.08,5.9,5.9,0,0,1-1-.05.61.61,0,0,1-.36-.25,1,1,0,0,1-.13-.54V40.67h.51v1.47c0,.16,0,.26.14.29a4.32,4.32,0,0,0,1,.06A7,7,0,0,0,85,42.44a.39.39,0,0,0,.26-.21,1.58,1.58,0,0,0,.09-.66Zm-1.06-4.15V37H83.2v.57Zm0,1.1v-.63H83.2v.63Zm0,1.08v-.62H83.2v.62Zm-.1,1.78-.44.29a6,6,0,0,0-.87-1l.44-.3A7.71,7.71,0,0,1,84.68,41.57Zm2.71.89-.43.26a9.6,9.6,0,0,0-1.22-1.78l.44-.27A10.25,10.25,0,0,1,87.39,42.46Z" fill="#008bfd"/><path d="M56.89,54.33a.59.59,0,0,1-.29.56,3.26,3.26,0,0,1-1.31.16h-.44l-.16-.54q.36,0,.72,0a3,3,0,0,0,.83-.06.2.2,0,0,0,.11-.19V51.86H53.53v2.93H53V51.86H50.13a6.67,6.67,0,0,1-1,3.15l-.46-.32a6.33,6.33,0,0,0,1-3.61V46.49h7.24ZM53,48.86V47h-2.8v1.82Zm0,2.49v-2h-2.8v2Zm3.36-2.49V47H53.53v1.82Zm0,2.49v-2H53.53v2Z" fill="#008bfd"/><path d="M62.05,51.26l-.36.4a7.12,7.12,0,0,0-.86-1.25V55h-.52V50.39A14.85,14.85,0,0,1,59,52.87l-.35-.41a14,14,0,0,0,1.67-3.2H58.65v-.51h1.66V47.27l-1.23.23L58.82,47a11,11,0,0,0,2.89-.69l.3.46-1.18.38v1.59H62v.51H60.83v.41A9.24,9.24,0,0,1,62.05,51.26Zm5.3,3.54H61.72v-.48h2.56V52.79H62.07v-.51h2.21V50.83l-2,.12-.24-.52a22.26,22.26,0,0,0,4.76-.52l.34.45c-.67.15-1.46.29-2.35.42v1.5H67v.51H64.82v1.53h2.53Zm-.64-5.47h-4.3V46.6h4.3Zm-.54-.51V47.09H63v1.73Z" fill="#008bfd"/><path d="M77.35,52.89c-.3,1.51-.73,2.26-1.28,2.26a.75.75,0,0,1-.39-.13,2.51,2.51,0,0,1-.54-.61,5.92,5.92,0,0,1-.61-1.21,8.51,8.51,0,0,1-.41-2c-.09-.88-.15-1.76-.19-2.63H68.7V48h5.18c0-.75,0-1.32,0-1.73h.53c0,.79,0,1.37,0,1.73h2.91v.53H74.43c0,.7.11,1.63.25,2.8a6.05,6.05,0,0,0,.71,2.52c.34.51.56.76.68.76s.32-.24.48-.72a6.64,6.64,0,0,0,.29-1.27Zm-3.7.4c-1.62.41-3.14.74-4.57,1L69,53.76c.54-.08,1.22-.21,2.05-.36V50.5H69.24V50h4.13v.54H71.52v2.78q1.17-.26,2.13-.51Zm3.23-5.78-.44.31a5.78,5.78,0,0,0-1.13-1.06l.43-.34A5.32,5.32,0,0,1,76.88,47.51Z" fill="#008bfd"/></g><path d="M7.85,6.77a4.49,4.49,0,0,0-3,5.66c.66,2.56,3,4.22,5.27,3.67a4.49,4.49,0,0,0,3-5.66C12.57,7.77,10.16,6.11,7.85,6.77Z" fill="#008bfd"/><path d="M12.78,16.79c-.43,0-.88.77-1.54,1.11s-1.31.88-3.17,0S6,16.23,4.43,16.23s-4,2.78-4,6.88H16a12.24,12.24,0,0,0-1.11-4.22C13.77,16.79,13.23,16.79,12.78,16.79Z" fill="#008bfd"/><path d="M14.19,11.84H10.07a.71.71,0,0,0-.65.66v2.85a.73.73,0,0,0,.76.66h.76v5.15a1,1,0,0,0,1,1.09,1,1,0,0,0,1-1h.21v-.66c0-.22.33-.33.33-.33V20c-.33-.11-.54-.33-.54-.44v-.32L13.1,19a3.53,3.53,0,0,0,.33-.55,2.4,2.4,0,0,1-.33-.55c-.1-.11-.1-.33-.21-.44v-.22a2.52,2.52,0,0,1,.76-1.09h.54a.71.71,0,0,0,.65-.66v-3A.63.63,0,0,0,14.19,11.84ZM11.8,21.38c0,.22,0,.33-.21.33s-.22-.22-.22-.33V16.56c0-.22.11-.33.22-.33s.21.22.21.33Zm.33-7.78a.66.66,0,0,1,0-1.32.71.71,0,0,1,.65.66A.63.63,0,0,1,12.13,13.6Z" fill="#008bfd" stroke="gray" stroke-linecap="round" stroke-linejoin="round" stroke-width="0.75"/><path d="M11.57,21.68a.24.24,0,0,1-.22-.22v-5a.22.22,0,1,1,.44,0v5.1C11.79,21.68,11.68,21.68,11.57,21.68Z" fill="#fff"/><ellipse cx="12.14" cy="12.93" rx="0.66" ry="0.67" fill="#fff"/><g style="isolation:isolate"><path d="M40.75,104.77l-2.14,7.57h-1l-1.57-5.57a3.26,3.26,0,0,1-.12-.77h0a3.91,3.91,0,0,1-.14.76l-1.59,5.58h-1L31,104.77h.92l1.64,5.85a3.43,3.43,0,0,1,.12.76h0a5.23,5.23,0,0,1,.16-.76l1.69-5.85h.79l1.63,5.9a4.42,4.42,0,0,1,.13.7h0a3.34,3.34,0,0,1,.14-.72l1.58-5.88Z" fill="#008bfd"/><path d="M45.82,109.84H42a2.12,2.12,0,0,0,.49,1.43,1.7,1.7,0,0,0,1.29.5,2.67,2.67,0,0,0,1.68-.61v.78a3.07,3.07,0,0,1-1.87.53,2.24,2.24,0,0,1-1.78-.74,3,3,0,0,1-.65-2.08,3,3,0,0,1,.7-2,2.25,2.25,0,0,1,1.77-.81,2,2,0,0,1,1.62.68,2.92,2.92,0,0,1,.58,1.91Zm-.84-.72a1.81,1.81,0,0,0-.37-1.18,1.24,1.24,0,0,0-1-.43,1.49,1.49,0,0,0-1,.43,2,2,0,0,0-.56,1.18Z" fill="#008bfd"/><path d="M48,111.55v.79h-.81v-8H48v3.55h0a2,2,0,0,1,1.87-1.09,2,2,0,0,1,1.62.73,2.94,2.94,0,0,1,.6,1.94,3.31,3.31,0,0,1-.67,2.17,2.21,2.21,0,0,1-1.8.82,1.77,1.77,0,0,1-1.62-.92Zm0-1.4a1.55,1.55,0,0,0,.46,1.15,1.45,1.45,0,0,0,1.11.47,1.49,1.49,0,0,0,1.26-.61,2.84,2.84,0,0,0,.45-1.7,2.23,2.23,0,0,0-.42-1.43,1.42,1.42,0,0,0-1.15-.53,1.6,1.6,0,0,0-1.23.53,1.93,1.93,0,0,0-.48,1.34Z" fill="#008bfd"/><path d="M64.35,105.31H57v2.88a12.84,12.84,0,0,1-.8,4.71l-.43-.36a11.93,11.93,0,0,0,.73-4.34v-3.36h3.74c-.13-.22-.27-.43-.4-.64l.51-.12a3.25,3.25,0,0,1,.45.76h3.57Zm-5.68,5.38a7.1,7.1,0,0,1-1.17,1.92l-.39-.34a6.07,6.07,0,0,0,1.09-1.79Zm.57-5a6.5,6.5,0,0,1-.62,1.35v3.13h-.5v-2.42a7.25,7.25,0,0,1-.62.72l-.33-.39a7.23,7.23,0,0,0,1.62-2.57Zm5,4.39H59.81v-2.5c-.17.21-.4.47-.69.8l-.29-.42a9.18,9.18,0,0,0,1.66-2.44l.44.17a6,6,0,0,1-.36.72h1.51a5,5,0,0,0-.38-.68l.49-.14a3.81,3.81,0,0,1,.43.82h1.6v.46H62.38v.58h1.69v.46H62.38v.63h1.69V109H62.38v.62h1.87ZM63,111.57a2.18,2.18,0,0,1-.18.77.74.74,0,0,1-.44.35,8,8,0,0,1-1.47.08,5.56,5.56,0,0,1-1-.06.61.61,0,0,1-.36-.25,1,1,0,0,1-.13-.54v-1.44h.51V112c0,.16,0,.25.14.29a5.48,5.48,0,0,0,1,.05,7,7,0,0,0,1.11-.05.39.39,0,0,0,.26-.21,1.53,1.53,0,0,0,.09-.65Zm-1.06-4.15v-.58H60.31v.58Zm0,1.09v-.63H60.31v.63Zm0,1.08V109H60.31v.62Zm-.11,1.79-.44.28a5.91,5.91,0,0,0-.86-1l.44-.29A6.52,6.52,0,0,1,61.79,111.38Zm2.71.88-.43.26a8.74,8.74,0,0,0-1.21-1.77l.44-.27A9.27,9.27,0,0,1,64.5,112.26Z" fill="#008bfd"/><path d="M74,112.13a.58.58,0,0,1-.29.56,3.21,3.21,0,0,1-1.31.17H72l-.17-.55.73,0a3,3,0,0,0,.83-.06.19.19,0,0,0,.11-.19v-2.41H70.65v2.93H70.1v-2.93H67.25a6.67,6.67,0,0,1-1,3.15l-.47-.33a6.25,6.25,0,0,0,1-3.6V104.3H74Zm-3.91-5.47v-1.82H67.31v1.82Zm0,2.49v-1.94H67.31v1.94Zm3.37-2.49v-1.82H70.65v1.82Zm0,2.49v-1.94H70.65v1.94Z" fill="#008bfd"/><path d="M79.17,109.07l-.36.4a6.76,6.76,0,0,0-.86-1.25v4.63h-.53V108.2a14.45,14.45,0,0,1-1.34,2.47l-.35-.41a14,14,0,0,0,1.67-3.2H75.77v-.5h1.65v-1.48l-1.22.23-.26-.5a11,11,0,0,0,2.89-.69l.3.46c-.48.17-.88.29-1.18.38v1.6h1.18v.5H78v.41A9.22,9.22,0,0,1,79.17,109.07Zm5.3,3.54H78.84v-.49H81.4v-1.53H79.19v-.5H81.4v-1.45c-1.06.07-1.72.1-2,.11l-.24-.51a22.86,22.86,0,0,0,4.76-.53l.33.45c-.67.16-1.45.29-2.34.42v1.51h2.14v.5H81.94v1.53h2.53Zm-.64-5.48h-4.3V104.4h4.3Zm-.54-.51V104.9H80.07v1.72Z" fill="#008bfd"/><path d="M94.47,110.7c-.3,1.5-.73,2.25-1.28,2.25a.67.67,0,0,1-.39-.13,2.32,2.32,0,0,1-.54-.61,5.67,5.67,0,0,1-.61-1.21,8.51,8.51,0,0,1-.41-2c-.09-.88-.15-1.75-.19-2.62H85.82v-.54H91c0-.74,0-1.32,0-1.72h.53c0,.79,0,1.36,0,1.72h2.91v.54H91.55c0,.69.1,1.62.24,2.8a5.93,5.93,0,0,0,.72,2.51c.34.51.56.76.68.76s.32-.24.48-.71a6.9,6.9,0,0,0,.29-1.28Zm-3.71.39c-1.61.41-3.13.74-4.56,1l-.12-.52c.54-.09,1.22-.21,2-.37v-2.9H86.35v-.54h4.14v.54H88.64v2.78c.78-.17,1.49-.34,2.12-.51ZM94,105.32l-.44.3a5.78,5.78,0,0,0-1.13-1.06l.43-.34A5.41,5.41,0,0,1,94,105.32Z" fill="#008bfd"/></g><path d="M10.33,288.82a4.49,4.49,0,0,0-3,5.66c.66,2.56,3,4.22,5.27,3.67a4.49,4.49,0,0,0,3-5.66C15.05,289.82,12.64,288.16,10.33,288.82Z" fill="#008bfd"/><path d="M15.27,298.84c-.44,0-.88.77-1.54,1.11s-1.32.88-3.18,0-2.09-1.67-3.63-1.67-4.06,2.78-4.06,6.88H18.45a12.14,12.14,0,0,0-1.1-4.22C16.25,298.84,15.71,298.84,15.27,298.84Z" fill="#008bfd"/><path d="M16.67,293.89H12.55a.71.71,0,0,0-.65.66v2.85a.73.73,0,0,0,.76.66h.76v5.15a1,1,0,0,0,1,1.09,1,1,0,0,0,1-1h.21v-.66c0-.22.33-.33.33-.33V302c-.33-.11-.54-.33-.54-.44v-.32l.21-.22a3.53,3.53,0,0,0,.33-.55,2.4,2.4,0,0,1-.33-.55c-.1-.11-.1-.33-.21-.44v-.22a2.52,2.52,0,0,1,.76-1.09h.54a.71.71,0,0,0,.65-.66v-3A.63.63,0,0,0,16.67,293.89Zm-2.39,9.54c0,.22,0,.33-.21.33s-.22-.22-.22-.33v-4.82c0-.22.11-.33.22-.33s.21.22.21.33Zm.33-7.78a.66.66,0,0,1,0-1.32.71.71,0,0,1,.65.66A.63.63,0,0,1,14.61,295.65Z" fill="#008bfd" stroke="gray" stroke-linecap="round" stroke-linejoin="round" stroke-width="0.75"/><path d="M14.05,303.73a.24.24,0,0,1-.22-.22v-5a.22.22,0,1,1,.44,0v5.1C14.27,303.73,14.16,303.73,14.05,303.73Z" fill="#fff"/><ellipse cx="14.62" cy="294.98" rx="0.66" ry="0.67" fill="#fff"/><path d="M264.46,263.21l-15.91,11.42,6.08,18.48h19.66l6.08-18.48Z" fill="#fff" stroke="#000" stroke-linecap="round" stroke-linejoin="round" stroke-width="0.24"/><path d="M264.14,270.32a4.49,4.49,0,0,0-3,5.66c.66,2.56,3,4.22,5.27,3.67a4.49,4.49,0,0,0,3-5.66C268.86,271.32,266.45,269.66,264.14,270.32Z" fill="#008bfd"/><path d="M269.07,280.34c-.44,0-.88.77-1.54,1.11s-1.32.88-3.18,0-2.09-1.67-3.63-1.67-4.06,2.78-4.06,6.88h15.59a12.14,12.14,0,0,0-1.1-4.22C270.05,280.34,269.51,280.34,269.07,280.34Z" fill="#008bfd"/><path d="M270.48,275.4h-4.12a.71.71,0,0,0-.65.66v2.85a.73.73,0,0,0,.76.66h.76v5.15a1,1,0,0,0,1,1.09,1,1,0,0,0,1-1h.21v-.66c0-.22.33-.33.33-.33v-.33c-.33-.11-.54-.33-.54-.44v-.32l.21-.22a3.53,3.53,0,0,0,.33-.55,2.4,2.4,0,0,1-.33-.55c-.1-.11-.1-.33-.21-.44v-.22a2.52,2.52,0,0,1,.76-1.09h.54a.71.71,0,0,0,.65-.66v-3A.63.63,0,0,0,270.48,275.4Zm-2.39,9.54c0,.22,0,.33-.21.33s-.22-.22-.22-.33v-4.82c0-.22.11-.33.22-.33s.21.22.21.33Zm.33-7.78a.66.66,0,0,1,0-1.32.71.71,0,0,1,.65.66A.63.63,0,0,1,268.42,277.16Z" fill="#008bfd" stroke="gray" stroke-linecap="round" stroke-linejoin="round" stroke-width="0.75"/><path d="M267.86,285.23a.24.24,0,0,1-.22-.22v-5a.22.22,0,1,1,.44,0v5.1C268.08,285.23,268,285.23,267.86,285.23Z" fill="#fff"/><ellipse cx="268.43" cy="276.48" rx="0.66" ry="0.67" fill="#fff"/><line x1="276.38" y1="296.73" x2="73.36" y2="296.73" fill="none" stroke="#505050" stroke-miterlimit="10"/><line x1="386.63" y1="296.73" x2="307.18" y2="296.73" fill="none" stroke="#505050" stroke-miterlimit="10"/><path d="M77.1,154h75.16C167.5,154,179,164.68,179,183v73.78c0,18-1,40,37,40" fill="none" stroke="#505050" stroke-miterlimit="10"/><path d="M77.1,224.92h75.16c15.24,0,26.74,10.66,26.74,29" fill="none" stroke="#505050" stroke-miterlimit="10"/><path d="M77.1,439.45h75.16c15.24,0,26.74-10.66,26.74-29V336.69c0-18-1-39.95,37-39.95" fill="none" stroke="#505050" stroke-miterlimit="10"/><path d="M83.32,368.55h70.57c14.31,0,25.11-10.65,25.11-29" fill="none" stroke="#505050" stroke-miterlimit="10"/><g style="isolation:isolate"><path d="M47.36,181.29H43.27v1.39h-.51v-1.39H38.67v-.48h4.09V180H39.7v-3.16h6.64V180H43.27v.81h4.09Zm-4.78-5.13H39.39v-2h3.19Zm-.51-.51v-1H39.91v1Zm.69,2.48v-.81H40.23v.81Zm0,1.38v-.9H40.23v.9Zm3.06-1.38v-.81H43.27v.81Zm0,1.38v-.9H43.27v.9Zm.86-3.35H43.5v-2h3.18Zm-.53-.49v-1H44v1Z" fill="#008bfd"/><path d="M57.34,178.42H48.67v-.56h8.67Z" fill="#008bfd"/><path d="M67.36,174.72h-4c-.11.32-.25.68-.43,1.08h3.33v4.92H61.88l.3.31a12.16,12.16,0,0,1-3,1.7l-.35-.45a9.83,9.83,0,0,0,2.9-1.56h-2V175.8h2.59a7.09,7.09,0,0,0,.43-1.08H58.66v-.51h8.7Zm-1.63,2.47v-.88H60.31v.88Zm0,1.49v-1H60.31v1Zm0,1.53v-1H60.31v1Zm1.46,2-.28.49a11.6,11.6,0,0,0-3-1.25l.26-.45A17,17,0,0,1,67.19,182.23Z" fill="#008bfd"/><path d="M77.33,174.71H73.4c-.22.52-.43.95-.62,1.3h3.87v6.67h-.52v-.6H69.87v.6h-.53V176h2.83a5.36,5.36,0,0,0,.64-1.3H68.65v-.5h8.68Zm-6,6.84v-5H69.87v5Zm2.9-3.78v-1.24H71.83v1.24Zm0,1.85v-1.34H71.83v1.34Zm0,1.93v-1.44H71.83v1.44Zm1.94,0v-5H74.7v5Z" fill="#008bfd"/><path d="M87.23,175.17H79.86v2.88a12.76,12.76,0,0,1-.8,4.71l-.42-.36a12.15,12.15,0,0,0,.72-4.34V174.7H83.1l-.4-.64.52-.12a3.9,3.9,0,0,1,.44.76h3.57Zm-5.67,5.38a7.38,7.38,0,0,1-1.18,1.92l-.39-.34a6,6,0,0,0,1.09-1.79Zm.56-5a6.5,6.5,0,0,1-.62,1.35V180H81v-2.42a6.11,6.11,0,0,1-.62.72l-.33-.39a7.15,7.15,0,0,0,1.62-2.57Zm5,4.39H82.69v-2.5c-.17.21-.4.48-.69.8l-.29-.42a9.18,9.18,0,0,0,1.66-2.44l.44.17a6,6,0,0,1-.36.72H85a5,5,0,0,0-.38-.68l.49-.14a4.6,4.6,0,0,1,.44.82H87.1v.46H85.26v.58H87v.46h-1.7v.63H87v.46h-1.7v.62h1.87Zm-1.3,1.52a1.93,1.93,0,0,1-.18.77.7.7,0,0,1-.44.35,8,8,0,0,1-1.47.08,5.56,5.56,0,0,1-1-.06.64.64,0,0,1-.36-.24,1,1,0,0,1-.13-.55v-1.44h.51v1.47c0,.16,0,.26.14.29a4.63,4.63,0,0,0,1,.05,7.61,7.61,0,0,0,1.11,0,.39.39,0,0,0,.26-.21,1.58,1.58,0,0,0,.09-.66Zm-1.06-4.15v-.58H83.2v.58Zm0,1.09v-.63H83.2v.63Zm0,1.08v-.62H83.2v.62Zm-.1,1.79-.44.28a6.39,6.39,0,0,0-.87-1l.44-.29A7.14,7.14,0,0,1,84.68,181.24Zm2.71.88-.43.26a9.51,9.51,0,0,0-1.22-1.77l.44-.27A10.17,10.17,0,0,1,87.39,182.12Z" fill="#008bfd"/><path d="M56.89,194a.61.61,0,0,1-.29.57,3.26,3.26,0,0,1-1.31.16h-.44l-.16-.55q.36,0,.72,0a3,3,0,0,0,.83-.06.19.19,0,0,0,.11-.19v-2.41H53.53v2.93H53v-2.93H50.13a6.67,6.67,0,0,1-1,3.15l-.46-.33a6.27,6.27,0,0,0,1-3.6v-4.59h7.24ZM53,188.52V186.7h-2.8v1.82ZM53,191v-1.94h-2.8V191Zm3.36-2.49V186.7H53.53v1.82Zm0,2.49v-1.94H53.53V191Z" fill="#008bfd"/><path d="M62.05,190.93l-.36.4a6.76,6.76,0,0,0-.86-1.25v4.63h-.52v-4.65A14.7,14.7,0,0,1,59,192.53l-.35-.41a13.76,13.76,0,0,0,1.67-3.2H58.65v-.5h1.66v-1.48l-1.23.23-.26-.5a10.3,10.3,0,0,0,2.89-.69l.3.46c-.48.17-.88.3-1.18.38v1.6H62v.5H60.83v.41A9.22,9.22,0,0,1,62.05,190.93Zm5.3,3.54H61.72V194h2.56v-1.53H62.07V192h2.21V190.5c-1.06.07-1.72.11-2,.11l-.24-.51a22.2,22.2,0,0,0,4.76-.53l.34.45c-.67.16-1.46.3-2.35.42V192H67v.5H64.82V194h2.53ZM66.71,189h-4.3v-2.73h4.3Zm-.54-.51v-1.72H63v1.72Z" fill="#008bfd"/><path d="M77.35,192.56c-.3,1.5-.73,2.25-1.28,2.25a.74.74,0,0,1-.39-.12,2.42,2.42,0,0,1-.54-.62,5.58,5.58,0,0,1-.61-1.2,8.51,8.51,0,0,1-.41-2.05c-.09-.88-.15-1.75-.19-2.62H68.7v-.54h5.18c0-.74,0-1.31,0-1.72h.53c0,.79,0,1.37,0,1.72h2.91v.54H74.43c0,.69.11,1.63.25,2.8a6.05,6.05,0,0,0,.71,2.52c.34.5.56.75.68.75s.32-.23.48-.71a6.72,6.72,0,0,0,.29-1.28Zm-3.7.39c-1.62.41-3.14.75-4.57,1l-.12-.52c.54-.09,1.22-.21,2.05-.37v-2.9H69.24v-.54h4.13v.54H71.52v2.78q1.17-.24,2.13-.51Zm3.23-5.77-.44.3a6.1,6.1,0,0,0-1.13-1.06l.43-.34A5.41,5.41,0,0,1,76.88,187.18Z" fill="#008bfd"/></g><path d="M70,233.73a11.81,11.81,0,0,1-16.84-2.29,12.56,12.56,0,0,1,2.24-17.29,11.82,11.82,0,0,1,16.84,2.3A12.54,12.54,0,0,1,70,233.73Zm3.66-18.41a13.57,13.57,0,0,0-19.36-2.63,14.43,14.43,0,0,0-2.55,19.87,13.62,13.62,0,0,0,11,5.55,13.45,13.45,0,0,0,8.39-2.92A14.44,14.44,0,0,0,73.69,215.32Z" fill="#008bfd"/><path d="M56.06,226.52a17,17,0,0,1-2-2.35,18.28,18.28,0,0,0-1.66,6.88c.11.16.11.29.23.44a12.55,12.55,0,0,0,2,2A14.13,14.13,0,0,1,56.06,226.52Z" fill="#008bfd"/><path d="M60.67,217.08a21,21,0,0,0-3.33,3,15.71,15.71,0,0,0-1.61,2.05,15.42,15.42,0,0,0,1.9,2.46,16.32,16.32,0,0,1,2.2-2.56A26.47,26.47,0,0,1,63,219.4C62.16,218.64,61.38,217.87,60.67,217.08Z" fill="#008bfd"/><path d="M72.15,216.28a12,12,0,0,0-1.73-1.82,12.53,12.53,0,0,0-8,1.53c.76.84,1.51,1.63,2.24,2.36C69,215.92,72.15,216.28,72.15,216.28Z" fill="#008bfd"/><path d="M54.34,224.31a19.82,19.82,0,0,1,1.19-2.06,9.84,9.84,0,0,1-1.6-6.79,13.09,13.09,0,0,0-1.29,1.6C52.26,218.67,52.24,221.23,54.34,224.31Z" fill="#008bfd"/><path d="M59.9,226.7a21.6,21.6,0,0,1-2.27-2.14,14.25,14.25,0,0,0-1.14,1.95,23.54,23.54,0,0,0,2.09,1.91,19.12,19.12,0,0,0,12.56,4.38,9,9,0,0,0,1.54-1.94C71.45,231.12,66.19,231.81,59.9,226.7Z" fill="#008bfd"/><path d="M54.55,224.16a15.72,15.72,0,0,0,2,2.35,15.36,15.36,0,0,1,1.14-1.95,15.42,15.42,0,0,1-1.9-2.46A15.58,15.58,0,0,0,54.55,224.16Z" fill="#008bfd"/><path d="M63,219.4a97,97,0,0,0,11.15,8.82,9.82,9.82,0,0,0,.33-1.05,95.51,95.51,0,0,1-9.83-8.82Q63.82,218.8,63,219.4Z" fill="#008bfd"/><path d="M62.38,216q-1.65-1.77-3.36-3.8a10.05,10.05,0,0,0-1.59.66,26.3,26.3,0,0,0,3.24,4.22A17.22,17.22,0,0,1,62.38,216Z" fill="#008bfd"/><path d="M62.45,216a18.74,18.74,0,0,0-1.87,1.19c.72.78,1.45,1.59,2.25,2.35.57-.4,1.34-.88,1.87-1.18C64,217.58,63.21,216.79,62.45,216Z" fill="#008bfd"/><path d="M62.25,215.85A16.24,16.24,0,0,0,60.58,217c.72.79,1.74,1.81,2.54,2.57.57-.4,1.05-.8,1.58-1.11C64,217.71,63,216.68,62.25,215.85Z" fill="#008bfd"/><path d="M68.3,222.4a2.7,2.7,0,0,0-.48,3.7,2.56,2.56,0,0,0,3.63.51,2.72,2.72,0,0,0,.48-3.72A2.55,2.55,0,0,0,68.3,222.4Z" fill="#008bfd"/><path d="M63.13,228.53a2.52,2.52,0,0,0-.45,3.44,2.37,2.37,0,0,0,3.36.45,2.49,2.49,0,0,0,.44-3.43A2.36,2.36,0,0,0,63.13,228.53Z" fill="#008bfd"/><path d="M54,221.2a3.79,3.79,0,0,0-.68,5.21,3.58,3.58,0,0,0,5.1.7,3.8,3.8,0,0,0,.67-5.23A3.59,3.59,0,0,0,54,221.2Z" fill="#008bfd"/></svg>