<svg xmlns="http://www.w3.org/2000/svg" viewBox="0 0 88.81 48.79"><title>OJ104440674</title><path d="M7.85,6.78a4.49,4.49,0,0,0-3,5.66c.66,2.55,3,4.22,5.27,3.66a4.49,4.49,0,0,0,3-5.66C12.57,7.78,10.16,6.11,7.85,6.78Z" fill="#008bfd"/><path d="M12.78,16.79c-.43,0-.88.78-1.54,1.11s-1.31.89-3.17,0S6,16.24,4.43,16.24s-4,2.77-4,6.88H16a12.19,12.19,0,0,0-1.11-4.22C13.77,16.79,13.23,16.79,12.78,16.79Z" fill="#008bfd"/><path d="M14.19,11.85H10.07a.71.71,0,0,0-.65.66v2.85a.72.72,0,0,0,.76.65h.76v5.15a1,1,0,0,0,1,1.1,1,1,0,0,0,1-1h.21v-.65c0-.22.33-.33.33-.33V20c-.33-.11-.54-.33-.54-.44v-.33L13.1,19a3.55,3.55,0,0,0,.33-.54,2.4,2.4,0,0,1-.33-.55c-.1-.11-.1-.33-.21-.44v-.22a2.51,2.51,0,0,1,.76-1.1h.54a.7.7,0,0,0,.65-.65v-3A.63.63,0,0,0,14.19,11.85ZM11.8,21.38c0,.22,0,.33-.21.33s-.22-.22-.22-.33V16.56c0-.22.11-.33.22-.33s.21.22.21.33Zm.33-7.78a.69.69,0,0,1-.65-.65.7.7,0,0,1,.65-.66.71.71,0,0,1,.65.66A.62.62,0,0,1,12.13,13.6Z" fill="#008bfd" stroke="gray" stroke-linecap="round" stroke-linejoin="round" stroke-width="0.75"/><path d="M11.57,21.69a.24.24,0,0,1-.22-.22v-5a.22.22,0,1,1,.44,0v5.11C11.79,21.69,11.68,21.69,11.57,21.69Z" fill="#fff"/><ellipse cx="12.14" cy="12.93" rx="0.66" ry="0.67" fill="#fff"/><path d="M70,24.41A11.81,11.81,0,0,1,53.2,22.12,12.55,12.55,0,0,1,55.44,4.83a11.72,11.72,0,0,1,7.29-2.54,11.89,11.89,0,0,1,9.55,4.84A12.54,12.54,0,0,1,70,24.41ZM73.7,6A13.57,13.57,0,0,0,54.34,3.36a14.45,14.45,0,0,0-2.55,19.88,13.65,13.65,0,0,0,11,5.55,13.45,13.45,0,0,0,8.39-2.92A14.44,14.44,0,0,0,73.7,6Z" fill="#008bfd"/><path d="M56.06,17.18a17,17,0,0,1-2-2.35,18.32,18.32,0,0,0-1.66,6.89c.11.16.11.28.23.44a13.4,13.4,0,0,0,2,2.05A14.18,14.18,0,0,1,56.06,17.18Z" fill="#008bfd"/><path d="M60.68,7.74a21,21,0,0,0-3.33,3,16.41,16.41,0,0,0-1.61,2,15,15,0,0,0,1.9,2.47,16.84,16.84,0,0,1,2.2-2.57A27.32,27.32,0,0,1,63,10.07C62.17,9.31,61.39,8.54,60.68,7.74Z" fill="#008bfd"/><path d="M72.15,7a12.55,12.55,0,0,0-1.73-1.83,12.55,12.55,0,0,0-8,1.54c.76.84,1.51,1.62,2.24,2.36C69,6.59,72.15,7,72.15,7Z" fill="#008bfd"/><path d="M54.61,14.59a19.94,19.94,0,0,1,1.19-2.07,9.83,9.83,0,0,1-1.6-6.79,13.19,13.19,0,0,0-1.29,1.61C52.53,8.94,52.51,11.5,54.61,14.59Z" fill="#008bfd"/><path d="M59.91,17.36a22.67,22.67,0,0,1-2.27-2.13,13.68,13.68,0,0,0-1.14,1.95,25.18,25.18,0,0,0,2.09,1.91,19.18,19.18,0,0,0,12.56,4.38,9.27,9.27,0,0,0,1.54-1.94C71.46,21.79,66.2,22.47,59.91,17.36Z" fill="#008bfd"/><path d="M54.55,14.83a16.24,16.24,0,0,0,2,2.35,14.7,14.7,0,0,1,1.14-1.95,15,15,0,0,1-1.9-2.47A15.67,15.67,0,0,0,54.55,14.83Z" fill="#008bfd"/><path d="M63,10.07a99.43,99.43,0,0,0,11.15,8.82,9.82,9.82,0,0,0,.33-1.05A96.8,96.8,0,0,1,64.61,9,16,16,0,0,0,63,10.07Z" fill="#008bfd"/><path d="M62.38,6.65c-1.1-1.18-2.22-2.44-3.36-3.8a11.13,11.13,0,0,0-1.59.67,26.74,26.74,0,0,0,3.24,4.22A15.69,15.69,0,0,1,62.38,6.65Z" fill="#008bfd"/><path d="M62.45,6.62A20.57,20.57,0,0,0,60.58,7.8c.72.79,1.45,1.6,2.25,2.36.57-.4,1.34-.89,1.87-1.19C64,8.24,63.21,7.45,62.45,6.62Z" fill="#008bfd"/><path d="M62.25,6.51a14.89,14.89,0,0,0-1.67,1.13c.72.79,1.74,1.81,2.54,2.57.57-.4,1.05-.81,1.58-1.11C64,8.37,63,7.35,62.25,6.51Z" fill="#008bfd"/><path d="M68.3,13.06a2.71,2.71,0,0,0-.48,3.71,2.55,2.55,0,0,0,3.63.5,2.71,2.71,0,0,0,.48-3.71A2.55,2.55,0,0,0,68.3,13.06Z" fill="#008bfd"/><path d="M63.25,19.05a2.52,2.52,0,0,0-.45,3.44,2.37,2.37,0,0,0,3.36.45,2.49,2.49,0,0,0,.44-3.43A2.35,2.35,0,0,0,63.25,19.05Z" fill="#008bfd"/><path d="M54,11.87a3.79,3.79,0,0,0-.68,5.21,3.58,3.58,0,0,0,5.1.7,3.8,3.8,0,0,0,.67-5.23A3.58,3.58,0,0,0,54,11.87Z" fill="#008bfd"/><g style="isolation:isolate"><path d="M61.67,30.12l-2.14,7.57h-1L57,32.12a3.26,3.26,0,0,1-.12-.77h0a3.28,3.28,0,0,1-.14.76l-1.58,5.58h-1l-2.24-7.57h.92L54.47,36a3.46,3.46,0,0,1,.13.76h0a5.23,5.23,0,0,1,.16-.76l1.69-5.85h.79L58.9,36a4.55,4.55,0,0,1,.12.7h0a4.22,4.22,0,0,1,.15-.72l1.57-5.88Z" fill="#008bfd"/><path d="M66.74,35.19H62.92a2.07,2.07,0,0,0,.49,1.43,1.68,1.68,0,0,0,1.28.5,2.72,2.72,0,0,0,1.69-.61v.78a3.08,3.08,0,0,1-1.88.53,2.27,2.27,0,0,1-1.78-.74A3.07,3.07,0,0,1,62.07,35a3,3,0,0,1,.71-2,2.23,2.23,0,0,1,1.76-.81,2,2,0,0,1,1.62.68,2.87,2.87,0,0,1,.58,1.91Zm-.84-.72a1.75,1.75,0,0,0-.36-1.18,1.24,1.24,0,0,0-1-.43,1.48,1.48,0,0,0-1,.43,2,2,0,0,0-.57,1.18Z" fill="#008bfd"/><path d="M68.89,36.9v.79h-.82v-8h.82v3.55h0a2.05,2.05,0,0,1,1.87-1.08,2,2,0,0,1,1.63.73A3,3,0,0,1,73,34.83,3.36,3.36,0,0,1,72.34,37a2.24,2.24,0,0,1-1.81.82,1.79,1.79,0,0,1-1.62-.92Zm0-1.4a1.6,1.6,0,0,0,.45,1.15,1.49,1.49,0,0,0,1.12.47,1.46,1.46,0,0,0,1.25-.61,2.77,2.77,0,0,0,.46-1.7,2.16,2.16,0,0,0-.43-1.43,1.39,1.39,0,0,0-1.14-.53,1.6,1.6,0,0,0-1.23.53,1.93,1.93,0,0,0-.48,1.34Z" fill="#008bfd"/><path d="M51.91,40.16H44.53V43a12.84,12.84,0,0,1-.79,4.71l-.43-.36A12.15,12.15,0,0,0,44,43.05V39.69h3.74c-.13-.22-.26-.43-.4-.64l.52-.12a3.25,3.25,0,0,1,.45.76h3.57Zm-5.68,5.38a7.12,7.12,0,0,1-1.18,1.92l-.39-.34a5.87,5.87,0,0,0,1.09-1.79Zm.56-5a6.5,6.5,0,0,1-.62,1.35V45h-.5V42.57a6.11,6.11,0,0,1-.62.72l-.33-.39a7,7,0,0,0,1.62-2.57Zm5,4.39H47.36V42.4c-.16.21-.39.47-.68.8l-.3-.42A9,9,0,0,0,48,40.34l.44.17a5.9,5.9,0,0,1-.35.72h1.5a4.08,4.08,0,0,0-.38-.68l.49-.14a3.78,3.78,0,0,1,.44.82h1.59v.46H49.93v.58h1.7v.46h-1.7v.63h1.7v.46h-1.7v.62H51.8Zm-1.3,1.52a2,2,0,0,1-.17.77.72.72,0,0,1-.44.34,7,7,0,0,1-1.47.09,5.49,5.49,0,0,1-1.05-.06.56.56,0,0,1-.36-.25.9.9,0,0,1-.13-.54V45.33h.5V46.8c0,.16,0,.25.14.29a5.63,5.63,0,0,0,1,0,7,7,0,0,0,1.11,0,.41.41,0,0,0,.26-.21,1.53,1.53,0,0,0,.09-.65Zm-1.06-4.15v-.58H47.87v.58Zm0,1.09v-.63H47.87v.63Zm0,1.08v-.62H47.87v.62Zm-.1,1.79-.44.28a5.52,5.52,0,0,0-.87-1l.44-.29A7.14,7.14,0,0,1,49.35,46.23Zm2.71.88-.43.26a9.16,9.16,0,0,0-1.21-1.77l.44-.27A9.76,9.76,0,0,1,52.06,47.11Z" fill="#008bfd"/><path d="M61.56,47a.56.56,0,0,1-.29.56,3.15,3.15,0,0,1-1.3.17h-.45l-.16-.55.72,0a3,3,0,0,0,.83-.06.2.2,0,0,0,.12-.19V44.52H58.2v2.93h-.54V44.52H54.81a6.67,6.67,0,0,1-1,3.15l-.47-.33a6.32,6.32,0,0,0,1-3.6V39.15h7.24Zm-3.9-5.47V39.69h-2.8v1.82Zm0,2.49V42.06h-2.8V44ZM61,41.51V39.69H58.2v1.82ZM61,44V42.06H58.2V44Z" fill="#008bfd"/><path d="M66.72,43.92l-.36.4a6.76,6.76,0,0,0-.86-1.25V47.7H65V43.05a13.73,13.73,0,0,1-1.35,2.47l-.35-.41A13.58,13.58,0,0,0,65,41.91H63.33v-.5H65V39.93l-1.22.23-.27-.5A10.85,10.85,0,0,0,66.38,39l.31.46c-.49.17-.88.29-1.19.38v1.6h1.19v.5H65.5v.41A8.73,8.73,0,0,1,66.72,43.92ZM72,47.46H66.39V47H69V45.44H66.74v-.5H69V43.49c-1.07.07-1.73.1-2,.11l-.24-.51a22.78,22.78,0,0,0,4.76-.53l.34.45c-.67.15-1.45.29-2.35.42v1.51h2.15v.5H69.49V47H72ZM71.38,42H67.09V39.25h4.29Zm-.53-.51V39.75H67.62v1.72Z" fill="#008bfd"/><path d="M82,45.55c-.29,1.5-.72,2.25-1.28,2.25a.67.67,0,0,1-.39-.13,2.55,2.55,0,0,1-.53-.61,5.67,5.67,0,0,1-.62-1.21,8.59,8.59,0,0,1-.4-2c-.09-.88-.16-1.75-.2-2.62H73.37v-.54h5.19c0-.74,0-1.32,0-1.72h.52c0,.79,0,1.36,0,1.72H82v.54H79.1c0,.69.11,1.62.25,2.79a5.94,5.94,0,0,0,.72,2.52c.33.51.56.76.68.76s.32-.24.47-.71a6.17,6.17,0,0,0,.29-1.28Zm-3.7.39c-1.62.41-3.14.74-4.56,1l-.13-.52c.54-.09,1.23-.21,2.05-.37v-2.9H73.91v-.54H78v.54H76.19v2.78q1.17-.26,2.13-.51Zm3.23-5.77-.44.3A5.75,5.75,0,0,0,80,39.41l.43-.34A5.4,5.4,0,0,1,81.55,40.17Z" fill="#008bfd"/></g></svg>