<svg xmlns="http://www.w3.org/2000/svg" viewBox="0 0 204.71 69.22"><title>OJ104546510</title><g style="isolation:isolate"><path d="M101,5.88c0,.1-.27.89-.8,2.39a4.08,4.08,0,0,1,.74,2.21,1.25,1.25,0,0,1-.25.83c-.16.2-.55.29-1.16.26L99.4,11a4.06,4.06,0,0,0,.51,0c.25,0,.41-.05.47-.14a1.05,1.05,0,0,0,.09-.51,3.46,3.46,0,0,0-.76-2.07c.39-1.08.66-1.89.8-2.45H99.13v8h-.5V5.37H101Zm1.14,6.21A6.12,6.12,0,0,1,101,13.56l-.42-.33a5.9,5.9,0,0,0,1.19-1.43Zm4.64-3.44h-5.54V8.2h2.54V7.73h-2.07V7.28h4.59v.45h-2V8.2h2.5Zm.2,1.85h-.82v1h-4.44V11h3.93V10.5h-4.41v-.44h4.41v-.5h-3.93V9.1h4.44v1H107Zm-.54-4.92a21.44,21.44,0,0,1-4.67.58l-.19-.49a19.33,19.33,0,0,0,4.58-.52Zm-3.54,1.29-.43.28a2.72,2.72,0,0,0-.62-.59l.44-.27A4.07,4.07,0,0,1,102.94,6.87Zm2.51,5.79a1.42,1.42,0,0,1-.34.93.86.86,0,0,1-.5.17l-1.5,0a.64.64,0,0,1-.43-.15.63.63,0,0,1-.17-.47V11.83H103V13a.21.21,0,0,0,.13.22,2.32,2.32,0,0,0,.71.06,3.15,3.15,0,0,0,.84-.06.28.28,0,0,0,.17-.22l.09-.54Zm-.92-.15-.41.32a4.5,4.5,0,0,0-.67-.81l.38-.32A3.93,3.93,0,0,1,104.53,12.51ZM104.39,7l-.47.16a2.37,2.37,0,0,0-.35-.74l.45-.16A2.33,2.33,0,0,1,104.39,7Zm1.84-.57a3.4,3.4,0,0,1-.75.67l-.39-.3a4.29,4.29,0,0,0,.77-.65Zm.74,6.85-.47.3A5.8,5.8,0,0,0,105.38,12l.42-.29A7.32,7.32,0,0,1,107,13.23Z" fill="#00b0f0"/><path d="M117.08,7.72l-.27.48a11.63,11.63,0,0,1-4.18-2.44,11.47,11.47,0,0,1-4.16,2.42l-.31-.48a9.63,9.63,0,0,0,4.38-2.62l.6.15-.13.15A9.69,9.69,0,0,0,117.08,7.72Zm-1.15,6.18h-.54v-.47h-5.5v.47h-.55V10.76H113A22.23,22.23,0,0,0,114.94,9h-5.33V8.46h6V9a21.45,21.45,0,0,1-1.83,1.78h2.11Zm-.54-1V11.29h-5.5V12.9Zm-1.26-5.35h-2.95V7h2.95Z" fill="#00b0f0"/><path d="M120.23,10.68a18.23,18.23,0,0,1-1.53,3.25l-.44-.36a15.83,15.83,0,0,0,1.49-3.17Zm0-1.52-.37.39a9.29,9.29,0,0,0-1.57-1.32l.32-.41A10.3,10.3,0,0,1,120.21,9.16Zm.18-2.68L120,6.9a9.41,9.41,0,0,0-1.48-1.38l.35-.41A12.64,12.64,0,0,1,120.39,6.48Zm1.53,3.21a8.56,8.56,0,0,1-.3,2.64,3.31,3.31,0,0,1-1.27,1.57l-.41-.39a3,3,0,0,0,1-1.07,5.53,5.53,0,0,0,.43-2.75ZM127,9.28l-.44.34a7.28,7.28,0,0,0-.6-.81c-2,.23-3.67.39-5.12.5l-.13-.52a5.46,5.46,0,0,0,2-2.1h-2.09V6.17h2.39c.12-.24.28-.6.47-1.07l.54.14c-.06.17-.2.47-.41.93h3.21v.52h-3.48a6.42,6.42,0,0,1-1.67,2c1.28-.08,2.57-.2,3.87-.35a7.23,7.23,0,0,0-.89-.86l.41-.35A11.81,11.81,0,0,1,127,9.28Zm-3.42,4.62h-.52V9.69h.52Zm3.38-.12h-1.33c-.5,0-.75-.24-.75-.71V9.69h.51V13q0,.27.3.27H127Z" fill="#00b0f0"/><path d="M131.7,10.11l-.36.4a6.76,6.76,0,0,0-.86-1.25v4.63H130V9.24a13.73,13.73,0,0,1-1.35,2.47l-.35-.41a14,14,0,0,0,1.67-3.2h-1.62V7.6H130V6.12l-1.22.23-.27-.5a11,11,0,0,0,2.89-.69l.31.46c-.49.17-.89.29-1.19.38V7.6h1.19v.5h-1.19v.41A8.73,8.73,0,0,1,131.7,10.11Zm5.3,3.54h-5.63v-.49h2.57V11.63h-2.22v-.5h2.22V9.68c-1.07.07-1.73.1-2,.11l-.24-.51a22.13,22.13,0,0,0,4.76-.53l.34.45c-.67.16-1.46.3-2.35.42v1.51h2.15v.5h-2.15v1.53H137Zm-.64-5.48h-4.29V5.44h4.29Zm-.53-.51V5.94H132.6V7.66Z" fill="#00b0f0"/></g><path d="M66,32.83a11.78,11.78,0,0,1-16.84-2.29,12.56,12.56,0,0,1,2.24-17.29,11.82,11.82,0,0,1,16.84,2.3A12.54,12.54,0,0,1,66,32.83Zm3.66-18.41a13.57,13.57,0,0,0-19.36-2.63,14.43,14.43,0,0,0-2.55,19.87A13.55,13.55,0,0,0,67.13,34.3,14.45,14.45,0,0,0,69.69,14.42Z" fill="#008bfd"/><path d="M52.06,25.61a17,17,0,0,1-2-2.35,18.28,18.28,0,0,0-1.66,6.88c.11.16.11.29.23.45a13.4,13.4,0,0,0,2,2.05A14.14,14.14,0,0,1,52.06,25.61Z" fill="#008bfd"/><path d="M56.67,16.17a21,21,0,0,0-3.33,3,15.71,15.71,0,0,0-1.61,2.05,15.93,15.93,0,0,0,1.9,2.47,15.93,15.93,0,0,1,2.2-2.57A26.31,26.31,0,0,1,59,18.5C58.16,17.73,57.38,17,56.67,16.17Z" fill="#008bfd"/><path d="M68.14,15.37a12.47,12.47,0,0,0-1.73-1.82,12.55,12.55,0,0,0-8,1.54c.76.83,1.51,1.62,2.24,2.36C65,15,68.14,15.37,68.14,15.37Z" fill="#008bfd"/><path d="M55.9,25.79a22.67,22.67,0,0,1-2.27-2.13,13.15,13.15,0,0,0-1.14,1.95,25.16,25.16,0,0,0,2.09,1.9A19.15,19.15,0,0,0,67.14,31.9,9.13,9.13,0,0,0,68.68,30C67.45,30.21,62.19,30.9,55.9,25.79Z" fill="#008bfd"/><path d="M50.54,23.26a16.8,16.8,0,0,0,2,2.35,14.09,14.09,0,0,1,1.14-1.95,15.93,15.93,0,0,1-1.9-2.47A15.67,15.67,0,0,0,50.54,23.26Z" fill="#008bfd"/><path d="M59,18.49a98.68,98.68,0,0,0,11.15,8.83,10.76,10.76,0,0,0,.33-1.06,95,95,0,0,1-9.83-8.81A17.67,17.67,0,0,0,59,18.49Z" fill="#008bfd"/><path d="M58.38,15.08c-1.1-1.18-2.22-2.44-3.36-3.8a11.09,11.09,0,0,0-1.59.66,26.8,26.8,0,0,0,3.24,4.23A15.69,15.69,0,0,1,58.38,15.08Z" fill="#008bfd"/><path d="M58.45,15a18.74,18.74,0,0,0-1.87,1.19c.72.79,1.45,1.59,2.25,2.36.57-.41,1.34-.89,1.87-1.19C60,16.67,59.21,15.88,58.45,15Z" fill="#008bfd"/><path d="M58.25,14.94a14.89,14.89,0,0,0-1.67,1.13c.72.78,1.74,1.8,2.54,2.57a18.53,18.53,0,0,1,1.58-1.11C60,16.8,59,15.78,58.25,14.94Z" fill="#008bfd"/><path d="M64.3,21.49a2.71,2.71,0,0,0-.48,3.71,2.55,2.55,0,0,0,3.63.5A2.72,2.72,0,0,0,67.93,22,2.55,2.55,0,0,0,64.3,21.49Z" fill="#008bfd"/><path d="M59.24,27.83a2.51,2.51,0,0,0-.45,3.43,2.37,2.37,0,0,0,3.36.46,2.49,2.49,0,0,0,.44-3.43A2.35,2.35,0,0,0,59.24,27.83Z" fill="#008bfd"/><path d="M50,20.3a3.79,3.79,0,0,0-.68,5.21,3.57,3.57,0,0,0,5.1.69A3.8,3.8,0,0,0,55.08,21,3.58,3.58,0,0,0,50,20.3Z" fill="#008bfd"/><path d="M50.6,23.07A19.94,19.94,0,0,1,51.79,21a9.83,9.83,0,0,1-1.6-6.79,13.9,13.9,0,0,0-1.29,1.6C48.52,17.42,48.5,20,50.6,23.07Z" fill="#008bfd" fill-rule="evenodd"/><g style="isolation:isolate"><path d="M48.35,48.12H44.27v1.39h-.52V48.12H39.67v-.48h4.08v-.81h-3V43.67h6.63v3.16H44.27v.81h4.08ZM43.57,43H40.38V41h3.19Zm-.51-.51v-1H40.91v1ZM43.75,45v-.81H41.22V45Zm0,1.38v-.9H41.22v.9ZM46.81,45v-.81H44.27V45Zm0,1.38v-.9H44.27v.9ZM47.67,43H44.49V41h3.18Zm-.52-.49v-1H45v1Z" fill="#008bfd"/><path d="M58.33,45.25H49.67v-.56h8.66Z" fill="#008bfd"/><path d="M68.35,41.55h-4c-.11.32-.25.68-.43,1.08h3.33v4.92H62.87l.3.31a12.31,12.31,0,0,1-3,1.7l-.35-.45a10.17,10.17,0,0,0,2.9-1.56H60.78V42.63h2.59a6.18,6.18,0,0,0,.43-1.08H59.66V41h8.69ZM66.73,44v-.88H61.3V44Zm0,1.49v-1H61.3v1Zm0,1.53V46H61.3v1Zm1.45,2-.28.49a11.53,11.53,0,0,0-3-1.25l.25-.45A17,17,0,0,1,68.18,49.06Z" fill="#008bfd"/><path d="M78.32,41.54H74.39a10.72,10.72,0,0,1-.62,1.3h3.87v6.67h-.52v-.6H70.86v.6h-.53V42.84h2.83a5.24,5.24,0,0,0,.65-1.3H69.64V41h8.68Zm-6,6.84v-5H70.86v5Zm2.9-3.78V43.36H72.82V44.6Zm0,1.85V45.11H72.82v1.34Zm0,1.93V46.94H72.82v1.44Zm1.94,0v-5H75.7v5Z" fill="#008bfd"/><path d="M48.23,54H40.85v2.88a12.84,12.84,0,0,1-.79,4.71l-.43-.36a12.15,12.15,0,0,0,.72-4.34V53.53h3.74c-.13-.22-.26-.43-.4-.64l.52-.12a3.25,3.25,0,0,1,.45.76h3.57Zm-5.68,5.38a7.12,7.12,0,0,1-1.18,1.92L41,61a6,6,0,0,0,1.09-1.79Zm.56-5a6.5,6.5,0,0,1-.62,1.35v3.13H42V56.41a6.11,6.11,0,0,1-.62.72L41,56.74a7,7,0,0,0,1.62-2.57Zm5,4.39H43.68v-2.5c-.16.21-.39.47-.68.8l-.3-.42a9.18,9.18,0,0,0,1.66-2.44l.44.17a5.9,5.9,0,0,1-.35.72H46a4.08,4.08,0,0,0-.38-.68l.49-.14a3.78,3.78,0,0,1,.44.82h1.59v.46H46.25v.58H48v.46h-1.7v.63H48v.46h-1.7v.62h1.87Zm-1.3,1.52a1.81,1.81,0,0,1-.18.77.72.72,0,0,1-.43.35,8.12,8.12,0,0,1-1.47.08,5.42,5.42,0,0,1-1.05-.06.56.56,0,0,1-.36-.25.9.9,0,0,1-.13-.54V59.17h.5v1.47c0,.16,0,.25.14.29a5.48,5.48,0,0,0,1,0,6.78,6.78,0,0,0,1.11,0,.41.41,0,0,0,.27-.21,1.53,1.53,0,0,0,.09-.65Zm-1.06-4.15v-.58H44.19v.58Zm0,1.09v-.63H44.19v.63Zm0,1.08v-.62H44.19v.62Zm-.1,1.79-.44.28a6.39,6.39,0,0,0-.87-1L44.8,59A7.14,7.14,0,0,1,45.67,60.07Zm2.71.88-.43.26a9.63,9.63,0,0,0-1.21-1.77l.44-.27A10.29,10.29,0,0,1,48.38,61Z" fill="#008bfd"/><path d="M57.88,60.82a.61.61,0,0,1-.29.57,3.43,3.43,0,0,1-1.31.16h-.44L55.68,61l.72,0a3,3,0,0,0,.83-.06.2.2,0,0,0,.12-.19V58.36H54.52v2.93H54V58.36H51.13a6.67,6.67,0,0,1-1,3.15l-.47-.33a6.32,6.32,0,0,0,1-3.6V53h7.24ZM54,55.35V53.53h-2.8v1.82Zm0,2.49V55.9h-2.8v1.94Zm3.37-2.49V53.53H54.52v1.82Zm0,2.49V55.9H54.52v1.94Z" fill="#008bfd"/><path d="M63,57.76l-.36.4a6.76,6.76,0,0,0-.86-1.25v4.63H61.3V56.89A13.73,13.73,0,0,1,60,59.36L59.6,59a14,14,0,0,0,1.67-3.2H59.65v-.5H61.3V53.77L60.08,54l-.27-.5a10.85,10.85,0,0,0,2.89-.69l.31.46c-.49.17-.89.29-1.19.38v1.6H63v.5H61.82v.41A8.73,8.73,0,0,1,63,57.76Zm5.3,3.54H62.71v-.49h2.57V59.28H63.06v-.5h2.22V57.33c-1.07.07-1.73.1-2,.11l-.24-.51a22.13,22.13,0,0,0,4.76-.53l.34.45a23.69,23.69,0,0,1-2.35.42v1.51H68v.5H65.81v1.53h2.53Zm-.64-5.48H63.41V53.09H67.7Zm-.53-.51V53.59H63.94v1.72Z" fill="#008bfd"/><path d="M78.34,59.39c-.3,1.5-.72,2.25-1.28,2.25a.74.74,0,0,1-.39-.12,2.65,2.65,0,0,1-.53-.62,5.67,5.67,0,0,1-.62-1.21,8.11,8.11,0,0,1-.4-2C75,56.77,75,55.9,74.92,55H69.69v-.54h5.19c0-.74,0-1.32,0-1.72h.52c0,.79,0,1.36,0,1.72h2.91V55H75.42c0,.69.11,1.62.25,2.8a6.1,6.1,0,0,0,.71,2.51c.34.51.57.76.69.76s.32-.24.47-.71a6.17,6.17,0,0,0,.29-1.28Zm-3.7.39c-1.62.41-3.14.74-4.56,1L70,60.26c.54-.09,1.23-.21,2-.37V57H70.23v-.54h4.13V57H72.51v2.78q1.17-.26,2.13-.51ZM77.87,54l-.44.3a6,6,0,0,0-1.12-1.06l.43-.34A5.65,5.65,0,0,1,77.87,54Z" fill="#008bfd"/></g><path d="M191.76,10.11h-20.5a1.1,1.1,0,0,0-1.09,1.11V28a1.09,1.09,0,0,0,1.09,1.1h5.28a3.29,3.29,0,0,0,3.21,2.27,3.37,3.37,0,0,0,0-6.74,3.29,3.29,0,0,0-3.21,2.27h-4.19v-12h18.31v12h-3.45a7.61,7.61,0,0,0-7.46-6.57,8.25,8.25,0,0,0-3.64.92l1,2a5.28,5.28,0,0,1,2.55-.68,5.46,5.46,0,0,1,0,10.92,5.28,5.28,0,0,1-2.55-.68l-1,2a7.51,7.51,0,0,0,3.64.92,7.61,7.61,0,0,0,7.46-6.57h4.55a1.09,1.09,0,0,0,1.09-1.1V11.22A1.14,1.14,0,0,0,191.76,10.11Z" fill="#008bfd"/><g style="isolation:isolate"><path d="M179.17,48.63h-.92l-.82-2.15h-3.24l-.77,2.15h-.93l2.91-7.56h.85Zm-2-2.91-1.22-3.27a3.71,3.71,0,0,1-.11-.5h0a3.06,3.06,0,0,1-.12.5l-1.2,3.27Z" fill="#008bfd"/><path d="M181.13,45.76v2.87h-.83V41.07h2a2.7,2.7,0,0,1,1.86.59,2.1,2.1,0,0,1,.67,1.66,2.26,2.26,0,0,1-.79,1.79,2.72,2.72,0,0,1-1.94.65Zm0-3.93V45h1a2.13,2.13,0,0,0,1.42-.42,1.48,1.48,0,0,0,.49-1.2q0-1.53-1.8-1.53Z" fill="#008bfd"/><path d="M187.14,48.63h-.83V41.07h.83Z" fill="#008bfd"/><path d="M170.78,53.6H163.4v2.88a12.84,12.84,0,0,1-.79,4.71l-.43-.36a12.15,12.15,0,0,0,.72-4.34V53.13h3.74c-.13-.22-.26-.43-.4-.64l.52-.12a3.25,3.25,0,0,1,.45.76h3.57ZM165.1,59a7.12,7.12,0,0,1-1.18,1.92l-.39-.34a6.07,6.07,0,0,0,1.09-1.79Zm.56-5A6.5,6.5,0,0,1,165,55.3v3.13h-.5V56a6.11,6.11,0,0,1-.62.72l-.33-.39a7,7,0,0,0,1.62-2.57Zm5,4.39h-4.44v-2.5c-.16.21-.39.47-.68.8l-.3-.42a9.18,9.18,0,0,0,1.66-2.44l.44.17a5.9,5.9,0,0,1-.35.72h1.5a4.08,4.08,0,0,0-.38-.68l.49-.14a3.78,3.78,0,0,1,.44.82h1.59v.46H168.8v.58h1.7v.46h-1.7v.63h1.7v.46h-1.7v.62h1.87Zm-1.3,1.52a1.81,1.81,0,0,1-.18.77.72.72,0,0,1-.43.35,8.12,8.12,0,0,1-1.47.08,5.42,5.42,0,0,1-1-.06.56.56,0,0,1-.36-.25.9.9,0,0,1-.13-.54V58.77h.5v1.47c0,.16.05.25.14.29a5.48,5.48,0,0,0,1,0,6.78,6.78,0,0,0,1.11,0,.41.41,0,0,0,.27-.21,1.53,1.53,0,0,0,.09-.65Zm-1.06-4.15v-.58h-1.57v.58Zm0,1.09v-.63h-1.58v.63Zm0,1.08v-.62h-1.58v.62Zm-.1,1.79-.44.28a6.39,6.39,0,0,0-.87-1l.44-.29A7.14,7.14,0,0,1,168.22,59.67Zm2.71.88-.43.26A9.63,9.63,0,0,0,169.29,59l.44-.27A10.29,10.29,0,0,1,170.93,60.55Z" fill="#008bfd"/><path d="M180.43,60.42a.58.58,0,0,1-.29.56,3.17,3.17,0,0,1-1.31.17h-.44l-.16-.55.72,0a3,3,0,0,0,.83-.06.2.2,0,0,0,.12-.19V58h-2.83v2.93h-.54V58h-2.85a6.67,6.67,0,0,1-1,3.15l-.47-.33a6.32,6.32,0,0,0,1-3.6V52.59h7.24ZM176.53,55V53.13h-2.8V55Zm0,2.49V55.5h-2.8v1.94ZM179.9,55V53.13h-2.83V55Zm0,2.49V55.5h-2.83v1.94Z" fill="#008bfd"/><path d="M185.59,57.36l-.36.4a6.76,6.76,0,0,0-.86-1.25v4.63h-.52V56.49A13.73,13.73,0,0,1,182.5,59l-.35-.41a14,14,0,0,0,1.67-3.2H182.2v-.5h1.65V53.37l-1.22.23-.27-.5a10.85,10.85,0,0,0,2.89-.69l.31.46c-.49.17-.89.29-1.19.38v1.6h1.19v.5h-1.19v.41A8.73,8.73,0,0,1,185.59,57.36Zm5.3,3.54h-5.63v-.49h2.57V58.88h-2.22v-.5h2.22V56.93c-1.07.07-1.73.1-2,.11l-.24-.51a22.78,22.78,0,0,0,4.76-.53l.34.45c-.67.16-1.45.29-2.35.42v1.51h2.15v.5h-2.15v1.53h2.53Zm-.64-5.48H186V52.69h4.29Zm-.53-.51V53.19h-3.23v1.72Z" fill="#008bfd"/><path d="M200.89,59c-.3,1.5-.72,2.25-1.28,2.25a.67.67,0,0,1-.39-.13,2.34,2.34,0,0,1-.53-.61,5.25,5.25,0,0,1-.62-1.21,8.11,8.11,0,0,1-.4-2c-.09-.88-.16-1.75-.2-2.62h-5.23v-.54h5.19c0-.74,0-1.32,0-1.72h.52c0,.79,0,1.36,0,1.72h2.91v.54H198c0,.69.11,1.62.25,2.8a6.1,6.1,0,0,0,.71,2.51c.34.51.57.76.69.76s.32-.24.47-.71a6.17,6.17,0,0,0,.29-1.28Zm-3.7.39c-1.62.41-3.14.74-4.56,1l-.13-.52c.54-.09,1.23-.21,2.05-.37v-2.9h-1.77v-.54h4.13v.54h-1.85v2.78q1.17-.25,2.13-.51Zm3.23-5.77-.44.3a6,6,0,0,0-1.12-1.06l.43-.34A5.65,5.65,0,0,1,200.42,53.61Z" fill="#008bfd"/></g><path d="M161.69,18.87l8.05,4-8,4a9,9,0,0,0,0-8" fill="#505050"/><path d="M7.85,15.21a4.49,4.49,0,0,0-3,5.66c.66,2.55,3,4.22,5.27,3.66a4.49,4.49,0,0,0,3-5.66C12.57,16.2,10.16,14.54,7.85,15.21Z" fill="#008bfd"/><path d="M12.79,25.22c-.44,0-.88.78-1.54,1.11s-1.32.89-3.18,0S6,24.66,4.44,24.66.38,27.44.38,31.55H16a12.09,12.09,0,0,0-1.1-4.22C13.77,25.22,13.23,25.22,12.79,25.22Z" fill="#008bfd"/><path d="M14.19,20.28H10.07a.71.71,0,0,0-.65.65v2.85a.73.73,0,0,0,.76.66h.76v5.15a1,1,0,0,0,1,1.1,1,1,0,0,0,1-1h.21V29c0-.22.33-.33.33-.33v-.33c-.33-.1-.54-.32-.54-.43v-.33l.21-.22a3.53,3.53,0,0,0,.33-.55,2.4,2.4,0,0,1-.33-.55c-.1-.11-.1-.33-.21-.44v-.21a2.51,2.51,0,0,1,.76-1.1h.54a.71.71,0,0,0,.65-.66v-3A.63.63,0,0,0,14.19,20.28ZM11.8,29.81c0,.22,0,.33-.21.33s-.22-.22-.22-.33V25c0-.22.11-.33.22-.33s.21.22.21.33ZM12.13,22a.66.66,0,0,1,0-1.32.71.71,0,0,1,.65.66A.63.63,0,0,1,12.13,22Z" fill="#008bfd" stroke="gray" stroke-linecap="round" stroke-linejoin="round" stroke-width="0.75"/><path d="M11.57,30.12a.25.25,0,0,1-.22-.23v-5a.22.22,0,1,1,.44,0V30C11.79,30.12,11.68,30.12,11.57,30.12Z" fill="#fff"/><ellipse cx="12.14" cy="21.35" rx="0.66" ry="0.67" fill="#fff"/><line x1="72.53" y1="22.87" x2="162.7" y2="22.87" fill="none" stroke="#505050" stroke-miterlimit="10"/></svg>