<svg xmlns="http://www.w3.org/2000/svg" viewBox="0 0 205.55 55.68"><title>OJ104546506</title><path d="M16,9.82.12,21.25,6.2,39.73H25.86l6.08-18.48Z" fill="#fff" stroke="#000" stroke-linecap="round" stroke-linejoin="round" stroke-width="0.24"/><path d="M15.7,16.94a4.49,4.49,0,0,0-3,5.66c.66,2.55,3,4.22,5.27,3.67a4.5,4.5,0,0,0,3-5.67C20.42,17.94,18,16.27,15.7,16.94Z" fill="#008bfd"/><path d="M20.64,27c-.44,0-.88.78-1.54,1.11s-1.32.89-3.18,0-2.09-1.66-3.63-1.66-4.06,2.77-4.06,6.88H23.82a12.09,12.09,0,0,0-1.1-4.22C21.62,27,21.08,27,20.64,27Z" fill="#008bfd"/><path d="M22.05,22H17.93a.71.71,0,0,0-.65.66v2.85a.72.72,0,0,0,.76.65h.76v5.15a1,1,0,0,0,1,1.1,1,1,0,0,0,1-1H21v-.65c0-.22.33-.33.33-.33v-.33c-.33-.11-.54-.33-.54-.44v-.33l.21-.22a3.55,3.55,0,0,0,.33-.54A2.4,2.4,0,0,1,21,28c-.1-.11-.1-.33-.21-.44v-.22a2.51,2.51,0,0,1,.76-1.1h.54a.7.7,0,0,0,.65-.65v-3A.63.63,0,0,0,22.05,22Zm-2.39,9.53c0,.22,0,.33-.21.33s-.22-.22-.22-.33V26.72c0-.22.11-.33.22-.33s.21.22.21.33ZM20,23.76a.69.69,0,0,1-.65-.65.7.7,0,0,1,.65-.66.71.71,0,0,1,.65.66A.62.62,0,0,1,20,23.76Z" fill="#008bfd" stroke="gray" stroke-linecap="round" stroke-linejoin="round" stroke-width="0.75"/><path d="M19.43,31.85a.24.24,0,0,1-.22-.22v-5a.22.22,0,0,1,.44,0v5.11C19.65,31.85,19.54,31.85,19.43,31.85Z" fill="#fff"/><ellipse cx="20" cy="23.09" rx="0.66" ry="0.67" fill="#fff"/><path d="M192.6,8.81H172.1A1.09,1.09,0,0,0,171,9.91V26.65a1.1,1.1,0,0,0,1.09,1.11h5.28A3.29,3.29,0,0,0,180.59,30a3.38,3.38,0,0,0,0-6.75,3.29,3.29,0,0,0-3.21,2.27h-4.19v-12H191.5v12h-3.45A7.61,7.61,0,0,0,180.59,19a8.25,8.25,0,0,0-3.64.92l1,2a5.27,5.27,0,0,1,2.55-.67,5.46,5.46,0,0,1,0,10.91,5.27,5.27,0,0,1-2.55-.67l-1,2a7.51,7.51,0,0,0,3.64.92,7.61,7.61,0,0,0,7.46-6.56h4.55a1.1,1.1,0,0,0,1.09-1.11V9.91A1.14,1.14,0,0,0,192.6,8.81Z" fill="#008bfd"/><g style="isolation:isolate"><path d="M181.51,44h-.92l-.82-2.15h-3.24L175.76,44h-.93l2.91-7.56h.85Zm-2-2.91-1.22-3.27c0-.09-.06-.25-.11-.49h0a3.17,3.17,0,0,1-.12.49l-1.2,3.27Z" fill="#008bfd"/><path d="M183.22,41.17V44h-.83V36.48h2a2.7,2.7,0,0,1,1.86.59,2.12,2.12,0,0,1,.67,1.66,2.26,2.26,0,0,1-.79,1.79,2.66,2.66,0,0,1-1.94.65Zm0-3.93v3.15h.95a2.13,2.13,0,0,0,1.42-.42,1.48,1.48,0,0,0,.49-1.2q0-1.53-1.8-1.53Z" fill="#008bfd"/><path d="M189,44h-.83V36.48H189Z" fill="#008bfd"/><path d="M172,47h-7.37v2.88a12.84,12.84,0,0,1-.8,4.71l-.43-.36a11.93,11.93,0,0,0,.73-4.34V46.54h3.74l-.4-.64.51-.12a3.25,3.25,0,0,1,.45.76H172Zm-5.68,5.38a7.1,7.1,0,0,1-1.17,1.92l-.39-.34a6,6,0,0,0,1.09-1.79Zm.57-5a6.5,6.5,0,0,1-.62,1.35v3.13h-.5V49.42a6.11,6.11,0,0,1-.62.72l-.33-.39a7.15,7.15,0,0,0,1.62-2.57Zm5,4.39h-4.44v-2.5c-.17.21-.4.48-.69.8l-.29-.42a9.18,9.18,0,0,0,1.66-2.44l.44.17a6,6,0,0,1-.36.72h1.51a5,5,0,0,0-.38-.68l.49-.14a4.07,4.07,0,0,1,.43.82h1.6v.46H170v.58h1.69v.46H170v.63h1.69v.46H170v.62h1.87Zm-1.3,1.52a2.18,2.18,0,0,1-.18.77.7.7,0,0,1-.44.35,8,8,0,0,1-1.47.08,5.56,5.56,0,0,1-1.05-.06.64.64,0,0,1-.36-.24,1,1,0,0,1-.13-.55V52.18h.51v1.47c0,.16,0,.26.14.29a5.48,5.48,0,0,0,1,.05,5.86,5.86,0,0,0,1.11-.05.39.39,0,0,0,.26-.21,1.5,1.5,0,0,0,.09-.65Zm-1.06-4.15v-.58H168v.58Zm0,1.09v-.63H168v.63Zm0,1.08v-.62H168v.62Zm-.11,1.79-.43.28a6.39,6.39,0,0,0-.87-1l.44-.29A6.52,6.52,0,0,1,169.43,53.08Zm2.71.88-.43.26a8.74,8.74,0,0,0-1.21-1.77l.44-.27A9.59,9.59,0,0,1,172.14,54Z" fill="#008bfd"/><path d="M181.4,53.83a.61.61,0,0,1-.29.57,3.46,3.46,0,0,1-1.31.16h-.44l-.17-.55.73,0a3,3,0,0,0,.83-.06.19.19,0,0,0,.11-.19V51.37H178V54.3h-.54V51.37h-2.86a6.67,6.67,0,0,1-1,3.15l-.47-.33a6.23,6.23,0,0,0,1-3.6V46h7.24Zm-3.9-5.47V46.54h-2.8v1.82Zm0,2.49V48.91h-2.8v1.94Zm3.36-2.49V46.54H178v1.82Zm0,2.49V48.91H178v1.94Z" fill="#008bfd"/><path d="M186.31,50.77l-.36.4a6.76,6.76,0,0,0-.86-1.25v4.63h-.53V49.9a14.45,14.45,0,0,1-1.34,2.47l-.35-.41a13.76,13.76,0,0,0,1.67-3.2h-1.63v-.5h1.65V46.78l-1.22.23-.26-.5a10.66,10.66,0,0,0,2.89-.69l.3.46c-.48.17-.88.29-1.18.38v1.6h1.18v.5h-1.18v.41A9.22,9.22,0,0,1,186.31,50.77Zm5.3,3.54H186v-.49h2.56V52.29h-2.21v-.5h2.21V50.34c-1.06.07-1.72.1-2,.11l-.24-.51a22.2,22.2,0,0,0,4.76-.53l.33.45q-1,.24-2.34.42v1.51h2.14v.5h-2.14v1.53h2.53ZM191,48.83h-4.3V46.1H191Zm-.54-.51V46.6h-3.22v1.72Z" fill="#008bfd"/><path d="M201.36,52.4c-.3,1.5-.73,2.25-1.28,2.25a.74.74,0,0,1-.39-.12,2.62,2.62,0,0,1-.54-.62,5.44,5.44,0,0,1-.61-1.21,8.41,8.41,0,0,1-.41-2c-.09-.88-.15-1.75-.19-2.62h-5.23V47.5h5.18c0-.74,0-1.31,0-1.72h.53c0,.79,0,1.36,0,1.72h2.91V48h-2.89c0,.69.1,1.63.24,2.8a6.08,6.08,0,0,0,.72,2.51c.34.51.56.76.68.76s.32-.23.48-.71a6.72,6.72,0,0,0,.29-1.28Zm-3.71.39c-1.61.41-3.13.74-4.56,1l-.12-.52c.54-.09,1.22-.21,2.05-.37V50h-1.77v-.54h4.13V50h-1.85v2.78c.78-.17,1.49-.33,2.12-.51ZM200.89,47l-.44.3a6.1,6.1,0,0,0-1.13-1.06l.43-.34A5.41,5.41,0,0,1,200.89,47Z" fill="#008bfd"/></g><g style="isolation:isolate"><path d="M99.2,5.28q-.15.4-.42,1l-.27.59v7H98v-6a11.42,11.42,0,0,1-1.14,1.65l-.3-.5A14.24,14.24,0,0,0,98.68,5.1Zm6.11,2.82-3.58.35a9.12,9.12,0,0,0,.52,2.89,3.83,3.83,0,0,0,1,1.61,1.93,1.93,0,0,0,.83.48.21.21,0,0,0,.17-.07,3.74,3.74,0,0,0,.21-.73,6.17,6.17,0,0,0,.14-1.27l.54.23A8.67,8.67,0,0,1,105,13a1.79,1.79,0,0,1-.34.78.63.63,0,0,1-.45.17,2.15,2.15,0,0,1-1.22-.62,4.38,4.38,0,0,1-1.2-1.82,10.42,10.42,0,0,1-.56-3l-2.14.22,0-.55L101.15,8c-.05-.88-.08-1.62-.08-2.23,0-.21,0-.41,0-.61h.53c0,1.09,0,2,.07,2.79l3.58-.36Zm-.85-1.18-.45.27a7.41,7.41,0,0,0-1.36-1.54l.46-.27A5.3,5.3,0,0,1,104.46,6.92Z" fill="#00b0f0"/><path d="M109.58,11.5c-.72.42-1.66.92-2.83,1.5l-.22-.44c.61-.29,1.08-.53,1.39-.71V9.08h-1.16V8.59h1.16V6.3H106.6V5.84h3V6.3h-1.16V8.59h1v.49h-1v2.49c.34-.17.71-.37,1.09-.61Zm5.75,2.18h-5.76v-.49h2.61V11.76H110v-.49h2.23V10H110V5.39h4.84V10h-2.18v1.24H115v.49h-2.3v1.43h2.64Zm-3.15-6.23V5.87h-1.64V7.45Zm0,2.08V7.94h-1.64V9.53Zm2.18-2.08V5.87h-1.67V7.45Zm0,2.08V7.94h-1.67V9.53Z" fill="#00b0f0"/><path d="M125.3,8.58H122a12.45,12.45,0,0,1-1.71,1.18h3.88v4.11h-.52v-.51h-4.48v.51h-.52V10.55a14.51,14.51,0,0,1-1.73.63l-.29-.47a14.45,14.45,0,0,0,4.52-2.13h-4.49V8.09h3.73V6.66h-2.8V6.15h2.8V5.09h.53V6.15h2v.51h-2V8.09h.9a20.87,20.87,0,0,0,2.48-2.55l.39.32a20.35,20.35,0,0,1-2.09,2.23h2.72Zm-1.67,2.73V10.25H119.3l-.15.06v1Zm0,1.53v-1h-4.48v1Z" fill="#00b0f0"/><path d="M128.54,10.67A17.63,17.63,0,0,1,127,13.93l-.44-.36a15.55,15.55,0,0,0,1.49-3.17Zm0-1.51-.37.39a9,9,0,0,0-1.57-1.33l.32-.41A10.88,10.88,0,0,1,128.52,9.16Zm.18-2.68-.35.42a9.57,9.57,0,0,0-1.48-1.39l.35-.41A12.71,12.71,0,0,1,128.7,6.48Zm1.53,3.2a8.68,8.68,0,0,1-.3,2.65,3.18,3.18,0,0,1-1.27,1.56l-.41-.38a3.07,3.07,0,0,0,1-1.08,5.65,5.65,0,0,0,.42-2.75Zm5.11-.41-.44.34a8.35,8.35,0,0,0-.6-.81c-2,.23-3.67.4-5.12.5l-.13-.52a5.43,5.43,0,0,0,2-2.09H129V6.16h2.39a10.69,10.69,0,0,0,.47-1.07l.54.14c-.06.17-.2.48-.41.93h3.21v.53H131.7a6.66,6.66,0,0,1-1.67,2q1.92-.12,3.87-.36a8,8,0,0,0-.89-.85l.41-.36A12.16,12.16,0,0,1,135.34,9.27Zm-3.42,4.62h-.52V9.68h.52Zm3.38-.12H134c-.5,0-.75-.23-.75-.7V9.68h.51V13q0,.27.3.27h1.27Z" fill="#00b0f0"/><path d="M140,10.1l-.36.4a7.12,7.12,0,0,0-.86-1.25v4.63h-.52V9.23a13.06,13.06,0,0,1-1.35,2.47l-.35-.41a13.68,13.68,0,0,0,1.67-3.19h-1.62V7.59h1.65V6.11l-1.22.23-.27-.49a10.85,10.85,0,0,0,2.89-.69l.31.46L138.79,6V7.59H140V8.1h-1.19v.41A8.74,8.74,0,0,1,140,10.1Zm5.3,3.54h-5.63v-.49h2.57V11.63H140v-.51h2.22V9.67l-2,.12L140,9.27a22.18,22.18,0,0,0,4.76-.52l.34.44a23.69,23.69,0,0,1-2.35.42v1.51h2.15v.51h-2.15v1.52h2.53Zm-.64-5.48h-4.29V5.44h4.29Zm-.53-.5V5.93h-3.23V7.66Z" fill="#00b0f0"/></g><path d="M77.23,9.3H56.73a1.09,1.09,0,0,0-1.09,1.1V27.14a1.1,1.1,0,0,0,1.09,1.11H62a3.29,3.29,0,0,0,3.21,2.27,3.38,3.38,0,0,0,0-6.75A3.29,3.29,0,0,0,62,26H57.82v-12H76.13V26H72.68a7.61,7.61,0,0,0-7.46-6.56,8.25,8.25,0,0,0-3.64.92l1,2a5.27,5.27,0,0,1,2.55-.67,5.46,5.46,0,0,1,0,10.91,5.27,5.27,0,0,1-2.55-.67l-1,2a7.51,7.51,0,0,0,3.64.92,7.61,7.61,0,0,0,7.46-6.56h4.55a1.1,1.1,0,0,0,1.09-1.11V10.4A1.14,1.14,0,0,0,77.23,9.3Z" fill="#008bfd"/><g style="isolation:isolate"><path d="M66,44.1h-.92L64.24,42H61l-.77,2.15H59.3l2.91-7.57h.85Zm-2-2.91-1.21-3.27a3.33,3.33,0,0,1-.12-.5h0a3.06,3.06,0,0,1-.12.5l-1.2,3.27Z" fill="#008bfd"/><path d="M67.94,41.23V44.1h-.83V36.53h2a2.7,2.7,0,0,1,1.86.6,2.1,2.1,0,0,1,.67,1.66,2.26,2.26,0,0,1-.79,1.79,2.71,2.71,0,0,1-1.94.65Zm0-3.93v3.15h1A2.13,2.13,0,0,0,70.31,40a1.49,1.49,0,0,0,.49-1.21c0-1-.6-1.52-1.79-1.52Z" fill="#008bfd"/><path d="M74,44.1h-.83V36.53H74Z" fill="#008bfd"/><path d="M56.34,47.07H49V50a12.84,12.84,0,0,1-.79,4.71l-.43-.36A12.15,12.15,0,0,0,48.46,50V46.6H52.2c-.13-.22-.26-.43-.4-.64l.52-.12a3.25,3.25,0,0,1,.45.76h3.57Zm-5.68,5.38a7.12,7.12,0,0,1-1.18,1.92L49.09,54a5.87,5.87,0,0,0,1.09-1.79Zm.56-5a6,6,0,0,1-.62,1.35V51.9h-.5V49.48a6.11,6.11,0,0,1-.62.72l-.33-.39a7,7,0,0,0,1.62-2.57Zm5,4.39H51.79v-2.5c-.16.21-.39.47-.68.8l-.3-.42a9,9,0,0,0,1.66-2.44l.44.17a5.9,5.9,0,0,1-.35.72h1.5a3.43,3.43,0,0,0-.38-.68l.49-.14a3.78,3.78,0,0,1,.44.82H56.2v.46H54.36v.58h1.7v.46h-1.7v.63h1.7v.46h-1.7v.62h1.87Zm-1.3,1.52a2,2,0,0,1-.17.77.72.72,0,0,1-.44.34,7,7,0,0,1-1.47.09,5.56,5.56,0,0,1-1.05-.06.56.56,0,0,1-.36-.25.9.9,0,0,1-.13-.54V52.24h.5v1.47c0,.16,0,.25.14.29a5.63,5.63,0,0,0,1,0,7,7,0,0,0,1.11,0,.41.41,0,0,0,.26-.21,1.53,1.53,0,0,0,.09-.65Zm-1.06-4.15V48.6H52.3v.58Zm0,1.09v-.63H52.3v.63Zm0,1.08v-.62H52.3v.62Zm-.1,1.79-.44.28a5.52,5.52,0,0,0-.87-1l.44-.29A7.14,7.14,0,0,1,53.78,53.14Zm2.71.88-.43.26a9.16,9.16,0,0,0-1.21-1.77l.44-.27A9.27,9.27,0,0,1,56.49,54Z" fill="#008bfd"/><path d="M66,53.89a.56.56,0,0,1-.29.56,3.15,3.15,0,0,1-1.3.17H64l-.16-.55.72,0a2.9,2.9,0,0,0,.83-.06.2.2,0,0,0,.12-.19V51.43H62.63v2.93h-.54V51.43H59.24a6.67,6.67,0,0,1-1,3.15l-.47-.33a6.24,6.24,0,0,0,1-3.6V46.06H66Zm-3.9-5.47V46.6h-2.8v1.82Zm0,2.49V49h-2.8v1.94Zm3.37-2.49V46.6H62.63v1.82Zm0,2.49V49H62.63v1.94Z" fill="#008bfd"/><path d="M71.15,50.83l-.36.4A6.31,6.31,0,0,0,69.93,50v4.63h-.52V50a13.73,13.73,0,0,1-1.35,2.47L67.71,52a13.58,13.58,0,0,0,1.67-3.2H67.76v-.5h1.65V46.84l-1.22.23-.27-.5a10.85,10.85,0,0,0,2.89-.69l.31.46c-.49.17-.88.29-1.19.38v1.6h1.19v.5H69.93v.41A8.73,8.73,0,0,1,71.15,50.83Zm5.3,3.54H70.82v-.49h2.57V52.35H71.17v-.5h2.22V50.4c-1.07.07-1.73.1-2,.11L71.17,50a22.78,22.78,0,0,0,4.76-.53l.34.45c-.67.15-1.45.29-2.35.42v1.51h2.15v.5H73.92v1.53h2.53Zm-.64-5.48H71.52V46.16h4.29Zm-.53-.51V46.66H72.05v1.72Z" fill="#008bfd"/><path d="M86.45,52.46c-.29,1.5-.72,2.25-1.28,2.25a.67.67,0,0,1-.39-.13,2.55,2.55,0,0,1-.53-.61,5.67,5.67,0,0,1-.62-1.21,8.59,8.59,0,0,1-.4-2c-.09-.88-.16-1.75-.2-2.62H77.8v-.54H83c0-.74,0-1.32,0-1.72h.52c0,.79,0,1.36,0,1.72h2.91v.54H83.53c0,.69.11,1.62.25,2.8a5.93,5.93,0,0,0,.72,2.51c.33.51.56.76.68.76s.32-.24.47-.71a5.59,5.59,0,0,0,.29-1.28Zm-3.7.39c-1.62.41-3.14.74-4.56,1l-.13-.52c.54-.09,1.23-.21,2-.37v-2.9H78.34v-.54h4.13v.54H80.62v2.78q1.17-.26,2.13-.51ZM86,47.08l-.44.3a5.75,5.75,0,0,0-1.12-1.06l.43-.34A5.4,5.4,0,0,1,86,47.08Z" fill="#008bfd"/></g><path d="M162.52,17.59l8.06,4-7.94,4a9,9,0,0,0-.06-8" fill="#505050"/><line x1="78.32" y1="21.56" x2="163.55" y2="21.56" fill="none" stroke="#505050" stroke-miterlimit="10"/></svg>