<svg xmlns="http://www.w3.org/2000/svg" viewBox="0 0 204.71 64.78"><title>OJ104440671</title><path d="M66,40.4a11.81,11.81,0,0,1-16.84-2.29,12.56,12.56,0,0,1,2.24-17.29,11.82,11.82,0,0,1,16.84,2.3A12.54,12.54,0,0,1,66,40.4ZM69.69,22a13.57,13.57,0,0,0-19.36-2.63,14.43,14.43,0,0,0-2.55,19.87,13.62,13.62,0,0,0,11,5.55,13.45,13.45,0,0,0,8.39-2.92A14.44,14.44,0,0,0,69.69,22Z" fill="#008bfd"/><path d="M52.06,33.18a17,17,0,0,1-2-2.35,18.28,18.28,0,0,0-1.66,6.88c.11.16.11.29.23.44a12.55,12.55,0,0,0,2,2.05A14.13,14.13,0,0,1,52.06,33.18Z" fill="#008bfd"/><path d="M56.67,23.74a21,21,0,0,0-3.33,3,15.71,15.71,0,0,0-1.61,2.05,15.42,15.42,0,0,0,1.9,2.46,16.32,16.32,0,0,1,2.2-2.56A26.47,26.47,0,0,1,59,26.06C58.16,25.3,57.38,24.53,56.67,23.74Z" fill="#008bfd"/><path d="M68.14,22.94a12,12,0,0,0-1.73-1.82,12.53,12.53,0,0,0-8,1.53c.76.84,1.51,1.63,2.24,2.36C65,22.58,68.14,22.94,68.14,22.94Z" fill="#008bfd"/><path d="M50.34,31a19.82,19.82,0,0,1,1.19-2.06,9.84,9.84,0,0,1-1.6-6.79,13.09,13.09,0,0,0-1.29,1.6C48.26,25.33,48.24,27.89,50.34,31Z" fill="#008bfd"/><path d="M55.9,33.36a21.6,21.6,0,0,1-2.27-2.14,14.25,14.25,0,0,0-1.14,2,23.54,23.54,0,0,0,2.09,1.91,19.12,19.12,0,0,0,12.56,4.38,9,9,0,0,0,1.54-1.94C67.45,37.78,62.19,38.47,55.9,33.36Z" fill="#008bfd"/><path d="M50.54,30.82a15.72,15.72,0,0,0,2,2.35,15.36,15.36,0,0,1,1.14-2,15.42,15.42,0,0,1-1.9-2.46A15.58,15.58,0,0,0,50.54,30.82Z" fill="#008bfd"/><path d="M59,26.06a97,97,0,0,0,11.15,8.82,9.82,9.82,0,0,0,.33-1.05A95.51,95.51,0,0,1,60.61,25Q59.82,25.46,59,26.06Z" fill="#008bfd"/><path d="M58.38,22.65q-1.65-1.77-3.36-3.8a10.05,10.05,0,0,0-1.59.66,26.3,26.3,0,0,0,3.24,4.22A17.22,17.22,0,0,1,58.38,22.65Z" fill="#008bfd"/><path d="M58.45,22.61a18.74,18.74,0,0,0-1.87,1.19c.72.78,1.45,1.59,2.25,2.35.57-.4,1.34-.88,1.87-1.18C60,24.24,59.21,23.45,58.45,22.61Z" fill="#008bfd"/><path d="M58.25,22.51a16.24,16.24,0,0,0-1.67,1.12c.72.79,1.74,1.81,2.54,2.57.57-.4,1.05-.8,1.58-1.11C60,24.37,59,23.34,58.25,22.51Z" fill="#008bfd"/><path d="M64.3,29.06a2.7,2.7,0,0,0-.48,3.7,2.56,2.56,0,0,0,3.63.51,2.72,2.72,0,0,0,.48-3.72A2.55,2.55,0,0,0,64.3,29.06Z" fill="#008bfd"/><path d="M59.13,35.19a2.52,2.52,0,0,0-.45,3.44,2.37,2.37,0,0,0,3.36.45,2.49,2.49,0,0,0,.44-3.43A2.36,2.36,0,0,0,59.13,35.19Z" fill="#008bfd"/><path d="M50,27.86a3.79,3.79,0,0,0-.68,5.21,3.58,3.58,0,0,0,5.1.7,3.8,3.8,0,0,0,.67-5.23A3.59,3.59,0,0,0,50,27.86Z" fill="#008bfd"/><g style="isolation:isolate"><path d="M58.15,46.42l-2,7h-1l-1.44-5.12a3.19,3.19,0,0,1-.11-.71h0a4.11,4.11,0,0,1-.13.7l-1.45,5.13h-1l-2-7H50l1.49,5.38a3.78,3.78,0,0,1,.12.7h0a5,5,0,0,1,.15-.7l1.55-5.38h.79l1.48,5.41a4.92,4.92,0,0,1,.12.66h0a3.2,3.2,0,0,1,.13-.67l1.43-5.4Z" fill="#008bfd"/><path d="M62.71,51.13H59.18a1.87,1.87,0,0,0,.45,1.29,1.54,1.54,0,0,0,1.18.45,2.46,2.46,0,0,0,1.55-.56v.76a3,3,0,0,1-1.74.47A2.11,2.11,0,0,1,59,52.86a2.79,2.79,0,0,1-.6-1.91A2.76,2.76,0,0,1,59,49a2.12,2.12,0,0,1,1.64-.73,1.88,1.88,0,0,1,1.52.63,2.66,2.66,0,0,1,.54,1.77Zm-.82-.68a1.68,1.68,0,0,0-.34-1.08,1.12,1.12,0,0,0-.91-.39,1.28,1.28,0,0,0-1,.41,1.78,1.78,0,0,0-.49,1.06Z" fill="#008bfd"/><path d="M64.74,52.7h0v.73h-.8V46h.8v3.29h0a1.88,1.88,0,0,1,1.73-1A1.81,1.81,0,0,1,68,49a2.74,2.74,0,0,1,.55,1.8,3.13,3.13,0,0,1-.61,2,2,2,0,0,1-1.67.75A1.65,1.65,0,0,1,64.74,52.7Zm0-2v.7a1.48,1.48,0,0,0,.4,1,1.34,1.34,0,0,0,1,.43,1.36,1.36,0,0,0,1.14-.56,2.56,2.56,0,0,0,.41-1.54,2,2,0,0,0-.39-1.31,1.25,1.25,0,0,0-1-.48,1.45,1.45,0,0,0-1.13.49A1.79,1.79,0,0,0,64.72,50.69Z" fill="#008bfd"/><path d="M40.64,58.47A8.48,8.48,0,0,0,42.51,56l.71.25c0,.07-.1.1-.22.09a10.44,10.44,0,0,1-.66,1.08,1.35,1.35,0,0,1,.31.09c0,.06-.07.11-.19.12v3.1h-.59V58a9.77,9.77,0,0,1-.88.92c-.08-.09-.23-.25-.35-.36a12.53,12.53,0,0,1-.91,5.21,2.21,2.21,0,0,0-.52-.39,12,12,0,0,0,.8-5V55.29H43.9v-.8l.88.06c0,.07-.06.12-.2.14v.6h4v.58H40.64Zm1.83,3.1a4,4,0,0,1-1.16,2l-.53-.34a3.47,3.47,0,0,0,1.14-1.82Zm1.27-1.09V58a6.15,6.15,0,0,1-.65.75,2.65,2.65,0,0,0-.44-.36A7.42,7.42,0,0,0,44.27,56l.72.24a.2.2,0,0,1-.21.08c-.09.2-.2.41-.32.62h1.2a7.94,7.94,0,0,0,.43-.89l.72.24c0,.06-.09.09-.2.09-.08.16-.21.36-.33.56h1.9v.46h-2v.58h1.69v.42H46.23V59h1.69v.42H46.23V60h2.13v.48Zm0,2.39c0,.22.08.26.52.26h1.59c.35,0,.42-.1.45-.9a1.9,1.9,0,0,0,.57.23c-.07,1-.27,1.24-1,1.24h-1.7c-.87,0-1.09-.17-1.09-.83V61.39l.81.06c0,.06-.06.11-.19.13Zm.29-2.3a8.34,8.34,0,0,1,1.74,1l-.42.43A8.23,8.23,0,0,0,43.6,61Zm1.64-2.63v-.58H44.31v.58Zm0,1v-.6H44.31V59Zm0,1v-.62H44.31V60ZM48,63.55a8.38,8.38,0,0,0-1.49-2l.53-.27a8.57,8.57,0,0,1,1.53,2Z" fill="#008bfd"/><path d="M57.85,55.21v7.6c0,.92-.44.93-2.33.91a2.58,2.58,0,0,0-.24-.65l1,0c.83,0,.88,0,.88-.28V60.64H54.31v3h-.65v-3H51a5.83,5.83,0,0,1-1.28,3.19,2.46,2.46,0,0,0-.51-.45,6.63,6.63,0,0,0,1.23-4.49V55.21Zm-6.72,3.68c0,.35,0,.72,0,1.11h2.57V58.25H51.13Zm2.53-3H51.13v1.77h2.53Zm3.52,1.77V55.85H54.31v1.77ZM54.31,60h2.87V58.25H54.31Z" fill="#008bfd"/><path d="M61.68,58.71C62,59,62.91,60,63.11,60.23l-.4.52c-.18-.3-.66-.92-1-1.38v4.41H61v-4.7A11.37,11.37,0,0,1,59.63,62a4,4,0,0,0-.36-.6,11.39,11.39,0,0,0,1.59-3.3H59.37v-.64H61V55.73c-.49.14-1,.27-1.48.38a1.82,1.82,0,0,0-.22-.5,13.08,13.08,0,0,0,3.21-1.13l.61.5A.14.14,0,0,1,63,55h-.09a8.2,8.2,0,0,1-1.26.51v1.9h1.39v.64H61.68ZM66,62.91H68.6v.6H62.8v-.6h2.56V61.49h-2V60.9h2V59.63H63.14V59h5.21v.6H66V60.9h2.08v.59H66ZM68,55v3.2H63.5V55Zm-.65,2.61v-2H64.13v2Z" fill="#008bfd"/><path d="M78.47,57.07h-3c.25,3.24,1,6,2.12,6,.29,0,.42-.58.48-1.94a2,2,0,0,0,.6.38c-.13,1.76-.4,2.27-1.14,2.27-1.63,0-2.48-3.11-2.76-6.73h-5.3v-.66h5.25l-.06-1.88.94,0c0,.09-.06.14-.21.16,0,.56,0,1.12,0,1.67h3Zm-6.12,2.22v3l2.22-.5.06.59c-1.71.43-3.55.86-4.7,1.11a.19.19,0,0,1-.14.16l-.28-.78c.59-.11,1.34-.26,2.17-.44V59.29H69.81v-.64h4.48v.64Zm4.2-4.75a8.6,8.6,0,0,1,1.5,1.24l-.47.44a8.51,8.51,0,0,0-1.48-1.3Z" fill="#008bfd"/></g><rect x="65.1" y="0.37" width="114.21" height="20" fill="none"/><g style="isolation:isolate"><path d="M96.06,10.06l-1,.31v3c0,.79-.39.84-1.73.84a2.14,2.14,0,0,0-.21-.65h.6c.7,0,.7,0,.7-.21v-2.8l-1.14.35a.2.2,0,0,1-.13.16l-.24-.78,1.51-.4V7.65H93V7h1.42V4.94l.84,0c0,.09-.06.13-.2.15V7h1.21v.63H95.08V9.73L96,9.48Zm5-.19.43.19a.22.22,0,0,1-.1.09,5.55,5.55,0,0,1-1.8,2.48,7.45,7.45,0,0,0,2.74,1,2,2,0,0,0-.41.58A7.3,7.3,0,0,1,99.08,13a9.14,9.14,0,0,1-3,1.19,1.93,1.93,0,0,0-.32-.6,8.84,8.84,0,0,0,2.8-1,5.76,5.76,0,0,1-1.42-2l.52-.16h-1V9.89H101Zm-.9-2a10.91,10.91,0,0,0,1.06-1.77l.74.27q0,.09-.21.09a13.31,13.31,0,0,1-1,1.57h1.38V9.76h-.63V8.62H96.75V9.75h-.61V8h4.42Zm1.6-2.4a.14.14,0,0,1-.11,0h-.08a31.31,31.31,0,0,1-5.29.74,1.5,1.5,0,0,0-.16-.52A29.32,29.32,0,0,0,101.29,5ZM97.24,8a5,5,0,0,0-.61-1.37l.53-.18a4.73,4.73,0,0,1,.63,1.34Zm.5,2.52a4.85,4.85,0,0,0,1.37,1.78,4.72,4.72,0,0,0,1.51-1.78Zm1.12-2.64a5.64,5.64,0,0,0-.41-1.47L99,6.23a5.43,5.43,0,0,1,.44,1.44Z" fill="#00b0f0"/><path d="M105.09,8.56c.27.36,1,1.45,1.18,1.72l-.37.51c-.14-.32-.51-1-.81-1.46V14.2h-.62V9.33a11.61,11.61,0,0,1-1.24,2.93,4.15,4.15,0,0,0-.35-.57,12,12,0,0,0,1.52-3.91h-1.32V7.15h1.39V4.93l.82.05c0,.07-.07.12-.2.13v2h1.14v.63h-1.14Zm4.63,4.11v.65h2.44v.52h-4.6v.4h-.63V11.19a7.27,7.27,0,0,1-.75.8c-.08-.12-.25-.38-.35-.5A7.08,7.08,0,0,0,107.56,9h-.9V7h2.27V9h-1.17l.55.19c0,.08-.12.1-.21.09-.1.22-.21.43-.33.65h1.29a8.53,8.53,0,0,0,.37-.89l.76.18a.22.22,0,0,1-.21.1c-.08.18-.2.4-.31.61H112v.48h-2.32v.63h1.83v.49h-1.83v.63h1.83v.49Zm.94-6.92h1.59v.54h-1.59V6.8H110V6.29h-1.67v.54h-.61V6.29h-1.63V5.75h1.63V4.94l.8,0c0,.08-.06.12-.19.13v.64H110V4.94l.81,0c0,.08-.06.12-.19.13ZM107.2,7.51v1h1.18v-1Zm1.9,3.55v-.63h-1.54v.63Zm0,1.12v-.63h-1.54v.63Zm-1.54.49v.65h1.54v-.65ZM111.8,7V9h-2.29V7Zm-.55,1.5v-1H110v1Z" fill="#00b0f0"/><path d="M116.35,12.91h-2v.84h-.6V10.2a6.51,6.51,0,0,1-.58,1,3.41,3.41,0,0,0-.36-.57,11.83,11.83,0,0,0,1.43-4.59h-1.21V5.44h3.7v.61H114.9a19.86,19.86,0,0,1-.54,2.53h2Zm-.6-3.73h-1.38v3.13h1.38Zm1.83,2.2a4.5,4.5,0,0,1-.8,2.38l-.48-.28a4.12,4.12,0,0,0,.76-2.22Zm4.18-1.27.35,0a1.3,1.3,0,0,0,0,.22c-.11,2.42-.23,3.29-.49,3.58s-.4.28-.93.28l-.77,0a1.66,1.66,0,0,0-.18-.6,9.38,9.38,0,0,0,1,.05.4.4,0,0,0,.33-.1c.18-.19.29-.93.39-2.84h-4.24V5.37h4.68V6h-2V7h1.75v.56h-1.75v1h1.75v.56h-1.75v1h1.85ZM119.3,6h-1.47V7h1.47Zm0,2.55v-1h-1.47v1Zm-1.47.56v1h1.47v-1Zm.37,4.34a10.61,10.61,0,0,0-.16-1.88l.48-.07a9.88,9.88,0,0,1,.19,1.87Zm1.39-.39a8.13,8.13,0,0,0-.47-1.58l.45-.12a8,8,0,0,1,.5,1.56Zm.93-2a5.76,5.76,0,0,1,.73,1.2l-.41.2a6.25,6.25,0,0,0-.7-1.23Z" fill="#00b0f0"/><path d="M123.31,7.75a7.82,7.82,0,0,1,1.87,1l-.38.56A8.6,8.6,0,0,0,123,8.26Zm-.07,5.89a32.05,32.05,0,0,0,1.81-3.3l.51.42a33.94,33.94,0,0,1-1.65,3.12.22.22,0,0,1,0,.14.2.2,0,0,1,0,.11ZM123.85,5a8.34,8.34,0,0,1,1.82,1.1l-.39.55a7.52,7.52,0,0,0-1.81-1.15Zm3.41,5.77a3.81,3.81,0,0,1-1.52,3.42,2.1,2.1,0,0,0-.49-.45,3.26,3.26,0,0,0,1.39-3V9.71l.81,0c0,.07-.06.11-.19.13Zm-1.43-2.14,1.16,0a12.29,12.29,0,0,0,.9-1.73h-2.18V6.27h2.73V4.94l.88,0c0,.09-.06.13-.2.15V6.27h3.07v.62h-3.38c0,.07-.1.09-.21.09-.23.47-.58,1.1-.9,1.62l3-.11a12.64,12.64,0,0,0-.91-.89l.52-.29a9.79,9.79,0,0,1,1.91,2.08l-.55.34a5.77,5.77,0,0,0-.51-.71c-1.8.11-3.69.21-4.88.26a.18.18,0,0,1-.14.14Zm2.61,5.14v-4l.8.05c0,.07-.06.12-.19.14v3.84Zm2.45-.69c0,.36,0,.41.24.41h.32c.26,0,.31-.1.34-.32s0-.55,0-1a1.4,1.4,0,0,0,.48.26c0,1.17,0,1.65-.82,1.65H131c-.73,0-.73-.47-.73-1V9.71l.83,0c0,.07-.06.12-.2.13Z" fill="#00b0f0"/><path d="M135.33,9.15c.33.31,1.23,1.26,1.43,1.52l-.4.52c-.18-.3-.66-.92-1-1.38v4.41h-.66V9.52a11.37,11.37,0,0,1-1.39,2.88,4,4,0,0,0-.36-.6,11.39,11.39,0,0,0,1.59-3.3H133V7.86h1.65V6.17c-.49.15-1,.27-1.48.38a1.82,1.82,0,0,0-.22-.5,13.1,13.1,0,0,0,3.21-1.12l.61.5a.18.18,0,0,1-.11,0,.15.15,0,0,1-.09,0,6.58,6.58,0,0,1-1.26.51v1.9h1.39V8.5h-1.39Zm4.36,4.2h2.56V14h-5.8v-.6H139V11.93h-2v-.59h2V10.07h-2.23v-.6H142v.6h-2.32v1.27h2.08v.59h-2.08Zm1.94-7.94v3.2h-4.48V5.41ZM141,8V6h-3.2V8Z" fill="#00b0f0"/></g><path d="M191.76,17.85h-20.5A1.1,1.1,0,0,0,170.17,19V35.7a1.09,1.09,0,0,0,1.09,1.1h5.28a3.29,3.29,0,0,0,3.21,2.27,3.37,3.37,0,0,0,0-6.74,3.29,3.29,0,0,0-3.21,2.26h-4.19v-12h18.31v12h-3.45A7.61,7.61,0,0,0,179.75,28a8.25,8.25,0,0,0-3.64.92l1,2a5.39,5.39,0,0,1,2.55-.67,5.46,5.46,0,0,1,0,10.92,5.28,5.28,0,0,1-2.55-.68l-1,2a7.4,7.4,0,0,0,3.64.92,7.61,7.61,0,0,0,7.46-6.56h4.55a1.09,1.09,0,0,0,1.09-1.1V19A1.14,1.14,0,0,0,191.76,17.85Z" fill="#008bfd"/><g style="isolation:isolate"><path d="M180.49,53.42h-.91l-.74-2h-3l-.7,2h-.91l2.69-7h.85Zm-1.92-2.7-1.1-3a2.8,2.8,0,0,1-.1-.46h0a2.6,2.6,0,0,1-.11.46l-1.09,3Z" fill="#008bfd"/><path d="M182.34,50.77v2.65h-.82v-7h1.93a2.55,2.55,0,0,1,1.74.54,2,2,0,0,1,.61,1.55,2.12,2.12,0,0,1-.68,1.63,2.64,2.64,0,0,1-1.85.63Zm0-3.61V50h.86a1.92,1.92,0,0,0,1.3-.39,1.36,1.36,0,0,0,.45-1.09c0-.93-.55-1.39-1.65-1.39Z" fill="#008bfd"/><path d="M187.94,53.42h-.82v-7h.82Z" fill="#008bfd"/><path d="M163.19,58.46a8.48,8.48,0,0,0,1.87-2.5l.71.25c0,.07-.1.1-.22.09a10.44,10.44,0,0,1-.66,1.08,1.35,1.35,0,0,1,.31.09c0,.06-.07.11-.19.12v3.1h-.59V58a9.77,9.77,0,0,1-.88.92c-.08-.09-.23-.25-.35-.36a12.53,12.53,0,0,1-.91,5.21,2.21,2.21,0,0,0-.52-.39,12,12,0,0,0,.8-5V55.28h3.89v-.8l.89.06c0,.07-.06.12-.2.14v.6h3.94v.58h-7.89Zm1.83,3.1a4,4,0,0,1-1.16,2l-.53-.34a3.47,3.47,0,0,0,1.14-1.82Zm1.27-1.09V58a6.15,6.15,0,0,1-.65.75,2.65,2.65,0,0,0-.44-.36A7.6,7.6,0,0,0,166.83,56l.72.24a.2.2,0,0,1-.21.08c-.1.2-.2.41-.32.62h1.2a7.94,7.94,0,0,0,.43-.89l.72.24c0,.06-.09.09-.2.09-.08.16-.21.36-.33.56h1.9v.46h-2v.58h1.69v.42h-1.69V59h1.69v.42h-1.69V60h2.13v.48Zm0,2.39c0,.22.08.26.52.26h1.6c.35,0,.42-.1.45-.9a1.9,1.9,0,0,0,.57.23c-.07,1-.27,1.24-1,1.24h-1.71c-.87,0-1.09-.17-1.09-.83V61.38l.81.06c0,.06-.06.11-.19.13Zm.29-2.3a8.17,8.17,0,0,1,1.75,1l-.42.43A8.33,8.33,0,0,0,166.15,61Zm1.65-2.63v-.58h-1.33v.58Zm0,1v-.6h-1.33V59Zm0,1v-.62h-1.33V60Zm2.37,3.55a8.38,8.38,0,0,0-1.49-2l.53-.27a8.23,8.23,0,0,1,1.52,2Z" fill="#008bfd"/><path d="M180.41,55.2v7.6c0,.92-.44.93-2.33.91a2.58,2.58,0,0,0-.24-.65l1,0c.83,0,.88,0,.88-.28V60.63h-2.88v3h-.65v-3h-2.63a5.83,5.83,0,0,1-1.28,3.19,2.46,2.46,0,0,0-.51-.45A6.63,6.63,0,0,0,173,58.88V55.2Zm-6.73,3.68c0,.35,0,.72,0,1.11h2.57V58.24h-2.53Zm2.53-3h-2.53v1.77h2.53Zm3.53,1.77V55.84h-2.88v1.77ZM176.86,60h2.88V58.24h-2.88Z" fill="#008bfd"/><path d="M184.23,58.7c.33.31,1.23,1.26,1.43,1.52l-.4.52c-.18-.3-.66-.92-1-1.38v4.41h-.66v-4.7A11.37,11.37,0,0,1,182.18,62a4,4,0,0,0-.36-.6,11.39,11.39,0,0,0,1.59-3.3h-1.49v-.64h1.65V55.72c-.49.14-1,.27-1.48.38a1.82,1.82,0,0,0-.22-.5,13.08,13.08,0,0,0,3.21-1.13l.61.5a.14.14,0,0,1-.11,0h-.09a8.2,8.2,0,0,1-1.26.51v1.9h1.39v.64h-1.39Zm4.36,4.2h2.57v.6h-5.81v-.6h2.57V61.48h-2v-.59h2V59.62h-2.23V59h5.22v.6h-2.32v1.27h2.08v.59h-2.08ZM190.53,55v3.2h-4.48V55Zm-.65,2.61v-2h-3.2v2Z" fill="#008bfd"/><path d="M201,57.06h-3c.25,3.24,1,6,2.12,6,.29,0,.42-.58.48-1.94a2.12,2.12,0,0,0,.59.38c-.13,1.76-.39,2.27-1.13,2.27-1.63,0-2.48-3.11-2.76-6.73H192V56.4h5.26c0-.62-.05-1.25-.06-1.88l.94,0c0,.09-.06.14-.21.16,0,.56,0,1.12,0,1.67H201Zm-6.13,2.22v3l2.23-.5.05.59c-1.71.43-3.55.86-4.7,1.11a.19.19,0,0,1-.14.16l-.28-.78c.59-.11,1.34-.26,2.17-.44V59.28h-1.87v-.64h4.48v.64Zm4.21-4.75a8.6,8.6,0,0,1,1.5,1.24l-.47.44a8.51,8.51,0,0,0-1.48-1.3Z" fill="#008bfd"/></g><path d="M161.7,26.59l8,4-8,4a9,9,0,0,0,0-8" fill="#505050"/><path d="M7.85,22.77a4.5,4.5,0,0,0-3,5.67c.66,2.55,3,4.21,5.27,3.66a4.49,4.49,0,0,0,3-5.66C12.57,23.77,10.16,22.11,7.85,22.77Z" fill="#008bfd"/><path d="M12.79,32.79c-.44,0-.88.77-1.54,1.11s-1.32.88-3.18,0S6,32.23,4.44,32.23.38,35,.38,39.11H16a12.05,12.05,0,0,0-1.1-4.21C13.77,32.79,13.23,32.79,12.79,32.79Z" fill="#008bfd"/><path d="M14.19,27.84H10.07a.71.71,0,0,0-.65.66v2.85a.73.73,0,0,0,.76.66h.76v5.15a1,1,0,0,0,1,1.09,1,1,0,0,0,1-1h.21v-.66c0-.22.33-.33.33-.33V36c-.33-.11-.54-.33-.54-.44v-.32L13.1,35a3.53,3.53,0,0,0,.33-.55,2.4,2.4,0,0,1-.33-.55c-.1-.11-.1-.33-.21-.44v-.22a2.52,2.52,0,0,1,.76-1.09h.54a.71.71,0,0,0,.65-.66v-3A.63.63,0,0,0,14.19,27.84ZM11.8,37.38c0,.22,0,.33-.21.33s-.22-.22-.22-.33V32.56c0-.22.11-.33.22-.33s.21.22.21.33Zm.33-7.78a.66.66,0,0,1,0-1.32.71.71,0,0,1,.65.66A.63.63,0,0,1,12.13,29.6Z" fill="#008bfd" stroke="gray" stroke-linecap="round" stroke-linejoin="round" stroke-width="0.75"/><path d="M11.57,37.68a.24.24,0,0,1-.22-.22v-5a.22.22,0,1,1,.44,0v5.1C11.79,37.68,11.68,37.68,11.57,37.68Z" fill="#fff"/><ellipse cx="12.14" cy="28.92" rx="0.66" ry="0.67" fill="#fff"/><line x1="162.7" y1="30.61" x2="72.52" y2="30.61" fill="none" stroke="#505050" stroke-miterlimit="10"/></svg>