<svg xmlns="http://www.w3.org/2000/svg" xmlns:xlink="http://www.w3.org/1999/xlink" viewBox="0 0 316 315.2"><defs><style>.cls-1,.cls-4{fill:#fff;}.cls-16,.cls-2,.cls-6{fill:#3c3c41;}.cls-2{opacity:0.05;}.cls-2,.cls-4,.cls-5,.cls-6{isolation:isolate;}.cls-15,.cls-17,.cls-18,.cls-3,.cls-5{fill:none;}.cls-4{opacity:0.6;}.cls-5{stroke:#75757a;stroke-width:0.5px;opacity:0.5;}.cls-15,.cls-17,.cls-18,.cls-5{stroke-miterlimit:10;}.cls-6{opacity:0.2;}.cls-7{fill:#ccc;fill-opacity:0.3;}.cls-8{fill:url(#Degradado_sin_nombre);}.cls-9{fill:#50e6ff;}.cls-10{fill:#c3f1ff;}.cls-11{fill:#9cebff;}.cls-12{fill:url(#Degradado_sin_nombre_2);}.cls-13{fill:url(#Degradado_sin_nombre_3);}.cls-14{fill:url(#Degradado_sin_nombre_4);}.cls-15,.cls-17,.cls-18{stroke:#3c3c41;}.cls-17{stroke-dasharray:1.46 2.43;}.cls-18{stroke-dasharray:1.31 2.19;}.cls-19{fill:url(#Degradado_sin_nombre_5);}.cls-20{fill:url(#Degradado_sin_nombre_6);}.cls-21{fill:url(#Degradado_sin_nombre_7);}.cls-22{fill:#1490df;}.cls-23{fill:url(#Degradado_sin_nombre_8);}.cls-24{fill:url(#Degradado_sin_nombre_9);}.cls-25{fill:url(#Degradado_sin_nombre_10);}.cls-26{fill:url(#Degradado_sin_nombre_11);}.cls-27{fill:url(#Degradado_sin_nombre_12);}.cls-28{fill:url(#Degradado_sin_nombre_13);}.cls-29{fill:url(#Degradado_sin_nombre_14);}.cls-30{fill:url(#Degradado_sin_nombre_15);}.cls-31{fill:#e81122;}.cls-32{fill:#6ebcdb;}.cls-33{fill:#5db4d7;}.cls-34{fill:#e6e6e6;}.cls-35{fill:#86d633;}.cls-36{fill:#1e1e1e;}</style><linearGradient id="Degradado_sin_nombre" x1="39.57" y1="450.22" x2="39.57" y2="431.46" gradientTransform="translate(0 -284.26)" gradientUnits="userSpaceOnUse"><stop offset="0" stop-color="#0078d4"/><stop offset="0.82" stop-color="#5ea0ef"/></linearGradient><linearGradient id="Degradado_sin_nombre_2" x1="39.57" y1="457.46" x2="39.57" y2="450.22" gradientTransform="translate(0 -284.26)" gradientUnits="userSpaceOnUse"><stop offset="0.15" stop-color="#ccc"/><stop offset="1" stop-color="#707070"/></linearGradient><linearGradient id="Degradado_sin_nombre_3" x1="76.43" y1="450.22" x2="76.43" y2="431.46" xlink:href="#Degradado_sin_nombre"/><linearGradient id="Degradado_sin_nombre_4" x1="76.43" y1="457.46" x2="76.43" y2="450.22" xlink:href="#Degradado_sin_nombre_2"/><linearGradient id="Degradado_sin_nombre_5" x1="24" y1="511.25" x2="26.37" y2="513.62" gradientTransform="translate(2.88 -284.87)" gradientUnits="userSpaceOnUse"><stop offset="0" stop-color="#86d633"/><stop offset="0.24" stop-color="#83d232"/><stop offset="0.5" stop-color="#7cc52f"/><stop offset="0.76" stop-color="#6fb02a"/><stop offset="1" stop-color="#5e9624"/></linearGradient><linearGradient id="Degradado_sin_nombre_6" x1="18.65" y1="511.26" x2="21.01" y2="513.63" xlink:href="#Degradado_sin_nombre_5"/><linearGradient id="Degradado_sin_nombre_7" x1="13.31" y1="511.26" x2="15.67" y2="513.63" xlink:href="#Degradado_sin_nombre_5"/><linearGradient id="Degradado_sin_nombre_8" x1="139.57" y1="450.22" x2="139.57" y2="431.46" xlink:href="#Degradado_sin_nombre"/><linearGradient id="Degradado_sin_nombre_9" x1="139.57" y1="457.46" x2="139.57" y2="450.22" xlink:href="#Degradado_sin_nombre_2"/><linearGradient id="Degradado_sin_nombre_10" x1="176.43" y1="450.22" x2="176.43" y2="431.46" xlink:href="#Degradado_sin_nombre"/><linearGradient id="Degradado_sin_nombre_11" x1="176.43" y1="457.46" x2="176.43" y2="450.22" xlink:href="#Degradado_sin_nombre_2"/><linearGradient id="Degradado_sin_nombre_12" x1="239.57" y1="450.22" x2="239.57" y2="431.46" xlink:href="#Degradado_sin_nombre"/><linearGradient id="Degradado_sin_nombre_13" x1="239.57" y1="457.46" x2="239.57" y2="450.22" xlink:href="#Degradado_sin_nombre_2"/><linearGradient id="Degradado_sin_nombre_14" x1="276.43" y1="450.22" x2="276.43" y2="431.46" xlink:href="#Degradado_sin_nombre"/><linearGradient id="Degradado_sin_nombre_15" x1="276.43" y1="457.46" x2="276.43" y2="450.22" xlink:href="#Degradado_sin_nombre_2"/></defs><title>OJ104903205</title><g id="Target"><g id="Shapes"><rect class="cls-1" width="316" height="315.2"/><rect class="cls-1" x="0.5" y="75.2" width="315" height="151.85" rx="5"/><rect class="cls-2" x="0.5" y="75.2" width="315" height="151.85" rx="5"/><rect class="cls-3" x="0.5" y="75.2" width="315" height="151.85" rx="5"/><rect class="cls-4" x="110.5" y="15.2" width="95" height="200"/><rect class="cls-5" x="110.5" y="15.2" width="95" height="200"/><rect class="cls-4" x="210.5" y="15.2" width="95" height="200"/><rect class="cls-5" x="210.5" y="15.2" width="95" height="200"/><rect class="cls-4" x="10.5" y="15.2" width="95" height="200"/><rect class="cls-5" x="10.5" y="15.2" width="95" height="200"/><rect class="cls-1" x="15.99" y="120.2" width="284.01" height="90" rx="0.3"/><rect class="cls-6" x="15.99" y="120.2" width="284.01" height="90" rx="0.3"/><rect class="cls-7" x="160.5" y="240.2" width="155" height="35"/><rect class="cls-7" x="160.5" y="280.2" width="155" height="35"/><rect class="cls-8" x="25.5" y="147.2" width="28.14" height="18.76" rx="0.94"/><polygon class="cls-9" points="44.26 153.85 44.26 159.3 39.57 162.05 39.57 156.58 44.26 153.85"/><polygon class="cls-10" points="44.26 153.85 39.57 156.6 34.88 153.85 39.57 151.11 44.26 153.85"/><polygon class="cls-11" points="39.57 156.6 39.57 162.05 34.88 159.3 34.88 153.85 39.57 156.6"/><polygon class="cls-10" points="34.88 159.3 39.57 156.58 39.57 162.05 34.88 159.3"/><polygon class="cls-11" points="44.26 159.3 39.57 156.58 39.57 162.05 44.26 159.3"/><path class="cls-12" d="M45.21,171.64c-2.78-.44-2.89-2.44-2.89-5.68H36.8c0,3.24-.09,5.24-2.87,5.68a1.55,1.55,0,0,0-1.39,1.56H46.61A1.57,1.57,0,0,0,45.21,171.64Z"/><rect class="cls-13" x="62.36" y="147.2" width="28.14" height="18.76" rx="0.94"/><polygon class="cls-9" points="81.12 153.85 81.12 159.3 76.43 162.05 76.43 156.58 81.12 153.85"/><polygon class="cls-10" points="81.12 153.85 76.43 156.6 71.74 153.85 76.43 151.11 81.12 153.85"/><polygon class="cls-11" points="76.43 156.6 76.43 162.05 71.74 159.3 71.74 153.85 76.43 156.6"/><polygon class="cls-10" points="71.74 159.3 76.43 156.58 76.43 162.05 71.74 159.3"/><polygon class="cls-11" points="81.12 159.3 76.43 156.58 76.43 162.05 81.12 159.3"/><path class="cls-14" d="M82.07,171.64c-2.78-.44-2.89-2.44-2.89-5.68H73.66c0,3.24-.09,5.24-2.87,5.68a1.57,1.57,0,0,0-1.4,1.56H83.46A1.55,1.55,0,0,0,82.07,171.64Z"/><line class="cls-15" x1="58.25" y1="120.2" x2="58.25" y2="55.2"/><line class="cls-15" x1="50.72" y1="112.67" x2="50.72" y2="100.98"/><polygon class="cls-16" points="53.71 101.85 50.72 96.67 47.73 101.85 53.71 101.85"/><line class="cls-15" x1="65.77" y1="108.37" x2="65.77" y2="107.62"/><line class="cls-17" x1="65.77" y1="105.19" x2="65.77" y2="98.64"/><line class="cls-15" x1="65.77" y1="97.42" x2="65.77" y2="96.67"/><polygon class="cls-16" points="68.76 107.49 65.77 112.67 62.78 107.49 68.76 107.49"/><line class="cls-15" x1="169.81" y1="250.2" x2="180.93" y2="250.2"/><polygon class="cls-16" points="170.68 253.19 165.5 250.2 170.68 247.21 170.68 253.19"/><line class="cls-15" x1="176.19" y1="290.2" x2="175.44" y2="290.2"/><line class="cls-18" x1="173.25" y1="290.2" x2="167.34" y2="290.2"/><line class="cls-15" x1="166.25" y1="290.2" x2="165.5" y2="290.2"/><polygon class="cls-16" points="175.32 287.21 180.5 290.2 175.32 293.19 175.32 287.21"/><circle class="cls-19" cx="27.9" cy="227.4" r="1.67"/><circle class="cls-20" cx="22.56" cy="227.42" r="1.67"/><circle class="cls-21" cx="17.22" cy="227.42" r="1.67"/><path class="cls-9" d="M18.43,234.11l-1,1a.43.43,0,0,1-.61,0h0l-7-7.11a.89.89,0,0,1,0-1.23h0l1-1h0l7.71,7.69a.43.43,0,0,1,0,.61h0Z"/><path class="cls-22" d="M17.33,219.78l1,.95a.44.44,0,0,1,0,.62l-7.57,7.59h0l-1-1a.88.88,0,0,1,0-1.22h0l7-7A.43.43,0,0,1,17.33,219.78Z"/><path class="cls-9" d="M34.28,225.8l1,1a.87.87,0,0,1,0,1.23h0l-7.1,7.07a.43.43,0,0,1-.61,0h0l-1-1a.43.43,0,0,1,0-.61h0Z"/><path class="cls-22" d="M35.24,228l-1,1h0l-7.57-7.59a.44.44,0,0,1,0-.62h0l1-1a.43.43,0,0,1,.61,0h0l7,7a.88.88,0,0,1,0,1.22h0Z"/><rect class="cls-1" x="40.75" y="20.2" width="35" height="35"/><rect class="cls-6" x="40.75" y="20.2" width="35" height="35"/><rect class="cls-23" x="125.5" y="147.2" width="28.14" height="18.76" rx="0.94"/><polygon class="cls-9" points="144.26 153.85 144.26 159.3 139.57 162.05 139.57 156.58 144.26 153.85"/><polygon class="cls-10" points="144.26 153.85 139.57 156.6 134.88 153.85 139.57 151.11 144.26 153.85"/><polygon class="cls-11" points="139.57 156.6 139.57 162.05 134.88 159.3 134.88 153.85 139.57 156.6"/><polygon class="cls-10" points="134.88 159.3 139.57 156.58 139.57 162.05 134.88 159.3"/><polygon class="cls-11" points="144.26 159.3 139.57 156.58 139.57 162.05 144.26 159.3"/><path class="cls-24" d="M145.21,171.64c-2.78-.44-2.89-2.44-2.89-5.68H136.8c0,3.24-.09,5.24-2.87,5.68a1.55,1.55,0,0,0-1.39,1.56h14.07A1.57,1.57,0,0,0,145.21,171.64Z"/><rect class="cls-25" x="162.36" y="147.2" width="28.14" height="18.76" rx="0.94"/><polygon class="cls-9" points="181.12 153.85 181.12 159.3 176.43 162.05 176.43 156.58 181.12 153.85"/><polygon class="cls-10" points="181.12 153.85 176.43 156.6 171.74 153.85 176.43 151.11 181.12 153.85"/><polygon class="cls-11" points="176.43 156.6 176.43 162.05 171.74 159.3 171.74 153.85 176.43 156.6"/><polygon class="cls-10" points="171.74 159.3 176.43 156.58 176.43 162.05 171.74 159.3"/><polygon class="cls-11" points="181.12 159.3 176.43 156.58 176.43 162.05 181.12 159.3"/><path class="cls-26" d="M182.07,171.64c-2.78-.44-2.89-2.44-2.89-5.68h-5.52c0,3.24-.09,5.24-2.87,5.68a1.57,1.57,0,0,0-1.4,1.56h14.07A1.55,1.55,0,0,0,182.07,171.64Z"/><line class="cls-15" x1="158.25" y1="120.2" x2="158.25" y2="55.2"/><line class="cls-15" x1="150.72" y1="112.67" x2="150.72" y2="100.98"/><polygon class="cls-16" points="153.71 101.85 150.72 96.67 147.73 101.85 153.71 101.85"/><line class="cls-15" x1="165.77" y1="108.37" x2="165.77" y2="107.62"/><line class="cls-17" x1="165.77" y1="105.19" x2="165.77" y2="98.64"/><line class="cls-15" x1="165.77" y1="97.42" x2="165.77" y2="96.67"/><polygon class="cls-16" points="168.76 107.49 165.77 112.67 162.78 107.49 168.76 107.49"/><rect class="cls-1" x="140.75" y="20.2" width="35" height="35"/><rect class="cls-6" x="140.75" y="20.2" width="35" height="35"/><rect class="cls-27" x="225.5" y="147.2" width="28.14" height="18.76" rx="0.94"/><polygon class="cls-9" points="244.26 153.85 244.26 159.3 239.57 162.05 239.57 156.58 244.26 153.85"/><polygon class="cls-10" points="244.26 153.85 239.57 156.6 234.88 153.85 239.57 151.11 244.26 153.85"/><polygon class="cls-11" points="239.57 156.6 239.57 162.05 234.88 159.3 234.88 153.85 239.57 156.6"/><polygon class="cls-10" points="234.88 159.3 239.57 156.58 239.57 162.05 234.88 159.3"/><polygon class="cls-11" points="244.26 159.3 239.57 156.58 239.57 162.05 244.26 159.3"/><path class="cls-28" d="M245.21,171.64c-2.78-.44-2.89-2.44-2.89-5.68H236.8c0,3.24-.09,5.24-2.87,5.68a1.55,1.55,0,0,0-1.39,1.56h14.07A1.57,1.57,0,0,0,245.21,171.64Z"/><rect class="cls-29" x="262.36" y="147.2" width="28.14" height="18.76" rx="0.94"/><polygon class="cls-9" points="281.12 153.85 281.12 159.3 276.43 162.05 276.43 156.58 281.12 153.85"/><polygon class="cls-10" points="281.12 153.85 276.43 156.6 271.74 153.85 276.43 151.11 281.12 153.85"/><polygon class="cls-11" points="276.43 156.6 276.43 162.05 271.74 159.3 271.74 153.85 276.43 156.6"/><polygon class="cls-10" points="271.74 159.3 276.43 156.58 276.43 162.05 271.74 159.3"/><polygon class="cls-11" points="281.12 159.3 276.43 156.58 276.43 162.05 281.12 159.3"/><path class="cls-30" d="M282.07,171.64c-2.78-.44-2.89-2.44-2.89-5.68h-5.52c0,3.24-.09,5.24-2.87,5.68a1.57,1.57,0,0,0-1.4,1.56h14.07A1.55,1.55,0,0,0,282.07,171.64Z"/><line class="cls-15" x1="258.25" y1="120.2" x2="258.25" y2="55.2"/><line class="cls-15" x1="250.72" y1="112.67" x2="250.72" y2="100.98"/><polygon class="cls-16" points="253.71 101.85 250.72 96.67 247.73 101.85 253.71 101.85"/><line class="cls-15" x1="265.77" y1="108.37" x2="265.77" y2="107.62"/><line class="cls-17" x1="265.77" y1="105.19" x2="265.77" y2="98.64"/><line class="cls-15" x1="265.77" y1="97.42" x2="265.77" y2="96.67"/><polygon class="cls-16" points="268.76 107.49 265.77 112.67 262.78 107.49 268.76 107.49"/><rect class="cls-1" x="240.75" y="20.2" width="35" height="35"/><rect class="cls-6" x="240.75" y="20.2" width="35" height="35"/><path class="cls-16" d="M309.34,227.55h-1v-1h1Zm-3,0h-1v-1h1Zm-3,0h-1v-1h1Zm-3,0h-1v-1h1Zm-3,0h-1v-1h1Zm-3,0h-1v-1h1Zm-3,0h-1v-1h1Zm-3,0h-1v-1h1Zm-3,0h-1v-1h1Zm-3,0h-1v-1h1Zm-3,0h-1v-1h1Zm-3,0h-1v-1h1Zm-3,0h-1v-1h1Zm-3,0h-1v-1h1Zm-3,0h-1v-1h1Zm-3,0h-1v-1h1Zm-3,0h-1v-1h1Zm-3,0h-1v-1h1Zm-3,0h-1v-1h1Zm-3,0h-1v-1h1Zm-3,0h-1v-1h1Zm-3,0h-1v-1h1Zm-3,0h-1v-1h1Zm-3,0h-1v-1h1Zm-3,0h-1v-1h1Zm-3,0h-1v-1h1Zm-3,0h-1v-1h1Zm-3,0h-1v-1h1Zm-3,0h-1v-1h1Zm-3,0h-1v-1h1Zm-3,0h-1v-1h1Zm-3,0h-1v-1h1Zm-3,0h-1v-1h1Zm-3,0h-1v-1h1Zm-3,0h-1v-1h1Zm-3,0h-1v-1h1Zm-3,0h-1v-1h1Zm-3,0h-1v-1h1Zm-3,0h-1v-1h1Zm-3,0h-1v-1h1Zm-3,0h-1v-1h1Zm-3,0h-1v-1h1Zm-3,0h-1v-1h1Zm-3,0h-1v-1h1Zm-3,0h-1v-1h1Zm-3,0h-1v-1h1Zm-3,0h-1v-1h1Zm-3,0h-1v-1h1Zm-3,0h-1v-1h1Zm-3,0h-1v-1h1Zm-3,0h-1v-1h1Zm-3,0h-1v-1h1Zm-3,0h-1v-1h1Zm-3,0h-1v-1h1Zm-3,0h-1v-1h1Zm-3,0h-1v-1h1Zm-3,0h-1v-1h1Zm-3,0h-1v-1h1Zm-3,0h-1v-1h1Zm-3,0h-1v-1h1Zm-3,0h-1v-1h1Zm-3,0h-1v-1h1Zm-3,0h-1v-1h1Zm-3,0h-1v-1h1Zm-3,0h-1v-1h1Zm-3,0h-1v-1h1Zm-3,0h-1v-1h1Zm-3,0h-1v-1h1Zm-3,0h-1v-1h1Zm-3,0h-1v-1h1Zm-3,0h-1v-1h1Zm-3,0h-1v-1h1Zm-3,0h-1v-1h1Zm-3,0h-1v-1h1Zm-3,0h-1v-1h1Zm-3,0h-1v-1h1Zm-3,0h-1v-1h1Zm-3,0h-1v-1h1Zm-3,0h-1v-1h1Zm-3,0h-1v-1h1Zm-3,0h-1v-1h1Zm-3,0h-1v-1h1Zm-3,0h-1v-1h1Zm-3,0h-1v-1h1Zm-3,0h-1v-1h1Zm-3,0h-1v-1h1Zm-3,0h-1v-1h1Zm-3,0H47v-1h1Zm-3,0H44v-1h1Zm-3,0H41v-1h1Zm-3,0H38v-1h1Zm-33,0H5l.1-1H6Zm305.42-.08-.16-1a4.4,4.4,0,0,0,.86-.24l.37.93a5.64,5.64,0,0,1-1.41.31ZM3.2,226.87a6.34,6.34,0,0,1-.91-.62l.65-.77a4.7,4.7,0,0,0,.74.52ZM314.32,226l-.69-.72a4.82,4.82,0,0,0,.58-.69l.82.57A5.18,5.18,0,0,1,314.32,226ZM.6,224.54a5.09,5.09,0,0,1-.4-1l1-.27a4.31,4.31,0,0,0,.33.84Zm315.29-1.39-1-.2a4.58,4.58,0,0,0,.09-.9l1-.06v.06A5.06,5.06,0,0,1,315.89,223.15ZM1,221.39H0v-1H1ZM316,220h-1v-1h1ZM1,218.39H0v-1H1ZM316,217h-1v-1h1ZM1,215.38H0v-1H1ZM316,214h-1v-1h1ZM1,212.38H0v-1H1ZM316,211h-1v-1h1ZM1,209.38H0v-1H1ZM316,208h-1v-1h1ZM1,206.37H0v-1H1ZM316,205h-1v-1h1ZM1,203.37H0v-1H1ZM316,202h-1v-1h1ZM1,200.37H0v-1H1ZM316,199h-1v-1h1ZM1,197.36H0v-1H1ZM316,196h-1v-1h1ZM1,194.36H0v-1H1ZM316,193h-1v-1h1ZM1,191.36H0v-1H1ZM316,190h-1v-1h1ZM1,188.35H0v-1H1ZM316,187h-1v-1h1ZM1,185.35H0v-1H1ZM316,184h-1v-1h1ZM1,182.35H0v-1H1ZM316,181h-1v-1h1ZM1,179.34H0v-1H1Zm315-1.4h-1v-1h1ZM1,176.34H0v-1H1Zm315-1.4h-1v-1h1ZM1,173.34H0v-1H1Zm315-1.4h-1v-1h1ZM1,170.33H0v-1H1Zm315-1.4h-1v-1h1ZM1,167.33H0v-1H1Zm315-1.4h-1v-1h1ZM1,164.33H0v-1H1Zm315-1.4h-1v-1h1ZM1,161.32H0v-1H1Zm315-1.4h-1v-1h1ZM1,158.32H0v-1H1Zm315-1.4h-1v-1h1ZM1,155.32H0v-1H1Zm315-1.4h-1v-1h1ZM1,152.31H0v-1H1Zm315-1.4h-1v-1h1ZM1,149.31H0v-1H1Zm315-1.4h-1v-1h1ZM1,146.3H0v-1H1Zm315-1.39h-1v-1h1ZM1,143.3H0v-1H1Zm315-1.4h-1v-1h1ZM1,140.3H0v-1H1Zm315-1.4h-1v-1h1ZM1,137.3H0v-1H1Zm315-1.4h-1v-1h1ZM1,134.29H0v-1H1Zm315-1.4h-1v-1h1ZM1,131.29H0v-1H1Zm315-1.4h-1v-1h1ZM1,128.28H0v-1H1Zm315-1.39h-1v-1h1ZM1,125.28H0v-1H1Zm315-1.4h-1v-1h1ZM1,122.28H0v-1H1Zm315-1.4h-1v-1h1ZM1,119.27H0v-1H1Zm315-1.39h-1v-1h1ZM1,116.27H0v-1H1Zm315-1.4h-1v-1h1ZM1,113.27H0v-1H1Zm315-1.4h-1v-1h1ZM1,110.26H0v-1H1Zm315-1.39h-1v-1h1ZM1,107.26H0v-1H1Zm315-1.4h-1v-1h1ZM1,104.26H0v-1H1Zm315-1.4h-1v-1h1ZM1,101.25H0v-1H1Zm315-1.39h-1v-1h1ZM1,98.25H0v-1H1Zm315-1.4h-1v-1h1ZM1,95.25H0v-1H1Zm315-1.4h-1v-1h1ZM1,92.24H0v-1H1Zm315-1.4h-1v-1h1ZM1,89.24H0v-1H1Zm315-1.4h-1v-1h1ZM1,86.24H0v-1H1Zm315-1.4h-1v-1h1ZM1,83.23H0v-1H1Zm315-1.39h-1v-1h1ZM0,80.23H0a6.24,6.24,0,0,1,.1-1.06l1,.19a4.81,4.81,0,0,0-.1.84ZM314.83,79a4,4,0,0,0-.33-.83l.89-.46a5.09,5.09,0,0,1,.4,1Zm-313-1.3L1,77.12a6.24,6.24,0,0,1,.7-.84l.7.71a5.09,5.09,0,0,0-.62.69Zm311.6-.93a4.58,4.58,0,0,0-.74-.5l.48-.88a5.48,5.48,0,0,1,.9.61ZM3.85,76l-.36-.92a4.43,4.43,0,0,1,1-.3l.18,1A4.73,4.73,0,0,0,3.85,76Zm307.08-.29H310v-1h1.05Zm-3,0h-1v-1h1Zm-3,0h-1v-1h1Zm-3,0h-1v-1h1Zm-3,0h-1v-1h1Zm-3,0h-1v-1h1Zm-3,0h-1v-1h1Zm-3,0h-1v-1h1Zm-3,0h-1v-1h1Zm-3,0h-1v-1h1Zm-3,0h-1v-1h1Zm-3,0h-1v-1h1Zm-3,0h-1v-1h1Zm-3,0h-1v-1h1Zm-3,0h-1v-1h1Zm-3,0h-1v-1h1Zm-3,0h-1v-1h1Zm-3,0h-1v-1h1Zm-3,0h-1v-1h1Zm-3,0h-1v-1h1Zm-3,0h-1v-1h1Zm-3,0h-1v-1h1Zm-3,0h-1v-1h1Zm-3,0h-1v-1h1Zm-3,0h-1v-1h1Zm-3,0h-1v-1h1Zm-3,0h-1v-1h1Zm-3,0h-1v-1h1Zm-3,0h-1v-1h1Zm-3,0h-1v-1h1Zm-3,0h-1v-1h1Zm-3,0h-1v-1h1Zm-3,0h-1v-1h1Zm-3,0h-1v-1h1Zm-3,0h-1v-1h1Zm-3,0h-1v-1h1Zm-3,0h-1v-1h1Zm-3,0h-1v-1h1Zm-3,0h-1v-1h1Zm-3,0h-1v-1h1Zm-3,0h-1v-1h1Zm-3,0h-1v-1h1Zm-3,0h-1v-1h1Zm-3,0h-1v-1h1Zm-3,0h-1v-1h1Zm-3,0h-1v-1h1Zm-3,0h-1v-1h1Zm-3,0h-1v-1h1Zm-3,0h-1v-1h1Zm-3,0h-1v-1h1Zm-3,0h-1v-1h1Zm-3,0h-1v-1h1Zm-3,0h-1v-1h1Zm-3,0h-1v-1h1Zm-3,0h-1v-1h1Zm-3,0h-1v-1h1Zm-3,0h-1v-1h1Zm-3,0h-1v-1h1Zm-3,0h-1v-1h1Zm-3,0h-1v-1h1Zm-3,0h-1v-1h1Zm-3,0h-1v-1h1Zm-3,0h-1v-1h1Zm-3,0h-1v-1h1Zm-3,0h-1v-1h1Zm-3,0h-1v-1h1Zm-3,0h-1v-1h1Zm-3,0h-1v-1h1Zm-3,0h-1v-1h1Zm-3,0h-1v-1h1Zm-3,0h-1v-1h1Zm-3,0h-1v-1h1Zm-3,0h-1v-1h1Zm-3,0h-1v-1h1Zm-3,0h-1v-1h1Zm-3,0h-1v-1h1Zm-3,0h-1v-1h1Zm-3,0h-1v-1h1Zm-3,0h-1v-1h1Zm-3,0h-1v-1h1Zm-3,0h-1v-1h1Zm-3,0h-1v-1h1Zm-3,0h-1v-1h1Zm-3,0h-1v-1h1Zm-3,0h-1v-1h1Zm-3,0h-1v-1h1Zm-3,0h-1v-1h1Zm-3,0h-1v-1h1Zm-3,0h-1v-1h1Zm-3,0h-1v-1h1Zm-3,0h-1v-1h1Zm-3,0h-1v-1h1Zm-3,0h-1v-1h1Zm-3,0h-1v-1h1Zm-3,0h-1v-1h1Zm-3,0h-1v-1h1Zm-3,0h-1v-1h1Zm-3,0h-1v-1h1Zm-3,0h-1v-1h1Zm-3,0h-1v-1h1Zm-3,0h-1v-1h1Zm-3,0h-1v-1h1Z"/><polygon class="cls-31" points="266.98 102.88 263.82 99.7 258 105.52 252.18 99.7 249 102.88 254.81 108.7 249 114.51 252.18 117.69 257.98 111.88 263.81 117.7 266.98 114.52 261.16 108.7 266.98 102.88"/><polygon class="cls-31" points="167.5 102.88 164.34 99.7 158.52 105.52 152.69 99.7 149.52 102.88 155.32 108.7 149.52 114.51 152.69 117.69 158.5 111.88 164.32 117.7 167.5 114.52 161.68 108.7 167.5 102.88"/><g id="ad94e297-0e86-4eaf-aac0-d146ee9aea65"><path class="cls-32" d="M54.08,82.59,49.4,77.75a2.29,2.29,0,0,1-.78.14,2.43,2.43,0,1,1,2.24-3.32h4.62v1.61H50.93a3.68,3.68,0,0,1-.26.57L55,81.22l2.34-3.57V66.47H54.19l4-4,3.94,4H59V75.2l5.93-9-6-6a1,1,0,0,0-1.41-.06l-.06.06h0L43,74.63A1,1,0,0,0,42.94,76l.06.06h0L57.44,90.59l-5.17-5.17Z"/><path class="cls-33" d="M57.34,82.8V77.63L55,81.22l1.72,1.84A1.78,1.78,0,0,1,57.34,82.8Z"/><path class="cls-33" d="M73.36,74.63l-8.47-8.47L59,75.2v7.62a2.1,2.1,0,0,1,.53.29l6.22-6.29a2.91,2.91,0,0,1-.31-.64H60.73V74.57h4.74a2.41,2.41,0,1,1,2.24,3.32,3,3,0,0,1-.67-.1l-6.62,6.66a2.18,2.18,0,0,1,.11.62,2.43,2.43,0,0,1-4.86.19,2.25,2.25,0,0,1,.14-.89l-1.73-1.72L52.24,85.4l5.17,5.17a1,1,0,0,0,1.41,0l0,0L73.33,76.1a1,1,0,0,0,0-1.41l0,0Z"/><path class="cls-34" d="M65.47,74.57H60.73v1.61H65.4a2.22,2.22,0,0,1-.12-.72A2.26,2.26,0,0,1,65.47,74.57Z"/><path class="cls-34" d="M50.93,76.18h4.55V74.57H50.86a2.26,2.26,0,0,1,.19.89A2.18,2.18,0,0,1,50.93,76.18Z"/><path class="cls-34" d="M60.42,84.45,67,77.79a2.43,2.43,0,0,1-1.33-1l-6.22,6.29A2.29,2.29,0,0,1,60.42,84.45Z"/><path class="cls-34" d="M56.77,83.06l-1.72-1.84-4.38-4.47a2.46,2.46,0,0,1-1.27,1l4.68,4.84,1.73,1.73A2.28,2.28,0,0,1,56.77,83.06Z"/><path class="cls-1" d="M62.09,66.47l-3.92-4-4,4h3.15V82.8a1.73,1.73,0,0,0-.57.26,2.34,2.34,0,0,0-1,1.31,2.41,2.41,0,0,0,4.57,1.54s0-.09,0-.14a2.38,2.38,0,0,0,.11-.7,2.66,2.66,0,0,0-1-2,2.1,2.1,0,0,0-.53-.29V66.47Zm-3.92,20a1.35,1.35,0,1,1,1.34-1.36h0a1.35,1.35,0,0,1-1.34,1.3Z"/><path class="cls-1" d="M50.67,76.75a3.68,3.68,0,0,0,.26-.57,2.18,2.18,0,0,0,.12-.72,2.26,2.26,0,0,0-.19-.89,2.41,2.41,0,1,0-2.24,3.32,2.29,2.29,0,0,0,.78-.14A2.46,2.46,0,0,0,50.67,76.75Zm-2.05,0A1.34,1.34,0,1,1,50,75.41h0a1.33,1.33,0,0,1-1.27,1.39h-.07Z"/><path class="cls-1" d="M67,77.79a3,3,0,0,0,.67.1,2.43,2.43,0,1,0-2.24-3.32,2.26,2.26,0,0,0-.19.89,2.22,2.22,0,0,0,.12.72,2.91,2.91,0,0,0,.31.64A2.45,2.45,0,0,0,67,77.79Zm.67-3.66a1.34,1.34,0,0,1,1.18,1.48h0a1.34,1.34,0,1,1-1.48-1.49Z"/><path class="cls-35" d="M58.17,83.73a1.35,1.35,0,1,0,1.34,1.36v0h0A1.34,1.34,0,0,0,58.17,83.73Z"/><circle class="cls-35" cx="48.62" cy="75.46" r="1.34"/><path class="cls-35" d="M67.71,76.81a1.35,1.35,0,1,0-1.34-1.36h0A1.36,1.36,0,0,0,67.71,76.81Z"/></g><g id="ad94e297-0e86-4eaf-aac0-d146ee9aea65-2"><path class="cls-32" d="M154.14,82.59l-4.68-4.84a2.29,2.29,0,0,1-.78.14,2.43,2.43,0,1,1,2.24-3.32h4.62v1.61H151a3.68,3.68,0,0,1-.26.57l4.33,4.47,2.34-3.57V66.47h-3.15l4-4,3.94,4H159V75.2l5.92-9-6-6a1,1,0,0,0-1.41-.06l-.06.06h0L143,74.63a1,1,0,0,0-.06,1.41l.06.06h0l14.5,14.49-5.17-5.17Z"/><path class="cls-33" d="M157.4,82.8V77.63l-2.34,3.59,1.72,1.84A1.78,1.78,0,0,1,157.4,82.8Z"/><path class="cls-33" d="M173.42,74.63l-8.48-8.47-5.92,9v7.62a2.1,2.1,0,0,1,.53.29l6.22-6.29a2.91,2.91,0,0,1-.31-.64h-4.67V74.57h4.74a2.41,2.41,0,1,1,2.24,3.32,3,3,0,0,1-.67-.1l-6.62,6.66a2.6,2.6,0,0,1,.11.62,2.43,2.43,0,0,1-4.86.16,2.53,2.53,0,0,1,.13-.86l-1.72-1.72L152.3,85.4l5.17,5.17a1,1,0,0,0,1.41,0l0,0L173.39,76.1a1,1,0,0,0,.05-1.41s0,0-.05,0Z"/><path class="cls-34" d="M165.53,74.57h-4.74v1.61h4.67a2.18,2.18,0,0,1-.12-.72A2.26,2.26,0,0,1,165.53,74.57Z"/><path class="cls-34" d="M151,76.18h4.55V74.57h-4.62a2.26,2.26,0,0,1,.19.89A2.18,2.18,0,0,1,151,76.18Z"/><path class="cls-34" d="M160.48,84.45l6.62-6.66a2.43,2.43,0,0,1-1.33-1l-6.22,6.29A2.27,2.27,0,0,1,160.48,84.45Z"/><path class="cls-34" d="M156.83,83.06l-1.72-1.84-4.38-4.47a2.46,2.46,0,0,1-1.27,1l4.68,4.84,1.72,1.73A2.38,2.38,0,0,1,156.83,83.06Z"/><path class="cls-1" d="M162.15,66.47l-3.92-4-4,4h3.15V82.8a1.73,1.73,0,0,0-.57.26,2.38,2.38,0,0,0-1,1.31,2.41,2.41,0,1,0,4.62,1.4h0a2.76,2.76,0,0,0,.11-.7,2.6,2.6,0,0,0-.11-.62,2.24,2.24,0,0,0-.93-1.34,2.1,2.1,0,0,0-.53-.29V66.47Zm-3.92,20a1.35,1.35,0,1,1,1.34-1.36h0a1.35,1.35,0,0,1-1.34,1.3Z"/><path class="cls-1" d="M150.73,76.75a3.68,3.68,0,0,0,.26-.57,2.18,2.18,0,0,0,.12-.72,2.26,2.26,0,0,0-.19-.89,2.41,2.41,0,1,0-2.24,3.32,2.29,2.29,0,0,0,.78-.14A2.46,2.46,0,0,0,150.73,76.75Zm-2,0A1.34,1.34,0,1,1,150,75.34v.07h0a1.33,1.33,0,0,1-1.27,1.39h0Z"/><path class="cls-1" d="M167.1,77.79a3,3,0,0,0,.67.1,2.43,2.43,0,1,0-2.24-3.32,2.26,2.26,0,0,0-.19.89,2.18,2.18,0,0,0,.12.72,2.91,2.91,0,0,0,.31.64A2.45,2.45,0,0,0,167.1,77.79Zm.67-3.66A1.35,1.35,0,0,1,169,75.57v.05a1.34,1.34,0,1,1-1.48-1.49Z"/><path class="cls-35" d="M158.23,83.73a1.35,1.35,0,1,0,1.34,1.36v0h0A1.34,1.34,0,0,0,158.23,83.73Z"/><circle class="cls-35" cx="148.68" cy="75.46" r="1.34"/><path class="cls-35" d="M167.77,76.81a1.35,1.35,0,1,0-1.34-1.36h0A1.36,1.36,0,0,0,167.77,76.81Z"/></g><g id="ad94e297-0e86-4eaf-aac0-d146ee9aea65-3"><path class="cls-32" d="M254.18,82.59l-4.69-4.84a2.28,2.28,0,0,1-.77.14A2.43,2.43,0,1,1,251,74.57h4.61v1.61H251a3.68,3.68,0,0,1-.26.57l4.32,4.47,2.35-3.57V66.47h-3.16l4-4,3.95,4H259V75.2l5.93-9-6-6a1,1,0,0,0-1.41-.05l-.05.05h0L243.07,74.63A1,1,0,0,0,243,76l.06.06h0l14.47,14.47-5.17-5.17Z"/><path class="cls-33" d="M257.44,82.8V77.63l-2.35,3.59,1.72,1.84A1.59,1.59,0,0,1,257.44,82.8Z"/><path class="cls-33" d="M273.46,74.63,265,66.16l-5.93,9v7.62a2.16,2.16,0,0,1,.54.29l6.22-6.29a2.53,2.53,0,0,1-.31-.64h-4.67V74.57h4.74a2.41,2.41,0,1,1,2.24,3.32,3.1,3.1,0,0,1-.68-.1l-6.61,6.66a2.17,2.17,0,0,1,.1.62,2.43,2.43,0,1,1-4.84.44,2.18,2.18,0,0,1,0-.25,2.47,2.47,0,0,1,.13-.89l-1.72-1.72-1.84,2.75,5.16,5.17a1,1,0,0,0,1.41,0l0,0L273.42,76.1a1,1,0,0,0,.05-1.41l-.05,0Z"/><path class="cls-34" d="M265.57,74.57h-4.74v1.61h4.67a2.18,2.18,0,0,1-.12-.72A2.09,2.09,0,0,1,265.57,74.57Z"/><path class="cls-34" d="M251,76.18h4.54V74.57H251a2.26,2.26,0,0,1,.19.89A2.94,2.94,0,0,1,251,76.18Z"/><path class="cls-34" d="M260.52,84.45l6.61-6.66a2.44,2.44,0,0,1-1.32-1l-6.22,6.29A2.3,2.3,0,0,1,260.52,84.45Z"/><path class="cls-34" d="M256.87,83.06l-1.73-1.84-4.37-4.47a2.45,2.45,0,0,1-1.28,1l4.69,4.84,1.72,1.73A2.38,2.38,0,0,1,256.87,83.06Z"/><path class="cls-1" d="M262.19,66.47l-3.93-4-4,4h3.16V82.8a1.73,1.73,0,0,0-.57.26,2.38,2.38,0,0,0-1,1.31,2.41,2.41,0,0,0,4.62,1.4h0a2.37,2.37,0,0,0,.1-.7,2.17,2.17,0,0,0-.1-.62,2.36,2.36,0,0,0-.93-1.34,2.16,2.16,0,0,0-.54-.29V66.47Zm-3.93,20a1.35,1.35,0,1,1,1.35-1.35h0a1.35,1.35,0,0,1-1.35,1.3Z"/><path class="cls-1" d="M250.77,76.75a3.68,3.68,0,0,0,.26-.57,2.93,2.93,0,0,0,.12-.72,2.26,2.26,0,0,0-.19-.89,2.41,2.41,0,1,0-2.24,3.32,2.28,2.28,0,0,0,.77-.14A2.45,2.45,0,0,0,250.77,76.75Zm-2.05,0a1.34,1.34,0,1,1,1.34-1.34h0a1.33,1.33,0,0,1-1.27,1.39h-.07Z"/><path class="cls-1" d="M267.13,77.79a3.1,3.1,0,0,0,.68.1,2.43,2.43,0,1,0-2.24-3.32,2.09,2.09,0,0,0-.19.89,2.18,2.18,0,0,0,.12.72,2.53,2.53,0,0,0,.31.64A2.39,2.39,0,0,0,267.13,77.79Zm.68-3.66a1.34,1.34,0,1,1-.31,0Z"/><path class="cls-35" d="M258.26,83.73a1.35,1.35,0,1,0,1.35,1.35h0A1.36,1.36,0,0,0,258.26,83.73Z"/><circle class="cls-35" cx="248.72" cy="75.46" r="1.34"/><path class="cls-35" d="M267.81,76.81a1.35,1.35,0,1,0-1.35-1.35h0a1.34,1.34,0,0,0,1.35,1.35Z"/></g></g></g><g id="Text"><path class="cls-36" d="M51.65,31.75V35.2h-1V26.12H53.1a3.28,3.28,0,0,1,2.23.71,2.53,2.53,0,0,1,.8,2A2.73,2.73,0,0,1,55.19,31a3.25,3.25,0,0,1-2.33.77Zm0-4.71v3.78h1.13a2.53,2.53,0,0,0,1.71-.51,1.78,1.78,0,0,0,.59-1.44q0-1.83-2.16-1.83Z"/><path class="cls-36" d="M58.86,35.2h-1V26.12h1Z"/><path class="cls-36" d="M62.27,31.75V35.2h-1V26.12h2.45a3.26,3.26,0,0,1,2.23.71,2.5,2.5,0,0,1,.8,2A2.73,2.73,0,0,1,65.81,31a3.23,3.23,0,0,1-2.33.77Zm0-4.71v3.78h1.14a2.57,2.57,0,0,0,1.71-.51,1.78,1.78,0,0,0,.58-1.44C65.7,27.65,65,27,63.55,27Z"/><path class="cls-36" d="M54.85,48.35h-1.1l-1-2.58H48.87L48,48.35H46.84l3.49-9.08h1Zm-2.43-3.49L51,40.94a4.23,4.23,0,0,1-.13-.6h0a3.66,3.66,0,0,1-.15.6l-1.44,3.92Z"/><path class="cls-36" d="M62.47,39.47l-5.37,8h5.23v.91H55.59v-.24l5.31-7.92H56v-.92h6.45Z"/><path class="cls-36" d="M66.11,48.35V40.52a3.85,3.85,0,0,1-.89.59,4.73,4.73,0,0,1-1.18.48V40.53a7.21,7.21,0,0,0,1.51-.62,7,7,0,0,0,1.26-.83h.28v9.27Z"/><path class="cls-36" d="M151.56,31.75V35.2h-1V26.12H153a3.23,3.23,0,0,1,2.22.71,2.51,2.51,0,0,1,.81,2,2.73,2.73,0,0,1-1,2.16,3.22,3.22,0,0,1-2.32.77Zm0-4.71v3.78h1.14a2.53,2.53,0,0,0,1.71-.51,1.78,1.78,0,0,0,.59-1.44Q155,27,152.84,27Z"/><path class="cls-36" d="M158.78,35.2h-1V26.12h1Z"/><path class="cls-36" d="M162.19,31.75V35.2h-1V26.12h2.45a3.28,3.28,0,0,1,2.23.71,2.53,2.53,0,0,1,.8,2,2.76,2.76,0,0,1-.94,2.16,3.25,3.25,0,0,1-2.33.77Zm0-4.71v3.78h1.13a2.53,2.53,0,0,0,1.71-.51,1.78,1.78,0,0,0,.59-1.44q0-1.83-2.16-1.83Z"/><path class="cls-36" d="M154.77,48.35h-1.11l-1-2.58h-3.89l-.92,2.58h-1.12l3.5-9.08h1Zm-2.43-3.49-1.45-3.92a3.88,3.88,0,0,1-.14-.6h0a3,3,0,0,1-.14.6l-1.44,3.92Z"/><path class="cls-36" d="M162.38,39.47l-5.36,8h5.23v.91h-6.74v-.24l5.3-7.92h-4.88v-.92h6.45Z"/><path class="cls-36" d="M167.75,41.62a1.52,1.52,0,0,0-.49-1.21,1.87,1.87,0,0,0-1.32-.44,2.39,2.39,0,0,0-1.13.28,3.91,3.91,0,0,0-1,.72V40a3.26,3.26,0,0,1,1-.68,3.14,3.14,0,0,1,1.28-.24,2.78,2.78,0,0,1,1.94.66,2.25,2.25,0,0,1,.72,1.76,3.14,3.14,0,0,1-.47,1.71,5.43,5.43,0,0,1-1.52,1.51,16.17,16.17,0,0,0-1.55,1.16,2.4,2.4,0,0,0-.55.71,1.88,1.88,0,0,0-.16.82H169v.9h-5.57V48a3.85,3.85,0,0,1,.21-1.36,3.06,3.06,0,0,1,.72-1.07,9.84,9.84,0,0,1,1.49-1.22A6.79,6.79,0,0,0,167.34,43,2.32,2.32,0,0,0,167.75,41.62Z"/><path class="cls-36" d="M18.61,10.27H17.5l-1-2.58H12.63l-.92,2.58H10.59l3.5-9.08h1Zm-2.43-3.5L14.72,2.85a5.39,5.39,0,0,1-.13-.59h0a2.36,2.36,0,0,1-.15.59L13,6.77Z"/><path class="cls-36" d="M26.22,1.38l-5.36,8h5.23v.92H19.35V10l5.3-7.93H19.77V1.19h6.45Z"/><path class="cls-36" d="M29.87,10.27V2.43A4,4,0,0,1,29,3a5.7,5.7,0,0,1-1.19.48V2.45a7.39,7.39,0,0,0,1.51-.63A6.53,6.53,0,0,0,30.56,1h.28v9.28Z"/><path class="cls-36" d="M118.65,10.27h-1.11l-1-2.58h-3.89l-.92,2.58h-1.11l3.49-9.08h1Zm-2.43-3.5-1.45-3.92a3.41,3.41,0,0,1-.14-.59h0a3,3,0,0,1-.14.59L113,6.77Z"/><path class="cls-36" d="M126.26,1.38l-5.36,8h5.23v.92h-6.74V10l5.3-7.93h-4.88V1.19h6.45Z"/><path class="cls-36" d="M131.63,3.54a1.54,1.54,0,0,0-.49-1.22,1.9,1.9,0,0,0-1.31-.44,2.56,2.56,0,0,0-1.14.28,4,4,0,0,0-1,.73V2a3.26,3.26,0,0,1,1-.68A3.14,3.14,0,0,1,130,1a2.83,2.83,0,0,1,1.94.65,2.26,2.26,0,0,1,.72,1.76,3.15,3.15,0,0,1-.47,1.72,5.57,5.57,0,0,1-1.52,1.51,14.6,14.6,0,0,0-1.55,1.16,2.37,2.37,0,0,0-.55.7,1.91,1.91,0,0,0-.16.82h4.53v.91h-5.57v-.4a3.89,3.89,0,0,1,.21-1.36,3.25,3.25,0,0,1,.72-1.07,11.22,11.22,0,0,1,1.49-1.22,6.32,6.32,0,0,0,1.48-1.34A2.26,2.26,0,0,0,131.63,3.54Z"/><path class="cls-36" d="M251.61,31.75V35.2h-1V26.12h2.45a3.28,3.28,0,0,1,2.23.71,2.53,2.53,0,0,1,.8,2,2.73,2.73,0,0,1-.95,2.16,3.21,3.21,0,0,1-2.32.77Zm0-4.71v3.78h1.13a2.53,2.53,0,0,0,1.71-.51,1.78,1.78,0,0,0,.59-1.44Q255,27,252.88,27Z"/><path class="cls-36" d="M258.82,35.2h-1V26.12h1Z"/><path class="cls-36" d="M262.23,31.75V35.2h-1V26.12h2.45a3.28,3.28,0,0,1,2.23.71,2.53,2.53,0,0,1,.8,2,2.73,2.73,0,0,1-.94,2.16,3.25,3.25,0,0,1-2.33.77Zm0-4.71v3.78h1.14a2.52,2.52,0,0,0,1.7-.51,1.75,1.75,0,0,0,.59-1.44c0-1.22-.72-1.83-2.15-1.83Z"/><path class="cls-36" d="M254.81,48.35h-1.1l-1-2.58h-3.89l-.92,2.58H246.8l3.49-9.08h1Zm-2.43-3.49-1.45-3.92a3.88,3.88,0,0,1-.14-.6h0a3,3,0,0,1-.14.6l-1.44,3.92Z"/><path class="cls-36" d="M262.42,39.47l-5.36,8h5.23v.91h-6.74v-.24l5.3-7.92H256v-.92h6.45Z"/><path class="cls-36" d="M263.52,46.93a3.25,3.25,0,0,0,2.1.74,2.38,2.38,0,0,0,1.52-.47,1.58,1.58,0,0,0,.59-1.31c0-1.21-.85-1.82-2.56-1.82h-.75v-.83h.72c1.51,0,2.27-.57,2.27-1.7S266.83,40,265.68,40a2.89,2.89,0,0,0-1.81.66v-1a4,4,0,0,1,2.05-.52,2.72,2.72,0,0,1,1.79.59,2,2,0,0,1,.7,1.57,2.24,2.24,0,0,1-1.82,2.31v0a2.39,2.39,0,0,1,1.56.68,2,2,0,0,1,.58,1.48,2.42,2.42,0,0,1-.89,2,3.42,3.42,0,0,1-2.28.74,3.8,3.8,0,0,1-2-.48Z"/><path class="cls-36" d="M82.94,90.37h-1.1l-1-2.58H77L76,90.37H74.93l3.49-9.08h1Zm-2.43-3.5L79.06,83a4.75,4.75,0,0,1-.14-.59h0a3.77,3.77,0,0,1-.15.59l-1.44,3.92Z"/><path class="cls-36" d="M90.56,81.48l-5.37,8h5.23v.92H83.68v-.24L89,82.2H84.1v-.91h6.46Z"/><path class="cls-36" d="M94.2,90.37V82.53a3.73,3.73,0,0,1-.89.6,5.63,5.63,0,0,1-1.18.48V82.55a7.56,7.56,0,0,0,1.5-.63,6.34,6.34,0,0,0,1.27-.83h.28v9.28Z"/><path class="cls-36" d="M36.27,203.39H35.16l-1-2.58H30.29l-.92,2.58H28.25l3.5-9.08h1Zm-2.43-3.49L32.39,196a3.88,3.88,0,0,1-.14-.6h0a3.36,3.36,0,0,1-.14.6l-1.44,3.92Z"/><path class="cls-36" d="M43.88,194.51l-5.36,8h5.23v.92H37v-.24l5.3-7.92H37.43v-.92h6.45Z"/><path class="cls-36" d="M47.53,203.39v-7.84a4,4,0,0,1-.89.6,5.7,5.7,0,0,1-1.19.48v-1.06a7.39,7.39,0,0,0,1.51-.63,6.1,6.1,0,0,0,1.26-.83h.28v9.28Z"/><path class="cls-36" d="M182.86,90.37h-1.11l-1-2.58h-3.89L176,90.37h-1.12l3.5-9.08h1Zm-2.43-3.5L179,83a3.41,3.41,0,0,1-.14-.59h0a3,3,0,0,1-.14.59l-1.44,3.92Z"/><path class="cls-36" d="M190.47,81.48l-5.36,8h5.23v.92H183.6v-.24l5.3-7.93H184v-.91h6.45Z"/><path class="cls-36" d="M195.84,83.64a1.54,1.54,0,0,0-.49-1.22A1.93,1.93,0,0,0,194,82a2.52,2.52,0,0,0-1.13.28,4,4,0,0,0-1,.73v-.93a3.26,3.26,0,0,1,1-.68,3.14,3.14,0,0,1,1.28-.24,2.83,2.83,0,0,1,1.94.65,2.26,2.26,0,0,1,.72,1.76,3.15,3.15,0,0,1-.47,1.72,5.57,5.57,0,0,1-1.52,1.51,14.6,14.6,0,0,0-1.55,1.16,2.37,2.37,0,0,0-.55.7,1.91,1.91,0,0,0-.16.82h4.53v.91h-5.57V90a3.79,3.79,0,0,1,.21-1.35,3.19,3.19,0,0,1,.72-1.08A11.22,11.22,0,0,1,194,86.32,6.32,6.32,0,0,0,195.43,85,2.26,2.26,0,0,0,195.84,83.64Z"/><path class="cls-36" d="M282.9,90.37h-1.11l-1-2.58h-3.89L276,90.37h-1.11l3.49-9.08h1Zm-2.43-3.5L279,83a3.41,3.41,0,0,1-.14-.59h0a3,3,0,0,1-.14.59l-1.44,3.92Z"/><path class="cls-36" d="M290.51,81.48l-5.36,8h5.23v.92h-6.74v-.24l5.3-7.93h-4.88v-.91h6.45Z"/><path class="cls-36" d="M291.61,89a3.3,3.3,0,0,0,2.1.74,2.33,2.33,0,0,0,1.52-.48,1.55,1.55,0,0,0,.59-1.3c0-1.21-.85-1.82-2.56-1.82h-.75v-.84h.72c1.51,0,2.27-.56,2.27-1.7S294.92,82,293.77,82a2.89,2.89,0,0,0-1.81.66v-1a3.88,3.88,0,0,1,2.05-.52,2.72,2.72,0,0,1,1.79.59,1.94,1.94,0,0,1,.7,1.57,2.24,2.24,0,0,1-1.82,2.31v0a2.44,2.44,0,0,1,1.56.68,2.05,2.05,0,0,1,.58,1.49,2.42,2.42,0,0,1-.89,2,3.49,3.49,0,0,1-2.28.74,3.71,3.71,0,0,1-2-.49Z"/><path class="cls-36" d="M218.69,10.27h-1.1l-1-2.58h-3.89l-.92,2.58h-1.11l3.49-9.08h1Zm-2.43-3.5-1.45-3.92a3.41,3.41,0,0,1-.14-.59h0a3,3,0,0,1-.14.59l-1.44,3.92Z"/><path class="cls-36" d="M226.3,1.38l-5.36,8h5.23v.92h-6.74V10l5.3-7.93h-4.88V1.19h6.45Z"/><path class="cls-36" d="M227.4,8.85a3.3,3.3,0,0,0,2.1.74A2.33,2.33,0,0,0,231,9.11a1.55,1.55,0,0,0,.59-1.3c0-1.21-.85-1.82-2.56-1.82h-.75V5.15H229c1.51,0,2.27-.56,2.27-1.7s-.58-1.57-1.73-1.57a2.89,2.89,0,0,0-1.81.66v-1A3.88,3.88,0,0,1,229.8,1a2.72,2.72,0,0,1,1.79.59,1.94,1.94,0,0,1,.7,1.57,2.23,2.23,0,0,1-1.82,2.31v0a2.42,2.42,0,0,1,1.56.68,2.06,2.06,0,0,1,.59,1.49,2.42,2.42,0,0,1-.9,2,3.45,3.45,0,0,1-2.28.74,3.71,3.71,0,0,1-2-.49Z"/><path class="cls-36" d="M145.56,130.71h-4.95v4.16a.94.94,0,0,1-.28.7,1,1,0,0,1-.74.27c-.49,0-1,0-1.59,0l-.25-.67c.93,0,1.57,0,1.91,0a.28.28,0,0,0,.21-.11.34.34,0,0,0,.08-.23v-4.14h-5v-.66h5v-1.61a18.82,18.82,0,0,0,3.35-2.52h-7v-.67h8v.67a24.53,24.53,0,0,1-3.61,2.87v1.26h4.95Z"/><path class="cls-36" d="M148.38,132.92a15.59,15.59,0,0,1-.69,3l-.61-.28a13.55,13.55,0,0,0,.73-2.8Zm3-.78-.58.2c-.05-.23-.11-.46-.19-.71q-1.86.52-3.27.78l-.2-.69a13,13,0,0,0,2.34-2.82c-1.08.18-1.77.28-2.07.32l-.17-.62a12.64,12.64,0,0,0,2-3.62l.59.19a14.68,14.68,0,0,1-1.72,3.31,13.77,13.77,0,0,0,1.77-.26,15.34,15.34,0,0,0,.86-1.59l.58.24a18.4,18.4,0,0,1-3.19,4.74,17.86,17.86,0,0,0,2.3-.55,6.69,6.69,0,0,0-.33-.84l.55-.21A10.11,10.11,0,0,1,151.39,132.14Zm-1.46,3.23-.64.12a15.7,15.7,0,0,0-.33-2.59l.59-.1A15.41,15.41,0,0,1,149.93,135.37Zm1.44-.58-.59.21a11.91,11.91,0,0,0-.53-2.22l.58-.19A11.69,11.69,0,0,1,151.37,134.79Zm6.2.14a.87.87,0,0,1-.21.57.9.9,0,0,1-.49.31,7,7,0,0,1-1.12,0l-.27-.68h.68a1.76,1.76,0,0,0,.67-.07.28.28,0,0,0,.12-.26v-8.91h-4.66v9.9h-.63V125.31h5.91Zm-1-5.91h-3.94v-.61h1a8.6,8.6,0,0,0-.61-1.58l.59-.23a14.58,14.58,0,0,1,.68,1.81H155a12.89,12.89,0,0,0,.82-1.84l.57.23a17.06,17.06,0,0,1-.69,1.61h.91Zm0,2.26H154v1.84c0,.22.1.33.29.33h2.17V134h-2.23c-.57,0-.85-.3-.85-.89v-1.86h-.69v-.59h1.91a8.71,8.71,0,0,0-.47-1.14l.61-.21c.14.31.31.76.53,1.35h1.36Z"/><path class="cls-36" d="M163.75,134.34a39.76,39.76,0,0,1-4.24,1.42l-.17-.66c.29-.07.51-.13.65-.18v-5.07h.62v4.88a9.17,9.17,0,0,0,1-.3v-5.51h-1.77v-3.53h3.51v3.53h-1.12v1.91h1.36v.64h-1.36v2.73a11.57,11.57,0,0,0,1.5-.58Zm-1-6V126H160.5v2.3Zm7.41,2-.39.59a14.38,14.38,0,0,1-2.8-1.42,9.93,9.93,0,0,1-3,1.46l-.42-.6a10.47,10.47,0,0,0,2.89-1.25,6.74,6.74,0,0,1-1.38-1.68,8,8,0,0,1-1,.75l-.5-.48a6.28,6.28,0,0,0,2.62-2.79l.62.2a5.6,5.6,0,0,1-.49.94h3.11v.58a8.91,8.91,0,0,1-1.89,2.43A11.57,11.57,0,0,0,170.14,130.32Zm-.88,5.51h-.65v-.57h-3.38v.57h-.65v-4.56h4.68Zm-.65-1.19V131.9h-3.38v2.74Zm0-8H165.8a1.67,1.67,0,0,1-.14.19,1.14,1.14,0,0,0-.14.16,4.74,4.74,0,0,0,1.44,1.69A6.83,6.83,0,0,0,168.59,126.63Z"/><path class="cls-36" d="M182.18,135.2h-1.13l-1-2.67h-4l-.94,2.67H174l3.57-9.41h1Zm-2.49-3.62-1.48-4.06a4,4,0,0,1-.14-.62h0a4.34,4.34,0,0,1-.15.62l-1.47,4.06Z"/><path class="cls-36" d="M37.66,181l-3.39,9.23h-1.1L29.85,181H31l2.56,7.38a4.41,4.41,0,0,1,.19.81h0a3.74,3.74,0,0,1,.21-.83L36.57,181Z"/><path class="cls-36" d="M47.16,190.25V184c0-.47,0-1.07.09-1.78h0a5.14,5.14,0,0,1-.27.87l-3.17,7.14h-.45l-3.17-7.09a5.59,5.59,0,0,1-.26-.92h0c0,.32.05.91.05,1.76v6.25h-1V181h1.31l2.85,6.5a8.54,8.54,0,0,1,.42,1.09h0c.11-.32.26-.69.44-1.12L46.92,181h1.24v9.23Z"/><path class="cls-36" d="M72.93,203.39h-1.1l-1-2.58H67L66,203.39H64.92l3.49-9.08h1ZM70.5,199.9,69.05,196a3.88,3.88,0,0,1-.14-.6h0a3.36,3.36,0,0,1-.14.6L67.3,199.9Z"/><path class="cls-36" d="M80.54,194.51l-5.36,8h5.23v.92H73.67v-.24l5.3-7.92H74.09v-.92h6.45Z"/><path class="cls-36" d="M84.19,203.39v-7.84a3.73,3.73,0,0,1-.89.6,5.63,5.63,0,0,1-1.18.48v-1.06a7.56,7.56,0,0,0,1.5-.63,5.93,5.93,0,0,0,1.27-.83h.28v9.28Z"/><path class="cls-36" d="M74.32,181l-3.39,9.23h-1.1L66.51,181h1.12l2.57,7.38a5.54,5.54,0,0,1,.18.81h0a3.68,3.68,0,0,1,.2-.83L73.24,181Z"/><path class="cls-36" d="M83.82,190.25V184c0-.47,0-1.07.1-1.78h0a5.14,5.14,0,0,1-.27.87l-3.18,7.14H80l-3.17-7.09a5.59,5.59,0,0,1-.26-.92h0c0,.32,0,.91,0,1.76v6.25h-1V181h1.3l2.85,6.5a9.08,9.08,0,0,1,.43,1.09h0c.12-.32.26-.69.44-1.12L83.59,181h1.23v9.23Z"/><path class="cls-36" d="M136.22,203.39h-1.11l-1-2.58h-3.89l-.92,2.58H128.2l3.49-9.08h1Zm-2.43-3.49L132.33,196a4.23,4.23,0,0,1-.13-.6h0a2.59,2.59,0,0,1-.15.6l-1.43,3.92Z"/><path class="cls-36" d="M143.83,194.51l-5.36,8h5.22v.92H137v-.24l5.3-7.92h-4.88v-.92h6.45Z"/><path class="cls-36" d="M149.2,196.66a1.59,1.59,0,0,0-.49-1.22,1.93,1.93,0,0,0-1.32-.44,2.52,2.52,0,0,0-1.13.28,4,4,0,0,0-1,.73v-.93a3.3,3.3,0,0,1,1-.68,3.14,3.14,0,0,1,1.28-.24,2.78,2.78,0,0,1,1.93.65,2.25,2.25,0,0,1,.73,1.76,3.24,3.24,0,0,1-.47,1.72,5.48,5.48,0,0,1-1.53,1.51,14.16,14.16,0,0,0-1.54,1.16,2.28,2.28,0,0,0-.55.71,1.88,1.88,0,0,0-.16.82h4.53v.9h-5.58V203a3.79,3.79,0,0,1,.22-1.36,3.3,3.3,0,0,1,.71-1.08,11.35,11.35,0,0,1,1.5-1.21,6.24,6.24,0,0,0,1.47-1.35A2.2,2.2,0,0,0,149.2,196.66Z"/><path class="cls-36" d="M137.6,181l-3.38,9.23h-1.1L129.8,181h1.12l2.56,7.38a3.77,3.77,0,0,1,.18.81h0a3.74,3.74,0,0,1,.21-.83l2.62-7.36Z"/><path class="cls-36" d="M147.11,190.25V184c0-.47,0-1.07.09-1.78h0a5.14,5.14,0,0,1-.27.87l-3.17,7.14h-.45l-3.17-7.09a6.52,6.52,0,0,1-.27-.92h0a16.92,16.92,0,0,1,.06,1.76v6.25h-1V181h1.31l2.85,6.5a10.47,10.47,0,0,1,.42,1.09h0c.12-.32.27-.69.44-1.12l2.92-6.47h1.24v9.23Z"/><path class="cls-36" d="M173.07,203.39H172l-1-2.58h-3.89l-.92,2.58h-1.12l3.5-9.08h1Zm-2.43-3.49L169.19,196a3.88,3.88,0,0,1-.14-.6h0a3.36,3.36,0,0,1-.14.6l-1.44,3.92Z"/><path class="cls-36" d="M180.68,194.51l-5.36,8h5.23v.92h-6.74v-.24l5.3-7.92h-4.88v-.92h6.45Z"/><path class="cls-36" d="M186.05,196.66a1.55,1.55,0,0,0-.49-1.22,1.93,1.93,0,0,0-1.32-.44,2.52,2.52,0,0,0-1.13.28,4,4,0,0,0-1,.73v-.93a3.26,3.26,0,0,1,1-.68,3.14,3.14,0,0,1,1.28-.24,2.83,2.83,0,0,1,1.94.65,2.28,2.28,0,0,1,.72,1.76,3.15,3.15,0,0,1-.47,1.72A5.57,5.57,0,0,1,185,199.8a14.6,14.6,0,0,0-1.55,1.16,2.28,2.28,0,0,0-.55.71,1.88,1.88,0,0,0-.16.82h4.53v.9h-5.57V203a3.81,3.81,0,0,1,.21-1.36,3.19,3.19,0,0,1,.72-1.08,10.53,10.53,0,0,1,1.49-1.21,6.54,6.54,0,0,0,1.48-1.35A2.26,2.26,0,0,0,186.05,196.66Z"/><path class="cls-36" d="M174.46,181l-3.39,9.23H170L166.65,181h1.12l2.56,7.38a4.41,4.41,0,0,1,.19.81h0a3.74,3.74,0,0,1,.21-.83l2.62-7.36Z"/><path class="cls-36" d="M184,190.25V184c0-.47,0-1.07.09-1.78h0a5.14,5.14,0,0,1-.27.87l-3.17,7.14h-.45L177,183.16a5.59,5.59,0,0,1-.26-.92h0c0,.32.05.91.05,1.76v6.25h-1V181h1.31l2.85,6.5a9.08,9.08,0,0,1,.43,1.09h0c.11-.32.26-.69.44-1.12l2.91-6.47H185v9.23Z"/><path class="cls-36" d="M236.35,203.39h-1.1l-1-2.58h-3.89l-.92,2.58h-1.11l3.49-9.08h1Zm-2.43-3.49L232.47,196a5.63,5.63,0,0,1-.14-.6h0a4.3,4.3,0,0,1-.15.6l-1.44,3.92Z"/><path class="cls-36" d="M244,194.51l-5.37,8h5.23v.92h-6.74v-.24l5.31-7.92h-4.89v-.92H244Z"/><path class="cls-36" d="M245.06,202a3.3,3.3,0,0,0,2.1.74,2.37,2.37,0,0,0,1.53-.48,1.57,1.57,0,0,0,.58-1.3c0-1.21-.85-1.82-2.56-1.82H246v-.84h.72c1.51,0,2.27-.56,2.27-1.7s-.58-1.57-1.73-1.57a2.91,2.91,0,0,0-1.81.66v-1a3.88,3.88,0,0,1,2.05-.52,2.72,2.72,0,0,1,1.79.59,2,2,0,0,1,.7,1.57,2.23,2.23,0,0,1-1.82,2.31v0a2.42,2.42,0,0,1,1.56.68,2.06,2.06,0,0,1,.59,1.49,2.42,2.42,0,0,1-.9,2,3.45,3.45,0,0,1-2.28.74,3.71,3.71,0,0,1-2-.49Z"/><path class="cls-36" d="M237.74,181l-3.39,9.23h-1.1L229.94,181h1.11l2.57,7.38a3.77,3.77,0,0,1,.18.81h0a3.26,3.26,0,0,1,.21-.83l2.62-7.36Z"/><path class="cls-36" d="M247.24,190.25V184c0-.47,0-1.07.1-1.78h0a5.14,5.14,0,0,1-.27.87l-3.18,7.14h-.44l-3.17-7.09a4.6,4.6,0,0,1-.27-.92h0c0,.32.05.91.05,1.76v6.25h-1V181h1.3l2.86,6.5a10.47,10.47,0,0,1,.42,1.09h0c.12-.32.27-.69.44-1.12L247,181h1.23v9.23Z"/><path class="cls-36" d="M273.11,203.39H272l-1-2.58h-3.89l-.92,2.58H265.1l3.49-9.08h1Zm-2.43-3.49L269.23,196a3.88,3.88,0,0,1-.14-.6h0a3.36,3.36,0,0,1-.14.6l-1.44,3.92Z"/><path class="cls-36" d="M280.72,194.51l-5.36,8h5.23v.92h-6.74v-.24l5.3-7.92h-4.88v-.92h6.45Z"/><path class="cls-36" d="M281.82,202a3.3,3.3,0,0,0,2.1.74,2.33,2.33,0,0,0,1.52-.48,1.55,1.55,0,0,0,.59-1.3c0-1.21-.85-1.82-2.56-1.82h-.75v-.84h.72c1.51,0,2.27-.56,2.27-1.7S285.13,195,284,195a2.87,2.87,0,0,0-1.81.66v-1a3.88,3.88,0,0,1,2.05-.52,2.72,2.72,0,0,1,1.79.59,2,2,0,0,1,.7,1.57,2.24,2.24,0,0,1-1.82,2.31v0a2.44,2.44,0,0,1,1.56.68,2.05,2.05,0,0,1,.58,1.49,2.42,2.42,0,0,1-.89,2,3.49,3.49,0,0,1-2.28.74,3.71,3.71,0,0,1-2-.49Z"/><path class="cls-36" d="M274.5,181l-3.39,9.23H270L266.69,181h1.12l2.57,7.38a5.54,5.54,0,0,1,.18.81h0a3.21,3.21,0,0,1,.2-.83l2.63-7.36Z"/><path class="cls-36" d="M284,190.25V184c0-.47,0-1.07.1-1.78h0a5.14,5.14,0,0,1-.27.87l-3.18,7.14h-.45L277,183.16a5.59,5.59,0,0,1-.26-.92h0c0,.32.05.91.05,1.76v6.25h-1V181h1.3l2.85,6.5a9.08,9.08,0,0,1,.43,1.09h0c.12-.32.26-.69.44-1.12l2.92-6.47H285v9.23Z"/><path class="cls-36" d="M21.65,242.57a8.65,8.65,0,0,1-.68,2.15l-.58-.19a6.61,6.61,0,0,0,.47-1.35h-4.5v1l3.07-.23,0,.6-3.09.2v.54a.28.28,0,0,0,.11.24.33.33,0,0,0,.22.09h4.2v.59H16.52a.69.69,0,0,1-.78-.77v-.63l-2.07.15-.05-.61,2.12-.13v-1H13.05v2.62a10.9,10.9,0,0,1-1.11,5.45l-.56-.34a8.4,8.4,0,0,0,.85-2.39,16.58,16.58,0,0,0,.2-2.73v-3.22h3.66v-2h.63v.65h4.61v.59H16.72v.77Zm.21,8.3H13.19v-.61h3.06v-1h-2.1v-2h.64v1.32h1.46v-1.84h.63v3.52h1.2v-3.52h.63v1.84h1.47v-1.33h.61v2H18.71v1h3.15Z"/><path class="cls-36" d="M26.35,243.22h-1v2.08c.34-.22.59-.4.77-.53l.06.68-.83.57v4.29c0,.56-.35.85-1,.85l-.61,0-.19-.62,1,0c.17,0,.25-.1.25-.3v-3.85c-.31.18-.69.38-1.11.6l-.21-.57c.57-.3,1-.54,1.32-.74v-2.46H23.55v-.59h1.22v-2.16h.6v2.16h1Zm3.35,4.31H28.28a3.13,3.13,0,0,1-.11.52,11.94,11.94,0,0,1,1.1,1.21l-.42.41a11.5,11.5,0,0,0-.87-1,5.58,5.58,0,0,1-1.82,2.46l-.43-.41a4.86,4.86,0,0,0,1.94-3.21H26.19V247h1.55q0-.51.06-1.41h-.59a7.86,7.86,0,0,1-.7,1l-.49-.33a5.93,5.93,0,0,0,1.19-2.07l.52.18a5.08,5.08,0,0,1-.22.69h2v.58H28.39q0,.69-.06,1.41H29.7Zm.1-3.66H27.74a.81.81,0,0,1-.62-.24.88.88,0,0,1-.23-.63v-2.52h.58v.89h2.19V242H27.47v1c0,.21.12.31.36.31h2ZM34,250.3l-.1.61-.63,0a3.08,3.08,0,0,1-3-1.46,7.24,7.24,0,0,1-1.19,1.72l-.46-.38a5.41,5.41,0,0,0,1.52-4.26h.6a12.43,12.43,0,0,1-.23,2.16,2,2,0,0,0,.94,1.17v-5H30v-.55h2.24a11.61,11.61,0,0,0-1.86-1.75l.4-.43,1,.81a11.26,11.26,0,0,0,1.32-1.58H30.21v-.56h3.52v.56a11.43,11.43,0,0,1-1.6,2,8,8,0,0,1,.55.64l-.31.33h1.5a8.7,8.7,0,0,1-.51,2.09l-.51-.27a7.22,7.22,0,0,0,.34-1.27H32.1v2.22h1.44v.57H32.1v2.49A5.33,5.33,0,0,0,34,250.3Z"/><path class="cls-36" d="M12.65,261.49a15.63,15.63,0,0,1-.68,2.89l-.6-.27a13.16,13.16,0,0,0,.71-2.74Zm2.95-.77-.58.19a5,5,0,0,0-.18-.69c-1.21.34-2.28.6-3.2.77l-.2-.68a12.76,12.76,0,0,0,2.29-2.77c-1.06.17-1.73.28-2,.31l-.17-.6a12.53,12.53,0,0,0,1.94-3.55l.58.19a14.3,14.3,0,0,1-1.69,3.24,15.18,15.18,0,0,0,1.74-.25,16.8,16.8,0,0,0,.84-1.56l.57.23a17.8,17.8,0,0,1-3.13,4.64,17.43,17.43,0,0,0,2.26-.53,7.18,7.18,0,0,0-.33-.83l.54-.2A10.31,10.31,0,0,1,15.6,260.72Zm-1.44,3.16-.62.12a15.14,15.14,0,0,0-.33-2.54l.58-.09A14.55,14.55,0,0,1,14.16,263.88Zm1.42-.57-.58.21a12.3,12.3,0,0,0-.52-2.18l.57-.18A12.19,12.19,0,0,1,15.58,263.31Zm6.08.14a.85.85,0,0,1-.21.56.89.89,0,0,1-.48.3,5.38,5.38,0,0,1-1.09,0l-.27-.67h.66a1.69,1.69,0,0,0,.66-.07.27.27,0,0,0,.12-.25v-8.74H16.48v9.71h-.62V254h5.8Zm-1-5.79H16.83v-.6h1a9,9,0,0,0-.59-1.55l.57-.23a14.7,14.7,0,0,1,.67,1.78h.68a12.84,12.84,0,0,0,.8-1.8l.56.22a15.57,15.57,0,0,1-.68,1.58h.89Zm0,2.22H18.12v1.8c0,.21.09.32.28.32h2.13v.57H18.35a.77.77,0,0,1-.85-.88v-1.81h-.67v-.58h1.88a9.25,9.25,0,0,0-.46-1.12l.59-.21c.14.3.31.75.52,1.33h1.33Z"/><path class="cls-36" d="M27.75,262.88a41.19,41.19,0,0,1-4.15,1.39l-.17-.65a5.65,5.65,0,0,0,.64-.18v-5h.6v4.78a7.94,7.94,0,0,0,1-.29v-5.4H23.93V254.1h3.45v3.46h-1.1v1.88h1.33v.62H26.28v2.68a11.12,11.12,0,0,0,1.47-.57Zm-1-5.92v-2.25H24.56V257Zm7.26,2-.38.57a13.77,13.77,0,0,1-2.74-1.39,9.84,9.84,0,0,1-3,1.43l-.41-.59a10.41,10.41,0,0,0,2.84-1.22A6.66,6.66,0,0,1,29,256.09a9,9,0,0,1-1,.74l-.5-.48a6,6,0,0,0,2.57-2.73l.61.2a5.27,5.27,0,0,1-.48.91h3.05v.58a8.85,8.85,0,0,1-1.85,2.38A11.47,11.47,0,0,0,34,258.94Zm-.86,5.4h-.63v-.56H29.2v.56h-.64v-4.47h4.59Zm-.63-1.17v-2.68H29.2v2.68Zm0-7.85H29.76a1.12,1.12,0,0,1-.14.18l-.13.16a4.55,4.55,0,0,0,1.41,1.66A7,7,0,0,0,32.5,255.32Z"/><path class="cls-36" d="M201.11,255.18l-.18.67h-4.84a5.58,5.58,0,0,1-4.69-2,7.66,7.66,0,0,1-.85,2.12l-.47-.48a13.4,13.4,0,0,0,1.23-5.05l.62.12a19.34,19.34,0,0,1-.33,2.36,3.51,3.51,0,0,0,1.35,1.52v-4.86H190.2V249H193v-1.72h-2.48v-.66H193V245.1h.64v1.53h1.82v.66h-1.82V249h2.13v.61h-2.13v1.62h1.88v.61h-1.88v3a4.83,4.83,0,0,0,2,.39c.86,0,1.89,0,3.1,0S200.66,255.21,201.11,255.18Zm-.07-3.77a5.25,5.25,0,0,1-.12,1.49,1,1,0,0,1-.58.73,8.48,8.48,0,0,1-3.57,0c-.24-.13-.37-.45-.37-1v-7h4.13v4h-3.47v3.19c0,.15.1.24.31.27s.64,0,1.27,0a3.78,3.78,0,0,0,1.45-.13,1.37,1.37,0,0,0,.2-.29,8.05,8.05,0,0,0,.14-1.55Zm-1.16-2.35v-2.75h-2.82v2.75Z"/><path class="cls-36" d="M204.88,251.91a31.75,31.75,0,0,1-1.72,4l-.51-.53a29.59,29.59,0,0,0,1.64-3.83Zm.2-2.06-.42.5a23.47,23.47,0,0,0-2-1.44l.48-.48A18.19,18.19,0,0,1,205.08,249.85Zm.24-3-.49.48a14.27,14.27,0,0,0-2-1.54l.5-.49A20.3,20.3,0,0,1,205.32,246.87Zm8.3-.77h-2.94a10.53,10.53,0,0,1-.38,1.31h2.75v4.33h-2.42v3.38a1,1,0,0,1-.24.64q-.24.3-1.11.3a5,5,0,0,1-.64,0l-.19-.65a6.67,6.67,0,0,0,.86.06,1.08,1.08,0,0,0,.54-.08.22.22,0,0,0,.1-.19v-3.42h-2.32v-4.33h2c.11-.3.23-.74.38-1.31h-3.38v4.05a10.83,10.83,0,0,1-1.61,5.9l-.54-.47a7.07,7.07,0,0,0,1.07-2.34,16.35,16.35,0,0,0,.42-4.28v-3.47h7.69ZM209,253a14.6,14.6,0,0,1-2.11,2.41l-.45-.47a14.62,14.62,0,0,0,2.06-2.43Zm3.38-3.72V248h-4.08v1.2Zm0,1.91v-1.29h-4.08v1.29Zm1.31,3.76-.47.49a16.29,16.29,0,0,0-1.77-2.43l.5-.45A19,19,0,0,1,213.68,254.9Z"/><path class="cls-36" d="M219.63,255.8H219v-1.08h-2.7v1.33h-.63v-8.87h1.16a11.65,11.65,0,0,0,.89-2.15l.62.13a19.44,19.44,0,0,1-.85,2h2.14Zm-.63-5.3v-2.69h-2.7v2.69Zm0,3.59v-3h-2.7v3Zm6.89-6.89c0,1.87-.14,3.61-.27,5.21a12.42,12.42,0,0,1-.4,2.84,1.26,1.26,0,0,1-.51.61,2.7,2.7,0,0,1-1.2.18l-1,0-.21-.63h1.82a.68.68,0,0,0,.33-.15.88.88,0,0,0,.24-.34,10.83,10.83,0,0,0,.2-1.44c.08-.83.14-1.74.2-2.74s.09-2,.11-2.91h-3.26a16.82,16.82,0,0,1-1.51,2.47l-.51-.36a13.22,13.22,0,0,0,2.32-4.8l.64.16c-.21.67-.43,1.31-.69,1.92Zm-2.3,5.6-.52.37a13.24,13.24,0,0,0-1.82-2.91l.54-.35A12.21,12.21,0,0,1,223.59,252.8Z"/><path class="cls-36" d="M230.31,252a22.14,22.14,0,0,1-1.92,4.06l-.55-.45a19.68,19.68,0,0,0,1.86-4Zm0-1.9-.46.49a11.09,11.09,0,0,0-2-1.66l.41-.51A13.19,13.19,0,0,1,230.28,250.14Zm.22-3.35-.43.52a12.59,12.59,0,0,0-1.85-1.73l.43-.51A15.88,15.88,0,0,1,230.5,246.79Zm1.92,4a10.8,10.8,0,0,1-.37,3.3,4.14,4.14,0,0,1-1.59,2l-.52-.48a3.89,3.89,0,0,0,1.28-1.35,6.81,6.81,0,0,0,.53-3.43Zm6.38-.52-.55.43a7.26,7.26,0,0,0-.75-1c-2.45.28-4.59.49-6.39.62l-.17-.65a6.73,6.73,0,0,0,2.53-2.62h-2.61v-.65h3a14.35,14.35,0,0,0,.59-1.34l.68.18c-.08.2-.25.59-.52,1.16h4v.65h-4.34a8.36,8.36,0,0,1-2.09,2.54c1.6-.1,3.21-.25,4.83-.44a8.11,8.11,0,0,0-1.11-1.08l.52-.43A15,15,0,0,1,238.8,250.28Zm-4.27,5.78h-.65V250.8h.65Zm4.23-.15H237.1c-.63,0-.94-.29-.94-.88V250.8h.63v4.13c0,.23.13.34.38.34h1.59Z"/><path class="cls-36" d="M251.33,255.75H240.5v-.5h5.09v-.83h-4.34v-.49h4.34v-.8h-4v-2.9h8.62v2.9h-4v.8h4.35v.49h-4.35v.83h5.09Zm-.1-6.24H240.64V249h10.59Zm-1-1.21h-8.64v-2.87h8.64Zm-4.68,3.15v-.72h-3.35v.72Zm0,1.2v-.72h-3.35v.72Zm4-6v-.7h-7.35v.7Zm0,1.18v-.71h-7.35v.71Zm0,3.64v-.72h-3.36v.72Zm0,1.2v-.72h-3.36v.72Z"/><path class="cls-36" d="M263.93,247.82h-6.81c0,.66,0,1.38-.06,2.18h5.34a25.41,25.41,0,0,1-.22,3.39,7.77,7.77,0,0,1-.4,2,1.22,1.22,0,0,1-.55.57,4.57,4.57,0,0,1-1.57.17h-.81l-.19-.71c.39,0,.78,0,1.16,0a3.18,3.18,0,0,0,1.09-.1.65.65,0,0,0,.3-.33,9.2,9.2,0,0,0,.29-1.61,25.49,25.49,0,0,0,.21-2.72H257a6.89,6.89,0,0,1-3.51,5.38l-.54-.52a7.59,7.59,0,0,0,2.06-1.72,5.17,5.17,0,0,0,1.17-2.29,19.46,19.46,0,0,0,.26-3.68h-3.3v-.67h5.23a9.65,9.65,0,0,0-1.2-1.79l.63-.3a9.19,9.19,0,0,1,1.32,2.09h4.82Z"/><path class="cls-36" d="M276,255a.91.91,0,0,1-1,1h-1.74l-.24-.65H275a.28.28,0,0,0,.19-.09.3.3,0,0,0,.09-.2v-7.69h-8.41v8.66h-.64v-9.3h2.42a8.79,8.79,0,0,0,1.05-1.73l.66.14a8.44,8.44,0,0,1-.95,1.59H276Zm-2.54-1.38h-4.68v-4.45h4.68Zm-.66-.64v-3.16h-3.35V253Z"/><path class="cls-36" d="M192.23,270.76a8.48,8.48,0,0,1-2-5.76,8.76,8.76,0,0,1,2-5.84h.93a8.87,8.87,0,0,0-2.07,5.83,8.67,8.67,0,0,0,2.06,5.77Z"/><path class="cls-36" d="M195.46,259.16l-.2,2.94h-.72l-.2-2.94Zm2.15,0-.19,2.94h-.72l-.2-2.94Z"/><path class="cls-36" d="M210.4,265.36h-2.9a8.14,8.14,0,0,1-1.44,1.88,32.88,32.88,0,0,1,4.14,1.48l-.37.57a25.48,25.48,0,0,0-4.35-1.56,12.29,12.29,0,0,1-5.53,1.53l-.35-.66a12.77,12.77,0,0,0,5-1.14c-1.17-.29-2.3-.53-3.38-.74.5-.44,1-.89,1.45-1.36h-3.14v-.6h3.72a10.63,10.63,0,0,0,1-1.11l.67.2c-.13.19-.38.49-.74.91h2.9a5.09,5.09,0,0,0,.33-.67l.66.06a3.69,3.69,0,0,1-.25.61h2.6Zm-.11-6.09h-3.55v1.24h2.86v2.92h-9.22v-2.92h2.86v-1.24H199.7v-.63h10.59Zm-7,3.54v-1.69H201v1.69Zm3.49,2.55H203.6c-.33.35-.66.69-1,1,.88.19,1.8.41,2.75.66A6.75,6.75,0,0,0,206.73,265.36Zm-.66-4.85v-1.24h-2.18v1.24Zm0,2.3v-1.69h-2.18v1.69Zm2.89,0v-1.69h-2.22v1.69Z"/><path class="cls-36" d="M216.45,265.19a20.44,20.44,0,0,1-4,3.08l-.38-.56a20.3,20.3,0,0,0,4-3.11Zm6.5,2.5-.39.57a9.09,9.09,0,0,1-4.64-3.89v3.9a.78.78,0,0,1-.37.74,3.22,3.22,0,0,1-1.41.21l-.69,0-.28-.68c.35,0,.92,0,1.72,0a.35.35,0,0,0,.26-.12.38.38,0,0,0,.1-.25v-7.12h-5.08v-.65h5.08v-2.09h.67v2.09h5v.65h-5v1.83a6.5,6.5,0,0,0,.67,1.31,13.34,13.34,0,0,0,3-2.32l.52.46a15,15,0,0,1-3.19,2.39A8.55,8.55,0,0,0,223,267.69Zm-7.46-3.78-.47.5a11.64,11.64,0,0,0-2.22-2l.45-.49A12.28,12.28,0,0,1,215.49,263.91Zm6-4.3-.45.5a9.15,9.15,0,0,0-1.68-1.23l.41-.5A9.91,9.91,0,0,1,221.54,259.61Z"/><path class="cls-36" d="M225.92,259.16l-.2,2.94H225l-.2-2.94Zm2.16,0-.2,2.94h-.71l-.21-2.94Z"/><path class="cls-36" d="M229.29,270.76a8.7,8.7,0,0,0,2.06-5.77,8.81,8.81,0,0,0-2.08-5.83h.94a8.67,8.67,0,0,1,2,5.84,8.41,8.41,0,0,1-2,5.76Z"/><path class="cls-36" d="M192.77,286a14.6,14.6,0,0,1-.39,1.41l-.25.79v8.62h-.67v-6.87a16.86,16.86,0,0,1-1,1.79l-.35-.68a19.35,19.35,0,0,0,2-5.25Zm8.38,8.53h-1.82v1.26a1.16,1.16,0,0,1-.24.75c-.16.19-.54.29-1.14.29a4.78,4.78,0,0,1-.71,0l-.35-.61c.37,0,.7.05,1,.05a2,2,0,0,0,.65-.06.21.21,0,0,0,.13-.21V294.5h-6v-.56h6v-.74h.68v.74h1.82Zm0-1.44-.43.4c-.12-.17-.29-.38-.5-.63l-7.31.39-.11-.56,3.63-.19v-.86h-3v-3.45h3v-.86H193v-.58h3.5v-.94h.65v.94h3.71v.58h-3.71v.86h3.14v3.45h-.44A9.65,9.65,0,0,1,201.18,293.06Zm-4.66,2.83-.47.48a17.89,17.89,0,0,0-2.2-1.2l.45-.49A17.24,17.24,0,0,1,196.52,295.89Zm-.06-6.29v-.89h-2.35v.89Zm0,1.45v-.91h-2.35v.91Zm3.14-1.45v-.89h-2.49v.89Zm0,1.45v-.91h-2.49v.91Zm.08,1.25a3.48,3.48,0,0,0-.56-.5l.23-.19h-2.24v.82C197.94,292.36,198.8,292.32,199.68,292.3Z"/><path class="cls-36" d="M213.15,296.78h-.7v-1.07H204v1.07h-.68V286.11h9.79Zm-.7-1.74v-8.27H204V295Zm-1.85-1.94h-4.75v-4.49h4.75Zm-.66-.66v-3.18h-3.43v3.18Z"/><path class="cls-36" d="M219.73,296.53h-.63v-1.07h-2.7v1.32h-.64v-8.86h1.16a11.9,11.9,0,0,0,.9-2.15l.62.13c-.15.44-.43,1.11-.85,2h2.14Zm-.63-5.3v-2.68h-2.7v2.68Zm0,3.59v-3h-2.7v3Zm6.89-6.89q-.08,2.81-.27,5.22a13.94,13.94,0,0,1-.4,2.84,1.39,1.39,0,0,1-.52.61,2.68,2.68,0,0,1-1.19.18l-1,0-.2-.64c.34,0,.71,0,1.1,0h.71a.57.57,0,0,0,.33-.16.73.73,0,0,0,.25-.33,11.79,11.79,0,0,0,.19-1.44c.08-.83.15-1.74.2-2.74s.09-2,.12-2.91H222a17.73,17.73,0,0,1-1.51,2.47l-.52-.36a13.4,13.4,0,0,0,2.33-4.8l.63.16a19.42,19.42,0,0,1-.68,1.91Zm-2.3,5.61-.53.37a12.81,12.81,0,0,0-1.81-2.91l.54-.35A12.33,12.33,0,0,1,223.69,293.54Z"/><path class="cls-36" d="M230.4,292.77a22.82,22.82,0,0,1-1.91,4.07l-.55-.45a19.68,19.68,0,0,0,1.86-4Zm0-1.9-.45.49a11.88,11.88,0,0,0-2-1.65l.4-.51A13.28,13.28,0,0,1,230.37,290.87Zm.23-3.35-.43.53a12.54,12.54,0,0,0-1.85-1.73l.43-.51A15,15,0,0,1,230.6,287.52Zm1.91,4a10.83,10.83,0,0,1-.37,3.31,4.12,4.12,0,0,1-1.59,2l-.51-.48a3.77,3.77,0,0,0,1.28-1.34,7,7,0,0,0,.53-3.44Zm6.39-.51-.55.43a9.38,9.38,0,0,0-.75-1q-3.69.44-6.4.63l-.16-.65a6.78,6.78,0,0,0,2.52-2.62H231v-.66h3a13.26,13.26,0,0,0,.58-1.33l.68.17c-.08.21-.25.6-.51,1.16h4v.66h-4.35a8.34,8.34,0,0,1-2.09,2.54c1.6-.11,3.22-.25,4.84-.44a9.44,9.44,0,0,0-1.11-1.08l.51-.44A15.11,15.11,0,0,1,238.9,291Zm-4.27,5.77H234v-5.26h.66Zm4.22-.14h-1.66c-.63,0-.94-.3-.94-.89v-4.23h.63v4.14c0,.23.13.34.38.34h1.59Z"/><path class="cls-36" d="M251.42,296.48H240.6V296h5.09v-.82h-4.34v-.49h4.34v-.8h-4V291h8.63v2.9h-4v.8h4.36v.49h-4.36V296h5.09Zm-.09-6.23H240.74v-.5h10.59Zm-1-1.21h-8.63v-2.88h8.63Zm-4.67,3.15v-.72h-3.35v.72Zm0,1.19v-.72h-3.35v.72Zm4-6v-.71h-7.35v.71Zm0,1.18v-.71h-7.35v.71Zm0,3.64v-.72h-3.37v.72Zm0,1.19v-.72h-3.37v.72Z"/><path class="cls-36" d="M264,288.56h-6.82c0,.66,0,1.38-.06,2.17h5.35a27.36,27.36,0,0,1-.22,3.4,8.4,8.4,0,0,1-.4,2,1.17,1.17,0,0,1-.56.56,4.18,4.18,0,0,1-1.56.18l-.81,0-.2-.7c.39,0,.78,0,1.17,0a3.22,3.22,0,0,0,1.09-.1.73.73,0,0,0,.29-.33,8.44,8.44,0,0,0,.29-1.62,25.36,25.36,0,0,0,.22-2.71h-4.72a6.91,6.91,0,0,1-3.51,5.38l-.54-.52a7.55,7.55,0,0,0,2.05-1.72,5.12,5.12,0,0,0,1.18-2.3,19.45,19.45,0,0,0,.25-3.67h-3.29v-.68h5.22a8.68,8.68,0,0,0-1.2-1.78l.63-.3a9.46,9.46,0,0,1,1.33,2.08H264Z"/><path class="cls-36" d="M276.05,295.78c0,.68-.34,1-1,1h-1.74l-.23-.64h2.07a.36.36,0,0,0,.29-.29v-7.69H267v8.66h-.65v-9.31h2.42a7.65,7.65,0,0,0,1.05-1.72l.66.14a8,8,0,0,1-.94,1.58h6.52Zm-2.54-1.38h-4.67V290h4.67Zm-.66-.64V290.6H269.5v3.16Z"/><path class="cls-36" d="M192.33,311.5a8.46,8.46,0,0,1-2-5.76,8.76,8.76,0,0,1,2-5.85h.93a8.87,8.87,0,0,0-2.08,5.84,8.74,8.74,0,0,0,2.06,5.77Z"/><path class="cls-36" d="M195.55,299.89l-.2,2.95h-.72l-.19-2.95Zm2.16,0-.2,2.95h-.71l-.2-2.95Z"/><path class="cls-36" d="M210,310h-.7v-1.07h-8.42V310h-.67V299.31H210Zm-.7-1.74V300h-8.42v8.27Zm-1.85-1.94h-4.75v-4.49h4.75Zm-.66-.66v-3.18h-3.43v3.18Z"/><path class="cls-36" d="M215.26,305.46a7.36,7.36,0,0,1-1,1V310h-.62v-3c-.26.19-.6.43-1,.72l-.45-.46a10.09,10.09,0,0,0,2.64-2.17Zm0-2.17a9.32,9.32,0,0,1-2.68,1.83l-.38-.5a9.5,9.5,0,0,0,2.57-1.66Zm7.78,6.12-.25.54a16.81,16.81,0,0,1-3.57-.69,21.94,21.94,0,0,1-3.8.77l-.3-.54a22.91,22.91,0,0,0,3.25-.54c-.49-.22-1-.49-1.6-.8a12.68,12.68,0,0,1-1.3.5l-.37-.49c.34-.1.72-.23,1.14-.4a3.69,3.69,0,0,1-.56-.51l.41-.31a4.76,4.76,0,0,0,.73.58,8.38,8.38,0,0,0,1.17-.74h-1.5v-2.43c-.22.17-.54.38-.93.63l-.48-.47a5.94,5.94,0,0,0,2.17-2H213v-1.88h2.9v-.77h-3.56v-.55h10.5v.55h-3.53v.77h2.88v1.88h-4.29a3.51,3.51,0,0,1-.32.67h5.26v.55h-5.74c-.32.32-.51.51-.58.56h5.65v2.46h-3.31l-.59.51h3.75v.51a9.87,9.87,0,0,1-2,1.15A19.26,19.26,0,0,0,223,309.41Zm-7.09-7.4v-.82h-2.24V302Zm2.79-1.35v-.77h-2.17v.77Zm0,1.35v-.82h-2.17V302Zm2.84,3.29v-.49h-4.44v.49Zm0,1v-.46h-4.44v.46ZM221,307.8h-3.52l-.15.07a10.33,10.33,0,0,0,1.85.84A10.66,10.66,0,0,0,221,307.8Zm.54-5.79v-.82h-2.21V302Z"/><path class="cls-36" d="M226,299.89l-.21,2.95h-.72l-.19-2.95Zm2.15,0-.19,2.95h-.72l-.2-2.95Z"/><path class="cls-36" d="M229.39,311.5a8.71,8.71,0,0,0,2.05-5.77,8.88,8.88,0,0,0-2.07-5.84h.93a8.72,8.72,0,0,1,2,5.85,8.41,8.41,0,0,1-2,5.76Z"/></g></svg>