<svg xmlns="http://www.w3.org/2000/svg" xmlns:xlink="http://www.w3.org/1999/xlink" viewBox="0 0 316 315.2"><defs><style>.cls-1,.cls-3{fill:#fff;}.cls-15,.cls-2,.cls-5{fill:#3c3c41;}.cls-2{opacity:0.05;}.cls-2,.cls-3,.cls-4,.cls-5{isolation:isolate;}.cls-3{opacity:0.6;}.cls-14,.cls-16,.cls-17,.cls-30,.cls-4{fill:none;}.cls-4{stroke:#75757a;stroke-width:0.5px;opacity:0.5;}.cls-14,.cls-16,.cls-17,.cls-4{stroke-miterlimit:10;}.cls-5{opacity:0.2;}.cls-6{fill:#ccc;fill-opacity:0.3;}.cls-7{fill:url(#Degradado_sin_nombre);}.cls-8{fill:#50e6ff;}.cls-9{fill:#c3f1ff;}.cls-10{fill:#9cebff;}.cls-11{fill:url(#Degradado_sin_nombre_2);}.cls-12{fill:url(#Degradado_sin_nombre_3);}.cls-13{fill:url(#Degradado_sin_nombre_4);}.cls-14,.cls-16,.cls-17{stroke:#3c3c41;}.cls-16{stroke-dasharray:1.46 2.43;}.cls-17{stroke-dasharray:1.31 2.19;}.cls-18{fill:url(#Degradado_sin_nombre_5);}.cls-19{fill:url(#Degradado_sin_nombre_6);}.cls-20{fill:url(#Degradado_sin_nombre_7);}.cls-21{fill:#1490df;}.cls-22{fill:url(#Degradado_sin_nombre_8);}.cls-23{fill:url(#Degradado_sin_nombre_9);}.cls-24{fill:url(#Degradado_sin_nombre_10);}.cls-25{fill:url(#Degradado_sin_nombre_11);}.cls-26{fill:url(#Degradado_sin_nombre_12);}.cls-27{fill:url(#Degradado_sin_nombre_13);}.cls-28{fill:url(#Degradado_sin_nombre_14);}.cls-29{fill:url(#Degradado_sin_nombre_15);}.cls-31{fill:#6ebcdb;}.cls-32{fill:#5db4d7;}.cls-33{fill:#e6e6e6;}.cls-34{fill:#86d633;}.cls-35{fill:#1e1e1e;}</style><linearGradient id="Degradado_sin_nombre" x1="39.57" y1="240.22" x2="39.57" y2="221.46" gradientTransform="translate(0 -74.26)" gradientUnits="userSpaceOnUse"><stop offset="0" stop-color="#0078d4"/><stop offset="0.82" stop-color="#5ea0ef"/></linearGradient><linearGradient id="Degradado_sin_nombre_2" x1="39.57" y1="247.46" x2="39.57" y2="240.22" gradientTransform="translate(0 -74.26)" gradientUnits="userSpaceOnUse"><stop offset="0.15" stop-color="#ccc"/><stop offset="1" stop-color="#707070"/></linearGradient><linearGradient id="Degradado_sin_nombre_3" x1="76.43" y1="240.22" x2="76.43" y2="221.46" xlink:href="#Degradado_sin_nombre"/><linearGradient id="Degradado_sin_nombre_4" x1="76.43" y1="247.46" x2="76.43" y2="240.22" xlink:href="#Degradado_sin_nombre_2"/><linearGradient id="Degradado_sin_nombre_5" x1="24.5" y1="301.79" x2="26.87" y2="304.15" gradientTransform="translate(3.03 -74.68)" gradientUnits="userSpaceOnUse"><stop offset="0" stop-color="#86d633"/><stop offset="0.24" stop-color="#83d232"/><stop offset="0.5" stop-color="#7cc52f"/><stop offset="0.76" stop-color="#6fb02a"/><stop offset="1" stop-color="#5e9624"/></linearGradient><linearGradient id="Degradado_sin_nombre_6" x1="19.15" y1="301.79" x2="21.51" y2="304.15" xlink:href="#Degradado_sin_nombre_5"/><linearGradient id="Degradado_sin_nombre_7" x1="13.81" y1="301.78" x2="16.17" y2="304.15" xlink:href="#Degradado_sin_nombre_5"/><linearGradient id="Degradado_sin_nombre_8" x1="139.57" y1="240.22" x2="139.57" y2="221.46" xlink:href="#Degradado_sin_nombre"/><linearGradient id="Degradado_sin_nombre_9" x1="139.57" y1="247.46" x2="139.57" y2="240.22" xlink:href="#Degradado_sin_nombre_2"/><linearGradient id="Degradado_sin_nombre_10" x1="176.43" y1="240.22" x2="176.43" y2="221.46" xlink:href="#Degradado_sin_nombre"/><linearGradient id="Degradado_sin_nombre_11" x1="176.43" y1="247.46" x2="176.43" y2="240.22" xlink:href="#Degradado_sin_nombre_2"/><linearGradient id="Degradado_sin_nombre_12" x1="239.57" y1="240.22" x2="239.57" y2="221.46" xlink:href="#Degradado_sin_nombre"/><linearGradient id="Degradado_sin_nombre_13" x1="239.57" y1="247.46" x2="239.57" y2="240.22" xlink:href="#Degradado_sin_nombre_2"/><linearGradient id="Degradado_sin_nombre_14" x1="276.43" y1="240.22" x2="276.43" y2="221.46" xlink:href="#Degradado_sin_nombre"/><linearGradient id="Degradado_sin_nombre_15" x1="276.43" y1="247.46" x2="276.43" y2="240.22" xlink:href="#Degradado_sin_nombre_2"/></defs><title>OJ104903206</title><g id="Target"><g id="Shapes"><rect class="cls-1" width="316" height="315.2"/><rect class="cls-1" x="0.5" y="75.2" width="315" height="151.85" rx="5"/><rect class="cls-2" x="0.5" y="75.2" width="315" height="151.85" rx="5"/><rect class="cls-3" x="10.5" y="15.2" width="95" height="200"/><rect class="cls-4" x="10.5" y="15.2" width="95" height="200"/><rect class="cls-1" x="15.99" y="120.2" width="84.51" height="90" rx="0.3"/><rect class="cls-5" x="15.99" y="120.2" width="84.51" height="90" rx="0.3"/><rect class="cls-6" x="160.5" y="240.2" width="155" height="35"/><rect class="cls-6" x="160.5" y="280.2" width="155" height="35"/><rect class="cls-7" x="25.5" y="147.2" width="28.14" height="18.76" rx="0.94"/><polygon class="cls-8" points="44.26 153.85 44.26 159.3 39.57 162.05 39.57 156.58 44.26 153.85"/><polygon class="cls-9" points="44.26 153.85 39.57 156.6 34.88 153.85 39.57 151.11 44.26 153.85"/><polygon class="cls-10" points="39.57 156.6 39.57 162.05 34.88 159.3 34.88 153.85 39.57 156.6"/><polygon class="cls-9" points="34.88 159.3 39.57 156.58 39.57 162.05 34.88 159.3"/><polygon class="cls-10" points="44.26 159.3 39.57 156.58 39.57 162.05 44.26 159.3"/><path class="cls-11" d="M45.21,171.64c-2.78-.44-2.89-2.44-2.89-5.68H36.8c0,3.24-.09,5.24-2.87,5.68a1.55,1.55,0,0,0-1.39,1.56H46.61A1.57,1.57,0,0,0,45.21,171.64Z"/><rect class="cls-12" x="62.36" y="147.2" width="28.14" height="18.76" rx="0.94"/><polygon class="cls-8" points="81.12 153.85 81.12 159.3 76.43 162.05 76.43 156.58 81.12 153.85"/><polygon class="cls-9" points="81.12 153.85 76.43 156.6 71.74 153.85 76.43 151.11 81.12 153.85"/><polygon class="cls-10" points="76.43 156.6 76.43 162.05 71.74 159.3 71.74 153.85 76.43 156.6"/><polygon class="cls-9" points="71.74 159.3 76.43 156.58 76.43 162.05 71.74 159.3"/><polygon class="cls-10" points="81.12 159.3 76.43 156.58 76.43 162.05 81.12 159.3"/><path class="cls-13" d="M82.07,171.64c-2.78-.44-2.89-2.44-2.89-5.68H73.66c0,3.24-.09,5.24-2.87,5.68a1.57,1.57,0,0,0-1.4,1.56H83.46A1.55,1.55,0,0,0,82.07,171.64Z"/><line class="cls-14" x1="58.25" y1="120.2" x2="58.25" y2="55.2"/><line class="cls-14" x1="50.72" y1="112.67" x2="50.72" y2="100.98"/><polygon class="cls-15" points="53.71 101.85 50.72 96.67 47.73 101.85 53.71 101.85"/><line class="cls-14" x1="65.77" y1="108.37" x2="65.77" y2="107.62"/><line class="cls-16" x1="65.77" y1="105.19" x2="65.77" y2="98.64"/><line class="cls-14" x1="65.77" y1="97.42" x2="65.77" y2="96.67"/><polygon class="cls-15" points="68.76 107.49 65.77 112.67 62.78 107.49 68.76 107.49"/><line class="cls-14" x1="169.81" y1="250.2" x2="180.93" y2="250.2"/><polygon class="cls-15" points="170.68 253.19 165.5 250.2 170.68 247.21 170.68 253.19"/><line class="cls-14" x1="176.19" y1="290.2" x2="175.44" y2="290.2"/><line class="cls-17" x1="173.25" y1="290.2" x2="167.34" y2="290.2"/><line class="cls-14" x1="166.25" y1="290.2" x2="165.5" y2="290.2"/><polygon class="cls-15" points="175.32 287.21 180.5 290.2 175.32 293.19 175.32 287.21"/><circle class="cls-18" cx="28.4" cy="227.97" r="1.67"/><circle class="cls-19" cx="23.06" cy="227.99" r="1.67"/><circle class="cls-20" cx="17.72" cy="227.99" r="1.67"/><path class="cls-8" d="M18.93,234.68l-1,1a.43.43,0,0,1-.61,0h0l-7.09-7.08a.88.88,0,0,1,0-1.22h0l1-1h0l7.71,7.69a.43.43,0,0,1,0,.61h0Z"/><path class="cls-21" d="M17.83,220.35l1,1a.43.43,0,0,1,0,.61h0l-7.57,7.6h0l-1-1a.89.89,0,0,1,0-1.23h0l7-7A.43.43,0,0,1,17.83,220.35Z"/><path class="cls-8" d="M34.78,226.37l1,1a.87.87,0,0,1,0,1.23h0l-7.1,7.07a.43.43,0,0,1-.61,0h0l-1-1a.43.43,0,0,1,0-.61h0Z"/><path class="cls-21" d="M35.74,228.55l-1,1h0L27.17,222a.43.43,0,0,1,0-.61h0l1-1a.43.43,0,0,1,.61,0h0l7,7a.89.89,0,0,1,0,1.23h0Z"/><rect class="cls-1" x="40.75" y="20.2" width="35" height="35"/><rect class="cls-5" x="40.75" y="20.2" width="35" height="35"/><rect class="cls-3" x="110.5" y="15.2" width="95" height="200"/><rect class="cls-4" x="110.5" y="15.2" width="95" height="200"/><rect class="cls-1" x="115.99" y="120.2" width="84.51" height="90" rx="0.3"/><rect class="cls-5" x="115.99" y="120.2" width="84.51" height="90" rx="0.3"/><rect class="cls-22" x="125.5" y="147.2" width="28.14" height="18.76" rx="0.94"/><polygon class="cls-8" points="144.26 153.85 144.26 159.3 139.57 162.05 139.57 156.58 144.26 153.85"/><polygon class="cls-9" points="144.26 153.85 139.57 156.6 134.88 153.85 139.57 151.11 144.26 153.85"/><polygon class="cls-10" points="139.57 156.6 139.57 162.05 134.88 159.3 134.88 153.85 139.57 156.6"/><polygon class="cls-9" points="134.88 159.3 139.57 156.58 139.57 162.05 134.88 159.3"/><polygon class="cls-10" points="144.26 159.3 139.57 156.58 139.57 162.05 144.26 159.3"/><path class="cls-23" d="M145.21,171.64c-2.78-.44-2.89-2.44-2.89-5.68H136.8c0,3.24-.09,5.24-2.87,5.68a1.55,1.55,0,0,0-1.39,1.56h14.07A1.57,1.57,0,0,0,145.21,171.64Z"/><rect class="cls-24" x="162.36" y="147.2" width="28.14" height="18.76" rx="0.94"/><polygon class="cls-8" points="181.12 153.85 181.12 159.3 176.43 162.05 176.43 156.58 181.12 153.85"/><polygon class="cls-9" points="181.12 153.85 176.43 156.6 171.74 153.85 176.43 151.11 181.12 153.85"/><polygon class="cls-10" points="176.43 156.6 176.43 162.05 171.74 159.3 171.74 153.85 176.43 156.6"/><polygon class="cls-9" points="171.74 159.3 176.43 156.58 176.43 162.05 171.74 159.3"/><polygon class="cls-10" points="181.12 159.3 176.43 156.58 176.43 162.05 181.12 159.3"/><path class="cls-25" d="M182.07,171.64c-2.78-.44-2.89-2.44-2.89-5.68h-5.52c0,3.24-.09,5.24-2.87,5.68a1.57,1.57,0,0,0-1.4,1.56h14.07A1.55,1.55,0,0,0,182.07,171.64Z"/><line class="cls-14" x1="158.25" y1="120.2" x2="158.25" y2="55.2"/><line class="cls-14" x1="150.72" y1="112.67" x2="150.72" y2="100.98"/><polygon class="cls-15" points="153.71 101.85 150.72 96.67 147.73 101.85 153.71 101.85"/><line class="cls-14" x1="165.77" y1="108.37" x2="165.77" y2="107.62"/><line class="cls-16" x1="165.77" y1="105.19" x2="165.77" y2="98.64"/><line class="cls-14" x1="165.77" y1="97.42" x2="165.77" y2="96.67"/><polygon class="cls-15" points="168.76 107.49 165.77 112.67 162.78 107.49 168.76 107.49"/><rect class="cls-1" x="140.75" y="20.2" width="35" height="35"/><rect class="cls-5" x="140.75" y="20.2" width="35" height="35"/><rect class="cls-3" x="210.5" y="15.2" width="95" height="200"/><rect class="cls-4" x="210.5" y="15.2" width="95" height="200"/><rect class="cls-1" x="215.99" y="120.2" width="84.51" height="90" rx="0.3"/><rect class="cls-5" x="215.99" y="120.2" width="84.51" height="90" rx="0.3"/><rect class="cls-26" x="225.5" y="147.2" width="28.14" height="18.76" rx="0.94"/><polygon class="cls-8" points="244.26 153.85 244.26 159.3 239.57 162.05 239.57 156.58 244.26 153.85"/><polygon class="cls-9" points="244.26 153.85 239.57 156.6 234.88 153.85 239.57 151.11 244.26 153.85"/><polygon class="cls-10" points="239.57 156.6 239.57 162.05 234.88 159.3 234.88 153.85 239.57 156.6"/><polygon class="cls-9" points="234.88 159.3 239.57 156.58 239.57 162.05 234.88 159.3"/><polygon class="cls-10" points="244.26 159.3 239.57 156.58 239.57 162.05 244.26 159.3"/><path class="cls-27" d="M245.21,171.64c-2.78-.44-2.89-2.44-2.89-5.68H236.8c0,3.24-.09,5.24-2.87,5.68a1.55,1.55,0,0,0-1.39,1.56h14.07A1.57,1.57,0,0,0,245.21,171.64Z"/><rect class="cls-28" x="262.36" y="147.2" width="28.14" height="18.76" rx="0.94"/><polygon class="cls-8" points="281.12 153.85 281.12 159.3 276.43 162.05 276.43 156.58 281.12 153.85"/><polygon class="cls-9" points="281.12 153.85 276.43 156.6 271.74 153.85 276.43 151.11 281.12 153.85"/><polygon class="cls-10" points="276.43 156.6 276.43 162.05 271.74 159.3 271.74 153.85 276.43 156.6"/><polygon class="cls-9" points="271.74 159.3 276.43 156.58 276.43 162.05 271.74 159.3"/><polygon class="cls-10" points="281.12 159.3 276.43 156.58 276.43 162.05 281.12 159.3"/><path class="cls-29" d="M282.07,171.64c-2.78-.44-2.89-2.44-2.89-5.68h-5.52c0,3.24-.09,5.24-2.87,5.68a1.57,1.57,0,0,0-1.4,1.56h14.07A1.55,1.55,0,0,0,282.07,171.64Z"/><line class="cls-14" x1="258.25" y1="120.2" x2="258.25" y2="55.2"/><line class="cls-14" x1="250.72" y1="112.67" x2="250.72" y2="100.98"/><polygon class="cls-15" points="253.71 101.85 250.72 96.67 247.73 101.85 253.71 101.85"/><line class="cls-14" x1="265.77" y1="108.37" x2="265.77" y2="107.62"/><line class="cls-16" x1="265.77" y1="105.19" x2="265.77" y2="98.64"/><line class="cls-14" x1="265.77" y1="97.42" x2="265.77" y2="96.67"/><polygon class="cls-15" points="268.76 107.49 265.77 112.67 262.78 107.49 268.76 107.49"/><rect class="cls-1" x="240.75" y="20.2" width="35" height="35"/><rect class="cls-5" x="240.75" y="20.2" width="35" height="35"/><rect class="cls-30" x="0.5" y="75.2" width="315" height="151.85" rx="5"/><path class="cls-15" d="M309.34,227.55h-1v-1h1Zm-3,0h-1v-1h1Zm-3,0h-1v-1h1Zm-3,0h-1v-1h1Zm-3,0h-1v-1h1Zm-3,0h-1v-1h1Zm-3,0h-1v-1h1Zm-3,0h-1v-1h1Zm-3,0h-1v-1h1Zm-3,0h-1v-1h1Zm-3,0h-1v-1h1Zm-3,0h-1v-1h1Zm-3,0h-1v-1h1Zm-3,0h-1v-1h1Zm-3,0h-1v-1h1Zm-3,0h-1v-1h1Zm-3,0h-1v-1h1Zm-3,0h-1v-1h1Zm-3,0h-1v-1h1Zm-3,0h-1v-1h1Zm-3,0h-1v-1h1Zm-3,0h-1v-1h1Zm-3,0h-1v-1h1Zm-3,0h-1v-1h1Zm-3,0h-1v-1h1Zm-3,0h-1v-1h1Zm-3,0h-1v-1h1Zm-3,0h-1v-1h1Zm-3,0h-1v-1h1Zm-3,0h-1v-1h1Zm-3,0h-1v-1h1Zm-3,0h-1v-1h1Zm-3,0h-1v-1h1Zm-3,0h-1v-1h1Zm-3,0h-1v-1h1Zm-3,0h-1v-1h1Zm-3,0h-1v-1h1Zm-3,0h-1v-1h1Zm-3,0h-1v-1h1Zm-3,0h-1v-1h1Zm-3,0h-1v-1h1Zm-3,0h-1v-1h1Zm-3,0h-1v-1h1Zm-3,0h-1v-1h1Zm-3,0h-1v-1h1Zm-3,0h-1v-1h1Zm-3,0h-1v-1h1Zm-3,0h-1v-1h1Zm-3,0h-1v-1h1Zm-3,0h-1v-1h1Zm-3,0h-1v-1h1Zm-3,0h-1v-1h1Zm-3,0h-1v-1h1Zm-3,0h-1v-1h1Zm-3,0h-1v-1h1Zm-3,0h-1v-1h1Zm-3,0h-1v-1h1Zm-3,0h-1v-1h1Zm-3,0h-1v-1h1Zm-3,0h-1v-1h1Zm-3,0h-1v-1h1Zm-3,0h-1v-1h1Zm-3,0h-1v-1h1Zm-3,0h-1v-1h1Zm-3,0h-1v-1h1Zm-3,0h-1v-1h1Zm-3,0h-1v-1h1Zm-3,0h-1v-1h1Zm-3,0h-1v-1h1Zm-3,0h-1v-1h1Zm-3,0h-1v-1h1Zm-3,0h-1v-1h1Zm-3,0h-1v-1h1Zm-3,0h-1v-1h1Zm-3,0h-1v-1h1Zm-3,0h-1v-1h1Zm-3,0h-1v-1h1Zm-3,0h-1v-1h1Zm-3,0h-1v-1h1Zm-3,0h-1v-1h1Zm-3,0h-1v-1h1Zm-3,0h-1v-1h1Zm-3,0h-1v-1h1Zm-3,0h-1v-1h1Zm-3,0h-1v-1h1Zm-3,0h-1v-1h1Zm-3,0h-1v-1h1Zm-3,0H47v-1h1Zm-3,0H44v-1h1Zm-3,0H41v-1h1Zm-3,0H38v-1h1Zm-33,0H5l.1-1H6Zm305.42-.08-.16-1a4.4,4.4,0,0,0,.86-.24l.37.93a5.64,5.64,0,0,1-1.41.31ZM3.2,226.87a6.34,6.34,0,0,1-.91-.62l.65-.77a4.7,4.7,0,0,0,.74.52ZM314.32,226l-.69-.72a4.82,4.82,0,0,0,.58-.69l.82.57A5.18,5.18,0,0,1,314.32,226ZM.6,224.54a5.09,5.09,0,0,1-.4-1l1-.27a4.31,4.31,0,0,0,.33.84Zm315.29-1.39-1-.2a4.58,4.58,0,0,0,.09-.9l1-.06v.06A5.06,5.06,0,0,1,315.89,223.15ZM1,221.39H0v-1H1ZM316,220h-1v-1h1ZM1,218.39H0v-1H1ZM316,217h-1v-1h1ZM1,215.38H0v-1H1ZM316,214h-1v-1h1ZM1,212.38H0v-1H1ZM316,211h-1v-1h1ZM1,209.38H0v-1H1ZM316,208h-1v-1h1ZM1,206.37H0v-1H1ZM316,205h-1v-1h1ZM1,203.37H0v-1H1ZM316,202h-1v-1h1ZM1,200.37H0v-1H1ZM316,199h-1v-1h1ZM1,197.36H0v-1H1ZM316,196h-1v-1h1ZM1,194.36H0v-1H1ZM316,193h-1v-1h1ZM1,191.36H0v-1H1ZM316,190h-1v-1h1ZM1,188.35H0v-1H1ZM316,187h-1v-1h1ZM1,185.35H0v-1H1ZM316,184h-1v-1h1ZM1,182.35H0v-1H1ZM316,181h-1v-1h1ZM1,179.34H0v-1H1Zm315-1.4h-1v-1h1ZM1,176.34H0v-1H1Zm315-1.4h-1v-1h1ZM1,173.34H0v-1H1Zm315-1.4h-1v-1h1ZM1,170.33H0v-1H1Zm315-1.4h-1v-1h1ZM1,167.33H0v-1H1Zm315-1.4h-1v-1h1ZM1,164.33H0v-1H1Zm315-1.4h-1v-1h1ZM1,161.32H0v-1H1Zm315-1.4h-1v-1h1ZM1,158.32H0v-1H1Zm315-1.4h-1v-1h1ZM1,155.32H0v-1H1Zm315-1.4h-1v-1h1ZM1,152.31H0v-1H1Zm315-1.4h-1v-1h1ZM1,149.31H0v-1H1Zm315-1.4h-1v-1h1ZM1,146.3H0v-1H1Zm315-1.39h-1v-1h1ZM1,143.3H0v-1H1Zm315-1.4h-1v-1h1ZM1,140.3H0v-1H1Zm315-1.4h-1v-1h1ZM1,137.29H0v-1H1Zm315-1.39h-1v-1h1ZM1,134.29H0v-1H1Zm315-1.4h-1v-1h1ZM1,131.29H0v-1H1Zm315-1.4h-1v-1h1ZM1,128.28H0v-1H1Zm315-1.39h-1v-1h1ZM1,125.28H0v-1H1Zm315-1.4h-1v-1h1ZM1,122.28H0v-1H1Zm315-1.4h-1v-1h1ZM1,119.27H0v-1H1Zm315-1.39h-1v-1h1ZM1,116.27H0v-1H1Zm315-1.4h-1v-1h1ZM1,113.27H0v-1H1Zm315-1.4h-1v-1h1ZM1,110.26H0v-1H1Zm315-1.39h-1v-1h1ZM1,107.26H0v-1H1Zm315-1.4h-1v-1h1ZM1,104.26H0v-1H1Zm315-1.4h-1v-1h1ZM1,101.25H0v-1H1Zm315-1.39h-1v-1h1ZM1,98.25H0v-1H1Zm315-1.4h-1v-1h1ZM1,95.25H0v-1H1Zm315-1.4h-1v-1h1ZM1,92.24H0v-1H1Zm315-1.4h-1v-1h1ZM1,89.24H0v-1H1Zm315-1.4h-1v-1h1ZM1,86.24H0v-1H1Zm315-1.4h-1v-1h1ZM1,83.23H0v-1H1Zm315-1.4h-1v-1h1ZM0,80.23H0a6.24,6.24,0,0,1,.1-1.06l1,.19a4.81,4.81,0,0,0-.1.84ZM314.83,79a4,4,0,0,0-.33-.83l.89-.46a5.09,5.09,0,0,1,.4,1Zm-313-1.3L1,77.12a6.24,6.24,0,0,1,.7-.84l.7.71a5.09,5.09,0,0,0-.62.69Zm311.6-.93a4.58,4.58,0,0,0-.74-.5l.48-.88a5.48,5.48,0,0,1,.9.61ZM3.85,76l-.36-.93a5,5,0,0,1,1-.29l.18,1A4.73,4.73,0,0,0,3.85,76Zm307.08-.29H310v-1h1.05Zm-3,0h-1v-1h1Zm-3,0h-1v-1h1Zm-3,0h-1v-1h1Zm-3,0h-1v-1h1Zm-3,0h-1v-1h1Zm-3,0h-1v-1h1Zm-3,0h-1v-1h1Zm-3,0h-1v-1h1Zm-3,0h-1v-1h1Zm-3,0h-1v-1h1Zm-3,0h-1v-1h1Zm-3,0h-1v-1h1Zm-3,0h-1v-1h1Zm-3,0h-1v-1h1Zm-3,0h-1v-1h1Zm-3,0h-1v-1h1Zm-3,0h-1v-1h1Zm-3,0h-1v-1h1Zm-3,0h-1v-1h1Zm-3,0h-1v-1h1Zm-3,0h-1v-1h1Zm-3,0h-1v-1h1Zm-3,0h-1v-1h1Zm-3,0h-1v-1h1Zm-3,0h-1v-1h1Zm-3,0h-1v-1h1Zm-3,0h-1v-1h1Zm-3,0h-1v-1h1Zm-3,0h-1v-1h1Zm-3,0h-1v-1h1Zm-3,0h-1v-1h1Zm-3,0h-1v-1h1Zm-3,0h-1v-1h1Zm-3,0h-1v-1h1Zm-3,0h-1v-1h1Zm-3,0h-1v-1h1Zm-3,0h-1v-1h1Zm-3,0h-1v-1h1Zm-3,0h-1v-1h1Zm-3,0h-1v-1h1Zm-3,0h-1v-1h1Zm-3,0h-1v-1h1Zm-3,0h-1v-1h1Zm-3,0h-1v-1h1Zm-3,0h-1v-1h1Zm-3,0h-1v-1h1Zm-3,0h-1v-1h1Zm-3,0h-1v-1h1Zm-3,0h-1v-1h1Zm-3,0h-1v-1h1Zm-3,0h-1v-1h1Zm-3,0h-1v-1h1Zm-3,0h-1v-1h1Zm-3,0h-1v-1h1Zm-3,0h-1v-1h1Zm-3,0h-1v-1h1Zm-3,0h-1v-1h1Zm-3,0h-1v-1h1Zm-3,0h-1v-1h1Zm-3,0h-1v-1h1Zm-3,0h-1v-1h1Zm-3,0h-1v-1h1Zm-3,0h-1v-1h1Zm-3,0h-1v-1h1Zm-3,0h-1v-1h1Zm-3,0h-1v-1h1Zm-3,0h-1v-1h1Zm-3,0h-1v-1h1Zm-3,0h-1v-1h1Zm-3,0h-1v-1h1Zm-3,0h-1v-1h1Zm-3,0h-1v-1h1Zm-3,0h-1v-1h1Zm-3,0h-1v-1h1Zm-3,0h-1v-1h1Zm-3,0h-1v-1h1Zm-3,0h-1v-1h1Zm-3,0h-1v-1h1Zm-3,0h-1v-1h1Zm-3,0h-1v-1h1Zm-3,0h-1v-1h1Zm-3,0h-1v-1h1Zm-3,0h-1v-1h1Zm-3,0h-1v-1h1Zm-3,0h-1v-1h1Zm-3,0h-1v-1h1Zm-3,0h-1v-1h1Zm-3,0h-1v-1h1Zm-3,0h-1v-1h1Zm-3,0h-1v-1h1Zm-3,0h-1v-1h1Zm-3,0h-1v-1h1Zm-3,0h-1v-1h1Zm-3,0h-1v-1h1Zm-3,0h-1v-1h1Zm-3,0h-1v-1h1Zm-3,0h-1v-1h1Zm-3,0h-1v-1h1Zm-3,0h-1v-1h1Zm-3,0h-1v-1h1Zm-3,0h-1v-1h1Z"/><g id="ad94e297-0e86-4eaf-aac0-d146ee9aea65"><path class="cls-31" d="M54.12,83.24,49.43,78.4a2.28,2.28,0,0,1-.77.14,2.43,2.43,0,1,1,2.24-3.33h4.61v1.62H51a3.64,3.64,0,0,1-.25.57L55,81.86l2.34-3.56V67.12H54.22l4-4,4,4H59v8.73l5.93-9-6-6a1,1,0,0,0-1.41-.05l-.05.05h0L43,75.28a1,1,0,0,0,0,1.41l0,0h0l14.48,14.5-5.17-5.17Z"/><path class="cls-32" d="M57.37,83.45V78.28L55,81.86l1.72,1.85A1.68,1.68,0,0,1,57.37,83.45Z"/><path class="cls-32" d="M73.4,75.28l-8.48-8.47-5.93,9v7.62a1.57,1.57,0,0,1,.54.29l6.22-6.29a2.53,2.53,0,0,1-.31-.64H60.77V75.21h4.74a2.41,2.41,0,1,1,2.24,3.33,3.1,3.1,0,0,1-.68-.1L60.46,85.1a2.59,2.59,0,0,1,.1.62,2.43,2.43,0,1,1-4.84.44,2.18,2.18,0,0,1,0-.25,2.24,2.24,0,0,1,.13-.89l-1.72-1.73-1.85,2.76,5.17,5.17a1,1,0,0,0,1.41,0l0,0L73.36,76.75a1,1,0,0,0,0-1.41s0,0,0,0Z"/><path class="cls-33" d="M65.51,75.21H60.77v1.62h4.67A2.21,2.21,0,0,1,65.51,75.21Z"/><path class="cls-33" d="M51,76.83h4.55V75.21H50.9a2.54,2.54,0,0,1,.19.9A2.19,2.19,0,0,1,51,76.83Z"/><path class="cls-33" d="M60.46,85.1l6.61-6.66a2.44,2.44,0,0,1-1.32-1l-6.22,6.29A2.33,2.33,0,0,1,60.46,85.1Z"/><path class="cls-33" d="M56.81,83.71l-1.73-1.85L50.71,77.4a2.45,2.45,0,0,1-1.28,1l4.69,4.84L55.84,85A2.32,2.32,0,0,1,56.81,83.71Z"/><path class="cls-1" d="M62.13,67.12l-3.93-4-4,4h3.15V83.45a1.68,1.68,0,0,0-.56.26,2.38,2.38,0,0,0-1,1.31,2.41,2.41,0,0,0,4.62,1.39,2.3,2.3,0,0,0,.1-.69,2.59,2.59,0,0,0-.1-.62,2.36,2.36,0,0,0-.93-1.34,1.57,1.57,0,0,0-.54-.29V67.12ZM58.2,87.07a1.35,1.35,0,1,1,1.34-1.36h0a1.34,1.34,0,0,1-1.33,1.35Z"/><path class="cls-1" d="M50.71,77.4a3.64,3.64,0,0,0,.25-.57,2.48,2.48,0,0,0,.13-.72,2.54,2.54,0,0,0-.19-.9,2.42,2.42,0,1,0-2.24,3.33,2.28,2.28,0,0,0,.77-.14A2.45,2.45,0,0,0,50.71,77.4Zm-2.05,0A1.35,1.35,0,1,1,50,76v0h0a1.34,1.34,0,0,1-1.29,1.39h-.05Z"/><path class="cls-1" d="M67.07,78.44a3.1,3.1,0,0,0,.68.1,2.43,2.43,0,1,0-2.24-3.33,2.21,2.21,0,0,0-.07,1.62,2.53,2.53,0,0,0,.31.64A2.39,2.39,0,0,0,67.07,78.44Zm.68-3.66a1.33,1.33,0,1,1-.31,0A1.61,1.61,0,0,1,67.75,74.78Z"/><path class="cls-34" d="M58.2,84.38a1.35,1.35,0,1,0,1.34,1.36v0h0A1.34,1.34,0,0,0,58.2,84.38Z"/><circle class="cls-34" cx="48.66" cy="76.11" r="1.34"/><path class="cls-34" d="M67.75,77.45a1.34,1.34,0,1,0-1.35-1.34h0a1.34,1.34,0,0,0,1.34,1.34Z"/></g><g id="ad94e297-0e86-4eaf-aac0-d146ee9aea65-2"><path class="cls-31" d="M154.18,83.24l-4.69-4.84a2.28,2.28,0,0,1-.77.14A2.43,2.43,0,1,1,151,75.21h4.61v1.62H151a3.64,3.64,0,0,1-.25.57l4.32,4.46,2.34-3.56V67.12h-3.15l4-4,4,4H159.1v8.73l5.93-9-6-6a1,1,0,0,0-1.41-.05l-.05.05h0L143.06,75.28a1,1,0,0,0-.05,1.41l.05,0h0l14.48,14.48-5.17-5.17Z"/><path class="cls-32" d="M157.43,83.45V78.28l-2.34,3.58,1.72,1.85A1.61,1.61,0,0,1,157.43,83.45Z"/><path class="cls-32" d="M173.46,75.28,165,66.81l-5.93,9v7.62a2.16,2.16,0,0,1,.54.29l6.22-6.29a2.53,2.53,0,0,1-.31-.64h-4.67V75.21h4.74a2.41,2.41,0,1,1,2.23,3.33,3,3,0,0,1-.67-.1l-6.61,6.66a2.59,2.59,0,0,1,.1.62,2.43,2.43,0,1,1-4.84.44,2.18,2.18,0,0,1,0-.25,2.24,2.24,0,0,1,.13-.89l-1.72-1.73-1.85,2.76,5.17,5.17a1,1,0,0,0,1.41,0l0,0,14.47-14.47a1,1,0,0,0,.05-1.41s0,0-.05,0Z"/><path class="cls-33" d="M165.57,75.21h-4.74v1.62h4.67A2.21,2.21,0,0,1,165.57,75.21Z"/><path class="cls-33" d="M151,76.83h4.55V75.21H151a2.33,2.33,0,0,1,.18.9A2.24,2.24,0,0,1,151,76.83Z"/><path class="cls-33" d="M160.52,85.1l6.61-6.66a2.41,2.41,0,0,1-1.32-1l-6.22,6.29A2.33,2.33,0,0,1,160.52,85.1Z"/><path class="cls-33" d="M156.86,83.71l-1.72-1.85-4.37-4.46a2.45,2.45,0,0,1-1.28,1l4.69,4.84L155.9,85A2.39,2.39,0,0,1,156.86,83.71Z"/><path class="cls-1" d="M162.19,67.12l-3.93-4-4,4h3.15V83.45a1.73,1.73,0,0,0-.57.26,2.41,2.41,0,1,0,2.71,4,2.35,2.35,0,0,0,.95-1.28,2.25,2.25,0,0,0,0-1.31,2.36,2.36,0,0,0-.93-1.34,2.16,2.16,0,0,0-.54-.29V67.12Zm-3.93,19.95a1.35,1.35,0,1,1,1.34-1.36h0a1.34,1.34,0,0,1-1.33,1.35Z"/><path class="cls-1" d="M150.77,77.4a3.64,3.64,0,0,0,.25-.57,2.18,2.18,0,0,0,.12-.72,2.33,2.33,0,0,0-.18-.9,2.42,2.42,0,1,0-2.24,3.33,2.28,2.28,0,0,0,.77-.14A2.45,2.45,0,0,0,150.77,77.4Zm-2.05,0A1.35,1.35,0,1,1,150.06,76v0h0a1.34,1.34,0,0,1-1.29,1.39h-.05Z"/><path class="cls-1" d="M167.13,78.44a3,3,0,0,0,.67.1,2.43,2.43,0,1,0-2.23-3.33,2.21,2.21,0,0,0-.07,1.62,2.53,2.53,0,0,0,.31.64A2.39,2.39,0,0,0,167.13,78.44Zm.67-3.66a1.35,1.35,0,0,1,1.2,1.48h0a1.34,1.34,0,1,1-1.49-1.49A1.41,1.41,0,0,1,167.8,74.78Z"/><path class="cls-34" d="M158.26,84.38a1.35,1.35,0,1,0,1.34,1.36v0h0A1.34,1.34,0,0,0,158.26,84.38Z"/><circle class="cls-34" cx="148.72" cy="76.11" r="1.34"/><path class="cls-34" d="M167.8,77.45a1.34,1.34,0,1,0-1.34-1.34h0A1.34,1.34,0,0,0,167.8,77.45Z"/></g><g id="ad94e297-0e86-4eaf-aac0-d146ee9aea65-3"><path class="cls-31" d="M254.21,83.24l-4.68-4.84a2.29,2.29,0,0,1-.78.14A2.43,2.43,0,1,1,251,75.21h4.62v1.62h-4.55a3.68,3.68,0,0,1-.26.57l4.33,4.46,2.34-3.56V67.12h-3.15l4-4,3.94,4h-3.15v8.73l5.93-9-6-6a1,1,0,0,0-1.41-.05l-.05.05h0L243.1,75.28a1,1,0,0,0,0,1.41l0,0h0l14.47,14.48-5.17-5.17Z"/><path class="cls-32" d="M257.47,83.45V78.28l-2.34,3.58,1.72,1.85A1.61,1.61,0,0,1,257.47,83.45Z"/><path class="cls-32" d="M273.49,75.28,265,66.81l-5.93,9v7.62a1.83,1.83,0,0,1,.53.29l6.22-6.29a2.91,2.91,0,0,1-.31-.64h-4.67V75.21h4.74a2.42,2.42,0,1,1,2.24,3.33,3,3,0,0,1-.67-.1l-6.62,6.66a2.18,2.18,0,0,1,.11.62,2.43,2.43,0,0,1-4.86.21,2.55,2.55,0,0,1,.14-.91l-1.73-1.73-1.84,2.76,5.17,5.17a1,1,0,0,0,1.41,0l0,0,14.47-14.47a1,1,0,0,0,.05-1.41l-.05,0Z"/><path class="cls-33" d="M265.6,75.21h-4.74v1.62h4.67a2.93,2.93,0,0,1-.12-.72A2.3,2.3,0,0,1,265.6,75.21Z"/><path class="cls-33" d="M251.06,76.83h4.55V75.21H251a2.21,2.21,0,0,1,.07,1.62Z"/><path class="cls-33" d="M260.55,85.1l6.62-6.66a2.43,2.43,0,0,1-1.33-1l-6.22,6.29A2.27,2.27,0,0,1,260.55,85.1Z"/><path class="cls-33" d="M256.9,83.71l-1.72-1.85L250.8,77.4a2.46,2.46,0,0,1-1.27,1l4.68,4.84L255.94,85A2.35,2.35,0,0,1,256.9,83.71Z"/><path class="cls-1" d="M262.23,67.12l-3.93-4-4,4h3.15V83.45a1.73,1.73,0,0,0-.57.26,2.34,2.34,0,0,0-1,1.31,2.41,2.41,0,0,0,4.55,1.6l.06-.21a2.31,2.31,0,0,0,.11-.69,2.18,2.18,0,0,0-.11-.62,2.24,2.24,0,0,0-.93-1.34,1.83,1.83,0,0,0-.53-.29V67.12ZM258.3,87.07a1.35,1.35,0,1,1,1.34-1.36h0a1.34,1.34,0,0,1-1.33,1.35Z"/><path class="cls-1" d="M250.8,77.4a3.68,3.68,0,0,0,.26-.57,2.21,2.21,0,0,0-.07-1.62,2.41,2.41,0,1,0-2.24,3.33,2.29,2.29,0,0,0,.78-.14A2.46,2.46,0,0,0,250.8,77.4Zm-2.05,0a1.35,1.35,0,0,1,0-2.69,1.37,1.37,0,0,1,1.35,1.35h0a1.36,1.36,0,0,1-1.3,1.39h-.05Z"/><path class="cls-1" d="M267.17,78.44a3,3,0,0,0,.67.1,2.43,2.43,0,1,0-2.24-3.33,2.3,2.3,0,0,0-.19.9,2.53,2.53,0,0,0,.43,1.36A2.45,2.45,0,0,0,267.17,78.44Zm.67-3.66a1.34,1.34,0,1,1-1.49,1.5h0a1.35,1.35,0,0,1,1.19-1.49,1.5,1.5,0,0,1,.3,0Z"/><path class="cls-34" d="M258.3,84.38a1.35,1.35,0,1,0,1.34,1.36v0h0A1.34,1.34,0,0,0,258.3,84.38Z"/><circle class="cls-34" cx="248.75" cy="76.11" r="1.34"/><path class="cls-34" d="M267.84,77.45a1.34,1.34,0,1,0-1.34-1.34h0A1.34,1.34,0,0,0,267.84,77.45Z"/></g></g></g><g id="Text"><path class="cls-35" d="M51.72,31.65v3.44h-1V26h2.44a3.21,3.21,0,0,1,2.23.71,2.49,2.49,0,0,1,.8,2,2.69,2.69,0,0,1-.94,2.15,3.24,3.24,0,0,1-2.33.78Zm0-4.71v3.78h1.14a2.57,2.57,0,0,0,1.71-.51,1.81,1.81,0,0,0,.58-1.45c0-1.21-.71-1.82-2.15-1.82Z"/><path class="cls-35" d="M58.93,35.09h-1V26h1Z"/><path class="cls-35" d="M62.34,31.65v3.44h-1V26H63.8a3.19,3.19,0,0,1,2.22.71,2.49,2.49,0,0,1,.81,2,2.7,2.7,0,0,1-1,2.15,3.23,3.23,0,0,1-2.32.78Zm0-4.71v3.78h1.14a2.53,2.53,0,0,0,1.71-.51,1.82,1.82,0,0,0,.59-1.45c0-1.21-.72-1.82-2.16-1.82Z"/><path class="cls-35" d="M54.93,48.25H53.82l-1-2.58H49L48,48.25H46.91l3.5-9.08h1Zm-2.43-3.5L51,40.83a4,4,0,0,1-.13-.59h0a2.36,2.36,0,0,1-.15.59L49.3,44.75Z"/><path class="cls-35" d="M62.54,39.36l-5.36,8h5.23v.92H55.67V48L61,40.08H56.09v-.91h6.45Z"/><path class="cls-35" d="M66.18,48.25V40.41a3.63,3.63,0,0,1-.88.6,5.14,5.14,0,0,1-1.19.47v-1a7.39,7.39,0,0,0,1.51-.63A6.53,6.53,0,0,0,66.88,39h.28v9.28Z"/><path class="cls-35" d="M151.64,31.65v3.44h-1V26h2.45a3.23,3.23,0,0,1,2.23.71,2.52,2.52,0,0,1,.8,2,2.69,2.69,0,0,1-.94,2.15,3.25,3.25,0,0,1-2.33.78Zm0-4.71v3.78h1.13a2.53,2.53,0,0,0,1.71-.51,1.82,1.82,0,0,0,.59-1.45c0-1.21-.72-1.82-2.16-1.82Z"/><path class="cls-35" d="M158.85,35.09h-1V26h1Z"/><path class="cls-35" d="M162.26,31.65v3.44h-1V26h2.45a3.23,3.23,0,0,1,2.23.71,2.52,2.52,0,0,1,.8,2,2.69,2.69,0,0,1-.94,2.15,3.25,3.25,0,0,1-2.33.78Zm0-4.71v3.78h1.14a2.52,2.52,0,0,0,1.7-.51,1.79,1.79,0,0,0,.59-1.45c0-1.21-.72-1.82-2.15-1.82Z"/><path class="cls-35" d="M154.84,48.25h-1.1l-1-2.58h-3.89l-.92,2.58h-1.11l3.49-9.08h1Zm-2.43-3.5L151,40.83a5.28,5.28,0,0,1-.14-.59h0a3.77,3.77,0,0,1-.15.59l-1.44,3.92Z"/><path class="cls-35" d="M162.46,39.36l-5.37,8h5.23v.92h-6.74V48l5.31-7.93H156v-.91h6.46Z"/><path class="cls-35" d="M167.82,41.52a1.54,1.54,0,0,0-.49-1.22,1.89,1.89,0,0,0-1.31-.44,2.46,2.46,0,0,0-1.14.28,4,4,0,0,0-1,.73v-.93a3.09,3.09,0,0,1,1-.68,3.23,3.23,0,0,1,1.29-.24,2.8,2.8,0,0,1,1.93.65,2.24,2.24,0,0,1,.73,1.76,3.24,3.24,0,0,1-.47,1.72,5.75,5.75,0,0,1-1.53,1.5,17.48,17.48,0,0,0-1.54,1.16,2.59,2.59,0,0,0-.56.71,2.07,2.07,0,0,0-.16.82h4.53v.91h-5.57v-.4a3.85,3.85,0,0,1,.21-1.36,3.6,3.6,0,0,1,.72-1.07,10.11,10.11,0,0,1,1.5-1.22,6.44,6.44,0,0,0,1.47-1.34A2.22,2.22,0,0,0,167.82,41.52Z"/><path class="cls-35" d="M18.68,10.16h-1.1l-1-2.58H12.7l-.92,2.58H10.67l3.49-9.07h1ZM16.25,6.67,14.8,2.75a3.88,3.88,0,0,1-.14-.6h0a3,3,0,0,1-.14.6L13.05,6.67Z"/><path class="cls-35" d="M26.29,1.28l-5.36,8h5.23v.91H19.42V9.92L24.72,2H19.84V1.09h6.45Z"/><path class="cls-35" d="M29.94,10.16V2.33a4.45,4.45,0,0,1-.89.6,5,5,0,0,1-1.19.47v-1a7.39,7.39,0,0,0,1.51-.63A7.16,7.16,0,0,0,30.64.89h.28v9.27Z"/><path class="cls-35" d="M118.73,10.16h-1.11l-1-2.58h-3.89l-.92,2.58h-1.11l3.49-9.07h1Zm-2.44-3.49-1.45-3.92a4.23,4.23,0,0,1-.13-.6h0a3.66,3.66,0,0,1-.15.6l-1.44,3.92Z"/><path class="cls-35" d="M126.34,1.28l-5.36,8h5.22v.91h-6.74V9.92L124.77,2h-4.88V1.09h6.45Z"/><path class="cls-35" d="M131.7,3.43a1.53,1.53,0,0,0-.49-1.21,1.84,1.84,0,0,0-1.31-.44,2.46,2.46,0,0,0-1.14.28,4.38,4.38,0,0,0-1,.72V1.85a3.26,3.26,0,0,1,1-.68A3.23,3.23,0,0,1,130,.93a2.76,2.76,0,0,1,1.93.66,2.22,2.22,0,0,1,.73,1.76,3.23,3.23,0,0,1-.47,1.71,5.63,5.63,0,0,1-1.53,1.51,15.65,15.65,0,0,0-1.54,1.16,2.24,2.24,0,0,0-.55.71,1.87,1.87,0,0,0-.17.82H133v.9h-5.57V9.77a3.85,3.85,0,0,1,.21-1.36,3.36,3.36,0,0,1,.72-1.07,9.51,9.51,0,0,1,1.5-1.22,6.69,6.69,0,0,0,1.47-1.34A2.25,2.25,0,0,0,131.7,3.43Z"/><path class="cls-35" d="M251.68,31.65v3.44h-1V26h2.45a3.23,3.23,0,0,1,2.23.71,2.52,2.52,0,0,1,.8,2,2.69,2.69,0,0,1-.94,2.15,3.25,3.25,0,0,1-2.33.78Zm0-4.71v3.78h1.14a2.52,2.52,0,0,0,1.7-.51,1.79,1.79,0,0,0,.59-1.45c0-1.21-.72-1.82-2.15-1.82Z"/><path class="cls-35" d="M258.89,35.09h-1V26h1Z"/><path class="cls-35" d="M262.3,31.65v3.44h-1V26h2.45a3.19,3.19,0,0,1,2.22.71,2.49,2.49,0,0,1,.81,2,2.7,2.7,0,0,1-1,2.15,3.23,3.23,0,0,1-2.32.78Zm0-4.71v3.78h1.14a2.55,2.55,0,0,0,1.71-.51,1.82,1.82,0,0,0,.59-1.45c0-1.21-.72-1.82-2.16-1.82Z"/><path class="cls-35" d="M254.89,48.25h-1.11l-1-2.58H248.9L248,48.25h-1.11l3.49-9.08h1Zm-2.43-3.5L251,40.83a4,4,0,0,1-.13-.59h0a2.9,2.9,0,0,1-.15.59l-1.43,3.92Z"/><path class="cls-35" d="M262.5,39.36l-5.36,8h5.22v.92h-6.73V48l5.3-7.93h-4.88v-.91h6.45Z"/><path class="cls-35" d="M263.59,46.83a3.3,3.3,0,0,0,2.1.74,2.33,2.33,0,0,0,1.53-.48,1.59,1.59,0,0,0,.59-1.31c0-1.21-.86-1.81-2.56-1.81h-.75v-.84h.71c1.52,0,2.27-.57,2.27-1.7s-.57-1.57-1.73-1.57a2.86,2.86,0,0,0-1.8.66v-1A3.86,3.86,0,0,1,266,39a2.66,2.66,0,0,1,1.78.59,2,2,0,0,1,.71,1.57,2.24,2.24,0,0,1-1.83,2.31v0a2.4,2.4,0,0,1,1.56.68,2.06,2.06,0,0,1,.59,1.49,2.44,2.44,0,0,1-.89,2,3.5,3.5,0,0,1-2.29.74,3.71,3.71,0,0,1-2-.49Z"/><path class="cls-35" d="M83,90.26H81.91l-1-2.58H77l-.92,2.58H75l3.49-9.07h1Zm-2.43-3.49-1.46-3.92a4.23,4.23,0,0,1-.13-.6h0a2.34,2.34,0,0,1-.15.6l-1.43,3.92Z"/><path class="cls-35" d="M90.63,81.38l-5.36,8h5.22v.91H83.76V90l5.3-7.92H84.18v-.91h6.45Z"/><path class="cls-35" d="M94.27,90.26V82.43a4.32,4.32,0,0,1-.88.6,5.32,5.32,0,0,1-1.19.47v-1a7.63,7.63,0,0,0,1.51-.63A7,7,0,0,0,95,81h.28v9.27Z"/><path class="cls-35" d="M36.34,203.28h-1.1l-1-2.58H30.36l-.92,2.58H28.33l3.49-9.07h1Zm-2.43-3.49-1.45-3.92a5.63,5.63,0,0,1-.14-.6h0a3.66,3.66,0,0,1-.15.6l-1.44,3.92Z"/><path class="cls-35" d="M44,194.4l-5.37,8h5.23v.91H37.08V203l5.31-7.92H37.5v-.91H44Z"/><path class="cls-35" d="M47.6,203.28v-7.83a4.45,4.45,0,0,1-.89.6,5.08,5.08,0,0,1-1.18.47v-1.05a7.56,7.56,0,0,0,1.5-.63A6.81,6.81,0,0,0,48.3,194h.28v9.27Z"/><path class="cls-35" d="M182.93,90.26h-1.1l-1-2.58H177L176,90.26h-1.11l3.49-9.07h1Zm-2.43-3.49-1.45-3.92a3.88,3.88,0,0,1-.14-.6h0a3,3,0,0,1-.14.6l-1.44,3.92Z"/><path class="cls-35" d="M190.54,81.38l-5.36,8h5.23v.91h-6.74V90L189,82.1h-4.88v-.91h6.45Z"/><path class="cls-35" d="M195.91,83.53a1.53,1.53,0,0,0-.49-1.21,1.84,1.84,0,0,0-1.31-.44,2.46,2.46,0,0,0-1.14.28,4.17,4.17,0,0,0-1,.72V82a3.26,3.26,0,0,1,1-.68,3.19,3.19,0,0,1,1.29-.24,2.76,2.76,0,0,1,1.93.66,2.26,2.26,0,0,1,.73,1.76,3.13,3.13,0,0,1-.48,1.71,5.43,5.43,0,0,1-1.52,1.51,16.17,16.17,0,0,0-1.55,1.16,2.4,2.4,0,0,0-.55.71,2,2,0,0,0-.16.82h4.53v.9H191.6v-.39a3.85,3.85,0,0,1,.21-1.36,3.21,3.21,0,0,1,.72-1.07,9.51,9.51,0,0,1,1.5-1.22,6.94,6.94,0,0,0,1.47-1.34A2.32,2.32,0,0,0,195.91,83.53Z"/><path class="cls-35" d="M283,90.26h-1.11l-1-2.58H277l-.92,2.58H275l3.49-9.07h1Zm-2.44-3.49-1.45-3.92a4.23,4.23,0,0,1-.13-.6h0a3.66,3.66,0,0,1-.15.6l-1.44,3.92Z"/><path class="cls-35" d="M290.59,81.38l-5.36,8h5.22v.91h-6.74V90L289,82.1h-4.88v-.91h6.45Z"/><path class="cls-35" d="M291.68,88.84a3.25,3.25,0,0,0,2.1.74,2.41,2.41,0,0,0,1.53-.47,1.6,1.6,0,0,0,.59-1.31c0-1.21-.86-1.82-2.57-1.82h-.75v-.83h.72c1.52,0,2.27-.57,2.27-1.7s-.57-1.58-1.73-1.58a2.91,2.91,0,0,0-1.81.66v-1a4,4,0,0,1,2.05-.52,2.72,2.72,0,0,1,1.79.59,2,2,0,0,1,.71,1.58,2.23,2.23,0,0,1-1.83,2.3v0a2.35,2.35,0,0,1,1.56.68,2,2,0,0,1,.59,1.49,2.45,2.45,0,0,1-.9,2,3.45,3.45,0,0,1-2.28.73,3.8,3.8,0,0,1-2-.48Z"/><path class="cls-35" d="M218.77,10.16h-1.11l-1-2.58h-3.89l-.92,2.58h-1.12l3.49-9.07h1Zm-2.43-3.49-1.46-3.92a4.23,4.23,0,0,1-.13-.6h0a2.34,2.34,0,0,1-.15.6l-1.43,3.92Z"/><path class="cls-35" d="M226.38,1.28l-5.36,8h5.22v.91h-6.73V9.92L224.81,2h-4.88V1.09h6.45Z"/><path class="cls-35" d="M227.47,8.74a3.27,3.27,0,0,0,2.1.74A2.39,2.39,0,0,0,231.1,9a1.6,1.6,0,0,0,.59-1.31c0-1.21-.86-1.82-2.56-1.82h-.75V5.05h.71c1.52,0,2.28-.57,2.28-1.7s-.58-1.58-1.74-1.58a2.86,2.86,0,0,0-1.8.66v-1a4,4,0,0,1,2-.52,2.69,2.69,0,0,1,1.78.59,2,2,0,0,1,.71,1.58,2.23,2.23,0,0,1-1.83,2.3v0a2.35,2.35,0,0,1,1.56.68,2,2,0,0,1,.59,1.49,2.47,2.47,0,0,1-.89,2,3.49,3.49,0,0,1-2.29.73,3.8,3.8,0,0,1-2-.48Z"/><path class="cls-35" d="M146.11,130.61h-5v4.15a1,1,0,0,1-.27.7,1,1,0,0,1-.74.28l-1.59,0-.25-.67,1.91,0a.22.22,0,0,0,.2-.11.33.33,0,0,0,.09-.22v-4.14h-5V130h5v-1.62a18.7,18.7,0,0,0,3.34-2.51h-7v-.67h8v.67a24.74,24.74,0,0,1-3.62,2.87V130h5Z"/><path class="cls-35" d="M148.94,132.82a15.48,15.48,0,0,1-.69,3l-.61-.27a13.15,13.15,0,0,0,.72-2.8Zm3-.79-.59.21a5.41,5.41,0,0,0-.18-.72c-1.24.35-2.33.61-3.27.79l-.2-.69a13.27,13.27,0,0,0,2.33-2.83c-1.08.18-1.77.29-2.06.32l-.17-.62a12.49,12.49,0,0,0,2-3.62l.6.2a14.68,14.68,0,0,1-1.72,3.31,16.49,16.49,0,0,0,1.77-.26,13.56,13.56,0,0,0,.85-1.59l.59.23a18.4,18.4,0,0,1-3.19,4.74A16.67,16.67,0,0,0,151,131a7.36,7.36,0,0,0-.33-.84l.55-.2A11.27,11.27,0,0,1,152,132Zm-1.46,3.23-.64.12a17.09,17.09,0,0,0-.34-2.59l.6-.09A16.21,16.21,0,0,1,150.49,135.26Zm1.44-.58-.59.22a11.94,11.94,0,0,0-.54-2.23l.59-.19A13.73,13.73,0,0,1,151.93,134.68Zm6.2.14a.92.92,0,0,1-.7.88,5.64,5.64,0,0,1-1.12,0l-.27-.68h.67a2,2,0,0,0,.67-.07.29.29,0,0,0,.12-.27v-8.9h-4.66v9.9h-.62V125.21h5.91Zm-1-5.91H153.2v-.6h1a9.07,9.07,0,0,0-.61-1.58l.58-.24a14.73,14.73,0,0,1,.69,1.82h.69a14.74,14.74,0,0,0,.82-1.84l.56.22a17.29,17.29,0,0,1-.68,1.62h.9Zm0,2.27h-2.62V133c0,.21.09.32.29.32H157v.58h-2.23c-.57,0-.86-.29-.86-.89v-1.85h-.69v-.6h1.92a11.23,11.23,0,0,0-.47-1.13l.6-.21a13.3,13.3,0,0,1,.53,1.34h1.36Z"/><path class="cls-35" d="M164.31,134.24a40.51,40.51,0,0,1-4.24,1.41l-.17-.65a5,5,0,0,0,.65-.19v-5.06h.61v4.87a9.17,9.17,0,0,0,1-.3v-5.5h-1.77v-3.54h3.52v3.54h-1.12v1.91h1.35v.64h-1.35v2.73a14.85,14.85,0,0,0,1.5-.58Zm-1-6v-2.29h-2.24v2.29Zm7.41,2-.4.58a14.65,14.65,0,0,1-2.8-1.41,9.93,9.93,0,0,1-3,1.45l-.42-.6A10.51,10.51,0,0,0,167,129a7,7,0,0,1-1.38-1.69,8.3,8.3,0,0,1-1,.76l-.51-.49a6.24,6.24,0,0,0,2.63-2.78l.62.2a6.89,6.89,0,0,1-.49.93H170v.58a9.12,9.12,0,0,1-1.89,2.44A11.58,11.58,0,0,0,170.7,130.22Zm-.89,5.51h-.64v-.57h-3.39v.57h-.65v-4.56h4.68Zm-.64-1.19V131.8h-3.39v2.74Zm0-8h-2.79a1.37,1.37,0,0,1-.15.18l-.13.16a4.58,4.58,0,0,0,1.44,1.7A7.09,7.09,0,0,0,169.15,126.53Z"/><path class="cls-35" d="M175.61,135.1v-9.41h2.6a2.87,2.87,0,0,1,1.87.59,1.92,1.92,0,0,1,.7,1.56,2.39,2.39,0,0,1-.41,1.38,2.27,2.27,0,0,1-1.18.86v0a2.22,2.22,0,0,1,1.49.71,2.25,2.25,0,0,1,.57,1.59,2.47,2.47,0,0,1-.85,1.95,3.1,3.1,0,0,1-2.14.75Zm1-8.45v3.09h1.13a2.11,2.11,0,0,0,1.44-.45,1.56,1.56,0,0,0,.52-1.25c0-.93-.6-1.39-1.8-1.39Zm0,4v3.45h1.51a2.23,2.23,0,0,0,1.5-.47,1.6,1.6,0,0,0,.54-1.28c0-1.13-.76-1.7-2.29-1.7Z"/><path class="cls-35" d="M45.57,130.8h-5V135a1,1,0,0,1-.27.7,1,1,0,0,1-.75.28l-1.59,0-.24-.66,1.91,0a.22.22,0,0,0,.2-.11.33.33,0,0,0,.09-.22V130.8h-5v-.66h5v-1.62A18.7,18.7,0,0,0,43.31,126h-7v-.67h8V126a24.74,24.74,0,0,1-3.62,2.87v1.26h5Z"/><path class="cls-35" d="M48.4,133a15.48,15.48,0,0,1-.69,3l-.61-.27a13.15,13.15,0,0,0,.72-2.8Zm3-.79-.59.2a5.69,5.69,0,0,0-.18-.71c-1.24.35-2.33.61-3.27.79l-.2-.7A13,13,0,0,0,49.5,129c-1.08.18-1.77.29-2.06.32l-.17-.62a12.49,12.49,0,0,0,2-3.62l.6.2a14.89,14.89,0,0,1-1.72,3.31,16.49,16.49,0,0,0,1.77-.26,15.37,15.37,0,0,0,.85-1.59l.59.23a18.4,18.4,0,0,1-3.19,4.74,18.26,18.26,0,0,0,2.3-.55,7.36,7.36,0,0,0-.33-.84l.55-.2A11.27,11.27,0,0,1,51.41,132.22ZM50,135.45l-.64.12A16.93,16.93,0,0,0,49,133l.6-.09A16.21,16.21,0,0,1,50,135.45Zm1.43-.58-.58.21a12.05,12.05,0,0,0-.54-2.22l.59-.19A12.65,12.65,0,0,1,51.38,134.87Zm6.21.14a.92.92,0,0,1-.7.88,5.64,5.64,0,0,1-1.12,0l-.27-.68h.67a2,2,0,0,0,.67-.07.29.29,0,0,0,.12-.27V126H52.3v9.89h-.62V125.4h5.91Zm-1-5.91H52.66v-.6h1a10,10,0,0,0-.61-1.58l.58-.24a16.52,16.52,0,0,1,.69,1.82H55a14.74,14.74,0,0,0,.82-1.84l.56.22a17.29,17.29,0,0,1-.68,1.62h.9Zm0,2.27H54v1.84c0,.21.09.32.29.32h2.17v.58H54.21c-.57,0-.86-.29-.86-.89v-1.85h-.69v-.6h1.92a11.23,11.23,0,0,0-.47-1.13l.6-.22c.14.31.32.76.53,1.35H56.6Z"/><path class="cls-35" d="M63.77,134.43a43,43,0,0,1-4.24,1.41l-.17-.65A5.58,5.58,0,0,0,60,135v-5.07h.61v4.88a9.17,9.17,0,0,0,1-.3V129H59.87v-3.54h3.52V129H62.27v1.91h1.35v.64H62.27v2.73a14.85,14.85,0,0,0,1.5-.58Zm-1-6V126.1H60.51v2.29Zm7.4,2-.39.58a14.65,14.65,0,0,1-2.8-1.41A9.93,9.93,0,0,1,64,131l-.42-.6a10.51,10.51,0,0,0,2.89-1.24A7,7,0,0,1,65,127.5a9.55,9.55,0,0,1-1,.76l-.51-.49A6.24,6.24,0,0,0,66.17,125l.62.2a6.89,6.89,0,0,1-.49.93h3.1v.58a8.74,8.74,0,0,1-1.89,2.44A12,12,0,0,0,70.15,130.41Zm-.88,5.51h-.64v-.57H65.24v.57h-.65v-4.56h4.68Zm-.64-1.19V132H65.24v2.74Zm0-8H65.82a1.37,1.37,0,0,1-.15.18l-.13.16a4.65,4.65,0,0,0,1.43,1.7A7.11,7.11,0,0,0,68.61,126.72Z"/><path class="cls-35" d="M82.2,135.28H81.06l-1-2.67h-4l-.94,2.67H74l3.58-9.4h1Zm-2.49-3.61-1.49-4.07a4,4,0,0,1-.14-.62h0a2.42,2.42,0,0,1-.15.62l-1.47,4.07Z"/><path class="cls-35" d="M245.79,130.61h-4.94v4.15a1,1,0,0,1-.28.7,1,1,0,0,1-.74.28l-1.59,0-.25-.67,1.91,0a.22.22,0,0,0,.2-.11.33.33,0,0,0,.09-.22v-4.14h-5.05V130h5.05v-1.62a18.7,18.7,0,0,0,3.34-2.51h-7v-.67h8v.67a25.21,25.21,0,0,1-3.61,2.87V130h4.94Z"/><path class="cls-35" d="M248.62,132.82a15.48,15.48,0,0,1-.69,3l-.61-.27a13.15,13.15,0,0,0,.72-2.8Zm3-.79-.59.21a5.41,5.41,0,0,0-.18-.72c-1.24.35-2.33.61-3.27.79l-.2-.69a13.27,13.27,0,0,0,2.33-2.83c-1.08.18-1.76.29-2.06.32l-.17-.62a12.49,12.49,0,0,0,2-3.62l.6.2a14.68,14.68,0,0,1-1.72,3.31,16.49,16.49,0,0,0,1.77-.26,13.56,13.56,0,0,0,.85-1.59l.59.23a18.4,18.4,0,0,1-3.19,4.74,16.67,16.67,0,0,0,2.3-.55,7.36,7.36,0,0,0-.33-.84l.55-.2A11.27,11.27,0,0,1,251.63,132Zm-1.46,3.23-.64.12a17,17,0,0,0-.33-2.59l.59-.09A16.21,16.21,0,0,1,250.17,135.26Zm1.44-.58-.59.22a11.94,11.94,0,0,0-.54-2.23l.59-.19A13.73,13.73,0,0,1,251.61,134.68Zm6.2.14a.92.92,0,0,1-.7.88,5.64,5.64,0,0,1-1.12,0l-.27-.68h.67a2,2,0,0,0,.68-.07.29.29,0,0,0,.12-.27v-8.9h-4.67v9.9h-.62V125.21h5.91Zm-1-5.91h-3.95v-.6h1a9.07,9.07,0,0,0-.61-1.58l.58-.24a14.73,14.73,0,0,1,.69,1.82h.69a13.41,13.41,0,0,0,.82-1.84l.56.22a17.29,17.29,0,0,1-.68,1.62h.91Zm0,2.27H254.2V133c0,.21.1.32.29.32h2.17v.58h-2.23c-.57,0-.86-.29-.86-.89v-1.85h-.69v-.6h1.92a9.28,9.28,0,0,0-.47-1.13l.61-.21c.14.3.31.75.52,1.34h1.37Z"/><path class="cls-35" d="M264,134.24a40.51,40.51,0,0,1-4.24,1.41l-.17-.65a5,5,0,0,0,.65-.19v-5.06h.61v4.87a8.06,8.06,0,0,0,1-.3v-5.5h-1.77v-3.54h3.52v3.54h-1.12v1.91h1.35v.64h-1.35v2.73a14.85,14.85,0,0,0,1.5-.58Zm-1-6v-2.29h-2.23v2.29Zm7.41,2-.39.58a14.46,14.46,0,0,1-2.81-1.41,9.93,9.93,0,0,1-3,1.45l-.42-.6a10.51,10.51,0,0,0,2.89-1.24,7,7,0,0,1-1.38-1.69,8.3,8.3,0,0,1-1,.76l-.51-.49a6.24,6.24,0,0,0,2.63-2.78l.62.2a6.89,6.89,0,0,1-.49.93h3.11v.58a9.12,9.12,0,0,1-1.89,2.44A11.58,11.58,0,0,0,270.38,130.22Zm-.89,5.51h-.64v-.57h-3.39v.57h-.65v-4.56h4.68Zm-.64-1.19V131.8h-3.39v2.74Zm0-8H266a1.37,1.37,0,0,1-.15.18l-.13.16a4.58,4.58,0,0,0,1.44,1.7A7.09,7.09,0,0,0,268.83,126.53Z"/><path class="cls-35" d="M281.59,134.69a5.21,5.21,0,0,1-2.56.56,4.07,4.07,0,0,1-3.15-1.3,4.8,4.8,0,0,1-1.2-3.38A5.13,5.13,0,0,1,276,127a4.42,4.42,0,0,1,3.41-1.43,5.28,5.28,0,0,1,2.18.39V127a4.38,4.38,0,0,0-2.21-.56,3.31,3.31,0,0,0-2.64,1.13,4.23,4.23,0,0,0-1,2.9,4,4,0,0,0,.93,2.75,3.13,3.13,0,0,0,2.48,1.06,4.58,4.58,0,0,0,2.43-.63Z"/><path class="cls-35" d="M37.73,180.92l-3.39,9.22h-1.1l-3.32-9.22H31l2.57,7.37a4.06,4.06,0,0,1,.18.81h0a3.6,3.6,0,0,1,.2-.82l2.63-7.36Z"/><path class="cls-35" d="M47.23,190.14v-6.23c0-.47,0-1.06.1-1.78h0A5.14,5.14,0,0,1,47,183l-3.18,7.14H43.4l-3.17-7.09a5.3,5.3,0,0,1-.26-.92h0c0,.33.05.92.05,1.77v6.24H39v-9.22h1.3l2.85,6.49a9.8,9.8,0,0,1,.43,1.09h0c.12-.32.26-.69.44-1.11L47,180.92h1.23v9.22Z"/><path class="cls-35" d="M73,203.28H71.9l-1-2.58H67l-.92,2.58H65l3.49-9.07h1Zm-2.43-3.49-1.46-3.92a4.23,4.23,0,0,1-.13-.6h0a2.34,2.34,0,0,1-.15.6l-1.43,3.92Z"/><path class="cls-35" d="M80.62,194.4l-5.36,8h5.22v.91H73.75V203l5.3-7.92H74.17v-.91h6.45Z"/><path class="cls-35" d="M84.26,203.28v-7.83a4.32,4.32,0,0,1-.88.6,5.32,5.32,0,0,1-1.19.47v-1.05a7.63,7.63,0,0,0,1.51-.63A7,7,0,0,0,85,194h.28v9.27Z"/><path class="cls-35" d="M74.39,180.92,71,190.14H69.91l-3.32-9.22h1.12l2.56,7.37a4.06,4.06,0,0,1,.18.81h0a3.67,3.67,0,0,1,.21-.82l2.62-7.36Z"/><path class="cls-35" d="M83.9,190.14v-6.23c0-.47,0-1.06.09-1.78h0a5.14,5.14,0,0,1-.27.87l-3.18,7.14h-.44l-3.17-7.09a5.12,5.12,0,0,1-.27-.92h0a17.29,17.29,0,0,1,.06,1.77v6.24h-1v-9.22H77l2.85,6.49a11.43,11.43,0,0,1,.42,1.09h0c.12-.32.27-.69.44-1.11l2.92-6.47H84.9v9.22Z"/><path class="cls-35" d="M136.29,203.28h-1.11l-1-2.58h-3.89l-.92,2.58h-1.11l3.49-9.07h1Zm-2.43-3.49-1.45-3.92a3.88,3.88,0,0,1-.14-.6h0a3,3,0,0,1-.14.6l-1.44,3.92Z"/><path class="cls-35" d="M143.9,194.4l-5.36,8h5.23v.91H137V203l5.3-7.92h-4.88v-.91h6.45Z"/><path class="cls-35" d="M149.27,196.56a1.54,1.54,0,0,0-.49-1.22,1.86,1.86,0,0,0-1.31-.44,2.43,2.43,0,0,0-1.14.28,4,4,0,0,0-1,.73V195a3.26,3.26,0,0,1,1-.68,3.14,3.14,0,0,1,1.28-.24,2.78,2.78,0,0,1,1.94.66,2.25,2.25,0,0,1,.72,1.76,3.12,3.12,0,0,1-.47,1.71,5.43,5.43,0,0,1-1.52,1.51,16.17,16.17,0,0,0-1.55,1.16,2.4,2.4,0,0,0-.55.71,1.88,1.88,0,0,0-.16.82h4.53v.9H145v-.39a3.85,3.85,0,0,1,.21-1.36,3.15,3.15,0,0,1,.72-1.07,9.84,9.84,0,0,1,1.49-1.22,6.79,6.79,0,0,0,1.48-1.34A2.31,2.31,0,0,0,149.27,196.56Z"/><path class="cls-35" d="M137.68,180.92l-3.39,9.22h-1.1l-3.32-9.22H131l2.56,7.37a4.85,4.85,0,0,1,.19.81h0a3.14,3.14,0,0,1,.2-.82l2.62-7.36Z"/><path class="cls-35" d="M147.18,190.14v-6.23c0-.47,0-1.06.09-1.78h0a4.15,4.15,0,0,1-.28.87l-3.17,7.14h-.45l-3.17-7.09a5.3,5.3,0,0,1-.26-.92h0c0,.33.05.92.05,1.77v6.24h-1v-9.22h1.31l2.85,6.49a9.8,9.8,0,0,1,.43,1.09h0c.11-.32.26-.69.44-1.11l2.92-6.47h1.23v9.22Z"/><path class="cls-35" d="M173.14,203.28H172l-1-2.58h-3.89l-.92,2.58h-1.11l3.49-9.07h1Zm-2.43-3.49-1.45-3.92a4.23,4.23,0,0,1-.13-.6h0a3.66,3.66,0,0,1-.15.6l-1.44,3.92Z"/><path class="cls-35" d="M180.76,194.4l-5.37,8h5.23v.91h-6.74V203l5.31-7.92H174.3v-.91h6.46Z"/><path class="cls-35" d="M186.12,196.56a1.54,1.54,0,0,0-.49-1.22,1.84,1.84,0,0,0-1.31-.44,2.46,2.46,0,0,0-1.14.28,4,4,0,0,0-1,.73V195a3.26,3.26,0,0,1,1-.68,3.23,3.23,0,0,1,1.29-.24,2.76,2.76,0,0,1,1.93.66,2.22,2.22,0,0,1,.73,1.76,3.21,3.21,0,0,1-.47,1.71,5.63,5.63,0,0,1-1.53,1.51,15.65,15.65,0,0,0-1.54,1.16,2.45,2.45,0,0,0-.56.71,2,2,0,0,0-.16.82h4.53v.9h-5.57v-.39a3.85,3.85,0,0,1,.21-1.36,3.48,3.48,0,0,1,.72-1.07,9.51,9.51,0,0,1,1.5-1.22,6.94,6.94,0,0,0,1.47-1.34A2.24,2.24,0,0,0,186.12,196.56Z"/><path class="cls-35" d="M174.53,180.92l-3.39,9.22H170l-3.32-9.22h1.12l2.57,7.37a4.06,4.06,0,0,1,.18.81h0a3.6,3.6,0,0,1,.2-.82l2.63-7.36Z"/><path class="cls-35" d="M184,190.14v-6.23c0-.47,0-1.06.1-1.78h0a5.14,5.14,0,0,1-.27.87l-3.18,7.14h-.45L177,183.05a5.3,5.3,0,0,1-.26-.92h0c0,.33,0,.92,0,1.77v6.24h-1v-9.22h1.3l2.85,6.49a9.8,9.8,0,0,1,.43,1.09h0c.12-.32.26-.69.44-1.11l2.92-6.47H185v9.22Z"/><path class="cls-35" d="M236.43,203.28h-1.11l-1-2.58h-3.89l-.92,2.58h-1.12l3.5-9.07h1ZM234,199.79l-1.46-3.92a4.23,4.23,0,0,1-.13-.6h0a2.34,2.34,0,0,1-.15.6l-1.43,3.92Z"/><path class="cls-35" d="M244,194.4l-5.36,8h5.23v.91h-6.74V203l5.3-7.92h-4.88v-.91H244Z"/><path class="cls-35" d="M245.14,201.86a3.24,3.24,0,0,0,2.09.74,2.39,2.39,0,0,0,1.53-.47,1.6,1.6,0,0,0,.59-1.31c0-1.21-.85-1.81-2.56-1.81H246v-.84h.71c1.52,0,2.28-.57,2.28-1.7s-.58-1.58-1.74-1.58a2.86,2.86,0,0,0-1.8.66v-1a3.89,3.89,0,0,1,2-.53,2.64,2.64,0,0,1,1.78.6,1.93,1.93,0,0,1,.71,1.57,2.23,2.23,0,0,1-1.82,2.3v0a2.34,2.34,0,0,1,1.55.68,2,2,0,0,1,.59,1.49,2.47,2.47,0,0,1-.89,2,3.49,3.49,0,0,1-2.29.73,3.74,3.74,0,0,1-2-.48Z"/><path class="cls-35" d="M237.81,180.92l-3.38,9.22h-1.1L230,180.92h1.12l2.56,7.37a4.06,4.06,0,0,1,.18.81h0a3.67,3.67,0,0,1,.21-.82l2.62-7.36Z"/><path class="cls-35" d="M247.32,190.14v-6.23c0-.47,0-1.06.09-1.78h0a5.14,5.14,0,0,1-.27.87l-3.17,7.14h-.45l-3.17-7.09a6.13,6.13,0,0,1-.27-.92h0a17.29,17.29,0,0,1,.06,1.77v6.24h-1v-9.22h1.31l2.85,6.49a11.43,11.43,0,0,1,.42,1.09h0q.18-.48.45-1.11l2.91-6.47h1.24v9.22Z"/><path class="cls-35" d="M273.19,203.28h-1.11l-1-2.58H267.2l-.92,2.58h-1.11l3.49-9.07h1Zm-2.44-3.49-1.45-3.92a4.23,4.23,0,0,1-.13-.6h0a2.85,2.85,0,0,1-.15.6l-1.43,3.92Z"/><path class="cls-35" d="M280.8,194.4l-5.36,8h5.22v.91h-6.74V203l5.31-7.92h-4.88v-.91h6.45Z"/><path class="cls-35" d="M281.89,201.86a3.25,3.25,0,0,0,2.1.74,2.39,2.39,0,0,0,1.53-.47,1.6,1.6,0,0,0,.59-1.31c0-1.21-.86-1.81-2.56-1.81h-.75v-.84h.71c1.52,0,2.27-.57,2.27-1.7s-.57-1.58-1.73-1.58a2.86,2.86,0,0,0-1.8.66v-1a3.86,3.86,0,0,1,2.05-.53,2.66,2.66,0,0,1,1.78.6,1.93,1.93,0,0,1,.71,1.57,2.23,2.23,0,0,1-1.83,2.3v0a2.35,2.35,0,0,1,1.56.68,2,2,0,0,1,.59,1.49,2.45,2.45,0,0,1-.9,2,3.45,3.45,0,0,1-2.28.73,3.8,3.8,0,0,1-2-.48Z"/><path class="cls-35" d="M274.57,180.92l-3.39,9.22h-1.1l-3.31-9.22h1.11l2.57,7.37a4.06,4.06,0,0,1,.18.81h0a3.67,3.67,0,0,1,.21-.82l2.62-7.36Z"/><path class="cls-35" d="M284.08,190.14v-6.23c0-.47,0-1.06.09-1.78h0a5.14,5.14,0,0,1-.27.87l-3.18,7.14h-.44l-3.17-7.09a5.12,5.12,0,0,1-.27-.92h0c0,.33.05.92.05,1.77v6.24h-1v-9.22h1.3l2.86,6.49a11.43,11.43,0,0,1,.42,1.09h0c.12-.32.27-.69.44-1.11l2.92-6.47h1.24v9.22Z"/><path class="cls-35" d="M22.72,242.47a8.65,8.65,0,0,1-.68,2.15l-.57-.2a8.09,8.09,0,0,0,.47-1.35H17.43v1l3.07-.24,0,.6-3.1.21v.53a.34.34,0,0,0,.11.25.35.35,0,0,0,.23.09H22v.58H17.59a.68.68,0,0,1-.78-.77v-.62l-2.07.15,0-.61,2.11-.14v-1H14.12v2.62A10.94,10.94,0,0,1,13,251.15l-.55-.34a8.36,8.36,0,0,0,.84-2.39,15.59,15.59,0,0,0,.2-2.74v-3.21h3.67v-2h.62v.66h4.62v.59H17.79v.77Zm.22,8.3H14.26v-.61h3.07v-1h-2.1v-2h.64v1.31h1.46v-1.84H18v3.53h1.21v-3.53h.62v1.84h1.47v-1.32h.62v2H19.78v1h3.16Z"/><path class="cls-35" d="M27.42,243.12h-1v2.07c.34-.22.6-.39.77-.52l.06.67c-.44.31-.71.5-.83.57v4.3c0,.56-.34.84-1,.84-.16,0-.37,0-.62,0l-.19-.62,1,0c.16,0,.25-.1.25-.31v-3.85c-.32.19-.69.39-1.12.61l-.21-.57c.58-.3,1-.55,1.33-.75v-2.45H24.63v-.6h1.22v-2.16h.59v2.16h1Zm3.36,4.31H29.35a3.69,3.69,0,0,1-.1.52,9.94,9.94,0,0,1,1.09,1.21l-.42.4a11.37,11.37,0,0,0-.87-1,5.55,5.55,0,0,1-1.81,2.46l-.44-.41a4.86,4.86,0,0,0,1.94-3.21H27.26v-.55h1.55c0-.35.05-.82.07-1.41h-.6a7.82,7.82,0,0,1-.7.94l-.49-.32A5.88,5.88,0,0,0,28.28,244l.52.19a3.91,3.91,0,0,1-.22.69h2v.58H29.47q0,.67-.06,1.41h1.37Zm.1-3.66H28.81a.79.79,0,0,1-.62-.25.88.88,0,0,1-.23-.62v-2.52h.59v.89h2.18v.58H28.55v1c0,.21.12.31.35.31h2Zm4.21,6.42-.11.62-.63,0a3.09,3.09,0,0,1-3-1.45,7.15,7.15,0,0,1-1.19,1.72l-.46-.38a5.41,5.41,0,0,0,1.52-4.26h.6a12.4,12.4,0,0,1-.22,2.15,2,2,0,0,0,.93,1.17v-5H31.05v-.55h2.24a10.9,10.9,0,0,0-1.86-1.76l.41-.43c.43.36.75.63,1,.82a11.26,11.26,0,0,0,1.32-1.58H31.28v-.56H34.8v.56a10.91,10.91,0,0,1-1.6,2,6.62,6.62,0,0,1,.55.65l-.31.33H35a9,9,0,0,1-.52,2.08l-.51-.26a6.61,6.61,0,0,0,.34-1.27H33.18V247h1.44v.58H33.18V250A5.37,5.37,0,0,0,35.09,250.19Z"/><path class="cls-35" d="M13.72,261.38a15,15,0,0,1-.68,2.9l-.6-.27a12.63,12.63,0,0,0,.72-2.75Zm3-.77-.57.2c-.05-.22-.11-.45-.19-.7-1.21.34-2.28.6-3.2.77l-.2-.68a12.52,12.52,0,0,0,2.29-2.77c-1.06.18-1.73.28-2,.32l-.17-.61a12.15,12.15,0,0,0,1.94-3.55l.58.19A14.16,14.16,0,0,1,13.44,257a13.36,13.36,0,0,0,1.74-.26,13.11,13.11,0,0,0,.84-1.56l.57.24a18.15,18.15,0,0,1-3.12,4.64,15.66,15.66,0,0,0,2.25-.54c-.1-.3-.21-.57-.32-.82l.54-.2A10.85,10.85,0,0,1,16.67,260.61Zm-1.43,3.17-.63.11a16.06,16.06,0,0,0-.32-2.53l.58-.1A15.89,15.89,0,0,1,15.24,263.78Zm1.41-.57-.58.21a11.3,11.3,0,0,0-.52-2.18l.57-.19A12.07,12.07,0,0,1,16.65,263.21Zm6.08.14a.87.87,0,0,1-.2.55.85.85,0,0,1-.49.31,6.58,6.58,0,0,1-1.09,0l-.27-.66h.66a1.93,1.93,0,0,0,.66-.07.29.29,0,0,0,.12-.26v-8.73H17.55v9.7h-.61v-10.3h5.79Zm-1-5.8H17.9V257h1a8.74,8.74,0,0,0-.6-1.55l.57-.23a14.1,14.1,0,0,1,.67,1.78h.68a13.64,13.64,0,0,0,.81-1.81l.55.22a14.86,14.86,0,0,1-.67,1.59h.89Zm0,2.22H19.19v1.81c0,.21.1.31.29.31H21.6v.58H19.42c-.56,0-.84-.3-.84-.88v-1.82H17.9v-.58h1.88a9.92,9.92,0,0,0-.46-1.11l.59-.21c.14.3.31.74.52,1.32h1.34Z"/><path class="cls-35" d="M28.82,262.77a38.09,38.09,0,0,1-4.15,1.39l-.17-.64a4.8,4.8,0,0,0,.64-.19v-5h.6v4.78a10.27,10.27,0,0,0,1-.29v-5.4H25V254h3.44v3.47h-1.1v1.87h1.33V260H27.35v2.68a14.82,14.82,0,0,0,1.47-.57Zm-1-5.91v-2.25H25.64v2.25Zm7.27,2-.38.57A13.85,13.85,0,0,1,32,258,10,10,0,0,1,29,259.45l-.41-.59a10.33,10.33,0,0,0,2.83-1.22A6.72,6.72,0,0,1,30.08,256a9.27,9.27,0,0,1-1,.75l-.49-.48a6.14,6.14,0,0,0,2.57-2.73l.61.19a6.18,6.18,0,0,1-.48.92h3v.57a8.56,8.56,0,0,1-1.85,2.39A11.54,11.54,0,0,0,35.09,258.83Zm-.87,5.4h-.63v-.56H30.27v.56h-.63v-4.47h4.58Zm-.63-1.16v-2.69H30.27v2.69Zm0-7.86H30.84a1.37,1.37,0,0,1-.15.18l-.13.16A4.49,4.49,0,0,0,32,257.21,6.69,6.69,0,0,0,33.57,255.21Z"/><path class="cls-35" d="M201.19,255.08l-.19.66h-4.84a5.56,5.56,0,0,1-4.68-1.95,8.19,8.19,0,0,1-.85,2.12l-.48-.47a13.26,13.26,0,0,0,1.23-5.05l.62.12a22,22,0,0,1-.32,2.36,3.51,3.51,0,0,0,1.35,1.52v-4.86h-2.76v-.62H193v-1.72h-2.49v-.65H193V245h.64v1.54h1.81v.65h-1.81v1.72h2.12v.62h-2.12v1.61h1.87v.61h-1.87v2.95a4.74,4.74,0,0,0,2,.39c.86,0,1.89,0,3.1,0S200.73,255.1,201.19,255.08Zm-.08-3.77a5.63,5.63,0,0,1-.11,1.48,1,1,0,0,1-.59.74,5.57,5.57,0,0,1-1.78.18,4.9,4.9,0,0,1-1.78-.19c-.25-.12-.37-.44-.37-1v-7h4.12v4h-3.47v3.18c0,.16.1.25.32.27a11.48,11.48,0,0,0,1.26,0,3.63,3.63,0,0,0,1.45-.14,1.12,1.12,0,0,0,.21-.29,8.57,8.57,0,0,0,.13-1.55ZM200,249V246.2h-2.82V249Z"/><path class="cls-35" d="M205,251.81a33.13,33.13,0,0,1-1.73,4l-.5-.52a30.2,30.2,0,0,0,1.63-3.83Zm.19-2.07-.42.51a22.53,22.53,0,0,0-2-1.45l.48-.47A16,16,0,0,1,205.15,249.74Zm.24-3-.49.47a16,16,0,0,0-2-1.54l.5-.48A19.18,19.18,0,0,1,205.39,246.77Zm8.3-.78h-2.94a11,11,0,0,1-.37,1.31h2.75v4.33h-2.42V255a1,1,0,0,1-.25.64,1.48,1.48,0,0,1-1.1.29l-.65,0-.18-.65c.3,0,.59,0,.86,0a1.18,1.18,0,0,0,.54-.07.26.26,0,0,0,.1-.2v-3.42H207.7V247.3h2c.1-.29.23-.73.37-1.31h-3.38v4a10.72,10.72,0,0,1-1.61,5.9l-.53-.47a7.44,7.44,0,0,0,1.07-2.33,16.57,16.57,0,0,0,.41-4.29v-3.47h7.69Zm-4.63,6.86a15,15,0,0,1-2.11,2.41l-.44-.48a15,15,0,0,0,2.05-2.42Zm3.38-3.72v-1.21h-4.07v1.21Zm0,1.9v-1.29h-4.07V251Zm1.31,3.76-.47.49a16.33,16.33,0,0,0-1.76-2.42l.5-.45A17.81,17.81,0,0,1,213.75,254.79Z"/><path class="cls-35" d="M219.7,255.69h-.63v-1.07h-2.69v1.32h-.64v-8.86h1.16a12.27,12.27,0,0,0,.89-2.15l.63.13c-.15.44-.43,1.11-.85,2h2.13Zm-.63-5.3v-2.68h-2.69v2.68Zm0,3.59v-3h-2.69v3Zm6.89-6.89q-.06,2.81-.27,5.22a12.53,12.53,0,0,1-.4,2.84,1.28,1.28,0,0,1-.51.6,2.7,2.7,0,0,1-1.2.18h-1l-.2-.64,1.1,0h.71a.57.57,0,0,0,.33-.16.85.85,0,0,0,.24-.33,9.23,9.23,0,0,0,.2-1.44c.08-.83.15-1.75.2-2.75s.09-2,.12-2.9H222a17.43,17.43,0,0,1-1.52,2.47l-.51-.36a13.53,13.53,0,0,0,2.33-4.81l.63.17c-.2.67-.43,1.3-.68,1.91Zm-2.3,5.6-.52.37a13.64,13.64,0,0,0-1.81-2.91l.53-.34A12.15,12.15,0,0,1,223.66,252.69Z"/><path class="cls-35" d="M230.38,251.93a21.84,21.84,0,0,1-1.92,4.06l-.54-.45a19.18,19.18,0,0,0,1.86-4Zm0-1.9-.46.49a11.4,11.4,0,0,0-2-1.65l.4-.52A13.19,13.19,0,0,1,230.35,250Zm.23-3.35-.44.53a12.06,12.06,0,0,0-1.85-1.73l.44-.51A15.81,15.81,0,0,1,230.58,246.68Zm1.91,4a10.83,10.83,0,0,1-.37,3.31,4.12,4.12,0,0,1-1.59,1.95l-.52-.48a3.79,3.79,0,0,0,1.29-1.34,7,7,0,0,0,.53-3.44Zm6.39-.51-.55.43a9.38,9.38,0,0,0-.75-1c-2.46.29-4.59.49-6.4.63l-.16-.65a6.82,6.82,0,0,0,2.52-2.63h-2.61v-.65h3a13.24,13.24,0,0,0,.59-1.34l.68.18c-.08.21-.25.59-.51,1.16h4v.65h-4.35a8.11,8.11,0,0,1-2.09,2.54c1.6-.1,3.21-.25,4.84-.44A9.48,9.48,0,0,0,236,248l.52-.44A14.76,14.76,0,0,1,238.88,250.18ZM234.6,256H234v-5.26h.65Zm4.23-.15h-1.66c-.63,0-.94-.29-.94-.88v-4.23h.63v4.14c0,.22.13.33.38.33h1.59Z"/><path class="cls-35" d="M251.4,255.64H240.58v-.5h5.09v-.82h-4.34v-.49h4.34V253h-4v-2.9h8.63V253h-4v.8h4.35v.49h-4.35v.82h5.09Zm-.1-6.24H240.72v-.5H251.3Zm-1-1.21H241.7v-2.87h8.64Zm-4.67,3.15v-.71h-3.36v.71Zm0,1.2v-.72h-3.36v.72Zm4-6v-.71h-7.34v.71Zm0,1.18V247h-7.34v.72Zm0,3.63v-.71h-3.36v.71Zm0,1.2v-.72h-3.36v.72Z"/><path class="cls-35" d="M264,247.72h-6.81c0,.65,0,1.38-.06,2.17h5.35a27.49,27.49,0,0,1-.22,3.4,8.35,8.35,0,0,1-.41,2,1.15,1.15,0,0,1-.55.56,4.29,4.29,0,0,1-1.56.17h-.82l-.19-.7,1.17,0a3.53,3.53,0,0,0,1.08-.09.67.67,0,0,0,.3-.34,9,9,0,0,0,.29-1.61c.12-.92.19-1.82.22-2.72h-4.73a6.91,6.91,0,0,1-3.51,5.39l-.53-.53a7.7,7.7,0,0,0,2-1.72,5.24,5.24,0,0,0,1.18-2.29,19.52,19.52,0,0,0,.25-3.67h-3.29V247h5.22a8.75,8.75,0,0,0-1.2-1.79l.63-.3a9.8,9.8,0,0,1,1.33,2.09H264Z"/><path class="cls-35" d="M276,254.93a.91.91,0,0,1-1,1h-1.74l-.24-.65h2.08a.28.28,0,0,0,.19-.09.3.3,0,0,0,.1-.19v-7.69H267V256h-.65v-9.3h2.42a8.25,8.25,0,0,0,1.05-1.73l.66.14a7.85,7.85,0,0,1-.95,1.59H276Zm-2.54-1.38h-4.68V249.1h4.68Zm-.66-.63v-3.16h-3.35v3.16Z"/><path class="cls-35" d="M192.31,270.65a8.41,8.41,0,0,1-2-5.75,8.73,8.73,0,0,1,2-5.85h.92a8.9,8.9,0,0,0-2.07,5.84,8.71,8.71,0,0,0,2.06,5.76Z"/><path class="cls-35" d="M195.53,259.05l-.2,2.95h-.72l-.2-2.95Zm2.16,0-.2,2.95h-.71l-.2-2.95Z"/><path class="cls-35" d="M210.47,265.26h-2.89a8.36,8.36,0,0,1-1.45,1.87,34.55,34.55,0,0,1,4.14,1.48l-.37.57a25.48,25.48,0,0,0-4.35-1.56,12.12,12.12,0,0,1-5.52,1.53l-.35-.66a12.86,12.86,0,0,0,5-1.13c-1.18-.29-2.3-.54-3.39-.74.5-.44,1-.9,1.46-1.36H199.6v-.61h3.73a12,12,0,0,0,1-1.11l.68.2c-.14.19-.39.49-.74.91h2.9c.06-.1.17-.32.33-.67l.66.06a4.25,4.25,0,0,1-.26.61h2.6Zm-.11-6.09h-3.55v1.24h2.86v2.92h-9.22v-2.92h2.87v-1.24h-3.54v-.64h10.58Zm-7,3.54V261h-2.21v1.69Zm3.48,2.55h-3.13a13.46,13.46,0,0,1-1,1c.88.19,1.8.42,2.76.67A7.14,7.14,0,0,0,206.8,265.26Zm-.65-4.85v-1.24H204v1.24Zm0,2.3V261H204v1.69Zm2.88,0V261h-2.22v1.69Z"/><path class="cls-35" d="M216.53,265.08a21.58,21.58,0,0,1-4,3.09l-.38-.56a20.66,20.66,0,0,0,4-3.11Zm6.5,2.51-.4.57a9.13,9.13,0,0,1-4.64-3.89v3.9a.75.75,0,0,1-.37.73,3.19,3.19,0,0,1-1.41.21l-.69,0-.28-.67c.35,0,.92,0,1.72,0a.34.34,0,0,0,.26-.12.37.37,0,0,0,.11-.24V261h-5.09v-.65h5.09v-2.1H218v2.1h5V261h-5v1.82a7.08,7.08,0,0,0,.67,1.31,13.6,13.6,0,0,0,3-2.31l.53.45a15.44,15.44,0,0,1-3.2,2.4A8.72,8.72,0,0,0,223,267.59Zm-7.47-3.78-.46.5a11.6,11.6,0,0,0-2.22-2l.45-.49A12.16,12.16,0,0,1,215.56,263.81Zm6.06-4.31-.46.5a9.92,9.92,0,0,0-1.67-1.23l.4-.5A11.27,11.27,0,0,1,221.62,259.5Z"/><path class="cls-35" d="M226,259.05l-.2,2.95h-.72l-.19-2.95Zm2.16,0L228,262h-.71l-.2-2.95Z"/><path class="cls-35" d="M229.37,270.65a8.67,8.67,0,0,0,2-5.76,8.88,8.88,0,0,0-2.07-5.84h.93a8.68,8.68,0,0,1,2.05,5.85,8.37,8.37,0,0,1-2.05,5.75Z"/><path class="cls-35" d="M192.85,285.87q-.14.57-.39,1.41l-.26.78v8.63h-.66v-6.87a18,18,0,0,1-1,1.78l-.35-.67a19,19,0,0,0,2-5.25Zm8.37,8.52h-1.81v1.27a1.11,1.11,0,0,1-.25.74q-.24.3-1.14.3a4.63,4.63,0,0,1-.71-.05L197,296a9.29,9.29,0,0,0,1,.06,1.76,1.76,0,0,0,.66-.07.21.21,0,0,0,.12-.2v-1.44h-6v-.56h6v-.74h.69v.74h1.81Zm0-1.44-.44.41c-.12-.17-.29-.38-.5-.63l-7.31.39-.1-.56,3.62-.19v-.86h-3v-3.46h3v-.86H193v-.57h3.49v-.94h.66v.94h3.71v.57h-3.71v.86h3.13v3.46h-.44A9.32,9.32,0,0,1,201.26,293Zm-4.67,2.83-.46.49a16.69,16.69,0,0,0-2.21-1.2l.45-.49A16,16,0,0,1,196.59,295.78Zm-.06-6.29v-.89h-2.35v.89Zm0,1.45V290h-2.35v.91Zm3.14-1.45v-.89h-2.48v.89Zm0,1.45V290h-2.48v.91Zm.08,1.25a4,4,0,0,0-.56-.5l.23-.18h-2.23v.81C198,292.26,198.87,292.22,199.75,292.19Z"/><path class="cls-35" d="M213.22,296.68h-.7V295.6h-8.41v1.08h-.68V286h9.79Zm-.7-1.75v-8.26h-8.41v8.26ZM210.67,293h-4.75V288.5h4.75Zm-.66-.66v-3.17h-3.43v3.17Z"/><path class="cls-35" d="M219.8,296.43h-.63v-1.08h-2.7v1.33h-.63v-8.87H217a11.82,11.82,0,0,0,.89-2.14l.62.12c-.15.44-.43,1.12-.85,2h2.14Zm-.63-5.3v-2.69h-2.7v2.69Zm0,3.59v-3h-2.7v3Zm6.89-6.89q-.08,2.81-.27,5.22a13,13,0,0,1-.4,2.83,1.33,1.33,0,0,1-.52.61,2.65,2.65,0,0,1-1.19.18c-.26,0-.59,0-1,0l-.2-.63,1.11,0c.37,0,.6,0,.71,0a.55.55,0,0,0,.32-.15.81.81,0,0,0,.25-.34,9.66,9.66,0,0,0,.19-1.43c.08-.84.15-1.75.2-2.75s.1-2,.12-2.91h-3.26a17.46,17.46,0,0,1-1.51,2.48l-.52-.37a13.24,13.24,0,0,0,2.33-4.8l.63.17c-.2.66-.43,1.3-.68,1.91Zm-2.3,5.6-.53.37a12.81,12.81,0,0,0-1.81-2.91l.54-.35A12.41,12.41,0,0,1,223.76,293.43Z"/><path class="cls-35" d="M230.48,292.67a22.14,22.14,0,0,1-1.92,4.06l-.55-.45a19.68,19.68,0,0,0,1.86-4Zm0-1.9-.45.49a11.09,11.09,0,0,0-2-1.66l.4-.51A12.72,12.72,0,0,1,230.44,290.77Zm.23-3.35-.43.52a12.92,12.92,0,0,0-1.85-1.72l.43-.52A15.88,15.88,0,0,1,230.67,287.42Zm1.92,4a10.81,10.81,0,0,1-.38,3.31,4,4,0,0,1-1.59,1.95l-.51-.48a3.8,3.8,0,0,0,1.28-1.35,6.9,6.9,0,0,0,.53-3.43Zm6.38-.51-.55.42a9.33,9.33,0,0,0-.75-1q-3.69.42-6.4.62l-.16-.65a6.73,6.73,0,0,0,2.53-2.62H231V287h3a13.64,13.64,0,0,0,.58-1.34l.68.18c-.07.21-.25.59-.51,1.16h4v.65h-4.35a8.09,8.09,0,0,1-2.08,2.54c1.6-.1,3.21-.25,4.83-.44a9.36,9.36,0,0,0-1.11-1.07l.51-.44A14.43,14.43,0,0,1,239,290.92Zm-4.27,5.77h-.65v-5.26h.65Zm4.22-.15h-1.66c-.62,0-.94-.29-.94-.88v-4.23H237v4.14c0,.22.12.33.38.33h1.58Z"/><path class="cls-35" d="M251.5,296.38H240.67v-.5h5.09v-.83h-4.34v-.48h4.34v-.8h-4v-2.9h8.62v2.9h-4v.8h4.35v.48h-4.35v.83h5.09Zm-.1-6.24H240.81v-.5H251.4Zm-1-1.21H241.8v-2.87h8.64Zm-4.68,3.15v-.71h-3.35v.71Zm0,1.2v-.72h-3.35v.72Zm4-6v-.7h-7.35v.7Zm0,1.18v-.71h-7.35v.71Zm0,3.64v-.71h-3.36v.71Zm0,1.2v-.72h-3.36v.72Z"/><path class="cls-35" d="M264.1,288.46h-6.81c0,.65,0,1.38-.07,2.17h5.35a27.2,27.2,0,0,1-.22,3.39,8.27,8.27,0,0,1-.4,2,1.22,1.22,0,0,1-.55.57,4.57,4.57,0,0,1-1.57.17H259l-.2-.7,1.17,0a3.18,3.18,0,0,0,1.09-.1.7.7,0,0,0,.3-.33,10.11,10.11,0,0,0,.29-1.61,25.49,25.49,0,0,0,.21-2.72h-4.72a6.92,6.92,0,0,1-3.51,5.39l-.54-.53a7.74,7.74,0,0,0,2.06-1.72,5.17,5.17,0,0,0,1.17-2.29,19.41,19.41,0,0,0,.26-3.67h-3.3v-.68h5.23a9.22,9.22,0,0,0-1.21-1.79l.64-.3a9.54,9.54,0,0,1,1.32,2.09h4.82Z"/><path class="cls-35" d="M276.12,295.67a.9.9,0,0,1-1,1h-1.74l-.24-.65h2.07a.3.3,0,0,0,.2-.09.28.28,0,0,0,.09-.19v-7.7h-8.41v8.66h-.65v-9.3h2.43a8.51,8.51,0,0,0,1.05-1.73l.65.14a7.79,7.79,0,0,1-.94,1.59h6.52Zm-2.54-1.38h-4.67v-4.45h4.67Zm-.65-.63v-3.17h-3.36v3.17Z"/><path class="cls-35" d="M192.4,311.39a8.41,8.41,0,0,1-2-5.75,8.73,8.73,0,0,1,2-5.85h.93a8.9,8.9,0,0,0-2.08,5.83,8.68,8.68,0,0,0,2.07,5.77Z"/><path class="cls-35" d="M195.63,299.79l-.21,2.95h-.72l-.19-2.95Zm2.15,0-.2,2.95h-.71l-.2-2.95Z"/><path class="cls-35" d="M210,309.88h-.7V308.8h-8.41v1.08h-.68V299.2H210Zm-.7-1.75v-8.26h-8.41v8.26Zm-1.85-1.94h-4.75V301.7h4.75Zm-.66-.66v-3.17h-3.43v3.17Z"/><path class="cls-35" d="M215.33,305.35a6.47,6.47,0,0,1-1,1v3.48h-.62v-3c-.25.2-.6.44-1,.73l-.45-.47a9.89,9.89,0,0,0,2.64-2.17Zm0-2.17a8.89,8.89,0,0,1-2.68,1.84l-.37-.5a9.45,9.45,0,0,0,2.56-1.67Zm7.79,6.12-.25.54a17.41,17.41,0,0,1-3.58-.68,21.8,21.8,0,0,1-3.8.76l-.3-.54a20.18,20.18,0,0,0,3.25-.54c-.49-.22-1-.48-1.6-.8a10.12,10.12,0,0,1-1.3.5l-.36-.49a11.11,11.11,0,0,0,1.14-.39,3.27,3.27,0,0,1-.56-.52l.4-.31a5.4,5.4,0,0,0,.73.59,9.1,9.1,0,0,0,1.17-.74h-1.49v-2.44c-.23.17-.54.39-.94.64l-.48-.48a5.85,5.85,0,0,0,2.17-2h-4.2v-1.87H216v-.78h-3.55v-.55h10.49v.55h-3.53v.78h2.89v1.87H218a3.09,3.09,0,0,1-.33.67h5.26v.56h-5.73c-.33.32-.52.51-.59.56h5.65v2.46H219l-.59.5h3.75v.51a9.41,9.41,0,0,1-2,1.15A18,18,0,0,0,223.1,309.3Zm-7.1-7.39v-.83h-2.24v.83Zm2.79-1.35v-.78h-2.17v.78Zm0,1.35v-.83h-2.17v.83Zm2.84,3.28v-.48h-4.44v.48Zm0,1v-.46h-4.44v.46Zm-.52,1.54h-3.53l-.15.08a11.08,11.08,0,0,0,1.85.84A10.8,10.8,0,0,0,221.11,307.69Zm.53-5.78v-.83h-2.21v.83Z"/><path class="cls-35" d="M226.09,299.79l-.2,2.95h-.72l-.2-2.95Zm2.15,0-.19,2.95h-.72l-.2-2.95Z"/><path class="cls-35" d="M229.46,311.39a8.68,8.68,0,0,0,2.06-5.77,8.81,8.81,0,0,0-2.08-5.83h.94a8.73,8.73,0,0,1,2.05,5.85,8.45,8.45,0,0,1-2.05,5.75Z"/></g></svg>