<svg xmlns="http://www.w3.org/2000/svg" xmlns:xlink="http://www.w3.org/1999/xlink" viewBox="0 0 578 261.17"><defs><style>.cls-1,.cls-2{fill:#fff;}.cls-19,.cls-2{stroke:#e6e6e6;stroke-width:0.75px;}.cls-3{fill:#3c3c41;opacity:0.08;}.cls-3,.cls-31,.cls-32,.cls-33,.cls-37,.cls-38,.cls-39,.cls-40,.cls-48,.cls-49,.cls-56,.cls-57,.cls-58{isolation:isolate;}.cls-4{fill:url(#Degradado_sin_nombre);}.cls-5{fill:#b4ec36;}.cls-6{fill:#5ea0ef;}.cls-7{fill:url(#Degradado_sin_nombre_2);}.cls-8{fill:#50e6ff;}.cls-9{fill:#c3f1ff;}.cls-10{fill:#9cebff;}.cls-11{fill:url(#Degradado_sin_nombre_3);}.cls-12{fill:url(#Degradado_sin_nombre_4);}.cls-13{fill:url(#Degradado_sin_nombre_5);}.cls-14{fill:url(#Degradado_sin_nombre_6);}.cls-15{fill:url(#Degradado_sin_nombre_7);}.cls-16{fill:url(#Degradado_sin_nombre_8);}.cls-17{fill:url(#Degradado_sin_nombre_9);}.cls-18,.cls-19,.cls-20,.cls-59{fill:none;}.cls-18,.cls-20,.cls-59{stroke:#e62323;}.cls-18,.cls-59{stroke-miterlimit:10;}.cls-18{stroke-dasharray:3 3;}.cls-20{stroke-dasharray:1.05 2.09;}.cls-21{fill:url(#Degradado_sin_nombre_10);}.cls-22{fill:url(#Degradado_sin_nombre_11);}.cls-23{fill:url(#Degradado_sin_nombre_12);}.cls-24{fill:url(#Degradado_sin_nombre_13);}.cls-25{fill:url(#Degradado_sin_nombre_14);}.cls-26{fill:url(#Degradado_sin_nombre_15);}.cls-27{fill:url(#Degradado_sin_nombre_16);}.cls-28{fill:url(#Degradado_sin_nombre_17);}.cls-29{fill:url(#Degradado_sin_nombre_18);}.cls-30{fill:url(#Degradado_sin_nombre_19);}.cls-31,.cls-32,.cls-33,.cls-37,.cls-38,.cls-39,.cls-40,.cls-48,.cls-49,.cls-56,.cls-57,.cls-58{opacity:0.5;}.cls-31{fill:url(#Degradado_sin_nombre_20);}.cls-32{fill:url(#Degradado_sin_nombre_21);}.cls-33{fill:url(#Degradado_sin_nombre_22);}.cls-34{fill:url(#Degradado_sin_nombre_23);}.cls-35{fill:url(#Degradado_sin_nombre_24);}.cls-36{fill:url(#Degradado_sin_nombre_25);}.cls-37{fill:url(#Degradado_sin_nombre_26);}.cls-38{fill:url(#Degradado_sin_nombre_27);}.cls-39{fill:url(#Degradado_sin_nombre_28);}.cls-40{fill:url(#Degradado_sin_nombre_29);}.cls-41{fill:url(#Degradado_sin_nombre_30);}.cls-42{fill:url(#Degradado_sin_nombre_31);}.cls-43{fill:url(#Degradado_sin_nombre_32);}.cls-44{fill:url(#Degradado_sin_nombre_33);}.cls-45{fill:url(#Degradado_sin_nombre_34);}.cls-46{fill:url(#Degradado_sin_nombre_35);}.cls-47{fill:url(#Degradado_sin_nombre_36);}.cls-48{fill:url(#Degradado_sin_nombre_37);}.cls-49{fill:url(#Degradado_sin_nombre_38);}.cls-50{fill:url(#Degradado_sin_nombre_39);}.cls-51{fill:url(#Degradado_sin_nombre_40);}.cls-52{fill:url(#Degradado_sin_nombre_41);}.cls-53{fill:url(#Degradado_sin_nombre_42);}.cls-54{fill:url(#Degradado_sin_nombre_43);}.cls-55{fill:url(#Degradado_sin_nombre_44);}.cls-56{fill:url(#Degradado_sin_nombre_45);}.cls-57{fill:url(#Degradado_sin_nombre_46);}.cls-58{fill:url(#Degradado_sin_nombre_47);}.cls-59{stroke-dasharray:1 2;}.cls-60{fill:#e62323;}.cls-61{fill:#e6e6e6;}.cls-62{fill:#107c10;}.cls-63{fill:#faa21d;}.cls-64{fill:url(#Degradado_sin_nombre_48);}.cls-65{fill:url(#Degradado_sin_nombre_49);}.cls-66{fill:url(#Degradado_sin_nombre_50);}.cls-67{fill:url(#Degradado_sin_nombre_51);}.cls-68{fill:url(#Degradado_sin_nombre_52);}.cls-69{fill:url(#Degradado_sin_nombre_53);}.cls-70{fill:url(#Degradado_sin_nombre_54);}.cls-71{fill:url(#Degradado_sin_nombre_55);}.cls-72{fill:url(#Degradado_sin_nombre_56);}.cls-73{fill:url(#Degradado_sin_nombre_57);}.cls-74{fill:url(#Degradado_sin_nombre_58);}.cls-75{fill:url(#Degradado_sin_nombre_59);}.cls-76{fill:url(#Degradado_sin_nombre_60);}.cls-77{fill:url(#Degradado_sin_nombre_61);}.cls-78{fill:url(#Degradado_sin_nombre_62);}.cls-79{fill:url(#Degradado_sin_nombre_63);}.cls-80{fill:url(#Degradado_sin_nombre_64);}.cls-81{fill:url(#Degradado_sin_nombre_65);}.cls-82{fill:url(#Degradado_sin_nombre_66);}.cls-83{fill:url(#Degradado_sin_nombre_67);}.cls-84{fill:url(#Degradado_sin_nombre_68);}.cls-85{fill:url(#Degradado_sin_nombre_69);}.cls-86{fill:url(#Degradado_sin_nombre_70);}.cls-87{fill:url(#Degradado_sin_nombre_71);}.cls-88{fill:url(#Degradado_sin_nombre_72);}.cls-89{fill:url(#Degradado_sin_nombre_73);}.cls-90{fill:url(#Degradado_sin_nombre_74);}.cls-91{fill:url(#Degradado_sin_nombre_75);}.cls-92{fill:url(#Degradado_sin_nombre_76);}.cls-93{fill:url(#Degradado_sin_nombre_77);}.cls-94{fill:url(#Degradado_sin_nombre_78);}.cls-95{fill:url(#Degradado_sin_nombre_79);}.cls-96{fill:url(#Degradado_sin_nombre_80);}.cls-97{fill:url(#Degradado_sin_nombre_81);}.cls-98{fill:url(#Degradado_sin_nombre_82);}.cls-99{fill:url(#Degradado_sin_nombre_83);}.cls-100{fill:url(#Degradado_sin_nombre_84);}.cls-101{fill:url(#Degradado_sin_nombre_85);}.cls-102{fill:url(#Degradado_sin_nombre_86);}.cls-103{fill:#6ebcdb;}.cls-104{fill:#5db4d7;}.cls-105{fill:#86d633;}.cls-106{fill:#1e1e1e;}.cls-107{fill:#3b3b3b;}</style><linearGradient id="Degradado_sin_nombre" x1="36.12" y1="280.98" x2="36.12" y2="241.57" gradientTransform="translate(0 -232.33)" gradientUnits="userSpaceOnUse"><stop offset="0" stop-color="#5e9624"/><stop offset="0.02" stop-color="#5f9724"/><stop offset="1" stop-color="#76bc2d"/></linearGradient><linearGradient id="Degradado_sin_nombre_2" x1="85.83" y1="439.45" x2="85.83" y2="427.9" gradientTransform="translate(0 -232.33)" gradientUnits="userSpaceOnUse"><stop offset="0" stop-color="#0078d4"/><stop offset="0.82" stop-color="#5ea0ef"/></linearGradient><linearGradient id="Degradado_sin_nombre_3" x1="85.83" y1="443.9" x2="85.83" y2="439.44" gradientTransform="translate(0 -232.33)" gradientUnits="userSpaceOnUse"><stop offset="0.15" stop-color="#ccc"/><stop offset="1" stop-color="#707070"/></linearGradient><linearGradient id="Degradado_sin_nombre_4" x1="142.21" y1="439.45" x2="142.21" y2="427.9" xlink:href="#Degradado_sin_nombre_2"/><linearGradient id="Degradado_sin_nombre_5" x1="142.21" y1="443.9" x2="142.21" y2="439.44" xlink:href="#Degradado_sin_nombre_3"/><linearGradient id="Degradado_sin_nombre_6" x1="197.38" y1="439.45" x2="197.38" y2="427.9" xlink:href="#Degradado_sin_nombre_2"/><linearGradient id="Degradado_sin_nombre_7" x1="197.38" y1="443.9" x2="197.38" y2="439.44" xlink:href="#Degradado_sin_nombre_3"/><linearGradient id="Degradado_sin_nombre_8" x1="252.4" y1="439.45" x2="252.4" y2="427.9" xlink:href="#Degradado_sin_nombre_2"/><linearGradient id="Degradado_sin_nombre_9" x1="252.4" y1="443.9" x2="252.4" y2="439.44" xlink:href="#Degradado_sin_nombre_3"/><linearGradient id="Degradado_sin_nombre_10" x1="81.17" y1="121.49" x2="81.17" y2="131.49" gradientTransform="matrix(1, 0, 0, -1, 0, 262.66)" gradientUnits="userSpaceOnUse"><stop offset="0" stop-color="#0078d4"/><stop offset="0.16" stop-color="#1380da"/><stop offset="0.53" stop-color="#3c91e5"/><stop offset="0.82" stop-color="#559cec"/><stop offset="1" stop-color="#5ea0ef"/></linearGradient><linearGradient id="Degradado_sin_nombre_11" x1="96.17" y1="121.49" x2="96.17" y2="131.49" xlink:href="#Degradado_sin_nombre_10"/><linearGradient id="Degradado_sin_nombre_12" x1="111.17" y1="121.49" x2="111.17" y2="131.49" xlink:href="#Degradado_sin_nombre_10"/><linearGradient id="Degradado_sin_nombre_13" x1="81.17" y1="106.49" x2="81.17" y2="116.49" xlink:href="#Degradado_sin_nombre_10"/><linearGradient id="Degradado_sin_nombre_14" x1="17.66" y1="8.99" x2="17.66" y2="18.99" xlink:href="#Degradado_sin_nombre_10"/><linearGradient id="Degradado_sin_nombre_15" x1="96.17" y1="106.49" x2="96.17" y2="116.49" xlink:href="#Degradado_sin_nombre_10"/><linearGradient id="Degradado_sin_nombre_16" x1="111.17" y1="106.49" x2="111.17" y2="116.49" xlink:href="#Degradado_sin_nombre_10"/><linearGradient id="Degradado_sin_nombre_17" x1="81.17" y1="136.49" x2="81.17" y2="146.49" xlink:href="#Degradado_sin_nombre_10"/><linearGradient id="Degradado_sin_nombre_18" x1="96.17" y1="136.49" x2="96.17" y2="146.49" xlink:href="#Degradado_sin_nombre_10"/><linearGradient id="Degradado_sin_nombre_19" x1="111.17" y1="136.49" x2="111.17" y2="146.49" xlink:href="#Degradado_sin_nombre_10"/><linearGradient id="Degradado_sin_nombre_20" x1="136.17" y1="121.49" x2="136.17" y2="131.49" xlink:href="#Degradado_sin_nombre_10"/><linearGradient id="Degradado_sin_nombre_21" x1="151.17" y1="121.49" x2="151.17" y2="131.49" xlink:href="#Degradado_sin_nombre_10"/><linearGradient id="Degradado_sin_nombre_22" x1="166.17" y1="121.49" x2="166.17" y2="131.49" xlink:href="#Degradado_sin_nombre_10"/><linearGradient id="Degradado_sin_nombre_23" x1="136.17" y1="106.49" x2="136.17" y2="116.49" xlink:href="#Degradado_sin_nombre_10"/><linearGradient id="Degradado_sin_nombre_24" x1="151.17" y1="106.49" x2="151.17" y2="116.49" xlink:href="#Degradado_sin_nombre_10"/><linearGradient id="Degradado_sin_nombre_25" x1="166.17" y1="106.49" x2="166.17" y2="116.49" xlink:href="#Degradado_sin_nombre_10"/><linearGradient id="Degradado_sin_nombre_26" x1="136.17" y1="136.49" x2="136.17" y2="146.49" xlink:href="#Degradado_sin_nombre_10"/><linearGradient id="Degradado_sin_nombre_27" x1="17.66" y1="23.99" x2="17.66" y2="33.99" xlink:href="#Degradado_sin_nombre_10"/><linearGradient id="Degradado_sin_nombre_28" x1="151.17" y1="136.49" x2="151.17" y2="146.49" xlink:href="#Degradado_sin_nombre_10"/><linearGradient id="Degradado_sin_nombre_29" x1="166.17" y1="136.49" x2="166.17" y2="146.49" xlink:href="#Degradado_sin_nombre_10"/><linearGradient id="Degradado_sin_nombre_30" x1="191.17" y1="121.49" x2="191.17" y2="131.49" xlink:href="#Degradado_sin_nombre_10"/><linearGradient id="Degradado_sin_nombre_31" x1="206.17" y1="121.49" x2="206.17" y2="131.49" xlink:href="#Degradado_sin_nombre_10"/><linearGradient id="Degradado_sin_nombre_32" x1="221.17" y1="121.49" x2="221.17" y2="131.49" xlink:href="#Degradado_sin_nombre_10"/><linearGradient id="Degradado_sin_nombre_33" x1="191.17" y1="106.49" x2="191.17" y2="116.49" xlink:href="#Degradado_sin_nombre_10"/><linearGradient id="Degradado_sin_nombre_34" x1="206.17" y1="106.49" x2="206.17" y2="116.49" xlink:href="#Degradado_sin_nombre_10"/><linearGradient id="Degradado_sin_nombre_35" x1="221.17" y1="106.49" x2="221.17" y2="116.49" xlink:href="#Degradado_sin_nombre_10"/><linearGradient id="Degradado_sin_nombre_36" x1="191.17" y1="136.49" x2="191.17" y2="146.49" xlink:href="#Degradado_sin_nombre_10"/><linearGradient id="Degradado_sin_nombre_37" x1="206.17" y1="136.49" x2="206.17" y2="146.49" xlink:href="#Degradado_sin_nombre_10"/><linearGradient id="Degradado_sin_nombre_38" x1="221.17" y1="136.49" x2="221.17" y2="146.49" xlink:href="#Degradado_sin_nombre_10"/><linearGradient id="Degradado_sin_nombre_39" x1="246.17" y1="121.49" x2="246.17" y2="131.49" xlink:href="#Degradado_sin_nombre_10"/><linearGradient id="Degradado_sin_nombre_40" x1="261.17" y1="121.49" x2="261.17" y2="131.49" xlink:href="#Degradado_sin_nombre_10"/><linearGradient id="Degradado_sin_nombre_41" x1="276.17" y1="121.49" x2="276.17" y2="131.49" xlink:href="#Degradado_sin_nombre_10"/><linearGradient id="Degradado_sin_nombre_42" x1="246.17" y1="106.49" x2="246.17" y2="116.49" xlink:href="#Degradado_sin_nombre_10"/><linearGradient id="Degradado_sin_nombre_43" x1="261.17" y1="106.49" x2="261.17" y2="116.49" xlink:href="#Degradado_sin_nombre_10"/><linearGradient id="Degradado_sin_nombre_44" x1="276.17" y1="106.49" x2="276.17" y2="116.49" xlink:href="#Degradado_sin_nombre_10"/><linearGradient id="Degradado_sin_nombre_45" x1="246.17" y1="136.49" x2="246.17" y2="146.49" xlink:href="#Degradado_sin_nombre_10"/><linearGradient id="Degradado_sin_nombre_46" x1="261.17" y1="136.49" x2="261.17" y2="146.49" xlink:href="#Degradado_sin_nombre_10"/><linearGradient id="Degradado_sin_nombre_47" x1="276.17" y1="136.49" x2="276.17" y2="146.49" xlink:href="#Degradado_sin_nombre_10"/><linearGradient id="Degradado_sin_nombre_48" x1="308.33" y1="439.45" x2="308.33" y2="427.9" xlink:href="#Degradado_sin_nombre_2"/><linearGradient id="Degradado_sin_nombre_49" x1="308.33" y1="443.9" x2="308.33" y2="439.44" xlink:href="#Degradado_sin_nombre_3"/><linearGradient id="Degradado_sin_nombre_50" x1="364.71" y1="439.45" x2="364.71" y2="427.9" xlink:href="#Degradado_sin_nombre_2"/><linearGradient id="Degradado_sin_nombre_51" x1="364.69" y1="443.9" x2="364.69" y2="439.44" xlink:href="#Degradado_sin_nombre_3"/><linearGradient id="Degradado_sin_nombre_52" x1="419.88" y1="439.45" x2="419.88" y2="427.9" xlink:href="#Degradado_sin_nombre_2"/><linearGradient id="Degradado_sin_nombre_53" x1="419.88" y1="443.9" x2="419.88" y2="439.44" xlink:href="#Degradado_sin_nombre_3"/><linearGradient id="Degradado_sin_nombre_54" x1="474.9" y1="439.45" x2="474.9" y2="427.9" xlink:href="#Degradado_sin_nombre_2"/><linearGradient id="Degradado_sin_nombre_55" x1="474.9" y1="443.9" x2="474.9" y2="439.44" xlink:href="#Degradado_sin_nombre_3"/><linearGradient id="Degradado_sin_nombre_56" x1="303.67" y1="121.49" x2="303.67" y2="131.49" xlink:href="#Degradado_sin_nombre_10"/><linearGradient id="Degradado_sin_nombre_57" x1="318.67" y1="121.49" x2="318.67" y2="131.49" xlink:href="#Degradado_sin_nombre_10"/><linearGradient id="Degradado_sin_nombre_58" x1="333.67" y1="121.49" x2="333.67" y2="131.49" xlink:href="#Degradado_sin_nombre_10"/><linearGradient id="Degradado_sin_nombre_59" x1="303.67" y1="106.49" x2="303.67" y2="116.49" xlink:href="#Degradado_sin_nombre_10"/><linearGradient id="Degradado_sin_nombre_60" x1="318.67" y1="106.49" x2="318.67" y2="116.49" xlink:href="#Degradado_sin_nombre_10"/><linearGradient id="Degradado_sin_nombre_61" x1="333.67" y1="106.49" x2="333.67" y2="116.49" xlink:href="#Degradado_sin_nombre_10"/><linearGradient id="Degradado_sin_nombre_62" x1="303.67" y1="136.49" x2="303.67" y2="146.49" xlink:href="#Degradado_sin_nombre_10"/><linearGradient id="Degradado_sin_nombre_63" x1="318.67" y1="136.49" x2="318.67" y2="146.49" xlink:href="#Degradado_sin_nombre_10"/><linearGradient id="Degradado_sin_nombre_64" x1="333.67" y1="136.49" x2="333.67" y2="146.49" xlink:href="#Degradado_sin_nombre_10"/><linearGradient id="Degradado_sin_nombre_65" x1="303.67" y1="151.49" x2="303.67" y2="161.49" xlink:href="#Degradado_sin_nombre_10"/><linearGradient id="Degradado_sin_nombre_66" x1="318.67" y1="151.49" x2="318.67" y2="161.49" xlink:href="#Degradado_sin_nombre_10"/><linearGradient id="Degradado_sin_nombre_67" x1="333.67" y1="151.49" x2="333.67" y2="161.49" xlink:href="#Degradado_sin_nombre_10"/><linearGradient id="Degradado_sin_nombre_68" x1="303.67" y1="166.49" x2="303.67" y2="176.49" xlink:href="#Degradado_sin_nombre_10"/><linearGradient id="Degradado_sin_nombre_69" x1="318.67" y1="166.49" x2="318.67" y2="176.49" xlink:href="#Degradado_sin_nombre_10"/><linearGradient id="Degradado_sin_nombre_70" x1="333.67" y1="166.49" x2="333.67" y2="176.49" xlink:href="#Degradado_sin_nombre_10"/><linearGradient id="Degradado_sin_nombre_71" x1="358.67" y1="106.49" x2="358.67" y2="116.49" xlink:href="#Degradado_sin_nombre_10"/><linearGradient id="Degradado_sin_nombre_72" x1="373.67" y1="106.49" x2="373.67" y2="116.49" xlink:href="#Degradado_sin_nombre_10"/><linearGradient id="Degradado_sin_nombre_73" x1="388.67" y1="106.49" x2="388.67" y2="116.49" xlink:href="#Degradado_sin_nombre_10"/><linearGradient id="Degradado_sin_nombre_74" x1="413.67" y1="121.49" x2="413.67" y2="131.49" xlink:href="#Degradado_sin_nombre_10"/><linearGradient id="Degradado_sin_nombre_75" x1="428.67" y1="121.49" x2="428.67" y2="131.49" xlink:href="#Degradado_sin_nombre_10"/><linearGradient id="Degradado_sin_nombre_76" x1="443.67" y1="121.49" x2="443.67" y2="131.49" xlink:href="#Degradado_sin_nombre_10"/><linearGradient id="Degradado_sin_nombre_77" x1="413.67" y1="106.49" x2="413.67" y2="116.49" xlink:href="#Degradado_sin_nombre_10"/><linearGradient id="Degradado_sin_nombre_78" x1="428.67" y1="106.49" x2="428.67" y2="116.49" xlink:href="#Degradado_sin_nombre_10"/><linearGradient id="Degradado_sin_nombre_79" x1="443.67" y1="106.49" x2="443.67" y2="116.49" xlink:href="#Degradado_sin_nombre_10"/><linearGradient id="Degradado_sin_nombre_80" x1="413.67" y1="136.49" x2="413.67" y2="146.49" xlink:href="#Degradado_sin_nombre_10"/><linearGradient id="Degradado_sin_nombre_81" x1="468.67" y1="121.49" x2="468.67" y2="131.49" xlink:href="#Degradado_sin_nombre_10"/><linearGradient id="Degradado_sin_nombre_82" x1="483.67" y1="121.49" x2="483.67" y2="131.49" xlink:href="#Degradado_sin_nombre_10"/><linearGradient id="Degradado_sin_nombre_83" x1="498.67" y1="121.49" x2="498.67" y2="131.49" xlink:href="#Degradado_sin_nombre_10"/><linearGradient id="Degradado_sin_nombre_84" x1="468.67" y1="106.49" x2="468.67" y2="116.49" xlink:href="#Degradado_sin_nombre_10"/><linearGradient id="Degradado_sin_nombre_85" x1="483.67" y1="106.49" x2="483.67" y2="116.49" xlink:href="#Degradado_sin_nombre_10"/><linearGradient id="Degradado_sin_nombre_86" x1="498.67" y1="106.49" x2="498.67" y2="116.49" xlink:href="#Degradado_sin_nombre_10"/></defs><title>OJ104903187</title><g id="Target"><g id="Shapes"><rect class="cls-1" width="578" height="261.17"/><rect class="cls-2" x="291.17" y="1.17" width="285.67" height="220"/><rect class="cls-2" x="1.17" y="1.17" width="285" height="220"/><rect class="cls-1" x="291.83" y="1.17" width="285" height="55"/><rect class="cls-3" x="291.83" y="1.17" width="285" height="55"/><rect class="cls-1" x="1.17" y="1.17" width="285" height="55"/><rect class="cls-3" x="1.17" y="1.17" width="285" height="55"/><path class="cls-4" d="M19.47,27.35,35.31,11.51a1.15,1.15,0,0,1,1.61,0h0L52.78,27.35a1.15,1.15,0,0,1,0,1.61h0L36.92,44.84a1.14,1.14,0,0,1-1.59,0L19.47,29a1.13,1.13,0,0,1,0-1.6h0Z"/><path class="cls-5" d="M40.28,18.72l-4-4a.23.23,0,0,0-.31,0l-4,4a.19.19,0,0,0,0,.27.18.18,0,0,0,.19.07h2.34a.21.21,0,0,1,.21.21v3.78a.21.21,0,0,0,.21.21h2.49a.21.21,0,0,0,.21-.21V19.27a.21.21,0,0,1,.21-.21h2.34a.19.19,0,0,0,.23-.13A.2.2,0,0,0,40.28,18.72Z"/><path class="cls-5" d="M26.68,23.65l-4,4a.19.19,0,0,0,0,.27h0l4,4a.22.22,0,0,0,.3,0h0a.23.23,0,0,0,.06-.16v-2.3a.23.23,0,0,1,.21-.21H31a.2.2,0,0,0,.19-.19h0V26.56a.2.2,0,0,0-.07-.26H27.31a.19.19,0,0,1-.21-.17h0V23.8a.22.22,0,0,0-.13-.28A.23.23,0,0,0,26.68,23.65Z"/><path class="cls-5" d="M45.72,31.94l4-4a.19.19,0,0,0,0-.27h0l-4-4a.22.22,0,0,0-.3,0,.28.28,0,0,0,0,.12v2.36a.18.18,0,0,1-.17.19H41.4a.2.2,0,0,0-.19.19v2.51a.19.19,0,0,0,.17.21h3.79a.21.21,0,0,1,.21.21v2.34a.2.2,0,0,0,.22.18h0A.17.17,0,0,0,45.72,31.94Z"/><path class="cls-1" d="M41.4,28.17a5.27,5.27,0,1,0-6.69,5V35a3.23,3.23,0,1,0,4.35,1.39h0A3.33,3.33,0,0,0,37.67,35V33.11A5.24,5.24,0,0,0,41.4,28.17Z"/><circle id="e99c3387-15c3-4f28-bd4b-cb209b430e06" class="cls-6" cx="36.14" cy="28.15" r="3.06"/><rect class="cls-7" x="77.17" y="195.57" width="17.32" height="11.55" rx="0.58"/><polygon class="cls-8" points="88.71 199.66 88.71 203.02 85.83 204.71 85.83 201.34 88.71 199.66"/><polygon class="cls-9" points="88.71 199.66 85.83 201.35 82.94 199.66 85.83 197.98 88.71 199.66"/><polygon class="cls-10" points="85.83 201.35 85.83 204.71 82.94 203.02 82.94 199.66 85.83 201.35"/><polygon class="cls-9" points="82.94 203.02 85.83 201.34 85.83 204.71 82.94 203.02"/><polygon class="cls-10" points="88.71 203.02 85.83 201.34 85.83 204.71 88.71 203.02"/><path class="cls-11" d="M89.3,210.61c-1.71-.27-1.78-1.5-1.78-3.49h-3.4c0,2-.05,3.22-1.77,3.49a1,1,0,0,0-.85,1h8.66A1,1,0,0,0,89.3,210.61Z"/><rect class="cls-12" x="133.55" y="195.57" width="17.32" height="11.55" rx="0.58"/><polygon class="cls-8" points="145.09 199.66 145.09 203.02 142.21 204.71 142.21 201.34 145.09 199.66"/><polygon class="cls-9" points="145.09 199.66 142.21 201.35 139.32 199.66 142.21 197.98 145.09 199.66"/><polygon class="cls-10" points="142.21 201.35 142.21 204.71 139.32 203.02 139.32 199.66 142.21 201.35"/><polygon class="cls-9" points="139.32 203.02 142.21 201.34 142.21 204.71 139.32 203.02"/><polygon class="cls-10" points="145.09 203.02 142.21 201.34 142.21 204.71 145.09 203.02"/><path class="cls-13" d="M145.68,210.61c-1.71-.27-1.78-1.5-1.78-3.49h-3.39c0,2-.06,3.22-1.77,3.49a1,1,0,0,0-.86,1h8.66A1,1,0,0,0,145.68,210.61Z"/><rect class="cls-14" x="188.72" y="195.57" width="17.32" height="11.55" rx="0.58"/><polygon class="cls-8" points="200.26 199.66 200.26 203.02 197.38 204.71 197.38 201.34 200.26 199.66"/><polygon class="cls-9" points="200.26 199.66 197.38 201.35 194.49 199.66 197.38 197.98 200.26 199.66"/><polygon class="cls-10" points="197.38 201.35 197.38 204.71 194.49 203.02 194.49 199.66 197.38 201.35"/><polygon class="cls-9" points="194.49 203.02 197.38 201.34 197.38 204.71 194.49 203.02"/><polygon class="cls-10" points="200.26 203.02 197.38 201.34 197.38 204.71 200.26 203.02"/><path class="cls-15" d="M200.85,210.61c-1.71-.27-1.78-1.5-1.78-3.49h-3.4c0,2-.06,3.22-1.77,3.49a1,1,0,0,0-.85,1h8.65A1,1,0,0,0,200.85,210.61Z"/><rect class="cls-16" x="243.74" y="195.57" width="17.32" height="11.55" rx="0.58"/><polygon class="cls-8" points="255.28 199.66 255.28 203.02 252.4 204.71 252.4 201.34 255.28 199.66"/><polygon class="cls-9" points="255.28 199.66 252.4 201.35 249.51 199.66 252.4 197.98 255.28 199.66"/><polygon class="cls-10" points="252.4 201.35 252.4 204.71 249.51 203.02 249.51 199.66 252.4 201.35"/><polygon class="cls-9" points="249.51 203.02 252.4 201.34 252.4 204.71 249.51 203.02"/><polygon class="cls-10" points="255.28 203.02 252.4 201.34 252.4 204.71 255.28 203.02"/><path class="cls-17" d="M255.87,210.61c-1.71-.27-1.78-1.5-1.78-3.49h-3.4c0,2-.05,3.22-1.77,3.49a1,1,0,0,0-.85,1h8.66A1,1,0,0,0,255.87,210.61Z"/><line class="cls-18" x1="1.17" y1="106.17" x2="285.42" y2="106.17"/><line class="cls-19" x1="1.17" y1="166.17" x2="286.17" y2="166.17"/><circle class="cls-1" cx="81.17" cy="88.67" r="5"/><circle class="cls-20" cx="81.17" cy="88.67" r="5"/><circle class="cls-1" cx="96.17" cy="88.67" r="5"/><circle class="cls-20" cx="96.17" cy="88.67" r="5"/><circle class="cls-1" cx="111.17" cy="88.67" r="5"/><circle class="cls-20" cx="111.17" cy="88.67" r="5"/><circle class="cls-1" cx="81.17" cy="73.67" r="5"/><circle class="cls-20" cx="81.17" cy="73.67" r="5"/><circle class="cls-1" cx="231.17" cy="233.67" r="5"/><circle class="cls-20" cx="231.17" cy="233.67" r="5"/><circle class="cls-1" cx="96.17" cy="73.67" r="5"/><circle class="cls-20" cx="96.17" cy="73.67" r="5"/><circle class="cls-1" cx="111.17" cy="73.67" r="5"/><circle class="cls-20" cx="111.17" cy="73.67" r="5"/><circle class="cls-21" cx="81.17" cy="136.17" r="5"/><circle class="cls-22" cx="96.17" cy="136.17" r="5"/><circle class="cls-23" cx="111.17" cy="136.17" r="5"/><circle class="cls-24" cx="81.17" cy="151.17" r="5"/><circle class="cls-25" cx="17.66" cy="248.67" r="5"/><circle class="cls-26" cx="96.17" cy="151.17" r="5"/><circle class="cls-27" cx="111.17" cy="151.17" r="5"/><circle class="cls-28" cx="81.17" cy="121.17" r="5"/><circle class="cls-29" cx="96.17" cy="121.17" r="5"/><circle class="cls-30" cx="111.17" cy="121.17" r="5"/><circle class="cls-31" cx="136.17" cy="136.17" r="5"/><circle class="cls-32" cx="151.17" cy="136.17" r="5"/><circle class="cls-33" cx="166.17" cy="136.17" r="5"/><circle class="cls-34" cx="136.17" cy="151.17" r="5"/><circle class="cls-35" cx="151.17" cy="151.17" r="5"/><circle class="cls-36" cx="166.17" cy="151.17" r="5"/><circle class="cls-37" cx="136.17" cy="121.17" r="5"/><circle class="cls-38" cx="17.66" cy="233.67" r="5"/><circle class="cls-39" cx="151.17" cy="121.17" r="5"/><circle class="cls-40" cx="166.17" cy="121.17" r="5"/><circle class="cls-41" cx="191.17" cy="136.17" r="5"/><circle class="cls-42" cx="206.17" cy="136.17" r="5"/><circle class="cls-43" cx="221.17" cy="136.17" r="5"/><circle class="cls-44" cx="191.17" cy="151.17" r="5"/><circle class="cls-45" cx="206.17" cy="151.17" r="5"/><circle class="cls-46" cx="221.17" cy="151.17" r="5"/><circle class="cls-47" cx="191.17" cy="121.17" r="5"/><circle class="cls-48" cx="206.17" cy="121.17" r="5"/><circle class="cls-49" cx="221.17" cy="121.17" r="5"/><circle class="cls-50" cx="246.17" cy="136.17" r="5"/><circle class="cls-51" cx="261.17" cy="136.17" r="5"/><circle class="cls-52" cx="276.17" cy="136.17" r="5"/><circle class="cls-53" cx="246.17" cy="151.17" r="5"/><circle class="cls-54" cx="261.17" cy="151.17" r="5"/><circle class="cls-55" cx="276.17" cy="151.17" r="5"/><circle class="cls-56" cx="246.17" cy="121.17" r="5"/><circle class="cls-57" cx="261.17" cy="121.17" r="5"/><circle class="cls-58" cx="276.17" cy="121.17" r="5"/><line class="cls-59" x1="141.17" y1="73.67" x2="121.17" y2="73.67"/><rect class="cls-60" x="76.53" y="176.17" width="40" height="10"/><rect class="cls-61" x="131.72" y="176.17" width="40" height="10"/><rect class="cls-62" x="131.72" y="176.17" width="10" height="10"/><rect class="cls-61" x="186.72" y="176.17" width="40" height="10"/><rect class="cls-63" x="186.72" y="176.17" width="25" height="10"/><rect class="cls-61" x="241.72" y="176.17" width="40" height="10"/><rect class="cls-62" x="241.72" y="176.17" width="25" height="10"/><line class="cls-19" x1="71.17" y1="56.17" x2="71.17" y2="221.17"/><line class="cls-19" x1="125.04" y1="106.17" x2="125.04" y2="221.17"/><line class="cls-19" x1="178.92" y1="106.17" x2="178.92" y2="221.17"/><line class="cls-19" x1="232.79" y1="106.17" x2="232.79" y2="221.17"/><rect class="cls-64" x="299.67" y="195.57" width="17.32" height="11.55" rx="0.58"/><polygon class="cls-8" points="311.21 199.66 311.21 203.02 308.33 204.71 308.33 201.34 311.21 199.66"/><polygon class="cls-9" points="311.21 199.66 308.33 201.35 305.44 199.66 308.33 197.98 311.21 199.66"/><polygon class="cls-10" points="308.33 201.35 308.33 204.71 305.44 203.02 305.44 199.66 308.33 201.35"/><polygon class="cls-9" points="305.44 203.02 308.33 201.34 308.33 204.71 305.44 203.02"/><polygon class="cls-10" points="311.21 203.02 308.33 201.34 308.33 204.71 311.21 203.02"/><path class="cls-65" d="M311.8,210.61c-1.71-.27-1.78-1.5-1.78-3.49h-3.4c0,2-.05,3.22-1.77,3.49a1,1,0,0,0-.85,1h8.66A1,1,0,0,0,311.8,210.61Z"/><rect class="cls-66" x="356.05" y="195.57" width="17.32" height="11.55" rx="0.58"/><polygon class="cls-8" points="367.6 199.66 367.6 203.02 364.71 204.71 364.71 201.34 367.6 199.66"/><polygon class="cls-9" points="367.6 199.66 364.71 201.35 361.82 199.66 364.71 197.98 367.6 199.66"/><polygon class="cls-10" points="364.71 201.35 364.71 204.71 361.82 203.02 361.82 199.66 364.71 201.35"/><polygon class="cls-9" points="361.82 203.02 364.71 201.34 364.71 204.71 361.82 203.02"/><polygon class="cls-10" points="367.6 203.02 364.71 201.34 364.71 204.71 367.6 203.02"/><path class="cls-67" d="M368.18,210.61c-1.71-.27-1.78-1.5-1.78-3.49H363c0,2-.06,3.22-1.77,3.49a1,1,0,0,0-.86,1H369A1,1,0,0,0,368.18,210.61Z"/><rect class="cls-68" x="411.22" y="195.57" width="17.32" height="11.55" rx="0.58"/><polygon class="cls-8" points="422.76 199.66 422.76 203.02 419.88 204.71 419.88 201.34 422.76 199.66"/><polygon class="cls-9" points="422.76 199.66 419.88 201.35 416.99 199.66 419.88 197.98 422.76 199.66"/><polygon class="cls-10" points="419.88 201.35 419.88 204.71 416.99 203.02 416.99 199.66 419.88 201.35"/><polygon class="cls-9" points="416.99 203.02 419.88 201.34 419.88 204.71 416.99 203.02"/><polygon class="cls-10" points="422.76 203.02 419.88 201.34 419.88 204.71 422.76 203.02"/><path class="cls-69" d="M423.35,210.61c-1.71-.27-1.78-1.5-1.78-3.49h-3.4c0,2-.06,3.22-1.77,3.49a1,1,0,0,0-.85,1h8.65A1,1,0,0,0,423.35,210.61Z"/><rect class="cls-70" x="466.24" y="195.57" width="17.32" height="11.55" rx="0.58"/><polygon class="cls-8" points="477.78 199.66 477.78 203.02 474.9 204.71 474.9 201.34 477.78 199.66"/><polygon class="cls-9" points="477.78 199.66 474.9 201.35 472.01 199.66 474.9 197.98 477.78 199.66"/><polygon class="cls-10" points="474.9 201.35 474.9 204.71 472.01 203.02 472.01 199.66 474.9 201.35"/><polygon class="cls-9" points="472.01 203.02 474.9 201.34 474.9 204.71 472.01 203.02"/><polygon class="cls-10" points="477.78 203.02 474.9 201.34 474.9 204.71 477.78 203.02"/><path class="cls-71" d="M478.37,210.61c-1.71-.27-1.78-1.5-1.78-3.49h-3.4c0,2-.05,3.22-1.77,3.49a1,1,0,0,0-.85,1h8.66A1,1,0,0,0,478.37,210.61Z"/><line class="cls-19" x1="291.17" y1="166.17" x2="576.83" y2="166.17"/><circle class="cls-72" cx="303.67" cy="136.17" r="5"/><circle class="cls-73" cx="318.67" cy="136.17" r="5"/><circle class="cls-74" cx="333.67" cy="136.17" r="5"/><circle class="cls-75" cx="303.67" cy="151.17" r="5"/><circle class="cls-76" cx="318.67" cy="151.17" r="5"/><circle class="cls-77" cx="333.67" cy="151.17" r="5"/><circle class="cls-78" cx="303.67" cy="121.17" r="5"/><circle class="cls-79" cx="318.67" cy="121.17" r="5"/><circle class="cls-80" cx="333.67" cy="121.17" r="5"/><circle class="cls-81" cx="303.67" cy="106.17" r="5"/><circle class="cls-82" cx="318.67" cy="106.17" r="5"/><circle class="cls-83" cx="333.67" cy="106.17" r="5"/><circle class="cls-84" cx="303.67" cy="91.17" r="5"/><circle class="cls-85" cx="318.67" cy="91.17" r="5"/><circle class="cls-86" cx="333.67" cy="91.17" r="5"/><circle class="cls-87" cx="358.67" cy="151.17" r="5"/><circle class="cls-88" cx="373.67" cy="151.17" r="5"/><circle class="cls-89" cx="388.67" cy="151.17" r="5"/><circle class="cls-90" cx="413.67" cy="136.17" r="5"/><circle class="cls-91" cx="428.67" cy="136.17" r="5"/><circle class="cls-92" cx="443.67" cy="136.17" r="5"/><circle class="cls-93" cx="413.67" cy="151.17" r="5"/><circle class="cls-94" cx="428.67" cy="151.17" r="5"/><circle class="cls-95" cx="443.67" cy="151.17" r="5"/><circle class="cls-96" cx="413.67" cy="121.17" r="5"/><circle class="cls-97" cx="468.67" cy="136.17" r="5"/><circle class="cls-98" cx="483.67" cy="136.17" r="5"/><circle class="cls-99" cx="498.67" cy="136.17" r="5"/><circle class="cls-100" cx="468.67" cy="151.17" r="5"/><circle class="cls-101" cx="483.67" cy="151.17" r="5"/><circle class="cls-102" cx="498.67" cy="151.17" r="5"/><rect class="cls-62" x="299.03" y="176.17" width="40" height="10"/><rect class="cls-61" x="354.22" y="176.17" width="40" height="10"/><rect class="cls-62" x="354.22" y="176.17" width="10" height="10"/><rect class="cls-61" x="409.22" y="176.17" width="40" height="10"/><rect class="cls-62" x="409.22" y="176.17" width="25" height="10"/><rect class="cls-61" x="464.22" y="176.17" width="40" height="10"/><rect class="cls-62" x="464.22" y="176.17" width="25" height="10"/><line class="cls-19" x1="347.54" y1="56.17" x2="347.54" y2="221.17"/><line class="cls-19" x1="401.42" y1="56.17" x2="401.42" y2="221.17"/><line class="cls-19" x1="455.29" y1="56.17" x2="455.29" y2="221.17"/><line class="cls-19" x1="511.83" y1="56.17" x2="511.83" y2="221.17"/><g id="ad94e297-0e86-4eaf-aac0-d146ee9aea65"><path class="cls-103" d="M315.37,36.09l-5.14-5.31a2.45,2.45,0,0,1-.85.15,2.66,2.66,0,1,1,2.45-3.64h5.07v1.77h-5a4.51,4.51,0,0,1-.29.63l4.75,4.89,2.57-3.91V18.41h-3.46L319.84,14l4.33,4.42h-3.46V28l6.5-9.92-6.55-6.56a1.15,1.15,0,0,0-1.61,0h0L303.18,27.36a1.15,1.15,0,0,0,0,1.61h0l15.87,15.87-5.67-5.67Z"/><path class="cls-104" d="M318.94,36.32V30.65l-2.57,3.93,1.89,2A1.88,1.88,0,0,1,318.94,36.32Z"/><path class="cls-104" d="M336.51,27.36l-9.3-9.29L320.71,28v8.35a2.25,2.25,0,0,1,.59.32l6.82-6.9a3,3,0,0,1-.34-.7h-5.12V27.29h5.2a2.64,2.64,0,1,1,2.45,3.64,2.58,2.58,0,0,1-.73-.11l-7.26,7.31a2.25,2.25,0,0,1,.11.68,2.66,2.66,0,0,1-5.32.21,2.61,2.61,0,0,1,.14-1l-1.88-1.89-2,3L319,44.84a1.14,1.14,0,0,0,1.59,0L336.47,29a1.13,1.13,0,0,0,0-1.6h0Z"/><path class="cls-61" d="M327.86,27.29h-5.2v1.77h5.12a2.67,2.67,0,0,1-.13-.79A2.37,2.37,0,0,1,327.86,27.29Z"/><path class="cls-61" d="M311.91,29.06h5V27.29h-5.07a2.46,2.46,0,0,1,.21,1A2.9,2.9,0,0,1,311.91,29.06Z"/><path class="cls-61" d="M322.32,38.13l7.26-7.31a2.65,2.65,0,0,1-1.46-1.06l-6.82,6.9A2.52,2.52,0,0,1,322.32,38.13Z"/><path class="cls-61" d="M318.31,36.6l-1.89-2-4.8-4.89a2.73,2.73,0,0,1-1.39,1.09l5.14,5.31L317.25,38A2.7,2.7,0,0,1,318.31,36.6Z"/><path class="cls-1" d="M324.15,18.41,319.84,14l-4.36,4.42h3.46v17.9a2.09,2.09,0,0,0-.63.28,2.65,2.65,0,1,0,4,3,2.79,2.79,0,0,0,.11-.76,2.25,2.25,0,0,0-.11-.68,2.49,2.49,0,0,0-1-1.47,2.25,2.25,0,0,0-.59-.32v-18Zm-4.31,21.88a1.48,1.48,0,1,1,1.48-1.48h0a1.48,1.48,0,0,1-1.48,1.48Z"/><path class="cls-1" d="M311.62,29.69a4.51,4.51,0,0,0,.29-.63,2.67,2.67,0,0,0,.13-.79,2.46,2.46,0,0,0-.21-1,2.65,2.65,0,1,0-2.45,3.64,2.45,2.45,0,0,0,.85-.15A2.69,2.69,0,0,0,311.62,29.69Zm-2.24,0a1.48,1.48,0,1,1,1.47-1.49h0a1.47,1.47,0,0,1-1.41,1.53h-.06Z"/><path class="cls-1" d="M329.58,30.82a2.58,2.58,0,0,0,.73.11,2.66,2.66,0,1,0-2.45-3.64,2.46,2.46,0,0,0-.21,1,2.67,2.67,0,0,0,.13.79,3,3,0,0,0,.34.7A2.65,2.65,0,0,0,329.58,30.82Zm.73-4a1.47,1.47,0,1,1-.33,0A.92.92,0,0,1,330.31,26.82Z"/><path class="cls-105" d="M319.84,37.34a1.48,1.48,0,1,0,1.48,1.48h0a1.47,1.47,0,0,0-1.47-1.47Z"/><circle class="cls-105" cx="309.38" cy="28.27" r="1.47"/><path class="cls-105" d="M330.31,29.74a1.47,1.47,0,1,0-1.47-1.47h0a1.47,1.47,0,0,0,1.47,1.47Z"/></g></g></g><g id="Text"><path class="cls-106" d="M74.28,16.78H68.83l.55.66A16.54,16.54,0,0,1,65.75,19l-.65-.94a17,17,0,0,0,3.31-1.32H66.49V11.42a6.68,6.68,0,0,1-.91.55l-.6-.86a13.52,13.52,0,0,0,3.65-2.72l1.16.29a1.72,1.72,0,0,1-.4.42h3.72V10a8.37,8.37,0,0,1-.76.73h1.93ZM71.58,10H68.46c-.37.3-.68.55-.95.73h3.18A7.76,7.76,0,0,0,71.58,10Zm1.66,2.43v-.78H67.55v.78Zm0,1.68v-.8H67.55v.8Zm0,1.72V15H67.55v.83ZM75.69,18l-.5.95a23.41,23.41,0,0,0-3.9-.94l.52-1A28.54,28.54,0,0,1,75.69,18Z"/><path class="cls-106" d="M87.7,16.58a5.18,5.18,0,0,1-.48,1.73,1,1,0,0,1-.93.66.87.87,0,0,1-.6-.23A3.74,3.74,0,0,1,85,17.63,13.24,13.24,0,0,1,83.78,19l-.88-.64a2,2,0,0,0,.38-.34H81V19H80V18H77.23v-.76H80v-.62H77.69V13.34H80v-.55H77.3V12H80v-.64H77.11v-.82H80V9.94H77.46V9.13H80V8.49h1v.64H83.5v.81H81v.62h3.12q0-1,0-2.1h1l0,2.1h2.46v.82H85.14a27.91,27.91,0,0,0,.24,3.68,13.52,13.52,0,0,0,.92-3l1,.29a16,16,0,0,1-1.57,4.17,4.75,4.75,0,0,0,.27.76,2.77,2.77,0,0,0,.22.45.08.08,0,0,0,.07,0c.17,0,.32-.56.46-1.69ZM80,14.65v-.58H78.67v.58Zm0,1.27v-.6H78.67v.6Zm4.65.49a20.16,20.16,0,0,1-.51-5H81V12h2.56v.77H81v.55h2.27v3.31H81v.62h2.51v.58A10,10,0,0,0,84.6,16.41Zm-2.39-1.78v-.56H81v.56Zm0,1.29v-.6H81v.6ZM87.28,9.8l-.81.53a5.24,5.24,0,0,0-1-1.26l.75-.58A5.36,5.36,0,0,1,87.28,9.8Z"/><path class="cls-106" d="M99.55,15.26H94.88V19H93.79V15.26H89.11V14.2h4.68V9.89H89.42V8.84H99.3V9.89H94.88V14.2h4.67Zm-7-2-1,.47A14.28,14.28,0,0,0,90,10.93l1-.51A16.54,16.54,0,0,1,92.54,13.28Zm6.27-2.34a13.25,13.25,0,0,1-1.71,2.84l-1-.49a13.75,13.75,0,0,0,1.7-2.84Z"/><path class="cls-106" d="M103.81,12.08a7.43,7.43,0,0,1-.67,1.27V19h-1V14.62l-.66.65-.4-1.07a7.63,7.63,0,0,0,1.81-2.59Zm.18-3.3a7,7,0,0,1-2.38,3l-.44-1a7.27,7.27,0,0,0,1.92-2.41Zm4.6,6.38h-4.3V11.53c-.11.1-.23.2-.35.32l-.62-.81a9.46,9.46,0,0,0,2.26-2.63l1,.22a5.19,5.19,0,0,1-.33.59h1.94v.91a7.91,7.91,0,0,1-.58.78h1Zm.48,1.71h-2.25a3.77,3.77,0,0,1-2.63,2.24l-.52-.84a3.06,3.06,0,0,0,2-1.4h-2v-.93h2.25a2.82,2.82,0,0,0,0-.43l1,0a2,2,0,0,1,0,.41h2.13ZM107,10.13h-1.37c-.15.19-.37.45-.68.78h1.45A4.55,4.55,0,0,0,107,10.13Zm-1,2.48v-.79h-.74v.79Zm0,1.68v-.87h-.74v.87ZM108.77,18l-.53.74a9.46,9.46,0,0,0-1.54-.8l.53-.79A7.29,7.29,0,0,1,108.77,18Zm-1.13-5.36v-.79h-.76v.79Zm0,1.68v-.87h-.76v.87Zm4-1.66h-.72v5.24a1.06,1.06,0,0,1-.3.88,1.39,1.39,0,0,1-.86.23,4,4,0,0,1-.45,0l-.28-1a4.66,4.66,0,0,0,.54.05c.27,0,.41-.1.41-.29V12.63h-1v-1h2.64Zm-.21-2.83H109v-1h2.38Z"/><path class="cls-106" d="M123.78,15.25l-.47,1-.48-.13V19h-1v-.58H120V19h-1V15.3h2a6.2,6.2,0,0,1-1.76-1.57h-1.45a6.82,6.82,0,0,1-2,1.57h2.17V19h-1v-.58H115V19h-1V16.12a2,2,0,0,1-.43.14l-.54-.89a10.83,10.83,0,0,0,3.17-1.64h-3V12.8h3.94a6.77,6.77,0,0,0,.5-.8l1.11.13a5.44,5.44,0,0,1-.38.67H121a4.5,4.5,0,0,0-.68-.4l.85-.5a3.49,3.49,0,0,1,.89.61l-.47.29h1.93v.93h-3A6.4,6.4,0,0,0,123.78,15.25Zm-6-3.42H113.9V8.73h3.87Zm-1-.93V9.64h-1.81V10.9Zm.14,6.58V16.2H115v1.28Zm6-5.65h-4V8.73h4Zm-1-.93V9.64H120V10.9Zm-.09,6.58V16.2H120v1.28Z"/><path class="cls-106" d="M358.08,16.54a8.6,8.6,0,0,1-.75,2.28l-1-.35a7.64,7.64,0,0,0,.41-1h-3.91v.62L356,18l0,.83-3.19.13v.28a.24.24,0,0,0,.27.26h3.83v.86h-4c-.78,0-1.16-.36-1.16-1.08V19L350,19l0-.84,1.77-.06v-.66h-2.23v3.28a8.39,8.39,0,0,1-1.08,4.4l-.84-.72a7.14,7.14,0,0,0,.87-3.56V16.54h3.55v-2h1.06v.52h4.22V16h-4.22v.55Zm.06,8.3h-8.66v-.91h2.94v-.7h-2V21h1V22.4h1V20.73h1v3.2h.83v-3.2h1V22.4h.95V21h1v2.21h-1.92v.7h2.89Z"/><path class="cls-106" d="M362.55,17.52h-.83v1.37a8.11,8.11,0,0,0,.68-.55l.07,1.22a8.79,8.79,0,0,1-.75.55v4.1a.92.92,0,0,1-.28.62c-.19.19-.68.26-1.46.22l-.28-1h.85q.18,0,.18-.15v-3a4.85,4.85,0,0,1-.82.53l-.31-1a11.17,11.17,0,0,0,1.13-.74V17.52h-1.08v-1h1.08V14.59h1v1.92h.83Zm3.39,4.12h-1.12a1.36,1.36,0,0,1-.06.24,7.91,7.91,0,0,1,1,1l-.61.87a6.94,6.94,0,0,0-.7-.8,5.85,5.85,0,0,1-1.72,2.23l-.72-.7a4.21,4.21,0,0,0,1.8-2.8h-1.5v-.95h1.57a7.69,7.69,0,0,0,.06-1h-.32a8.21,8.21,0,0,1-.53.84l-.78-.46a5.67,5.67,0,0,0,1-2l.84.31a1.2,1.2,0,0,1-.11.35h1.78v.95h-.86c0,.42,0,.73-.05,1h1.06ZM366,18h-2.23a.8.8,0,0,1-.62-.27,1.05,1.05,0,0,1-.25-.7V14.59h1v.68h2v.95h-2v.52A.29.29,0,0,0,364,17a.22.22,0,0,0,.18.1H366Zm4.29,5.89-.3,1a3.58,3.58,0,0,1-3.32-1.22,5.2,5.2,0,0,1-.78,1.43l-.76-.48a7.58,7.58,0,0,0,1.26-4.23l.87.1A10.3,10.3,0,0,1,367,22.6a2.57,2.57,0,0,0,.55.76V19.08h-1.3v-1h1.57a8.51,8.51,0,0,0-1.33-1.44l.74-.61a8.81,8.81,0,0,1,.82.79,5.65,5.65,0,0,0,.67-1h-2.31v-1h3.48v.95a14.29,14.29,0,0,1-1.2,1.82l.36.5h1.11a16.5,16.5,0,0,1-.45,2l-.88-.24a7.16,7.16,0,0,0,.22-.76h-.53v1.71h1.39v1H368.5v2.07a7.33,7.33,0,0,0,1.22.09Z"/><path class="cls-106" d="M373.14,22.23a12.74,12.74,0,0,1-.59,2.84l-.93-.45a12.74,12.74,0,0,0,.57-2.64Zm2.68-5.78a18.21,18.21,0,0,1-2.65,4.15,9,9,0,0,0,1.38-.31,4.5,4.5,0,0,0-.26-.67l.86-.3a12.09,12.09,0,0,1,.65,2.1l-.88.29c0-.13-.06-.3-.11-.51-1,.25-1.91.44-2.84.59l-.28-.88a14.42,14.42,0,0,0,1.89-2.47c-.58.11-1.11.2-1.6.27l-.18-1a10.69,10.69,0,0,0,1.75-3.25l1,.42a10.08,10.08,0,0,1-1.44,2.64,8.26,8.26,0,0,0,1.09-.18,11.59,11.59,0,0,0,.66-1.36Zm-1.22,8-1,.18a15,15,0,0,0-.22-2.39l.87-.13A21.8,21.8,0,0,1,374.6,24.48Zm1.13-.41-.78.15a15.45,15.45,0,0,0-.34-2.12l.78-.15A14.38,14.38,0,0,1,375.73,24.07Zm6.13-.05a1,1,0,0,1-.3.78,1.91,1.91,0,0,1-1.14.25l-.63,0-.35-1c.44,0,.84,0,1.2,0a.21.21,0,0,0,.16-.07.21.21,0,0,0,.07-.15v-8H377V25h-1V14.77h5.87Zm-1.33-5.41h-3.22v-.95h.52a11.86,11.86,0,0,0-.49-1.34l.93-.24a8.61,8.61,0,0,1,.52,1.58H379a11.41,11.41,0,0,0,.51-1.53l.95.25a7.57,7.57,0,0,1-.47,1.28h.51Zm0,2.11h-1.89v1.54a.16.16,0,0,0,.08.13.24.24,0,0,0,.14.06h1.55v.93h-1.81a.8.8,0,0,1-.89-.91V20.72h-.38v-.94h1.26a5.09,5.09,0,0,0-.32-.82l1-.17q.19.47.36,1h.91Z"/><path class="cls-106" d="M388,23.67A26.54,26.54,0,0,1,383.92,25l-.28-1,.52-.14V19.26h.95V23.6a2.79,2.79,0,0,0,.56-.15v-5h-1.59V14.87h3.59v3.56h-1V20h1.14v1H386.7v2.12c.34-.11.75-.25,1.23-.45Zm-1.35-6.25V15.88H385.1v1.54Zm7.68,2-.57.94A11.26,11.26,0,0,1,391,19.1a16.29,16.29,0,0,1-2.68,1.33l-.58-.95a10.34,10.34,0,0,0,2.41-1.09,4.81,4.81,0,0,1-.94-1.18,9.22,9.22,0,0,1-.78.62l-.63-.81a7.45,7.45,0,0,0,2.29-2.53l1,.3a3.66,3.66,0,0,1-.32.62h2.78v1a8.2,8.2,0,0,1-1.67,2A9,9,0,0,0,394.3,19.47ZM393.55,25h-1.1v-.4h-2.81V25h-1.07V20.6h5Zm-1.1-1.41v-2h-2.81v2Zm-.07-7.2H390l-.05.05a4.3,4.3,0,0,0,1,1.35A7.26,7.26,0,0,0,392.38,16.43Z"/><path class="cls-106" d="M406.67,24.43H405.1l-4.34-6.69a3.87,3.87,0,0,1-.35-.64h0a9.93,9.93,0,0,1,.05,1.32v6h-1.36V15.35h1.66l4.22,6.57c.2.31.33.53.39.65h0a10.2,10.2,0,0,1-.06-1.3V15.35h1.37Z"/><path class="cls-106" d="M416.32,24.43h-1.55l-.85-2.36h-3.63l-.81,2.36h-1.55l3.42-9.08h1.57Zm-2.79-3.53-1.27-3.58a3.81,3.81,0,0,1-.14-.68h0a3.19,3.19,0,0,1-.15.67l-1.26,3.59Z"/><path class="cls-106" d="M422.38,16.56h-2.61v7.87h-1.41V16.56h-2.6V15.35h6.62Z"/><path class="cls-107" d="M350.09,32.41a5.1,5.1,0,0,1,.82,2.59,2.28,2.28,0,0,1-.31,1.29,1.34,1.34,0,0,1-1.24.44l-.28-1.09a1.73,1.73,0,0,0,.32,0,.5.5,0,0,0,.41-.15.85.85,0,0,0,.12-.54,4.1,4.1,0,0,0-.87-2.46,12.6,12.6,0,0,0,.7-2.56h-.82v9.23h-1V28.92h2.83v1A13.62,13.62,0,0,1,350.09,32.41Zm8.13,5.64-.25,1h-2.83A4.08,4.08,0,0,1,352,38a10.89,10.89,0,0,1-.89,1.32l-.78-.63A8.14,8.14,0,0,0,352.08,35h-.86v-1a11.19,11.19,0,0,0,.71-1.88h-1.09V31h2.09v1a19.13,19.13,0,0,1-.65,1.91H353v1a7.38,7.38,0,0,1-.59,2.13,3,3,0,0,0,2.24.95Zm-5.2-7.7-.91.48A7.31,7.31,0,0,0,351,29.21l.85-.57A6.13,6.13,0,0,1,353,30.35Zm5.1-.19h-2.7a2.62,2.62,0,0,1-.28.46h2.59v.73H356.5v.48h1.58v.77H354v-.51c-.1.1-.22.23-.38.37l-.5-.93a6.73,6.73,0,0,0,1.17-1.37h-.84v-.88h1.34a2.3,2.3,0,0,0,.23-.65l1,.17c0,.1-.08.26-.16.48h2.28Zm-.41,6.69a.75.75,0,0,1-.19.53.77.77,0,0,1-.45.24,6.71,6.71,0,0,1-.94,0l-.29-.93h.33a.91.91,0,0,0,.46-.07.3.3,0,0,0,.09-.24v-.18a8.59,8.59,0,0,1-1.45.39l-.32-.56a5.28,5.28,0,0,1-.76,1.72l-.79-.61a4.17,4.17,0,0,0,.73-2.47V33.08h3.58Zm-2.23-5v-.48h-.85q-.27.33-.42.48Zm1.24,3.51V33.92h-1.61v.34a8.56,8.56,0,0,1,1.36.29l-.2.75a7.91,7.91,0,0,0-1.17-.24c0,.19-.05.44-.1.75A11.63,11.63,0,0,0,356.72,35.34Z"/><path class="cls-107" d="M370.2,38.07l-.3,1c-.77,0-1.61,0-2.53,0l-2.43,0a6.82,6.82,0,0,1-1.88-.33,3.86,3.86,0,0,1-1.61-.93,12.19,12.19,0,0,1-1.06,1.48l-.82-.7a6.93,6.93,0,0,0,1.71-3.35H359.8v-1a13.08,13.08,0,0,0,1.32-2h-1.44v-1h2.59v1A18.55,18.55,0,0,1,361,34.28h1.3a3.91,3.91,0,0,1,0,.49,5.58,5.58,0,0,1-.46,2.15,3.73,3.73,0,0,0,1.3.84,6.45,6.45,0,0,0,2,.33c.84,0,1.6,0,2.26,0C368.43,38.13,369.35,38.11,370.2,38.07Zm-8-7.95-.71.73a10.18,10.18,0,0,0-1.61-1.5l.73-.72A11,11,0,0,1,362.24,30.12Zm7.77,6h-7.43v-.88h1.79v-.71h-1.52v-.89h1.52v-.58h1v.58h1.78v-.58h1v.58h1.51v.89h-1.51v.71H370Zm-4-3.68-3.08.61-.21-.89a.34.34,0,0,0,.22-.36v-3h3V31h-2v1c.3,0,1-.18,2.08-.41Zm-.28,4.44a8,8,0,0,1-2.22.89l-.74-.8a11,11,0,0,0,2.2-.75Zm-.82-6.66v-.58h-1v.58Zm2.24,5v-.71h-1.78v.71Zm2.7-2.55h-2.36a1,1,0,0,1-.7-.22,1.15,1.15,0,0,1-.23-.82V28.82h2.95V31h-2v.62a.19.19,0,0,0,.21.21h2.11Zm.06,4.4-.66.78A14.37,14.37,0,0,0,367,37l.65-.78A19.07,19.07,0,0,1,369.93,37.09Zm-1.37-6.87v-.58h-1v.58Z"/><path class="cls-107" d="M375.93,30.47h-1.56v.72h1.38v4.74h-1.38v.76h1.55v1h-1.55v1.52h-.94V37.64h-1.68v-1h1.68v-.76h-1.38V31.19h1.38v-.72h-1.66v-.9h1.66v-.85h.94v.85h1.56Zm-2.5,2.65v-1h-.54v1Zm0,1.94V34h-.54v1.08Zm1.47-1.94v-1h-.53v1Zm0,1.94V34h-.53v1.08ZM379,38.35q0,.81-1,.81l-.4,0-.27-1,.54,0c.15,0,.23-.06.23-.17v-1h-.86a5.9,5.9,0,0,1-.78,2.18l-.74-.61a5.49,5.49,0,0,0,.71-2.86V32.66H379Zm3.3-7.09-.52.87a8.93,8.93,0,0,1-1.21-.75v.69h-3v-.8c-.32.23-.7.47-1.14.73l-.51-.9a7.13,7.13,0,0,0,2.89-2.47l1,.27a.68.68,0,0,1-.12.21A6.45,6.45,0,0,0,382.27,31.26Zm-4.19,3.14v-.81h-.79v.81Zm0,1.74V35.3h-.79v.84Zm2.15-5a6,6,0,0,1-1.16-1.25,6.82,6.82,0,0,1-1.34,1.25Zm.21,6.17h-.87V33h.87Zm1.35,1a.92.92,0,0,1-.21.54c-.14.18-.5.28-1.08.28l-.45,0-.31-1a3.64,3.64,0,0,0,.48,0,1.47,1.47,0,0,0,.57-.06.22.22,0,0,0,.08-.18V32.44h.92Z"/><path class="cls-107" d="M393.59,39.19h-1.1V38.6h-8.24v-4h1.1v2.94h3V33.46h-3.59v-4h1.08v2.94h2.51V28.7h1.07v3.72H392V29.48h1.09v4h-3.6v4.11h3V34.63h1.08Z"/><path class="cls-107" d="M398.64,36.7a3.78,3.78,0,0,0,2.45.85c1.21,0,1.81-.42,1.81-1.24a1.1,1.1,0,0,0-.2-.64,1.77,1.77,0,0,0-.54-.51,14.37,14.37,0,0,0-1.33-.68,4.88,4.88,0,0,1-1.71-1.19,2.19,2.19,0,0,1-.49-1.42,2.17,2.17,0,0,1,.93-1.85,3.88,3.88,0,0,1,2.36-.67,5.06,5.06,0,0,1,2.07.33v1.44a3.65,3.65,0,0,0-2.09-.58,2.3,2.3,0,0,0-1.3.33,1,1,0,0,0-.49.88,1.09,1.09,0,0,0,.36.84,7.21,7.21,0,0,0,1.52.88,5.31,5.31,0,0,1,1.87,1.27,2.26,2.26,0,0,1,.51,1.46,2.16,2.16,0,0,1-.89,1.88,4.11,4.11,0,0,1-2.46.65,6.94,6.94,0,0,1-1.29-.14,3.11,3.11,0,0,1-1.09-.38Z"/><path class="cls-107" d="M413.7,38.58h-1.57l-4.34-6.69a5,5,0,0,1-.36-.64h0a12,12,0,0,1,.05,1.32v6h-1.36V29.5h1.66L412,36.06l.4.65h0a10.09,10.09,0,0,1-.06-1.3V29.5h1.37Z"/><path class="cls-107" d="M423.34,38.58h-1.55L421,36.22h-3.64l-.81,2.36H415l3.42-9.08h1.56Zm-2.79-3.53-1.26-3.58a3.2,3.2,0,0,1-.14-.69h0a4.13,4.13,0,0,1-.15.68l-1.26,3.59Z"/><path class="cls-107" d="M429.41,30.71H426.8v7.87h-1.41V30.71h-2.6V29.5h6.62Z"/><path class="cls-106" d="M106.07,196.41l-3.39,9.23h-1.1l-3.32-9.23h1.12l2.56,7.38a4.41,4.41,0,0,1,.19.81h0a3.21,3.21,0,0,1,.2-.83l2.62-7.36Z"/><path class="cls-106" d="M115.57,205.64v-6.23c0-.47,0-1.07.09-1.78h0a4.84,4.84,0,0,1-.27.87l-3.17,7.14h-.45l-3.17-7.09a5.59,5.59,0,0,1-.26-.92h0c0,.32,0,.91,0,1.76v6.25h-1v-9.23h1.31l2.85,6.5a9.08,9.08,0,0,1,.43,1.09h0c.11-.32.26-.7.44-1.12l2.91-6.47h1.24v9.23Z"/><path class="cls-106" d="M162.53,196.41l-3.39,9.23H158l-3.32-9.23h1.12l2.57,7.38a4.48,4.48,0,0,1,.18.81h0a3.68,3.68,0,0,1,.2-.83l2.63-7.36Z"/><path class="cls-106" d="M172,205.64v-6.23c0-.47,0-1.07.1-1.78h0a5.86,5.86,0,0,1-.27.87l-3.18,7.14h-.45L165,198.55a5.59,5.59,0,0,1-.26-.92h0c0,.32,0,.91,0,1.76v6.25h-1v-9.23h1.3l2.85,6.5a9.08,9.08,0,0,1,.43,1.09h0c.12-.32.26-.7.44-1.12l2.92-6.47H173v9.23Z"/><path class="cls-106" d="M217.62,196.41l-3.39,9.23h-1.1l-3.32-9.23h1.12l2.57,7.38a4.48,4.48,0,0,1,.18.81h0a3.68,3.68,0,0,1,.2-.83l2.63-7.36Z"/><path class="cls-106" d="M227.12,205.64v-6.23c0-.47,0-1.07.1-1.78h0a5.86,5.86,0,0,1-.27.87l-3.18,7.14h-.45l-3.17-7.09a5.59,5.59,0,0,1-.26-.92h0c0,.32,0,.91,0,1.76v6.25h-1v-9.23h1.3l2.85,6.5a9.08,9.08,0,0,1,.43,1.09h0c.12-.32.26-.7.44-1.12l2.92-6.47h1.23v9.23Z"/><path class="cls-106" d="M272.62,196.41l-3.38,9.23h-1.1l-3.32-9.23h1.12l2.56,7.38a3.77,3.77,0,0,1,.18.81h0a3.74,3.74,0,0,1,.21-.83l2.62-7.36Z"/><path class="cls-106" d="M282.13,205.64v-6.23c0-.47,0-1.07.09-1.78h0a5.86,5.86,0,0,1-.27.87l-3.17,7.14h-.45l-3.17-7.09a6.52,6.52,0,0,1-.27-.92h0a16.92,16.92,0,0,1,.06,1.76v6.25h-1v-9.23h1.31l2.85,6.5a10.47,10.47,0,0,1,.42,1.09h0c.12-.32.27-.7.45-1.12l2.91-6.47h1.24v9.23Z"/><path class="cls-106" d="M328.55,196.41l-3.39,9.23h-1.1l-3.31-9.23h1.11l2.57,7.38a3.77,3.77,0,0,1,.18.81h0a3.74,3.74,0,0,1,.21-.83l2.62-7.36Z"/><path class="cls-106" d="M338.05,205.64v-6.23c0-.47,0-1.07.1-1.78h0a5.86,5.86,0,0,1-.27.87l-3.18,7.14h-.44l-3.17-7.09a4.6,4.6,0,0,1-.27-.92h0c0,.32.05.91.05,1.76v6.25h-1v-9.23h1.3l2.86,6.5a10.47,10.47,0,0,1,.42,1.09h0c.12-.32.27-.7.44-1.12l2.92-6.47h1.23v9.23Z"/><path class="cls-106" d="M385,196.41l-3.39,9.23h-1.1l-3.32-9.23h1.12l2.57,7.38a5.54,5.54,0,0,1,.18.81h0a3.21,3.21,0,0,1,.2-.83l2.63-7.36Z"/><path class="cls-106" d="M394.5,205.64v-6.23c0-.47,0-1.07.1-1.78h0a5.86,5.86,0,0,1-.27.87l-3.18,7.14h-.45l-3.17-7.09a5.59,5.59,0,0,1-.26-.92h0c0,.32.05.91.05,1.76v6.25h-1v-9.23h1.3l2.85,6.5a9.08,9.08,0,0,1,.43,1.09h0c.12-.32.26-.7.44-1.12l2.92-6.47h1.23v9.23Z"/><path class="cls-106" d="M440,196.41l-3.39,9.23h-1.1l-3.31-9.23h1.11l2.57,7.38a3.77,3.77,0,0,1,.18.81h0a3.74,3.74,0,0,1,.21-.83l2.62-7.36Z"/><path class="cls-106" d="M449.46,205.64v-6.23c0-.47,0-1.07.1-1.78h0a5.86,5.86,0,0,1-.27.87l-3.18,7.14h-.44l-3.17-7.09a4.6,4.6,0,0,1-.27-.92h0c0,.32.05.91.05,1.76v6.25h-1v-9.23h1.3l2.86,6.5a10.47,10.47,0,0,1,.42,1.09h0c.12-.32.27-.7.44-1.12l2.92-6.47h1.23v9.23Z"/><path class="cls-106" d="M495.15,196.41l-3.39,9.23h-1.1l-3.32-9.23h1.12l2.56,7.38a4.41,4.41,0,0,1,.19.81h0a3.74,3.74,0,0,1,.21-.83l2.62-7.36Z"/><path class="cls-106" d="M504.65,205.64v-6.23c0-.47,0-1.07.09-1.78h0a5.86,5.86,0,0,1-.27.87l-3.17,7.14h-.45l-3.17-7.09a5.59,5.59,0,0,1-.26-.92h0c0,.32.05.91.05,1.76v6.25h-1v-9.23h1.31l2.85,6.5A8.54,8.54,0,0,1,501,204h.05c.11-.32.26-.7.44-1.12l2.91-6.47h1.24v9.23Z"/><path class="cls-106" d="M30.5,131.12H28.7v1.58h1.46v8.08h-.61v-.71H26v.69h-.61V132.7h1.47v-1.58H25v-.58H30.5Zm-.95,8.34v-3.13H29c-.59,0-.89-.27-.89-.82v-2.22h-.73c0,1.86-.37,3.13-1.13,3.83L26,136.9v2.56Zm-2.74-6.17H26v3.19A4.78,4.78,0,0,0,26.81,133.29Zm2.24,4.83h-2.6v-.56h2.6Zm-.94-5.42v-1.58h-.7v1.58Zm1.44,3v-2.43H28.7v2.12c0,.2.11.31.35.31Zm5.91,2.3a6.54,6.54,0,0,1-.26,2,.91.91,0,0,1-.51.51,5.32,5.32,0,0,1-1.47.13,12.38,12.38,0,0,1-1.5-.05.74.74,0,0,1-.42-.25,1,1,0,0,1-.18-.64v-5.39h3.21v-3.18H30.94v-.61h4v4.4H31.72v4.72a.34.34,0,0,0,.11.24.45.45,0,0,0,.29.12h2c.36,0,.59-.21.66-.63a8.21,8.21,0,0,0,.12-1.52Z"/><path class="cls-106" d="M47.45,140.56H37V140h1.41v-5.16h2.81l.3-.86H37.12v-.55h4.62l.23-.81H37.6v-2.19h9.24v2.19H42.63l-.25.81h4.89V134H42.19l-.28.86H46V140h1.43Zm-7-8.42V131H38.21v1.16Zm4.94,4v-.75H39.07v.75Zm0,1.26v-.76H39.07v.76Zm0,1.33v-.84H39.07v.84Zm0,1.3v-.79H39.07V140Zm-2-7.88V131H41.1v1.16Zm2.85,0V131H44v1.16Z"/><path class="cls-106" d="M35.5,182h-5a8.78,8.78,0,0,1-.5,1.11h4.69v2.72c0,.57-.42.85-1.25.85a5.89,5.89,0,0,1-.66,0l-.17-.59c.23,0,.47,0,.7,0a1.53,1.53,0,0,0,.65-.08.26.26,0,0,0,.11-.25v-2.08H31.94v2.86h-.59v-2.86H29.22v2.85h-.59v-2.85H26.45v3.08h-.59v-3.65h3.52q.23-.45.48-1.11H25v-.56H35.5Zm-.25-1.6h-.6v-2H30.58v2.72H30v-2.72H25.92v2h-.61v-2.58H30V177H25.7v-.55h9.12V177H30.58v.91h4.67Zm-5.73,0a13,13,0,0,1-2.83.5l-.29-.55a12.66,12.66,0,0,0,2.88-.44Zm0-1.25-.24.54a14.45,14.45,0,0,0-2.69-.41l.22-.52A17.3,17.3,0,0,1,29.48,179.22Zm4.69.13a13,13,0,0,1-2.82.39l-.24-.56a13.26,13.26,0,0,0,2.79-.34Zm.09,1.14L34,181a17.22,17.22,0,0,0-2.84-.5l.3-.53C32.59,180.15,33.53,180.32,34.26,180.49Z"/><path class="cls-106" d="M41.19,182.8a20.6,20.6,0,0,1-3.86,3l-.37-.55a19.3,19.3,0,0,0,3.85-3Zm6.26,2.44-.37.56A8.83,8.83,0,0,1,42.6,182v3.8a.78.78,0,0,1-.35.72,3.23,3.23,0,0,1-1.37.2l-.65,0-.28-.66c.34,0,.89,0,1.66,0a.32.32,0,0,0,.25-.12.36.36,0,0,0,.1-.24v-6.95h-4.9v-.63H42v-2h.64v2h4.81v.63H42.6v1.78a7,7,0,0,0,.65,1.28,13.15,13.15,0,0,0,2.93-2.25l.5.44a14.56,14.56,0,0,1-3.08,2.34A8.43,8.43,0,0,0,47.45,185.24Zm-7.19-3.69-.45.49a10.88,10.88,0,0,0-2.14-2l.44-.47A12,12,0,0,1,40.26,181.55Zm5.84-4.2-.44.49a9.73,9.73,0,0,0-1.62-1.2l.39-.49A10.93,10.93,0,0,1,46.1,177.35Z"/><path class="cls-106" d="M538.18,131.18h-1.81v1.59h1.46v8.07h-.61v-.71h-3.56v.7h-.61v-8.06h1.47v-1.59h-1.84v-.58h5.5Zm-1,8.34v-3.13h-.55c-.59,0-.89-.27-.89-.81v-2.22h-.73c0,1.85-.37,3.13-1.13,3.82l-.25-.22v2.56Zm-2.74-6.16h-.81v3.19A4.82,4.82,0,0,0,534.48,133.36Zm2.24,4.82h-2.6v-.55h2.6Zm-.94-5.41v-1.59h-.7v1.59Zm1.44,3v-2.42h-.85v2.12c0,.2.12.3.35.3Zm5.91,2.3a7.06,7.06,0,0,1-.25,2,1,1,0,0,1-.52.51,4.94,4.94,0,0,1-1.47.13c-.85,0-1.35,0-1.5,0a.8.8,0,0,1-.41-.26.91.91,0,0,1-.19-.64v-5.38H542v-3.19h-3.39v-.61h4V135h-3.24v4.72a.34.34,0,0,0,.11.24.41.41,0,0,0,.29.12h2c.37,0,.59-.21.67-.63a9.43,9.43,0,0,0,.11-1.53Z"/><path class="cls-106" d="M555.13,140.62H544.7v-.54h1.42v-5.15h2.8l.3-.87h-4.43v-.55h4.63l.22-.8h-4.37v-2.19h9.24v2.19H550.3l-.24.8h4.88v.55h-5.08l-.28.87h4.11v5.15h1.44Zm-7-8.41V131h-2.25v1.17Zm4.94,4v-.76h-6.34v.76Zm0,1.25v-.75h-6.34v.75Zm0,1.33v-.84h-6.34v.84Zm0,1.3v-.79h-6.34v.79ZM551,132.21V131h-2.26v1.17Zm2.85,0V131h-2.22v1.17Z"/><path class="cls-106" d="M543.18,181.09h-5a7.55,7.55,0,0,1-.5,1.11h4.69v2.72c0,.57-.42.85-1.25.85l-.65,0-.18-.6a5.58,5.58,0,0,0,.7,0,1.53,1.53,0,0,0,.65-.08.26.26,0,0,0,.11-.25v-2.08h-2.15v2.86H539v-2.86h-2.13v2.85h-.59v-2.85h-2.18v3.08h-.59V182.2h3.52q.23-.45.48-1.11h-4.82v-.56h10.47Zm-.26-1.59h-.6v-2h-4.07v2.71h-.6V177.5h-4.06v2H533v-2.57h4.67V176h-4.28v-.55h9.12V176h-4.24v.92h4.67Zm-5.73,0a13,13,0,0,1-2.83.5l-.29-.55A12.13,12.13,0,0,0,537,179Zm0-1.24-.24.53a13.59,13.59,0,0,0-2.69-.4l.22-.53A16.15,16.15,0,0,1,537.15,178.28Zm4.69.13a13.09,13.09,0,0,1-2.82.38l-.24-.56a12.64,12.64,0,0,0,2.8-.33Zm.09,1.14-.26.52a17,17,0,0,0-2.84-.5l.3-.52A26.74,26.74,0,0,1,541.93,179.55Z"/><path class="cls-106" d="M548.86,181.85a20.6,20.6,0,0,1-3.86,3l-.37-.55a19.61,19.61,0,0,0,3.86-3Zm6.27,2.45-.38.55a8.78,8.78,0,0,1-4.48-3.79v3.8a.74.74,0,0,1-.35.72,3.17,3.17,0,0,1-1.36.2l-.66,0-.28-.65,1.67,0a.31.31,0,0,0,.24-.12.36.36,0,0,0,.1-.24v-7h-4.9v-.63h4.9v-2h.64v2h4.81v.63h-4.81v1.78a7,7,0,0,0,.65,1.29,13.49,13.49,0,0,0,2.93-2.26l.51.44a14.92,14.92,0,0,1-3.09,2.34A8.42,8.42,0,0,0,555.13,184.3Zm-7.2-3.7-.44.49a11.24,11.24,0,0,0-2.15-2l.44-.47A11.67,11.67,0,0,1,547.93,180.6Zm5.84-4.19-.44.49a9.2,9.2,0,0,0-1.62-1.21l.39-.49A10.25,10.25,0,0,1,553.77,176.41Z"/><path class="cls-107" d="M70.18,30.86a48,48,0,0,1-5,3l-.42-1c.24-.12.54-.28.91-.49V23.9h1.11v7.82a30.49,30.49,0,0,0,3.2-2Zm1.21-3-1,.59A21,21,0,0,0,68.18,25l.91-.6A19.76,19.76,0,0,1,71.39,27.83Zm4,5.87-.86.74a22.2,22.2,0,0,0-2.22-2.59A12.86,12.86,0,0,1,69,34.49l-.71-.93q3.39-1.77,4.17-4.2a17.74,17.74,0,0,0,.78-5.42h1.1A17.37,17.37,0,0,1,73,31,28.72,28.72,0,0,1,75.39,33.7Z"/><path class="cls-107" d="M85.09,33.78h-5V24.7h1.41v7.87h3.54Z"/><path class="cls-107" d="M86.43,33.78V24.7h2.84a3.23,3.23,0,0,1,2,.57A1.81,1.81,0,0,1,92,26.8a2.07,2.07,0,0,1-.45,1.32,2.38,2.38,0,0,1-1.19.8v0a2.35,2.35,0,0,1,1.5.7,2.09,2.09,0,0,1,.56,1.5,2.39,2.39,0,0,1-.85,1.91,3.27,3.27,0,0,1-2.23.73Zm1.41-7.92v2.65h1a1.9,1.9,0,0,0,1.25-.38,1.37,1.37,0,0,0,.44-1.07q0-1.2-1.65-1.2Zm0,3.81v3h1.32a2.06,2.06,0,0,0,1.34-.4A1.37,1.37,0,0,0,91,31.12c0-1-.65-1.45-2-1.45Z"/><path class="cls-107" d="M101.07,32.81a17.75,17.75,0,0,1-3.79,1.47l-.52-.9a18.11,18.11,0,0,0,3.61-1.33Zm6.08-2.7h-9V27.23c-.39.39-.6.6-.65.63l-.7-.79a9.76,9.76,0,0,0,2.31-3.3l1,.31a8.46,8.46,0,0,1-.38.81h2.42a6,6,0,0,0-.37-.81l1-.24a10.09,10.09,0,0,1,.52,1.05h3.54v.87h-3.7v.61h3.38v.8h-3.38v.61h3.39v.81h-3.39v.63h4Zm.2,1.67h-4.71v2.64h-1.09V31.78H96.92v-.94h4.63v-.48h1.09v.48h4.71Zm-5.24-5.41v-.61H99.24v.61Zm0,1.41v-.61H99.24v.61Zm0,1.44v-.63H99.24v.63Zm5.31,4.21-.61.87a20.7,20.7,0,0,0-3.6-1.45l.67-.83A21.77,21.77,0,0,1,107.42,33.43Z"/><path class="cls-107" d="M119.35,34.09h-8.81a1,1,0,0,1-.81-.33,1.27,1.27,0,0,1-.28-.86V25.11h-.56v-.92h10.33v.92h-8.73v7.72a.35.35,0,0,0,.11.23.33.33,0,0,0,.23.11h8.52Zm-4.84-1.63h-3.33V29.12h3.33Zm3-4h-5.33V25.78h5.33Zm-4,3.05V30H112.2v1.53Zm2.93-3.94v-.93h-3.19v.93Zm2.14,4.85h-3.38V29.12h3.38Zm-1-.92V30h-1.38v1.52Z"/><path class="cls-107" d="M131.13,29.64a27.83,27.83,0,0,1-.2,3.32,1.65,1.65,0,0,1-.52,1.12,2.15,2.15,0,0,1-1.23.27c-.26,0-.49,0-.7,0l-.3-1c.14,0,.56,0,1.26,0a.36.36,0,0,0,.36-.22,15,15,0,0,0,.23-2.45h-6.76a6.71,6.71,0,0,1-1.8,1.79l-.69-.85a9.29,9.29,0,0,0,3.37-5.07h-3v-1H123a6.26,6.26,0,0,0-1.1-1.06l.83-.65a6.06,6.06,0,0,1,1.17,1.11l-.72.6h1.25c.14-.59.25-1.16.34-1.71l1,.2a12.59,12.59,0,0,1-.3,1.51h4.56c-.12.73-.26,1.41-.43,2.06h1c-.07.55-.19,1.24-.36,2.09Zm-6.91,1.74a11,11,0,0,1-1.28,3l-.88-.55a13.85,13.85,0,0,0,1.2-2.78Zm5.17-2.84h-4.83c-.16.34-.36.7-.58,1.1h5.19ZM126,34l-1,.2a12.07,12.07,0,0,0-.33-2.84l1-.11A12.25,12.25,0,0,1,126,34Zm2.72-7.51h-3.47c-.14.51-.25.86-.32,1h3.56C128.58,27.23,128.66,26.89,128.73,26.51Zm-.83,7-1,.33a12.74,12.74,0,0,0-.59-2.45l1-.17A10.3,10.3,0,0,1,127.9,33.5Zm1.61-.7-1,.34a7.93,7.93,0,0,0-.63-1.86l1-.28A7.57,7.57,0,0,1,129.51,32.8Z"/><path class="cls-107" d="M143.53,31.74l-.61.89a7.76,7.76,0,0,1-1.84-1.07v.71h-2.41v1H143v.94h-9.62v-.94h4.22v-1h-2.33v-.72a8.24,8.24,0,0,1-1.86,1.09l-.59-.91a5.24,5.24,0,0,0,2.36-1.48h-2.24V29.3h1.94V25.66h-1.69v-.94h1.69v-.79h1.06v.79h4.37v-.79h1.08v.79h1.71v.94h-1.71V29.3h2v.95h-2.2A6.84,6.84,0,0,0,143.53,31.74Zm-2.77-.42a7.35,7.35,0,0,1-1.06-1.07h-3.27a4.62,4.62,0,0,1-.91,1.07h2.06v-.77h1.09v.77Zm-.47-5v-.63h-4.37v.63Zm0,1.49v-.66h-4.37v.66Zm0,1.52v-.69h-4.37v.69Z"/><path class="cls-107" d="M148.47,25.37h-1.36a22,22,0,0,1-.56,2.42h1.88v5.38h-1v-.41h-.68v1h-1v-4a4.1,4.1,0,0,1-.48.72l-.54-1a10.45,10.45,0,0,0,1.33-4.09h-1.16v-1h3.55Zm-1,6.42v-3h-.68v3Zm8,1.59-.31,1H153a6,6,0,0,1-1.89-.29,3.47,3.47,0,0,1-1.34-.81,4.79,4.79,0,0,1-.83,1.31l-.81-.59a7.2,7.2,0,0,0,1.4-3.57l1,.2a8.8,8.8,0,0,1-.39,1.75,3.2,3.2,0,0,0,1.21.75V29.9h-2.51V29h6.4a13.83,13.83,0,0,1-.54,2l-1-.34c.09-.22.17-.47.25-.74h-1.59v1.23h2.08V32h-2.08v1.28C153.51,33.39,154.52,33.4,155.45,33.38Zm-3.56-6.63-.54.68-.52-.5v1.73h-.94V27a8.07,8.07,0,0,1-.84,1.11l-.69-.76a5.63,5.63,0,0,0,1.39-1.52h-.88v-.91h1V24h.94v1h.81v.91h-.81V26A8.67,8.67,0,0,1,151.89,26.75Zm3.54.63-.59.75a8.92,8.92,0,0,0-.88-1v1.51H153V27.22a6.62,6.62,0,0,1-1,1.16l-.66-.69a5.62,5.62,0,0,0,1.57-1.84h-.81v-.91H153V24H154v1h1.26v.91H154v.2A10.65,10.65,0,0,1,155.43,27.38Z"/><path class="cls-107" d="M163.6,29.65l-.8.78a9.59,9.59,0,0,0-2-1.8l.8-.79A10.13,10.13,0,0,1,163.6,29.65Z"/><path class="cls-107" d="M173.61,27.81a10.44,10.44,0,0,1-.68,3.09l-.89-.52a7.48,7.48,0,0,0,.42-1.56h-.79v4.65a.9.9,0,0,1-.32.66c-.21.2-.82.27-1.83.22l-.3-1a10.05,10.05,0,0,0,1.14,0c.18,0,.27-.1.27-.25V28.82H169v-1h1.86A21.05,21.05,0,0,0,169.43,26l.89-.51c.23.26.44.52.65.79a7.35,7.35,0,0,0,.92-1.13h-2.66v-1h3.88v1a13.27,13.27,0,0,1-1.51,2c.19.28.34.51.44.68Zm5.8-2.68h-2.33c-.07.25-.17.58-.32,1H179v6h-3.31l.55.53a11.52,11.52,0,0,1-2.61,1.86l-.7-.86a8,8,0,0,0,2.29-1.53h-1.34v-6h1.66a9.07,9.07,0,0,0,.35-1h-2.41v-1h5.89ZM178,27.76v-.69h-3v.69Zm0,1.68v-.73h-3v.73Zm0,1.67v-.74h-3v.74Zm1.6,2.48-.67.81a12.06,12.06,0,0,0-2.22-1.19l.61-.86A10.73,10.73,0,0,1,179.56,33.59Z"/><path class="cls-107" d="M191.46,31.86a8.86,8.86,0,0,1-.33,1.71,1.33,1.33,0,0,1-.52.56,2.48,2.48,0,0,1-1.22.19h-1.22a1.36,1.36,0,0,1-.93-.27,1.26,1.26,0,0,1-.31-1V29.52h-1.72a5.37,5.37,0,0,1-1,3.11,6.24,6.24,0,0,1-2.86,1.8l-.51-1q3.26-1,3.23-3.91h-3v-1h4.57V26.68h-2.28a7.73,7.73,0,0,1-1.19,1.43l-1-.63a9.64,9.64,0,0,0,2.32-3.43l1,.36L184,25.67h1.66V23.93h1.06v1.74h4.15v1h-4.15v1.86h4.58v1H188V33a.24.24,0,0,0,.15.24,3.6,3.6,0,0,0,.89.06,2.29,2.29,0,0,0,.83-.09c.11-.05.2-.2.28-.43a6.67,6.67,0,0,0,.2-1.27Z"/><path class="cls-107" d="M198.46,25.18h-1.81V26.4h1.5v8h-1v-.56h-3v.56h-1v-8h1.47V25.18H193v-1h5.48Zm-1.28,7.66V30.17h-.56a.71.71,0,0,1-.53-.2.76.76,0,0,1-.2-.53V27.38h-.41a5.61,5.61,0,0,1-.75,3.28l-.52-.54v2.72Zm-2.47-5.46h-.5v2.49A4.38,4.38,0,0,0,194.71,27.38Zm2.15,4.51h-2.32V31h2.32Zm-1-5.49V25.18h-.39V26.4Zm1.29,2.82V27.38h-.53v1.55a.25.25,0,0,0,.29.29Zm6.24,2.47a5.8,5.8,0,0,1-.2,1.89,1,1,0,0,1-.54.59,6.45,6.45,0,0,1-1.74.13,5,5,0,0,1-1.36-.11.82.82,0,0,1-.43-.34,1.13,1.13,0,0,1-.15-.61V27.86h3V25.22h-3.07v-1H203v4.66h-3v4.06c0,.16,0,.27.13.3a2.78,2.78,0,0,0,.79.06,3.14,3.14,0,0,0,1.09-.1.6.6,0,0,0,.23-.45,10.1,10.1,0,0,0,.1-1.42Z"/><path class="cls-107" d="M215.44,34.17H205v-.79h1.32V28.31h2.91l.15-.55H205.1v-.83h4.46l.11-.52H205.5V24.08h9.37v2.33h-4.09l-.09.52h4.56v.83H210.5l-.12.55h3.72v5.07h1.34Zm-7.13-8.54v-.72h-1.73v.72Zm4.74,4V29h-5.66v.55Zm0,1.21v-.55h-5.66v.55Zm0,1.26v-.57h-5.66v.57Zm0,1.32v-.63h-5.66v.63Zm-2-7.75v-.72h-1.77v.72Zm2.73,0v-.72H212.1v.72Z"/><path class="cls-107" d="M221.52,34.28h-1v-.79h-2.16v.91h-1.07V25.67h1.08a7.81,7.81,0,0,0,.7-1.83l1.11.18a7.34,7.34,0,0,1-.57,1.65h1.94Zm-1-5.35V26.71h-2.16v2.22Zm0,3.53V29.94h-2.16v2.52Zm6.84-6.73c0,1.15-.05,2.64-.13,4.47a13.34,13.34,0,0,1-.33,3.23,1.43,1.43,0,0,1-.66.73,6.18,6.18,0,0,1-2.15.24l-.4-1,1.61,0a.8.8,0,0,0,.48-.19q.27-.2.39-2.61c.09-1.61.13-2.86.12-3.76h-2.4a11.58,11.58,0,0,1-1.28,2.44l-.82-.73a14.21,14.21,0,0,0,1.82-4.66l1.06.23c-.08.4-.22,1-.43,1.68Zm-1.75,5.36-.93.6A12.92,12.92,0,0,0,223,29.11l.94-.59A12,12,0,0,1,225.58,31.09Z"/><path class="cls-107" d="M69,40.07H67.46v.73h1.38v4.74H67.46v.75H69v1H67.46v1.53h-.94V47.24H64.84v-1h1.68v-.75H65.15V40.8h1.37v-.73H64.86v-.9h1.66v-.85h.94v.85H69Zm-2.5,2.65v-1H66v1Zm0,1.94V43.59H66v1.07ZM68,42.72v-1h-.53v1Zm0,1.94V43.59h-.53v1.07ZM72.06,48q0,.81-1,.81l-.39,0-.28-1,.54,0c.15,0,.23-.06.23-.17v-1h-.86a5.9,5.9,0,0,1-.78,2.18l-.74-.61a5.44,5.44,0,0,0,.71-2.86V42.26h2.56Zm3.3-7.09-.52.87A9.62,9.62,0,0,1,73.63,41v.7h-3v-.81c-.32.23-.7.47-1.14.74L69,40.7a7.13,7.13,0,0,0,2.89-2.47l1,.28a1.23,1.23,0,0,1-.13.2A6.52,6.52,0,0,0,75.36,40.86ZM71.17,44v-.81h-.79V44Zm0,1.74V44.9h-.79v.84Zm2.15-5a6,6,0,0,1-1.16-1.25,6.53,6.53,0,0,1-1.34,1.25Zm.21,6.17h-.87V42.55h.87Zm1.35,1a.92.92,0,0,1-.21.54c-.13.19-.49.28-1.08.28l-.45,0-.31-1a3.64,3.64,0,0,0,.48,0,1.47,1.47,0,0,0,.57-.06.19.19,0,0,0,.08-.18V42h.92Z"/><path class="cls-107" d="M86.68,48.79h-1.1V48.2H77.34v-4h1.1v2.94h3V43.06H77.9v-4H79V42h2.51V38.3h1.08V42h2.5V39.09h1.09v4H82.57v4.11h3V44.23h1.08Z"/><path class="cls-107" d="M91.73,46.3a3.76,3.76,0,0,0,2.46.85c1.2,0,1.8-.41,1.8-1.24a1.1,1.1,0,0,0-.2-.64,1.74,1.74,0,0,0-.54-.5,10.85,10.85,0,0,0-1.33-.69,4.88,4.88,0,0,1-1.71-1.19,2.23,2.23,0,0,1-.49-1.42,2.17,2.17,0,0,1,.93-1.85A4,4,0,0,1,95,39a5,5,0,0,1,2.06.33v1.45A3.57,3.57,0,0,0,95,40.15a2.3,2.3,0,0,0-1.3.32,1,1,0,0,0-.49.88,1.09,1.09,0,0,0,.36.84,7.21,7.21,0,0,0,1.52.88A5.22,5.22,0,0,1,97,44.34a2.27,2.27,0,0,1,.52,1.46,2.19,2.19,0,0,1-.89,1.88,4.09,4.09,0,0,1-2.47.65,6.94,6.94,0,0,1-1.29-.14,3.44,3.44,0,0,1-1.09-.37Z"/><path class="cls-107" d="M106.79,48.18h-1.57l-4.34-6.69a5,5,0,0,1-.36-.64h0a12.11,12.11,0,0,1,.05,1.32v6H99.18V39.1h1.66l4.21,6.57c.2.31.34.53.4.65h0a10.31,10.31,0,0,1-.06-1.3V39.1h1.37Z"/><path class="cls-107" d="M116.43,48.18h-1.54L114,45.82H110.4l-.8,2.36h-1.55l3.42-9.08H113Zm-2.79-3.53-1.26-3.58a4,4,0,0,1-.14-.68h0a4,4,0,0,1-.15.67l-1.26,3.59Z"/><path class="cls-107" d="M122.5,40.31h-2.61v7.87h-1.41V40.31h-2.6V39.1h6.62Z"/><path class="cls-106" d="M29.77,69.87a14.24,14.24,0,0,1-2.05.35v1.1h1.73v.58H27.72v1.21h2v.61h-2v.15a11.86,11.86,0,0,1,1.93,2.35l-.49.4a10.36,10.36,0,0,0-1.44-1.94V78.9H27.1V75a10.19,10.19,0,0,1-1.68,2.65l-.4-.53a10.67,10.67,0,0,0,2-3.39h-2v-.61h2V71.9H25.31v-.58H27.1v-1c-.75,0-1.35.07-1.8.07l-.21-.63c.9,0,1.57,0,2-.08V68.26h.62V69.6a12.58,12.58,0,0,0,1.77-.32Zm5.76,6.51a5.76,5.76,0,0,1-.26,1.71,1,1,0,0,1-.47.53,3.53,3.53,0,0,1-1.17.13,8.22,8.22,0,0,1-1.17,0,.71.71,0,0,1-.39-.25.68.68,0,0,1-.18-.48V75L30,75.38l-.11-.59,2-.36v-2L30,72.73l-.09-.6,2-.37V69.82c-.51.11-1.05.21-1.61.29l-.29-.6a16.3,16.3,0,0,0,4.63-1.23l.35.53a16.78,16.78,0,0,1-2.45.83v2l2.41-.45.09.57-2.5.49V74.3l2.81-.55.12.57-2.93.58v2.94a.25.25,0,0,0,.13.24,2.19,2.19,0,0,0,.87.09,3.69,3.69,0,0,0,.94-.08c.16-.06.27-.29.35-.71a8.54,8.54,0,0,0,.12-1.23Z"/><path class="cls-106" d="M39.13,74.46a7,7,0,0,1-1.73,1.48l-.5-.42a6.09,6.09,0,0,0,1.72-1.39Zm8.29-.73H37v-.58h4.88v-.87H37.77V71.7h4.09v-.82H37v-.56h4.9v-.81h-4.1V69h4.1v-.69h.64V69h3.87v1.37h1.05v.56H46.37v1.4H42.5v.87h4.92Zm0,4.86H37V78h1.3V75.88h7.84V78h1.29ZM40.65,78V76.47H38.88V78Zm.89-2.61-.58.17a8.09,8.09,0,0,0-.54-1.29l.57-.18A6.2,6.2,0,0,1,41.54,75.41ZM43.11,78V76.47H41.28V78Zm2.62-7.7v-.81H42.5v.81Zm0,1.38v-.82H42.5v.82ZM44,75.4l-.57.16a6,6,0,0,0-.53-1.28l.53-.21A5.61,5.61,0,0,1,44,75.4ZM45.49,78V76.47H43.72V78Zm1.92-2.39-.49.38a9,9,0,0,0-1.6-1.51l.46-.39A10.52,10.52,0,0,1,47.41,75.63Z"/><path class="cls-106" d="M29.7,86.29H26.15v7.1h-.62V83H29.7Zm-.6-1.9V83.6h-3v.79Zm0,1.34v-.82h-3v.82Zm4.77,2.36H31.4a11.42,11.42,0,0,0,.32,2.53,8,8,0,0,0,1.06-2l.47.26A12.08,12.08,0,0,1,32,91.25a2.18,2.18,0,0,0,.38.62.58.58,0,0,0,.37.24c.1,0,.21-.12.32-.36a2.42,2.42,0,0,0,.22-.9l.52.22c-.13,1.12-.49,1.68-1.1,1.68q-.57,0-1.11-1a8.58,8.58,0,0,1-1.28,1.32l-.41-.38a9,9,0,0,0,1.42-1.48,10.64,10.64,0,0,1-.43-3.16H26.69v-.55h4.13a6.91,6.91,0,0,1,0-.91h.57a6.91,6.91,0,0,0,0,.91h2.48Zm-3.52,3.15,0,.55c-1.27.29-2.45.52-3.52.68L26.69,92A36,36,0,0,0,30.35,91.24Zm-.15-.49H27.12V88.82H30.2Zm-.58-.56v-.8H27.71v.8ZM35,92.65a.62.62,0,0,1-.28.59,1.48,1.48,0,0,1-.72.16h-.39l-.19-.63h.43a.85.85,0,0,0,.48-.08.24.24,0,0,0,.1-.19V86.29H30.84V83H35Zm-.57-8.26V83.6H31.45v.79Zm0,1.34v-.82H31.45v.82Zm-1,1.26-.28.42a4.84,4.84,0,0,0-1-.51l.25-.42A4.21,4.21,0,0,1,33.41,87Z"/><path class="cls-106" d="M40,82.88l-.79,1.84v8.64h-.63V86a15.93,15.93,0,0,1-1.4,2.14l-.33-.63a17.74,17.74,0,0,0,2.56-4.83Zm7.47,10.2H39.69v-.62h1.06V85.54h2a6.7,6.7,0,0,0,.36-1.1h-3v-.61h3.19a11.32,11.32,0,0,0,.23-1.16l.64.06c-.07.42-.15.78-.23,1.09h3.2v.62H43.82c-.09.31-.21.68-.37,1.1h2.92v6.92h1.06Zm-1.69-5.86V86.13H41.39v1.09Zm0,1.68V87.8H41.39v1.1Zm0,1.71V89.5H41.39v1.11Zm0,1.85V91.21H41.39v1.25Z"/><path class="cls-106" d="M157.43,78.85h-.64V78h-8.12v.9H148V68.46h9.42Zm-.64-1.56v-8.2h-8.12v8.2Zm-.63-5.79v.64H153a4.76,4.76,0,0,1-.15,1,20,20,0,0,1,3.3,3.37l-.45.43a18.2,18.2,0,0,0-3-3.14A6.46,6.46,0,0,1,149.48,77l-.38-.5a6.84,6.84,0,0,0,2.34-1.9,4.09,4.09,0,0,0,.91-2.42h-3V71.5h3c0-.67,0-1.26,0-1.78H153c0,.43,0,1,0,1.78Z"/><path class="cls-106" d="M162.26,76.66a3.14,3.14,0,0,0,1.1.59,4.54,4.54,0,0,0,1.34.23c1.32,0,2-.49,2-1.46a1.33,1.33,0,0,0-.2-.74,2,2,0,0,0-.56-.55,13.52,13.52,0,0,0-1.38-.77,5.56,5.56,0,0,1-1.87-1.34,2.17,2.17,0,0,1-.4-1.29,2.09,2.09,0,0,1,.9-1.78,3.59,3.59,0,0,1,2.24-.67,4.14,4.14,0,0,1,1.94.33v1.17a3.54,3.54,0,0,0-2.07-.56,2.47,2.47,0,0,0-1.41.37,1.21,1.21,0,0,0-.54,1,1.31,1.31,0,0,0,.19.72,1.75,1.75,0,0,0,.52.53,12.29,12.29,0,0,0,1.28.71,6.2,6.2,0,0,1,1.88,1.31,2.23,2.23,0,0,1,.53,1.44,2.15,2.15,0,0,1-.85,1.82,3.82,3.82,0,0,1-2.37.64,6.27,6.27,0,0,1-1.2-.15,2.91,2.91,0,0,1-1.05-.38Z"/><path class="cls-106" d="M176.74,78.26h-1.26l-4.75-7.45a3.66,3.66,0,0,1-.28-.56h0a10,10,0,0,1,.05,1.24v6.77h-1V69h1.33l4.62,7.37a6.25,6.25,0,0,1,.37.64h0a9.6,9.6,0,0,1-.07-1.39V69h1Z"/><path class="cls-106" d="M186,78.26h-1.11l-1-2.62H180l-.92,2.62H178L181.48,69h1Zm-2.44-3.55-1.46-4a3.88,3.88,0,0,1-.14-.6h0a3,3,0,0,1-.14.6l-1.45,4Z"/><path class="cls-106" d="M191.64,70H189v8.3h-1V70h-2.62V69h6.26Z"/><path class="cls-106" d="M200.22,69.85a12.76,12.76,0,0,1-2,.36v1.1h1.72v.58h-1.72V73.1h2v.61h-2v.15a12.22,12.22,0,0,1,1.93,2.35l-.5.4a10.73,10.73,0,0,0-1.43-1.94v4.22h-.63V75a10.09,10.09,0,0,1-1.67,2.66l-.4-.53a10.86,10.86,0,0,0,2-3.39h-2V73.1h2V71.89h-1.78v-.58h1.78v-1c-.75,0-1.35.07-1.8.07l-.21-.63c.9,0,1.57,0,2-.08V68.25h.63v1.34a13.12,13.12,0,0,0,1.77-.32ZM206,76.37a5.87,5.87,0,0,1-.25,1.71,1,1,0,0,1-.47.52,3.31,3.31,0,0,1-1.18.14,7.93,7.93,0,0,1-1.16,0,.7.7,0,0,1-.4-.25.72.72,0,0,1-.17-.48V75l-1.92.36-.11-.59,2-.36v-2l-1.87.34-.1-.6,2-.37V69.81c-.52.11-1.06.2-1.62.29l-.29-.6a16.3,16.3,0,0,0,4.63-1.23l.36.53a16.52,16.52,0,0,1-2.46.83v2l2.41-.45.1.57-2.51.49v2.06l2.82-.55.11.57-2.93.58v2.94a.26.26,0,0,0,.13.24,2.3,2.3,0,0,0,.88.09,3.59,3.59,0,0,0,.93-.08c.16-.06.28-.29.35-.71a8.54,8.54,0,0,0,.12-1.23Z"/><path class="cls-106" d="M209.58,74.45a7,7,0,0,1-1.73,1.48l-.5-.42a6.29,6.29,0,0,0,1.73-1.39Zm8.29-.73H207.44v-.58h4.88v-.87h-4.09v-.58h4.09v-.82h-4.91v-.56h4.91V69.5h-4.11v-.56h4.11v-.69H213v.69h3.87v1.37h1.05v.56h-1.05v1.4H213v.87h4.92Zm0,4.86H207.44V78h1.29V75.87h7.84V78h1.29ZM211.1,78V76.46h-1.77V78Zm.9-2.61-.59.17a8.09,8.09,0,0,0-.54-1.29l.58-.18A7.48,7.48,0,0,1,212,75.4ZM213.56,78V76.46h-1.83V78Zm2.62-7.7V69.5H213v.81Zm0,1.38v-.82H213v.82Zm-1.71,3.7-.56.16a7.3,7.3,0,0,0-.53-1.28l.53-.21A5.22,5.22,0,0,1,214.47,75.39ZM215.94,78V76.46h-1.77V78Zm1.92-2.39-.48.38a9.35,9.35,0,0,0-1.6-1.51l.45-.39A10.07,10.07,0,0,1,217.86,75.62Z"/><path class="cls-106" d="M229.78,69.11h-4.95a15.33,15.33,0,0,1-.91,2.19h5V78a1.09,1.09,0,0,1-.21.59c-.15.21-.56.32-1.24.32h-.34l-.26-.66a5.43,5.43,0,0,0,.59,0,2,2,0,0,0,.7-.07.25.25,0,0,0,.14-.23v-6h-2.14v6.67h-.62V71.91h-2.06v6.67h-.59V71.91h-2v7h-.61V71.3h3a14.13,14.13,0,0,0,.93-2.19h-4.83v-.63h10.44Z"/><path class="cls-106" d="M241.8,78l-.11.63h-4.33c-2,0-3.49-.45-4.35-1.34a9.43,9.43,0,0,1-1.39,1.61l-.47-.43a7.24,7.24,0,0,0,2.34-3.9h-2V74c.55-.67,1.18-1.5,1.87-2.49h-2.1V70.9h2.91v.64c-.35.5-1,1.32-1.81,2.46h1.82v.6a9.78,9.78,0,0,1-.86,2.2,3.86,3.86,0,0,0,1.34.87,5.5,5.5,0,0,0,1.52.33c.53,0,1.61.06,3.23.06C240.59,78.06,241.4,78.05,241.8,78Zm-8.08-8-.47.42a9.72,9.72,0,0,0-1.77-1.8l.44-.45A8.16,8.16,0,0,1,233.72,70Zm7.94,2.74h-7.11v-.6h3.32V70.43h-1.94c-.36.56-.62.94-.76,1.13l-.52-.33a8.59,8.59,0,0,0,1.48-2.85l.59.13a8.3,8.3,0,0,1-.49,1.32h1.64V68.22h.61v1.61h2.6v.6h-2.6v1.75h3.18Zm-.72,4h-5.48V73.82h5.48Zm-.63-.59V74.44h-4.22v1.71Z"/><path class="cls-106" d="M253.63,76.49a5.47,5.47,0,0,1-.38,1.75c-.2.47-.45.71-.73.71s-.67-.27-1.1-.79a5.3,5.3,0,0,1-.92-1.62,17.45,17.45,0,0,1-2.86,2.38l-.48-.5a14,14,0,0,0,3.07-2.59,25.34,25.34,0,0,1-.74-5H245v1.65h3.21c0,1-.06,1.91-.14,2.7a5.39,5.39,0,0,1-.28,1.45,1.14,1.14,0,0,1-.44.43,2.36,2.36,0,0,1-1.07.16c-.16,0-.36,0-.59,0l-.2-.66a4.62,4.62,0,0,0,.82.07,1.87,1.87,0,0,0,.67-.08,1,1,0,0,0,.27-.2,4.59,4.59,0,0,0,.23-1.15,17.8,17.8,0,0,0,.13-2.06h-2.6A13.42,13.42,0,0,1,243.64,79l-.5-.46a12.4,12.4,0,0,0,1.29-6V70.24h5c0-.89-.05-1.57-.05-2H250c0,.63,0,1.31.06,2h3.33v.63h-3.3a21.24,21.24,0,0,0,.6,4.37,11.73,11.73,0,0,0,1.62-3.37l.64.21a14.78,14.78,0,0,1-2,3.93,5.24,5.24,0,0,0,.84,1.58c.34.42.56.62.67.62s.24-.23.37-.69a5.35,5.35,0,0,0,.18-1.36ZM253,69.68l-.54.39a7.87,7.87,0,0,0-1.38-1.27l.5-.42A6.11,6.11,0,0,1,253,69.68Z"/><path class="cls-106" d="M259.26,78.63h-.61v-1h-2.6v1.3h-.61V70.23h1.12a11.44,11.44,0,0,0,.86-2.1l.6.13a19.23,19.23,0,0,1-.82,2h2.06Zm-.61-5.17V70.84h-2.6v2.62Zm0,3.5V74.08h-2.6V77Zm6.64-6.72c0,1.83-.13,3.52-.26,5.09a12.46,12.46,0,0,1-.38,2.77,1.24,1.24,0,0,1-.5.59,2.48,2.48,0,0,1-1.15.18l-1,0-.19-.62,1.06,0h.69a.59.59,0,0,0,.31-.15.93.93,0,0,0,.24-.33,10.16,10.16,0,0,0,.18-1.4c.08-.81.15-1.71.2-2.68s.09-1.92.11-2.84h-3.14A16.8,16.8,0,0,1,260,73.25l-.49-.35a13.16,13.16,0,0,0,2.24-4.68l.61.16q-.3,1-.66,1.86Zm-2.21,5.47-.51.36a13,13,0,0,0-1.75-2.84l.52-.34A12.2,12.2,0,0,1,263.08,75.71Z"/><path class="cls-106" d="M158,92.54l-.2.61h-4.4a5.39,5.39,0,0,1-4.12-1.36,9.28,9.28,0,0,1-1.45,1.65L147.4,93a7,7,0,0,0,2.38-3.94h-2V88.5c.61-.7,1.25-1.53,1.92-2.47h-2.11v-.62h2.84V86c-.39.55-1,1.37-1.84,2.43h1.86v.62a9.48,9.48,0,0,1-.8,2.2,4.79,4.79,0,0,0,3.64,1.26Zm-8-8-.46.44a8.31,8.31,0,0,0-1.73-1.79l.43-.44A10.58,10.58,0,0,1,150,84.56ZM158,90.71h-3.15v1.35h-.63V90.71H151v-.6h3.16v-1h-2.66v-4h2.66v-.95h-3v-.59h3v-1h.63v1h3v.59h-3v.95h2.69v4h-2.69v1H158Zm-3.78-3.85v-1h-2.05v1Zm0,1.72V87.45h-2.05v1.13Zm2.71-1.72v-1h-2.08v1Zm0,1.72V87.45h-2.08v1.13Z"/><path class="cls-106" d="M160.73,90.42a14.1,14.1,0,0,1-.77,3l-.58-.31a12,12,0,0,0,.76-2.76Zm3-5.49a21.38,21.38,0,0,1-3.16,4.27,10.6,10.6,0,0,0,1.95-.46,5.16,5.16,0,0,0-.31-.77l.58-.13a10.27,10.27,0,0,1,.69,1.83l-.57.23c0-.15-.1-.36-.18-.62a14.27,14.27,0,0,1-3.1.66l-.14-.49a26.15,26.15,0,0,0,2.42-2.8,17.76,17.76,0,0,1-2.1.27l0-.51a12.67,12.67,0,0,0,2.16-3.69l.62.23a13.91,13.91,0,0,1-1.85,3.24,7.83,7.83,0,0,0,1.68-.25,10.26,10.26,0,0,0,.73-1.26ZM162.3,93l-.65.16a15.16,15.16,0,0,0-.28-2.74l.59-.06A15.64,15.64,0,0,1,162.3,93Zm1.45-1.43-.56.14a6.18,6.18,0,0,0-.56-1.42l.59-.09A6.66,6.66,0,0,1,163.75,91.57Zm2.14-2.89A5.49,5.49,0,0,1,163.52,93l-.4-.51a4.52,4.52,0,0,0,2.09-3.23h-1.43v-.59ZM170,92.39l-.45.49a7.6,7.6,0,0,1-2.51-2.65v2.26a.93.93,0,0,1-.24.65,1.61,1.61,0,0,1-1.14.27c-.21,0-.39,0-.55,0l-.21-.61.69,0a1.72,1.72,0,0,0,.67-.08.31.31,0,0,0,.13-.28V87.66h-2.33V83.87h1.61a8.46,8.46,0,0,0,.67-1.22l.6.26a5.51,5.51,0,0,1-.56,1h2.88v3.79h-2.22v1.39a3.84,3.84,0,0,0,.34.68,7,7,0,0,0,1.48-1.5l.43.49a10.82,10.82,0,0,1-1.57,1.52A8.1,8.1,0,0,0,170,92.39Zm-1.38-6.93v-1h-3.94v1Zm0,1.63v-1h-3.94v1Z"/><path class="cls-106" d="M181.79,92.89l-.41.58a10.57,10.57,0,0,1-3.06-2,6.51,6.51,0,0,1-1.78-2.64q-.87,2.93-4.93,4.63l-.37-.61a8.85,8.85,0,0,0,3-1.73,5.06,5.06,0,0,0,1.64-2.54h-4.5V88h4.66c.08-.53.14-1.36.19-2.49h-3A7.83,7.83,0,0,1,172,87l-.55-.42A8.46,8.46,0,0,0,173.7,83l.63.18c-.2.5-.43,1-.71,1.61h2.64c0-.64.06-1.35.05-2.11H177c0,.75,0,1.46-.05,2.11h3.91v.63h-3.91c0,.86-.11,1.69-.2,2.49h4.87v.64h-4.43Q178.13,91.43,181.79,92.89Z"/><path class="cls-106" d="M187.77,90.36h-2.91l.45.24a9.4,9.4,0,0,1-1.55,2.82l-.48-.42a8.94,8.94,0,0,0,1.45-2.64h-.9V83.12h3.94Zm-.62-5.08V83.76h-2.72v1.52Zm0,2.23V85.87h-2.72v1.64Zm0,2.22V88.1h-2.72v1.63Zm.83,2.56-.52.43a8.23,8.23,0,0,0-1.23-1.66l.47-.4A8.55,8.55,0,0,1,188,92.29Zm5.82.59-.4.59a7.83,7.83,0,0,1-2.49-1.79,9.48,9.48,0,0,1-2.5,1.77l-.48-.52a7.22,7.22,0,0,0,2.55-1.76,8.6,8.6,0,0,1-1.21-3.5l.58-.18a8,8,0,0,0,1.05,3.13,9.61,9.61,0,0,0,1.31-5.35H190a8.77,8.77,0,0,1-1.41,2.62l-.5-.39A10.46,10.46,0,0,0,190,82.69l.59.13a12.76,12.76,0,0,1-.39,1.83h3.54v.62h-.83a10.22,10.22,0,0,1-1.56,5.9A7,7,0,0,0,193.8,92.88Z"/><path class="cls-106" d="M32.29,232.12a7.08,7.08,0,0,1-1,2.72l-.54-.38a4.61,4.61,0,0,0,.74-1.72H30.17v4.92a.83.83,0,0,1-.27.6,3,3,0,0,1-1.7.2l-.17-.61h1.26a.3.3,0,0,0,.21-.13.33.33,0,0,0,.1-.22v-4.75H27.71v-.62h2.62a14.17,14.17,0,0,0-2.2-1.85l.34-.46c.27.17.66.46,1.19.87a11,11,0,0,0,1.41-1.63H28v-.59h3.84v.59a19.73,19.73,0,0,1-1.7,2,6.29,6.29,0,0,1,.78.79l-.21.25Zm5.86-3.2H35.48a8.87,8.87,0,0,1-.38,1.37h2.47v5.83H34.44l.38.38a9.91,9.91,0,0,1-2.51,2.1l-.41-.54a8.58,8.58,0,0,0,2.42-1.94H32.79v-5.83h1.66a7.44,7.44,0,0,0,.4-1.37H32.37v-.6h5.78ZM37,232v-1.08H33.4V232Zm0,1.74v-1.16H33.4v1.16Zm0,1.81v-1.24H33.4v1.24ZM38.11,238l-.39.5a12.21,12.21,0,0,0-2.27-1.6l.39-.47A14.77,14.77,0,0,1,38.11,238Z"/><path class="cls-106" d="M50.07,235.88a6.64,6.64,0,0,1-.32,1.76,1.18,1.18,0,0,1-.54.54,6.53,6.53,0,0,1-1.94.16,5.63,5.63,0,0,1-.94-.05A.77.77,0,0,1,46,238a.82.82,0,0,1-.16-.55v-4.15H43.64c0,2.38-1.16,4.1-3.63,5.14l-.4-.56a6.19,6.19,0,0,0,2.45-1.64,4.09,4.09,0,0,0,.91-2.94H39.75l0-.63h4.79v-2.13H41.85a11.08,11.08,0,0,1-1.29,1.57l-.57-.39a10.63,10.63,0,0,0,2.4-3.53l.63.21a7.12,7.12,0,0,1-.77,1.5h2.27V228h.67v1.93h4.22v.64H45.19v2.13h4.74v.63H46.42v4a.28.28,0,0,0,.15.29,4.68,4.68,0,0,0,1.1.07,3.48,3.48,0,0,0,1.24-.12.87.87,0,0,0,.33-.5,6.9,6.9,0,0,0,.19-1.44Z"/><path class="cls-106" d="M57.09,229h-1.8v1.55h1.45v7.93h-.6v-.7H52.59v.69H52v-7.92h1.46V229H51.62v-.57h5.47Zm-1,8.19v-3.08h-.55c-.59,0-.89-.26-.89-.8V231.1H54c0,1.82-.36,3.08-1.12,3.76l-.25-.22v2.52ZM53.4,231.1h-.8v3.14A4.69,4.69,0,0,0,53.4,231.1Zm2.23,4.74H53.05v-.55h2.58Zm-.93-5.32V229H54v1.55Zm1.44,3V231.1h-.85v2.08c0,.2.11.3.34.3ZM62,235.74a6.9,6.9,0,0,1-.25,1.93.92.92,0,0,1-.51.5,5.46,5.46,0,0,1-1.47.12,13.56,13.56,0,0,1-1.5,0,.72.72,0,0,1-.41-.25,1,1,0,0,1-.18-.63v-5.28h3.2V229H57.52v-.6h4v4.32H58.3v4.64a.32.32,0,0,0,.1.23.4.4,0,0,0,.29.11h2c.36,0,.58-.2.66-.62a8,8,0,0,0,.11-1.49Z"/><path class="cls-106" d="M74,238.23H63.61v-.52H65v-5.06h2.79l.3-.85H63.7v-.54h4.6l.23-.79H64.18v-2.15h9.19v2.15H69.18l-.24.79h4.87v.54H68.75l-.28.85h4.09v5.06H74ZM67,230v-1.15H64.79V230ZM72,233.89v-.74H65.64v.74Zm0,1.23v-.74H65.64v.74Zm0,1.31v-.83H65.64v.83Zm0,1.28v-.78H65.64v.78Zm-2-7.73v-1.15H67.66V230Zm2.84,0v-1.15H70.53V230Z"/><path class="cls-106" d="M79.69,238.26h-.61v-1H76.49v1.27h-.61V230H77a11.27,11.27,0,0,0,.85-2.06l.6.13c-.14.42-.41,1.06-.81,1.93h2Zm-.61-5.08v-2.57H76.49v2.57Zm0,3.44v-2.83H76.49v2.83Zm6.61-6.6c0,1.79-.13,3.46-.26,5a12.11,12.11,0,0,1-.38,2.72,1.3,1.3,0,0,1-.49.58,2.72,2.72,0,0,1-1.15.17l-1,0-.19-.61c.33,0,.68,0,1.06,0H84a.62.62,0,0,0,.32-.15.79.79,0,0,0,.23-.32,8.91,8.91,0,0,0,.19-1.38c.08-.79.14-1.67.19-2.62s.09-1.89.11-2.79H81.9A16,16,0,0,1,80.45,233l-.49-.34a12.86,12.86,0,0,0,2.23-4.6l.61.15a18.72,18.72,0,0,1-.65,1.83Zm-2.2,5.37-.51.35A12.09,12.09,0,0,0,81.24,233l.52-.34A12.07,12.07,0,0,1,83.49,235.39Z"/><path class="cls-106" d="M98,237.42l-.44.49a12.55,12.55,0,0,1-4.36-4.75h-.09v5.35h-.63v-5.35h-.06a11.42,11.42,0,0,1-4.48,4.73l-.43-.52a9.73,9.73,0,0,0,4.22-4.21H87.6v-.61h4.86v-2.33h-4.2v-.62h4.2V228h.62v1.6h4.17v.62H93.08v2.33h4.78v.61h-4A11.51,11.51,0,0,0,98,237.42Z"/><path class="cls-106" d="M102.41,228.26c-.08.26-.24.68-.48,1.24l-.35.83v8.22H101v-7a12.86,12.86,0,0,1-1.26,1.86l-.34-.58a17.32,17.32,0,0,0,2.5-4.78Zm7.5,1.65h-3.54v1.41h2.95v3.09h-3a5.12,5.12,0,0,1-.6,2.3,11.08,11.08,0,0,0,4.19,1.22l-.24.61a11.22,11.22,0,0,1-4.32-1.32,4.62,4.62,0,0,1-3,1.35l-.25-.56a4.55,4.55,0,0,0,2.73-1.15,7.25,7.25,0,0,1-1.71-1.7l.53-.3a6.63,6.63,0,0,0,1.53,1.51,4.27,4.27,0,0,0,.53-2h-3v-3.09h3v-1.41h-3.39v-.59h3.39v-1.21h.64v1.21h3.54Zm-4.2,2h-2.34v1.89h2.32C105.71,233.12,105.72,232.48,105.71,231.92Zm3,1.89v-1.89h-2.32q0,.93,0,1.89Z"/><path class="cls-106" d="M121.29,237.64a.68.68,0,0,1-.35.67,3.82,3.82,0,0,1-1.56.2h-.53l-.2-.66c.3,0,.59,0,.87,0a3.89,3.89,0,0,0,1-.07.24.24,0,0,0,.14-.23v-2.89h-3.39v3.51h-.65v-3.51h-3.42a8,8,0,0,1-1.23,3.77l-.56-.39a7.56,7.56,0,0,0,1.21-4.31v-5.5h8.68Zm-4.68-6.55v-2.18h-3.35v2.18Zm0,3v-2.32h-3.35v2.32Zm4-3v-2.18h-3.39v2.18Zm0,3v-2.32h-3.39v2.32Z"/><path class="cls-106" d="M126.29,236.32a3.13,3.13,0,0,0,1.1.58,4.48,4.48,0,0,0,1.33.23q2,0,2-1.44a1.27,1.27,0,0,0-.21-.72,1.77,1.77,0,0,0-.55-.54,14.1,14.1,0,0,0-1.38-.76,5.25,5.25,0,0,1-1.86-1.32,2.14,2.14,0,0,1-.39-1.26,2.06,2.06,0,0,1,.88-1.75,3.67,3.67,0,0,1,2.24-.66,4.09,4.09,0,0,1,1.93.33v1.15a3.53,3.53,0,0,0-2.06-.55,2.49,2.49,0,0,0-1.4.36,1.17,1.17,0,0,0-.55,1,1.37,1.37,0,0,0,.19.71,1.84,1.84,0,0,0,.52.52,14.16,14.16,0,0,0,1.28.7,6,6,0,0,1,1.87,1.29,2.23,2.23,0,0,1-.31,3.19,3.89,3.89,0,0,1-2.36.63,6.45,6.45,0,0,1-1.21-.15,2.94,2.94,0,0,1-1-.37Z"/><path class="cls-106" d="M140.79,237.89h-1.25l-4.73-7.31a3.55,3.55,0,0,1-.28-.55h0a9.73,9.73,0,0,1,0,1.22v6.64h-1v-9h1.32l4.6,7.23a5.06,5.06,0,0,1,.37.62h0a9.13,9.13,0,0,1-.07-1.36v-6.49h1Z"/><path class="cls-106" d="M150.12,237.89H149l-1-2.57h-3.88l-.92,2.57H142.1l3.49-9h1Zm-2.43-3.48-1.46-3.91a4.23,4.23,0,0,1-.13-.6h0a2.59,2.59,0,0,1-.15.6l-1.43,3.91Z"/><path class="cls-106" d="M155.8,229.75h-2.62v8.14h-1v-8.14h-2.62v-.91h6.24Z"/><path class="cls-106" d="M170.29,237.67l-.19.6h-4.38a5.48,5.48,0,0,1-4.12-1.33,8.62,8.62,0,0,1-1.44,1.62l-.47-.41a7,7,0,0,0,2.38-3.87h-2v-.57q.92-1,1.92-2.43h-2.11v-.6h2.83v.6q-.59.83-1.83,2.4h1.85v.6a8.42,8.42,0,0,1-.8,2.16,4.85,4.85,0,0,0,3.63,1.23Zm-8-7.82-.47.42a8.33,8.33,0,0,0-1.71-1.76l.43-.42A11.17,11.17,0,0,1,162.31,229.85Zm7.9,6h-3.13v1.32h-.63v-1.32H163.3v-.59h3.15v-.93h-2.66v-3.88h2.66v-.93h-3V229h3V228h.63V229h3v.58h-3v.93h2.68v3.88h-2.68v.93h3.13Zm-3.76-3.78v-1h-2v1Zm0,1.69v-1.11h-2v1.11Zm2.7-1.69v-1h-2.07v1Zm0,1.69v-1.11h-2.07v1.11Z"/><path class="cls-106" d="M175.12,230.79H174v2.41a7.37,7.37,0,0,0,1.06-.44l.09.63-1.15.47v3.81a.77.77,0,0,1-.88.87l-.91,0-.21-.66.69,0a1.31,1.31,0,0,0,.59-.08.26.26,0,0,0,.12-.23v-3.46l-1.47.48-.13-.61c.47-.13,1-.31,1.6-.53v-2.66h-1.58v-.62h1.58V228h.6v2.13h1.17Zm7.06,3.8h-1.59a5.39,5.39,0,0,1-1.26,2,22.74,22.74,0,0,1,2.78,1.51l-.36.5a17.54,17.54,0,0,0-2.9-1.57,10.1,10.1,0,0,1-3.76,1.48l-.38-.56a9.43,9.43,0,0,0,3.43-1.19c-.43-.2-1.09-.45-2-.75.23-.34.53-.83.88-1.45h-1.77V234h2.1a12.09,12.09,0,0,0,.6-1.26l.6.17a10.1,10.1,0,0,1-.51,1.09h2.06a4.76,4.76,0,0,0,.2-.68l.59.1a4.26,4.26,0,0,1-.14.58h1.4Zm0-2.1h-6.85v-.6h1.94a9.12,9.12,0,0,0-.6-1.87h-1.14v-.58h2.94a4.4,4.4,0,0,0-.47-1.18l.55-.27a6.93,6.93,0,0,1,.61,1.45h2.78V230h-1c-.21.68-.42,1.31-.64,1.87h1.92Zm-2.24,2.1h-2.16c-.26.47-.48.85-.67,1.14.44.15,1,.37,1.65.64A5.27,5.27,0,0,0,179.92,234.59Zm.3-4.57h-2.9a15,15,0,0,1,.57,1.87h1.72A17.83,17.83,0,0,0,180.22,230Z"/><path class="cls-106" d="M187.09,235.24c-1.23.69-2.33,1.26-3.3,1.69l-.07-.63c.66-.31,1.16-.55,1.48-.74v-3.74h-1.38v-.6h1.38V228h.61v3.21h1.26v.59h-1.26v3.42c.25-.11.64-.33,1.17-.64Zm7.07,1.23h-3.37v2h-.63v-2h-3.24v-.59h3.22v-1.25h-2.57v-5.72h1.78a6.15,6.15,0,0,0,.41-.92l.59.17c-.11.26-.21.51-.32.75h3.39v2.33h-5.25v1h5.36v2.43h-2.74v1.25h3.37Zm-1.37-5.82v-1.13h-4.62v1.13Zm.13,3.4v-1.26h-4.75v1.26Z"/><path class="cls-106" d="M243.84,236a15.51,15.51,0,0,1-1.73,2.53l-.49-.38a12.19,12.19,0,0,0,1.68-2.44Zm8.22-.73H241.64v-.6h1.78v-2h-1.54V232h1.54v-1.45H244V232h1.55v-1.45h.61V232h1.56v-1.45h.6V232h1.59v-1.45h.59V232h1.3v.62h-1.3v2h1.53Zm-.42-5.21h-8.2a7.33,7.33,0,0,1-1.22,1.06l-.48-.43a12,12,0,0,0,2.61-2.63l.62.23q-.43.58-1,1.2h7.63Zm-6.06,4.61v-2H244v2Zm.48,3.75-.61.11a11.75,11.75,0,0,0-.38-2.61l.61-.14A13.66,13.66,0,0,1,246.06,238.37Zm1.69-3.75v-2h-1.56v2Zm1.32,3.67-.59.22a15.27,15.27,0,0,0-.94-2.58l.58-.22A14.06,14.06,0,0,1,249.07,238.29Zm.87-3.67v-2h-1.59v2Zm2.11,3.59-.55.29A13,13,0,0,0,250,236l.57-.29A15.22,15.22,0,0,1,252.05,238.21Z"/><path class="cls-106" d="M256.15,234.46a21.83,21.83,0,0,1-2.13,4l-.53-.38a19,19,0,0,0,2.15-4Zm0-1.9-.44.48a9.33,9.33,0,0,0-2-1.56l.38-.49A9.86,9.86,0,0,1,256.13,232.56Zm.23-3-.44.44a10.15,10.15,0,0,0-1.95-1.55l.4-.47A10,10,0,0,1,256.36,229.6Zm7.66,3.82h-3.76a20.51,20.51,0,0,1-2.61,4.1,39.3,39.3,0,0,0,4.82-.82,15.68,15.68,0,0,0-1.3-1.87l.53-.32a21.11,21.11,0,0,1,2.29,3.68l-.53.37a8.59,8.59,0,0,0-.68-1.33q-2.65.59-5.92,1l-.25-.65a4,4,0,0,0,1.38-1.43,19.26,19.26,0,0,0,1.54-2.7h-2.94v-.59H260v-2.36h-2.89v-.6H260V228h.61v1.86h2.84v.6h-2.84v2.36H264Z"/><path class="cls-106" d="M268.48,228.26c-.08.26-.24.68-.48,1.24l-.35.83v8.22H267v-7a12.86,12.86,0,0,1-1.26,1.86l-.34-.58a17,17,0,0,0,2.5-4.78Zm7.5,1.65h-3.54v1.41h3v3.09h-3a5.25,5.25,0,0,1-.61,2.3,11.08,11.08,0,0,0,4.19,1.22l-.24.61a11.22,11.22,0,0,1-4.32-1.32,4.6,4.6,0,0,1-3,1.35l-.25-.56a4.61,4.61,0,0,0,2.74-1.15,7.31,7.31,0,0,1-1.72-1.7l.53-.3a6.63,6.63,0,0,0,1.53,1.51,4.27,4.27,0,0,0,.53-2h-3v-3.09h3v-1.41h-3.4v-.59h3.4v-1.21h.63v1.21H276Zm-4.2,2h-2.33v1.89h2.31C271.79,233.12,271.79,232.48,271.78,231.92Zm3,1.89v-1.89h-2.31c0,.62,0,1.25,0,1.89Z"/><path class="cls-106" d="M287.37,237.64a.7.7,0,0,1-.35.67,3.88,3.88,0,0,1-1.57.2h-.53l-.19-.66c.29,0,.58,0,.86,0a4.06,4.06,0,0,0,1-.07.25.25,0,0,0,.14-.23v-2.89h-3.39v3.51h-.65v-3.51h-3.42a8,8,0,0,1-1.24,3.77l-.56-.39a7.48,7.48,0,0,0,1.21-4.31v-5.5h8.69Zm-4.68-6.55v-2.18h-3.36v2.18Zm0,3v-2.32h-3.36v2.32Zm4-3v-2.18h-3.39v2.18Zm0,3v-2.32h-3.39v2.32Z"/><path class="cls-106" d="M293.59,238.26H293v-1H290.4v1.27h-.61V230h1.11a11.22,11.22,0,0,0,.86-2.06l.6.13c-.15.42-.42,1.06-.82,1.93h2Zm-.6-5.08v-2.57H290.4v2.57Zm0,3.44v-2.83H290.4v2.83Zm6.61-6.6c-.05,1.79-.13,3.46-.26,5a13.55,13.55,0,0,1-.38,2.72,1.32,1.32,0,0,1-.5.58,2.64,2.64,0,0,1-1.14.17l-1,0-.19-.61c.32,0,.68,0,1.06,0h.68a.59.59,0,0,0,.31-.15.82.82,0,0,0,.24-.32,9.62,9.62,0,0,0,.18-1.38c.08-.79.15-1.67.2-2.62s.09-1.89.11-2.79h-3.13a16.89,16.89,0,0,1-1.45,2.37l-.49-.34a12.86,12.86,0,0,0,2.23-4.6l.61.15q-.3,1-.66,1.83Zm-2.21,5.37-.5.35a12.82,12.82,0,0,0-1.74-2.78l.52-.34A12,12,0,0,1,297.39,235.39Z"/><path class="cls-106" d="M304.33,236.32a3,3,0,0,0,1.09.58,4.48,4.48,0,0,0,1.33.23q2,0,2-1.44a1.27,1.27,0,0,0-.21-.72,1.77,1.77,0,0,0-.55-.54,14.85,14.85,0,0,0-1.37-.76,5.22,5.22,0,0,1-1.87-1.32,2.14,2.14,0,0,1-.39-1.26,2,2,0,0,1,.89-1.75,3.64,3.64,0,0,1,2.23-.66,4.09,4.09,0,0,1,1.93.33v1.15a3.53,3.53,0,0,0-2.06-.55,2.49,2.49,0,0,0-1.4.36,1.19,1.19,0,0,0-.55,1,1.28,1.28,0,0,0,.2.71,1.8,1.8,0,0,0,.51.52,14.16,14.16,0,0,0,1.28.7,6,6,0,0,1,1.87,1.29,2.23,2.23,0,0,1-.31,3.19,3.87,3.87,0,0,1-2.36.63,6.45,6.45,0,0,1-1.21-.15,2.8,2.8,0,0,1-1-.37Z"/><path class="cls-106" d="M318.82,237.89h-1.25l-4.73-7.31a3.55,3.55,0,0,1-.28-.55h0a9.73,9.73,0,0,1,.05,1.22v6.64h-1v-9h1.32l4.6,7.23a5.06,5.06,0,0,1,.37.62h0a9.13,9.13,0,0,1-.07-1.36v-6.49h1Z"/><path class="cls-106" d="M328.15,237.89H327l-1-2.57h-3.89l-.92,2.57h-1.11l3.49-9h1Zm-2.43-3.48-1.46-3.91c0-.11-.08-.31-.13-.6h0a2.59,2.59,0,0,1-.15.6l-1.43,3.91Z"/><path class="cls-106" d="M333.83,229.75h-2.62v8.14h-1v-8.14H327.6v-.91h6.23Z"/><path class="cls-106" d="M348.33,237.67l-.2.6h-4.38a5.44,5.44,0,0,1-4.11-1.33,8.65,8.65,0,0,1-1.45,1.62l-.46-.41a6.93,6.93,0,0,0,2.37-3.87h-2v-.57q.92-1,1.92-2.43h-2.11v-.6h2.83v.6q-.57.83-1.83,2.4h1.86v.6a8.78,8.78,0,0,1-.81,2.16,4.87,4.87,0,0,0,3.64,1.23Zm-8-7.82-.46.42a8.68,8.68,0,0,0-1.72-1.76l.43-.42A10.76,10.76,0,0,1,340.34,229.85Zm7.9,6h-3.13v1.32h-.63v-1.32h-3.15v-.59h3.15v-.93h-2.65v-3.88h2.65v-.93h-3V229h3V228h.63V229h3v.58h-3v.93h2.68v3.88h-2.68v.93h3.13Zm-3.76-3.78v-1h-2v1Zm0,1.69v-1.11h-2v1.11Zm2.7-1.69v-1h-2.07v1Zm0,1.69v-1.11h-2.07v1.11Z"/><path class="cls-106" d="M353.15,230.79H352v2.41a7.87,7.87,0,0,0,1.05-.44l.09.63-1.14.47v3.81a.78.78,0,0,1-.89.87l-.91,0-.21-.66.69,0a1.4,1.4,0,0,0,.6-.08.27.27,0,0,0,.11-.23v-3.46l-1.47.48-.13-.61c.47-.13,1-.31,1.6-.53v-2.66H349.8v-.62h1.58V228H352v2.13h1.16Zm7.06,3.8h-1.59a5.39,5.39,0,0,1-1.26,2,22.74,22.74,0,0,1,2.78,1.51l-.36.5a17.54,17.54,0,0,0-2.9-1.57,10,10,0,0,1-3.76,1.48l-.38-.56a9.36,9.36,0,0,0,3.43-1.19c-.43-.2-1.09-.45-2-.75.23-.34.52-.83.87-1.45h-1.76V234h2.09a12.09,12.09,0,0,0,.6-1.26l.6.17a8.49,8.49,0,0,1-.51,1.09h2.06a4.76,4.76,0,0,0,.2-.68l.6.1c0,.15-.08.34-.15.58h1.4Zm0-2.1h-6.85v-.6h1.94a9.79,9.79,0,0,0-.59-1.87h-1.15v-.58h2.94a4.4,4.4,0,0,0-.47-1.18l.56-.27a6.91,6.91,0,0,1,.6,1.45H360V230h-1c-.2.68-.42,1.31-.64,1.87h1.92Zm-2.24,2.1h-2.16c-.26.47-.48.85-.67,1.14.44.15,1,.37,1.65.64A5.27,5.27,0,0,0,358,234.59Zm.3-4.57h-2.9a15,15,0,0,1,.57,1.87h1.72A17.83,17.83,0,0,0,358.25,230Z"/><path class="cls-106" d="M365.12,235.24c-1.23.69-2.33,1.26-3.3,1.69l-.07-.63c.67-.31,1.16-.55,1.49-.74v-3.74h-1.39v-.6h1.39V228h.6v3.21h1.26v.59h-1.26v3.42c.25-.11.64-.33,1.17-.64Zm7.08,1.23h-3.38v2h-.63v-2H365v-.59h3.22v-1.25H365.6v-5.72h1.78a5.28,5.28,0,0,0,.41-.92l.59.17c-.11.26-.21.51-.32.75h3.39v2.33H366.2v1h5.36v2.43h-2.74v1.25h3.38Zm-1.38-5.82v-1.13H366.2v1.13Zm.13,3.4v-1.26H366.2v1.26Z"/><path class="cls-106" d="M378.67,240a8.06,8.06,0,0,1-2-5.52,8.31,8.31,0,0,1,2-5.59h.89a8.47,8.47,0,0,0-2,5.58,8.34,8.34,0,0,0,2,5.53Z"/><path class="cls-106" d="M385.19,229.64a13.93,13.93,0,0,1-2,.35v1.08h1.71v.57h-1.71v1.19h2v.59h-2v.15a12.65,12.65,0,0,1,1.92,2.31l-.49.4a10.28,10.28,0,0,0-1.43-1.91v4.14h-.62v-3.84a10.07,10.07,0,0,1-1.67,2.6l-.4-.52a10.51,10.51,0,0,0,2-3.33h-2v-.59h2v-1.19h-1.79v-.57h1.79v-1c-.75.05-1.35.07-1.8.07l-.21-.61c.9,0,1.57,0,2-.08v-1.39h.62v1.32a12.69,12.69,0,0,0,1.76-.31Zm5.74,6.4a5.63,5.63,0,0,1-.26,1.68,1,1,0,0,1-.46.51,3.35,3.35,0,0,1-1.17.13,6.64,6.64,0,0,1-1.16-.05.73.73,0,0,1-.4-.24.7.7,0,0,1-.17-.47v-2.9l-1.91.35-.11-.57,2-.36v-2l-1.86.33-.1-.58,2-.36V229.6c-.52.11-1.05.2-1.61.28l-.29-.58a16.49,16.49,0,0,0,4.61-1.21l.36.51a18.07,18.07,0,0,1-2.45.83v1.95l2.4-.45.09.57-2.49.47v2l2.8-.54.12.56-2.92.57v2.88a.27.27,0,0,0,.13.24,2.23,2.23,0,0,0,.87.09,3.16,3.16,0,0,0,.94-.09c.15-.05.27-.28.34-.69a8.4,8.4,0,0,0,.12-1.21Z"/><path class="cls-106" d="M394.6,234.15a6.85,6.85,0,0,1-1.73,1.45l-.49-.41a6.16,6.16,0,0,0,1.72-1.36Zm8.25-.72H392.46v-.57h4.86V232h-4.07v-.56h4.07v-.81h-4.88v-.55h4.88v-.79h-4.09v-.56h4.09v-.68H398v.68h3.85v1.35h1v.55h-1V232H398v.85h4.89Zm0,4.78H392.46v-.56h1.29v-2.1h7.81v2.1h1.28Zm-6.73-.56v-1.52h-1.76v1.52Zm.89-2.56-.58.16a8.21,8.21,0,0,0-.54-1.27l.58-.17A6.31,6.31,0,0,1,397,235.09Zm1.56,2.56v-1.52h-1.82v1.52Zm2.61-7.56v-.79H398v.79Zm0,1.36v-.81H398v.81Zm-1.7,3.63-.57.15a6.68,6.68,0,0,0-.52-1.26l.52-.2A5.45,5.45,0,0,1,399.47,235.08Zm1.46,2.57v-1.52h-1.76v1.52Zm1.91-2.35-.48.37a9.48,9.48,0,0,0-1.59-1.48l.45-.38A10,10,0,0,1,402.84,235.3Z"/><path class="cls-106" d="M403.72,240a8.78,8.78,0,0,0,0-11.11h.9a8.31,8.31,0,0,1,2,5.59,8.07,8.07,0,0,1-2,5.52Z"/><path class="cls-106" d="M38,251a5.64,5.64,0,0,1-.46,2.53,1.37,1.37,0,0,1-1.07.5q-.72.06-4.17.06H30.11a1.34,1.34,0,0,1-1-.33,1.38,1.38,0,0,1-.29-.95v-5.91h.65v1.52h7v-3.59H28.09v-.64h9V249H29.49v4a.47.47,0,0,0,.12.31.43.43,0,0,0,.3.16c.11,0,.77,0,2,0a35.33,35.33,0,0,0,5-.16c.32-.11.5-1,.53-2.55Z"/><path class="cls-106" d="M42.62,244.05c-.08.26-.24.67-.48,1.24l-.36.83v8.22h-.61v-7a12.86,12.86,0,0,1-1.26,1.86l-.35-.58a17,17,0,0,0,2.51-4.78Zm7.5,1.64H46.58v1.42h3v3.08h-3a5.26,5.26,0,0,1-.6,2.31,11.08,11.08,0,0,0,4.19,1.22l-.24.61A11.22,11.22,0,0,1,45.55,253a4.62,4.62,0,0,1-3,1.35l-.25-.57A4.49,4.49,0,0,0,45,252.65a7.07,7.07,0,0,1-1.71-1.7l.52-.3a6.92,6.92,0,0,0,1.54,1.51,4.28,4.28,0,0,0,.53-2h-3v-3.08h3v-1.42H42.55v-.58h3.39V243.9h.64v1.21h3.54Zm-4.2,2H43.58v1.9H45.9C45.92,248.9,45.93,248.27,45.92,247.7Zm3,1.9v-1.9H46.59c0,.62,0,1.26,0,1.9Z"/><path class="cls-106" d="M61.5,253.43a.69.69,0,0,1-.35.67,3.82,3.82,0,0,1-1.56.2h-.54l-.19-.66c.3,0,.59,0,.87,0a3.89,3.89,0,0,0,1-.07.24.24,0,0,0,.14-.23v-2.89H57.47V254h-.65v-3.51H53.4a8,8,0,0,1-1.23,3.77l-.57-.39a7.49,7.49,0,0,0,1.22-4.31v-5.5H61.5Zm-4.68-6.55V244.7H53.47v2.18Zm0,3v-2.32H53.47v2.32Zm4-3V244.7H57.47v2.18Zm0,3v-2.32H57.47v2.32Z"/><path class="cls-106" d="M67.73,254.05h-.61v-1H64.54v1.27h-.61V245.8H65a10.61,10.61,0,0,0,.85-2.06l.6.13c-.14.42-.41,1.06-.81,1.93h2ZM67.12,249V246.4H64.54V249Zm0,3.44v-2.84H64.54v2.84Zm6.62-6.6c0,1.79-.14,3.46-.26,5a12.48,12.48,0,0,1-.39,2.72,1.3,1.3,0,0,1-.49.58,2.69,2.69,0,0,1-1.15.17l-1,0-.2-.61c.33,0,.68,0,1.06,0H72a.62.62,0,0,0,.32-.15.71.71,0,0,0,.23-.32,8.91,8.91,0,0,0,.19-1.38c.08-.79.14-1.67.19-2.62s.09-1.89.11-2.79H70a16.06,16.06,0,0,1-1.46,2.37l-.49-.35a12.54,12.54,0,0,0,2.23-4.6l.61.16a18.72,18.72,0,0,1-.65,1.83Zm-2.21,5.37-.51.35a12.38,12.38,0,0,0-1.73-2.78l.51-.34A11.74,11.74,0,0,1,71.53,251.18Z"/><path class="cls-106" d="M78.46,252.11a3,3,0,0,0,1.1.58,4.47,4.47,0,0,0,1.32.23q2,0,2-1.44a1.26,1.26,0,0,0-.2-.72,1.89,1.89,0,0,0-.55-.54,15.47,15.47,0,0,0-1.38-.76,5.42,5.42,0,0,1-1.87-1.32,2.14,2.14,0,0,1-.39-1.26,2.07,2.07,0,0,1,.89-1.75,3.67,3.67,0,0,1,2.24-.66,4.25,4.25,0,0,1,1.93.32V246a3.55,3.55,0,0,0-2.06-.55,2.54,2.54,0,0,0-1.41.36,1.18,1.18,0,0,0-.54,1,1.28,1.28,0,0,0,.19.71,1.84,1.84,0,0,0,.52.52,12.83,12.83,0,0,0,1.28.7A6,6,0,0,1,83.37,250a2.22,2.22,0,0,1-.31,3.2,3.87,3.87,0,0,1-2.36.63,6.36,6.36,0,0,1-1.2-.15,2.94,2.94,0,0,1-1-.37Z"/><path class="cls-106" d="M93,253.68H91.71L87,246.37a4.77,4.77,0,0,1-.29-.55h0a9.73,9.73,0,0,1,0,1.22v6.64h-1v-9.05H87l4.6,7.23c.23.37.36.58.37.62h0a11.2,11.2,0,0,1-.06-1.36v-6.49h1Z"/><path class="cls-106" d="M102.28,253.68h-1.1l-1-2.57H96.3l-.92,2.57H94.27l3.49-9.05h1Zm-2.43-3.49-1.45-3.91a3.7,3.7,0,0,1-.13-.59h0a2.9,2.9,0,0,1-.15.59l-1.43,3.91Z"/><path class="cls-106" d="M108,245.54h-2.61v8.14h-1v-8.14h-2.61v-.91H108Z"/><path class="cls-106" d="M122.46,253.46l-.2.6h-4.38a5.46,5.46,0,0,1-4.11-1.33,9,9,0,0,1-1.44,1.62l-.47-.41a6.91,6.91,0,0,0,2.37-3.87h-2v-.57q.92-1,1.92-2.43H112v-.6h2.83v.6c-.39.55-1,1.35-1.83,2.39h1.85v.61a9,9,0,0,1-.8,2.16,4.83,4.83,0,0,0,3.63,1.23Zm-8-7.82-.46.42a8.33,8.33,0,0,0-1.71-1.76l.42-.42A10,10,0,0,1,114.47,245.64Zm7.91,6h-3.13V253h-.64v-1.32h-3.14v-.59h3.14v-.93H116v-3.88h2.65v-.93h-3v-.58h3v-.95h.64v.95h3v.58h-3v.93h2.67v3.88h-2.67v.93h3.13Zm-3.77-3.78v-1h-2v1Zm0,1.68v-1.1h-2v1.1Zm2.7-1.68v-1h-2.06v1Zm0,1.68v-1.1h-2.06v1.1Z"/><path class="cls-106" d="M127.29,246.58h-1.17V249a7.53,7.53,0,0,0,1.06-.43l.08.63c-.13.06-.51.22-1.14.46v3.82a.77.77,0,0,1-.88.87l-.92,0-.2-.66.69,0a1.31,1.31,0,0,0,.59-.08.25.25,0,0,0,.11-.23V249.9l-1.46.48-.14-.61c.48-.13,1-.31,1.6-.53v-2.66h-1.57V246h1.57v-2.14h.61V246h1.17Zm7.06,3.8h-1.59a5.65,5.65,0,0,1-1.26,2,23.51,23.51,0,0,1,2.78,1.51l-.36.5a17.54,17.54,0,0,0-2.9-1.57,10.09,10.09,0,0,1-3.77,1.48l-.37-.56a9.43,9.43,0,0,0,3.43-1.19c-.44-.2-1.09-.45-2-.76.23-.33.52-.82.88-1.44h-1.77v-.59h2.09a12.17,12.17,0,0,0,.61-1.26l.59.17a10.77,10.77,0,0,1-.5,1.09h2.06a3.8,3.8,0,0,0,.19-.68l.6.1a3.32,3.32,0,0,1-.15.58h1.41Zm0-2.1h-6.85v-.6h1.94a10.54,10.54,0,0,0-.6-1.87h-1.14v-.58h2.94a4.76,4.76,0,0,0-.47-1.18l.55-.27a7.51,7.51,0,0,1,.61,1.45h2.78v.58H133c-.2.68-.41,1.31-.63,1.87h1.92Zm-2.25,2.1h-2.16q-.37.7-.66,1.14c.44.15,1,.37,1.65.64A5.2,5.2,0,0,0,132.08,250.38Zm.3-4.57h-2.9a13.68,13.68,0,0,1,.58,1.87h1.71A15.76,15.76,0,0,0,132.38,245.81Z"/><path class="cls-106" d="M139.26,251c-1.24.69-2.34,1.26-3.3,1.69l-.08-.63c.67-.31,1.17-.55,1.49-.74v-3.74H136V247h1.39v-3.2H138V247h1.25v.59H138V251c.24-.11.63-.33,1.17-.64Zm7.07,1.23H143v2h-.62v-2h-3.24v-.59h3.21v-1.25h-2.56V244.7h1.77a5.28,5.28,0,0,0,.41-.92l.6.17-.32.75h3.39V247h-5.26v1h5.37v2.43H143v1.25h3.38ZM145,246.44v-1.13h-4.63v1.13Zm.12,3.4v-1.26h-4.75v1.26Z"/></g></svg>