<svg xmlns="http://www.w3.org/2000/svg" xmlns:xlink="http://www.w3.org/1999/xlink" viewBox="0 0 332.33 285.86"><defs><style>.cls-1{fill:#fff;}.cls-2{fill:#ccc;fill-opacity:0.3;}.cls-23,.cls-24,.cls-26,.cls-3,.cls-35,.cls-37,.cls-4,.cls-9{fill:none;stroke-miterlimit:10;}.cls-23,.cls-3,.cls-4{stroke:#3c3c41;}.cls-4{stroke-dasharray:1.31 2.19;}.cls-5,.cls-6,.cls-7,.cls-8{fill:#3c3c41;}.cls-6{opacity:0.05;}.cls-34,.cls-38,.cls-39,.cls-6,.cls-7,.cls-8,.cls-9{isolation:isolate;}.cls-7{opacity:0.2;}.cls-8{opacity:0.02;}.cls-24,.cls-26,.cls-9{stroke:#365615;}.cls-9{stroke-width:0.5px;opacity:0.5;}.cls-10{fill:url(#Degradado_sin_nombre);}.cls-11{fill:#50e6ff;}.cls-12{fill:#c3f1ff;}.cls-13{fill:#9cebff;}.cls-14{fill:url(#Degradado_sin_nombre_2);}.cls-15{fill:url(#Degradado_sin_nombre_3);}.cls-16{fill:url(#Degradado_sin_nombre_4);}.cls-17{fill:#005ba1;}.cls-18{fill:#0078d4;}.cls-19{fill:url(#Degradado_sin_nombre_5);}.cls-20{fill:url(#Degradado_sin_nombre_6);}.cls-21{fill:url(#Degradado_sin_nombre_7);}.cls-22{fill:url(#Degradado_sin_nombre_8);}.cls-23,.cls-26,.cls-37{stroke-dasharray:1.46 2.43;}.cls-25{fill:#365615;}.cls-27{fill:url(#Degradado_sin_nombre_9);}.cls-28{fill:url(#Degradado_sin_nombre_10);}.cls-29{fill:url(#Degradado_sin_nombre_11);}.cls-30{fill:#1490df;}.cls-31{fill:url(#Degradado_sin_nombre_12);}.cls-32{fill:#b4ec36;}.cls-33{fill:#5ea0ef;}.cls-34{fill:#9bf00b;}.cls-34,.cls-38,.cls-39{opacity:0.4;}.cls-35,.cls-37{stroke:#003067;}.cls-36{fill:#003067;}.cls-38{fill:#83b9f9;}.cls-39,.cls-40{fill:#6ebcdb;}.cls-41{fill:#5db4d7;}.cls-42{fill:#e6e6e6;}.cls-43{fill:#86d633;}.cls-44{fill:#1e1e1e;}.cls-45{fill:#767676;}</style><linearGradient id="Degradado_sin_nombre" x1="132.84" y1="445.76" x2="132.84" y2="427" gradientTransform="translate(0 -292.14)" gradientUnits="userSpaceOnUse"><stop offset="0" stop-color="#0078d4"/><stop offset="0.82" stop-color="#5ea0ef"/></linearGradient><linearGradient id="Degradado_sin_nombre_2" x1="132.84" y1="453" x2="132.84" y2="445.76" gradientTransform="translate(0 -292.14)" gradientUnits="userSpaceOnUse"><stop offset="0.15" stop-color="#ccc"/><stop offset="1" stop-color="#707070"/></linearGradient><linearGradient id="Degradado_sin_nombre_3" x1="173.92" y1="445.76" x2="173.92" y2="427" xlink:href="#Degradado_sin_nombre"/><linearGradient id="Degradado_sin_nombre_4" x1="173.94" y1="453" x2="173.94" y2="445.76" xlink:href="#Degradado_sin_nombre_2"/><linearGradient id="Degradado_sin_nombre_5" x1="300.19" y1="433.76" x2="300.19" y2="423.44" xlink:href="#Degradado_sin_nombre"/><linearGradient id="Degradado_sin_nombre_6" x1="300.24" y1="437.77" x2="300.24" y2="433.77" xlink:href="#Degradado_sin_nombre_2"/><linearGradient id="Degradado_sin_nombre_7" x1="252.5" y1="433.76" x2="252.5" y2="415" xlink:href="#Degradado_sin_nombre"/><linearGradient id="Degradado_sin_nombre_8" x1="252.5" y1="441" x2="252.5" y2="433.76" xlink:href="#Degradado_sin_nombre_2"/><linearGradient id="Degradado_sin_nombre_9" x1="75.68" y1="492.87" x2="78.04" y2="495.24" gradientTransform="translate(2.87 -293.36)" gradientUnits="userSpaceOnUse"><stop offset="0" stop-color="#86d633"/><stop offset="0.24" stop-color="#83d232"/><stop offset="0.5" stop-color="#7cc52f"/><stop offset="0.76" stop-color="#6fb02a"/><stop offset="1" stop-color="#5e9624"/></linearGradient><linearGradient id="Degradado_sin_nombre_10" x1="70.33" y1="492.87" x2="72.69" y2="495.24" xlink:href="#Degradado_sin_nombre_9"/><linearGradient id="Degradado_sin_nombre_11" x1="64.99" y1="492.87" x2="67.35" y2="495.24" xlink:href="#Degradado_sin_nombre_9"/><linearGradient id="Degradado_sin_nombre_12" x1="84.67" y1="357.92" x2="84.67" y2="321.98" gradientTransform="translate(0 -292.14)" gradientUnits="userSpaceOnUse"><stop offset="0" stop-color="#5e9624"/><stop offset="0.02" stop-color="#5f9724"/><stop offset="1" stop-color="#76bc2d"/></linearGradient></defs><title>OJ104903191</title><g id="Target"><g id="Shapes"><rect class="cls-1" width="332.33" height="285.86"/><rect class="cls-2" x="176.33" y="210.86" width="155" height="35"/><rect class="cls-2" x="176.33" y="250.86" width="155" height="35"/><line class="cls-3" x1="192.02" y1="260.86" x2="191.27" y2="260.86"/><line class="cls-4" x1="189.08" y1="260.86" x2="183.17" y2="260.86"/><line class="cls-3" x1="182.08" y1="260.86" x2="181.33" y2="260.86"/><polygon class="cls-5" points="191.15 257.86 196.33 260.86 191.15 263.85 191.15 257.86"/><path class="cls-1" d="M331.83,46.5v149a5,5,0,0,1-5,5h-270a5,5,0,0,1-5-5V46.5"/><path class="cls-6" d="M331.83,46.5v149a5,5,0,0,1-5,5h-270a5,5,0,0,1-5-5V46.5"/><path class="cls-5" d="M325.67,201h-1v-1h1Zm-3,0h-1v-1h1Zm-3,0h-1v-1h1Zm-3,0h-1v-1h1Zm-3,0h-1v-1h1Zm-3,0h-1v-1h1Zm-3,0h-1v-1h1Zm-3,0h-1v-1h1Zm-3,0h-1v-1h1Zm-3,0h-1v-1h1Zm-3,0h-1v-1h1Zm-3,0h-1v-1h1Zm-3,0h-1v-1h1Zm-3,0h-1v-1h1Zm-3,0h-1v-1h1Zm-3,0h-1v-1h1Zm-3,0h-1v-1h1Zm-3,0h-1v-1h1Zm-3,0h-1v-1h1Zm-3,0h-1v-1h1Zm-3,0h-1v-1h1Zm-3,0h-1v-1h1Zm-3,0h-1v-1h1Zm-3,0h-1v-1h1Zm-3,0h-1v-1h1Zm-3,0h-1v-1h1Zm-3,0h-1v-1h1Zm-3,0h-1v-1h1Zm-3,0h-1v-1h1Zm-3,0h-1v-1h1Zm-3,0h-1v-1h1Zm-3,0h-1v-1h1Zm-3,0h-1v-1h1Zm-3,0h-1v-1h1Zm-3,0h-1v-1h1Zm-3,0h-1v-1h1Zm-3,0h-1v-1h1Zm-3,0h-1v-1h1Zm-3,0h-1v-1h1Zm-3,0h-1v-1h1Zm-3,0h-1v-1h1Zm-3,0h-1v-1h1Zm-3,0h-1v-1h1Zm-3,0h-1v-1h1Zm-3,0h-1v-1h1Zm-3,0h-1v-1h1Zm-3,0h-1v-1h1Zm-3,0h-1v-1h1Zm-3,0h-1v-1h1Zm-3,0h-1v-1h1Zm-3,0h-1v-1h1Zm-3,0h-1v-1h1Zm-3,0h-1v-1h1Zm-3,0h-1v-1h1Zm-3,0h-1v-1h1Zm-3,0h-1v-1h1Zm-3,0h-1v-1h1Zm-3,0h-1v-1h1Zm-3,0h-1v-1h1Zm-3,0h-1v-1h1Zm-3,0h-1v-1h1Zm-3,0h-1v-1h1Zm-3,0h-1v-1h1Zm-3,0h-1v-1h1Zm-3,0h-1v-1h1Zm-3,0h-1v-1h1Zm-3,0h-1v-1h1Zm-3,0h-1v-1h1Zm-3,0h-1v-1h1Zm-3,0h-1v-1h1Zm-3,0h-1v-1h1Zm-3,0h-1v-1h1Zm-3,0h-1v-1h1Zm-3,0h-1v-1h1Zm-3,0h-1v-1h1Zm-3,0h-1v-1h1Zm-3,0h-1v-1h1Zm-3,0h-1v-1h1Zm-3,0h-1v-1h1Zm-33,0h-1v-1h1Zm269.5-.08-.17-1a4.31,4.31,0,0,0,.87-.24l.36.93a5.74,5.74,0,0,1-1.48.31Zm-272.64-.2a4.5,4.5,0,0,1-1-.45l.5-.86a4,4,0,0,0,.82.37Zm275.54-1.27-.69-.72A4.82,4.82,0,0,0,331,198l.82.57a6.26,6.26,0,0,1-1.13.84Zm-278.19-.61a6.1,6.1,0,0,1-.58-.94l.9-.44a4.66,4.66,0,0,0,.47.77Zm279.76-2.24-1-.21a4.41,4.41,0,0,0,.09-.89l1-.06v.06a5.77,5.77,0,0,1-.51,1.1Zm-280.88-.82v-1h1v1Zm281-2.34h-1v-1h1Zm-280-.69h-1v-1h1Zm280-2.32h-1v-1h1Zm-280-.68h-1v-1h1Zm280-2.32h-1v-1h1Zm-280-.69h-1v-1h1Zm280-2.32h-1v-1h1Zm-280-.68h-1v-1h1Zm280-2.32h-1v-1h1Zm-280-.69h-1v-1h1Zm280-2.31h-1v-1h1Zm-280-.69h-1v-1h1Zm280-2.32h-1v-1h1Zm-280-.69h-1v-1h1Zm280-2.31h-1v-1h1Zm-280-.69h-1v-1h1Zm280-2.32h-1v-1h1Zm-280-.69h-1v-1h1Zm280-2.31h-1v-1h1Zm-280-.69h-1v-1h1Zm280-2.32h-1v-1h1Zm-280-.69h-1v-1h1Zm280-2.31h-1v-1h1Zm-280-.69h-1v-1h1Zm280-2.32h-1v-1h1Zm-280-.69h-1v-1h1Zm280-2.31h-1v-1h1Zm-280-.69h-1v-1h1Zm280-2.32h-1v-1h1Zm-280-.69h-1v-1h1Zm280-2.31h-1v-1h1Zm-280-.69h-1v-1h1Zm280-2.32h-1v-1h1Zm-280-.68h-1v-1h1Zm280-2.32h-1v-1h1Zm-280-.69h-1v-1h1Zm280-2.32h-1v-1h1Zm-280-.68h-1v-1h1Zm280-2.32h-1v-1h1Zm-280-.69h-1v-1h1Zm280-2.32h-1v-1h1Zm-280-.68h-1v-1h1Zm280-2.32h-1v-1h1Zm-280-.69h-1v-1h1Zm280-2.32h-1v-1h1Zm-280-.68h-1v-1h1Zm280-2.32h-1v-1h1Zm-280-.69h-1v-1h1Zm280-2.31h-1v-1h1Zm-280-.69h-1v-1h1Zm280-2.32h-1v-1h1Zm-280-.69h-1v-1h1Zm280-2.31h-1v-1h1Zm-280-.69h-1v-1h1Zm280-2.32h-1v-1h1Zm-280-.69h-1v-1h1Zm280-2.31h-1v-1h1Zm-280-.69h-1v-1h1Zm280-2.32h-1v-1h1Zm-280-.69h-1v-1h1Zm280-2.31h-1v-1h1Zm-280-.69h-1v-1h1Zm280-2.32h-1v-1h1Zm-280-.69h-1v-1h1Zm280-2.31h-1v-1h1Zm-280-.69h-1v-1h1Zm280-2.32h-1v-1h1Zm-280-.69h-1v-1h1Zm280-2.31h-1v-1h1Zm-280-.69h-1v-1h1Zm280-2.32h-1v-1h1Zm-280-.68h-1v-1h1Zm280-2.32h-1v-1h1Zm-280-.69h-1v-1h1Zm280-2.32h-1v-1h1Zm-280-.68h-1v-1h1Zm280-2.32h-1v-1h1Zm-280-.69h-1v-1h1Zm280-2.32h-1v-1h1Zm-280-.68h-1v-1h1Zm280-2.32h-1v-1h1Zm-280-.69h-1v-1h1Zm280-2.31h-1v-1h1Zm-280-.69h-1v-1h1Zm280-2.32h-1v-1h1Zm-280-.69h-1v-1h1Zm280-2.31h-1v-1h1Zm-280-.69h-1v-1h1Zm280-2.32h-1v-1h1Zm-280-.69h-1v-1h1Zm280-2.31h-1v-1h1Zm-280-.69h-1v-1h1Zm280-2.32h-1v-1h1Zm-280-.69h-1v-1h1Zm280-2.31h-1v-1l1-.05v1Zm-281-.69h0a5.36,5.36,0,0,1,.1-1.06l1,.19a5.12,5.12,0,0,0-.08.87Zm279.53-2a4,4,0,0,0-.48-.76l.79-.61a5,5,0,0,1,.59.93ZM53.1,49l-.82-.56a6.24,6.24,0,0,1,.7-.84l.7.71A4.82,4.82,0,0,0,53.1,49ZM329,47.58a4,4,0,0,0-.82-.36l.3-.95a5.24,5.24,0,0,1,1,.44ZM55.18,47.31l-.36-.93a6.41,6.41,0,0,1,1.06-.3l.17,1A4.29,4.29,0,0,0,55.18,47.31ZM326.38,47h-1V46h1Zm-3,0h-1V46h1Zm-3,0h-1V46h1Zm-3,0h-1V46h1Zm-3,0h-1V46h1Zm-3,0h-1V46h1Zm-3,0h-1V46h1Zm-3,0h-1V46h1Zm-3,0h-1V46h1Zm-3,0h-1V46h1Zm-3,0h-1V46h1Zm-3,0h-1V46h1Zm-3,0h-1V46h1Zm-3,0h-1V46h1Zm-3,0h-1V46h1Zm-3,0h-1V46h1Zm-3,0h-1V46h1Zm-3,0h-1V46h1Zm-3,0h-1V46h1Zm-3,0h-1V46h1Zm-27,0h-1V46h1Zm-3,0h-1V46h1Zm-3,0h-1V46h1Zm-3,0h-1V46h1Zm-3,0h-1V46h1Zm-3,0h-1V46h1Zm-3,0h-1V46h1Zm-3,0h-1V46h1Zm-3,0h-1V46h1Zm-3,0h-1V46h1Zm-3,0h-1V46h1Zm-3,0h-1V46h1Zm-3,0h-1V46h1Zm-3,0h-1V46h1Zm-3,0h-1V46h1Zm-3,0h-1V46h1Zm-3,0h-1V46h1Zm-3,0h-1V46h1Zm-3,0h-1V46h1Zm-3,0h-1V46h1Zm-3,0h-1V46h1Zm-3,0h-1V46h1Zm-3,0h-1V46h1Zm-3,0h-1V46h1Zm-3,0h-1V46h1Zm-3,0h-1V46h1Zm-3,0h-1V46h1Zm-3,0h-1V46h1Zm-3,0h-1V46h1Zm-3,0h-1V46h1Zm-3,0h-1V46h1Zm-3,0h-1V46h1Zm-3,0h-1V46h1Zm-3,0h-1V46h1Zm-3,0h-1V46h1Zm-3,0h-1V46h1Zm-3,0h-1V46h1Zm-3,0h-1V46h1Zm-3,0h-1V46h1Zm-3,0h-1V46h1Zm-3,0h-1V46h1Zm-3,0h-1V46h1Zm-3,0h-1V46h1Zm-3,0h-1V46h1Zm-3,0h-1V46h1Zm-3,0h-1V46h1Zm-3,0h-1V46h1Zm-3,0h-1V46h1Zm-3,0H97V46h1Zm-3,0H94V46h1Zm-3,0H91V46h1Zm-3,0H88V46h1Zm-3,0H85V46h1Zm-3,0H82V46h1Zm-3,0H79V46h1Zm-3,0H76V46h1Zm-3,0H73V46h1Zm-3,0H70V46h1Zm-3,0H67V46h1Zm-3,0H64V46h1Zm-3,0H61V46h1Zm-3,0H58V46h1Z"/><rect class="cls-1" x="61.33" y="90.86" width="155" height="95"/><rect class="cls-7" x="61.33" y="90.86" width="155" height="95"/><rect class="cls-1" x="66.33" y="110.86" width="145" height="70"/><rect class="cls-8" x="66.33" y="110.86" width="145" height="70"/><rect class="cls-9" x="66.33" y="110.86" width="145" height="70"/><rect class="cls-10" x="118.77" y="134.86" width="28.14" height="18.76" rx="0.94"/><polygon class="cls-11" points="137.53 141.5 137.53 146.96 132.84 149.71 132.84 144.24 137.53 141.5"/><polygon class="cls-12" points="137.53 141.5 132.84 144.25 128.15 141.5 132.84 138.76 137.53 141.5"/><polygon class="cls-13" points="132.84 144.25 132.84 149.71 128.15 146.96 128.15 141.5 132.84 144.25"/><polygon class="cls-12" points="128.15 146.96 132.84 144.24 132.84 149.71 128.15 146.96"/><polygon class="cls-13" points="137.53 146.96 132.84 144.24 132.84 149.71 137.53 146.96"/><path class="cls-14" d="M138.48,159.29c-2.78-.44-2.89-2.44-2.89-5.67h-5.52c0,3.23-.09,5.23-2.88,5.67a1.56,1.56,0,0,0-1.39,1.57h14.07A1.56,1.56,0,0,0,138.48,159.29Z"/><rect class="cls-15" x="159.85" y="134.86" width="28.14" height="18.76" rx="0.94"/><polygon class="cls-11" points="178.61 141.5 178.61 146.96 173.92 149.71 173.92 144.24 178.61 141.5"/><polygon class="cls-12" points="178.61 141.5 173.92 144.25 169.23 141.5 173.92 138.76 178.61 141.5"/><polygon class="cls-13" points="173.92 144.25 173.92 149.71 169.23 146.96 169.23 141.5 173.92 144.25"/><polygon class="cls-12" points="169.23 146.96 173.92 144.24 173.92 149.71 169.23 146.96"/><polygon class="cls-13" points="178.61 146.96 173.92 144.24 173.92 149.71 178.61 146.96"/><path class="cls-16" d="M179.56,159.29c-2.78-.44-2.89-2.44-2.89-5.67h-5.52c0,3.23-.09,5.23-2.87,5.67a1.58,1.58,0,0,0-1.4,1.57H181A1.57,1.57,0,0,0,179.56,159.29Z"/><rect class="cls-1" x="226.33" y="90.86" width="95" height="95"/><rect class="cls-7" x="226.33" y="90.86" width="95" height="95"/><rect class="cls-17" x="281.93" y="119.63" width="15.46" height="10.32" rx="0.52"/><polygon class="cls-11" points="292.24 123.28 292.24 126.3 289.67 127.79 289.67 124.8 292.24 123.28"/><polygon class="cls-12" points="292.24 123.28 289.67 124.8 287.08 123.28 289.67 121.77 292.24 123.28"/><polygon class="cls-13" points="289.67 124.8 289.67 127.79 287.08 126.3 287.08 123.28 289.67 124.8"/><rect class="cls-18" x="288" y="125.55" width="15.46" height="10.32" rx="0.52"/><polygon class="cls-11" points="298.31 129.22 298.31 132.21 295.74 133.73 295.74 130.72 298.31 129.22"/><polygon class="cls-12" points="298.31 129.22 295.74 130.72 293.15 129.22 295.74 127.7 298.31 129.22"/><polygon class="cls-13" points="295.74 130.72 295.74 133.73 293.15 132.21 293.15 129.22 295.74 130.72"/><rect class="cls-19" x="292.46" y="131.3" width="15.46" height="10.32" rx="0.52"/><polygon class="cls-11" points="302.77 134.97 302.77 137.96 300.2 139.48 300.2 136.47 302.77 134.97"/><polygon class="cls-12" points="302.77 134.97 300.2 136.48 297.62 134.97 300.2 133.45 302.77 134.97"/><polygon class="cls-13" points="300.2 136.48 300.2 139.48 297.62 137.96 297.62 134.97 300.2 136.48"/><polygon class="cls-12" points="297.62 137.96 300.2 136.47 300.2 139.48 297.62 137.96"/><polygon class="cls-13" points="302.77 137.96 300.2 136.47 300.2 139.48 302.77 137.96"/><path class="cls-20" d="M303.29,144.75c-1.53-.24-1.53-1.34-1.53-3.05H298.7c0,1.77,0,2.87-1.52,3.05a.91.91,0,0,0-.77.88h7.65A.91.91,0,0,0,303.29,144.75Z"/><rect class="cls-21" x="238.43" y="122.86" width="28.14" height="18.76" rx="0.94"/><polygon class="cls-11" points="257.19 129.5 257.19 134.96 252.5 137.71 252.5 132.24 257.19 129.5"/><polygon class="cls-12" points="257.19 129.5 252.5 132.25 247.81 129.5 252.5 126.76 257.19 129.5"/><polygon class="cls-13" points="252.5 132.25 252.5 137.71 247.81 134.96 247.81 129.5 252.5 132.25"/><polygon class="cls-12" points="247.81 134.96 252.5 132.24 252.5 137.71 247.81 134.96"/><polygon class="cls-13" points="257.19 134.96 252.5 132.24 252.5 137.71 257.19 134.96"/><path class="cls-22" d="M258.14,147.29c-2.78-.44-2.89-2.44-2.89-5.67h-5.52c0,3.23-.09,5.23-2.88,5.67a1.56,1.56,0,0,0-1.39,1.57h14.07A1.56,1.56,0,0,0,258.14,147.29Z"/><line class="cls-3" x1="203.19" y1="91.21" x2="203.19" y2="64.14"/><line class="cls-3" x1="195.67" y1="85.68" x2="195.67" y2="73.98"/><polygon class="cls-5" points="198.66 74.86 195.67 69.68 192.68 74.86 198.66 74.86"/><line class="cls-3" x1="210.72" y1="81.37" x2="210.72" y2="80.62"/><line class="cls-23" x1="210.72" y1="78.19" x2="210.72" y2="71.64"/><line class="cls-3" x1="210.72" y1="70.43" x2="210.72" y2="69.68"/><polygon class="cls-5" points="213.71 80.5 210.72 85.68 207.73 80.5 213.71 80.5"/><line class="cls-3" x1="243.85" y1="91.21" x2="243.85" y2="64.14"/><line class="cls-3" x1="236.33" y1="85.68" x2="236.33" y2="73.98"/><polygon class="cls-5" points="239.32 74.86 236.33 69.68 233.34 74.86 239.32 74.86"/><line class="cls-3" x1="251.38" y1="81.37" x2="251.38" y2="80.62"/><line class="cls-23" x1="251.38" y1="78.19" x2="251.38" y2="71.64"/><line class="cls-3" x1="251.38" y1="70.43" x2="251.38" y2="69.68"/><polygon class="cls-5" points="254.37 80.5 251.38 85.68 248.39 80.5 254.37 80.5"/><line class="cls-24" x1="84.57" y1="110.86" x2="84.57" y2="19.87"/><line class="cls-24" x1="78.2" y1="79.27" x2="78.2" y2="67.58"/><polygon class="cls-25" points="81.2 78.4 78.2 83.58 75.21 78.4 81.2 78.4"/><line class="cls-24" x1="91.31" y1="83.58" x2="91.31" y2="82.83"/><line class="cls-26" x1="91.31" y1="80.4" x2="91.31" y2="73.85"/><line class="cls-24" x1="91.31" y1="72.63" x2="91.31" y2="71.88"/><polygon class="cls-25" points="94.3 72.76 91.31 67.58 88.32 72.76 94.3 72.76"/><line class="cls-3" x1="225.03" y1="38.29" x2="225.03" y2="18.79"/><line class="cls-3" x1="187.34" y1="222.93" x2="198.46" y2="222.93"/><polygon class="cls-5" points="188.21 225.93 183.03 222.93 188.21 219.94 188.21 225.93"/><path class="cls-3" d="M221.15,41,183.41,29.65a4.3,4.3,0,0,1-2.88-3.86v-7"/><path class="cls-3" d="M229.35,41l43.28-11.43a4.1,4.1,0,0,0,2.9-3.76v-7"/><circle class="cls-27" cx="79.53" cy="200.49" r="1.67"/><circle class="cls-28" cx="74.18" cy="200.5" r="1.67"/><circle class="cls-29" cx="68.84" cy="200.5" r="1.67"/><path class="cls-11" d="M70.06,207.2l-1,1a.43.43,0,0,1-.61,0h0l-7.1-7.08a.86.86,0,0,1,0-1.22h0l1-1h0l7.71,7.69a.43.43,0,0,1,0,.61Z"/><path class="cls-30" d="M69,192.86l1,1a.43.43,0,0,1,0,.61h0L62.34,202h0l-1-1a.87.87,0,0,1,0-1.23h0l7-7a.44.44,0,0,1,.61,0Z"/><path class="cls-11" d="M85.9,198.88l1,1a.86.86,0,0,1,0,1.22h0l-7.09,7.08a.44.44,0,0,1-.62,0h0l-1-1a.45.45,0,0,1,0-.61h0l7.7-7.69Z"/><path class="cls-30" d="M86.86,201.06l-1,1h0l-7.58-7.6a.43.43,0,0,1,0-.61h0l1-1a.43.43,0,0,1,.61,0h0l7,7a.87.87,0,0,1,0,1.23h0Z"/><path class="cls-31" d="M69.48,46.35,83.93,31.9a1,1,0,0,1,1.41,0l0,0h0L99.85,46.35a1,1,0,0,1,.05,1.41l-.05.05h0L85.39,62.3a1,1,0,0,1-1.41,0l0,0L69.48,47.83a1,1,0,0,1,0-1.41s0,0,0-.05Z"/><path class="cls-32" d="M88.46,38.48,84.8,34.85a.2.2,0,0,0-.27,0l-3.65,3.63a.17.17,0,0,0,.14.31h2.13a.2.2,0,0,1,.19.19h0v3.45a.21.21,0,0,0,.19.19H85.8a.2.2,0,0,0,.19-.19h0V39a.21.21,0,0,1,.19-.19h2.14a.17.17,0,0,0,.21-.12h0A.19.19,0,0,0,88.46,38.48Z"/><path class="cls-32" d="M76.06,43l-3.62,3.66a.19.19,0,0,0,0,.26l3.62,3.64a.19.19,0,0,0,.27,0h0a.17.17,0,0,0,0-.14V48.28a.2.2,0,0,1,.19-.19H80a.18.18,0,0,0,.17-.17V45.63a.18.18,0,0,0-.06-.24H76.63a.17.17,0,0,1-.19-.15h0V43.11a.21.21,0,0,0-.12-.25.19.19,0,0,0-.25.12Z"/><path class="cls-32" d="M93.41,50.54l3.67-3.65a.19.19,0,0,0,0-.26L93.41,43a.18.18,0,0,0-.25,0h0a.22.22,0,0,0-.05.11v2.16a.18.18,0,0,1-.17.17H89.47a.18.18,0,0,0-.17.17V47.9a.17.17,0,0,0,.15.19h3.47a.19.19,0,0,1,.18.19v2.14a.21.21,0,0,0,.22.16Z"/><path class="cls-1" d="M89.47,47.09a4.81,4.81,0,1,0-6.09,4.6v1.64a2.94,2.94,0,1,0,2.7,0V51.6A4.76,4.76,0,0,0,89.47,47.09Z"/><circle id="e99c3387-15c3-4f28-bd4b-cb209b430e06" class="cls-33" cx="84.68" cy="47.08" r="2.79"/><rect class="cls-1" x="163" width="35" height="20.86"/><rect class="cls-7" x="163" width="35" height="20.86"/><rect class="cls-1" x="66.33" width="35" height="20.86"/><rect class="cls-34" x="66.33" width="35" height="20.86"/><rect class="cls-1" x="208.03" width="35" height="20.86"/><rect class="cls-7" x="208.03" width="35" height="20.86"/><rect class="cls-1" x="253.03" width="45" height="20.86"/><rect class="cls-7" x="253.03" width="45" height="20.86"/><line class="cls-35" x1="127.18" y1="79.27" x2="127.18" y2="67.58"/><polygon class="cls-36" points="130.17 78.4 127.18 83.58 124.19 78.4 130.17 78.4"/><line class="cls-35" x1="140.93" y1="83.58" x2="140.93" y2="82.83"/><line class="cls-37" x1="140.93" y1="80.4" x2="140.93" y2="73.85"/><line class="cls-35" x1="140.93" y1="72.63" x2="140.93" y2="71.88"/><polygon class="cls-36" points="143.93 72.76 140.93 67.58 137.94 72.76 143.93 72.76"/><line class="cls-35" x1="134.06" y1="135" x2="134.06" y2="19.86"/><rect class="cls-1" x="122.83" width="23.5" height="20.86"/><rect class="cls-38" x="122.83" width="23.5" height="20.86"/><rect class="cls-1" x="190.03" y="53.97" width="70" height="10"/><rect class="cls-39" x="190.03" y="53.97" width="70" height="10"/><g id="ad94e297-0e86-4eaf-aac0-d146ee9aea65"><path class="cls-40" d="M221,54.32l-4.68-4.84a2.29,2.29,0,0,1-.78.14,2.43,2.43,0,1,1,2.24-3.33h4.62v1.62h-4.55a3.68,3.68,0,0,1-.26.57l4.33,4.46,2.34-3.56V38.19h-3.15l4-4,3.94,4H225.9v8.74l5.92-9-6-6a1,1,0,0,0-1.41-.06l-.06.06h0l-14.5,14.43a1,1,0,0,0,0,1.41l0,0h0l14.47,14.47-5.17-5.16Z"/><path class="cls-41" d="M224.22,54.53V49.36l-2.34,3.58,1.72,1.85A1.61,1.61,0,0,1,224.22,54.53Z"/><path class="cls-41" d="M240.24,46.36l-8.48-8.48-5.92,9v7.61a1.86,1.86,0,0,1,.53.3l6.22-6.29a2.91,2.91,0,0,1-.31-.64h-4.67V46.29h4.74a2.42,2.42,0,1,1,2.24,3.33,2.54,2.54,0,0,1-.67-.11l-6.62,6.67a2.6,2.6,0,0,1,.11.62,2.43,2.43,0,0,1-4.86.19h0a2.3,2.3,0,0,1,.14-.9L221,54.37l-1.84,2.76,5.17,5.17a1,1,0,0,0,1.41,0l0,0,14.48-14.48a1,1,0,0,0,.05-1.41s0,0-.05,0Z"/><path class="cls-42" d="M232.35,46.29h-4.74v1.62h4.67a2.53,2.53,0,0,1-.12-.72A2.3,2.3,0,0,1,232.35,46.29Z"/><path class="cls-42" d="M217.81,47.91h4.55V46.29h-4.62a2.3,2.3,0,0,1,.19.9A2.22,2.22,0,0,1,217.81,47.91Z"/><path class="cls-42" d="M227.3,56.18l6.62-6.67a2.43,2.43,0,0,1-1.33-1l-6.22,6.29A2.21,2.21,0,0,1,227.3,56.18Z"/><path class="cls-42" d="M223.65,54.79l-1.72-1.85-4.38-4.46a2.46,2.46,0,0,1-1.27,1L221,54.32,222.69,56A2.3,2.3,0,0,1,223.65,54.79Z"/><path class="cls-1" d="M229,38.19l-3.92-4-4,4h3.15V54.53a1.35,1.35,0,0,0-.57.26,2.28,2.28,0,0,0-1,1.3,2.41,2.41,0,0,0,4.57,1.54c0-.05,0-.09,0-.14a2.31,2.31,0,0,0,.11-.69,2.6,2.6,0,0,0-.11-.62,2.21,2.21,0,0,0-.93-1.34,1.86,1.86,0,0,0-.53-.3V38.19Zm-3.92,20a1.34,1.34,0,1,1,1.34-1.34h0a1.34,1.34,0,0,1-1.37,1.29Z"/><path class="cls-1" d="M217.55,48.48a3.68,3.68,0,0,0,.26-.57,2.22,2.22,0,0,0,.12-.72,2.3,2.3,0,0,0-.19-.9,2.41,2.41,0,1,0-2.24,3.33,2.29,2.29,0,0,0,.78-.14A2.46,2.46,0,0,0,217.55,48.48Zm-2.05,0a1.35,1.35,0,1,1,1.34-1.36v0h0a1.33,1.33,0,0,1-1.27,1.39h-.07Z"/><path class="cls-1" d="M233.92,49.51a2.54,2.54,0,0,0,.67.11,2.43,2.43,0,1,0-2.24-3.33,2.3,2.3,0,0,0-.19.9,2.53,2.53,0,0,0,.12.72,2.91,2.91,0,0,0,.31.64A2.48,2.48,0,0,0,233.92,49.51Zm.67-3.65a1.35,1.35,0,1,1-.3,0Z"/><path class="cls-43" d="M225.05,55.46a1.34,1.34,0,1,0,1.34,1.34h0A1.34,1.34,0,0,0,225.05,55.46Z"/><circle class="cls-43" cx="215.5" cy="47.19" r="1.34"/><path class="cls-43" d="M234.59,48.53a1.35,1.35,0,1,0-1.34-1.36v0h0A1.34,1.34,0,0,0,234.59,48.53Z"/></g></g></g><g id="Text"><path class="cls-44" d="M129.4,164.12,126,173.34h-1.1l-3.32-9.22h1.12l2.56,7.37a4.85,4.85,0,0,1,.19.81h0a3.14,3.14,0,0,1,.2-.82l2.63-7.36Z"/><path class="cls-44" d="M138.9,173.34v-6.23c0-.47,0-1.06.1-1.78h0a5.14,5.14,0,0,1-.27.87l-3.18,7.14h-.45l-3.17-7.09a5.3,5.3,0,0,1-.26-.92h0c0,.33,0,.92,0,1.77v6.24h-1v-9.22H132l2.85,6.49a9.8,9.8,0,0,1,.43,1.09h0c.12-.32.26-.69.44-1.11l2.92-6.47h1.23v9.22Z"/><path class="cls-44" d="M174.4,164.12,171,173.34h-1.1l-3.32-9.22h1.12l2.56,7.37a4.85,4.85,0,0,1,.19.81h0a3.14,3.14,0,0,1,.2-.82l2.63-7.36Z"/><path class="cls-44" d="M183.9,173.34v-6.23c0-.47,0-1.06.1-1.78h0a5.14,5.14,0,0,1-.27.87l-3.18,7.14h-.45l-3.17-7.09a5.3,5.3,0,0,1-.26-.92h0c0,.33,0,.92,0,1.77v6.24h-1v-9.22H177l2.85,6.49a9.8,9.8,0,0,1,.43,1.09h0c.12-.32.26-.69.44-1.11l2.92-6.47h1.23v9.22Z"/><path class="cls-44" d="M250.5,156.54l-3.38,9.22H246l-3.32-9.22h1.12l2.56,7.37a4.06,4.06,0,0,1,.18.81h0a3.67,3.67,0,0,1,.21-.82l2.62-7.36Z"/><path class="cls-44" d="M260,165.76v-6.23c0-.47,0-1.06.09-1.78h0a5.14,5.14,0,0,1-.27.87l-3.17,7.14h-.45L253,158.67a6.13,6.13,0,0,1-.27-.92h0a17.29,17.29,0,0,1,.06,1.77v6.24h-1v-9.22h1.31L256,163a9.66,9.66,0,0,1,.42,1.09h0c.12-.33.27-.7.44-1.12l2.92-6.47H261v9.22Z"/><path class="cls-44" d="M286.16,156.73,282.77,166h-1.1l-3.32-9.22h1.12L282,164.1a4.85,4.85,0,0,1,.19.81h0a3.14,3.14,0,0,1,.2-.82l2.63-7.36Z"/><path class="cls-44" d="M295.66,166v-6.23c0-.47,0-1.06.09-1.78h0a5.14,5.14,0,0,1-.27.87L292.28,166h-.45l-3.17-7.09a5.3,5.3,0,0,1-.26-.92h0c0,.33.05.92.05,1.77V166h-1v-9.22h1.31l2.85,6.49a9.8,9.8,0,0,1,.43,1.09h0c.11-.32.26-.69.44-1.11l2.92-6.47h1.23V166Z"/><path class="cls-44" d="M298.61,164.36a3,3,0,0,0,1.11.58,4.21,4.21,0,0,0,1.33.24c1.32,0,2-.49,2-1.47a1.32,1.32,0,0,0-.21-.73,2,2,0,0,0-.56-.56c-.23-.15-.69-.41-1.38-.77a5.43,5.43,0,0,1-1.87-1.34,2.24,2.24,0,0,1-.4-1.29,2.12,2.12,0,0,1,.9-1.78,3.66,3.66,0,0,1,2.24-.67,4.14,4.14,0,0,1,1.94.33v1.17a3.53,3.53,0,0,0-2.06-.56,2.48,2.48,0,0,0-1.42.38,1.19,1.19,0,0,0-.54,1,1.35,1.35,0,0,0,.19.73,1.87,1.87,0,0,0,.52.53,13.51,13.51,0,0,0,1.28.71,5.91,5.91,0,0,1,1.88,1.31,2.2,2.2,0,0,1,.53,1.43,2.14,2.14,0,0,1-.84,1.82,3.86,3.86,0,0,1-2.37.65,5.75,5.75,0,0,1-1.21-.16,2.93,2.93,0,0,1-1.05-.37Z"/><path class="cls-44" d="M305.46,164.36a3,3,0,0,0,1.11.58,4.21,4.21,0,0,0,1.33.24c1.32,0,2-.49,2-1.47a1.32,1.32,0,0,0-.21-.73,2.09,2.09,0,0,0-.55-.56c-.24-.15-.7-.41-1.38-.77a5.39,5.39,0,0,1-1.88-1.34,2.23,2.23,0,0,1-.39-1.29,2.11,2.11,0,0,1,.89-1.78,3.69,3.69,0,0,1,2.25-.67,4.09,4.09,0,0,1,1.93.33v1.17a3.53,3.53,0,0,0-2.06-.56,2.42,2.42,0,0,0-1.41.38,1.18,1.18,0,0,0-.55,1,1.35,1.35,0,0,0,.19.73,1.87,1.87,0,0,0,.52.53,13.51,13.51,0,0,0,1.28.71,5.91,5.91,0,0,1,1.88,1.31,2.2,2.2,0,0,1,.53,1.43,2.14,2.14,0,0,1-.84,1.82,3.86,3.86,0,0,1-2.37.65,5.75,5.75,0,0,1-1.21-.16,2.93,2.93,0,0,1-1.05-.37Z"/><path class="cls-44" d="M263.25,13.9a.75.75,0,0,1-.21.55.79.79,0,0,1-.57.24h-.77l-.62,0-.22-.64c.31,0,.81,0,1.5,0a.23.23,0,0,0,.18-.09.28.28,0,0,0,.08-.21V12H259.9a6.44,6.44,0,0,1-1.15,2.74l-.49-.43A7,7,0,0,0,259.41,10V7.36h3.84Zm5.44-7.58H258.28v-.6h10.41Zm-6.07,5.13V10H260c0,.31,0,.8-.07,1.47Zm0-2.1V8H260V9.35Zm0-4.06-.6.25a7.34,7.34,0,0,0-1.2-1.11l.66-.26A7.14,7.14,0,0,1,262.62,5.29Zm3.67-.83a5.22,5.22,0,0,1-1.17,1.07l-.64-.33a6.55,6.55,0,0,0,1.26-1Zm-.89,8.23h-.61V7.54h.61Zm2.37,1.13a1,1,0,0,1-.16.55.72.72,0,0,1-.4.27,5.86,5.86,0,0,1-.92,0l-.85,0-.23-.66,1.65.06c.2,0,.3-.1.3-.34V7.26h.61Z"/><path class="cls-44" d="M280.71,14.43H270.32V13.9h1.41V8.83h2.79l.3-.85h-4.41V7.43H275l.23-.79h-4.36V4.49h9.2V6.64H275.9l-.24.79h4.86V8h-5.06l-.27.85h4.09V13.9h1.43Zm-7-8.28V5H271.5V6.15Zm4.92,3.92V9.33h-6.31v.74Zm0,1.24v-.74h-6.31v.74Zm0,1.31v-.83h-6.31v.83Zm0,1.28v-.78h-6.31v.78Zm-2-7.75V5h-2.26V6.15Zm2.84,0V5h-2.22V6.15Z"/><path class="cls-44" d="M286.55,6.11h-4.26V5.5h2a6.56,6.56,0,0,0-.53-1.13l.58-.27A9.64,9.64,0,0,1,285,5.5h1.58Zm-.38,1.67h-3.45V7.19h3.45Zm0,1.72h-3.45V8.92h3.45Zm-.11,5h-.64V13.8h-1.94v.89h-.64V10.74h3.22Zm-.64-1.3V11.32h-1.94v1.87ZM291,7.36H286.8v-.6H291Zm1.43,6.42a.79.79,0,0,1-.18.51.78.78,0,0,1-.4.31,5.47,5.47,0,0,1-1.19.07h-.72l-.21-.64q.52,0,1.26,0a1.89,1.89,0,0,0,.69-.08.35.35,0,0,0,.15-.32V5.12h-5V4.5h5.59Zm-1.86-1.23h-3.4V9h3.4Zm-.65-.63V9.61h-2.13v2.31Z"/><path class="cls-44" d="M218.83,10.64v3.44h-1V5h2.45a3.23,3.23,0,0,1,2.23.71,2.52,2.52,0,0,1,.8,2,2.72,2.72,0,0,1-.94,2.15,3.25,3.25,0,0,1-2.33.78Zm0-4.71V9.71H220a2.53,2.53,0,0,0,1.71-.51,1.82,1.82,0,0,0,.59-1.45c0-1.21-.72-1.82-2.16-1.82Z"/><path class="cls-44" d="M226,14.08h-1V5h1Z"/><path class="cls-44" d="M229.45,10.64v3.44h-1V5h2.45a3.23,3.23,0,0,1,2.23.71,2.52,2.52,0,0,1,.8,2A2.69,2.69,0,0,1,233,9.86a3.25,3.25,0,0,1-2.33.78Zm0-4.71V9.71h1.14a2.52,2.52,0,0,0,1.7-.51,1.79,1.79,0,0,0,.59-1.45c0-1.21-.72-1.82-2.15-1.82Z"/><path class="cls-44" d="M173.86,10.64v3.44h-1V5h2.45a3.23,3.23,0,0,1,2.23.71,2.52,2.52,0,0,1,.8,2,2.69,2.69,0,0,1-.94,2.15,3.25,3.25,0,0,1-2.33.78Zm0-4.71V9.71H175a2.52,2.52,0,0,0,1.7-.51,1.79,1.79,0,0,0,.59-1.45c0-1.21-.72-1.82-2.15-1.82Z"/><path class="cls-44" d="M181.07,14.08h-1V5h1Z"/><path class="cls-44" d="M184.48,10.64v3.44h-1V5h2.44a3.21,3.21,0,0,1,2.23.71,2.49,2.49,0,0,1,.8,2A2.69,2.69,0,0,1,188,9.86a3.24,3.24,0,0,1-2.33.78Zm0-4.71V9.71h1.14a2.57,2.57,0,0,0,1.71-.51,1.82,1.82,0,0,0,.59-1.45c0-1.21-.72-1.82-2.16-1.82Z"/><path class="cls-44" d="M128.32,10.64v3.44h-1V5h2.44a3.21,3.21,0,0,1,2.23.71,2.49,2.49,0,0,1,.8,2,2.69,2.69,0,0,1-.94,2.15,3.24,3.24,0,0,1-2.33.78Zm0-4.71V9.71h1.14a2.57,2.57,0,0,0,1.71-.51,1.81,1.81,0,0,0,.58-1.45c0-1.21-.71-1.82-2.15-1.82Z"/><path class="cls-44" d="M135.53,14.08h-1V5h1Z"/><path class="cls-44" d="M138.94,10.64v3.44h-1V5h2.45a3.19,3.19,0,0,1,2.22.71,2.49,2.49,0,0,1,.81,2,2.7,2.7,0,0,1-1,2.15,3.23,3.23,0,0,1-2.32.78Zm0-4.71V9.71h1.14a2.53,2.53,0,0,0,1.71-.51,1.82,1.82,0,0,0,.59-1.45c0-1.21-.72-1.82-2.16-1.82Z"/><path class="cls-45" d="M114.38,14.08h-1V5h1Z"/><path class="cls-45" d="M121.45,14.08h-4.66V5h1v8.16h3.66Z"/><path class="cls-44" d="M77.16,10.64v3.44h-1V5h2.45a3.19,3.19,0,0,1,2.22.71,2.49,2.49,0,0,1,.81,2,2.7,2.7,0,0,1-1,2.15,3.23,3.23,0,0,1-2.32.78Zm0-4.71V9.71H78.3A2.53,2.53,0,0,0,80,9.2a1.82,1.82,0,0,0,.59-1.45c0-1.21-.72-1.82-2.16-1.82Z"/><path class="cls-44" d="M84.38,14.08h-1V5h1Z"/><path class="cls-44" d="M87.79,10.64v3.44h-1V5h2.45a3.23,3.23,0,0,1,2.23.71,2.52,2.52,0,0,1,.8,2,2.72,2.72,0,0,1-.94,2.15,3.25,3.25,0,0,1-2.33.78Zm0-4.71V9.71h1.13a2.53,2.53,0,0,0,1.71-.51,1.82,1.82,0,0,0,.59-1.45c0-1.21-.72-1.82-2.16-1.82Z"/><path class="cls-44" d="M19,34.27H13.65l.37.41a13.44,13.44,0,0,1-3.66,1.82l-.43-.56a12.81,12.81,0,0,0,3.53-1.67h-2V28.7a12.07,12.07,0,0,1-1.1.73L10,28.87A13.73,13.73,0,0,0,13.71,26l.68.26-.53.58h4.08v.45a12,12,0,0,1-1,1.11H19Zm-2.06-6.9H13.22c-.43.37-.84.7-1.22,1h4C16.21,28.18,16.51,27.85,16.94,27.37Zm1.43,2.73V29H12.1V30.1Zm0,1.79V30.71H12.1v1.18Zm0,1.77V32.5H12.1v1.16Zm2.06,2.22-.28.58a20.55,20.55,0,0,0-3.76-1.34l.31-.59A19.12,19.12,0,0,1,20.43,35.88Z"/><path class="cls-44" d="M32.45,28.73H29.77a25.2,25.2,0,0,0,.37,4.66,13.69,13.69,0,0,0,1.22-3.74l.56.22a13.14,13.14,0,0,1-1.56,4.34,3.79,3.79,0,0,0,.47,1.2c.19.28.32.42.41.42s.26-.18.38-.54a6.35,6.35,0,0,0,.23-1.42l.57.32c-.16,1.53-.54,2.3-1.12,2.3s-1-.55-1.37-1.64a13.53,13.53,0,0,1-1.46,1.51L28,36a9,9,0,0,0,1.7-1.83,26.22,26.22,0,0,1-.52-5.4H22v-.54h3V27.3H22.46v-.53h2.62V26h.6v.78h2.77v.53H25.68v.89h3.48c0-.68,0-1.41,0-2.17h.62c0,1,0,1.68,0,2.17h2.69Zm-4,1.55H25.68V31H28.1v3.16H25.68v.7h2.4v.56h-2.4v1h-.6v-1h-3v-.56h3v-.7H22.6V31h2.48v-.75H22.2v-.57h2.88v-.62h.6v.62h2.78Zm-3.38,2.06v-.8H23.19v.8Zm0,1.31v-.79H23.19v.79Zm2.42-1.31v-.8H25.68v.8Zm0,1.31v-.79H25.68v.79Zm4.44-6.09-.51.32a8.88,8.88,0,0,0-.93-1.44l.5-.31A6.44,6.44,0,0,1,31.94,27.56Z"/><path class="cls-44" d="M44.45,32.62h-4.9v3.94H38.9V32.62H34V32H38.9v-5H34.29v-.63h9.88v.63H39.55v5h4.9ZM37.2,30.86l-.59.29a11.13,11.13,0,0,0-1.51-2.81l.52-.29A9.87,9.87,0,0,1,37.2,30.86Zm6.26-2.57a9.2,9.2,0,0,1-1.69,2.82l-.6-.33a8.85,8.85,0,0,0,1.71-2.73Z"/><path class="cls-44" d="M48.59,29.58a5.43,5.43,0,0,1-.7,1.23V36.5h-.56v-5a10.92,10.92,0,0,1-1.11,1.07l-.29-.55a7.78,7.78,0,0,0,2.15-2.78Zm.15-3.37a8.31,8.31,0,0,1-2.46,2.93L46,28.6A7.33,7.33,0,0,0,48.19,26Zm4.65,6.46H49.17V28.8c-.2.19-.36.32-.46.41l-.4-.42a8.92,8.92,0,0,0,2.39-2.86l.55.23a5.54,5.54,0,0,1-.36.65h1.92v.58c-.23.39-.46.76-.69,1.1h1.27ZM53.9,34H51.29a3,3,0,0,1-.84,1.55,3.5,3.5,0,0,1-1.54,1l-.4-.48a3.05,3.05,0,0,0,2.18-2h-2.2v-.55h2.3a2.15,2.15,0,0,0,.07-.5h.57a1.47,1.47,0,0,1,0,.5H53.9Zm-1.78-6.61H50.49c-.37.45-.7.82-1,1.1h1.89A10.45,10.45,0,0,0,52.12,27.39ZM51,30.28V29.06H49.75v1.22Zm0,1.84V30.81H49.75v1.31Zm2.44,3.43L53,36a6.16,6.16,0,0,0-1.49-1l.45-.45A8.33,8.33,0,0,1,53.42,35.55Zm-.63-5.27V29.06H51.58v1.22Zm0,1.84V30.81H51.58v1.31Zm3.68-2.21h-.89v5.77a.66.66,0,0,1-.34.63A2.73,2.73,0,0,1,54,36.5l-.23-.61c.28,0,.52,0,.7,0a.63.63,0,0,0,.43-.1.4.4,0,0,0,.1-.3v-5.6H53.88v-.59h2.59ZM56.19,27H54v-.58h2.22Z"/><path class="cls-44" d="M68.53,33l-.34.58-.73-.28V36.5h-.6v-.66H64.5v.66h-.62V32.82h2.67A9.22,9.22,0,0,1,63.93,31h-1.4a8,8,0,0,1-2.45,1.85h2.49V36.5h-.63v-.66H59.59v.66H59V33.3a3.8,3.8,0,0,1-.72.24L58,33a9,9,0,0,0,3.76-2H58.05V30.4h4.19A8.21,8.21,0,0,0,63,29.3l.56.16a3.5,3.5,0,0,1-.53.94h5.37V31H64.82A9,9,0,0,0,68.53,33Zm-6.1-3.82H59V26.28h3.48Zm-.61-.58V26.86H59.57v1.69Zm.12,6.67V33.4H59.59v1.82Zm5.54-6.09H64V26.28h3.53Zm-.62,6.09V33.4H64.5v1.82Zm0-6.67V26.86H64.58v1.69Zm-.06,1.27-.36.47a6,6,0,0,0-1-.47l.31-.49A5.19,5.19,0,0,1,66.8,29.82Z"/><path class="cls-44" d="M252.54,49.72h-1.26l-4.73-7.33a3.45,3.45,0,0,1-.28-.54h0a9.61,9.61,0,0,1,.05,1.22v6.65h-1V40.65h1.32l4.61,7.25c.23.38.36.58.37.62h0a11.2,11.2,0,0,1-.06-1.36V40.65h1Z"/><path class="cls-44" d="M261.9,49.72h-1.11l-1-2.57h-3.89L255,49.72h-1.11l3.49-9.07h1Zm-2.43-3.49L258,42.31a4,4,0,0,1-.14-.59h0a3,3,0,0,1-.14.59l-1.44,3.92Z"/><path class="cls-44" d="M267.62,41.56H265v8.16h-1V41.56h-2.61v-.91h6.23Z"/><path class="cls-44" d="M163.14,101.53h-4.95v4.16a1,1,0,0,1-.28.7,1,1,0,0,1-.74.28l-1.59,0-.25-.67c.93,0,1.57,0,1.91,0a.28.28,0,0,0,.21-.11.4.4,0,0,0,.08-.22v-4.15h-5.05v-.66h5.05V99.26a18.75,18.75,0,0,0,3.34-2.52h-7v-.67h8v.67a25.3,25.3,0,0,1-3.61,2.88v1.25h4.95Z"/><path class="cls-44" d="M166,103.74a15.59,15.59,0,0,1-.69,3l-.61-.28a13,13,0,0,0,.72-2.8Zm3-.78-.59.2a5.28,5.28,0,0,0-.18-.71q-1.86.52-3.27.78l-.2-.69a13,13,0,0,0,2.33-2.82c-1.08.18-1.76.28-2.06.32l-.17-.62a12.5,12.5,0,0,0,2-3.62l.59.2a14.82,14.82,0,0,1-1.72,3.3,13.77,13.77,0,0,0,1.77-.26,13.56,13.56,0,0,0,.85-1.59l.59.24a18.4,18.4,0,0,1-3.19,4.74,18.26,18.26,0,0,0,2.3-.55,6.69,6.69,0,0,0-.33-.84l.55-.2A11.27,11.27,0,0,1,169,103Zm-1.46,3.23-.64.12a16.85,16.85,0,0,0-.33-2.59l.59-.1A16.52,16.52,0,0,1,167.51,106.19Zm1.44-.58-.59.21a12.77,12.77,0,0,0-.53-2.22l.58-.19A13.48,13.48,0,0,1,169,105.61Zm6.2.14a.87.87,0,0,1-.21.57.9.9,0,0,1-.49.31,7,7,0,0,1-1.12,0l-.27-.68.67,0a1.71,1.71,0,0,0,.68-.08.28.28,0,0,0,.12-.26V96.74h-4.67v9.9h-.62V96.14h5.91Zm-1-5.91h-3.95v-.61h1a9.38,9.38,0,0,0-.61-1.58l.58-.23a14.56,14.56,0,0,1,.69,1.81h.69a12.89,12.89,0,0,0,.82-1.84l.56.23a16.32,16.32,0,0,1-.68,1.61h.91Zm0,2.26h-2.63v1.84c0,.22.1.33.29.33H174v.58h-2.23a.78.78,0,0,1-.86-.89V102.1h-.69v-.59h1.92a8.71,8.71,0,0,0-.47-1.14l.61-.21c.14.31.31.76.52,1.35h1.37Z"/><path class="cls-44" d="M181.33,105.17a43,43,0,0,1-4.24,1.41l-.17-.66a5.35,5.35,0,0,0,.65-.18v-5.07h.61v4.88a8.06,8.06,0,0,0,1-.3V99.74h-1.77V96.21H181v3.53h-1.12v1.92h1.35v.63h-1.35V105a15,15,0,0,0,1.5-.59Zm-1-6v-2.3h-2.23v2.3Zm7.41,2-.39.58a13.94,13.94,0,0,1-2.81-1.42,9.7,9.7,0,0,1-3,1.46l-.42-.6A10.2,10.2,0,0,0,184,99.92a6.5,6.5,0,0,1-1.37-1.68,10.63,10.63,0,0,1-1,.76l-.5-.49a6.28,6.28,0,0,0,2.62-2.79l.62.2a6.45,6.45,0,0,1-.49.94H187v.58a9.12,9.12,0,0,1-1.89,2.44A12,12,0,0,0,187.72,101.15Zm-.89,5.5h-.64v-.57H182.8v.57h-.64v-4.56h4.67Zm-.64-1.19v-2.74H182.8v2.74Zm0-8h-2.79l-.14.19a1.14,1.14,0,0,0-.14.16,4.47,4.47,0,0,0,1.44,1.69A6.83,6.83,0,0,0,186.17,97.45Z"/><path class="cls-44" d="M199.76,106h-1.13l-1-2.67h-4l-.94,2.67h-1.14l3.58-9.41h1Zm-2.49-3.62-1.49-4.06a5.73,5.73,0,0,1-.14-.62h0a2.54,2.54,0,0,1-.15.62L194,102.4Z"/><path class="cls-44" d="M262,101.49h-4.83v4a.91.91,0,0,1-.27.68,1,1,0,0,1-.72.26c-.48,0-1,0-1.56,0l-.24-.64,1.87,0a.26.26,0,0,0,.2-.1.33.33,0,0,0,.08-.22v-4h-4.93v-.64h4.93V99.29a18.1,18.1,0,0,0,3.27-2.42h-6.87v-.64h7.77v.64a23.78,23.78,0,0,1-3.53,2.77v1.21H262Z"/><path class="cls-44" d="M264.74,103.61a14.91,14.91,0,0,1-.67,2.84l-.6-.26a12.79,12.79,0,0,0,.71-2.69Zm2.94-.75-.57.19c-.05-.22-.11-.44-.18-.68-1.22.33-2.28.58-3.2.75l-.19-.66a13,13,0,0,0,2.28-2.72l-2,.31-.16-.6A12.2,12.2,0,0,0,265.57,96l.58.19a14.26,14.26,0,0,1-1.68,3.18,14.87,14.87,0,0,0,1.72-.25,12.75,12.75,0,0,0,.84-1.53l.57.23a17.46,17.46,0,0,1-3.11,4.55,16.66,16.66,0,0,0,2.24-.52,6.22,6.22,0,0,0-.32-.81l.54-.2A10.55,10.55,0,0,1,267.68,102.86Zm-1.43,3.1-.62.12a14.46,14.46,0,0,0-.33-2.49l.58-.09A14.11,14.11,0,0,1,266.25,106Zm1.41-.55-.58.2a11,11,0,0,0-.52-2.14l.57-.18A11.51,11.51,0,0,1,267.66,105.41Zm6,.13a.81.81,0,0,1-.2.55.89.89,0,0,1-.48.3,6.63,6.63,0,0,1-1.09,0l-.26-.65h.65a1.69,1.69,0,0,0,.66-.07.26.26,0,0,0,.11-.25V96.87h-4.55v9.53h-.61V96.29h5.77Zm-1-5.69h-3.84v-.58h1a8.51,8.51,0,0,0-.6-1.52l.57-.23a14.2,14.2,0,0,1,.67,1.75h.67A13.54,13.54,0,0,0,272,97.5l.55.22a16.63,16.63,0,0,1-.67,1.55h.88Zm0,2.18h-2.56v1.78c0,.2.09.31.28.31h2.12v.56h-2.17a.75.75,0,0,1-.84-.86V102h-.67v-.57h1.86a8,8,0,0,0-.45-1.09l.59-.21c.13.3.31.73.51,1.3h1.33Z"/><path class="cls-44" d="M279.74,105a40.77,40.77,0,0,1-4.13,1.36l-.17-.63.64-.18v-4.87h.6v4.69c.16,0,.5-.13,1-.29v-5.3h-1.73v-3.4h3.44v3.4h-1.1v1.84h1.32v.62h-1.32v2.63a13.31,13.31,0,0,0,1.46-.57Zm-1-5.81V97h-2.18v2.21Zm7.23,1.94-.38.56a13.91,13.91,0,0,1-2.73-1.36,9.83,9.83,0,0,1-2.94,1.4l-.41-.58a10.43,10.43,0,0,0,2.82-1.19A6.56,6.56,0,0,1,281,98.31a7.82,7.82,0,0,1-1,.73l-.49-.47a6,6,0,0,0,2.56-2.68l.61.2a7.77,7.77,0,0,1-.48.9h3v.56a8.6,8.6,0,0,1-1.84,2.34A11.16,11.16,0,0,0,286,101.11Zm-.86,5.3h-.63v-.55h-3.3v.55h-.64V102h4.57Zm-.63-1.14v-2.64h-3.3v2.64Zm0-7.71h-2.72l-.14.18-.14.15a4.55,4.55,0,0,0,1.41,1.63A6.77,6.77,0,0,0,284.47,97.56Z"/><path class="cls-44" d="M290.78,105.8v-9h2.54a2.77,2.77,0,0,1,1.82.57,1.85,1.85,0,0,1,.69,1.5,2.17,2.17,0,0,1-.41,1.33,2.25,2.25,0,0,1-1.15.83v0a2.16,2.16,0,0,1,1.46.68,2.13,2.13,0,0,1,.56,1.53,2.36,2.36,0,0,1-.83,1.87,3.07,3.07,0,0,1-2.09.72Zm1-8.12v3h1.1a2.1,2.1,0,0,0,1.41-.43,1.52,1.52,0,0,0,.5-1.2c0-.9-.59-1.34-1.76-1.34Zm0,3.89v3.31h1.47a2.18,2.18,0,0,0,1.46-.45,1.5,1.5,0,0,0,.54-1.23c0-1.09-.75-1.63-2.24-1.63Z"/><path class="cls-44" d="M72,215.29a8.66,8.66,0,0,1-.67,2.15l-.58-.2a8.09,8.09,0,0,0,.47-1.35H66.67v1l3.07-.23,0,.59-3.1.21V218a.34.34,0,0,0,.11.24.37.37,0,0,0,.23.09H71.2v.58H66.83a.68.68,0,0,1-.77-.77v-.62l-2.07.15-.05-.61,2.12-.14v-1h-2.7v2.62A10.94,10.94,0,0,1,62.25,224l-.55-.34a8.06,8.06,0,0,0,.84-2.39,15.5,15.5,0,0,0,.21-2.74v-3.21h3.66v-2H67v.66h4.62v.59H67v.77Zm.22,8.3H63.5V223h3.07v-1h-2.1v-2h.64v1.31h1.46v-1.84h.62V223H68.4v-3.53H69v1.84h1.47V220h.62v2H69v1h3.16Z"/><path class="cls-44" d="M76.66,215.94h-1V218l.78-.52.05.67c-.44.31-.71.5-.83.57V223c0,.56-.34.84-1,.84-.16,0-.37,0-.62,0l-.19-.62,1,0c.17,0,.25-.1.25-.31V219.1c-.32.19-.69.39-1.12.61l-.2-.57q.86-.45,1.32-.75v-2.45H73.87v-.59h1.22v-2.17h.59v2.17h1ZM80,220.25H78.6a3.39,3.39,0,0,1-.11.52A10.74,10.74,0,0,1,79.58,222l-.41.4a11.37,11.37,0,0,0-.87-1,5.66,5.66,0,0,1-1.82,2.46l-.44-.41A4.82,4.82,0,0,0,78,220.25H76.5v-.55h1.55c0-.35,0-.82.07-1.41h-.59a9.07,9.07,0,0,1-.7.94l-.5-.32a6.06,6.06,0,0,0,1.2-2.08L78,217a3.58,3.58,0,0,1-.21.69h2v.58H78.71q0,.68-.06,1.41H80Zm.1-3.66H78.05a.79.79,0,0,1-.62-.25.88.88,0,0,1-.23-.62V213.2h.59v.89H80v.58H77.79v1c0,.21.12.31.35.31h2ZM84.33,223l-.11.62-.62,0a3.07,3.07,0,0,1-3-1.45,7,7,0,0,1-1.2,1.72l-.46-.38a5.38,5.38,0,0,0,1.52-4.26h.6a12.4,12.4,0,0,1-.22,2.15,2,2,0,0,0,.93,1.17v-5H80.3V217h2.24a11.77,11.77,0,0,0-1.87-1.76l.41-.42q.65.53,1,.81a11.91,11.91,0,0,0,1.33-1.58H80.52v-.56H84v.56a10.5,10.5,0,0,1-1.6,2,8.29,8.29,0,0,1,.56.65l-.32.33h1.51a8.54,8.54,0,0,1-.52,2.08l-.5-.26a7.25,7.25,0,0,0,.33-1.27H82.42v2.21h1.44v.58H82.42v2.49A5.37,5.37,0,0,0,84.33,223Z"/><path class="cls-44" d="M63,234.2a15,15,0,0,1-.67,2.9l-.6-.27a13.27,13.27,0,0,0,.71-2.75Zm3-.77-.58.2c0-.22-.11-.45-.18-.7-1.22.34-2.29.6-3.21.77l-.19-.68A12.48,12.48,0,0,0,64,230.25c-1.05.18-1.73.28-2,.32l-.16-.61a12.38,12.38,0,0,0,1.93-3.55l.58.19a14.52,14.52,0,0,1-1.68,3.25,13.48,13.48,0,0,0,1.73-.26,13.11,13.11,0,0,0,.84-1.56l.57.24a17.9,17.9,0,0,1-3.12,4.64,15.66,15.66,0,0,0,2.25-.54,7,7,0,0,0-.32-.82l.54-.2A10.86,10.86,0,0,1,65.92,233.43Zm-1.44,3.17-.62.12a17.54,17.54,0,0,0-.33-2.54l.58-.1A15.89,15.89,0,0,1,64.48,236.6Zm1.41-.57-.57.21a12.25,12.25,0,0,0-.53-2.18l.57-.19A11.27,11.27,0,0,1,65.89,236Zm6.08.14a.87.87,0,0,1-.2.55.85.85,0,0,1-.48.31,6.72,6.72,0,0,1-1.1,0l-.26-.66h.66a1.6,1.6,0,0,0,.65-.07.29.29,0,0,0,.12-.26v-8.73H66.79V237h-.61v-10.3H72Zm-1-5.8H67.14v-.59h1a9.49,9.49,0,0,0-.59-1.55l.57-.23a15.82,15.82,0,0,1,.67,1.78h.67a13.64,13.64,0,0,0,.81-1.81l.55.22a14.86,14.86,0,0,1-.67,1.59H71Zm0,2.22H68.43v1.81c0,.21.1.31.29.31h2.12v.58H68.66c-.56,0-.84-.3-.84-.88v-1.82h-.68V232H69a8.31,8.31,0,0,0-.46-1.11l.6-.21c.13.3.31.74.51,1.32H71Z"/><path class="cls-44" d="M78.07,235.6A41.38,41.38,0,0,1,73.91,237l-.17-.64a4.37,4.37,0,0,0,.64-.19v-5H75V236a9.5,9.5,0,0,0,1-.29v-5.4H74.25v-3.47H77.7v3.47H76.6v1.87h1.33v.63H76.6v2.68q.72-.24,1.47-.57Zm-1-5.92v-2.25H74.88v2.25Zm7.26,2-.38.57a14.13,14.13,0,0,1-2.75-1.38,10,10,0,0,1-3,1.43l-.41-.59a10.33,10.33,0,0,0,2.83-1.22,6.72,6.72,0,0,1-1.35-1.66,8.34,8.34,0,0,1-1,.75l-.49-.48a6.14,6.14,0,0,0,2.57-2.73l.61.19a5.36,5.36,0,0,1-.48.92h3V228a8.77,8.77,0,0,1-1.86,2.39A11.76,11.76,0,0,0,84.33,231.65Zm-.86,5.4h-.63v-.56H79.51v.56h-.63v-4.47h4.59Zm-.63-1.16V233.2H79.51v2.69Zm0-7.86H80.08l-.14.19-.14.15A4.49,4.49,0,0,0,81.21,230,6.69,6.69,0,0,0,82.81,228Z"/><path class="cls-44" d="M217.19,225.72l-.19.67h-4.84a5.56,5.56,0,0,1-4.68-2,8.3,8.3,0,0,1-.85,2.13l-.48-.48a13.21,13.21,0,0,0,1.23-5l.62.12a22,22,0,0,1-.32,2.36A3.45,3.45,0,0,0,209,225v-4.86h-2.76v-.61H209v-1.73h-2.49v-.65H209v-1.54h.64v1.54h1.81v.65h-1.81v1.73h2.12v.61h-2.12v1.61h1.87v.61h-1.87v3a4.92,4.92,0,0,0,2,.38c.86,0,1.89,0,3.1,0S216.73,225.75,217.19,225.72Zm-.08-3.77a5.75,5.75,0,0,1-.11,1.49,1.06,1.06,0,0,1-.59.73,5.57,5.57,0,0,1-1.78.18,5.24,5.24,0,0,1-1.78-.18c-.25-.13-.37-.45-.37-1v-7h4.12v4h-3.47v3.19c0,.15.1.24.32.26a11.48,11.48,0,0,0,1.26,0,3.43,3.43,0,0,0,1.45-.14,1,1,0,0,0,.21-.29,8.44,8.44,0,0,0,.13-1.55ZM216,219.6v-2.75h-2.82v2.75Z"/><path class="cls-44" d="M221,222.45a32.45,32.45,0,0,1-1.73,4l-.5-.52a30.2,30.2,0,0,0,1.63-3.83Zm.19-2.06-.42.5a20,20,0,0,0-2-1.44l.48-.48A15,15,0,0,1,221.15,220.39Zm.24-3-.49.48a14.27,14.27,0,0,0-2-1.54l.5-.49A19.18,19.18,0,0,1,221.39,217.41Zm8.3-.78h-2.94a11.69,11.69,0,0,1-.37,1.32h2.75v4.32H226.7v3.39a1,1,0,0,1-.24.64c-.16.2-.53.29-1.1.29l-.65,0-.18-.65a6.55,6.55,0,0,0,.86.06,1.13,1.13,0,0,0,.54-.08.26.26,0,0,0,.1-.19v-3.43H223.7V218h2c.1-.3.23-.74.37-1.32h-3.38v4.06a10.71,10.71,0,0,1-1.61,5.89l-.53-.47a7.33,7.33,0,0,0,1.07-2.33,16.53,16.53,0,0,0,.41-4.28V216h7.69Zm-4.63,6.86A14.6,14.6,0,0,1,223,225.9l-.45-.48a14.18,14.18,0,0,0,2.06-2.42Zm3.38-3.72v-1.21h-4.07v1.21Zm0,1.91v-1.29h-4.07v1.29Zm1.31,3.75-.47.49a16.87,16.87,0,0,0-1.76-2.42l.5-.45A18.48,18.48,0,0,1,229.75,225.43Z"/><path class="cls-44" d="M235.7,226.33h-.63v-1.07h-2.69v1.32h-.64v-8.86h1.16a12,12,0,0,0,.89-2.15l.63.13c-.15.44-.43,1.11-.85,2h2.13Zm-.63-5.3v-2.68h-2.69V221Zm0,3.59v-3h-2.69v3Zm6.89-6.89q-.06,2.81-.27,5.22a12.53,12.53,0,0,1-.4,2.84,1.31,1.31,0,0,1-.51.61,2.7,2.7,0,0,1-1.2.18l-1,0-.2-.64c.34,0,.71,0,1.1,0h.71a.57.57,0,0,0,.33-.16.78.78,0,0,0,.24-.33A9.23,9.23,0,0,0,241,224c.08-.83.15-1.74.2-2.74s.09-2,.12-2.91H238a16.88,16.88,0,0,1-1.52,2.47l-.51-.36a13.56,13.56,0,0,0,2.33-4.8l.63.16a19.42,19.42,0,0,1-.68,1.91Zm-2.3,5.61-.52.37a13.17,13.17,0,0,0-1.81-2.91l.53-.35A12,12,0,0,1,239.66,223.34Z"/><path class="cls-44" d="M246.38,222.57a22.22,22.22,0,0,1-1.92,4.07l-.54-.45a19.52,19.52,0,0,0,1.86-4Zm0-1.9-.46.49a11.4,11.4,0,0,0-2-1.65l.4-.51A13.79,13.79,0,0,1,246.35,220.67Zm.23-3.35-.44.53a12.06,12.06,0,0,0-1.85-1.73l.44-.51A15.81,15.81,0,0,1,246.58,217.32Zm1.91,4a10.83,10.83,0,0,1-.37,3.31,4.12,4.12,0,0,1-1.59,2l-.52-.48a3.79,3.79,0,0,0,1.29-1.34,7,7,0,0,0,.53-3.44Zm6.39-.51-.55.43a9.38,9.38,0,0,0-.75-1q-3.69.44-6.4.63l-.16-.65a6.78,6.78,0,0,0,2.52-2.62h-2.61v-.66h3a12.87,12.87,0,0,0,.59-1.33l.68.17c-.08.21-.25.6-.51,1.16h4v.66h-4.35a8.34,8.34,0,0,1-2.09,2.54c1.6-.11,3.21-.25,4.84-.44a8.81,8.81,0,0,0-1.12-1.08l.52-.44A15.11,15.11,0,0,1,254.88,220.82Zm-4.28,5.77H250v-5.26h.65Zm4.23-.14h-1.66c-.63,0-.94-.3-.94-.89v-4.23h.63v4.14c0,.23.13.34.38.34h1.59Z"/><path class="cls-44" d="M267.4,226.28H256.58v-.5h5.09V225h-4.34v-.49h4.34v-.8h-4v-2.9h8.63v2.9h-4v.8h4.35V225h-4.35v.82h5.09Zm-.1-6.23H256.72v-.5H267.3Zm-1-1.21H257.7V216h8.64ZM261.67,222v-.72h-3.36V222Zm0,1.19v-.72h-3.36v.72Zm4-6v-.71h-7.34v.71Zm0,1.18v-.71h-7.34v.71Zm0,3.64v-.72h-3.36V222Zm0,1.19v-.72h-3.36v.72Z"/><path class="cls-44" d="M280,218.36h-6.81c0,.66,0,1.38-.06,2.17h5.35a27.36,27.36,0,0,1-.22,3.4,8.22,8.22,0,0,1-.41,2,1.15,1.15,0,0,1-.55.56,4.22,4.22,0,0,1-1.56.18l-.82,0-.19-.7c.39,0,.78,0,1.17,0a3.1,3.1,0,0,0,1.08-.1.69.69,0,0,0,.3-.33,9.41,9.41,0,0,0,.29-1.62c.12-.92.19-1.82.22-2.71h-4.73a6.91,6.91,0,0,1-3.51,5.38l-.53-.52a7.7,7.7,0,0,0,2.05-1.72,5.33,5.33,0,0,0,1.18-2.3,19.45,19.45,0,0,0,.25-3.67h-3.29v-.68h5.22a9,9,0,0,0-1.2-1.79l.63-.29a9.46,9.46,0,0,1,1.33,2.08H280Z"/><path class="cls-44" d="M292,225.58a.9.9,0,0,1-1,1h-1.74L289,226h2.08a.26.26,0,0,0,.19-.1.28.28,0,0,0,.1-.19V218H283v8.66h-.65v-9.31h2.42a8.46,8.46,0,0,0,1.05-1.72l.66.14a8.08,8.08,0,0,1-.95,1.58H292Zm-2.54-1.38h-4.68v-4.45h4.68Zm-.66-.64V220.4h-3.35v3.16Z"/><path class="cls-44" d="M208.31,241.3a8.46,8.46,0,0,1-2-5.76,8.76,8.76,0,0,1,2-5.85h.92a8.92,8.92,0,0,0-2.07,5.84,8.74,8.74,0,0,0,2.06,5.77Z"/><path class="cls-44" d="M211.53,229.69l-.2,2.95h-.72l-.2-2.95Zm2.16,0-.2,2.95h-.71l-.21-2.95Z"/><path class="cls-44" d="M226.47,235.9h-2.89a8.36,8.36,0,0,1-1.45,1.87,32.7,32.7,0,0,1,4.14,1.49l-.37.57a26.39,26.39,0,0,0-4.35-1.57,12,12,0,0,1-5.52,1.53l-.35-.65a13,13,0,0,0,5-1.14c-1.18-.29-2.3-.53-3.39-.74.5-.44,1-.9,1.46-1.36H215.6v-.6h3.73a12,12,0,0,0,1-1.11l.67.2c-.13.18-.38.49-.73.91h2.9c.06-.11.17-.33.32-.67l.66.06a3.69,3.69,0,0,1-.25.61h2.6Zm-.11-6.09h-3.55v1.24h2.86V234h-9.22v-2.92h2.86v-1.24h-3.54v-.63h10.59Zm-7.05,3.54v-1.69h-2.2v1.69Zm3.49,2.55h-3.13c-.32.35-.66.68-1,1,.88.19,1.8.41,2.75.66A6.75,6.75,0,0,0,222.8,235.9Zm-.65-4.85v-1.24H220v1.24Zm0,2.3v-1.69H220v1.69Zm2.88,0v-1.69h-2.22v1.69Z"/><path class="cls-44" d="M232.53,235.72a21.58,21.58,0,0,1-4,3.09l-.38-.56a20.66,20.66,0,0,0,4-3.11Zm6.5,2.51-.4.57a9.09,9.09,0,0,1-4.64-3.89v3.9a.77.77,0,0,1-.37.74,3.38,3.38,0,0,1-1.41.2c-.23,0-.46,0-.69,0l-.28-.67c.35,0,.92,0,1.72,0a.32.32,0,0,0,.26-.13.37.37,0,0,0,.11-.24V231.6h-5.09V231h5.09v-2.09H234V231h5v.65h-5v1.82a6.78,6.78,0,0,0,.67,1.31,13.6,13.6,0,0,0,3-2.31l.53.45a15.44,15.44,0,0,1-3.2,2.4A8.65,8.65,0,0,0,239,238.23Zm-7.47-3.78-.46.5a11.6,11.6,0,0,0-2.22-2l.45-.49A12.53,12.53,0,0,1,231.56,234.45Zm6.06-4.31-.46.51a9.4,9.4,0,0,0-1.67-1.24l.4-.5A11.27,11.27,0,0,1,237.62,230.14Z"/><path class="cls-44" d="M242,229.69l-.2,2.95h-.72l-.19-2.95Zm2.16,0-.2,2.95h-.71l-.2-2.95Z"/><path class="cls-44" d="M245.37,241.3a8.71,8.71,0,0,0,2-5.77,8.88,8.88,0,0,0-2.07-5.84h.93a8.72,8.72,0,0,1,2.05,5.85,8.41,8.41,0,0,1-2.05,5.76Z"/><path class="cls-44" d="M208.66,256.64q-.14.56-.39,1.41l-.26.78v8.63h-.67v-6.87a16,16,0,0,1-1,1.78l-.35-.67a19,19,0,0,0,2-5.25Zm8.37,8.52h-1.81v1.27a1.11,1.11,0,0,1-.25.74c-.16.2-.54.29-1.14.29a4.78,4.78,0,0,1-.71,0l-.35-.61a9.45,9.45,0,0,0,1,.06,2,2,0,0,0,.66-.07.22.22,0,0,0,.13-.2v-1.44h-6v-.56h6v-.74h.68v.74H217Zm0-1.44-.44.41a6.44,6.44,0,0,0-.5-.63l-7.31.39-.1-.56,3.62-.19v-.86h-3v-3.46h3V258h-3.49v-.57h3.49v-.94H213v.94h3.71V258H213v.86h3.13v3.46h-.44A9.83,9.83,0,0,1,217.07,263.72Zm-4.66,2.83-.48.49a16.2,16.2,0,0,0-2.2-1.21l.45-.48A16.72,16.72,0,0,1,212.41,266.55Zm-.07-6.29v-.89H210v.89Zm0,1.45v-.91H210v.91Zm3.14-1.45v-.89H213v.89Zm0,1.45v-.91H213v.91Zm.08,1.25a3.54,3.54,0,0,0-.56-.5l.23-.18H213v.81C213.83,263,214.68,263,215.56,263Z"/><path class="cls-44" d="M229,267.45h-.7v-1.08h-8.41v1.08h-.68V256.77H229Zm-.7-1.75v-8.26h-8.41v8.26Zm-1.85-1.94h-4.75v-4.49h4.75Zm-.66-.66v-3.17h-3.43v3.17Z"/><path class="cls-44" d="M235.61,267.2H235v-1.08h-2.7v1.33h-.63v-8.87h1.16a11.65,11.65,0,0,0,.89-2.15l.62.13c-.15.44-.43,1.12-.85,2h2.14Zm-.63-5.3v-2.69h-2.7v2.69Zm0,3.59v-3h-2.7v3Zm6.89-6.89c-.05,1.87-.14,3.61-.27,5.21a13.07,13.07,0,0,1-.4,2.84,1.28,1.28,0,0,1-.52.61,2.65,2.65,0,0,1-1.19.18l-1,0-.2-.63h1.82a.62.62,0,0,0,.32-.15.81.81,0,0,0,.25-.34,9.91,9.91,0,0,0,.19-1.44c.09-.83.15-1.74.21-2.74s.09-2,.11-2.91h-3.26a16.82,16.82,0,0,1-1.51,2.47l-.51-.36a13.38,13.38,0,0,0,2.32-4.8l.64.16q-.31,1-.69,1.92Zm-2.3,5.6-.53.37a12.81,12.81,0,0,0-1.81-2.91l.54-.35A12.41,12.41,0,0,1,239.57,264.2Z"/><path class="cls-44" d="M246.29,263.44a22.14,22.14,0,0,1-1.92,4.06l-.55-.45a19.68,19.68,0,0,0,1.86-4Zm0-1.9-.45.49a11.09,11.09,0,0,0-2-1.66l.41-.51A13.06,13.06,0,0,1,246.25,261.54Zm.23-3.35-.43.52A13.12,13.12,0,0,0,244.2,257l.43-.51A15.88,15.88,0,0,1,246.48,258.19Zm1.92,4a11.13,11.13,0,0,1-.37,3.3,4.1,4.1,0,0,1-1.6,2l-.51-.48a3.8,3.8,0,0,0,1.28-1.35,6.92,6.92,0,0,0,.53-3.43Zm6.38-.52-.55.43a9.33,9.33,0,0,0-.75-1q-3.69.42-6.4.62l-.16-.65a6.8,6.8,0,0,0,2.53-2.62h-2.62v-.65h3c.16-.31.35-.75.59-1.34l.67.18c-.07.2-.25.59-.51,1.16h4v.65h-4.34a8.36,8.36,0,0,1-2.09,2.54c1.6-.1,3.21-.25,4.83-.44a9.44,9.44,0,0,0-1.11-1.08l.51-.43A14.71,14.71,0,0,1,254.78,261.68Zm-4.27,5.78h-.65V262.2h.65Zm4.22-.15h-1.66c-.62,0-.94-.29-.94-.88V262.2h.64v4.13c0,.23.12.34.38.34h1.58Z"/><path class="cls-44" d="M267.31,267.15H256.48v-.5h5.09v-.83h-4.34v-.49h4.34v-.8h-4v-2.89h8.62v2.89h-4v.8h4.35v.49h-4.35v.83h5.09Zm-.1-6.24H256.62v-.5h10.59Zm-1-1.21h-8.64v-2.87h8.64Zm-4.68,3.15v-.71h-3.35v.71Zm0,1.2v-.72h-3.35v.72Zm4-6v-.7h-7.35v.7Zm0,1.18v-.71h-7.35v.71Zm0,3.64v-.71h-3.36v.71Zm0,1.2v-.72h-3.36v.72Z"/><path class="cls-44" d="M279.91,259.22H273.1c0,.66,0,1.38-.06,2.18h5.34a27.2,27.2,0,0,1-.22,3.39,8.27,8.27,0,0,1-.4,2,1.22,1.22,0,0,1-.55.57,4.57,4.57,0,0,1-1.57.17h-.81l-.2-.71c.4,0,.78,0,1.17,0a3.18,3.18,0,0,0,1.09-.1.7.7,0,0,0,.3-.33,9.2,9.2,0,0,0,.29-1.61,25.49,25.49,0,0,0,.21-2.72H273a6.89,6.89,0,0,1-3.51,5.38l-.54-.52a7.74,7.74,0,0,0,2.06-1.72,5.17,5.17,0,0,0,1.17-2.29,19.46,19.46,0,0,0,.26-3.68h-3.3v-.67h5.23a9.22,9.22,0,0,0-1.21-1.79l.64-.3a9.19,9.19,0,0,1,1.32,2.09h4.82Z"/><path class="cls-44" d="M291.93,266.44a.9.9,0,0,1-1,1h-1.74l-.24-.65H291a.31.31,0,0,0,.29-.29v-7.69h-8.41v8.66h-.65v-9.3h2.43a8.79,8.79,0,0,0,1.05-1.73l.66.14a9,9,0,0,1-.95,1.59h6.52Zm-2.53-1.38h-4.68v-4.45h4.68Zm-.66-.64v-3.16h-3.36v3.16Z"/><path class="cls-44" d="M208.21,282.16a8.44,8.44,0,0,1-2-5.76,8.72,8.72,0,0,1,2-5.84h.93a8.88,8.88,0,0,0-2.08,5.83,8.68,8.68,0,0,0,2.07,5.77Z"/><path class="cls-44" d="M211.44,270.56l-.21,2.95h-.72l-.19-2.95Zm2.15,0-.19,2.95h-.72l-.2-2.95Z"/><path class="cls-44" d="M225.83,280.65h-.7v-1.08h-8.41v1.08H216V270h9.79Zm-.7-1.75v-8.26h-8.41v8.26ZM223.28,277h-4.75v-4.49h4.75Zm-.66-.66v-3.17h-3.43v3.17Z"/><path class="cls-44" d="M231.14,276.12a6.93,6.93,0,0,1-1,1v3.48h-.62v-3c-.25.19-.6.44-1,.73l-.45-.47a9.89,9.89,0,0,0,2.64-2.17Zm0-2.17a9.15,9.15,0,0,1-2.67,1.84l-.38-.5a9.45,9.45,0,0,0,2.56-1.67Zm7.79,6.12-.25.54a17.41,17.41,0,0,1-3.58-.68,21.8,21.8,0,0,1-3.8.76l-.3-.54a20.18,20.18,0,0,0,3.25-.54c-.49-.22-1-.48-1.6-.8a10.12,10.12,0,0,1-1.3.5l-.36-.49a9.34,9.34,0,0,0,1.14-.4,2.92,2.92,0,0,1-.56-.51l.41-.31a4.78,4.78,0,0,0,.72.59,9.1,9.1,0,0,0,1.17-.74h-1.49V275c-.23.17-.54.38-.94.64l-.48-.48a5.85,5.85,0,0,0,2.17-2h-4.19v-1.87h2.89v-.78h-3.55V270h10.49v.55h-3.53v.78h2.89v1.87h-4.29a3.09,3.09,0,0,1-.33.67h5.26v.56H233c-.32.32-.52.5-.59.56h5.65v2.46h-3.31l-.59.5h3.75v.51a9.41,9.41,0,0,1-2,1.15A18.22,18.22,0,0,0,238.91,280.07Zm-7.1-7.39v-.83h-2.24v.83Zm2.79-1.35v-.78h-2.17v.78Zm0,1.35v-.83h-2.17v.83Zm2.84,3.28v-.48H233V276Zm0,1v-.46H233v.46Zm-.52,1.54h-3.53l-.15.07a11.06,11.06,0,0,0,1.85.85A11.18,11.18,0,0,0,236.92,278.46Zm.53-5.78v-.83h-2.21v.83Z"/><path class="cls-44" d="M241.9,270.56l-.2,2.95H241l-.2-2.95Zm2.15,0-.19,2.95h-.72l-.2-2.95Z"/><path class="cls-44" d="M245.27,282.16a8.7,8.7,0,0,0,2.06-5.77,8.81,8.81,0,0,0-2.08-5.83h.94a8.73,8.73,0,0,1,2.05,5.84,8.46,8.46,0,0,1-2.05,5.76Z"/><path class="cls-44" d="M77,125.83H72.26v-9.41h1v8.46H77Z"/><path class="cls-44" d="M78.44,125.83v-9.41H81a2.83,2.83,0,0,1,1.87.59,1.93,1.93,0,0,1,.71,1.56,2.3,2.3,0,0,1-.42,1.38,2.27,2.27,0,0,1-1.18.86v0a2.31,2.31,0,0,1,1.5.71,2.24,2.24,0,0,1,.56,1.59,2.49,2.49,0,0,1-.84,2,3.13,3.13,0,0,1-2.15.75Zm1-8.45v3.09h1.12A2.11,2.11,0,0,0,82,120a1.53,1.53,0,0,0,.52-1.24c0-.93-.6-1.4-1.8-1.4Zm0,4v3.45H81a2.23,2.23,0,0,0,1.5-.47,1.58,1.58,0,0,0,.55-1.28c0-1.13-.77-1.7-2.29-1.7Z"/><path class="cls-44" d="M92.75,124.55a16,16,0,0,1-3.78,1.6l-.45-.56a13.88,13.88,0,0,0,3.72-1.51Zm6.48-1h-5v2.89H93.6v-2.89h-5v-.61h5v-.55h.61v.55h5Zm-.39-1.64H90.1v-3.42a10.72,10.72,0,0,1-1.1,1.14l-.38-.51a11.25,11.25,0,0,0,2.52-3.62l.59.21c-.1.25-.27.59-.51,1h3a4.93,4.93,0,0,0-.39-1l.56-.26a6.94,6.94,0,0,1,.48,1.26h3.8v.58h-4v.91h3.59v.58H94.68v.94h3.59v.57H94.68v1h4.16ZM94,118.23v-.91H90.87a.51.51,0,0,1-.14.21v.7Zm0,1.52v-.94H90.73v.94Zm0,1.53v-1H90.73v1Zm5.17,4.44-.39.52a16.79,16.79,0,0,0-3.69-1.71l.39-.49A19.42,19.42,0,0,1,99.21,125.72Z"/><path class="cls-44" d="M111.5,126.17h-8.6a1.3,1.3,0,0,1-.92-.35,1.27,1.27,0,0,1-.37-1V116.5h-.77v-.63h10.41v.63h-9v8.38a.6.6,0,0,0,.22.46.67.67,0,0,0,.43.2h8.59Zm-5.14-1.78h-3.22v-3.12h3.22Zm-.64-.6V121.9H103.8v1.89Zm3.53-3.59h-5v-2.69h5Zm-.64-.62v-1.45H104.9v1.45Zm2,4.83h-3.17v-3.13h3.17Zm-.61-.61v-1.89h-1.92v1.89Z"/></g></svg>