<svg xmlns="http://www.w3.org/2000/svg" xmlns:xlink="http://www.w3.org/1999/xlink" viewBox="0 0 221 285.86"><defs><style>.cls-1{fill:#fff;}.cls-2,.cls-3,.cls-4{fill:#3c3c41;}.cls-2{opacity:0.05;}.cls-2,.cls-26,.cls-4{isolation:isolate;}.cls-4{opacity:0.2;}.cls-5{fill:#ccc;fill-opacity:0.3;}.cls-6{fill:url(#Degradado_sin_nombre);}.cls-7{fill:#50e6ff;}.cls-8{fill:#c3f1ff;}.cls-9{fill:#9cebff;}.cls-10{fill:url(#Degradado_sin_nombre_2);}.cls-11{fill:url(#Degradado_sin_nombre_3);}.cls-12{fill:url(#Degradado_sin_nombre_4);}.cls-13{fill:#005ba1;}.cls-14{fill:#0078d4;}.cls-15{fill:url(#Degradado_sin_nombre_5);}.cls-16{fill:url(#Degradado_sin_nombre_6);}.cls-17{fill:url(#Degradado_sin_nombre_7);}.cls-18{fill:url(#Degradado_sin_nombre_8);}.cls-19,.cls-20,.cls-21{fill:none;stroke:#3c3c41;stroke-miterlimit:10;}.cls-20{stroke-dasharray:1.46 2.43;}.cls-21{stroke-dasharray:1.31 2.19;}.cls-22{fill:url(#Degradado_sin_nombre_9);}.cls-23{fill:url(#Degradado_sin_nombre_10);}.cls-24{fill:url(#Degradado_sin_nombre_11);}.cls-25{fill:#1490df;}.cls-26,.cls-27{fill:#6ebcdb;}.cls-26{opacity:0.4;}.cls-28{fill:#5db4d7;}.cls-29{fill:#e6e6e6;}.cls-30{fill:#86d633;}.cls-31{fill:#1e1e1e;}</style><linearGradient id="Degradado_sin_nombre" x1="37.07" y1="254.57" x2="37.07" y2="235.81" gradientTransform="translate(0 -112.95)" gradientUnits="userSpaceOnUse"><stop offset="0" stop-color="#0078d4"/><stop offset="0.82" stop-color="#5ea0ef"/></linearGradient><linearGradient id="Degradado_sin_nombre_2" x1="37.05" y1="261.8" x2="37.05" y2="254.57" gradientTransform="translate(0 -112.95)" gradientUnits="userSpaceOnUse"><stop offset="0.15" stop-color="#ccc"/><stop offset="1" stop-color="#707070"/></linearGradient><linearGradient id="Degradado_sin_nombre_3" x1="77.43" y1="254.57" x2="77.43" y2="235.81" xlink:href="#Degradado_sin_nombre"/><linearGradient id="Degradado_sin_nombre_4" x1="77.43" y1="261.8" x2="77.43" y2="254.57" xlink:href="#Degradado_sin_nombre_2"/><linearGradient id="Degradado_sin_nombre_5" x1="188.87" y1="257.81" x2="188.87" y2="247.47" xlink:href="#Degradado_sin_nombre"/><linearGradient id="Degradado_sin_nombre_6" x1="188.94" y1="261.8" x2="188.94" y2="257.81" xlink:href="#Degradado_sin_nombre_2"/><linearGradient id="Degradado_sin_nombre_7" x1="141.17" y1="254.57" x2="141.17" y2="235.81" xlink:href="#Degradado_sin_nombre"/><linearGradient id="Degradado_sin_nombre_8" x1="141.17" y1="261.8" x2="141.17" y2="254.57" xlink:href="#Degradado_sin_nombre_2"/><linearGradient id="Degradado_sin_nombre_9" x1="23.52" y1="313.02" x2="25.89" y2="315.39" gradientTransform="translate(3 -113.27)" gradientUnits="userSpaceOnUse"><stop offset="0" stop-color="#86d633"/><stop offset="0.24" stop-color="#83d232"/><stop offset="0.5" stop-color="#7cc52f"/><stop offset="0.76" stop-color="#6fb02a"/><stop offset="1" stop-color="#5e9624"/></linearGradient><linearGradient id="Degradado_sin_nombre_10" x1="18.17" y1="313.02" x2="20.53" y2="315.38" xlink:href="#Degradado_sin_nombre_9"/><linearGradient id="Degradado_sin_nombre_11" x1="12.83" y1="313.02" x2="15.18" y2="315.39" xlink:href="#Degradado_sin_nombre_9"/></defs><title>OJ104903287</title><g id="Target"><rect class="cls-1" x="0.54" width="220.46" height="285.86"/><rect class="cls-1" x="0.5" y="46.36" width="220" height="154" rx="5"/><rect class="cls-2" x="0.5" y="46.36" width="220" height="154" rx="5"/><path class="cls-3" d="M214.34,200.86h-1v-1h1Zm-3,0h-1v-1h1Zm-3,0h-1v-1h1Zm-3,0h-1v-1h1Zm-3,0h-1v-1h1Zm-3,0h-1v-1h1Zm-3,0h-1v-1h1Zm-3,0h-1v-1h1Zm-3,0h-1v-1h1Zm-3,0h-1v-1h1Zm-3,0h-1v-1h1Zm-3,0h-1v-1h1Zm-3,0h-1v-1h1Zm-3,0h-1v-1h1Zm-3,0h-1v-1h1Zm-3,0h-1v-1h1Zm-3,0h-1v-1h1Zm-3,0h-1v-1h1Zm-3,0h-1v-1h1Zm-3,0h-1v-1h1Zm-3,0h-1v-1h1Zm-3,0h-1v-1h1Zm-3,0h-1v-1h1Zm-3,0h-1v-1h1Zm-3,0h-1v-1h1Zm-3,0h-1v-1h1Zm-3,0h-1v-1h1Zm-3,0h-1v-1h1Zm-3,0h-1v-1h1Zm-3,0h-1v-1h1Zm-3,0h-1v-1h1Zm-3,0h-1v-1h1Zm-3,0h-1v-1h1Zm-3,0h-1v-1h1Zm-3,0h-1v-1h1Zm-3,0h-1v-1h1Zm-3,0h-1v-1h1Zm-3,0h-1v-1h1Zm-3,0h-1v-1h1Zm-3,0h-1v-1h1Zm-3,0h-1v-1h1Zm-3,0h-1v-1h1Zm-3,0h-1v-1h1Zm-3,0h-1v-1h1Zm-3,0h-1v-1h1Zm-3,0h-1v-1h1Zm-3,0h-1v-1h1Zm-3,0h-1v-1h1Zm-3,0h-1v-1h1Zm-3,0h-1v-1h1Zm-3,0h-1v-1h1Zm-3,0h-1v-1h1Zm-3,0h-1v-1h1Zm-3,0H54v-1h1Zm-3,0H51v-1h1Zm-3,0H48v-1h1Zm-3,0H45v-1h1Zm-3,0H42v-1h1Zm-3,0H39v-1h1Zm-3,0H36v-1h1Zm-30,0H6v-1H7Zm209.46-.08-.17-1a4.31,4.31,0,0,0,.87-.24l.36.94a5.86,5.86,0,0,1-1.44.3ZM4.2,200.59a5.24,5.24,0,0,1-1-.44l.49-.87a4,4,0,0,0,.82.36Zm215.5-1.29-.69-.72a5.35,5.35,0,0,0,.58-.68l.82.56a5,5,0,0,1-1.09.84ZM1.16,198.72a5.62,5.62,0,0,1-.59-.93l.9-.44a3.75,3.75,0,0,0,.48.76Zm219.73-2.27-1-.2a4.41,4.41,0,0,0,.09-.89l1-.06v.06A6.59,6.59,0,0,1,220.89,196.45ZM0,195.68v-1H1v1Zm221-2.39h-1v-1h1ZM1,192.64H0v-1H1Zm220-2.35h-1v-1h1ZM1,189.64H0v-1H1Zm220-2.36h-1v-1h1ZM1,186.63H0v-1H1Zm220-2.35h-1v-1h1ZM1,183.63H0v-1H1Zm220-2.36h-1v-1h1ZM1,180.62H0v-1H1Zm220-2.35h-1v-1h1ZM1,177.62H0v-1H1Zm220-2.36h-1v-1h1ZM1,174.61H0v-1H1Zm220-2.36h-1v-1h1ZM1,171.6H0v-1H1Zm220-2.35h-1v-1h1ZM1,168.6H0v-1H1Zm220-2.36h-1v-1h1ZM1,165.59H0v-1H1Zm220-2.35h-1v-1h1ZM1,162.59H0v-1H1Zm220-2.36h-1v-1h1ZM1,159.58H0v-1H1Zm220-2.35h-1v-1h1ZM1,156.58H0v-1H1Zm220-2.36h-1v-1h1ZM1,153.57H0v-1H1Zm220-2.35h-1v-1h1ZM1,150.57H0v-1H1Zm220-2.36h-1v-1h1ZM1,147.56H0v-1H1Zm220-2.35h-1v-1h1ZM1,144.55H0v-1H1Zm220-2.35h-1v-1h1ZM1,141.55H0v-1H1Zm220-2.36h-1v-1h1ZM1,138.54H0v-1H1Zm220-2.35h-1v-1h1ZM1,135.54H0v-1H1Zm220-2.36h-1v-1h1ZM1,132.53H0v-1H1Zm220-2.35h-1v-1h1ZM1,129.53H0v-1H1Zm220-2.36h-1v-1h1ZM1,126.52H0v-1H1Zm220-2.35h-1v-1h1ZM1,123.52H0v-1H1Zm220-2.36h-1v-1h1ZM1,120.51H0v-1H1Zm220-2.35h-1v-1h1ZM1,117.51H0v-1H1Zm220-2.36h-1v-1h1ZM1,114.5H0v-1H1Zm220-2.35h-1v-1h1ZM1,111.49H0v-1H1Zm220-2.35h-1v-1h1ZM1,108.49H0v-1H1Zm220-2.36h-1v-1h1ZM1,105.48H0v-1H1Zm220-2.35h-1v-1h1ZM1,102.48H0v-1H1Zm220-2.36h-1v-1h1ZM1,99.47H0v-1H1Zm220-2.35h-1v-1h1ZM1,96.47H0v-1H1Zm220-2.36h-1v-1h1ZM1,93.46H0v-1H1Zm220-2.35h-1v-1h1ZM1,90.46H0v-1H1ZM221,88.1h-1v-1h1ZM1,87.45H0v-1H1ZM221,85.1h-1v-1h1ZM1,84.44H0v-1H1Zm220-2.35h-1v-1h1ZM1,81.44H0v-1H1Zm220-2.36h-1v-1h1ZM1,78.43H0v-1H1Zm220-2.35h-1v-1h1ZM1,75.43H0v-1H1Zm220-2.36h-1v-1h1ZM1,72.42H0v-1H1Zm220-2.35h-1v-1h1ZM1,69.42H0v-1H1Zm220-2.36h-1v-1h1ZM1,66.41H0v-1H1Zm220-2.35h-1v-1h1ZM1,63.41H0v-1H1Zm220-2.36h-1v-1h1ZM1,60.4H0v-1H1Zm220-2.35h-1V57h1ZM1,57.4H0v-1H1ZM221,55h-1V54h1ZM1,54.39H0v-1H1ZM221,52h-1v-.68a1.41,1.41,0,0,0,0-.29l1-.07v1ZM0,51.38H0a6.36,6.36,0,0,1,.1-1.07l1,.2a5.12,5.12,0,0,0-.08.87Zm219.52-2a4.63,4.63,0,0,0-.48-.76l.78-.62a5,5,0,0,1,.59.93ZM1.78,48.84,1,48.27a6.31,6.31,0,0,1,.71-.84l.7.72A4.57,4.57,0,0,0,1.78,48.84Zm215.89-1.42a4.09,4.09,0,0,0-.83-.36l.31-1a6.28,6.28,0,0,1,1,.43ZM3.86,47.17l-.37-.93a4.92,4.92,0,0,1,1.06-.3l.17,1A4.37,4.37,0,0,0,3.86,47.17ZM215,46.86h-1v-1h1Zm-3,0h-1v-1h1Zm-3,0h-1v-1h1Zm-3,0h-1v-1h1Zm-3,0h-1v-1h1Zm-3,0h-1v-1h1Zm-3,0h-1v-1h1Zm-3,0h-1v-1h1Zm-3,0h-1v-1h1Zm-3,0h-1v-1h1Zm-3,0h-1v-1h1Zm-3,0h-1v-1h1Zm-3,0h-1v-1h1Zm-3,0h-1v-1h1Zm-3,0h-1v-1h1Zm-3,0h-1v-1h1Zm-3,0h-1v-1h1Zm-3,0h-1v-1h1Zm-3,0h-1v-1h1Zm-3,0h-1v-1h1Zm-3,0h-1v-1h1Zm-27,0h-1v-1h1Zm-3,0h-1v-1h1Zm-3,0h-1v-1h1Zm-3,0h-1v-1h1Zm-3,0h-1v-1h1Zm-3,0h-1v-1h1Zm-3,0h-1v-1h1Zm-3,0h-1v-1h1Zm-3,0h-1v-1h1Zm-3,0h-1v-1h1Zm-3,0H97v-1h1Zm-3,0H94v-1h1Zm-3,0H91v-1h1Zm-3,0H88v-1h1Zm-3,0H85v-1h1Zm-3,0H82v-1h1Zm-3,0H79v-1h1Zm-3,0H76v-1h1Zm-3,0H73v-1h1Zm-3,0H70v-1h1Zm-3,0H67v-1h1Zm-3,0H64v-1h1Zm-3,0H61v-1h1Zm-3,0H58v-1h1Zm-3,0H55v-1h1Zm-3,0H52v-1h1Zm-3,0H49v-1h1Zm-3,0H46v-1h1Zm-3,0H43v-1h1Zm-3,0H40v-1h1Zm-3,0H37v-1h1Zm-3,0H34v-1h1Zm-3,0H31v-1h1Zm-3,0H28v-1h1Zm-3,0H25v-1h1Zm-3,0H22v-1h1Zm-3,0H19v-1h1Zm-3,0H16v-1h1Zm-3,0H13v-1h1Zm-3,0H10v-1h1Zm-3,0H7v-1H8Z"/><rect class="cls-1" x="10" y="90.86" width="95" height="95" rx="0.3"/><rect class="cls-4" x="10" y="90.86" width="95" height="95" rx="0.3"/><rect class="cls-5" x="65" y="210.86" width="155" height="35"/><rect class="cls-5" x="65" y="250.86" width="155" height="35"/><rect class="cls-6" x="23" y="122.86" width="28.14" height="18.76" rx="0.94"/><polygon class="cls-7" points="41.76 129.5 41.76 134.96 37.07 137.71 37.07 132.24 41.76 129.5"/><polygon class="cls-8" points="41.76 129.5 37.07 132.25 32.38 129.5 37.07 126.76 41.76 129.5"/><polygon class="cls-9" points="37.07 132.25 37.07 137.71 32.38 134.96 32.38 129.5 37.07 132.25"/><polygon class="cls-8" points="32.38 134.96 37.07 132.24 37.07 137.71 32.38 134.96"/><polygon class="cls-9" points="41.76 134.96 37.07 132.24 37.07 137.71 41.76 134.96"/><path class="cls-10" d="M42.71,147.29c-2.78-.44-2.89-2.44-2.89-5.67H34.3c0,3.23-.09,5.23-2.87,5.67A1.56,1.56,0,0,0,30,148.86H44.11A1.58,1.58,0,0,0,42.71,147.29Z"/><rect class="cls-11" x="63.36" y="122.86" width="28.14" height="18.76" rx="0.94"/><polygon class="cls-7" points="82.12 129.5 82.12 134.96 77.43 137.71 77.43 132.24 82.12 129.5"/><polygon class="cls-8" points="82.12 129.5 77.43 132.25 72.74 129.5 77.43 126.76 82.12 129.5"/><polygon class="cls-9" points="77.43 132.25 77.43 137.71 72.74 134.96 72.74 129.5 77.43 132.25"/><polygon class="cls-8" points="72.74 134.96 77.43 132.24 77.43 137.71 72.74 134.96"/><polygon class="cls-9" points="82.12 134.96 77.43 132.24 77.43 137.71 82.12 134.96"/><path class="cls-12" d="M83.07,147.29c-2.78-.44-2.89-2.44-2.89-5.67H74.66c0,3.23-.09,5.23-2.88,5.67a1.56,1.56,0,0,0-1.39,1.57H84.46A1.56,1.56,0,0,0,83.07,147.29Z"/><rect class="cls-1" x="115" y="90.86" width="95" height="95"/><rect class="cls-4" x="115" y="90.86" width="95" height="95"/><rect class="cls-13" x="170.6" y="122.86" width="15.46" height="10.32" rx="0.52"/><polygon class="cls-7" points="180.91 126.51 180.91 129.52 178.34 131.02 178.34 128.03 180.91 126.51"/><polygon class="cls-8" points="180.91 126.51 178.34 128.03 175.75 126.51 178.34 125 180.91 126.51"/><polygon class="cls-9" points="178.34 128.03 178.34 131.02 175.75 129.52 175.75 126.51 178.34 128.03"/><rect class="cls-14" x="176.67" y="128.77" width="15.46" height="10.32" rx="0.52"/><polygon class="cls-7" points="186.98 132.44 186.98 135.44 184.41 136.96 184.41 133.94 186.98 132.44"/><polygon class="cls-8" points="186.98 132.44 184.41 133.94 181.82 132.44 184.41 130.93 186.98 132.44"/><polygon class="cls-9" points="184.41 133.94 184.41 136.96 181.82 135.44 181.82 132.44 184.41 133.94"/><rect class="cls-15" x="181.14" y="134.52" width="15.46" height="10.32" rx="0.52"/><polygon class="cls-7" points="191.44 138.19 191.44 141.19 188.88 142.71 188.88 139.69 191.44 138.19"/><polygon class="cls-8" points="191.44 138.19 188.88 139.71 186.29 138.19 188.88 136.68 191.44 138.19"/><polygon class="cls-9" points="188.88 139.71 188.88 142.71 186.29 141.19 186.29 138.19 188.88 139.71"/><polygon class="cls-8" points="186.29 141.19 188.88 139.69 188.88 142.71 186.29 141.19"/><polygon class="cls-9" points="191.44 141.19 188.88 139.69 188.88 142.71 191.44 141.19"/><path class="cls-16" d="M192,148c-1.52-.24-1.52-1.34-1.52-3.06h-3.06c0,1.78,0,2.88-1.53,3.06a.91.91,0,0,0-.77.88h7.65A.91.91,0,0,0,192,148Z"/><rect class="cls-17" x="127.1" y="122.86" width="28.14" height="18.76" rx="0.94"/><polygon class="cls-7" points="145.86 129.5 145.86 134.96 141.17 137.71 141.17 132.24 145.86 129.5"/><polygon class="cls-8" points="145.86 129.5 141.17 132.25 136.48 129.5 141.17 126.76 145.86 129.5"/><polygon class="cls-9" points="141.17 132.25 141.17 137.71 136.48 134.96 136.48 129.5 141.17 132.25"/><polygon class="cls-8" points="136.48 134.96 141.17 132.24 141.17 137.71 136.48 134.96"/><polygon class="cls-9" points="145.86 134.96 141.17 132.24 141.17 137.71 145.86 134.96"/><path class="cls-18" d="M146.81,147.29c-2.78-.44-2.89-2.44-2.89-5.67H138.4c0,3.23-.09,5.23-2.87,5.67a1.58,1.58,0,0,0-1.4,1.57h14.08A1.58,1.58,0,0,0,146.81,147.29Z"/><line class="cls-19" x1="90.37" y1="90.71" x2="90.37" y2="63.64"/><line class="cls-19" x1="82.84" y1="85.18" x2="82.84" y2="73.48"/><polygon class="cls-3" points="85.83 74.36 82.84 69.18 79.85 74.36 85.83 74.36"/><line class="cls-19" x1="97.89" y1="80.87" x2="97.89" y2="80.12"/><line class="cls-20" x1="97.89" y1="77.69" x2="97.89" y2="71.14"/><line class="cls-19" x1="97.89" y1="69.93" x2="97.89" y2="69.18"/><polygon class="cls-3" points="100.88 80 97.89 85.18 94.9 80 100.88 80"/><line class="cls-19" x1="129.52" y1="90.71" x2="129.52" y2="63.64"/><line class="cls-19" x1="122" y1="85.18" x2="122" y2="73.48"/><polygon class="cls-3" points="124.99 74.36 122 69.18 119.01 74.36 124.99 74.36"/><line class="cls-19" x1="137.05" y1="80.87" x2="137.05" y2="80.12"/><line class="cls-20" x1="137.05" y1="77.69" x2="137.05" y2="71.14"/><line class="cls-19" x1="137.05" y1="69.93" x2="137.05" y2="69.18"/><polygon class="cls-3" points="140.04 80 137.05 85.18 134.06 80 140.04 80"/><line class="cls-19" x1="109.7" y1="38.29" x2="109.7" y2="18.79"/><line class="cls-19" x1="74.31" y1="220.86" x2="85.43" y2="220.86"/><polygon class="cls-3" points="75.18 223.85 70 220.85 75.18 217.86 75.18 223.85"/><line class="cls-19" x1="80.69" y1="260.86" x2="79.94" y2="260.86"/><line class="cls-21" x1="77.75" y1="260.86" x2="71.84" y2="260.86"/><line class="cls-19" x1="70.75" y1="260.86" x2="70" y2="260.86"/><polygon class="cls-3" points="79.82 257.86 85 260.86 79.82 263.85 79.82 257.86"/><path class="cls-19" d="M105.83,41,68.08,29.65a4.3,4.3,0,0,1-2.88-3.86v-7"/><path class="cls-19" d="M114,41l43.3-11.45a4.1,4.1,0,0,0,2.9-3.76v-7"/><circle class="cls-22" cx="27.4" cy="200.63" r="1.67"/><circle class="cls-23" cx="22.06" cy="200.64" r="1.67"/><circle class="cls-24" cx="16.72" cy="200.64" r="1.67"/><path class="cls-7" d="M17.93,207.34l-1,1a.43.43,0,0,1-.61,0h0l-7.09-7.08a.88.88,0,0,1,0-1.22h0l1-1h0l7.71,7.69a.43.43,0,0,1,0,.61h0Z"/><path class="cls-25" d="M16.83,193l1,1a.43.43,0,0,1,0,.61h0l-7.57,7.6h0l-1-1a.88.88,0,0,1,0-1.22h0l7-7A.43.43,0,0,1,16.83,193Z"/><path class="cls-7" d="M33.78,199l1,1a.86.86,0,0,1,0,1.22h0l-7.1,7.08a.43.43,0,0,1-.61,0h0l-1-1a.44.44,0,0,1,0-.62h0Z"/><path class="cls-25" d="M34.74,201.2l-1,1h0l-7.57-7.6a.43.43,0,0,1,0-.61h0l1-1a.43.43,0,0,1,.61,0h0l7,7a.88.88,0,0,1,0,1.22h0Z"/><rect class="cls-1" x="47.35" width="35" height="20.86"/><rect class="cls-4" x="47.35" width="35" height="20.86"/><rect class="cls-1" x="92.7" width="35" height="20.86"/><rect class="cls-4" x="92.7" width="35" height="20.86"/><rect class="cls-1" x="137.7" width="45" height="20.86"/><rect class="cls-4" x="137.7" width="45" height="20.86"/><rect class="cls-1" x="74.7" y="53.5" width="70" height="10"/><rect class="cls-26" x="74.7" y="53.5" width="70" height="10"/><g id="ad94e297-0e86-4eaf-aac0-d146ee9aea65"><path class="cls-27" d="M105.63,53.85,101,49a2.28,2.28,0,0,1-.78.13,2.43,2.43,0,1,1,2.24-3.32H107v1.62h-4.55a3.68,3.68,0,0,1-.26.57l4.33,4.46,2.34-3.57V37.72h-3.15l4-4,3.94,4H110.5v8.74l5.93-9.05-6-6a1,1,0,0,0-1.41-.05l0,.05h0L94.52,45.89a1,1,0,0,0,0,1.41l0,.05h0L109,61.84l-5.16-5.17Z"/><path class="cls-28" d="M108.89,54.05V48.89l-2.34,3.58,1.72,1.84A2,2,0,0,1,108.89,54.05Z"/><path class="cls-28" d="M124.91,45.89l-8.47-8.48-5.93,9.05v7.61a2.1,2.1,0,0,1,.53.29l6.22-6.28a3.15,3.15,0,0,1-.31-.64h-4.67V45.82H117a2.42,2.42,0,1,1,2.24,3.32,2.53,2.53,0,0,1-.67-.1L112,55.71a2.18,2.18,0,0,1,.11.62,2.43,2.43,0,0,1-4.86.19h0a2.5,2.5,0,0,1,.14-.9l-1.73-1.72-1.84,2.76L109,61.82a1,1,0,0,0,1.41,0l0,0,14.47-14.47a1,1,0,0,0,0-1.41l0,0Z"/><path class="cls-29" d="M117,45.82h-4.74v1.62H117a2.93,2.93,0,0,1-.12-.72A2.28,2.28,0,0,1,117,45.82Z"/><path class="cls-29" d="M102.48,47.44H107V45.82h-4.62a2.14,2.14,0,0,1,.19.9A2.19,2.19,0,0,1,102.48,47.44Z"/><path class="cls-29" d="M112,55.71,118.59,49a2.43,2.43,0,0,1-1.33-1L111,54.36A2.28,2.28,0,0,1,112,55.71Z"/><path class="cls-29" d="M108.32,54.31l-1.72-1.84L102.22,48A2.49,2.49,0,0,1,101,49l4.68,4.84,1.73,1.72A2.48,2.48,0,0,1,108.32,54.31Z"/><path class="cls-1" d="M113.65,37.72l-3.93-4-4,4h3.15V54.05a2.09,2.09,0,0,0-.57.26,2.41,2.41,0,1,0,2.81,3.92A2.45,2.45,0,0,0,112,57a2.31,2.31,0,0,0,.11-.69,2.18,2.18,0,0,0-.11-.62,2.26,2.26,0,0,0-.93-1.35,2.1,2.1,0,0,0-.53-.29V37.72Zm-3.93,20a1.35,1.35,0,1,1,1.34-1.36v0h0a1.34,1.34,0,0,1-1.34,1.29Z"/><path class="cls-1" d="M102.22,48a3.68,3.68,0,0,0,.26-.57,2.22,2.22,0,0,0,.12-.72,2.14,2.14,0,0,0-.19-.9,2.41,2.41,0,1,0-2.24,3.32A2.36,2.36,0,0,0,101,49,2.49,2.49,0,0,0,102.22,48Zm-2,0a1.35,1.35,0,1,1,1.35-1.35h0a1.35,1.35,0,0,1-1.29,1.4h-.06Z"/><path class="cls-1" d="M118.59,49a2.53,2.53,0,0,0,.67.1A2.43,2.43,0,1,0,117,45.82a2.3,2.3,0,0,0-.19.9,2.93,2.93,0,0,0,.12.72,3.15,3.15,0,0,0,.31.64A2.5,2.5,0,0,0,118.59,49Zm.67-3.65a1.56,1.56,0,1,1-.28,0h0Z"/><path class="cls-30" d="M109.72,55a1.35,1.35,0,0,0-1.46,1.23,1.34,1.34,0,0,0,1.23,1.46.89.89,0,0,0,.23,0,1.34,1.34,0,0,0,1.34-1.34h0A1.36,1.36,0,0,0,109.72,55Z"/><circle class="cls-30" cx="100.17" cy="46.72" r="1.34"/><path class="cls-30" d="M119.26,48.06a1.35,1.35,0,1,0-1.34-1.36v0h0A1.34,1.34,0,0,0,119.26,48.06Z"/></g></g><g id="Text"><path class="cls-31" d="M148.15,13.93a.82.82,0,0,1-.2.56.82.82,0,0,1-.57.23h-.77l-.62,0-.22-.64c.3,0,.8,0,1.5,0a.26.26,0,0,0,.18-.09.32.32,0,0,0,.08-.2V12.07H144.8a6.32,6.32,0,0,1-1.15,2.74l-.48-.43a7.07,7.07,0,0,0,1.14-4.33V7.39h3.84Zm5.45-7.58H143.18v-.6H153.6Zm-6.07,5.13V10h-2.6c0,.31,0,.8-.07,1.47Zm0-2.09V8h-2.6V9.39Zm0-4.07-.6.25a7,7,0,0,0-1.21-1.11l.67-.26A8.09,8.09,0,0,1,147.53,5.32Zm3.67-.83A5.71,5.71,0,0,1,150,5.56l-.64-.33a6.87,6.87,0,0,0,1.26-1Zm-.9,8.23h-.6V7.57h.6Zm2.37,1.13a.9.9,0,0,1-.16.55.65.65,0,0,1-.4.27,4.68,4.68,0,0,1-.92.05c-.26,0-.54,0-.84,0l-.23-.66,1.65.06c.19,0,.29-.1.29-.34V7.29h.61Z"/><path class="cls-31" d="M165.61,14.46H155.23v-.53h1.4V8.86h2.8l.3-.85h-4.41V7.46h4.6l.23-.79H155.8V4.52H165V6.67h-4.2l-.24.79h4.87V8h-5.06l-.28.85h4.09v5.07h1.43Zm-7-8.28V5h-2.24V6.18Zm4.92,3.93V9.36h-6.31v.75Zm0,1.23V10.6h-6.31v.74Zm0,1.31v-.83h-6.31v.83Zm0,1.28v-.78h-6.31v.78Zm-2-7.75V5h-2.25V6.18Zm2.85,0V5h-2.23V6.18Z"/><path class="cls-31" d="M171.45,6.15h-4.26V5.54h2a7,7,0,0,0-.53-1.13l.57-.28a8.36,8.36,0,0,1,.64,1.41h1.58Zm-.38,1.67h-3.44v-.6h3.44Zm0,1.71h-3.44V9h3.44Zm-.11,5h-.63v-.69h-2v.89h-.64v-4H171Zm-.63-1.3V11.35h-2v1.87Zm5.56-5.83h-4.18V6.8h4.18Zm1.43,6.43a.78.78,0,0,1-.17.5.81.81,0,0,1-.41.31,5.15,5.15,0,0,1-1.19.08l-.71,0-.22-.63,1.26,0a1.68,1.68,0,0,0,.69-.08.35.35,0,0,0,.15-.32V5.15h-5V4.53h5.58Zm-1.86-1.24h-3.39V9h3.39Zm-.64-.63V9.64h-2.13V12Z"/><path class="cls-31" d="M103.45,10.67v3.44h-1V5h2.45a3.23,3.23,0,0,1,2.23.71,2.52,2.52,0,0,1,.8,2A2.73,2.73,0,0,1,107,9.9a3.29,3.29,0,0,1-2.33.77Zm0-4.71V9.74h1.13a2.53,2.53,0,0,0,1.71-.51,1.78,1.78,0,0,0,.59-1.44c0-1.22-.72-1.83-2.15-1.83Z"/><path class="cls-31" d="M110.66,14.11h-1V5h1Z"/><path class="cls-31" d="M114.07,10.67v3.44h-1V5h2.45a3.23,3.23,0,0,1,2.23.71,2.49,2.49,0,0,1,.8,2,2.73,2.73,0,0,1-.94,2.16,3.28,3.28,0,0,1-2.33.77Zm0-4.71V9.74h1.14a2.57,2.57,0,0,0,1.71-.51,1.81,1.81,0,0,0,.58-1.44c0-1.22-.71-1.83-2.15-1.83Z"/><path class="cls-31" d="M138.7,49.86h-1.26l-4.73-7.33a3.45,3.45,0,0,1-.28-.54h0a9.5,9.5,0,0,1,.05,1.22v6.65h-1V40.79h1.32L137.37,48a5.79,5.79,0,0,1,.36.62h0a9.22,9.22,0,0,1-.07-1.36V40.79h1Z"/><path class="cls-31" d="M148.06,49.86H147l-1-2.58h-3.89l-.92,2.58H140l3.5-9.07h1Zm-2.43-3.49-1.46-3.92a4.23,4.23,0,0,1-.13-.6h0a2.34,2.34,0,0,1-.15.6l-1.43,3.92Z"/><path class="cls-31" d="M153.78,41.7h-2.62v8.16h-1V41.7h-2.62v-.91h6.24Z"/><path class="cls-31" d="M58.16,10.67v3.44h-1V5h2.45a3.19,3.19,0,0,1,2.22.71,2.49,2.49,0,0,1,.81,2A2.73,2.73,0,0,1,61.7,9.9a3.27,3.27,0,0,1-2.32.77Zm0-4.71V9.74H59.3A2.53,2.53,0,0,0,61,9.23a1.81,1.81,0,0,0,.59-1.44Q61.6,6,59.44,6Z"/><path class="cls-31" d="M65.38,14.11h-1V5h1Z"/><path class="cls-31" d="M68.79,10.67v3.44h-1V5h2.45a3.23,3.23,0,0,1,2.23.71,2.52,2.52,0,0,1,.8,2,2.76,2.76,0,0,1-.94,2.16,3.29,3.29,0,0,1-2.33.77Zm0-4.71V9.74h1.13a2.53,2.53,0,0,0,1.71-.51,1.81,1.81,0,0,0,.59-1.44Q72.22,6,70.06,6Z"/><path class="cls-31" d="M44.88,101.52h-5v4.16a1,1,0,0,1-.27.7,1,1,0,0,1-.74.28l-1.59,0-.25-.67c.93,0,1.57,0,1.91,0a.24.24,0,0,0,.2-.11.35.35,0,0,0,.09-.22v-4.15H34.23v-.66h5.05V99.25a18.75,18.75,0,0,0,3.34-2.52h-7v-.67h8v.67a24.08,24.08,0,0,1-3.62,2.87v1.26h5Z"/><path class="cls-31" d="M47.71,103.73a15.59,15.59,0,0,1-.69,3l-.61-.28a13,13,0,0,0,.72-2.8Zm3-.78-.59.2a5.28,5.28,0,0,0-.18-.71q-1.86.53-3.27.78l-.2-.69a13,13,0,0,0,2.33-2.82c-1.08.18-1.77.28-2.06.32l-.17-.62a12.63,12.63,0,0,0,2-3.62l.6.2a14.82,14.82,0,0,1-1.72,3.3A14.3,14.3,0,0,0,49.2,99a13.56,13.56,0,0,0,.85-1.59l.59.24a18.4,18.4,0,0,1-3.19,4.74,18.26,18.26,0,0,0,2.3-.55,6.69,6.69,0,0,0-.33-.84l.55-.21A11.63,11.63,0,0,1,50.72,103Zm-1.46,3.23-.64.12a16.93,16.93,0,0,0-.34-2.59l.6-.1A16.52,16.52,0,0,1,49.26,106.18Zm1.44-.58-.59.21a12.05,12.05,0,0,0-.54-2.22l.59-.19A13.48,13.48,0,0,1,50.7,105.6Zm6.2.14a.87.87,0,0,1-.21.57.93.93,0,0,1-.49.31,7,7,0,0,1-1.12,0l-.27-.68h.67a1.72,1.72,0,0,0,.67-.07.28.28,0,0,0,.12-.26V96.73H51.61v9.9H51V96.12H56.9Zm-1-5.91H52v-.61h1a9.38,9.38,0,0,0-.61-1.58l.58-.23a14.56,14.56,0,0,1,.69,1.81h.69a14.11,14.11,0,0,0,.82-1.84l.56.23A16.32,16.32,0,0,1,55,99.22h.9Zm0,2.26H53.29v1.84c0,.22.09.33.29.33h2.17v.58H53.52a.78.78,0,0,1-.86-.89v-1.86H52v-.59h1.92a10.38,10.38,0,0,0-.47-1.14l.6-.21c.15.31.32.76.53,1.35h1.36Z"/><path class="cls-31" d="M63.08,105.16a43,43,0,0,1-4.24,1.41l-.17-.66a5.35,5.35,0,0,0,.65-.18v-5.07h.61v4.88a9.17,9.17,0,0,0,1-.3V99.73H59.18V96.2H62.7v3.53H61.58v1.91h1.35v.64H61.58V105a15,15,0,0,0,1.5-.59Zm-1-6v-2.3H59.82v2.3Zm7.4,2-.39.58a14.11,14.11,0,0,1-2.8-1.42,9.7,9.7,0,0,1-3,1.46l-.42-.6a10.2,10.2,0,0,0,2.89-1.25,6.74,6.74,0,0,1-1.38-1.68,9.55,9.55,0,0,1-1,.76l-.51-.49a6.31,6.31,0,0,0,2.63-2.79l.62.2a6.45,6.45,0,0,1-.49.94h3.1v.58a8.91,8.91,0,0,1-1.88,2.44A12.14,12.14,0,0,0,69.46,101.14Zm-.88,5.5h-.64v-.57H64.55v.57H63.9v-4.56h4.68Zm-.64-1.19v-2.74H64.55v2.74Zm0-8H65.13a2.25,2.25,0,0,1-.15.19l-.13.16a4.47,4.47,0,0,0,1.44,1.69A6.83,6.83,0,0,0,67.92,97.44Z"/><path class="cls-31" d="M81.51,106H80.38l-1-2.67h-4L74.44,106H73.3l3.58-9.41h1ZM79,102.39l-1.49-4.06a5.73,5.73,0,0,1-.14-.62h0a2.54,2.54,0,0,1-.15.62l-1.47,4.06Z"/><path class="cls-31" d="M150.65,101.47h-4.83v4a.93.93,0,0,1-.27.68,1,1,0,0,1-.72.26c-.48,0-1,0-1.56,0l-.24-.64,1.87,0a.26.26,0,0,0,.2-.1.33.33,0,0,0,.08-.22v-4h-4.93v-.63h4.93V99.28a18.1,18.1,0,0,0,3.27-2.42h-6.87v-.64h7.77v.64a24.46,24.46,0,0,1-3.53,2.77v1.21h4.83Z"/><path class="cls-31" d="M153.41,103.6a14.91,14.91,0,0,1-.67,2.84l-.6-.26a12.79,12.79,0,0,0,.71-2.69Zm2.94-.75-.57.19c-.05-.22-.11-.45-.18-.68-1.22.33-2.28.58-3.2.75l-.19-.67a12.67,12.67,0,0,0,2.28-2.71l-2,.31-.16-.6A12.2,12.2,0,0,0,154.24,96l.58.18a14.11,14.11,0,0,1-1.68,3.19,14.87,14.87,0,0,0,1.72-.25,12.75,12.75,0,0,0,.84-1.53l.57.23a17.46,17.46,0,0,1-3.11,4.55,16.66,16.66,0,0,0,2.24-.52,6.22,6.22,0,0,0-.32-.81l.54-.2A10.55,10.55,0,0,1,156.35,102.85Zm-1.43,3.1-.62.12a14.46,14.46,0,0,0-.33-2.49l.58-.09A14.11,14.11,0,0,1,154.92,106Zm1.41-.55-.58.2a11,11,0,0,0-.52-2.14l.57-.18A11.51,11.51,0,0,1,156.33,105.4Zm6,.13a.83.83,0,0,1-.2.55.82.82,0,0,1-.48.29,5.38,5.38,0,0,1-1.09,0l-.26-.65H161a1.93,1.93,0,0,0,.66-.07.26.26,0,0,0,.11-.25V96.86h-4.55v9.53h-.61V96.28h5.77Zm-1-5.69h-3.84v-.58h1a8.51,8.51,0,0,0-.6-1.52l.57-.23a13.61,13.61,0,0,1,.67,1.75h.67a13.54,13.54,0,0,0,.81-1.77l.55.22c-.11.33-.34.84-.67,1.55h.88Zm0,2.18h-2.56v1.77c0,.21.09.31.28.31h2.12v.57h-2.17a.75.75,0,0,1-.84-.86V102h-.67v-.57h1.86a8,8,0,0,0-.45-1.09l.59-.21c.13.3.31.73.51,1.3h1.33Z"/><path class="cls-31" d="M168.41,105a40.77,40.77,0,0,1-4.13,1.36l-.17-.63.64-.18v-4.88h.6v4.7c.16,0,.5-.13,1-.29v-5.3h-1.73v-3.4h3.44v3.4H167v1.84h1.32v.62H167v2.62a11.47,11.47,0,0,0,1.46-.56Zm-1-5.81V97h-2.18v2.21Zm7.23,1.94-.38.56a13.91,13.91,0,0,1-2.73-1.36,9.83,9.83,0,0,1-2.94,1.4l-.41-.58A10.43,10.43,0,0,0,171,99.93a6.56,6.56,0,0,1-1.35-1.63,7.82,7.82,0,0,1-1,.73l-.49-.47a6,6,0,0,0,2.56-2.68l.61.19a6.42,6.42,0,0,1-.48.9h3v.57a8.6,8.6,0,0,1-1.84,2.34A11.58,11.58,0,0,0,174.65,101.1Zm-.86,5.3h-.63v-.55h-3.3v.55h-.64V102h4.57Zm-.63-1.14v-2.64h-3.3v2.64Zm0-7.71h-2.72s-.07.1-.14.18l-.14.15a4.55,4.55,0,0,0,1.41,1.63A6.77,6.77,0,0,0,173.14,97.55Z"/><path class="cls-31" d="M179.45,105.79V96.74H182a2.77,2.77,0,0,1,1.82.57,1.85,1.85,0,0,1,.69,1.5,2.17,2.17,0,0,1-.41,1.33,2.25,2.25,0,0,1-1.15.83v0a2.16,2.16,0,0,1,1.46.68,2.13,2.13,0,0,1,.56,1.53,2.36,2.36,0,0,1-.83,1.87,3.07,3.07,0,0,1-2.09.72Zm1-8.13v3h1.1a2.1,2.1,0,0,0,1.41-.43,1.52,1.52,0,0,0,.5-1.2c0-.9-.59-1.35-1.76-1.35Zm0,3.9v3.31h1.47a2.18,2.18,0,0,0,1.46-.45,1.52,1.52,0,0,0,.54-1.23c0-1.09-.75-1.63-2.24-1.63Z"/><path class="cls-31" d="M33.9,156.7l-3.38,9.22h-1.1L26.1,156.7h1.12l2.56,7.37a4.06,4.06,0,0,1,.18.81h0a3.54,3.54,0,0,1,.21-.82l2.62-7.36Z"/><path class="cls-31" d="M43.41,165.92v-6.23c0-.47,0-1.06.09-1.78h0a5.14,5.14,0,0,1-.27.87L40,165.92h-.44l-3.17-7.09a6.13,6.13,0,0,1-.27-.92h0a17.29,17.29,0,0,1,.06,1.77v6.24h-1V156.7H36.5l2.85,6.49a11.43,11.43,0,0,1,.42,1.09h0c.12-.32.27-.69.44-1.12l2.92-6.46h1.24v9.22Z"/><path class="cls-31" d="M75.65,156.7l-3.39,9.22h-1.1l-3.31-9.22H69l2.57,7.37a4.06,4.06,0,0,1,.18.81h0a3.54,3.54,0,0,1,.21-.82l2.62-7.36Z"/><path class="cls-31" d="M85.15,165.92v-6.23c0-.47,0-1.06.1-1.78h0a5.14,5.14,0,0,1-.27.87l-3.18,7.14h-.44l-3.17-7.09a4.4,4.4,0,0,1-.27-.92h0c0,.33,0,.92,0,1.77v6.24h-1V156.7h1.3l2.86,6.49a11.43,11.43,0,0,1,.42,1.09h0c.12-.32.27-.69.44-1.12l2.92-6.46h1.23v9.22Z"/><path class="cls-31" d="M139.23,156.7l-3.38,9.22h-1.1l-3.32-9.22h1.12l2.56,7.37a4.06,4.06,0,0,1,.18.81h0a3.54,3.54,0,0,1,.21-.82l2.62-7.36Z"/><path class="cls-31" d="M148.74,165.92v-6.23c0-.47,0-1.06.09-1.78h0a5.14,5.14,0,0,1-.27.87l-3.17,7.14h-.45l-3.17-7.09a6.13,6.13,0,0,1-.27-.92h0c0,.33.05.92.05,1.77v6.24h-1V156.7h1.31l2.85,6.49a11.43,11.43,0,0,1,.42,1.09h0c.12-.32.27-.69.45-1.12l2.91-6.46h1.24v9.22Z"/><path class="cls-31" d="M174.87,156.7l-3.38,9.22h-1.1l-3.32-9.22h1.12l2.56,7.37a4.06,4.06,0,0,1,.18.81h0a3.54,3.54,0,0,1,.21-.82l2.62-7.36Z"/><path class="cls-31" d="M184.38,165.92v-6.23c0-.47,0-1.06.09-1.78h0a5.14,5.14,0,0,1-.27.87L181,165.92h-.45l-3.17-7.09a5.12,5.12,0,0,1-.27-.92h0a17.29,17.29,0,0,1,.06,1.77v6.24h-1V156.7h1.31l2.85,6.49a11.43,11.43,0,0,1,.42,1.09h0c.12-.32.27-.69.44-1.12l2.92-6.46h1.24v9.22Z"/><path class="cls-31" d="M187.33,164.33a2.9,2.9,0,0,0,1.1.58,4.26,4.26,0,0,0,1.33.24c1.33,0,2-.49,2-1.47a1.38,1.38,0,0,0-.2-.73,2.13,2.13,0,0,0-.56-.56c-.23-.15-.69-.41-1.38-.77a5.49,5.49,0,0,1-1.88-1.34,2.23,2.23,0,0,1-.39-1.29,2.12,2.12,0,0,1,.89-1.78,3.71,3.71,0,0,1,2.25-.67,4.14,4.14,0,0,1,1.94.33V158a3.59,3.59,0,0,0-2.07-.56,2.45,2.45,0,0,0-1.41.38,1.19,1.19,0,0,0-.55,1,1.38,1.38,0,0,0,.19.72,1.78,1.78,0,0,0,.52.54c.22.15.65.38,1.29.71a5.7,5.7,0,0,1,1.87,1.31,2.16,2.16,0,0,1,.54,1.43,2.13,2.13,0,0,1-.85,1.82,3.82,3.82,0,0,1-2.37.65,6.6,6.6,0,0,1-1.21-.16,2.94,2.94,0,0,1-1-.37Z"/><path class="cls-31" d="M194.18,164.33a2.9,2.9,0,0,0,1.1.58,4.26,4.26,0,0,0,1.33.24c1.33,0,2-.49,2-1.47a1.38,1.38,0,0,0-.2-.73,2.13,2.13,0,0,0-.56-.56c-.23-.15-.69-.41-1.38-.77a5.49,5.49,0,0,1-1.88-1.34,2.23,2.23,0,0,1-.39-1.29,2.12,2.12,0,0,1,.89-1.78,3.71,3.71,0,0,1,2.25-.67,4.14,4.14,0,0,1,1.94.33V158a3.56,3.56,0,0,0-2.07-.56,2.47,2.47,0,0,0-1.41.38,1.19,1.19,0,0,0-.55,1,1.29,1.29,0,0,0,.2.72,1.67,1.67,0,0,0,.52.54,13.18,13.18,0,0,0,1.28.71,5.7,5.7,0,0,1,1.87,1.31,2.16,2.16,0,0,1,.54,1.43,2.13,2.13,0,0,1-.85,1.82,3.82,3.82,0,0,1-2.37.65,6.6,6.6,0,0,1-1.21-.16,2.94,2.94,0,0,1-1-.37Z"/><path class="cls-31" d="M22,215.65a8.62,8.62,0,0,1-.67,2.16l-.58-.2a7.28,7.28,0,0,0,.47-1.35h-4.5v1l3.07-.24,0,.6-3.09.21v.53a.33.33,0,0,0,.1.25.37.37,0,0,0,.23.09h4.19v.58H16.88a.68.68,0,0,1-.78-.77v-.62L14,218l0-.61,2.12-.14v-1H13.4v2.62a10.94,10.94,0,0,1-1.11,5.46l-.55-.34a8.06,8.06,0,0,0,.84-2.39,15.5,15.5,0,0,0,.21-2.74v-3.22h3.66v-2h.62v.66h4.62v.59H17.07v.76Zm.22,8.31H13.55v-.61h3.06v-1h-2.1v-2h.64v1.31h1.46v-1.84h.62v3.53h1.21v-3.53h.62v1.84h1.47v-1.32h.62v2H19.06v1h3.16Z"/><path class="cls-31" d="M26.7,216.31h-1v2.07l.77-.52.06.67-.83.57v4.3c0,.56-.35.84-1,.84l-.62,0-.18-.62,1,0c.17,0,.25-.1.25-.31v-3.85c-.32.18-.69.39-1.11.61l-.21-.57q.86-.45,1.32-.75v-2.45H23.91v-.6h1.22v-2.16h.6v2.16h1Zm3.36,4.3H28.64a3.31,3.31,0,0,1-.11.53,11.06,11.06,0,0,1,1.1,1.21l-.42.4a11.37,11.37,0,0,0-.87-1,5.64,5.64,0,0,1-1.82,2.45l-.43-.41A4.82,4.82,0,0,0,28,220.61H26.54v-.54H28.1c0-.35,0-.82.06-1.41h-.59a9.07,9.07,0,0,1-.7.94l-.5-.33a5.86,5.86,0,0,0,1.2-2.07l.51.19a3.58,3.58,0,0,1-.21.69h2v.58H28.75q0,.68-.06,1.41h1.37Zm.1-3.65H28.1a.81.81,0,0,1-.63-.25.88.88,0,0,1-.23-.62v-2.53h.59v.9H30V215H27.83v1c0,.2.12.31.36.31h2Zm4.21,6.42-.1.62-.63,0a3.08,3.08,0,0,1-3-1.45,7.16,7.16,0,0,1-1.2,1.72l-.45-.38a5.41,5.41,0,0,0,1.51-4.26h.6a11.49,11.49,0,0,1-.22,2.15,2,2,0,0,0,.93,1.17v-5H30.34v-.55h2.24a11.33,11.33,0,0,0-1.87-1.76l.41-.43c.44.36.76.63,1,.82a10.54,10.54,0,0,0,1.33-1.58H30.57v-.56h3.51v.56a10.5,10.5,0,0,1-1.6,2,6.6,6.6,0,0,1,.56.65l-.31.33h1.5a8.1,8.1,0,0,1-.52,2.08l-.5-.26a7.25,7.25,0,0,0,.33-1.27H32.46v2.21H33.9v.58H32.46v2.49A5.37,5.37,0,0,0,34.37,223.38Z"/><path class="cls-31" d="M13,234.57a15,15,0,0,1-.67,2.9l-.6-.27a13.27,13.27,0,0,0,.71-2.75Zm3-.77-.58.2a5.57,5.57,0,0,0-.18-.7c-1.22.34-2.29.6-3.21.77l-.19-.68a12.52,12.52,0,0,0,2.29-2.77c-1.06.18-1.74.28-2,.32l-.16-.61a12.52,12.52,0,0,0,1.93-3.55l.59.19a14.56,14.56,0,0,1-1.69,3.25,13.22,13.22,0,0,0,1.73-.26,13.11,13.11,0,0,0,.84-1.56l.58.24a18.15,18.15,0,0,1-3.13,4.64,15.66,15.66,0,0,0,2.25-.54,5.6,5.6,0,0,0-.32-.82l.54-.2A10.86,10.86,0,0,1,16,233.8ZM14.52,237l-.62.11a17.41,17.41,0,0,0-.33-2.53l.58-.1A14.82,14.82,0,0,1,14.52,237Zm1.41-.57-.57.21a11.43,11.43,0,0,0-.53-2.18l.57-.19A11.27,11.27,0,0,1,15.93,236.4Zm6.09.14a.82.82,0,0,1-.21.55.85.85,0,0,1-.48.31,6.72,6.72,0,0,1-1.1,0l-.26-.66h.66a1.93,1.93,0,0,0,.66-.07.3.3,0,0,0,.11-.26v-8.73H16.83v9.7h-.61v-10.3H22Zm-1-5.8H17.19v-.59h1a9.49,9.49,0,0,0-.59-1.55l.57-.23a15.82,15.82,0,0,1,.67,1.78h.67a11.47,11.47,0,0,0,.81-1.81l.55.22a14.86,14.86,0,0,1-.67,1.59h.89Zm0,2.22H18.47v1.81c0,.21.1.31.29.31h2.13v.57H18.7a.76.76,0,0,1-.84-.87V233h-.67v-.58h1.87a7.16,7.16,0,0,0-.46-1.11l.6-.21c.14.3.31.74.52,1.32h1.33Z"/><path class="cls-31" d="M28.11,236A38.82,38.82,0,0,1,24,237.35l-.17-.64a5.31,5.31,0,0,0,.64-.19v-5H25v4.78a10.27,10.27,0,0,0,1-.29v-5.4H24.29v-3.47h3.45v3.47h-1.1v1.87H28v.63H26.64v2.68q.72-.24,1.47-.57Zm-1-5.91V227.8H24.92v2.25Zm7.26,2-.38.57a14.13,14.13,0,0,1-2.75-1.38,10,10,0,0,1-2.95,1.43l-.41-.59a10.33,10.33,0,0,0,2.83-1.22,6.72,6.72,0,0,1-1.35-1.66,9.36,9.36,0,0,1-1,.75l-.5-.48a6.09,6.09,0,0,0,2.57-2.73l.61.19a5.36,5.36,0,0,1-.48.92h3.05v.57a8.77,8.77,0,0,1-1.86,2.39A11.76,11.76,0,0,0,34.37,232Zm-.86,5.4h-.63v-.56H29.56v.56h-.64V233h4.59Zm-.63-1.16v-2.69H29.56v2.69Zm0-7.86H30.12a1.12,1.12,0,0,1-.14.18l-.14.16a4.42,4.42,0,0,0,1.42,1.66A6.67,6.67,0,0,0,32.85,228.4Z"/><path class="cls-31" d="M105.64,225.62l-.18.66h-4.84a5.56,5.56,0,0,1-4.69-2,8.35,8.35,0,0,1-.85,2.12L94.6,226a13,13,0,0,0,1.23-5l.62.11a19.37,19.37,0,0,1-.32,2.36,3.46,3.46,0,0,0,1.35,1.52v-4.85H94.72v-.62h2.76v-1.72H95v-.66h2.48v-1.53h.64v1.53h1.81v.66H98.12v1.72h2.12v.62H98.12v1.61H100v.61H98.12v2.95a4.78,4.78,0,0,0,2,.39c.86,0,1.89,0,3.1,0S105.18,225.64,105.64,225.62Zm-.07-3.78a5.25,5.25,0,0,1-.12,1.49,1.05,1.05,0,0,1-.59.74,5.53,5.53,0,0,1-1.78.18,4.9,4.9,0,0,1-1.78-.19c-.25-.13-.37-.45-.37-1v-7h4.12v4h-3.47v3.19c0,.16.11.25.32.27s.63,0,1.26,0a3.63,3.63,0,0,0,1.45-.14,1.12,1.12,0,0,0,.21-.29,8.05,8.05,0,0,0,.14-1.55Zm-1.16-2.35v-2.75h-2.83v2.75Z"/><path class="cls-31" d="M109.41,222.35a31.6,31.6,0,0,1-1.73,4l-.5-.53a31.55,31.55,0,0,0,1.64-3.82Zm.19-2.07-.42.5c-.88-.69-1.53-1.17-2-1.44l.47-.47A16,16,0,0,1,109.6,220.28Zm.24-3-.49.48a15.08,15.08,0,0,0-2-1.54l.51-.49A21.7,21.7,0,0,1,109.84,217.3Zm8.3-.77h-2.93a11.94,11.94,0,0,1-.38,1.31h2.75v4.33h-2.42v3.38a1,1,0,0,1-.24.65,1.51,1.51,0,0,1-1.11.29,4.88,4.88,0,0,1-.64,0l-.19-.65a6.55,6.55,0,0,0,.86.06,1,1,0,0,0,.54-.08.22.22,0,0,0,.1-.19v-3.42h-2.33v-4.33h2a12.78,12.78,0,0,0,.37-1.31h-3.37v4.05a10.83,10.83,0,0,1-1.61,5.9L109,226a7.54,7.54,0,0,0,1.07-2.33,16.49,16.49,0,0,0,.42-4.29v-3.47h7.68Zm-4.62,6.85a14.57,14.57,0,0,1-2.12,2.41l-.44-.47a14.54,14.54,0,0,0,2.05-2.43Zm3.37-3.71v-1.21h-4.07v1.21Zm0,1.9v-1.29h-4.07v1.29Zm1.31,3.76-.47.49a16.21,16.21,0,0,0-1.76-2.43l.5-.45A18.5,18.5,0,0,1,118.2,225.33Z"/><path class="cls-31" d="M124.16,226.23h-.63v-1.08h-2.7v1.33h-.64v-8.87h1.16a11.77,11.77,0,0,0,.9-2.14l.62.12c-.15.44-.43,1.12-.85,2h2.14Zm-.63-5.3v-2.69h-2.7v2.69Zm0,3.59v-3h-2.7v3Zm6.89-6.89q-.07,2.81-.27,5.22a13.78,13.78,0,0,1-.4,2.83,1.33,1.33,0,0,1-.52.61,2.68,2.68,0,0,1-1.19.18c-.26,0-.59,0-1,0l-.2-.63,1.1,0c.37,0,.61,0,.71,0a.55.55,0,0,0,.33-.15.79.79,0,0,0,.24-.34,9.23,9.23,0,0,0,.2-1.44c.08-.83.15-1.74.2-2.74s.09-2,.12-2.91h-3.26a18.44,18.44,0,0,1-1.51,2.48l-.52-.37a13.24,13.24,0,0,0,2.33-4.8l.63.17c-.2.66-.43,1.3-.68,1.91Zm-2.3,5.6-.53.37a13.17,13.17,0,0,0-1.81-2.91l.54-.35A12.75,12.75,0,0,1,128.12,223.23Z"/><path class="cls-31" d="M134.83,222.47a22.75,22.75,0,0,1-1.91,4.06l-.55-.45a19.68,19.68,0,0,0,1.86-4Zm0-1.9-.46.49a11,11,0,0,0-2-1.66l.4-.51A12.72,12.72,0,0,1,134.8,220.57Zm.23-3.35-.44.52a12.44,12.44,0,0,0-1.84-1.72l.43-.52A15.88,15.88,0,0,1,135,217.22Zm1.91,4a10.88,10.88,0,0,1-.37,3.31,4.12,4.12,0,0,1-1.59,2l-.51-.48a3.8,3.8,0,0,0,1.28-1.35,6.9,6.9,0,0,0,.53-3.43Zm6.39-.51-.55.42a9.33,9.33,0,0,0-.75-1q-3.69.42-6.4.62l-.16-.65a6.71,6.71,0,0,0,2.52-2.62h-2.61v-.65h3a13.64,13.64,0,0,0,.58-1.34l.68.18c-.08.21-.25.59-.51,1.16h4v.65h-4.35a8.11,8.11,0,0,1-2.09,2.54c1.6-.1,3.22-.25,4.84-.44a9.36,9.36,0,0,0-1.11-1.07l.51-.44A14.43,14.43,0,0,1,143.33,220.72Zm-4.27,5.77h-.66v-5.26h.66Zm4.22-.15h-1.66c-.63,0-.94-.29-.94-.88v-4.23h.63v4.14c0,.22.13.33.38.33h1.59Z"/><path class="cls-31" d="M155.85,226.18H145v-.5h5.09v-.83h-4.34v-.48h4.34v-.8h-4v-2.9h8.63v2.9h-4v.8h4.36v.48h-4.36v.83h5.09Zm-.09-6.24H145.17v-.5h10.59Zm-1-1.21h-8.63v-2.87h8.63Zm-4.67,3.15v-.71h-3.35v.71Zm0,1.2v-.72h-3.35v.72Zm4-6v-.7h-7.35v.7Zm0,1.18v-.71h-7.35v.71Zm0,3.64v-.71h-3.37v.71Zm0,1.2v-.72h-3.37v.72Z"/><path class="cls-31" d="M168.46,218.26h-6.82c0,.65,0,1.38-.06,2.17h5.35a27.2,27.2,0,0,1-.22,3.39,8.27,8.27,0,0,1-.4,2,1.19,1.19,0,0,1-.56.57,4.5,4.5,0,0,1-1.56.17h-.81l-.2-.71c.39,0,.78,0,1.17,0a3.22,3.22,0,0,0,1.09-.1.64.64,0,0,0,.29-.33,8.08,8.08,0,0,0,.29-1.61c.12-.92.19-1.83.22-2.72h-4.72a6.92,6.92,0,0,1-3.51,5.39l-.54-.53a7.55,7.55,0,0,0,2.05-1.72,5.19,5.19,0,0,0,1.18-2.29,19.59,19.59,0,0,0,.25-3.67h-3.29v-.68h5.22a8.75,8.75,0,0,0-1.2-1.79l.63-.3a9.55,9.55,0,0,1,1.33,2.09h4.82Z"/><path class="cls-31" d="M180.48,225.47a.91.91,0,0,1-1,1H177.7l-.23-.65h2.07a.26.26,0,0,0,.19-.09.28.28,0,0,0,.1-.2v-7.69h-8.41v8.66h-.65v-9.3h2.42a7.7,7.7,0,0,0,1.05-1.73l.66.14a8.07,8.07,0,0,1-.94,1.59h6.52Zm-2.54-1.38h-4.67v-4.45h4.67Zm-.66-.63v-3.17h-3.35v3.17Z"/><path class="cls-31" d="M96.76,241.19a8.42,8.42,0,0,1-2-5.76,8.72,8.72,0,0,1,2-5.84h.93a8.85,8.85,0,0,0-2.08,5.83,8.72,8.72,0,0,0,2.06,5.77Z"/><path class="cls-31" d="M100,229.59l-.2,2.95h-.72l-.19-2.95Zm2.16,0-.2,2.95h-.71l-.2-2.95Z"/><path class="cls-31" d="M114.93,235.8H112a8.28,8.28,0,0,1-1.44,1.87,32.88,32.88,0,0,1,4.14,1.48l-.38.57a25.48,25.48,0,0,0-4.35-1.56,12.21,12.21,0,0,1-5.52,1.53l-.35-.66a12.63,12.63,0,0,0,5-1.14c-1.17-.28-2.3-.53-3.39-.73.51-.45,1-.9,1.46-1.36h-3.15v-.61h3.73a10.66,10.66,0,0,0,1-1.11l.68.2c-.14.19-.38.49-.74.91h2.9c.06-.1.17-.32.33-.67l.66.06a6.14,6.14,0,0,1-.25.61h2.6Zm-.11-6.1h-3.56v1.24h2.87v2.93H104.9v-2.93h2.87V229.7h-3.54v-.63h10.59Zm-7,3.54v-1.69h-2.21v1.69Zm3.48,2.56h-3.12c-.33.34-.67.68-1,1,.89.19,1.81.41,2.76.67A7.14,7.14,0,0,0,111.25,235.8Zm-.65-4.86V229.7h-2.19v1.24Zm0,2.3v-1.69h-2.19v1.69Zm2.88,0v-1.69h-2.22v1.69Z"/><path class="cls-31" d="M121,235.62a21.58,21.58,0,0,1-4,3.09l-.38-.57a19.93,19.93,0,0,0,4-3.11Zm6.5,2.51-.39.56a9.06,9.06,0,0,1-4.65-3.88v3.9a.75.75,0,0,1-.37.73,3.16,3.16,0,0,1-1.41.21l-.68,0-.29-.67,1.73,0a.33.33,0,0,0,.25-.12.38.38,0,0,0,.11-.25v-7.12h-5.09v-.64h5.09v-2.1h.66v2.1h5v.64h-5v1.83a7.08,7.08,0,0,0,.67,1.31,13.6,13.6,0,0,0,3-2.31l.53.45a15.44,15.44,0,0,1-3.2,2.4A8.72,8.72,0,0,0,127.48,238.13ZM120,234.34l-.46.5a12.28,12.28,0,0,0-2.22-2l.45-.48A12.17,12.17,0,0,1,120,234.34Zm6.06-4.3-.45.5a10.47,10.47,0,0,0-1.68-1.23l.4-.5A10.2,10.2,0,0,1,126.07,230Z"/><path class="cls-31" d="M130.45,229.59l-.21,2.95h-.72l-.19-2.95Zm2.15,0-.19,2.95h-.72l-.2-2.95Z"/><path class="cls-31" d="M133.82,241.19a8.67,8.67,0,0,0,2.05-5.77,8.85,8.85,0,0,0-2.07-5.83h.93a8.67,8.67,0,0,1,2.05,5.84,8.41,8.41,0,0,1-2.05,5.76Z"/><path class="cls-31" d="M97.2,256.34a14.6,14.6,0,0,1-.39,1.41l-.25.79v8.62h-.67v-6.87a17.89,17.89,0,0,1-1,1.79l-.35-.68a19.35,19.35,0,0,0,2-5.25Zm8.38,8.53h-1.81v1.26a1.12,1.12,0,0,1-.25.74q-.24.3-1.14.3a6.68,6.68,0,0,1-.71,0l-.35-.61c.37,0,.7.05,1,.05a2,2,0,0,0,.65-.06.22.22,0,0,0,.13-.21v-1.43h-6v-.56h6v-.74h.69v.74h1.81Zm0-1.44-.44.4c-.12-.17-.29-.38-.5-.63l-7.31.39-.1-.56,3.62-.19V262h-3v-3.45h3v-.86h-3.5v-.58h3.5v-.94h.65v.94h3.72v.58h-3.72v.86h3.14V262h-.44A10.35,10.35,0,0,1,105.62,263.43ZM101,266.25l-.47.49a17.89,17.89,0,0,0-2.2-1.2l.45-.49A18.47,18.47,0,0,1,101,266.25Zm-.06-6.28v-.89H98.54V260Zm0,1.44v-.91H98.54v.91ZM104,260v-.89h-2.49V260Zm0,1.44v-.91h-2.49v.91Zm.08,1.25a4.82,4.82,0,0,0-.56-.5l.23-.18h-2.24v.81C102.37,262.73,103.23,262.69,104.11,262.66Z"/><path class="cls-31" d="M117.58,267.15h-.7v-1.07h-8.41v1.07h-.68V256.48h9.79Zm-.7-1.75v-8.26h-8.41v8.26ZM115,263.46h-4.75V259H115Zm-.66-.66v-3.17h-3.43v3.17Z"/><path class="cls-31" d="M124.16,266.9h-.63v-1.07h-2.7v1.32h-.64v-8.86h1.16a12.22,12.22,0,0,0,.9-2.15l.62.13c-.15.44-.43,1.11-.85,2h2.14Zm-.63-5.3v-2.68h-2.7v2.68Zm0,3.59v-3h-2.7v3Zm6.89-6.89q-.07,2.81-.27,5.22a13.94,13.94,0,0,1-.4,2.84,1.36,1.36,0,0,1-.52.6,2.68,2.68,0,0,1-1.19.18h-1l-.2-.64,1.1,0h.71a.57.57,0,0,0,.33-.16.76.76,0,0,0,.24-.33,9.23,9.23,0,0,0,.2-1.44c.08-.83.15-1.75.2-2.74s.09-2,.12-2.91h-3.26a18.33,18.33,0,0,1-1.51,2.47l-.52-.36a13.36,13.36,0,0,0,2.33-4.81l.63.17c-.2.67-.43,1.3-.68,1.91Zm-2.3,5.6-.53.38a13.45,13.45,0,0,0-1.81-2.92l.54-.34A12.48,12.48,0,0,1,128.12,263.9Z"/><path class="cls-31" d="M134.83,263.14a22.82,22.82,0,0,1-1.91,4.07l-.55-.46a19.18,19.18,0,0,0,1.86-4Zm0-1.9-.46.49a11.4,11.4,0,0,0-2-1.65l.4-.52A13.89,13.89,0,0,1,134.8,261.24Zm.23-3.35-.44.53a12.08,12.08,0,0,0-1.84-1.73l.43-.51A15,15,0,0,1,135,257.89Zm1.91,4a10.83,10.83,0,0,1-.37,3.31,4.12,4.12,0,0,1-1.59,2l-.51-.48a3.77,3.77,0,0,0,1.28-1.34,7,7,0,0,0,.53-3.44Zm6.39-.51-.55.43a9.38,9.38,0,0,0-.75-1q-3.69.43-6.4.63l-.16-.65a6.82,6.82,0,0,0,2.52-2.63h-2.61v-.65h3a13.64,13.64,0,0,0,.58-1.34l.68.18c-.08.21-.25.6-.51,1.16h4v.65h-4.35a8.11,8.11,0,0,1-2.09,2.54c1.6-.1,3.22-.25,4.84-.44a10.22,10.22,0,0,0-1.11-1.07l.51-.44A14.76,14.76,0,0,1,143.33,261.39Zm-4.27,5.77h-.66V261.9h.66Zm4.22-.14h-1.66c-.63,0-.94-.3-.94-.89V261.9h.63V266c0,.22.13.34.38.34h1.59Z"/><path class="cls-31" d="M155.85,266.85H145v-.5h5.09v-.82h-4.34V265h4.34v-.8h-4v-2.9h8.63v2.9h-4v.8h4.36v.49h-4.36v.82h5.09Zm-.09-6.24H145.17v-.5h10.59Zm-1-1.2h-8.63v-2.88h8.63Zm-4.67,3.14v-.71h-3.35v.71Zm0,1.2V263h-3.35v.72Zm4-6V257h-7.35v.71Zm0,1.18v-.72h-7.35v.72Zm0,3.63v-.71h-3.37v.71Zm0,1.2V263h-3.37v.72Z"/><path class="cls-31" d="M168.46,258.93h-6.82c0,.65,0,1.38-.06,2.17h5.35a27.36,27.36,0,0,1-.22,3.4,8.4,8.4,0,0,1-.4,2,1.17,1.17,0,0,1-.56.56,4.26,4.26,0,0,1-1.56.17h-.81l-.2-.7c.39,0,.78,0,1.17,0a3.52,3.52,0,0,0,1.09-.1.73.73,0,0,0,.29-.33,8.44,8.44,0,0,0,.29-1.62c.12-.92.19-1.82.22-2.71h-4.72a6.91,6.91,0,0,1-3.51,5.38l-.54-.53a7.51,7.51,0,0,0,2.05-1.71,5.22,5.22,0,0,0,1.18-2.3,19.52,19.52,0,0,0,.25-3.67h-3.29v-.68h5.22a8.75,8.75,0,0,0-1.2-1.79l.63-.3a9.8,9.8,0,0,1,1.33,2.09h4.82Z"/><path class="cls-31" d="M180.48,266.14a.91.91,0,0,1-1,1H177.7l-.23-.64h2.07a.28.28,0,0,0,.19-.1.26.26,0,0,0,.1-.19v-7.69h-8.41v8.65h-.65v-9.3h2.42a7.48,7.48,0,0,0,1.05-1.73l.66.14a7.79,7.79,0,0,1-.94,1.59h6.52Zm-2.54-1.38h-4.67v-4.45h4.67Zm-.66-.63V261h-3.35v3.16Z"/><path class="cls-31" d="M96.76,281.86a8.41,8.41,0,0,1-2-5.75,8.73,8.73,0,0,1,2-5.85h.93a8.85,8.85,0,0,0-2.08,5.84,8.71,8.71,0,0,0,2.06,5.76Z"/><path class="cls-31" d="M100,270.26l-.2,2.95h-.72l-.19-2.95Zm2.16,0-.2,2.95h-.71l-.2-2.95Z"/><path class="cls-31" d="M114.38,280.35h-.7v-1.07h-8.41v1.07h-.68V269.68h9.79Zm-.7-1.75v-8.26h-8.41v8.26Zm-1.85-1.94h-4.75v-4.48h4.75Zm-.66-.65v-3.18h-3.43V276Z"/><path class="cls-31" d="M119.69,275.83a7.36,7.36,0,0,1-1,1v3.49h-.62v-3c-.26.2-.6.44-1,.73l-.45-.46a9.92,9.92,0,0,0,2.64-2.18Zm0-2.17a9.32,9.32,0,0,1-2.68,1.83l-.38-.5a9.5,9.5,0,0,0,2.57-1.66Zm7.78,6.12-.25.53a16.19,16.19,0,0,1-3.57-.68,21.08,21.08,0,0,1-3.8.76l-.3-.53a21.51,21.51,0,0,0,3.25-.55,17,17,0,0,1-1.6-.8,9.29,9.29,0,0,1-1.3.5l-.37-.48c.34-.1.72-.23,1.14-.4a3.26,3.26,0,0,1-.56-.51l.41-.32a4.29,4.29,0,0,0,.73.59,9.43,9.43,0,0,0,1.17-.74h-1.5v-2.43c-.22.17-.54.38-.94.63l-.47-.47a5.88,5.88,0,0,0,2.17-2h-4.2V271h2.9v-.77H116.8v-.55h10.5v.55h-3.53V271h2.88v1.87h-4.29a3.71,3.71,0,0,1-.32.68h5.26v.55h-5.74c-.32.32-.51.51-.58.56h5.65v2.46h-3.31l-.59.5h3.75v.52a9.83,9.83,0,0,1-2,1.14A18.14,18.14,0,0,0,127.45,279.78Zm-7.09-7.4v-.82h-2.24v.82Zm2.79-1.35v-.77H121V271Zm0,1.35v-.82H121v.82Zm2.84,3.28v-.48h-4.44v.48Zm0,1v-.47h-4.44v.47Zm-.53,1.54h-3.52l-.15.07a10.33,10.33,0,0,0,1.85.84A10.66,10.66,0,0,0,125.46,278.17Zm.54-5.79v-.82h-2.21v.82Z"/><path class="cls-31" d="M130.45,270.26l-.21,2.95h-.72l-.19-2.95Zm2.15,0-.19,2.95h-.72l-.2-2.95Z"/><path class="cls-31" d="M133.82,281.86a8.67,8.67,0,0,0,2.05-5.76,8.88,8.88,0,0,0-2.07-5.84h.93a8.68,8.68,0,0,1,2.05,5.85,8.37,8.37,0,0,1-2.05,5.75Z"/></g></svg>