<svg xmlns="http://www.w3.org/2000/svg" xmlns:xlink="http://www.w3.org/1999/xlink" viewBox="0 0 171.02 202.65"><defs><style>.cls-1{fill:#fff;}.cls-2,.cls-3,.cls-4{fill:#3c3c41;}.cls-2{opacity:0.05;}.cls-2,.cls-4{isolation:isolate;}.cls-4{opacity:0.2;}.cls-5{fill:url(#Degradado_sin_nombre);}.cls-6{fill:#767676;}.cls-7{fill:#f2f2f2;}.cls-8{fill:url(#Degradado_sin_nombre_2);}.cls-9{fill:url(#Degradado_sin_nombre_3);}.cls-10{fill:url(#Degradado_sin_nombre_4);}.cls-11{fill:none;stroke:#3c3c41;stroke-miterlimit:10;}.cls-12{fill:url(#Degradado_sin_nombre_5);}.cls-13{fill:url(#Degradado_sin_nombre_6);}.cls-14{fill:url(#Degradado_sin_nombre_7);}.cls-15{fill:#50e6ff;}.cls-16{fill:#1490df;}.cls-17{fill:#6ebcdb;}.cls-18{fill:#5db4d7;}.cls-19{fill:#e6e6e6;}.cls-20{fill:#86d633;}.cls-21{fill:#1e1e1e;}</style><linearGradient id="Degradado_sin_nombre" x1="83.55" y1="-2014.2" x2="83.55" y2="-2001.41" gradientTransform="matrix(1, 0, 0, -1, 0, -1978.98)" gradientUnits="userSpaceOnUse"><stop offset="0" stop-color="#32bedd"/><stop offset="0.18" stop-color="#32caea"/><stop offset="0.41" stop-color="#32d2f2"/><stop offset="0.78" stop-color="#32d4f5"/></linearGradient><linearGradient id="Degradado_sin_nombre_2" x1="92.01" y1="-2020.48" x2="92.01" y2="-2007.69" xlink:href="#Degradado_sin_nombre"/><linearGradient id="Degradado_sin_nombre_3" x1="100.46" y1="-2026.76" x2="100.46" y2="-2013.96" xlink:href="#Degradado_sin_nombre"/><linearGradient id="Degradado_sin_nombre_4" x1="22.57" y1="299.48" x2="22.57" y2="278.9" gradientTransform="translate(0 -252.68)" xlink:href="#Degradado_sin_nombre"/><linearGradient id="Degradado_sin_nombre_5" x1="38.26" y1="428.03" x2="40.63" y2="430.4" gradientTransform="translate(2.9 -253.22)" gradientUnits="userSpaceOnUse"><stop offset="0" stop-color="#86d633"/><stop offset="0.24" stop-color="#83d232"/><stop offset="0.5" stop-color="#7cc52f"/><stop offset="0.76" stop-color="#6fb02a"/><stop offset="1" stop-color="#5e9624"/></linearGradient><linearGradient id="Degradado_sin_nombre_6" x1="32.91" y1="428.03" x2="35.27" y2="430.4" xlink:href="#Degradado_sin_nombre_5"/><linearGradient id="Degradado_sin_nombre_7" x1="27.56" y1="428.03" x2="29.92" y2="430.4" xlink:href="#Degradado_sin_nombre_5"/></defs><title>OJ104903208</title><g id="Target"><g id="Shapes"><rect class="cls-1" width="170.48" height="202.65"/><rect class="cls-1" x="15.52" y="120.49" width="155" height="55" rx="5"/><rect class="cls-2" x="15.52" y="120.49" width="155" height="55" rx="5"/><path class="cls-3" d="M164.37,176h-1v-1h1Zm-3,0h-1v-1h1Zm-3,0h-1v-1h1Zm-3,0h-1v-1h1Zm-3,0h-1v-1h1Zm-3,0h-1v-1h1Zm-3,0h-1v-1h1Zm-3,0h-1v-1h1Zm-3,0h-1v-1h1Zm-3,0h-1v-1h1Zm-3,0h-1v-1h1Zm-3,0h-1v-1h1Zm-3,0h-1v-1h1Zm-3,0h-1v-1h1Zm-3,0h-1v-1h1Zm-3,0h-1v-1h1Zm-3,0h-1v-1h1Zm-3,0h-1v-1h1Zm-3,0h-1v-1h1Zm-3,0h-1v-1h1Zm-3,0h-1v-1h1Zm-3,0h-1v-1h1Zm-3,0h-1v-1h1Zm-3,0h-1v-1h1Zm-3,0h-1v-1h1Zm-3,0h-1v-1h1Zm-3,0h-1v-1h1Zm-3,0h-1v-1h1Zm-3,0h-1v-1h1Zm-3,0h-1v-1h1Zm-3,0h-1v-1h1Zm-3,0h-1v-1h1Zm-3,0h-1v-1h1Zm-3,0h-1v-1h1Zm-3,0h-1v-1h1Zm-3,0h-1v-1h1Zm-3,0h-1v-1h1Zm-3,0h-1v-1h1Zm-33,0a5.75,5.75,0,0,1-1.09-.17l.26-1a3.76,3.76,0,0,0,.88.14Zm146.23-.07-.17-1a5.11,5.11,0,0,0,.87-.25l.36.94a5.19,5.19,0,0,1-1.16.29ZM17.17,174.84a5.16,5.16,0,0,1-.8-.75l.76-.66a4.77,4.77,0,0,0,.65.62Zm152.18-.41-.7-.71a4.24,4.24,0,0,0,.58-.69l.83.57a5.65,5.65,0,0,1-.71.83ZM15.29,172.19a5.61,5.61,0,0,1-.23-1.08l1-.11a5.31,5.31,0,0,0,.19.88Zm155.62-.61-1-.2a4.41,4.41,0,0,0,.09-.89l1-.06v.06a5,5,0,0,1-.09,1.09ZM16,169.06H15v-1h1Zm155-.63h-1v-1h1ZM16,166.05H15v-1h1Zm155-.62h-1v-1h1ZM16,163.05H15v-1h1Zm155-.63h-1v-1h1ZM16,160.05H15v-1h1Zm155-.63h-1v-1h1ZM16,157.05H15v-1h1Zm155-.63h-1v-1h1ZM16,154H15v-1h1Zm155-.62h-1v-1h1ZM16,151H15v-1h1Zm155-.63h-1v-1h1ZM16,148H15v-1h1Zm155-.63h-1v-1h1ZM16,145H15v-1h1Zm155-.63h-1v-1h1ZM16,142H15v-1h1Zm155-.62h-1v-1h1ZM16,139H15v-1h1Zm155-.63h-1v-1h1ZM16,136H15v-1h1Zm155-.63h-1v-1h1ZM16,133H15v-1h1Zm155-.63h-1v-1h1ZM16,130H15v-1h1Zm155-.62h-1v-1h1ZM16,127H15v-1h1Zm155-.63h-1v-.9l1-.11Zm-154.8-2.2-1-.3a5.2,5.2,0,0,1,.43-1l.88.48a4.17,4.17,0,0,0-.29.84Zm153.41-.53a3.77,3.77,0,0,0-.45-.78l.82-.58a4.83,4.83,0,0,1,.54,1ZM17.71,122l-.62-.78a5.2,5.2,0,0,1,.92-.6l.46.89A4.69,4.69,0,0,0,17.71,122Zm150.16-.32a4.6,4.6,0,0,0-.8-.4l.34-.93a4.6,4.6,0,0,1,1,.48ZM20.19,121l-.08-1h1v1h-1Zm145.08,0h-1v-1h1Zm-3,0h-1v-1h1Zm-3,0h-1v-1h1Zm-3,0h-1v-1h1Zm-3,0h-1v-1h1Zm-3,0h-1v-1h1Zm-3,0h-1v-1h1Zm-3,0h-1v-1h1Zm-3,0h-1v-1h1Zm-3,0h-1v-1h1Zm-3,0h-1v-1h1Zm-3,0h-1v-1h1Zm-3,0h-1v-1h1Zm-3,0h-1v-1h1Zm-3,0h-1v-1h1Zm-3,0h-1v-1h1Zm-3,0h-1v-1h1Zm-3,0h-1v-1h1Zm-3,0h-1v-1h1Zm-3,0h-1v-1h1Zm-3,0h-1v-1h1Zm-3,0h-1v-1h1Zm-3,0h-1v-1h1Zm-3,0h-1v-1h1Zm-3,0h-1v-1h1Zm-3,0h-1v-1h1Zm-3,0h-1v-1h1Zm-3,0h-1v-1h1Zm-3,0h-1v-1h1Zm-3,0h-1v-1h1Zm-3,0h-1v-1h1Zm-3,0h-1v-1h1Zm-3,0h-1v-1h1Zm-3,0h-1v-1h1Zm-3,0h-1v-1h1Zm-3,0h-1v-1h1Zm-3,0h-1v-1h1Zm-3,0h-1v-1h1Zm-3,0h-1v-1h1Zm-3,0h-1v-1h1Zm-3,0h-1v-1h1Zm-3,0h-1v-1h1Zm-3,0h-1v-1h1Zm-3,0h-1v-1h1Zm-3,0h-1v-1h1Zm-3,0h-1v-1h1Zm-3,0h-1v-1h1Zm-3,0h-1v-1h1Z"/><rect class="cls-1" x="25.22" y="130.51" width="65.69" height="30" rx="0.3"/><rect class="cls-4" x="25.22" y="130.51" width="65.69" height="30" rx="0.3"/><rect class="cls-1" x="95.59" y="130.51" width="65.69" height="30" rx="0.3"/><rect class="cls-4" x="95.59" y="130.51" width="65.69" height="30" rx="0.3"/><path class="cls-5" d="M72.72,22.43H94.39V34.52a.73.73,0,0,1-.73.72H73.45a.73.73,0,0,1-.73-.72h0Z"/><path class="cls-6" d="M73.45,17.8H93.66a.73.73,0,0,1,.73.73h0v3.9H72.72v-3.9A.73.73,0,0,1,73.45,17.8Z"/><rect class="cls-7" x="75.64" y="19.19" width="15.84" height="1.86" rx="0.36"/><path class="cls-8" d="M81.17,28.69h21.68V40.77a.73.73,0,0,1-.73.73H81.89a.72.72,0,0,1-.72-.72h0Z"/><path class="cls-6" d="M81.89,24.08H102.1a.73.73,0,0,1,.73.73h0v3.88H81.19V24.81A.72.72,0,0,1,81.89,24.08Z"/><rect class="cls-7" x="84.08" y="25.47" width="15.84" height="1.86" rx="0.36"/><path class="cls-9" d="M89.63,35h21.66V47.07a.72.72,0,0,1-.71.73H90.36a.73.73,0,0,1-.73-.73h0Z"/><path class="cls-6" d="M90.36,30.36h20.21a.72.72,0,0,1,.72.72h0V35H89.63V31.1a.73.73,0,0,1,.72-.74Z"/><circle class="cls-7" cx="105.34" cy="40.6" r="1.76"/><circle class="cls-7" cx="100.54" cy="40.6" r="1.76"/><circle class="cls-7" cx="95.59" cy="40.6" r="1.76"/><rect class="cls-7" x="92.54" y="31.75" width="15.84" height="1.86" rx="0.36"/><path class="cls-10" d="M5.14,26.22H40V45.63a1.17,1.17,0,0,1-1.17,1.17H6.31a1.17,1.17,0,0,1-1.17-1.17Z"/><path class="cls-6" d="M6.31,18.8H38.79A1.17,1.17,0,0,1,40,19.93v6.32H5.14V20a1.17,1.17,0,0,1,1.14-1.2Z"/><circle class="cls-7" cx="30.38" cy="35.23" r="2.83"/><circle class="cls-7" cx="22.67" cy="35.23" r="2.83"/><circle class="cls-7" cx="14.73" cy="35.23" r="2.83"/><rect class="cls-7" x="9.83" y="21.01" width="25.46" height="2.99" rx="0.57"/><line class="cls-11" x1="58.09" y1="130.51" x2="58.09" y2="107.89"/><polygon class="cls-3" points="61.83 108.99 58.09 102.51 54.35 108.99 61.83 108.99"/><path class="cls-11" d="M45.59,75.61H24.33a5,5,0,0,1-5-5V55.29"/><polygon class="cls-3" points="23.07 56.39 19.33 49.91 15.59 56.39 23.07 56.39"/><path class="cls-11" d="M97.34,55.29V70.61a5,5,0,0,1-5,5H69"/><polygon class="cls-3" points="93.6 56.39 97.34 49.91 101.08 56.39 93.6 56.39"/><circle class="cls-12" cx="42.11" cy="175.76" r="1.67"/><circle class="cls-13" cx="36.77" cy="175.78" r="1.67"/><circle class="cls-14" cx="31.43" cy="175.78" r="1.67"/><path class="cls-15" d="M32.64,182.47l-.95,1a.44.44,0,0,1-.62,0h0L24,176.36a.87.87,0,0,1,0-1.23h0l.95-1h0l7.71,7.69a.43.43,0,0,1,0,.61h0Z"/><path class="cls-16" d="M31.54,168.14l1,1a.44.44,0,0,1,0,.62L25,177.35h0l-1-1a.89.89,0,0,1,0-1.23h0l7-7A.43.43,0,0,1,31.54,168.14Z"/><path class="cls-15" d="M48.49,174.16l1,1a.87.87,0,0,1,0,1.23h0l-7.1,7.07a.43.43,0,0,1-.61,0h0l-1-1a.43.43,0,0,1,0-.61h0Z"/><path class="cls-16" d="M49.45,176.34l-1,.95h0l-7.58-7.59a.44.44,0,0,1,0-.62h0l1-1a.43.43,0,0,1,.61,0h0l7,7a.87.87,0,0,1,0,1.23h0Z"/><g id="ad94e297-0e86-4eaf-aac0-d146ee9aea65"><path class="cls-17" d="M54,92.24,49.31,87.4a2.56,2.56,0,0,1-.78.14,2.43,2.43,0,1,1,2.24-3.33h4.62v1.62H50.84a2.94,2.94,0,0,1-.26.57l4.33,4.46,2.34-3.57V76.11H54.1l4-4,3.94,4H58.87v8.74l5.93-9-6-6a1,1,0,0,0-1.41,0s0,0,0,0h0L42.88,84.28a1,1,0,0,0-.05,1.41l.05,0h0l14.48,14.47L52.19,95Z"/><path class="cls-18" d="M57.25,92.45V87.28l-2.34,3.58,1.72,1.84A1.76,1.76,0,0,1,57.25,92.45Z"/><path class="cls-18" d="M73.28,84.28,64.8,75.8l-5.93,9v7.61a1.91,1.91,0,0,1,.54.3l6.22-6.29a2.53,2.53,0,0,1-.31-.64H60.65V84.21h4.73a2.42,2.42,0,1,1,2.24,3.33,3,3,0,0,1-.67-.11L60.34,94.1a2.59,2.59,0,0,1,.1.62,2.43,2.43,0,1,1-4.84.44,2.18,2.18,0,0,1,0-.25,2.29,2.29,0,0,1,.13-.9L54,92.29l-1.85,2.76,5.17,5.17a1,1,0,0,0,1.41,0l0,0L73.24,85.74a1,1,0,0,0,.05-1.41s0,0-.05,0Z"/><path class="cls-19" d="M65.38,84.21H60.65v1.62h4.67a2.22,2.22,0,0,1-.12-.72A2.3,2.3,0,0,1,65.38,84.21Z"/><path class="cls-19" d="M50.84,85.83h4.55V84.21H50.77a2.14,2.14,0,0,1,.19.9A2.22,2.22,0,0,1,50.84,85.83Z"/><path class="cls-19" d="M60.34,94.1,67,87.43a2.44,2.44,0,0,1-1.32-1l-6.22,6.29A2.31,2.31,0,0,1,60.34,94.1Z"/><path class="cls-19" d="M56.68,92.7,55,90.86,50.58,86.4a2.42,2.42,0,0,1-1.27,1L54,92.24,55.72,94A2.41,2.41,0,0,1,56.68,92.7Z"/><path class="cls-1" d="M62,76.11l-3.93-4-4,4h3.15V92.45a1.71,1.71,0,0,0-.57.25,2.41,2.41,0,1,0,3.62,2.71,2.68,2.68,0,0,0,.1-.69,2.59,2.59,0,0,0-.1-.62,2.32,2.32,0,0,0-.93-1.34,1.91,1.91,0,0,0-.54-.3V76.11Zm-3.93,20a1.34,1.34,0,1,1,1.34-1.34h0a1.33,1.33,0,0,1-1.33,1.29Z"/><path class="cls-1" d="M50.58,86.4a2.94,2.94,0,0,0,.26-.57,2.22,2.22,0,0,0,.12-.72,2.14,2.14,0,0,0-.19-.9,2.41,2.41,0,1,0-2.24,3.33,2.56,2.56,0,0,0,.78-.14A2.42,2.42,0,0,0,50.58,86.4Zm-2,0a1.35,1.35,0,1,1,1.35-1.35h0a1.34,1.34,0,0,1-1.28,1.4h-.07Z"/><path class="cls-1" d="M67,87.43a3,3,0,0,0,.67.11,2.43,2.43,0,1,0-2.24-3.33,2.3,2.3,0,0,0-.18.9,2.22,2.22,0,0,0,.12.72,2.53,2.53,0,0,0,.31.64A2.46,2.46,0,0,0,67,87.43Zm.67-3.65a1.33,1.33,0,1,1-.33,0h0a1,1,0,0,1,.25,0Z"/><path class="cls-20" d="M58.08,93.38a1.34,1.34,0,1,0,1.34,1.34h0A1.34,1.34,0,0,0,58.08,93.38Z"/><circle class="cls-20" cx="48.53" cy="85.11" r="1.34"/><path class="cls-20" d="M67.62,86.45a1.35,1.35,0,1,0-1.34-1.36v0h0A1.34,1.34,0,0,0,67.62,86.45Z"/></g></g></g><g id="Text"><path class="cls-21" d="M46.1,144.46h-5v4.15a1,1,0,0,1-.28.71,1,1,0,0,1-.74.27l-1.59,0-.24-.67,1.9,0a.28.28,0,0,0,.21-.11.37.37,0,0,0,.09-.23v-4.14h-5v-.66h5v-1.62a19.07,19.07,0,0,0,3.34-2.51h-7V139h8v.67a24,24,0,0,1-3.61,2.87v1.26h5Z"/><path class="cls-21" d="M48.93,146.67a15.31,15.31,0,0,1-.69,3l-.62-.27a13,13,0,0,0,.73-2.8Zm3-.78-.59.2a6.82,6.82,0,0,0-.19-.71q-1.86.52-3.27.78l-.19-.69A12.79,12.79,0,0,0,50,142.64L48,143l-.17-.62a13,13,0,0,0,2-3.62l.6.19a14.72,14.72,0,0,1-1.73,3.31,13.77,13.77,0,0,0,1.77-.26,13.65,13.65,0,0,0,.86-1.59l.58.24a18.25,18.25,0,0,1-3.18,4.73,16.4,16.4,0,0,0,2.29-.54,7.57,7.57,0,0,0-.32-.85l.55-.2A11.13,11.13,0,0,1,51.94,145.89Zm-1.47,3.22-.63.12a17,17,0,0,0-.34-2.58l.6-.1A16.42,16.42,0,0,1,50.47,149.11Zm1.44-.57-.58.21a12.32,12.32,0,0,0-.54-2.23l.58-.18A11.51,11.51,0,0,1,51.91,148.54Zm6.21.14a.85.85,0,0,1-.21.56.87.87,0,0,1-.5.31,5.53,5.53,0,0,1-1.11,0L56,148.9h.67a1.72,1.72,0,0,0,.67-.07.29.29,0,0,0,.12-.26v-8.91H52.83v9.9h-.62V139.06h5.91Zm-1-5.91H53.19v-.61h1a9,9,0,0,0-.6-1.58l.58-.24a14.74,14.74,0,0,1,.68,1.82h.69a12.85,12.85,0,0,0,.83-1.84l.56.22a15.29,15.29,0,0,1-.68,1.62h.9Zm0,2.26H54.5v1.84c0,.22.1.32.3.32H57v.59H54.74c-.57,0-.86-.3-.86-.9V145h-.69v-.59H55.1a8.47,8.47,0,0,0-.46-1.14l.6-.21c.14.31.32.76.53,1.35h1.36Z"/><path class="cls-21" d="M64.29,148.09a39.57,39.57,0,0,1-4.23,1.42l-.18-.66a5.28,5.28,0,0,0,.66-.19V143.6h.61v4.87c.17,0,.51-.13,1-.29v-5.51H60.4v-3.54h3.52v3.54H62.79v1.91h1.36v.64H62.79V148a13.22,13.22,0,0,0,1.5-.58Zm-1-6v-2.3H61v2.3Zm7.41,2-.39.58a14.36,14.36,0,0,1-2.8-1.41,10,10,0,0,1-3,1.46l-.42-.6A10.63,10.63,0,0,0,67,142.85a6.79,6.79,0,0,1-1.38-1.69,8.3,8.3,0,0,1-1,.76l-.51-.48a6.23,6.23,0,0,0,2.62-2.79l.63.2a6,6,0,0,1-.5.93h3.11v.59A8.54,8.54,0,0,1,68,142.8,11.57,11.57,0,0,0,70.68,144.07Zm-.88,5.51h-.64V149H65.77v.57h-.65V145H69.8Zm-.64-1.19v-2.74H65.77v2.74Zm0-8H66.34a1.12,1.12,0,0,1-.14.18l-.14.17a4.74,4.74,0,0,0,1.44,1.69A6.67,6.67,0,0,0,69.13,140.38Z"/><path class="cls-21" d="M77.82,149v-8.12a4,4,0,0,1-.91.62,5.59,5.59,0,0,1-1.21.49v-1.09a8,8,0,0,0,1.54-.65,7.35,7.35,0,0,0,1.29-.86h.29V149Z"/><path class="cls-21" d="M35.07,189.54a8.07,8.07,0,0,1-.69,2.19l-.58-.2a7.79,7.79,0,0,0,.48-1.37h-4.6v1l3.13-.24,0,.61-3.16.21v.55a.3.3,0,0,0,.11.24.34.34,0,0,0,.23.1H34.3v.59H29.84a.69.69,0,0,1-.79-.78v-.64l-2.11.15-.05-.62,2.16-.13v-1H26.3v2.67a11.07,11.07,0,0,1-1.13,5.56l-.56-.35a8.66,8.66,0,0,0,.86-2.43,17.4,17.4,0,0,0,.2-2.8v-3.27h3.74v-2.06h.64v.67h4.71v.6H30.05v.79ZM35.3,198H26.45v-.62h3.12v-1.07H27.43v-2h.65v1.34h1.49v-1.87h.64v3.59h1.23v-3.59h.63v1.87h1.5v-1.35h.63v2H32.07v1.07H35.3Z"/><path class="cls-21" d="M39.93,190.2h-1v2.12c.35-.23.61-.4.79-.54l.06.69c-.45.31-.73.51-.85.58v4.38c0,.58-.35.86-1,.86-.17,0-.38,0-.63,0l-.2-.63,1,0c.17,0,.26-.11.26-.31v-3.93l-1.14.62-.21-.59q.87-.45,1.35-.75V190.2H37.08v-.6h1.25v-2.21h.6v2.21h1Zm3.42,4.39H41.9a2.6,2.6,0,0,1-.11.54,10.41,10.41,0,0,1,1.12,1.23l-.43.41a11.75,11.75,0,0,0-.88-1,5.87,5.87,0,0,1-1.86,2.51l-.44-.42a5,5,0,0,0,2-3.28H39.77V194h1.58c0-.36,0-.84.07-1.44h-.61a9,9,0,0,1-.71,1l-.51-.33a6,6,0,0,0,1.22-2.12l.53.19a5,5,0,0,1-.22.71H43.2v.59H42q0,.69-.06,1.44h1.39Zm.1-3.72h-2.1a.84.84,0,0,1-.64-.26.9.9,0,0,1-.23-.63V187.4h.6v.91H43.3v.6H41.08V190c0,.21.12.31.36.31h2Zm4.3,6.55-.11.62-.64,0a3.17,3.17,0,0,1-3-1.48,7.49,7.49,0,0,1-1.21,1.75L42.3,198a5.49,5.49,0,0,0,1.54-4.34h.62a12.7,12.7,0,0,1-.23,2.19,2,2,0,0,0,1,1.2v-5.13H43.63v-.56h2.29a12.16,12.16,0,0,0-1.9-1.79l.41-.43c.45.36.77.64,1,.83a12.8,12.8,0,0,0,1.35-1.62h-2.9v-.57h3.59v.57a11.46,11.46,0,0,1-1.64,2,8,8,0,0,1,.57.65l-.32.34h1.54a9.35,9.35,0,0,1-.53,2.13l-.52-.27a6.79,6.79,0,0,0,.34-1.3H45.8v2.26h1.47v.59H45.8v2.54A5.53,5.53,0,0,0,47.75,197.42Z"/><path class="cls-21" d="M50.59,195.37a15.48,15.48,0,0,1-.69,2.95l-.61-.28a13,13,0,0,0,.72-2.8Zm3-.79-.59.2a5.69,5.69,0,0,0-.18-.71q-1.86.52-3.27.78l-.2-.69a13,13,0,0,0,2.33-2.82c-1.08.18-1.76.28-2.06.32l-.17-.62a12.5,12.5,0,0,0,2-3.62l.59.2a14.89,14.89,0,0,1-1.72,3.31c.54-.05,1.13-.14,1.77-.26a14.53,14.53,0,0,0,.85-1.6l.59.24a18.4,18.4,0,0,1-3.19,4.74,18.26,18.26,0,0,0,2.3-.55,6.69,6.69,0,0,0-.33-.84l.55-.2A11.27,11.27,0,0,1,53.6,194.58Zm-1.46,3.23-.64.12a18.18,18.18,0,0,0-.33-2.59l.59-.1A16.52,16.52,0,0,1,52.14,197.81Zm1.44-.58-.59.21a12.05,12.05,0,0,0-.54-2.22L53,195A13.73,13.73,0,0,1,53.58,197.23Zm6.2.14a.87.87,0,0,1-.21.57.9.9,0,0,1-.49.31,5.91,5.91,0,0,1-1.12,0l-.27-.67h.67a1.71,1.71,0,0,0,.68-.08.27.27,0,0,0,.12-.26v-8.91H54.49v9.9h-.62v-10.5h5.91Zm-1-5.91H54.85v-.61h1a9.38,9.38,0,0,0-.61-1.58l.58-.23a14.56,14.56,0,0,1,.69,1.81h.69A12.4,12.4,0,0,0,58,189l.56.23a16.32,16.32,0,0,1-.68,1.61h.91Zm0,2.27H56.17v1.84c0,.21.1.32.29.32h2.17v.58H56.4a.78.78,0,0,1-.86-.89v-1.85h-.69v-.6h1.92A8.13,8.13,0,0,0,56.3,192l.61-.22c.14.31.31.76.52,1.35H58.8Z"/><path class="cls-21" d="M66.06,196.79a43,43,0,0,1-4.24,1.41l-.17-.65c.28-.07.5-.14.65-.19v-5.07h.61v4.88a9.17,9.17,0,0,0,1-.3v-5.51H62.16v-3.53h3.52v3.53H64.56v1.92h1.35v.63H64.56v2.74a15,15,0,0,0,1.5-.59Zm-1-6v-2.3H62.8v2.3Zm7.4,2-.39.58a14.11,14.11,0,0,1-2.8-1.42,9.82,9.82,0,0,1-3,1.46l-.42-.6a10.64,10.64,0,0,0,2.89-1.24,7,7,0,0,1-1.38-1.69,9.55,9.55,0,0,1-1,.76l-.51-.49a6.23,6.23,0,0,0,2.62-2.79l.63.2a6.45,6.45,0,0,1-.49.94h3.1v.58a8.74,8.74,0,0,1-1.89,2.44A12.46,12.46,0,0,0,72.44,192.77Zm-.88,5.5h-.64v-.57H67.53v.57h-.65v-4.56h4.68Zm-.64-1.19v-2.73H67.53v2.73Zm0-8H68.11l-.15.19-.14.16a4.66,4.66,0,0,0,1.44,1.69A6.85,6.85,0,0,0,70.9,189.07Z"/><path class="cls-21" d="M54.6,65.3H53.35l-4.72-7.45a4.73,4.73,0,0,1-.28-.55h0a10.69,10.69,0,0,1,0,1.24V65.3h-1V56.08h1.32l4.59,7.37a5.61,5.61,0,0,1,.37.63h0a9.6,9.6,0,0,1-.07-1.39V56.08h1Z"/><path class="cls-21" d="M64,65.3H62.89l-1-2.62H58l-.92,2.62H56l3.49-9.22h1Zm-2.43-3.55-1.45-4a4.13,4.13,0,0,1-.13-.61h0a2.56,2.56,0,0,1-.15.61l-1.43,4Z"/><path class="cls-21" d="M69.76,57H67.15V65.3h-1V57H63.54v-.93h6.22Z"/><path class="cls-21" d="M8.79,1A10.27,10.27,0,0,1,5,6.32l-.48-.48A9.39,9.39,0,0,0,8.17.76Zm5.44,10.23-.57.32A9.28,9.28,0,0,0,12.92,10a41.17,41.17,0,0,1-6.73,1.19L6,10.56A24.35,24.35,0,0,0,9.5,4.29l.61.27a28,28,0,0,1-3.17,5.89,32.7,32.7,0,0,0,5.67-1,26.46,26.46,0,0,0-1.46-2.25l.55-.34A23.46,23.46,0,0,1,14.23,11.21Zm.89-5.47-.4.54a9.66,9.66,0,0,1-3.44-4.71h-.8V.91h1.29A8.69,8.69,0,0,0,15.12,5.74Z"/><path class="cls-21" d="M26.45,10.55a.71.71,0,0,1-.35.69,3.88,3.88,0,0,1-1.56.19H24l-.19-.67a8.38,8.38,0,0,0,.86,0,3.44,3.44,0,0,0,1-.07.24.24,0,0,0,.14-.23V7.55H22.43v3.57h-.65V7.55H18.37a8.27,8.27,0,0,1-1.23,3.84l-.56-.4a7.76,7.76,0,0,0,1.21-4.4V1h8.66ZM21.78,3.88V1.66H18.44V3.88Zm0,3V4.54H18.44V6.91Zm4-3V1.66H22.43V3.88Zm0,3V4.54H22.43V6.91Z"/><path class="cls-21" d="M32.92,10.8h-1V1.58h1Z"/><path class="cls-21" d="M36.32,7.3v3.5h-1V1.58h2.44A3.19,3.19,0,0,1,40,2.3a2.55,2.55,0,0,1,.8,2,2.79,2.79,0,0,1-.94,2.2,3.21,3.21,0,0,1-2.32.78Zm0-4.79V6.35h1.14a2.52,2.52,0,0,0,1.7-.51,1.85,1.85,0,0,0,.59-1.47c0-1.24-.72-1.86-2.15-1.86Z"/><path class="cls-21" d="M75.44,10.8h-1V1.58h1Z"/><path class="cls-21" d="M78.84,7.3v3.5h-1V1.58h2.44a3.19,3.19,0,0,1,2.22.72,2.58,2.58,0,0,1,.8,2,2.79,2.79,0,0,1-.94,2.2,3.23,3.23,0,0,1-2.32.78Zm0-4.79V6.35H80a2.53,2.53,0,0,0,1.71-.51,1.84,1.84,0,0,0,.58-1.47c0-1.24-.71-1.86-2.15-1.86Z"/><path class="cls-21" d="M98.05,3.09h-5a8.13,8.13,0,0,1-.54,1.22h4.2V11.4h-.62v-.76H89.64v.75H89V4.31H91.9a7.11,7.11,0,0,0,.55-1.22H87.66V2.47H98.05Zm-1.92,3.1V4.94H89.64V6.19Zm0,1.88V6.8H89.64V8.07Zm0,1.95V8.71H89.64V10Zm-4.8-8.15-.55.32A6.85,6.85,0,0,0,89.87,1l.5-.35A8.8,8.8,0,0,1,91.33,1.87ZM95.85,1a5.27,5.27,0,0,1-1.12,1.25l-.51-.36a7.16,7.16,0,0,0,1-1.2Z"/><path class="cls-21" d="M103.63,2H102a14.09,14.09,0,0,1-.81,3h2.11V10h-.64V9.47h-1.32v.84h-.62V6A12.45,12.45,0,0,1,100,7.09l-.47-.49A10.21,10.21,0,0,0,101.38,2H99.81V1.34h3.82Zm-1,6.92V5.56h-1.32V8.87Zm2.15-.81a13.25,13.25,0,0,1-.71,3.06l-.56-.22a12.71,12.71,0,0,0,.7-2.94Zm5-6.42h-2.38V2.87h2v.58h-2V4.71h2v.6h-2V6.69h2.31a25.45,25.45,0,0,1-.15,2.85,3.76,3.76,0,0,1-.31,1.36.92.92,0,0,1-.5.4,5.47,5.47,0,0,1-1.35.12l-.2-.61a5.88,5.88,0,0,0,1.23,0,.81.81,0,0,0,.31-.23A4.48,4.48,0,0,0,109,9.06c.07-.88.11-1.47.1-1.77h-4.89V1.07h5.57Zm-3,1.23V1.67h-2v1.2Zm0,1.84V3.45h-2V4.71Zm0,2V5.31h-2V6.69Zm-.75,4.05-.6.1c0-.2,0-.4,0-.61a12.93,12.93,0,0,0-.16-2l.56-.07A17.18,17.18,0,0,1,106.07,10.74Zm1.38-.75-.58.22a8.69,8.69,0,0,0-.45-2l.55-.14A12.86,12.86,0,0,1,107.45,10Zm1.11-.49-.54.22a8.68,8.68,0,0,0-.47-1.63l.5-.18A8.28,8.28,0,0,1,108.56,9.5Z"/><path class="cls-21" d="M116.68,144.46h-5v4.15a1,1,0,0,1-.28.71,1,1,0,0,1-.74.27l-1.59,0-.24-.67,1.9,0a.28.28,0,0,0,.21-.11.37.37,0,0,0,.09-.23v-4.14h-5v-.66h5v-1.62a19.07,19.07,0,0,0,3.34-2.51h-7V139h8v.67a24,24,0,0,1-3.61,2.87v1.26h5Z"/><path class="cls-21" d="M119.5,146.67a15.31,15.31,0,0,1-.69,3l-.61-.27a13.55,13.55,0,0,0,.73-2.8Zm3-.78-.59.2a6.82,6.82,0,0,0-.19-.71q-1.86.52-3.27.78l-.2-.69a12.56,12.56,0,0,0,2.34-2.83l-2.07.33-.16-.62a13,13,0,0,0,2-3.62l.59.19a14.28,14.28,0,0,1-1.72,3.31A13.77,13.77,0,0,0,121,142a13.65,13.65,0,0,0,.86-1.59l.58.24a18.5,18.5,0,0,1-3.18,4.73,16.4,16.4,0,0,0,2.29-.54,7.54,7.54,0,0,0-.33-.85l.56-.2A11.13,11.13,0,0,1,122.52,145.89Zm-1.47,3.22-.63.12a17,17,0,0,0-.34-2.58l.59-.1A15.28,15.28,0,0,1,121.05,149.11Zm1.44-.57-.59.21a11.39,11.39,0,0,0-.53-2.23l.58-.18A11.51,11.51,0,0,1,122.49,148.54Zm6.2.14a.93.93,0,0,1-.7.87,5.57,5.57,0,0,1-1.11,0l-.27-.68h.67a1.72,1.72,0,0,0,.67-.07.29.29,0,0,0,.12-.26v-8.91h-4.66v9.9h-.62V139.06h5.9Zm-1-5.91h-3.94v-.61h1a9,9,0,0,0-.6-1.58l.58-.24a14.74,14.74,0,0,1,.68,1.82h.69a11.86,11.86,0,0,0,.82-1.84l.57.22a13.88,13.88,0,0,1-.69,1.62h.91Zm0,2.26h-2.63v1.84c0,.22.1.32.3.32h2.16v.59h-2.22c-.57,0-.86-.3-.86-.9V145h-.69v-.59h1.91a7.51,7.51,0,0,0-.47-1.14l.61-.21c.14.31.32.76.53,1.35h1.36Z"/><path class="cls-21" d="M134.87,148.09a39.57,39.57,0,0,1-4.23,1.42l-.18-.66a5.28,5.28,0,0,0,.66-.19V143.6h.61v4.87c.17,0,.51-.13,1-.29v-5.51H131v-3.54h3.51v3.54h-1.12v1.91h1.36v.64h-1.36V148a13.22,13.22,0,0,0,1.5-.58Zm-1-6v-2.3h-2.23v2.3Zm7.41,2-.39.58a14.36,14.36,0,0,1-2.8-1.41,10,10,0,0,1-3,1.46l-.42-.6a10.63,10.63,0,0,0,2.89-1.25,6.79,6.79,0,0,1-1.38-1.69,7.54,7.54,0,0,1-1,.76l-.5-.48a6.28,6.28,0,0,0,2.62-2.79l.63.2a6,6,0,0,1-.5.93h3.11v.59a8.54,8.54,0,0,1-1.89,2.43A11.57,11.57,0,0,0,141.26,144.07Zm-.88,5.51h-.64V149h-3.39v.57h-.65V145h4.68Zm-.64-1.19v-2.74h-3.39v2.74Zm0-8h-2.79a1.12,1.12,0,0,1-.14.18l-.14.17a4.74,4.74,0,0,0,1.44,1.69A6.67,6.67,0,0,0,139.71,140.38Z"/><path class="cls-21" d="M150.16,142a1.66,1.66,0,0,0-.5-1.27,1.93,1.93,0,0,0-1.35-.45,2.43,2.43,0,0,0-1.16.29,3.94,3.94,0,0,0-1,.75v-1a3.05,3.05,0,0,1,2.33-1,2.85,2.85,0,0,1,2,.68,2.37,2.37,0,0,1,.74,1.83,3.31,3.31,0,0,1-.48,1.77,5.82,5.82,0,0,1-1.57,1.57,18,18,0,0,0-1.58,1.2,2.5,2.5,0,0,0-.56.73,2,2,0,0,0-.17.85h4.64V149h-5.7v-.41a4.11,4.11,0,0,1,.21-1.41,3.53,3.53,0,0,1,.74-1.11,10.45,10.45,0,0,1,1.53-1.26,6.82,6.82,0,0,0,1.51-1.39A2.38,2.38,0,0,0,150.16,142Z"/></g></svg>