<svg xmlns="http://www.w3.org/2000/svg" xmlns:xlink="http://www.w3.org/1999/xlink" viewBox="0 0 299.16 285.86"><defs><style>.cls-1{fill:#fff;}.cls-2{fill:#ccc;fill-opacity:0.3;}.cls-22,.cls-23,.cls-25,.cls-3,.cls-4,.cls-8{fill:none;stroke-miterlimit:10;}.cls-22,.cls-3,.cls-4{stroke:#3c3c41;}.cls-4{stroke-dasharray:1.31 2.19;}.cls-5,.cls-6,.cls-7{fill:#3c3c41;}.cls-6{opacity:0.2;}.cls-33,.cls-34,.cls-6,.cls-7,.cls-8{isolation:isolate;}.cls-7{opacity:0.02;}.cls-23,.cls-25,.cls-8{stroke:#365615;}.cls-8{stroke-width:0.5px;opacity:0.5;}.cls-9{fill:url(#Degradado_sin_nombre);}.cls-10{fill:#50e6ff;}.cls-11{fill:#c3f1ff;}.cls-12{fill:#9cebff;}.cls-13{fill:url(#Degradado_sin_nombre_2);}.cls-14{fill:url(#Degradado_sin_nombre_3);}.cls-15{fill:url(#Degradado_sin_nombre_4);}.cls-16{fill:#005ba1;}.cls-17{fill:#0078d4;}.cls-18{fill:url(#Degradado_sin_nombre_5);}.cls-19{fill:url(#Degradado_sin_nombre_6);}.cls-20{fill:url(#Degradado_sin_nombre_7);}.cls-21{fill:url(#Degradado_sin_nombre_8);}.cls-22,.cls-25{stroke-dasharray:1.46 2.43;}.cls-24{fill:#365615;}.cls-26{fill:url(#Degradado_sin_nombre_9);}.cls-27{fill:url(#Degradado_sin_nombre_10);}.cls-28{fill:url(#Degradado_sin_nombre_11);}.cls-29{fill:#1490df;}.cls-30{fill:url(#Degradado_sin_nombre_12);}.cls-31{fill:#b4ec36;}.cls-32{fill:#5ea0ef;}.cls-33{fill:#9bf00b;}.cls-33,.cls-34{opacity:0.4;}.cls-34,.cls-35{fill:#6ebcdb;}.cls-36{fill:#5db4d7;}.cls-37{fill:#e6e6e6;}.cls-38{fill:#86d633;}.cls-39{fill:#1e1e1e;}</style><linearGradient id="Degradado_sin_nombre" x1="99.67" y1="476.24" x2="99.67" y2="457.48" gradientTransform="translate(0 -322.62)" gradientUnits="userSpaceOnUse"><stop offset="0" stop-color="#0078d4"/><stop offset="0.82" stop-color="#5ea0ef"/></linearGradient><linearGradient id="Degradado_sin_nombre_2" x1="99.67" y1="483.48" x2="99.67" y2="476.24" gradientTransform="translate(0 -322.62)" gradientUnits="userSpaceOnUse"><stop offset="0.15" stop-color="#ccc"/><stop offset="1" stop-color="#707070"/></linearGradient><linearGradient id="Degradado_sin_nombre_3" x1="140.38" y1="476.24" x2="140.38" y2="457.48" xlink:href="#Degradado_sin_nombre"/><linearGradient id="Degradado_sin_nombre_4" x1="140.36" y1="483.48" x2="140.36" y2="476.24" xlink:href="#Degradado_sin_nombre_2"/><linearGradient id="Degradado_sin_nombre_5" x1="267.03" y1="464.26" x2="267.03" y2="453.92" xlink:href="#Degradado_sin_nombre"/><linearGradient id="Degradado_sin_nombre_6" x1="267.07" y1="468.25" x2="267.07" y2="464.26" xlink:href="#Degradado_sin_nombre_2"/><linearGradient id="Degradado_sin_nombre_7" x1="219.33" y1="464.24" x2="219.33" y2="445.48" xlink:href="#Degradado_sin_nombre"/><linearGradient id="Degradado_sin_nombre_8" x1="219.35" y1="471.48" x2="219.35" y2="464.24" xlink:href="#Degradado_sin_nombre_2"/><linearGradient id="Degradado_sin_nombre_9" x1="71.05" y1="523.53" x2="73.42" y2="525.9" gradientTransform="translate(2.85 -323.95)" gradientUnits="userSpaceOnUse"><stop offset="0" stop-color="#86d633"/><stop offset="0.24" stop-color="#83d232"/><stop offset="0.5" stop-color="#7cc52f"/><stop offset="0.76" stop-color="#6fb02a"/><stop offset="1" stop-color="#5e9624"/></linearGradient><linearGradient id="Degradado_sin_nombre_10" x1="65.71" y1="523.53" x2="68.06" y2="525.9" xlink:href="#Degradado_sin_nombre_9"/><linearGradient id="Degradado_sin_nombre_11" x1="60.36" y1="523.53" x2="62.72" y2="525.9" xlink:href="#Degradado_sin_nombre_9"/><linearGradient id="Degradado_sin_nombre_12" x1="86.49" y1="388.4" x2="86.49" y2="352.46" gradientTransform="translate(0 -322.62)" gradientUnits="userSpaceOnUse"><stop offset="0" stop-color="#5e9624"/><stop offset="0.02" stop-color="#5f9724"/><stop offset="1" stop-color="#76bc2d"/></linearGradient></defs><title>OJ104903209</title><g id="Target"><g id="Shapes"><rect class="cls-1" width="299.16" height="285.86"/><rect class="cls-2" x="143.16" y="210.86" width="155" height="35"/><rect class="cls-2" x="143.16" y="250.86" width="155" height="35"/><line class="cls-3" x1="158.86" y1="260.86" x2="158.11" y2="260.86"/><line class="cls-4" x1="155.92" y1="260.86" x2="150.01" y2="260.86"/><line class="cls-3" x1="148.91" y1="260.86" x2="148.16" y2="260.86"/><polygon class="cls-5" points="157.98 257.86 163.16 260.86 157.98 263.85 157.98 257.86"/><path class="cls-5" d="M292.5,200.86h-1v-1h1Zm-3,0h-1v-1h1Zm-3,0h-1v-1h1Zm-3,0h-1v-1h1Zm-3,0h-1v-1h1Zm-3,0h-1v-1h1Zm-3,0h-1v-1h1Zm-3,0h-1v-1h1Zm-3,0h-1v-1h1Zm-3,0h-1v-1h1Zm-3,0h-1v-1h1Zm-3,0h-1v-1h1Zm-3,0h-1v-1h1Zm-3,0h-1v-1h1Zm-3,0h-1v-1h1Zm-3,0h-1v-1h1Zm-3,0h-1v-1h1Zm-3,0h-1v-1h1Zm-3,0h-1v-1h1Zm-3,0h-1v-1h1Zm-3,0h-1v-1h1Zm-3,0h-1v-1h1Zm-3,0h-1v-1h1Zm-3,0h-1v-1h1Zm-3,0h-1v-1h1Zm-3,0h-1v-1h1Zm-3,0h-1v-1h1Zm-3,0h-1v-1h1Zm-3,0h-1v-1h1Zm-3,0h-1v-1h1Zm-3,0h-1v-1h1Zm-3,0h-1v-1h1Zm-3,0h-1v-1h1Zm-3,0h-1v-1h1Zm-3,0h-1v-1h1Zm-3,0h-1v-1h1Zm-3,0h-1v-1h1Zm-3,0h-1v-1h1Zm-3,0h-1v-1h1Zm-3,0h-1v-1h1Zm-3,0h-1v-1h1Zm-3,0h-1v-1h1Zm-3,0h-1v-1h1Zm-3,0h-1v-1h1Zm-3,0h-1v-1h1Zm-3,0h-1v-1h1Zm-3,0h-1v-1h1Zm-3,0h-1v-1h1Zm-3,0h-1v-1h1Zm-3,0h-1v-1h1Zm-3,0h-1v-1h1Zm-3,0h-1v-1h1Zm-3,0h-1v-1h1Zm-3,0h-1v-1h1Zm-3,0h-1v-1h1Zm-3,0h-1v-1h1Zm-3,0h-1v-1h1Zm-3,0h-1v-1h1Zm-3,0h-1v-1h1Zm-3,0h-1v-1h1Zm-3,0h-1v-1h1Zm-3,0h-1v-1h1Zm-3,0h-1v-1h1Zm-3,0h-1v-1h1Zm-3,0h-1v-1h1Zm-3,0h-1v-1h1Zm-3,0h-1v-1h1Zm-3,0h-1v-1h1Zm-3,0h-1v-1h1Zm-3,0h-1v-1h1Zm-30,0h-1v-1h1Zm239.48-.08-.16-1a4.4,4.4,0,0,0,.86-.24l.37.93a4.94,4.94,0,0,1-1.42.31ZM52,200.59a6,6,0,0,1-1-.45l.49-.87a4.09,4.09,0,0,0,.83.36Zm245.52-1.29-.7-.72a5.35,5.35,0,0,0,.58-.68l.83.56a6.54,6.54,0,0,1-.74.84Zm-248.18-.59a5.06,5.06,0,0,1-.58-.94l.89-.44a5.41,5.41,0,0,0,.48.76Zm249.74-2.26-1-.2a4.41,4.41,0,0,0,.09-.89l1-.06v.06a5,5,0,0,1-.12,1.09Zm-250.88-.8v-1h1v1Zm251-2.36h-1v-1h1Zm-250-.67h-1v-1h1Zm250-2.33h-1v-1h1Zm-250-.67h-1v-1h1Zm250-2.34h-1v-1h1Zm-250-.67h-1v-1h1Zm250-2.33h-1v-1h1Zm-250-.67h-1v-1h1Zm250-2.34h-1v-1h1Zm-250-.67h-1v-1h1Zm250-2.33h-1v-1h1Zm-250-.67h-1v-1h1Zm250-2.34h-1v-1h1Zm-250-.67h-1v-1h1Zm250-2.33h-1v-1h1Zm-250-.67h-1v-1h1Zm250-2.34h-1v-1h1Zm-250-.67h-1v-1h1Zm250-2.33h-1v-1h1Zm-250-.67h-1v-1h1Zm250-2.34h-1v-1h1Zm-250-.67h-1v-1h1Zm250-2.33h-1v-1h1Zm-250-.67h-1v-1h1Zm250-2.34h-1v-1h1Zm-250-.67h-1v-1h1Zm250-2.33h-1v-1h1Zm-250-.67h-1v-1h1Zm250-2.34h-1v-1h1Zm-250-.67h-1v-1h1Zm250-2.33h-1v-1h1Zm-250-.67h-1v-1h1Zm250-2.34h-1v-1h1Zm-250-.67h-1v-1h1Zm250-2.33h-1v-1h1Zm-250-.67h-1v-1h1Zm250-2.34h-1v-1h1Zm-250-.67h-1v-1h1Zm250-2.33h-1v-1h1Zm-250-.67h-1v-1h1Zm250-2.34h-1v-1h1Zm-250-.67h-1v-1h1Zm250-2.33h-1v-1h1Zm-250-.67h-1v-1h1Zm250-2.34h-1v-1h1Zm-250-.67h-1v-1h1Zm250-2.33h-1v-1h1Zm-250-.67h-1v-1h1Zm250-2.34h-1v-1h1Zm-250-.67h-1v-1h1Zm250-2.33h-1v-1h1Zm-250-.67h-1v-1h1Zm250-2.34h-1v-1h1Zm-250-.67h-1v-1h1Zm250-2.33h-1v-1h1Zm-250-.67h-1v-1h1Zm250-2.34h-1v-1h1Zm-250-.67h-1v-1h1Zm250-2.33h-1v-1h1Zm-250-.67h-1v-1h1Zm250-2.34h-1v-1h1Zm-250-.67h-1v-1h1Zm250-2.33h-1v-1h1Zm-250-.67h-1v-1h1Zm250-2.34h-1v-1h1Zm-250-.67h-1v-1h1Zm250-2.33h-1v-1h1Zm-250-.67h-1v-1h1Zm250-2.34h-1v-1h1Zm-250-.67h-1v-1h1Zm250-2.33h-1v-1h1Zm-250-.67h-1v-1h1Zm250-2.34h-1v-1h1Zm-250-.67h-1v-1h1Zm250-2.33h-1v-1h1Zm-250-.68h-1v-1h1Zm250-2.33h-1v-1h1Zm-250-.67h-1v-1h1Zm250-2.33h-1v-1h1Zm-250-.67h-1v-1h1Zm250-2.34h-1v-1h1Zm-250-.67h-1v-1h1Zm250-2.33h-1v-1h1Zm-250-.68h-1v-1h1Zm250-2.33h-1v-1h1Zm-250-.67h-1v-1h1Zm250-2.33h-1v-1h1Zm-250-.68h-1v-1h1Zm250-2.33h-1v-1h1Zm-250-.67h-1v-1h1Zm250-2.33h-1v-1h1Zm-250-.68h-1v-1h1Zm250-2.33h-1v-1h1Zm-250-.67h-1v-1h1Zm250-2.34h-1v-1l1-.06v1.06Zm-251-.67h0a5.47,5.47,0,0,1,.11-1.07l1,.2a4.28,4.28,0,0,0-.09.87Zm249.53-2a3.75,3.75,0,0,0-.48-.76L298,48a5.62,5.62,0,0,1,.59.93ZM49.94,48.84l-.83-.57a6.31,6.31,0,0,1,.71-.84l.7.72A4.24,4.24,0,0,0,49.94,48.84Zm245.91-1.41a4,4,0,0,0-.82-.36l.3-1a5.2,5.2,0,0,1,1,.43ZM52,47.17l-.37-.93a4.92,4.92,0,0,1,1.06-.3l.18,1A4.29,4.29,0,0,0,52,47.17Zm241.18-.31h-1v-1h1Zm-3,0h-1v-1h1Zm-3,0h-1v-1h1Zm-3,0h-1v-1h1Zm-3,0h-1v-1h1Zm-3,0h-1v-1h1Zm-3,0h-1v-1h1Zm-3,0h-1v-1h1Zm-3,0h-1v-1h1Zm-3,0h-1v-1h1Zm-3,0h-1v-1h1Zm-3,0h-1v-1h1Zm-3,0h-1v-1h1Zm-3,0h-1v-1h1Zm-3,0h-1v-1h1Zm-3,0h-1v-1h1Zm-3,0h-1v-1h1Zm-3,0h-1v-1h1Zm-3,0h-1v-1h1Zm-3,0h-1v-1h1Zm-27,0h-1v-1h1Zm-3,0h-1v-1h1Zm-3,0h-1v-1h1Zm-3,0h-1v-1h1Zm-3,0h-1v-1h1Zm-3,0h-1v-1h1Zm-3,0h-1v-1h1Zm-3,0h-1v-1h1Zm-3,0h-1v-1h1Zm-3,0h-1v-1h1Zm-3,0h-1v-1h1Zm-3,0h-1v-1h1Zm-3,0h-1v-1h1Zm-3,0h-1v-1h1Zm-3,0h-1v-1h1Zm-3,0h-1v-1h1Zm-3,0h-1v-1h1Zm-3,0h-1v-1h1Zm-3,0h-1v-1h1Zm-3,0h-1v-1h1Zm-3,0h-1v-1h1Zm-3,0h-1v-1h1Zm-3,0h-1v-1h1Zm-3,0h-1v-1h1Zm-3,0h-1v-1h1Zm-3,0h-1v-1h1Zm-3,0h-1v-1h1Zm-3,0h-1v-1h1Zm-3,0h-1v-1h1Zm-3,0h-1v-1h1Zm-3,0h-1v-1h1Zm-3,0h-1v-1h1Zm-3,0h-1v-1h1Zm-3,0h-1v-1h1Zm-3,0h-1v-1h1Zm-3,0h-1v-1h1Zm-3,0h-1v-1h1Zm-3,0h-1v-1h1Zm-3,0h-1v-1h1Zm-3,0h-1v-1h1Zm-3,0h-1v-1h1Zm-3,0h-1v-1h1Zm-3,0h-1v-1h1Zm-3,0h-1v-1h1Zm-3,0h-1v-1h1Zm-3,0h-1v-1h1Zm-3,0h-1v-1h1Zm-3,0h-1v-1h1Zm-3,0h-1v-1h1Zm-3,0h-1v-1h1Zm-3,0h-1v-1h1Zm-3,0h-1v-1h1Z"/><rect class="cls-1" x="58.16" y="90.86" width="125" height="95"/><rect class="cls-6" x="58.16" y="90.86" width="125" height="95"/><rect class="cls-1" x="63.16" y="110.86" width="115" height="70"/><rect class="cls-7" x="63.16" y="110.86" width="115" height="70"/><rect class="cls-8" x="63.16" y="110.86" width="115" height="70"/><rect class="cls-9" x="85.6" y="134.86" width="28.14" height="18.76" rx="0.94"/><polygon class="cls-10" points="104.36 141.5 104.36 146.96 99.67 149.71 99.67 144.24 104.36 141.5"/><polygon class="cls-11" points="104.36 141.5 99.67 144.25 94.98 141.5 99.67 138.76 104.36 141.5"/><polygon class="cls-12" points="99.67 144.25 99.67 149.71 94.98 146.96 94.98 141.5 99.67 144.25"/><polygon class="cls-11" points="94.98 146.96 99.67 144.24 99.67 149.71 94.98 146.96"/><polygon class="cls-12" points="104.36 146.96 99.67 144.24 99.67 149.71 104.36 146.96"/><path class="cls-13" d="M105.32,159.29c-2.79-.44-2.89-2.44-2.89-5.67H96.91c0,3.23-.1,5.23-2.88,5.67a1.56,1.56,0,0,0-1.39,1.57h14.07A1.56,1.56,0,0,0,105.32,159.29Z"/><rect class="cls-14" x="126.31" y="134.86" width="28.14" height="18.76" rx="0.94"/><polygon class="cls-10" points="145.07 141.5 145.07 146.96 140.38 149.71 140.38 144.24 145.07 141.5"/><polygon class="cls-11" points="145.07 141.5 140.38 144.25 135.69 141.5 140.38 138.76 145.07 141.5"/><polygon class="cls-12" points="140.38 144.25 140.38 149.71 135.69 146.96 135.69 141.5 140.38 144.25"/><polygon class="cls-11" points="135.69 146.96 140.38 144.24 140.38 149.71 135.69 146.96"/><polygon class="cls-12" points="145.07 146.96 140.38 144.24 140.38 149.71 145.07 146.96"/><path class="cls-15" d="M146,159.29c-2.78-.44-2.89-2.44-2.89-5.67h-5.52c0,3.23-.09,5.23-2.88,5.67a1.56,1.56,0,0,0-1.39,1.57h14.07A1.56,1.56,0,0,0,146,159.29Z"/><rect class="cls-1" x="193.16" y="90.86" width="95" height="95"/><rect class="cls-6" x="193.16" y="90.86" width="95" height="95"/><rect class="cls-16" x="248.76" y="119.63" width="15.46" height="10.32" rx="0.52"/><polygon class="cls-10" points="259.07 123.28 259.07 126.3 256.5 127.79 256.5 124.8 259.07 123.28"/><polygon class="cls-11" points="259.07 123.28 256.5 124.8 253.92 123.28 256.5 121.77 259.07 123.28"/><polygon class="cls-12" points="256.5 124.8 256.5 127.79 253.92 126.3 253.92 123.28 256.5 124.8"/><rect class="cls-17" x="254.83" y="125.55" width="15.46" height="10.32" rx="0.52"/><polygon class="cls-10" points="265.14 129.22 265.14 132.21 262.57 133.73 262.57 130.72 265.14 129.22"/><polygon class="cls-11" points="265.14 129.22 262.57 130.72 259.99 129.22 262.57 127.7 265.14 129.22"/><polygon class="cls-12" points="262.57 130.72 262.57 133.73 259.99 132.21 259.99 129.22 262.57 130.72"/><rect class="cls-18" x="259.3" y="131.3" width="15.46" height="10.32" rx="0.52"/><polygon class="cls-10" points="269.61 134.97 269.61 137.96 267.04 139.48 267.04 136.47 269.61 134.97"/><polygon class="cls-11" points="269.61 134.97 267.04 136.48 264.45 134.97 267.04 133.45 269.61 134.97"/><polygon class="cls-12" points="267.04 136.48 267.04 139.48 264.45 137.96 264.45 134.97 267.04 136.48"/><polygon class="cls-11" points="264.45 137.96 267.04 136.47 267.04 139.48 264.45 137.96"/><polygon class="cls-12" points="269.61 137.96 267.04 136.47 267.04 139.48 269.61 137.96"/><path class="cls-19" d="M270.13,144.75c-1.53-.24-1.53-1.34-1.53-3.05h-3.06c0,1.77,0,2.87-1.53,3.05a.91.91,0,0,0-.76.88h7.64A.91.91,0,0,0,270.13,144.75Z"/><rect class="cls-20" x="205.26" y="122.86" width="28.14" height="18.76" rx="0.94"/><polygon class="cls-10" points="224.02 129.5 224.02 134.96 219.33 137.71 219.33 132.24 224.02 129.5"/><polygon class="cls-11" points="224.02 129.5 219.33 132.25 214.64 129.5 219.33 126.76 224.02 129.5"/><polygon class="cls-12" points="219.33 132.25 219.33 137.71 214.64 134.96 214.64 129.5 219.33 132.25"/><polygon class="cls-11" points="214.64 134.96 219.33 132.24 219.33 137.71 214.64 134.96"/><polygon class="cls-12" points="224.02 134.96 219.33 132.24 219.33 137.71 224.02 134.96"/><path class="cls-21" d="M225,147.29c-2.78-.44-2.89-2.44-2.89-5.67h-5.52c0,3.23-.1,5.23-2.88,5.67a1.56,1.56,0,0,0-1.39,1.57h14.07A1.56,1.56,0,0,0,225,147.29Z"/><line class="cls-3" x1="170.03" y1="91.21" x2="170.03" y2="64.14"/><line class="cls-3" x1="162.5" y1="85.68" x2="162.5" y2="73.98"/><polygon class="cls-5" points="165.5 74.86 162.5 69.68 159.51 74.86 165.5 74.86"/><line class="cls-3" x1="177.55" y1="81.37" x2="177.55" y2="80.62"/><line class="cls-22" x1="177.55" y1="78.19" x2="177.55" y2="71.64"/><line class="cls-3" x1="177.55" y1="70.43" x2="177.55" y2="69.68"/><polygon class="cls-5" points="180.55 80.5 177.55 85.68 174.56 80.5 180.55 80.5"/><line class="cls-3" x1="210.69" y1="91.21" x2="210.69" y2="64.14"/><line class="cls-3" x1="203.16" y1="85.68" x2="203.16" y2="73.98"/><polygon class="cls-5" points="206.16 74.86 203.16 69.68 200.17 74.86 206.16 74.86"/><line class="cls-3" x1="218.21" y1="81.37" x2="218.21" y2="80.62"/><line class="cls-22" x1="218.21" y1="78.19" x2="218.21" y2="71.64"/><line class="cls-3" x1="218.21" y1="70.43" x2="218.21" y2="69.68"/><polygon class="cls-5" points="221.21 80.5 218.21 85.68 215.22 80.5 221.21 80.5"/><line class="cls-23" x1="86.41" y1="110.86" x2="86.41" y2="19.87"/><line class="cls-23" x1="80.04" y1="82.55" x2="80.04" y2="70.86"/><polygon class="cls-24" points="83.03 81.67 80.04 86.86 77.05 81.67 83.03 81.67"/><line class="cls-23" x1="93.15" y1="86.86" x2="93.15" y2="86.11"/><line class="cls-25" x1="93.15" y1="83.68" x2="93.15" y2="77.12"/><line class="cls-23" x1="93.15" y1="75.91" x2="93.15" y2="75.16"/><polygon class="cls-24" points="96.14 76.04 93.15 70.86 90.16 76.04 96.14 76.04"/><line class="cls-3" x1="191.87" y1="38.29" x2="191.87" y2="18.79"/><line class="cls-3" x1="154.17" y1="222.93" x2="165.3" y2="222.93"/><polygon class="cls-5" points="155.05 225.93 149.87 222.93 155.05 219.94 155.05 225.93"/><path class="cls-3" d="M188,41,150.24,29.65a4.28,4.28,0,0,1-2.87-3.86v-7"/><path class="cls-3" d="M196.18,41l43.29-11.43a4.12,4.12,0,0,0,2.9-3.76v-7"/><circle class="cls-26" cx="74.9" cy="200.57" r="1.67"/><circle class="cls-27" cx="69.56" cy="200.59" r="1.67"/><circle class="cls-28" cx="64.22" cy="200.59" r="1.67"/><path class="cls-10" d="M65.44,207.28l-1,1a.44.44,0,0,1-.62,0h0l-7.09-7.07a.87.87,0,0,1,0-1.23h0l1-1h0l7.7,7.69a.45.45,0,0,1,0,.61Z"/><path class="cls-29" d="M64.33,193l1,1a.44.44,0,0,1,0,.62l-7.57,7.59h0l-1-1a.86.86,0,0,1,0-1.22h0l7-7A.43.43,0,0,1,64.33,193Z"/><path class="cls-10" d="M81.28,199l1,1a.87.87,0,0,1,0,1.23h0l-7.1,7.07a.43.43,0,0,1-.61,0h0l-1-1a.43.43,0,0,1,0-.61h0Z"/><path class="cls-29" d="M82.24,201.15l-1,.95h0l-7.58-7.59a.44.44,0,0,1,0-.62h0l1-1a.44.44,0,0,1,.62,0h0l7,7a.87.87,0,0,1,0,1.23h0Z"/><path class="cls-30" d="M71.32,46.35,85.76,31.9a1,1,0,0,1,1.41,0l0,0h0l14.45,14.45a1,1,0,0,1,0,1.41l0,.05h0L87.23,62.3a1,1,0,0,1-1.41,0l0,0L71.32,47.83a1,1,0,0,1,0-1.41l0-.05Z"/><path class="cls-31" d="M90.29,38.48l-3.65-3.63a.2.2,0,0,0-.27,0l-3.66,3.63a.16.16,0,0,0,0,.24.16.16,0,0,0,.18.07H85a.21.21,0,0,1,.19.19v3.45a.2.2,0,0,0,.19.19h2.27a.21.21,0,0,0,.19-.19V39a.2.2,0,0,1,.19-.19h2.13a.15.15,0,0,0,.2-.1v0A.18.18,0,0,0,90.29,38.48Z"/><path class="cls-31" d="M77.89,43l-3.61,3.66a.19.19,0,0,0,0,.26l3.61,3.64a.19.19,0,0,0,.27,0h0a.2.2,0,0,0,.06-.14V48.28a.2.2,0,0,1,.19-.19h3.44a.18.18,0,0,0,.18-.17V45.63a.19.19,0,0,0-.06-.24H78.46a.18.18,0,0,1-.19-.15V43.11a.19.19,0,0,0-.11-.25h0a.19.19,0,0,0-.25.12Z"/><path class="cls-31" d="M95.25,50.54l3.67-3.65a.19.19,0,0,0,0-.26L95.25,43A.2.2,0,0,0,95,43a.21.21,0,0,0,0,.11v2.16a.18.18,0,0,1-.17.17H91.31a.18.18,0,0,0-.18.17V47.9a.17.17,0,0,0,.16.19h3.46a.2.2,0,0,1,.19.19h0v2.14a.2.2,0,0,0,.21.16Z"/><path class="cls-1" d="M91.31,47.09a4.81,4.81,0,1,0-6.1,4.6v1.64a3,3,0,1,0,4,1.33,3.05,3.05,0,0,0-1.33-1.33V51.6A4.78,4.78,0,0,0,91.31,47.09Z"/><circle id="e99c3387-15c3-4f28-bd4b-cb209b430e06" class="cls-32" cx="86.52" cy="47.08" r="2.79"/><rect class="cls-1" x="130.02" width="35" height="20.86"/><rect class="cls-6" x="130.02" width="35" height="20.86"/><rect class="cls-1" x="68.16" width="35" height="20.86"/><rect class="cls-33" x="68.16" width="35" height="20.86"/><rect class="cls-1" x="174.87" width="35" height="20.86"/><rect class="cls-6" x="174.87" width="35" height="20.86"/><rect class="cls-1" x="219.87" width="45" height="20.86"/><rect class="cls-6" x="219.87" width="45" height="20.86"/><rect class="cls-1" x="156.87" y="53.97" width="70" height="10"/><rect class="cls-34" x="156.87" y="53.97" width="70" height="10"/><g id="ad94e297-0e86-4eaf-aac0-d146ee9aea65"><path class="cls-35" d="M187.8,54.32l-4.69-4.84a2.28,2.28,0,0,1-.77.14,2.43,2.43,0,1,1,2.24-3.33h4.61v1.62h-4.54a3.68,3.68,0,0,1-.26.57l4.32,4.46,2.34-3.56V38.19H187.9l4-4,4,4h-3.16v8.74l5.93-9-6-6a1,1,0,0,0-1.41-.05s0,0,0,.05h0L176.69,46.36a1,1,0,0,0-.05,1.41l.05,0h0l14.47,14.47L186,57.15Z"/><path class="cls-36" d="M191.05,54.53V49.36l-2.34,3.58,1.72,1.85A1.61,1.61,0,0,1,191.05,54.53Z"/><path class="cls-36" d="M207.08,46.36l-8.48-8.48-5.93,9v7.61a1.78,1.78,0,0,1,.54.3l6.22-6.29a2.53,2.53,0,0,1-.31-.64h-4.67V46.29h4.74a2.41,2.41,0,1,1,2.24,3.33,2.61,2.61,0,0,1-.68-.11l-6.61,6.67a2.17,2.17,0,0,1,.1.62,2.43,2.43,0,1,1-4.84.44,2.18,2.18,0,0,1,0-.25,2.49,2.49,0,0,1,.13-.9l-1.72-1.72L186,57.13l5.17,5.17a1,1,0,0,0,1.41,0l0,0L207,47.82a1,1,0,0,0,.05-1.41s0,0-.05,0Z"/><path class="cls-37" d="M199.19,46.29h-4.74v1.62h4.67a2.22,2.22,0,0,1-.12-.72A2.14,2.14,0,0,1,199.19,46.29Z"/><path class="cls-37" d="M184.65,47.91h4.54V46.29h-4.61a2.54,2.54,0,0,1,.19.9A2.93,2.93,0,0,1,184.65,47.91Z"/><path class="cls-37" d="M194.14,56.18l6.61-6.67a2.44,2.44,0,0,1-1.32-1l-6.22,6.29A2.25,2.25,0,0,1,194.14,56.18Z"/><path class="cls-37" d="M190.49,54.79l-1.73-1.85-4.37-4.46a2.45,2.45,0,0,1-1.28,1l4.69,4.84L189.52,56A2.37,2.37,0,0,1,190.49,54.79Z"/><path class="cls-1" d="M195.81,38.19l-3.93-4-4,4H191V54.53a1.68,1.68,0,0,0-.56.26,2.36,2.36,0,0,0-1,1.3,2.41,2.41,0,1,0,4.62,1.4,2.3,2.3,0,0,0,.1-.69,2.17,2.17,0,0,0-.1-.62,2.21,2.21,0,0,0-.93-1.34,1.78,1.78,0,0,0-.54-.3V38.19Zm-3.93,20a1.34,1.34,0,1,1,1.35-1.34h0a1.35,1.35,0,0,1-1.35,1.29Z"/><path class="cls-1" d="M184.39,48.48a3.68,3.68,0,0,0,.26-.57,2.93,2.93,0,0,0,.12-.72,2.54,2.54,0,0,0-.19-.9,2.42,2.42,0,1,0-2.24,3.33,2.28,2.28,0,0,0,.77-.14A2.45,2.45,0,0,0,184.39,48.48Zm-2,0a1.35,1.35,0,1,1,1.34-1.36v0h0a1.34,1.34,0,0,1-1.29,1.39h0Z"/><path class="cls-1" d="M200.75,49.51a2.61,2.61,0,0,0,.68.11,2.43,2.43,0,1,0-2.24-3.33,2.14,2.14,0,0,0-.19.9,2.22,2.22,0,0,0,.12.72,2.53,2.53,0,0,0,.31.64A2.46,2.46,0,0,0,200.75,49.51Zm.68-3.65a1.34,1.34,0,1,1-.31,0Z"/><path class="cls-38" d="M191.88,55.46a1.34,1.34,0,1,0,1.35,1.34h0A1.36,1.36,0,0,0,191.88,55.46Z"/><circle class="cls-38" cx="182.34" cy="47.19" r="1.34"/><path class="cls-38" d="M201.43,48.53a1.35,1.35,0,1,0-1.35-1.35h0a1.34,1.34,0,0,0,1.34,1.34Z"/></g></g></g><g id="Text"><path class="cls-39" d="M96.68,164.12l-3.39,9.22h-1.1l-3.31-9.22H90l2.56,7.37a4.06,4.06,0,0,1,.18.81h0a3.67,3.67,0,0,1,.21-.82l2.62-7.36Z"/><path class="cls-39" d="M106.19,173.34v-6.23c0-.47,0-1.06.09-1.78h0a5.14,5.14,0,0,1-.27.87l-3.18,7.14h-.44l-3.17-7.09a5.12,5.12,0,0,1-.27-.92h0A17.29,17.29,0,0,1,99,167.1v6.24H98v-9.22h1.3l2.86,6.49a11.43,11.43,0,0,1,.42,1.09h0c.12-.32.27-.69.44-1.11l2.92-6.47h1.24v9.22Z"/><path class="cls-39" d="M138.52,164.12l-3.38,9.22H134l-3.32-9.22h1.12l2.56,7.37a4.06,4.06,0,0,1,.18.81h0a3.67,3.67,0,0,1,.21-.82l2.62-7.36Z"/><path class="cls-39" d="M148,173.34v-6.23c0-.47,0-1.06.09-1.78h0a5.14,5.14,0,0,1-.27.87l-3.17,7.14h-.45L141,166.25a6.13,6.13,0,0,1-.27-.92h0a17.29,17.29,0,0,1,.06,1.77v6.24h-1v-9.22h1.31l2.85,6.49a11.43,11.43,0,0,1,.42,1.09h0q.18-.48.45-1.11l2.91-6.47H149v9.22Z"/><path class="cls-39" d="M217.53,156.54l-3.38,9.22h-1.1l-3.32-9.22h1.12l2.56,7.37a4.06,4.06,0,0,1,.18.81h0a3.67,3.67,0,0,1,.21-.82l2.62-7.36Z"/><path class="cls-39" d="M227,165.76v-6.23c0-.47,0-1.06.09-1.78h0a5.14,5.14,0,0,1-.27.87l-3.17,7.14h-.45L220,158.67a6.13,6.13,0,0,1-.27-.92h0c0,.33.05.92.05,1.77v6.24h-1v-9.22h1.31L223,163a9.66,9.66,0,0,1,.42,1.09h0c.12-.33.27-.7.45-1.12l2.91-6.47H228v9.22Z"/><path class="cls-39" d="M253.06,156.73,249.67,166h-1.09l-3.32-9.22h1.12l2.56,7.37a4.06,4.06,0,0,1,.18.81h0a3.67,3.67,0,0,1,.21-.82l2.62-7.36Z"/><path class="cls-39" d="M262.57,166v-6.23c0-.47,0-1.06.09-1.78h0a5.14,5.14,0,0,1-.27.87L259.18,166h-.44l-3.17-7.09a5.12,5.12,0,0,1-.27-.92h0a17.29,17.29,0,0,1,.06,1.77V166h-1v-9.22h1.31l2.85,6.49a11.43,11.43,0,0,1,.42,1.09h0c.12-.32.27-.69.44-1.11l2.92-6.47h1.24V166Z"/><path class="cls-39" d="M265.52,164.36a2.9,2.9,0,0,0,1.1.58,4.21,4.21,0,0,0,1.33.24c1.33,0,2-.49,2-1.47a1.4,1.4,0,0,0-.2-.73,2.13,2.13,0,0,0-.56-.56c-.23-.15-.69-.41-1.38-.77a5.49,5.49,0,0,1-1.88-1.34,2.23,2.23,0,0,1-.39-1.29,2.13,2.13,0,0,1,.89-1.78,3.71,3.71,0,0,1,2.25-.67,4.17,4.17,0,0,1,1.94.33v1.17a3.59,3.59,0,0,0-2.07-.56,2.42,2.42,0,0,0-1.41.38,1.18,1.18,0,0,0-.55,1,1.44,1.44,0,0,0,.19.73,1.87,1.87,0,0,0,.52.53,12.79,12.79,0,0,0,1.29.71,5.85,5.85,0,0,1,1.87,1.31,2.16,2.16,0,0,1,.54,1.43,2.12,2.12,0,0,1-.85,1.82,3.82,3.82,0,0,1-2.37.65,5.83,5.83,0,0,1-1.21-.16,2.94,2.94,0,0,1-1-.37Z"/><path class="cls-39" d="M272.37,164.36a2.9,2.9,0,0,0,1.1.58,4.26,4.26,0,0,0,1.33.24c1.33,0,2-.49,2-1.47a1.4,1.4,0,0,0-.2-.73,2.13,2.13,0,0,0-.56-.56c-.23-.15-.69-.41-1.38-.77a5.49,5.49,0,0,1-1.88-1.34,2.23,2.23,0,0,1-.39-1.29,2.13,2.13,0,0,1,.89-1.78,3.71,3.71,0,0,1,2.25-.67,4.14,4.14,0,0,1,1.94.33v1.17a3.56,3.56,0,0,0-2.07-.56,2.45,2.45,0,0,0-1.41.38,1.2,1.2,0,0,0-.55,1,1.35,1.35,0,0,0,.2.73,1.75,1.75,0,0,0,.52.53,11.27,11.27,0,0,0,1.28.71,5.85,5.85,0,0,1,1.87,1.31,2.16,2.16,0,0,1,.54,1.43,2.12,2.12,0,0,1-.85,1.82,3.82,3.82,0,0,1-2.37.65,5.83,5.83,0,0,1-1.21-.16,2.94,2.94,0,0,1-1-.37Z"/><path class="cls-39" d="M230.28,13.9a.75.75,0,0,1-.21.55.77.77,0,0,1-.57.24h-.76l-.63,0-.22-.64c.31,0,.81,0,1.5,0a.23.23,0,0,0,.18-.09.29.29,0,0,0,.09-.21V12h-2.73a6.44,6.44,0,0,1-1.15,2.74l-.48-.43A7.07,7.07,0,0,0,226.44,10V7.36h3.84Zm5.45-7.58H225.31v-.6h10.42Zm-6.07,5.13V10h-2.6c0,.31,0,.8-.07,1.47Zm0-2.1V8h-2.6V9.35Zm0-4.06-.61.25a7.34,7.34,0,0,0-1.2-1.11l.66-.26A7.69,7.69,0,0,1,229.66,5.29Zm3.66-.83a5.22,5.22,0,0,1-1.17,1.07l-.64-.33a6.26,6.26,0,0,0,1.26-1Zm-.89,8.23h-.61V7.54h.61Zm2.37,1.13a.9.9,0,0,1-.16.55.72.72,0,0,1-.4.27,5.86,5.86,0,0,1-.92,0l-.85,0-.22-.66,1.64.06c.2,0,.3-.1.3-.34V7.26h.61Z"/><path class="cls-39" d="M247.74,14.43H237.35V13.9h1.41V8.83h2.8l.29-.85h-4.41V7.43h4.61l.23-.79h-4.36V4.49h9.2V6.64h-4.19l-.24.79h4.87V8h-5.07l-.27.85h4.09V13.9h1.43Zm-7-8.28V5h-2.25V6.15Zm4.92,3.92V9.33h-6.31v.74Zm0,1.24v-.74h-6.31v.74Zm0,1.31v-.83h-6.31v.83Zm0,1.28v-.78h-6.31v.78Zm-2-7.75V5H241.4V6.15Zm2.84,0V5h-2.22V6.15Z"/><path class="cls-39" d="M253.58,6.11h-4.26V5.5h2a6.56,6.56,0,0,0-.53-1.13l.58-.27A9.64,9.64,0,0,1,252,5.5h1.58Zm-.38,1.67h-3.45V7.19h3.45Zm0,1.72h-3.45V8.92h3.45Zm-.11,5h-.64V13.8h-1.94v.89h-.64V10.74h3.22Zm-.64-1.3V11.32h-1.94v1.87ZM258,7.36h-4.19v-.6H258Zm1.43,6.42a.79.79,0,0,1-.18.51.78.78,0,0,1-.4.31,5.47,5.47,0,0,1-1.19.07H257l-.22-.64q.53,0,1.26,0a1.89,1.89,0,0,0,.69-.08.35.35,0,0,0,.15-.32V5.12h-5V4.5h5.58Zm-1.86-1.23h-3.4V9h3.4Zm-.65-.63V9.61h-2.12v2.31Z"/><path class="cls-39" d="M185.42,10.64v3.44h-1V5h2.45a3.23,3.23,0,0,1,2.23.71,2.52,2.52,0,0,1,.8,2A2.72,2.72,0,0,1,189,9.86a3.25,3.25,0,0,1-2.33.78Zm0-4.71V9.71h1.13a2.53,2.53,0,0,0,1.71-.51,1.82,1.82,0,0,0,.59-1.45c0-1.21-.72-1.82-2.16-1.82Z"/><path class="cls-39" d="M192.63,14.08h-1V5h1Z"/><path class="cls-39" d="M196,10.64v3.44h-1V5h2.45a3.23,3.23,0,0,1,2.23.71,2.52,2.52,0,0,1,.8,2,2.69,2.69,0,0,1-.94,2.15,3.25,3.25,0,0,1-2.33.78Zm0-4.71V9.71h1.14a2.52,2.52,0,0,0,1.7-.51,1.79,1.79,0,0,0,.59-1.45c0-1.21-.72-1.82-2.15-1.82Z"/><path class="cls-39" d="M140.83,10.64v3.44h-1V5h2.45a3.23,3.23,0,0,1,2.23.71,2.52,2.52,0,0,1,.8,2,2.72,2.72,0,0,1-.94,2.15,3.25,3.25,0,0,1-2.33.78Zm0-4.71V9.71H142a2.53,2.53,0,0,0,1.71-.51,1.82,1.82,0,0,0,.59-1.45c0-1.21-.72-1.82-2.16-1.82Z"/><path class="cls-39" d="M148,14.08h-1V5h1Z"/><path class="cls-39" d="M151.45,10.64v3.44h-1V5h2.45a3.23,3.23,0,0,1,2.23.71,2.52,2.52,0,0,1,.8,2A2.69,2.69,0,0,1,155,9.86a3.25,3.25,0,0,1-2.33.78Zm0-4.71V9.71h1.14a2.52,2.52,0,0,0,1.7-.51,1.79,1.79,0,0,0,.59-1.45c0-1.21-.72-1.82-2.15-1.82Z"/><path class="cls-39" d="M79.06,10.64v3.44h-1V5h2.45a3.23,3.23,0,0,1,2.23.71,2.52,2.52,0,0,1,.8,2,2.69,2.69,0,0,1-.94,2.15,3.25,3.25,0,0,1-2.33.78Zm0-4.71V9.71h1.13A2.53,2.53,0,0,0,81.9,9.2a1.79,1.79,0,0,0,.59-1.45c0-1.21-.72-1.82-2.15-1.82Z"/><path class="cls-39" d="M86.27,14.08h-1V5h1Z"/><path class="cls-39" d="M89.68,10.64v3.44h-1V5h2.44a3.21,3.21,0,0,1,2.23.71,2.49,2.49,0,0,1,.8,2,2.69,2.69,0,0,1-.94,2.15,3.24,3.24,0,0,1-2.33.78Zm0-4.71V9.71h1.14a2.57,2.57,0,0,0,1.71-.51,1.81,1.81,0,0,0,.58-1.45c0-1.21-.71-1.82-2.15-1.82Z"/><path class="cls-39" d="M19.23,35.47H13.88l.36.41a13.44,13.44,0,0,1-3.66,1.82l-.43-.56a12.68,12.68,0,0,0,3.53-1.67h-2V29.91c-.44.31-.8.55-1.1.72l-.39-.56a13.58,13.58,0,0,0,3.74-2.92l.68.26-.53.58h4.08v.45a12,12,0,0,1-1,1.11h2.06Zm-2.07-6.9H13.44c-.43.37-.84.7-1.22,1h4C16.43,29.38,16.73,29.05,17.16,28.57Zm1.43,2.73V30.15H12.32V31.3Zm0,1.79V31.91H12.32v1.18Zm0,1.77V33.7H12.32v1.16Zm2.06,2.22-.28.58a20.55,20.55,0,0,0-3.76-1.34l.31-.59A18.88,18.88,0,0,1,20.65,37.08Z"/><path class="cls-39" d="M32.67,29.93H30a25.2,25.2,0,0,0,.37,4.66,13.69,13.69,0,0,0,1.22-3.74l.56.22a13.14,13.14,0,0,1-1.56,4.34,4,4,0,0,0,.47,1.2c.19.28.32.42.41.42s.26-.18.38-.54a6.35,6.35,0,0,0,.23-1.42l.57.32c-.16,1.53-.54,2.3-1.12,2.3s-1-.55-1.37-1.64a13.53,13.53,0,0,1-1.46,1.51l-.46-.4a9.17,9.17,0,0,0,1.69-1.83,26.22,26.22,0,0,1-.52-5.4H22.25v-.54H25.3V28.5H22.68V28H25.3v-.78h.6V28h2.77v.53H25.9v.89h3.48c0-.68,0-1.41,0-2.17H30c0,1,0,1.68,0,2.17h2.69Zm-4,1.55H25.9v.75h2.42v3.16H25.9v.7h2.4v.56H25.9v1h-.6v-1h-3v-.56h3v-.7H22.82V32.23H25.3v-.75H22.42v-.57H25.3v-.62h.6v.62h2.78ZM25.3,33.54v-.8H23.41v.8Zm0,1.31v-.79H23.41v.79Zm2.42-1.31v-.8H25.9v.8Zm0,1.31v-.79H25.9v.79Zm4.44-6.09-.51.32a8.88,8.88,0,0,0-.93-1.44l.51-.31A6.77,6.77,0,0,1,32.16,28.76Z"/><path class="cls-39" d="M44.67,33.82h-4.9v3.94h-.65V33.82H34.21v-.64h4.91v-5H34.51v-.63h9.88v.63H39.77v5h4.9Zm-7.25-1.76-.59.29a11.13,11.13,0,0,0-1.51-2.81l.52-.29A9.87,9.87,0,0,1,37.42,32.06Zm6.26-2.57A9.08,9.08,0,0,1,42,32.31l-.6-.32a9,9,0,0,0,1.71-2.74Z"/><path class="cls-39" d="M48.81,30.78a5.43,5.43,0,0,1-.7,1.23V37.7h-.56v-5a10.92,10.92,0,0,1-1.11,1.07l-.29-.55a8,8,0,0,0,2.16-2.77ZM49,27.41a8.31,8.31,0,0,1-2.46,2.93l-.27-.54a7.29,7.29,0,0,0,2.18-2.62Zm4.65,6.46H49.4V30l-.47.41-.4-.42a8.79,8.79,0,0,0,2.39-2.86l.55.23a5.54,5.54,0,0,1-.36.65H53v.58c-.23.4-.46.76-.69,1.1h1.27Zm.51,1.33h-2.6a3.09,3.09,0,0,1-.84,1.55,3.59,3.59,0,0,1-1.55,1l-.4-.48a3,3,0,0,0,2.18-2h-2.2v-.55H51a1.73,1.73,0,0,0,.07-.5h.57a1.47,1.47,0,0,1,0,.5h2.52Zm-1.78-6.61H50.71c-.37.45-.7.82-1,1.1h1.89A10.45,10.45,0,0,0,52.34,28.59Zm-1.13,2.89V30.26H50v1.22Zm0,1.84V32H50v1.31Zm2.43,3.43-.41.44a6,6,0,0,0-1.49-1l.45-.45A8,8,0,0,1,53.64,36.75ZM53,31.48V30.26H51.8v1.22Zm0,1.84V32H51.8v1.31Zm3.67-2.21h-.88v5.77a.67.67,0,0,1-.34.63,2.81,2.81,0,0,1-1.25.19L54,37.09c.28,0,.52,0,.7,0a.63.63,0,0,0,.43-.1.41.41,0,0,0,.11-.3v-5.6H54.1v-.59h2.59Zm-.28-2.89H54.19v-.58h2.22Z"/><path class="cls-39" d="M68.75,34.15l-.34.58-.73-.28V37.7h-.6V37H64.72v.66H64.1V34h2.67a9.22,9.22,0,0,1-2.62-1.85h-1.4A8.11,8.11,0,0,1,60.31,34h2.48V37.7h-.63V37H59.81v.66h-.64V34.5a3.8,3.8,0,0,1-.72.24l-.27-.55a9,9,0,0,0,3.77-2H58.27V31.6h4.19a8.21,8.21,0,0,0,.71-1.1l.56.16a3.76,3.76,0,0,1-.52.94h5.36v.57H65.05A9,9,0,0,0,68.75,34.15Zm-6.1-3.82H59.17V27.49h3.48Zm-.6-.58V28.06H59.79v1.69Zm.11,6.67V34.6H59.81v1.82Zm5.55-6.09H64.17V27.49h3.54Zm-.63,6.09V34.6H64.72v1.82Zm0-6.67V28.06H64.81v1.69ZM67,31l-.36.47a6,6,0,0,0-1-.47l.31-.49A5.19,5.19,0,0,1,67,31Z"/><path class="cls-39" d="M219.38,49.72h-1.25l-4.74-7.33a4.58,4.58,0,0,1-.28-.54h0a10.38,10.38,0,0,1,0,1.22v6.65h-1V40.65h1.32l4.61,7.25c.23.38.36.58.37.62h0a11.2,11.2,0,0,1-.06-1.36V40.65h1Z"/><path class="cls-39" d="M228.74,49.72h-1.1l-1-2.57h-3.89l-.92,2.57h-1.11l3.49-9.07h1Zm-2.43-3.49-1.45-3.92a4,4,0,0,1-.14-.59h0a3,3,0,0,1-.14.59l-1.44,3.92Z"/><path class="cls-39" d="M234.46,41.56h-2.62v8.16h-1V41.56h-2.61v-.91h6.23Z"/><path class="cls-39" d="M108.31,101.53h-5v4.16a1,1,0,0,1-.27.7,1,1,0,0,1-.74.28l-1.59,0-.25-.67c.93,0,1.57,0,1.91,0a.24.24,0,0,0,.2-.11.35.35,0,0,0,.09-.22v-4.15h-5v-.66h5V99.26a18.75,18.75,0,0,0,3.34-2.52H99v-.67h8v.67a24.83,24.83,0,0,1-3.62,2.88v1.25h5Z"/><path class="cls-39" d="M111.14,103.74a15.59,15.59,0,0,1-.69,3l-.61-.28a13,13,0,0,0,.72-2.8Zm3-.78-.59.2a5.28,5.28,0,0,0-.18-.71q-1.86.52-3.27.78l-.2-.69a13,13,0,0,0,2.33-2.82c-1.08.18-1.77.28-2.06.32l-.17-.62a12.49,12.49,0,0,0,2-3.62l.6.2a14.82,14.82,0,0,1-1.72,3.3,14.3,14.3,0,0,0,1.77-.26,13.56,13.56,0,0,0,.85-1.59l.59.24a18.4,18.4,0,0,1-3.19,4.74,18.26,18.26,0,0,0,2.3-.55,6.69,6.69,0,0,0-.33-.84l.55-.2A11.27,11.27,0,0,1,114.15,103Zm-1.46,3.23-.64.12a16.93,16.93,0,0,0-.34-2.59l.6-.1A16.52,16.52,0,0,1,112.69,106.19Zm1.44-.58-.59.21a12.05,12.05,0,0,0-.54-2.22l.59-.19A13.48,13.48,0,0,1,114.13,105.61Zm6.2.14a.87.87,0,0,1-.21.57.93.93,0,0,1-.49.31,7,7,0,0,1-1.12,0l-.27-.68.67,0a1.65,1.65,0,0,0,.67-.08.28.28,0,0,0,.12-.26V96.74H115v9.9h-.62V96.14h5.91Zm-1-5.91H115.4v-.61h1a9.38,9.38,0,0,0-.61-1.58l.58-.23a14.56,14.56,0,0,1,.69,1.81h.69a14.11,14.11,0,0,0,.82-1.84l.56.23a16.32,16.32,0,0,1-.68,1.61h.9Zm0,2.26h-2.62v1.84c0,.22.09.33.29.33h2.17v.58H117a.78.78,0,0,1-.86-.89V102.1h-.69v-.59h1.92a10.38,10.38,0,0,0-.47-1.14l.61-.21c.14.31.31.76.52,1.35h1.36Z"/><path class="cls-39" d="M126.51,105.17a43,43,0,0,1-4.24,1.41l-.17-.66a5.35,5.35,0,0,0,.65-.18v-5.07h.61v4.88a9.17,9.17,0,0,0,1-.3V99.74h-1.77V96.21h3.52v3.53H125v1.92h1.35v.63H125V105a15,15,0,0,0,1.5-.59Zm-1-6v-2.3h-2.24v2.3Zm7.41,2-.4.58a14.11,14.11,0,0,1-2.8-1.42,9.7,9.7,0,0,1-3,1.46l-.42-.6a10.2,10.2,0,0,0,2.89-1.25,6.74,6.74,0,0,1-1.38-1.68,9.55,9.55,0,0,1-1,.76l-.51-.49a6.31,6.31,0,0,0,2.63-2.79l.62.2a6.45,6.45,0,0,1-.49.94h3.11v.58a9.12,9.12,0,0,1-1.89,2.44A12,12,0,0,0,132.9,101.15Zm-.89,5.5h-.64v-.57H128v.57h-.65v-4.56H132Zm-.64-1.19v-2.74H128v2.74Zm0-8h-2.79a2.25,2.25,0,0,1-.15.19l-.13.16a4.47,4.47,0,0,0,1.44,1.69A6.83,6.83,0,0,0,131.35,97.45Z"/><path class="cls-39" d="M144.94,106h-1.13l-1-2.67h-4l-.94,2.67h-1.14l3.58-9.41h1Zm-2.49-3.62L141,98.34a5.73,5.73,0,0,1-.14-.62h0a2.54,2.54,0,0,1-.15.62l-1.47,4.06Z"/><path class="cls-39" d="M229.84,101.49H225v4a.91.91,0,0,1-.27.68,1,1,0,0,1-.72.26c-.48,0-1,0-1.56,0l-.24-.64,1.87,0a.26.26,0,0,0,.2-.1.4.4,0,0,0,.08-.22v-4h-4.93v-.64h4.93V99.29a18.1,18.1,0,0,0,3.27-2.42h-6.87v-.64h7.77v.64A23.78,23.78,0,0,1,225,99.64v1.21h4.83Z"/><path class="cls-39" d="M232.6,103.61a14.91,14.91,0,0,1-.67,2.84l-.6-.26a12.79,12.79,0,0,0,.71-2.69Zm2.94-.75-.57.19c-.05-.22-.11-.44-.18-.68-1.22.33-2.28.58-3.2.75l-.19-.66a13,13,0,0,0,2.28-2.72l-2,.31-.16-.6A12.2,12.2,0,0,0,233.43,96l.58.19a14.26,14.26,0,0,1-1.68,3.18,14.87,14.87,0,0,0,1.72-.25,12.75,12.75,0,0,0,.84-1.53l.57.23a17.46,17.46,0,0,1-3.11,4.55,17,17,0,0,0,2.24-.52,6.22,6.22,0,0,0-.32-.81l.54-.2A10.55,10.55,0,0,1,235.54,102.86Zm-1.43,3.1-.62.12a14.46,14.46,0,0,0-.33-2.49l.58-.09A14.11,14.11,0,0,1,234.11,106Zm1.41-.55-.58.2a11,11,0,0,0-.52-2.14l.57-.18A11.51,11.51,0,0,1,235.52,105.41Zm6,.13a.87.87,0,0,1-.2.55.89.89,0,0,1-.48.3,6.63,6.63,0,0,1-1.09,0l-.26-.65h.65a1.69,1.69,0,0,0,.66-.07.28.28,0,0,0,.11-.25V96.87h-4.55v9.53h-.61V96.29h5.77Zm-1-5.69h-3.85v-.58h1a7.74,7.74,0,0,0-.59-1.52l.57-.23a14.2,14.2,0,0,1,.67,1.75H239a12.37,12.37,0,0,0,.8-1.77l.56.22a16.63,16.63,0,0,1-.67,1.55h.88Zm0,2.18h-2.56v1.78c0,.2.09.31.28.31h2.12v.56h-2.17a.75.75,0,0,1-.84-.86V102h-.68v-.57h1.87a8,8,0,0,0-.45-1.09l.59-.21c.13.3.31.73.51,1.3h1.33Z"/><path class="cls-39" d="M247.6,105a40.77,40.77,0,0,1-4.13,1.36l-.17-.63.64-.18v-4.87h.6v4.69c.16,0,.5-.13,1-.29v-5.3H243.8v-3.4h3.44v3.4h-1.1v1.84h1.32v.62h-1.32v2.63a13.31,13.31,0,0,0,1.46-.57Zm-1-5.81V97h-2.18v2.21Zm7.23,1.94-.38.56a13.91,13.91,0,0,1-2.73-1.36,9.83,9.83,0,0,1-2.94,1.4l-.41-.58a10.43,10.43,0,0,0,2.82-1.19,6.56,6.56,0,0,1-1.35-1.63,7.82,7.82,0,0,1-1,.73l-.49-.47A6,6,0,0,0,250,95.89l.61.2a7.77,7.77,0,0,1-.48.9h3v.56a8.44,8.44,0,0,1-1.85,2.34A11.44,11.44,0,0,0,253.84,101.11Zm-.86,5.3h-.63v-.55H249v.55h-.63V102H253Zm-.63-1.14v-2.64H249v2.64Zm0-7.71h-2.72l-.14.18-.14.15a4.55,4.55,0,0,0,1.41,1.63A6.77,6.77,0,0,0,252.33,97.56Z"/><path class="cls-39" d="M258.64,105.8v-9h2.54a2.77,2.77,0,0,1,1.82.57,1.85,1.85,0,0,1,.69,1.5,2.21,2.21,0,0,1-1.56,2.16v0a2.19,2.19,0,0,1,1.46.68,2.13,2.13,0,0,1,.56,1.53,2.36,2.36,0,0,1-.83,1.87,3.08,3.08,0,0,1-2.1.72Zm1-8.12v3h1.1a2.06,2.06,0,0,0,1.4-.43,1.49,1.49,0,0,0,.51-1.2c0-.9-.59-1.34-1.76-1.34Zm0,3.89v3.31h1.47a2.18,2.18,0,0,0,1.46-.45,1.5,1.5,0,0,0,.53-1.23c0-1.09-.74-1.63-2.23-1.63Z"/><path class="cls-39" d="M68.78,216.3a8.66,8.66,0,0,1-.67,2.15l-.58-.19A7.62,7.62,0,0,0,68,216.9H63.49v1l3.07-.23,0,.59-3.1.21V219a.3.3,0,0,0,.11.24.37.37,0,0,0,.23.09H68v.58H63.65a.68.68,0,0,1-.77-.77v-.62l-2.07.15-.05-.61,2.12-.14v-1h-2.7v2.62A10.92,10.92,0,0,1,59.07,225l-.55-.34a8.06,8.06,0,0,0,.84-2.39,15.5,15.5,0,0,0,.21-2.74V216.3h3.66v-2h.62v.66h4.62v.59H63.85v.77Zm.22,8.3H60.32V224h3.07v-1.05h-2.1V221h.64v1.31h1.46v-1.84H64V224h1.21v-3.53h.62v1.84h1.47V221h.62v2H65.84V224H69Z"/><path class="cls-39" d="M73.48,217h-1V219l.77-.52,0,.67c-.43.31-.71.5-.82.57V224c0,.56-.35.84-1,.84-.16,0-.37,0-.62,0l-.19-.61,1,0c.17,0,.25-.1.25-.3v-3.86c-.32.19-.69.39-1.12.61l-.2-.57q.85-.45,1.32-.75V217H70.69v-.59h1.22v-2.17h.6v2.17h1Zm3.36,4.31H75.42a3.39,3.39,0,0,1-.11.52A10.74,10.74,0,0,1,76.4,223l-.41.4a11.37,11.37,0,0,0-.87-1,5.66,5.66,0,0,1-1.82,2.46l-.44-.41a4.87,4.87,0,0,0,2-3.21H73.32v-.55h1.56q0-.53.06-1.41h-.59a9.07,9.07,0,0,1-.7.94l-.5-.32a5.91,5.91,0,0,0,1.2-2.08l.51.19a3.58,3.58,0,0,1-.21.69h2v.58H75.53q0,.67-.06,1.41h1.37Zm.1-3.66H74.88a.81.81,0,0,1-.63-.25.88.88,0,0,1-.23-.62v-2.52h.59v.89h2.18v.58H74.61v1c0,.21.12.31.35.31h2ZM81.15,224l-.1.62-.63,0a3.07,3.07,0,0,1-3-1.45,7,7,0,0,1-1.2,1.72l-.46-.38a5.38,5.38,0,0,0,1.52-4.26h.6a12.4,12.4,0,0,1-.22,2.15,2,2,0,0,0,.93,1.17v-5H77.12V218h2.24a11.77,11.77,0,0,0-1.87-1.76l.41-.42c.43.35.76.62,1,.81a11.18,11.18,0,0,0,1.33-1.58H77.35v-.56h3.51v.56a10.5,10.5,0,0,1-1.6,2,6.6,6.6,0,0,1,.56.65l-.32.33H81a8.76,8.76,0,0,1-.52,2.09l-.5-.27a7.25,7.25,0,0,0,.33-1.27H79.24v2.21h1.44v.58H79.24v2.49A5.14,5.14,0,0,0,81.15,224Z"/><path class="cls-39" d="M59.78,235.21a15,15,0,0,1-.67,2.9l-.6-.27a13.27,13.27,0,0,0,.71-2.75Zm3-.77-.58.2a5.57,5.57,0,0,0-.18-.7c-1.22.35-2.29.6-3.21.77l-.19-.68a12.81,12.81,0,0,0,2.29-2.77c-1.06.18-1.74.29-2,.32l-.16-.61a12.38,12.38,0,0,0,1.93-3.55l.59.2a14.71,14.71,0,0,1-1.69,3.24,13.48,13.48,0,0,0,1.73-.26,13.11,13.11,0,0,0,.84-1.56l.57.24a17.9,17.9,0,0,1-3.12,4.64,17,17,0,0,0,2.25-.53,5.32,5.32,0,0,0-.32-.83l.54-.2A10.86,10.86,0,0,1,62.74,234.44Zm-1.44,3.17-.62.12a17.54,17.54,0,0,0-.33-2.54l.58-.1A15.89,15.89,0,0,1,61.3,237.61Zm1.41-.57-.57.21a11.43,11.43,0,0,0-.53-2.18l.57-.18A11,11,0,0,1,62.71,237Zm6.08.14a.81.81,0,0,1-.2.55.85.85,0,0,1-.48.31,5.72,5.72,0,0,1-1.1,0l-.26-.66h.66a1.6,1.6,0,0,0,.65-.07.28.28,0,0,0,.12-.26v-8.73H63.61v9.7H63v-10.3h5.79Zm-1-5.8H64v-.59h1a9.49,9.49,0,0,0-.59-1.55l.57-.23a15.82,15.82,0,0,1,.67,1.78h.67a12.46,12.46,0,0,0,.81-1.81l.55.22a14.86,14.86,0,0,1-.67,1.59h.89Zm0,2.22H65.25v1.81c0,.21.1.31.29.31h2.13v.58H65.48c-.56,0-.84-.3-.84-.88V233.6H64V233h1.87a8.31,8.31,0,0,0-.46-1.11l.6-.21c.13.3.31.74.51,1.32h1.34Z"/><path class="cls-39" d="M74.89,236.61A40.55,40.55,0,0,1,70.73,238l-.17-.64c.29-.07.5-.13.65-.18v-5h.6V237c.16,0,.5-.13,1-.29v-5.4H71.07v-3.47h3.45v3.47h-1.1v1.87h1.33v.63H73.42v2.68q.72-.24,1.47-.57Zm-1-5.92v-2.25H71.7v2.25Zm7.26,2-.38.58A14.73,14.73,0,0,1,78,231.85a10,10,0,0,1-3,1.43l-.41-.59a10.33,10.33,0,0,0,2.83-1.22,6.72,6.72,0,0,1-1.35-1.66,7.36,7.36,0,0,1-1,.75l-.49-.48a6.14,6.14,0,0,0,2.57-2.73l.61.19a5.36,5.36,0,0,1-.48.92h3V229a8.77,8.77,0,0,1-1.86,2.39A11.76,11.76,0,0,0,81.15,232.66Zm-.86,5.4h-.63v-.55H76.33v.55H75.7v-4.47h4.59Zm-.63-1.16v-2.69H76.33v2.69Zm0-7.86H76.9a1.67,1.67,0,0,1-.14.19l-.14.15A4.49,4.49,0,0,0,78,231,6.69,6.69,0,0,0,79.63,229Z"/><path class="cls-39" d="M184.09,225.72l-.18.67h-4.84a5.57,5.57,0,0,1-4.69-2,7.94,7.94,0,0,1-.85,2.13l-.47-.48a13.22,13.22,0,0,0,1.22-5l.63.12a19.34,19.34,0,0,1-.33,2.36,3.57,3.57,0,0,0,1.35,1.52v-4.86h-2.76v-.61h2.76v-1.73h-2.48v-.65h2.48v-1.54h.64v1.54h1.82v.65h-1.82v1.73h2.13v.61h-2.13v1.61h1.88v.61h-1.88v3a5,5,0,0,0,2,.38c.85,0,1.89,0,3.1,0S183.64,225.75,184.09,225.72ZM184,222a5.28,5.28,0,0,1-.12,1.49,1,1,0,0,1-.58.73,5.62,5.62,0,0,1-1.78.18,5.27,5.27,0,0,1-1.79-.18c-.25-.13-.37-.45-.37-1v-7h4.13v4H180v3.19c0,.15.11.24.32.26a11.48,11.48,0,0,0,1.26,0,3.4,3.4,0,0,0,1.45-.14,1,1,0,0,0,.21-.29,7.93,7.93,0,0,0,.14-1.55Zm-1.16-2.35v-2.75H180v2.75Z"/><path class="cls-39" d="M187.86,222.45a31,31,0,0,1-1.73,4l-.5-.52a30.2,30.2,0,0,0,1.64-3.83Zm.2-2.06-.43.5a21.56,21.56,0,0,0-2-1.44l.47-.48A15.87,15.87,0,0,1,188.06,220.39Zm.23-3-.49.48a13.7,13.7,0,0,0-2-1.54l.5-.49A19,19,0,0,1,188.29,217.41Zm8.3-.78h-2.93a12,12,0,0,1-.38,1.32H196v4.32h-2.42v3.39a1,1,0,0,1-.24.64c-.16.2-.53.29-1.11.29l-.64,0-.19-.65a6.67,6.67,0,0,0,.86.06,1.13,1.13,0,0,0,.54-.08.23.23,0,0,0,.1-.19v-3.43h-2.32V218h2a13.12,13.12,0,0,0,.37-1.32h-3.37v4.06a10.79,10.79,0,0,1-1.61,5.89l-.54-.47a7.12,7.12,0,0,0,1.07-2.33,16.45,16.45,0,0,0,.42-4.28V216h7.68ZM192,223.49a15.08,15.08,0,0,1-2.11,2.41l-.45-.48a14.64,14.64,0,0,0,2.06-2.42Zm3.37-3.72v-1.21h-4.07v1.21Zm0,1.91v-1.29h-4.07v1.29Zm1.32,3.75-.48.49a15.46,15.46,0,0,0-1.76-2.42l.5-.45A19.7,19.7,0,0,1,196.66,225.43Z"/><path class="cls-39" d="M202.61,226.33H202v-1.07h-2.7v1.32h-.63v-8.86h1.16a12,12,0,0,0,.89-2.15l.62.13c-.15.44-.43,1.11-.85,2h2.14ZM202,221v-2.68h-2.7V221Zm0,3.59v-3h-2.7v3Zm6.89-6.89q-.08,2.81-.27,5.22a13.2,13.2,0,0,1-.4,2.84,1.33,1.33,0,0,1-.52.61,2.65,2.65,0,0,1-1.19.18l-1,0-.2-.64c.34,0,.71,0,1.11,0h.71a.57.57,0,0,0,.32-.16.73.73,0,0,0,.25-.33,9.91,9.91,0,0,0,.19-1.44c.09-.83.15-1.74.21-2.74s.09-2,.11-2.91h-3.26a16.82,16.82,0,0,1-1.51,2.47l-.51-.36a13.54,13.54,0,0,0,2.32-4.8l.64.16c-.21.67-.44,1.31-.69,1.91Zm-2.3,5.61-.53.37a12.81,12.81,0,0,0-1.81-2.91l.54-.35A12,12,0,0,1,206.57,223.34Z"/><path class="cls-39" d="M213.29,222.57a22.22,22.22,0,0,1-1.92,4.07l-.55-.45a19.52,19.52,0,0,0,1.86-4Zm0-1.9-.45.49a11.48,11.48,0,0,0-2-1.65l.41-.51A13.65,13.65,0,0,1,213.25,220.67Zm.23-3.35-.43.53a12.54,12.54,0,0,0-1.85-1.73l.43-.51A15,15,0,0,1,213.48,217.32Zm1.92,4a11.16,11.16,0,0,1-.37,3.31,4.08,4.08,0,0,1-1.6,2l-.51-.48a3.77,3.77,0,0,0,1.28-1.34,7,7,0,0,0,.53-3.44Zm6.38-.51-.55.43a9.38,9.38,0,0,0-.75-1q-3.69.44-6.4.63l-.16-.65a6.8,6.8,0,0,0,2.53-2.62h-2.62v-.66h3c.16-.3.35-.74.59-1.33l.67.17c-.07.21-.25.6-.51,1.16h4v.66h-4.34a8.49,8.49,0,0,1-2.09,2.54c1.6-.11,3.21-.25,4.83-.44a9.44,9.44,0,0,0-1.11-1.08l.51-.44A15.11,15.11,0,0,1,221.78,220.82Zm-4.27,5.77h-.65v-5.26h.65Zm4.22-.14h-1.66c-.62,0-.94-.3-.94-.89v-4.23h.64v4.14c0,.23.12.34.38.34h1.58Z"/><path class="cls-39" d="M234.31,226.28H223.48v-.5h5.09V225h-4.34v-.49h4.34v-.8h-4v-2.9h8.62v2.9h-4v.8h4.35V225h-4.35v.82h5.09Zm-.1-6.23H223.62v-.5h10.59Zm-1-1.21h-8.64V216h8.64ZM228.57,222v-.72h-3.35V222Zm0,1.19v-.72h-3.35v.72Zm4-6v-.71h-7.35v.71Zm0,1.18v-.71h-7.35v.71Zm0,3.64v-.72h-3.36V222Zm0,1.19v-.72h-3.36v.72Z"/><path class="cls-39" d="M246.91,218.36H240.1c0,.66,0,1.38-.06,2.17h5.34a27.36,27.36,0,0,1-.22,3.4,8.4,8.4,0,0,1-.4,2,1.15,1.15,0,0,1-.55.56,4.25,4.25,0,0,1-1.57.18l-.81,0-.2-.7c.4,0,.78,0,1.17,0a3.18,3.18,0,0,0,1.09-.1.81.81,0,0,0,.3-.33,9.41,9.41,0,0,0,.29-1.62,25.3,25.3,0,0,0,.21-2.71H240a6.91,6.91,0,0,1-3.51,5.38l-.54-.52a7.74,7.74,0,0,0,2.06-1.72,5.2,5.2,0,0,0,1.17-2.3,19.27,19.27,0,0,0,.26-3.67h-3.3v-.68h5.23a9.54,9.54,0,0,0-1.21-1.79l.64-.29a9.1,9.1,0,0,1,1.32,2.08h4.82Z"/><path class="cls-39" d="M258.93,225.58a.9.9,0,0,1-1,1h-1.74l-.24-.64H258a.28.28,0,0,0,.2-.1.26.26,0,0,0,.09-.19V218h-8.41v8.66h-.65v-9.31h2.43a8.46,8.46,0,0,0,1-1.72l.66.14a8.6,8.6,0,0,1-1,1.58h6.52Zm-2.53-1.38h-4.68v-4.45h4.68Zm-.66-.64V220.4h-3.36v3.16Z"/><path class="cls-39" d="M175.21,241.3a8.46,8.46,0,0,1-2-5.76,8.76,8.76,0,0,1,2-5.85h.93a8.93,8.93,0,0,0-2.08,5.84,8.7,8.7,0,0,0,2.07,5.77Z"/><path class="cls-39" d="M178.44,229.69l-.21,2.95h-.72l-.19-2.95Zm2.15,0-.19,2.95h-.72l-.2-2.95Z"/><path class="cls-39" d="M193.38,235.9h-2.9a8.06,8.06,0,0,1-1.44,1.87,32.7,32.7,0,0,1,4.14,1.49l-.37.57a26.84,26.84,0,0,0-4.36-1.57,12,12,0,0,1-5.52,1.53l-.35-.65a13,13,0,0,0,5-1.14c-1.17-.29-2.3-.53-3.39-.74.51-.44,1-.9,1.46-1.36H182.5v-.6h3.73a10.66,10.66,0,0,0,1-1.11l.68.2c-.13.18-.38.49-.74.91H190a5.87,5.87,0,0,0,.33-.67l.66.06a4.91,4.91,0,0,1-.25.61h2.6Zm-.11-6.09h-3.55v1.24h2.86V234h-9.22v-2.92h2.86v-1.24h-3.54v-.63h10.59Zm-7.05,3.54v-1.69H184v1.69Zm3.49,2.55h-3.13c-.33.35-.67.68-1,1,.88.19,1.8.41,2.75.66A6.75,6.75,0,0,0,189.71,235.9Zm-.66-4.85v-1.24h-2.18v1.24Zm0,2.3v-1.69h-2.18v1.69Zm2.88,0v-1.69h-2.21v1.69Z"/><path class="cls-39" d="M199.43,235.72a21.26,21.26,0,0,1-4,3.09l-.38-.56a20.69,20.69,0,0,0,4-3.11Zm6.5,2.51-.39.57a9,9,0,0,1-4.64-3.89v3.9a.78.78,0,0,1-.37.74,3.44,3.44,0,0,1-1.42.2c-.22,0-.45,0-.68,0l-.29-.67c.35,0,.93,0,1.73,0a.3.3,0,0,0,.25-.13.37.37,0,0,0,.11-.24V231.6h-5.08V231h5.08v-2.09h.67V231h5v.65h-5v1.82a6.25,6.25,0,0,0,.67,1.31,13.83,13.83,0,0,0,3-2.31l.52.45a15.17,15.17,0,0,1-3.2,2.4A8.71,8.71,0,0,0,205.93,238.23Zm-7.46-3.78-.47.5a11,11,0,0,0-2.22-2l.45-.49A12.62,12.62,0,0,1,198.47,234.45Zm6.05-4.31-.45.51a9.15,9.15,0,0,0-1.68-1.24l.4-.5A10.79,10.79,0,0,1,204.52,230.14Z"/><path class="cls-39" d="M208.9,229.69l-.2,2.95H208l-.2-2.95Zm2.15,0-.19,2.95h-.72l-.2-2.95Z"/><path class="cls-39" d="M212.27,241.3a8.72,8.72,0,0,0,2.06-5.77,8.84,8.84,0,0,0-2.08-5.84h.94a8.77,8.77,0,0,1,2.05,5.85,8.46,8.46,0,0,1-2.05,5.76Z"/><path class="cls-39" d="M175.44,256.64q-.13.56-.39,1.41l-.26.78v8.63h-.66v-6.87a18,18,0,0,1-1,1.78l-.35-.67a19,19,0,0,0,2-5.25Zm8.37,8.52H182v1.27a1.11,1.11,0,0,1-.25.74c-.16.2-.54.29-1.14.29a4.78,4.78,0,0,1-.71,0l-.35-.61a9.29,9.29,0,0,0,1,.06,2,2,0,0,0,.66-.07.21.21,0,0,0,.12-.2v-1.44h-6v-.56h6v-.74H182v.74h1.81Zm0-1.44-.44.41a6.44,6.44,0,0,0-.5-.63l-7.31.39-.1-.56,3.62-.19v-.86h-3v-3.46h3V258h-3.49v-.57h3.49v-.94h.66v.94h3.71V258h-3.71v.86h3.13v3.46h-.44A9.83,9.83,0,0,1,183.85,263.72Zm-4.67,2.83-.47.49a16.2,16.2,0,0,0-2.2-1.21l.45-.48A16,16,0,0,1,179.18,266.55Zm-.06-6.29v-.89h-2.35v.89Zm0,1.45v-.91h-2.35v.91Zm3.14-1.45v-.89h-2.48v.89Zm0,1.45v-.91h-2.48v.91Zm.08,1.25a4,4,0,0,0-.56-.5l.23-.18h-2.23v.81C180.61,263,181.46,263,182.34,263Z"/><path class="cls-39" d="M195.81,267.45h-.7v-1.08H186.7v1.08H186V256.77h9.79Zm-.7-1.75v-8.26H186.7v8.26Zm-1.85-1.94h-4.75v-4.49h4.75Zm-.66-.66v-3.17h-3.43v3.17Z"/><path class="cls-39" d="M202.39,267.2h-.63v-1.08h-2.7v1.33h-.63v-8.87h1.16a11.65,11.65,0,0,0,.89-2.15l.62.13c-.15.44-.43,1.12-.85,2h2.14Zm-.63-5.3v-2.69h-2.7v2.69Zm0,3.59v-3h-2.7v3Zm6.89-6.89c-.05,1.87-.14,3.61-.27,5.21a13.07,13.07,0,0,1-.4,2.84,1.28,1.28,0,0,1-.52.61,2.65,2.65,0,0,1-1.19.18l-1,0-.2-.63h1.82a.62.62,0,0,0,.32-.15.81.81,0,0,0,.25-.34,9.91,9.91,0,0,0,.19-1.44c.09-.83.15-1.74.21-2.74s.09-2,.11-2.91H204.7a16.82,16.82,0,0,1-1.51,2.47l-.51-.36a13.38,13.38,0,0,0,2.32-4.8l.64.16q-.31,1-.69,1.92Zm-2.3,5.6-.52.37a13.24,13.24,0,0,0-1.82-2.91l.54-.35A12.41,12.41,0,0,1,206.35,264.2Z"/><path class="cls-39" d="M213.07,263.44a22.14,22.14,0,0,1-1.92,4.06l-.55-.45a19.68,19.68,0,0,0,1.86-4Zm0-1.9-.46.49a11.09,11.09,0,0,0-2-1.66l.41-.51A13.69,13.69,0,0,1,213,261.54Zm.22-3.35-.43.52A12.59,12.59,0,0,0,211,257l.43-.51A15.88,15.88,0,0,1,213.26,258.19Zm1.92,4a11.13,11.13,0,0,1-.37,3.3,4.1,4.1,0,0,1-1.6,2l-.51-.48a3.8,3.8,0,0,0,1.28-1.35,6.92,6.92,0,0,0,.53-3.43Zm6.38-.52-.55.43a9.33,9.33,0,0,0-.75-1q-3.69.42-6.39.62l-.17-.65a6.73,6.73,0,0,0,2.53-2.62h-2.61v-.65h3c.16-.31.35-.75.59-1.34l.67.18c-.07.2-.24.59-.51,1.16h4v.65H217a8.36,8.36,0,0,1-2.09,2.54c1.6-.1,3.21-.25,4.83-.44a9.44,9.44,0,0,0-1.11-1.08l.51-.43A14.71,14.71,0,0,1,221.56,261.68Zm-4.27,5.78h-.65V262.2h.65Zm4.22-.15h-1.66c-.62,0-.94-.29-.94-.88V262.2h.64v4.13c0,.23.12.34.38.34h1.58Z"/><path class="cls-39" d="M234.09,267.15H223.26v-.5h5.09v-.83H224v-.49h4.34v-.8h-4v-2.89H233v2.89h-4v.8h4.35v.49H229v.83h5.09Zm-.1-6.24H223.4v-.5H234Zm-1-1.21h-8.64v-2.87H233Zm-4.68,3.15v-.71H225v.71Zm0,1.2v-.72H225v.72Zm4-6v-.7H225v.7Zm0,1.18v-.71H225v.71Zm0,3.64v-.71H229v.71Zm0,1.2v-.72H229v.72Z"/><path class="cls-39" d="M246.69,259.22h-6.81c0,.66,0,1.38-.06,2.18h5.34a27.2,27.2,0,0,1-.22,3.39,8.27,8.27,0,0,1-.4,2,1.22,1.22,0,0,1-.55.57,4.57,4.57,0,0,1-1.57.17h-.81l-.19-.71c.39,0,.77,0,1.16,0a3.18,3.18,0,0,0,1.09-.1.7.7,0,0,0,.3-.33,9.2,9.2,0,0,0,.29-1.61,25.49,25.49,0,0,0,.21-2.72h-4.72a6.89,6.89,0,0,1-3.51,5.38l-.54-.52a7.74,7.74,0,0,0,2.06-1.72,5.17,5.17,0,0,0,1.17-2.29,19.46,19.46,0,0,0,.26-3.68h-3.3v-.67h5.23a9.22,9.22,0,0,0-1.21-1.79l.64-.3a9.19,9.19,0,0,1,1.32,2.09h4.82Z"/><path class="cls-39" d="M258.71,266.44a.9.9,0,0,1-1,1h-1.74l-.24-.65h2.07a.31.31,0,0,0,.29-.29v-7.69h-8.41v8.66H249v-9.3h2.43a8.79,8.79,0,0,0,1-1.73l.66.14a9,9,0,0,1-.95,1.59h6.52Zm-2.53-1.38H251.5v-4.45h4.68Zm-.66-.64v-3.16h-3.35v3.16Z"/><path class="cls-39" d="M175,282.16a8.44,8.44,0,0,1-2-5.76,8.72,8.72,0,0,1,2-5.84h.93a8.88,8.88,0,0,0-2.08,5.83,8.68,8.68,0,0,0,2.07,5.77Z"/><path class="cls-39" d="M178.22,270.56l-.21,2.95h-.72l-.19-2.95Zm2.15,0-.19,2.95h-.72l-.2-2.95Z"/><path class="cls-39" d="M192.61,280.65h-.7v-1.08H183.5v1.08h-.68V270h9.79Zm-.7-1.75v-8.26H183.5v8.26ZM190.06,277h-4.75v-4.49h4.75Zm-.66-.66v-3.17H186v3.17Z"/><path class="cls-39" d="M197.92,276.12a6.93,6.93,0,0,1-1,1v3.48h-.62v-3c-.25.19-.59.44-1,.73l-.45-.47a9.89,9.89,0,0,0,2.64-2.17Zm0-2.17a9.15,9.15,0,0,1-2.67,1.84l-.38-.5a9.45,9.45,0,0,0,2.56-1.67Zm7.79,6.12-.25.54a17.41,17.41,0,0,1-3.58-.68,21.8,21.8,0,0,1-3.8.76l-.3-.54a20.18,20.18,0,0,0,3.25-.54c-.49-.22-1-.48-1.6-.8a10.12,10.12,0,0,1-1.3.5l-.36-.49a9.34,9.34,0,0,0,1.14-.4,2.92,2.92,0,0,1-.56-.51l.41-.31a4.78,4.78,0,0,0,.72.59,9.1,9.1,0,0,0,1.17-.74h-1.49V275c-.23.17-.54.38-.94.64l-.48-.48a5.85,5.85,0,0,0,2.17-2H195.7v-1.87h2.89v-.78H195V270h10.49v.55H202v.78h2.89v1.87H200.6a3.09,3.09,0,0,1-.33.67h5.26v.56H199.8c-.32.32-.52.5-.59.56h5.65v2.46h-3.31l-.59.5h3.75v.51a9.41,9.41,0,0,1-2,1.15A18.22,18.22,0,0,0,205.69,280.07Zm-7.1-7.39v-.83h-2.24v.83Zm2.79-1.35v-.78h-2.17v.78Zm0,1.35v-.83h-2.17v.83Zm2.84,3.28v-.48h-4.44V276Zm0,1v-.46h-4.44v.46Zm-.52,1.54h-3.53l-.15.07a11.06,11.06,0,0,0,1.85.85A11.18,11.18,0,0,0,203.7,278.46Zm.53-5.78v-.83H202v.83Z"/><path class="cls-39" d="M208.68,270.56l-.2,2.95h-.72l-.2-2.95Zm2.15,0-.19,2.95h-.72l-.2-2.95Z"/><path class="cls-39" d="M212.05,282.16a8.7,8.7,0,0,0,2.06-5.77,8.81,8.81,0,0,0-2.08-5.83H213A8.73,8.73,0,0,1,215,276.4a8.46,8.46,0,0,1-2.05,5.76Z"/><path class="cls-39" d="M107.1,125.83h-4.77v-9.41h1v8.46h3.75Z"/><path class="cls-39" d="M108.5,125.83v-9.41h2.6A2.82,2.82,0,0,1,113,117a1.93,1.93,0,0,1,.71,1.56,2.3,2.3,0,0,1-.42,1.38,2.27,2.27,0,0,1-1.18.86v0a2.31,2.31,0,0,1,1.5.71,2.25,2.25,0,0,1,.57,1.59,2.5,2.5,0,0,1-.85,2,3.13,3.13,0,0,1-2.15.75Zm1-8.45v3.09h1.13a2.14,2.14,0,0,0,1.44-.45,1.55,1.55,0,0,0,.51-1.24c0-.93-.6-1.4-1.8-1.4Zm0,4v3.45H111a2.26,2.26,0,0,0,1.51-.47,1.6,1.6,0,0,0,.54-1.28c0-1.13-.76-1.7-2.29-1.7Z"/><path class="cls-39" d="M122.82,124.55a16,16,0,0,1-3.79,1.6l-.44-.56a13.94,13.94,0,0,0,3.71-1.51Zm6.47-1h-5v2.89h-.61v-2.89h-5v-.61h5v-.55h.61v.55h5Zm-.39-1.64h-8.74v-3.42a10.61,10.61,0,0,1-1.09,1.14l-.39-.51a11,11,0,0,0,2.52-3.62l.6.21c-.11.25-.28.59-.52,1h3a4.93,4.93,0,0,0-.39-1l.57-.26a8.81,8.81,0,0,1,.48,1.26h3.79v.58h-4v.91h3.59v.58h-3.59v.94h3.59v.57h-3.59v1h4.16Zm-4.79-3.67v-.91h-3.18a.51.51,0,0,1-.14.21v.7Zm0,1.52v-.94h-3.32v.94Zm0,1.53v-1h-3.32v1Zm5.17,4.44-.4.52a16.7,16.7,0,0,0-3.68-1.71l.39-.49A20,20,0,0,1,129.28,125.72Z"/><path class="cls-39" d="M141.56,126.17H133a1.3,1.3,0,0,1-.92-.35,1.27,1.27,0,0,1-.37-1V116.5h-.76v-.63h10.41v.63h-9v8.38a.63.63,0,0,0,.22.46.67.67,0,0,0,.43.2h8.59Zm-5.13-1.78h-3.22v-3.12h3.22Zm-.65-.6V121.9h-1.92v1.89Zm3.53-3.59h-5v-2.69h5Zm-.63-.62v-1.45H135v1.45Zm2,4.83h-3.18v-3.13h3.18Zm-.62-.61v-1.89H138.2v1.89Z"/></g></svg>