<svg xmlns="http://www.w3.org/2000/svg" xmlns:xlink="http://www.w3.org/1999/xlink" viewBox="0 0 221 285.86"><defs><style>.cls-1{fill:#fff;}.cls-2,.cls-3{fill:#3c3c41;}.cls-3{opacity:0.2;}.cls-25,.cls-29,.cls-3{isolation:isolate;}.cls-4{fill:#ccc;fill-opacity:0.3;}.cls-5{fill:url(#Degradado_sin_nombre);}.cls-6{fill:#50e6ff;}.cls-7{fill:#c3f1ff;}.cls-8{fill:#9cebff;}.cls-9{fill:url(#Degradado_sin_nombre_2);}.cls-10{fill:url(#Degradado_sin_nombre_3);}.cls-11{fill:url(#Degradado_sin_nombre_4);}.cls-12{fill:#005ba1;}.cls-13{fill:#0078d4;}.cls-14{fill:url(#Degradado_sin_nombre_5);}.cls-15{fill:url(#Degradado_sin_nombre_6);}.cls-16{fill:url(#Degradado_sin_nombre_7);}.cls-17{fill:url(#Degradado_sin_nombre_8);}.cls-18,.cls-19,.cls-20,.cls-26,.cls-28{fill:none;stroke-miterlimit:10;}.cls-18,.cls-19,.cls-20{stroke:#3c3c41;}.cls-19,.cls-28{stroke-dasharray:1.46 2.43;}.cls-20{stroke-dasharray:1.31 2.19;}.cls-21{fill:url(#Degradado_sin_nombre_9);}.cls-22{fill:url(#Degradado_sin_nombre_10);}.cls-23{fill:url(#Degradado_sin_nombre_11);}.cls-24{fill:#1490df;}.cls-25{fill:#83b9f9;}.cls-25,.cls-29{opacity:0.4;}.cls-26,.cls-28{stroke:#003067;}.cls-27{fill:#003067;}.cls-29,.cls-30{fill:#6ebcdb;}.cls-31{fill:#5db4d7;}.cls-32{fill:#e6e6e6;}.cls-33{fill:#86d633;}.cls-34{fill:#1e1e1e;}.cls-35{fill:#767676;}</style><linearGradient id="Degradado_sin_nombre" x1="37.07" y1="418.22" x2="37.07" y2="399.46" gradientTransform="translate(0 -276.6)" gradientUnits="userSpaceOnUse"><stop offset="0" stop-color="#0078d4"/><stop offset="0.82" stop-color="#5ea0ef"/></linearGradient><linearGradient id="Degradado_sin_nombre_2" x1="37.05" y1="425.46" x2="37.05" y2="418.22" gradientTransform="translate(0 -276.6)" gradientUnits="userSpaceOnUse"><stop offset="0.15" stop-color="#ccc"/><stop offset="1" stop-color="#707070"/></linearGradient><linearGradient id="Degradado_sin_nombre_3" x1="77.43" y1="418.22" x2="77.43" y2="399.46" xlink:href="#Degradado_sin_nombre"/><linearGradient id="Degradado_sin_nombre_4" x1="77.43" y1="425.46" x2="77.43" y2="418.22" xlink:href="#Degradado_sin_nombre_2"/><linearGradient id="Degradado_sin_nombre_5" x1="188.87" y1="421.46" x2="188.87" y2="411.12" xlink:href="#Degradado_sin_nombre"/><linearGradient id="Degradado_sin_nombre_6" x1="188.94" y1="425.46" x2="188.94" y2="421.46" xlink:href="#Degradado_sin_nombre_2"/><linearGradient id="Degradado_sin_nombre_7" x1="141.17" y1="418.22" x2="141.17" y2="399.46" xlink:href="#Degradado_sin_nombre"/><linearGradient id="Degradado_sin_nombre_8" x1="141.17" y1="425.46" x2="141.17" y2="418.22" xlink:href="#Degradado_sin_nombre_2"/><linearGradient id="Degradado_sin_nombre_9" x1="23.52" y1="477.64" x2="25.89" y2="480.01" gradientTransform="translate(2.88 -278.01)" gradientUnits="userSpaceOnUse"><stop offset="0" stop-color="#86d633"/><stop offset="0.24" stop-color="#83d232"/><stop offset="0.5" stop-color="#7cc52f"/><stop offset="0.76" stop-color="#6fb02a"/><stop offset="1" stop-color="#5e9624"/></linearGradient><linearGradient id="Degradado_sin_nombre_10" x1="18.18" y1="477.64" x2="20.53" y2="480.01" xlink:href="#Degradado_sin_nombre_9"/><linearGradient id="Degradado_sin_nombre_11" x1="12.83" y1="477.64" x2="15.19" y2="480.01" xlink:href="#Degradado_sin_nombre_9"/></defs><title>OJ104903192</title><g id="Target"><g id="Shapes"><rect class="cls-1" width="221" height="285.86"/><path class="cls-2" d="M214.34,201.17h-1v-1h1Zm-3,0h-1v-1h1Zm-3,0h-1v-1h1Zm-3,0h-1v-1h1Zm-3,0h-1v-1h1Zm-3,0h-1v-1h1Zm-3,0h-1v-1h1Zm-3,0h-1v-1h1Zm-3,0h-1v-1h1Zm-3,0h-1v-1h1Zm-3,0h-1v-1h1Zm-3,0h-1v-1h1Zm-3,0h-1v-1h1Zm-3,0h-1v-1h1Zm-3,0h-1v-1h1Zm-3,0h-1v-1h1Zm-3,0h-1v-1h1Zm-3,0h-1v-1h1Zm-3,0h-1v-1h1Zm-3,0h-1v-1h1Zm-3,0h-1v-1h1Zm-3,0h-1v-1h1Zm-3,0h-1v-1h1Zm-3,0h-1v-1h1Zm-3,0h-1v-1h1Zm-3,0h-1v-1h1Zm-3,0h-1v-1h1Zm-3,0h-1v-1h1Zm-3,0h-1v-1h1Zm-3,0h-1v-1h1Zm-3,0h-1v-1h1Zm-3,0h-1v-1h1Zm-3,0h-1v-1h1Zm-3,0h-1v-1h1Zm-3,0h-1v-1h1Zm-3,0h-1v-1h1Zm-3,0h-1v-1h1Zm-3,0h-1v-1h1Zm-3,0h-1v-1h1Zm-3,0h-1v-1h1Zm-3,0h-1v-1h1Zm-3,0h-1v-1h1Zm-3,0h-1v-1h1Zm-3,0h-1v-1h1Zm-3,0h-1v-1h1Zm-3,0h-1v-1h1Zm-3,0h-1v-1h1Zm-3,0h-1v-1h1Zm-3,0h-1v-1h1Zm-3,0h-1v-1h1Zm-3,0h-1v-1h1Zm-3,0h-1v-1h1Zm-3,0h-1v-1h1Zm-3,0H54v-1h1Zm-3,0H51v-1h1Zm-3,0H48v-1h1Zm-3,0H45v-1h1Zm-3,0H42v-1h1Zm-3,0H39v-1h1Zm-3,0H36v-1h1Zm-30,0H6v-1H7Zm209.46-.08-.17-1a4.29,4.29,0,0,0,.87-.23l.36.93a5.86,5.86,0,0,1-1.44.3Zm-213-.19a5.91,5.91,0,0,1-1-.43l.49-.88a4,4,0,0,0,.82.36Zm215.5-1.29-.69-.71a4.82,4.82,0,0,0,.58-.69l.82.57A5.65,5.65,0,0,1,219.32,199.61ZM1.16,199a5.71,5.71,0,0,1-.59-.94l.9-.44a3.75,3.75,0,0,0,.48.76Zm219.73-2.28-1-.2a4.41,4.41,0,0,0,.09-.89l1-.06v.06a5.33,5.33,0,0,1-.09,1.13ZM0,196v-1H1v1Zm221-2.38h-1v-1h1ZM1,193H0v-1H1Zm220-2.35h-1v-1h1ZM1,190H0v-1H1Zm220-2.36h-1v-1h1Zm-220-.7H0v-1H1Zm220-2.35h-1v-1h1ZM1,183.94H0v-1H1Zm220-2.36h-1v-1h1ZM1,180.93H0v-1H1Zm220-2.35h-1v-1h1ZM1,177.93H0v-1H1Zm220-2.36h-1v-1h1ZM1,174.92H0v-1H1Zm220-2.35h-1v-1h1ZM1,171.92H0v-1H1Zm220-2.36h-1v-1h1ZM1,168.91H0v-1H1Zm220-2.35h-1v-1h1ZM1,165.9H0v-1H1Zm220-2.35h-1v-1h1ZM1,162.9H0v-1H1Zm220-2.35h-1v-1h1ZM1,159.89H0v-1H1Zm220-2.35h-1v-1h1ZM1,156.89H0v-1H1Zm220-2.36h-1v-1h1ZM1,153.88H0v-1H1Zm220-2.35h-1v-1h1ZM1,150.88H0v-1H1Zm220-2.36h-1v-1h1ZM1,147.87H0v-1H1Zm220-2.35h-1v-1h1ZM1,144.87H0v-1H1Zm220-2.36h-1v-1h1ZM1,141.86H0v-1H1Zm220-2.35h-1v-1h1ZM1,138.86H0v-1H1Zm220-2.36h-1v-1h1ZM1,135.85H0v-1H1Zm220-2.35h-1v-1h1ZM1,132.85H0v-1H1Zm220-2.36h-1v-1h1ZM1,129.84H0v-1H1Zm220-2.36h-1v-1h1ZM1,126.83H0v-1H1Zm220-2.35h-1v-1h1ZM1,123.83H0v-1H1Zm220-2.36h-1v-1h1ZM1,120.82H0v-1H1Zm220-2.35h-1v-1h1ZM1,117.82H0v-1H1Zm220-2.36h-1v-1h1ZM1,114.81H0v-1H1Zm220-2.35h-1v-1h1ZM1,111.81H0v-1H1Zm220-2.36h-1v-1h1ZM1,108.8H0v-1H1Zm220-2.35h-1v-1h1ZM1,105.8H0v-1H1Zm220-2.36h-1v-1h1ZM1,102.79H0v-1H1Zm220-2.35h-1v-1h1ZM1,99.78H0v-1H1Zm220-2.35h-1v-1h1ZM1,96.78H0v-1H1Zm220-2.36h-1v-1h1ZM1,93.77H0v-1H1Zm220-2.35h-1v-1h1ZM1,90.77H0v-1H1Zm220-2.36h-1v-1h1ZM1,87.76H0v-1H1Zm220-2.35h-1v-1h1ZM1,84.76H0v-1H1ZM221,82.4h-1v-1h1ZM1,81.75H0v-1H1ZM221,79.4h-1v-1h1ZM1,78.75H0v-1H1Zm220-2.36h-1v-1h1ZM1,75.74H0v-1H1Zm220-2.35h-1v-1h1ZM1,72.73H0v-1H1Zm220-2.35h-1v-1h1ZM1,69.73H0v-1H1Zm220-2.35h-1v-1h1ZM1,66.72H0v-1H1Zm220-2.35h-1v-1h1ZM1,63.72H0v-1H1Zm220-2.36h-1v-1h1ZM1,60.71H0v-1H1Zm220-2.35h-1v-1h1ZM1,57.71H0v-1H1Zm220-2.36h-1v-1h1ZM1,54.7H0v-1H1Zm220-2.35h-1v-.68a1.41,1.41,0,0,0,0-.29l1-.07v1ZM0,51.7H0a5.77,5.77,0,0,1,.1-1.1l1,.2a5.12,5.12,0,0,0-.08.87Zm219.52-2.05a5.41,5.41,0,0,0-.48-.76l.78-.62a5,5,0,0,1,.59.93ZM1.78,49.15,1,48.59a5.25,5.25,0,0,1,.71-.85l.7.72A4.57,4.57,0,0,0,1.78,49.15Zm215.89-1.42a4.09,4.09,0,0,0-.83-.36l.31-.95a5.91,5.91,0,0,1,1,.43ZM3.86,47.48l-.37-.93a4.92,4.92,0,0,1,1.06-.3l.17,1A5.2,5.2,0,0,0,3.86,47.48ZM215,47.17h-1v-1h1Zm-3,0h-1v-1h1Zm-3,0h-1v-1h1Zm-3,0h-1v-1h1Zm-3,0h-1v-1h1Zm-3,0h-1v-1h1Zm-3,0h-1v-1h1Zm-3,0h-1v-1h1Zm-3,0h-1v-1h1Zm-3,0h-1v-1h1Zm-3,0h-1v-1h1Zm-3,0h-1v-1h1Zm-3,0h-1v-1h1Zm-3,0h-1v-1h1Zm-3,0h-1v-1h1Zm-3,0h-1v-1h1Zm-3,0h-1v-1h1Zm-3,0h-1v-1h1Zm-3,0h-1v-1h1Zm-3,0h-1v-1h1Zm-3,0h-1v-1h1Zm-27,0h-1v-1h1Zm-3,0h-1v-1h1Zm-3,0h-1v-1h1Zm-3,0h-1v-1h1Zm-3,0h-1v-1h1Zm-3,0h-1v-1h1Zm-3,0h-1v-1h1Zm-3,0h-1v-1h1Zm-3,0h-1v-1h1Zm-3,0h-1v-1h1Zm-3,0H97v-1h1Zm-3,0H94v-1h1Zm-3,0H91v-1h1Zm-3,0H88v-1h1Zm-3,0H85v-1h1Zm-3,0H82v-1h1Zm-3,0H79v-1h1Zm-3,0H76v-1h1Zm-3,0H73v-1h1Zm-3,0H70v-1h1Zm-3,0H67v-1h1Zm-3,0H64v-1h1Zm-3,0H61v-1h1Zm-3,0H58v-1h1Zm-3,0H55v-1h1Zm-3,0H52v-1h1Zm-3,0H49v-1h1Zm-3,0H46v-1h1Zm-3,0H43v-1h1Zm-3,0H40v-1h1Zm-3,0H37v-1h1Zm-3,0H34v-1h1Zm-3,0H31v-1h1Zm-3,0H28v-1h1Zm-3,0H25v-1h1Zm-3,0H22v-1h1Zm-3,0H19v-1h1Zm-3,0H16v-1h1Zm-3,0H13v-1h1Zm-3,0H10v-1h1Zm-3,0H7v-1H8Z"/><rect class="cls-1" x="10" y="90.86" width="95" height="95" rx="0.3"/><rect class="cls-3" x="10" y="90.86" width="95" height="95" rx="0.3"/><rect class="cls-4" x="65" y="210.86" width="155" height="35"/><rect class="cls-4" x="65" y="250.86" width="155" height="35"/><rect class="cls-5" x="23" y="122.86" width="28.14" height="18.76" rx="0.94"/><polygon class="cls-6" points="41.76 129.5 41.76 134.96 37.07 137.71 37.07 132.24 41.76 129.5"/><polygon class="cls-7" points="41.76 129.5 37.07 132.25 32.38 129.5 37.07 126.76 41.76 129.5"/><polygon class="cls-8" points="37.07 132.25 37.07 137.71 32.38 134.96 32.38 129.5 37.07 132.25"/><polygon class="cls-7" points="32.38 134.96 37.07 132.24 37.07 137.71 32.38 134.96"/><polygon class="cls-8" points="41.76 134.96 37.07 132.24 37.07 137.71 41.76 134.96"/><path class="cls-9" d="M42.71,147.29c-2.78-.44-2.89-2.44-2.89-5.67H34.3c0,3.23-.09,5.23-2.87,5.67A1.56,1.56,0,0,0,30,148.86H44.11A1.58,1.58,0,0,0,42.71,147.29Z"/><rect class="cls-10" x="63.36" y="122.86" width="28.14" height="18.76" rx="0.94"/><polygon class="cls-6" points="82.12 129.5 82.12 134.96 77.43 137.71 77.43 132.24 82.12 129.5"/><polygon class="cls-7" points="82.12 129.5 77.43 132.25 72.74 129.5 77.43 126.76 82.12 129.5"/><polygon class="cls-8" points="77.43 132.25 77.43 137.71 72.74 134.96 72.74 129.5 77.43 132.25"/><polygon class="cls-7" points="72.74 134.96 77.43 132.24 77.43 137.71 72.74 134.96"/><polygon class="cls-8" points="82.12 134.96 77.43 132.24 77.43 137.71 82.12 134.96"/><path class="cls-11" d="M83.07,147.29c-2.78-.44-2.89-2.44-2.89-5.67H74.66c0,3.23-.09,5.23-2.88,5.67a1.56,1.56,0,0,0-1.39,1.57H84.46A1.56,1.56,0,0,0,83.07,147.29Z"/><rect class="cls-1" x="115" y="90.86" width="95" height="95"/><rect class="cls-3" x="115" y="90.86" width="95" height="95"/><rect class="cls-12" x="170.6" y="122.86" width="15.46" height="10.32" rx="0.52"/><polygon class="cls-6" points="180.91 126.51 180.91 129.52 178.34 131.02 178.34 128.03 180.91 126.51"/><polygon class="cls-7" points="180.91 126.51 178.34 128.03 175.75 126.51 178.34 125 180.91 126.51"/><polygon class="cls-8" points="178.34 128.03 178.34 131.02 175.75 129.52 175.75 126.51 178.34 128.03"/><rect class="cls-13" x="176.67" y="128.77" width="15.46" height="10.32" rx="0.52"/><polygon class="cls-6" points="186.98 132.44 186.98 135.44 184.41 136.96 184.41 133.94 186.98 132.44"/><polygon class="cls-7" points="186.98 132.44 184.41 133.94 181.82 132.44 184.41 130.93 186.98 132.44"/><polygon class="cls-8" points="184.41 133.94 184.41 136.96 181.82 135.44 181.82 132.44 184.41 133.94"/><rect class="cls-14" x="181.14" y="134.52" width="15.46" height="10.32" rx="0.52"/><polygon class="cls-6" points="191.44 138.19 191.44 141.19 188.88 142.71 188.88 139.69 191.44 138.19"/><polygon class="cls-7" points="191.44 138.19 188.88 139.71 186.29 138.19 188.88 136.68 191.44 138.19"/><polygon class="cls-8" points="188.88 139.71 188.88 142.71 186.29 141.19 186.29 138.19 188.88 139.71"/><polygon class="cls-7" points="186.29 141.19 188.88 139.69 188.88 142.71 186.29 141.19"/><polygon class="cls-8" points="191.44 141.19 188.88 139.69 188.88 142.71 191.44 141.19"/><path class="cls-15" d="M192,148c-1.52-.24-1.52-1.34-1.52-3.06h-3.06c0,1.78,0,2.88-1.53,3.06a.91.91,0,0,0-.77.88h7.65A.91.91,0,0,0,192,148Z"/><rect class="cls-16" x="127.1" y="122.86" width="28.14" height="18.76" rx="0.94"/><polygon class="cls-6" points="145.86 129.5 145.86 134.96 141.17 137.71 141.17 132.24 145.86 129.5"/><polygon class="cls-7" points="145.86 129.5 141.17 132.25 136.48 129.5 141.17 126.76 145.86 129.5"/><polygon class="cls-8" points="141.17 132.25 141.17 137.71 136.48 134.96 136.48 129.5 141.17 132.25"/><polygon class="cls-7" points="136.48 134.96 141.17 132.24 141.17 137.71 136.48 134.96"/><polygon class="cls-8" points="145.86 134.96 141.17 132.24 141.17 137.71 145.86 134.96"/><path class="cls-17" d="M146.81,147.29c-2.78-.44-2.89-2.44-2.89-5.67H138.4c0,3.23-.09,5.23-2.87,5.67a1.58,1.58,0,0,0-1.4,1.57h14.08A1.58,1.58,0,0,0,146.81,147.29Z"/><line class="cls-18" x1="90.37" y1="90.71" x2="90.37" y2="63.64"/><line class="cls-18" x1="82.84" y1="85.18" x2="82.84" y2="73.48"/><polygon class="cls-2" points="85.83 74.36 82.84 69.18 79.85 74.36 85.83 74.36"/><line class="cls-18" x1="97.89" y1="80.87" x2="97.89" y2="80.12"/><line class="cls-19" x1="97.89" y1="77.69" x2="97.89" y2="71.14"/><line class="cls-18" x1="97.89" y1="69.93" x2="97.89" y2="69.18"/><polygon class="cls-2" points="100.88 80 97.89 85.18 94.9 80 100.88 80"/><line class="cls-18" x1="129.52" y1="90.71" x2="129.52" y2="63.64"/><line class="cls-18" x1="122" y1="85.18" x2="122" y2="73.48"/><polygon class="cls-2" points="124.99 74.36 122 69.18 119.01 74.36 124.99 74.36"/><line class="cls-18" x1="137.05" y1="80.87" x2="137.05" y2="80.12"/><line class="cls-19" x1="137.05" y1="77.69" x2="137.05" y2="71.14"/><line class="cls-18" x1="137.05" y1="69.93" x2="137.05" y2="69.18"/><polygon class="cls-2" points="140.04 80 137.05 85.18 134.06 80 140.04 80"/><line class="cls-18" x1="109.7" y1="38.29" x2="109.7" y2="18.79"/><line class="cls-18" x1="74.31" y1="220.86" x2="85.43" y2="220.86"/><polygon class="cls-2" points="75.18 223.85 70 220.85 75.18 217.86 75.18 223.85"/><line class="cls-18" x1="80.69" y1="260.86" x2="79.94" y2="260.86"/><line class="cls-20" x1="77.75" y1="260.86" x2="71.84" y2="260.86"/><line class="cls-18" x1="70.75" y1="260.86" x2="70" y2="260.86"/><polygon class="cls-2" points="79.82 257.86 85 260.86 79.82 263.85 79.82 257.86"/><path class="cls-18" d="M105.83,41,65.74,29.61a4.21,4.21,0,0,1-2.89-3.82v-7"/><path class="cls-18" d="M114,41l43.3-11.45a4.1,4.1,0,0,0,2.9-3.76v-7"/><circle class="cls-21" cx="27.4" cy="200.63" r="1.67"/><circle class="cls-22" cx="22.06" cy="200.64" r="1.67"/><circle class="cls-23" cx="16.72" cy="200.64" r="1.67"/><path class="cls-6" d="M17.93,207.34l-1,1a.43.43,0,0,1-.61,0h0l-7.09-7.08a.88.88,0,0,1,0-1.22h0l1-1h0l7.71,7.69a.43.43,0,0,1,0,.61h0Z"/><path class="cls-24" d="M16.83,193l1,1a.43.43,0,0,1,0,.61h0l-7.57,7.6h0l-1-1a.88.88,0,0,1,0-1.22h0l7-7A.43.43,0,0,1,16.83,193Z"/><path class="cls-6" d="M33.78,199l1,1a.86.86,0,0,1,0,1.22h0l-7.1,7.08a.43.43,0,0,1-.61,0h0l-1-1a.44.44,0,0,1,0-.62h0Z"/><path class="cls-24" d="M34.74,201.2l-1,1h0l-7.57-7.6a.43.43,0,0,1,0-.61h0l1-1a.43.43,0,0,1,.61,0h0l7,7a.88.88,0,0,1,0,1.22h0Z"/><rect class="cls-1" x="45.35" width="35" height="20.86"/><rect class="cls-3" x="45.35" width="35" height="20.86"/><rect class="cls-1" x="92.7" width="35" height="20.86"/><rect class="cls-3" x="92.7" width="35" height="20.86"/><rect class="cls-1" x="137.7" width="45" height="20.86"/><rect class="cls-3" x="137.7" width="45" height="20.86"/><rect class="cls-1" x="13.69" width="23.5" height="20.86"/><rect class="cls-25" x="13.69" width="23.5" height="20.86"/><line class="cls-26" x1="24.92" y1="90.71" x2="24.92" y2="21.02"/><line class="cls-26" x1="18.04" y1="80.44" x2="18.04" y2="68.74"/><polygon class="cls-27" points="21.03 79.56 18.04 84.75 15.05 79.56 21.03 79.56"/><line class="cls-26" x1="31.8" y1="84.74" x2="31.8" y2="83.99"/><line class="cls-28" x1="31.8" y1="81.57" x2="31.8" y2="75.01"/><line class="cls-26" x1="31.8" y1="73.8" x2="31.8" y2="73.05"/><polygon class="cls-27" points="34.79 73.93 31.8 68.75 28.8 73.93 34.79 73.93"/><rect class="cls-1" x="74.82" y="53.67" width="70" height="10"/><rect class="cls-29" x="74.82" y="53.67" width="70" height="10"/><g id="ad94e297-0e86-4eaf-aac0-d146ee9aea65"><path class="cls-30" d="M105.75,54l-4.68-4.84a2.28,2.28,0,0,1-.78.13A2.43,2.43,0,1,1,102.53,46h4.62v1.62H102.6a3.68,3.68,0,0,1-.26.57l4.33,4.46L109,49.07V37.89h-3.15l4-4,3.94,4h-3.15v8.74l5.93-9.05-6-6a1,1,0,0,0-1.41,0l0,0h0L94.64,46.06a1,1,0,0,0,0,1.41l0,.05h0L109.11,62l-5.17-5.17Z"/><path class="cls-31" d="M109,54.22V49.05l-2.34,3.59,1.72,1.84A2,2,0,0,1,109,54.22Z"/><path class="cls-31" d="M125,46.06l-8.47-8.48-5.93,9.05v7.61a2.1,2.1,0,0,1,.53.29l6.22-6.28a3.15,3.15,0,0,1-.31-.64H112.4V46h4.74a2.41,2.41,0,1,1,2.24,3.32,2.53,2.53,0,0,1-.67-.1l-6.62,6.67a2.18,2.18,0,0,1,.11.62,2.43,2.43,0,0,1-4.86.19,2.5,2.5,0,0,1,.14-.9l-1.73-1.72-1.84,2.76L109.08,62a1,1,0,0,0,1.41,0l0,0L125,47.52a1,1,0,0,0,0-1.41Z"/><path class="cls-32" d="M117.14,46H112.4v1.62h4.67a3,3,0,0,1-.12-.73A2.26,2.26,0,0,1,117.14,46Z"/><path class="cls-32" d="M102.6,47.61h4.55V46h-4.62a2.09,2.09,0,0,1,.19.89A2.22,2.22,0,0,1,102.6,47.61Z"/><path class="cls-32" d="M112.09,55.88l6.62-6.67a2.43,2.43,0,0,1-1.33-1l-6.22,6.28A2.24,2.24,0,0,1,112.09,55.88Z"/><path class="cls-32" d="M108.44,54.48l-1.72-1.84-4.38-4.46a2.51,2.51,0,0,1-1.27,1L105.75,54l1.73,1.72A2.37,2.37,0,0,1,108.44,54.48Z"/><path class="cls-1" d="M113.76,37.89l-3.92-4-4,4H109V54.22a1.73,1.73,0,0,0-.57.26,2.41,2.41,0,1,0,3.65,2.71,2.31,2.31,0,0,0,.11-.69,2.18,2.18,0,0,0-.11-.62,2.26,2.26,0,0,0-.93-1.35,2.1,2.1,0,0,0-.53-.29V37.89Zm-3.92,20a1.35,1.35,0,1,1,1.34-1.36v0h0a1.34,1.34,0,0,1-1.34,1.29Z"/><path class="cls-1" d="M102.34,48.18a3.68,3.68,0,0,0,.26-.57,2.28,2.28,0,0,0,.12-.73,2.09,2.09,0,0,0-.19-.89,2.41,2.41,0,1,0-2.24,3.32,2.28,2.28,0,0,0,.78-.13A2.51,2.51,0,0,0,102.34,48.18Zm-2,0a1.35,1.35,0,1,1,1.35-1.35h0a1.36,1.36,0,0,1-1.3,1.4h0Z"/><path class="cls-1" d="M118.71,49.21a2.53,2.53,0,0,0,.67.1A2.43,2.43,0,1,0,117.14,46a2.26,2.26,0,0,0-.19.89,3,3,0,0,0,.12.73,3.15,3.15,0,0,0,.31.64A2.46,2.46,0,0,0,118.71,49.21Zm.67-3.65a1.34,1.34,0,0,1,0,2.67,1.34,1.34,0,1,1-.3-2.67A1.5,1.5,0,0,1,119.38,45.56Z"/><path class="cls-33" d="M109.84,55.15a1.35,1.35,0,1,0,1.34,1.36h0A1.36,1.36,0,0,0,109.84,55.15Z"/><circle class="cls-33" cx="100.29" cy="46.88" r="1.34"/><path class="cls-33" d="M119.38,48.23A1.35,1.35,0,1,0,118,46.88h0a1.34,1.34,0,0,0,1.33,1.35Z"/></g></g></g><g id="Text"><path class="cls-34" d="M139.37,156.68,136,165.9h-1.1l-3.32-9.22h1.12l2.56,7.37a4.41,4.41,0,0,1,.19.81h0a3.05,3.05,0,0,1,.2-.82l2.62-7.36Z"/><path class="cls-34" d="M148.87,165.9v-6.23c0-.47,0-1.06.09-1.78h0a5.14,5.14,0,0,1-.27.87l-3.17,7.14H145l-3.17-7.09a5.3,5.3,0,0,1-.26-.92h0c0,.33,0,.91,0,1.76v6.25h-1v-9.22H142l2.85,6.49a9.08,9.08,0,0,1,.43,1.09h0c.11-.32.26-.69.44-1.12l2.91-6.46h1.24v9.22Z"/><path class="cls-34" d="M75.45,156.68l-3.39,9.22H71l-3.31-9.22h1.11l2.57,7.37a3.77,3.77,0,0,1,.18.81h0a3.54,3.54,0,0,1,.21-.82l2.62-7.36Z"/><path class="cls-34" d="M85,165.9v-6.23c0-.47,0-1.06.1-1.78h0a5.14,5.14,0,0,1-.27.87l-3.18,7.14h-.44L78,158.81a4.4,4.4,0,0,1-.27-.92h0c0,.33,0,.91,0,1.76v6.25h-1v-9.22H78l2.86,6.49a10.47,10.47,0,0,1,.42,1.09h0c.12-.32.27-.69.44-1.12l2.92-6.46H86v9.22Z"/><path class="cls-34" d="M33.64,156.68l-3.39,9.22h-1.1l-3.32-9.22H27l2.57,7.37a3.77,3.77,0,0,1,.18.81h0a3.48,3.48,0,0,1,.2-.82l2.63-7.36Z"/><path class="cls-34" d="M43.14,165.9v-6.23c0-.47,0-1.06.1-1.78h0a5.14,5.14,0,0,1-.27.87l-3.18,7.14h-.45l-3.17-7.09a5.3,5.3,0,0,1-.26-.92h0c0,.33,0,.91,0,1.76v6.25h-1v-9.22h1.3l2.85,6.49a9.08,9.08,0,0,1,.43,1.09h0c.12-.32.26-.69.44-1.12l2.92-6.46h1.23v9.22Z"/><path class="cls-34" d="M175,156.68l-3.39,9.22h-1.1l-3.32-9.22h1.12l2.56,7.37a4.41,4.41,0,0,1,.19.81h0a3.05,3.05,0,0,1,.2-.82l2.63-7.36Z"/><path class="cls-34" d="M184.46,165.9v-6.23c0-.47,0-1.06.09-1.78h0a4.15,4.15,0,0,1-.28.87l-3.17,7.14h-.45l-3.17-7.09a5.3,5.3,0,0,1-.26-.92h0c0,.33.05.91.05,1.76v6.25h-1v-9.22h1.31l2.85,6.49a9.08,9.08,0,0,1,.43,1.09h0c.12-.32.26-.69.44-1.12l2.92-6.46h1.23v9.22Z"/><path class="cls-34" d="M187.41,164.3a3,3,0,0,0,1.11.59,4.21,4.21,0,0,0,1.33.24c1.32,0,2-.49,2-1.47a1.3,1.3,0,0,0-.21-.73,1.87,1.87,0,0,0-.56-.56c-.23-.15-.69-.41-1.37-.77a5.39,5.39,0,0,1-1.88-1.34,2.24,2.24,0,0,1-.4-1.29,2.1,2.1,0,0,1,.9-1.78,3.62,3.62,0,0,1,2.25-.67,4.12,4.12,0,0,1,1.93.33V158a3.53,3.53,0,0,0-2.06-.56,2.56,2.56,0,0,0-1.42.37,1.21,1.21,0,0,0-.54,1,1.29,1.29,0,0,0,.19.72,1.9,1.9,0,0,0,.52.54,14.16,14.16,0,0,0,1.28.7,5.91,5.91,0,0,1,1.88,1.32,2.18,2.18,0,0,1,.53,1.43,2.15,2.15,0,0,1-.84,1.82,3.86,3.86,0,0,1-2.37.64,6.35,6.35,0,0,1-1.21-.15,2.73,2.73,0,0,1-1.05-.38Z"/><path class="cls-34" d="M194.26,164.3a3,3,0,0,0,1.11.59,4.21,4.21,0,0,0,1.33.24c1.32,0,2-.49,2-1.47a1.3,1.3,0,0,0-.21-.73,1.87,1.87,0,0,0-.56-.56c-.23-.15-.69-.41-1.37-.77a5.39,5.39,0,0,1-1.88-1.34,2.23,2.23,0,0,1-.39-1.29,2.09,2.09,0,0,1,.89-1.78,3.62,3.62,0,0,1,2.25-.67,4.09,4.09,0,0,1,1.93.33V158a3.53,3.53,0,0,0-2.06-.56,2.5,2.5,0,0,0-1.41.37,1.19,1.19,0,0,0-.55,1,1.29,1.29,0,0,0,.19.72,1.9,1.9,0,0,0,.52.54,14.16,14.16,0,0,0,1.28.7,5.91,5.91,0,0,1,1.88,1.32,2.3,2.3,0,0,1-.31,3.25,3.86,3.86,0,0,1-2.37.64,6.35,6.35,0,0,1-1.21-.15,2.73,2.73,0,0,1-1.05-.38Z"/><path class="cls-34" d="M147.81,14a.77.77,0,0,1-.2.56.82.82,0,0,1-.57.23h-.77a6.12,6.12,0,0,1-.62,0l-.22-.64c.31,0,.81.05,1.5.05a.24.24,0,0,0,.18-.1.27.27,0,0,0,.08-.2V12.12h-2.72a6.29,6.29,0,0,1-1.16,2.73l-.48-.43A7,7,0,0,0,144,10.09V7.44h3.83Zm5.45-7.58H142.84v-.6h10.42Zm-6.07,5.14V10.05H144.6c0,.31,0,.8-.07,1.48Zm0-2.1V8.05H144.6V9.43Zm0-4.07-.6.25a6.9,6.9,0,0,0-1.2-1.1l.66-.27A7.14,7.14,0,0,1,147.19,5.36Zm3.67-.83a5,5,0,0,1-1.17,1.07l-.64-.33a6.87,6.87,0,0,0,1.26-1Zm-.9,8.23h-.6V7.62h.6Zm2.38,1.13a1,1,0,0,1-.16.55.63.63,0,0,1-.4.27,4.62,4.62,0,0,1-.93.06l-.84,0-.23-.65,1.65.05c.2,0,.3-.1.3-.34V7.33h.61Z"/><path class="cls-34" d="M165.27,14.5H154.89V14h1.41V8.9h2.79l.3-.85H155V7.51h4.6l.23-.8h-4.35V4.56h9.2V6.71h-4.2l-.24.8h4.87v.54H160l-.28.85h4.09V14h1.43Zm-7-8.28V5.07h-2.24V6.22Zm4.93,3.93V9.4h-6.32v.75Zm0,1.23v-.74h-6.32v.74Zm0,1.31v-.82h-6.32v.82Zm0,1.28V13.2h-6.32V14Zm-2-7.75V5.07h-2.26V6.22Zm2.84,0V5.07h-2.22V6.22Z"/><path class="cls-34" d="M171.12,6.19h-4.26V5.58h2a6.23,6.23,0,0,0-.53-1.13l.58-.28a9.54,9.54,0,0,1,.63,1.41h1.59Zm-.38,1.67h-3.45V7.27h3.45Zm0,1.71h-3.45V9h3.45Zm-.12,5H170v-.7h-1.94v.9h-.64v-4h3.21Zm-.63-1.3V11.4h-1.94v1.87Zm5.57-5.83h-4.19v-.6h4.19ZM177,13.86a.84.84,0,0,1-.18.51.87.87,0,0,1-.4.3,5.28,5.28,0,0,1-1.19.08l-.72,0-.21-.63q.53,0,1.26,0a1.57,1.57,0,0,0,.68-.09.35.35,0,0,0,.15-.32V5.19h-5V4.57H177Zm-1.87-1.24h-3.39V9.08h3.39Zm-.64-.63V9.68h-2.13V12Z"/><path class="cls-34" d="M103.49,10.71v3.45h-1V5.08h2.45a3.28,3.28,0,0,1,2.23.71,2.53,2.53,0,0,1,.8,2A2.73,2.73,0,0,1,107,9.94a3.29,3.29,0,0,1-2.33.77Zm0-4.71V9.78h1.14a2.52,2.52,0,0,0,1.7-.51,1.78,1.78,0,0,0,.59-1.44c0-1.22-.72-1.83-2.15-1.83Z"/><path class="cls-34" d="M110.7,14.16h-1V5.08h1Z"/><path class="cls-34" d="M114.11,10.71v3.45h-1V5.08h2.45a3.23,3.23,0,0,1,2.22.71,2.51,2.51,0,0,1,.81,2,2.73,2.73,0,0,1-.95,2.16,3.27,3.27,0,0,1-2.32.77Zm0-4.71V9.78h1.14A2.53,2.53,0,0,0,117,9.27a1.81,1.81,0,0,0,.59-1.44q0-1.83-2.16-1.83Z"/><path class="cls-34" d="M56.12,10.71v3.45h-1V5.08h2.44a3.26,3.26,0,0,1,2.23.71,2.5,2.5,0,0,1,.8,2,2.73,2.73,0,0,1-.94,2.16,3.28,3.28,0,0,1-2.33.77Zm0-4.71V9.78h1.14A2.57,2.57,0,0,0,59,9.27a1.81,1.81,0,0,0,.59-1.44Q59.56,6,57.4,6Z"/><path class="cls-34" d="M63.33,14.16h-1V5.08h1Z"/><path class="cls-34" d="M66.74,10.71v3.45h-1V5.08H68.2a3.23,3.23,0,0,1,2.22.71,2.51,2.51,0,0,1,.81,2,2.73,2.73,0,0,1-1,2.16,3.27,3.27,0,0,1-2.32.77Zm0-4.71V9.78h1.14a2.53,2.53,0,0,0,1.71-.51,1.81,1.81,0,0,0,.59-1.44Q70.18,6,68,6Z"/><path class="cls-34" d="M19.05,10.71v3.45h-1V5.08H20.5a3.28,3.28,0,0,1,2.23.71,2.53,2.53,0,0,1,.8,2,2.73,2.73,0,0,1-.94,2.16,3.29,3.29,0,0,1-2.33.77Zm0-4.71V9.78h1.13a2.53,2.53,0,0,0,1.71-.51,1.78,1.78,0,0,0,.59-1.44c0-1.22-.72-1.83-2.15-1.83Z"/><path class="cls-34" d="M26.26,14.16h-1V5.08h1Z"/><path class="cls-34" d="M29.67,10.71v3.45h-1V5.08h2.45a3.26,3.26,0,0,1,2.23.71,2.5,2.5,0,0,1,.8,2,2.73,2.73,0,0,1-.94,2.16,3.28,3.28,0,0,1-2.33.77Zm0-4.71V9.78h1.14a2.57,2.57,0,0,0,1.71-.51,1.81,1.81,0,0,0,.58-1.44C33.1,6.61,32.39,6,31,6Z"/><path class="cls-35" d="M5.2,14.16h-1V5.08h1Z"/><path class="cls-35" d="M12.28,14.16H7.61V5.08h1v8.16h3.67Z"/><path class="cls-34" d="M138.62,50h-1.25l-4.74-7.33a4.73,4.73,0,0,1-.28-.55h0a10.5,10.5,0,0,1,0,1.22V50h-1V40.91h1.33l4.6,7.26a5.06,5.06,0,0,1,.37.62h0a11.39,11.39,0,0,1-.06-1.37V40.91h1Z"/><path class="cls-34" d="M148,50h-1.11l-1-2.58H142L141.08,50H140l3.49-9.08h1Zm-2.44-3.49-1.45-3.92A4.23,4.23,0,0,1,144,42h0a4.3,4.3,0,0,1-.15.6l-1.44,3.92Z"/><path class="cls-34" d="M153.7,41.83h-2.62V50h-1V41.83h-2.61v-.92h6.23Z"/><path class="cls-34" d="M44.88,101.48h-5v4.16a1,1,0,0,1-.27.7,1,1,0,0,1-.74.27l-1.59,0-.25-.67L39,106a.24.24,0,0,0,.2-.11.37.37,0,0,0,.09-.23v-4.14H34.23v-.66h5.05V99.2a18.7,18.7,0,0,0,3.34-2.51h-7V96h8v.67a24.08,24.08,0,0,1-3.62,2.87v1.26h5Z"/><path class="cls-34" d="M47.71,103.69a15.31,15.31,0,0,1-.69,3l-.61-.27a13,13,0,0,0,.72-2.8Zm3-.78-.59.2a5.28,5.28,0,0,0-.18-.71q-1.86.52-3.27.78l-.2-.69a13,13,0,0,0,2.33-2.82l-2.06.32-.17-.62a12.63,12.63,0,0,0,2-3.62l.6.19a14.68,14.68,0,0,1-1.72,3.31A14.3,14.3,0,0,0,49.2,99a13.56,13.56,0,0,0,.85-1.59l.59.24a18.32,18.32,0,0,1-3.19,4.73,16.5,16.5,0,0,0,2.3-.54,7.54,7.54,0,0,0-.33-.85l.55-.2A11.13,11.13,0,0,1,50.72,102.91Zm-1.46,3.22-.64.12a17,17,0,0,0-.34-2.58l.6-.1A16.39,16.39,0,0,1,49.26,106.13Zm1.44-.57-.59.21a12.05,12.05,0,0,0-.54-2.22l.59-.19A13.24,13.24,0,0,1,50.7,105.56Zm6.2.14a.83.83,0,0,1-.21.56.88.88,0,0,1-.49.31,5.64,5.64,0,0,1-1.12,0l-.27-.68h.67a1.72,1.72,0,0,0,.67-.07.29.29,0,0,0,.12-.26V96.69H51.61v9.9H51V96.08H56.9Zm-1-5.91H52v-.61h1a9.07,9.07,0,0,0-.61-1.58l.58-.24a14.73,14.73,0,0,1,.69,1.82h.69a14.11,14.11,0,0,0,.82-1.84l.56.22A15.29,15.29,0,0,1,55,99.18h.9Zm0,2.26H53.29v1.84c0,.22.09.32.29.32h2.17v.59H53.52c-.57,0-.86-.3-.86-.9v-1.85H52v-.59h1.92a10.38,10.38,0,0,0-.47-1.14l.6-.21c.15.31.32.76.53,1.35h1.36Z"/><path class="cls-34" d="M63.08,105.11a40.52,40.52,0,0,1-4.24,1.42l-.17-.66a5,5,0,0,0,.65-.19v-5.06h.61v4.88l1-.3V99.69H59.18V96.16H62.7v3.53H61.58v1.91h1.35v.64H61.58V105a12.8,12.8,0,0,0,1.5-.58Zm-1-6v-2.3H59.82v2.3Zm7.4,2-.39.59a15.27,15.27,0,0,1-2.8-1.42,9.93,9.93,0,0,1-3,1.46l-.42-.6a10.5,10.5,0,0,0,2.89-1.25,6.79,6.79,0,0,1-1.38-1.69,7.35,7.35,0,0,1-1,.76l-.51-.48a6.31,6.31,0,0,0,2.63-2.79l.62.2a6.34,6.34,0,0,1-.49.93h3.1v.59a8.7,8.7,0,0,1-1.88,2.43A11.29,11.29,0,0,0,69.46,101.09Zm-.88,5.51h-.64V106H64.55v.57H63.9V102h4.68Zm-.64-1.19v-2.74H64.55v2.74Zm0-8H65.13a2.25,2.25,0,0,1-.15.19l-.13.16a4.55,4.55,0,0,0,1.44,1.69A6.83,6.83,0,0,0,67.92,97.4Z"/><path class="cls-34" d="M81.51,106H80.38l-1-2.67h-4L74.44,106H73.3l3.58-9.41h1ZM79,102.35l-1.49-4.06c0-.12-.08-.32-.14-.62h0a2.67,2.67,0,0,1-.15.62l-1.47,4.06Z"/><path class="cls-34" d="M150.9,101.43h-4.83v4a.89.89,0,0,1-.27.67,1,1,0,0,1-.72.27l-1.56,0-.24-.65c.91,0,1.53,0,1.87,0a.27.27,0,0,0,.2-.11.31.31,0,0,0,.08-.21v-4H140.5v-.63h4.93V99.24a18.1,18.1,0,0,0,3.27-2.42h-6.87v-.64h7.77v.64a24.46,24.46,0,0,1-3.53,2.77v1.21h4.83Z"/><path class="cls-34" d="M153.66,103.56a15.1,15.1,0,0,1-.67,2.84l-.6-.26a12.9,12.9,0,0,0,.71-2.7Zm2.94-.75L156,103c-.05-.22-.11-.45-.18-.68-1.22.33-2.28.58-3.2.75l-.19-.67a12.67,12.67,0,0,0,2.28-2.71c-1.06.17-1.73.27-2,.3l-.16-.59a12.2,12.2,0,0,0,1.93-3.48l.58.18a14.33,14.33,0,0,1-1.68,3.19c.53-.05,1.11-.13,1.72-.25a14.49,14.49,0,0,0,.84-1.53l.57.22a17.71,17.71,0,0,1-3.11,4.56,18.36,18.36,0,0,0,2.24-.52,7,7,0,0,0-.32-.82l.54-.19A10.55,10.55,0,0,1,156.6,102.81Zm-1.43,3.1-.62.12a14.46,14.46,0,0,0-.33-2.49l.58-.1A14.37,14.37,0,0,1,155.17,105.91Zm1.41-.56-.58.21a11,11,0,0,0-.52-2.14l.57-.18A11.62,11.62,0,0,1,156.58,105.35Zm6,.14a.88.88,0,0,1-.68.84,5.38,5.38,0,0,1-1.09,0l-.26-.66.65,0a1.93,1.93,0,0,0,.66-.07.27.27,0,0,0,.11-.26V96.82h-4.55v9.53h-.61V96.24h5.77Zm-1-5.69h-3.84v-.58h1a8.51,8.51,0,0,0-.6-1.52l.57-.23a13.61,13.61,0,0,1,.67,1.75h.67a13.54,13.54,0,0,0,.81-1.77l.55.21c-.11.33-.34.85-.67,1.56h.88Zm0,2.18h-2.56v1.77c0,.21.09.31.28.31h2.12v.56h-2.17a.75.75,0,0,1-.84-.86V102h-.67v-.57h1.86a7.49,7.49,0,0,0-.45-1.09l.59-.21c.13.3.31.73.51,1.3h1.33Z"/><path class="cls-34" d="M168.66,104.93a40.77,40.77,0,0,1-4.13,1.36l-.17-.63.64-.18V100.6h.6v4.7c.16,0,.5-.13,1-.29v-5.3h-1.73v-3.4h3.44v3.4h-1.1v1.84h1.32v.61H167.2v2.63a13.2,13.2,0,0,0,1.46-.56Zm-1-5.81V96.91h-2.18v2.21Zm7.23,1.94-.38.56a14.48,14.48,0,0,1-2.73-1.36,10.07,10.07,0,0,1-2.94,1.4l-.41-.58a10.11,10.11,0,0,0,2.82-1.2,6.51,6.51,0,0,1-1.35-1.62,7.82,7.82,0,0,1-1,.73l-.49-.47A6.07,6.07,0,0,0,171,95.84l.61.19a7.77,7.77,0,0,1-.48.9h3v.56a8.82,8.82,0,0,1-1.84,2.35A11.58,11.58,0,0,0,174.9,101.06Zm-.86,5.3h-.63v-.55h-3.3v.55h-.64V102H174Zm-.63-1.15v-2.63h-3.3v2.63Zm0-7.7h-2.72l-.14.17-.14.16a4.55,4.55,0,0,0,1.41,1.63A6.9,6.9,0,0,0,173.39,97.51Z"/><path class="cls-34" d="M179.7,105.75v-9h2.54a2.77,2.77,0,0,1,1.82.57,1.82,1.82,0,0,1,.69,1.5,2.19,2.19,0,0,1-1.56,2.15v0a2.16,2.16,0,0,1,1.46.68,2.13,2.13,0,0,1,.56,1.53,2.38,2.38,0,0,1-.83,1.87,3.07,3.07,0,0,1-2.09.72Zm1-8.13v3h1.1a2.16,2.16,0,0,0,1.41-.43,1.52,1.52,0,0,0,.5-1.2c0-.9-.59-1.35-1.76-1.35Zm0,3.89v3.32h1.47a2.18,2.18,0,0,0,1.46-.45,1.52,1.52,0,0,0,.54-1.24c0-1.08-.75-1.63-2.24-1.63Z"/><path class="cls-34" d="M22.07,216.24a8.6,8.6,0,0,1-.68,2.16l-.58-.2a6.61,6.61,0,0,0,.47-1.35h-4.5v1l3.07-.24,0,.6-3.09.21v.53a.3.3,0,0,0,.11.24.32.32,0,0,0,.22.1h4.2v.58H16.94a.69.69,0,0,1-.78-.77v-.62l-2.07.15L14,218l2.12-.14v-1H13.47v2.62a10.94,10.94,0,0,1-1.11,5.46l-.56-.34a8.5,8.5,0,0,0,.85-2.39,16.71,16.71,0,0,0,.2-2.74v-3.22h3.66v-2h.63v.66h4.61v.59H17.14v.76Zm.21,8.3H13.61v-.6h3.06v-1.05h-2.1v-1.95h.64v1.31h1.46v-1.84h.63v3.53h1.2v-3.53h.63v1.84H20.6v-1.33h.61v2H19.13v1.05h3.15Z"/><path class="cls-34" d="M26.77,216.9h-1V219l.77-.52.06.67-.83.57V224c0,.57-.35.85-1,.85l-.61,0-.19-.62,1,0c.17,0,.26-.1.26-.31v-3.85c-.32.18-.69.39-1.12.61l-.21-.57c.57-.3,1-.55,1.33-.75V216.9H24v-.6H25.2v-2.16h.59v2.16h1Zm3.35,4.3H28.7a3.6,3.6,0,0,1-.1.53,10.85,10.85,0,0,1,1.09,1.21l-.42.4a11.5,11.5,0,0,0-.87-1,5.58,5.58,0,0,1-1.82,2.46l-.43-.41a4.82,4.82,0,0,0,1.94-3.21H26.61v-.54h1.55c0-.35.05-.82.06-1.42h-.59a7.86,7.86,0,0,1-.7.95l-.49-.33a5.93,5.93,0,0,0,1.19-2.07l.52.19a5.08,5.08,0,0,1-.22.69h2v.57H28.81c0,.46,0,.93-.06,1.42h1.37Zm.1-3.65H28.16a.79.79,0,0,1-.62-.25.84.84,0,0,1-.23-.62v-2.53h.59v.9h2.18v.58H27.9v1c0,.2.11.31.35.31h2ZM34.44,224l-.11.62-.63,0a3.09,3.09,0,0,1-3-1.45,7.45,7.45,0,0,1-1.19,1.72l-.46-.38a5.41,5.41,0,0,0,1.52-4.26h.6a12.31,12.31,0,0,1-.23,2.15,2,2,0,0,0,.94,1.17v-5H30.4V218h2.24a11.28,11.28,0,0,0-1.86-1.76l.4-.43c.44.36.76.63,1,.82A11.48,11.48,0,0,0,33.47,215H30.63v-.56h3.52V215a10.65,10.65,0,0,1-1.6,2c.17.18.35.39.55.64l-.31.34h1.5a8.6,8.6,0,0,1-.51,2.08l-.51-.27a6.37,6.37,0,0,0,.34-1.26H32.52v2.21H34v.58H32.52v2.49A5.69,5.69,0,0,0,34.44,224Z"/><path class="cls-34" d="M13.07,235.16a14.69,14.69,0,0,1-.68,2.89l-.6-.26A12.83,12.83,0,0,0,12.5,235Zm2.95-.77-.58.2a5.16,5.16,0,0,0-.18-.7c-1.21.34-2.28.6-3.2.77l-.2-.68a12.52,12.52,0,0,0,2.29-2.77c-1.06.18-1.73.28-2,.32l-.17-.61a12.53,12.53,0,0,0,1.94-3.55l.58.19a14.16,14.16,0,0,1-1.69,3.25,15.32,15.32,0,0,0,1.74-.26,16.8,16.8,0,0,0,.84-1.56l.57.23a18.05,18.05,0,0,1-3.13,4.65,17.62,17.62,0,0,0,2.26-.54,7.18,7.18,0,0,0-.33-.83l.55-.19A10.85,10.85,0,0,1,16,234.39Zm-1.43,3.16-.63.12a15,15,0,0,0-.33-2.53l.58-.1A15.91,15.91,0,0,1,14.59,237.55ZM16,237l-.58.21A12.1,12.1,0,0,0,14.9,235l.57-.19A12.07,12.07,0,0,1,16,237Zm6.08.14a.93.93,0,0,1-.69.86,6.58,6.58,0,0,1-1.09,0l-.27-.66h.66a1.93,1.93,0,0,0,.66-.07.29.29,0,0,0,.12-.26v-8.74H16.9V238h-.61V227.7h5.79Zm-1-5.8H17.25v-.59h1a8.65,8.65,0,0,0-.59-1.55l.57-.23a14.1,14.1,0,0,1,.67,1.78h.68a12.49,12.49,0,0,0,.8-1.81l.56.22c-.11.34-.34.87-.67,1.59h.88Zm0,2.22H18.54v1.81c0,.21.09.31.29.31H21v.57H18.77a.76.76,0,0,1-.84-.87v-1.82h-.68V233h1.88a9.92,9.92,0,0,0-.46-1.11l.59-.21c.14.3.31.74.52,1.32h1.33Z"/><path class="cls-34" d="M28.17,236.55A38.82,38.82,0,0,1,24,237.94l-.17-.64a5.31,5.31,0,0,0,.64-.19v-5h.6v4.78a10.27,10.27,0,0,0,1-.29v-5.4H24.35v-3.47H27.8v3.47H26.7v1.87H28v.63H26.7v2.68a14.82,14.82,0,0,0,1.47-.57Zm-1-5.91v-2.26H25v2.26Zm7.27,2-.39.57a14,14,0,0,1-2.74-1.38,9.84,9.84,0,0,1-3,1.42l-.41-.58a10.4,10.4,0,0,0,2.84-1.23,6.52,6.52,0,0,1-1.36-1.65,9,9,0,0,1-1,.74L28,230a6.05,6.05,0,0,0,2.57-2.74l.62.2a6.78,6.78,0,0,1-.49.92H33.7V229a8.71,8.71,0,0,1-1.85,2.39A11.34,11.34,0,0,0,34.44,232.61Zm-.87,5.4h-.63v-.56H29.62V238H29v-4.47h4.59Zm-.63-1.16v-2.69H29.62v2.69Zm0-7.86H30.18a1.12,1.12,0,0,1-.14.18l-.13.16A4.57,4.57,0,0,0,31.32,231,6.69,6.69,0,0,0,32.92,229Z"/><path class="cls-34" d="M105.8,225.54l-.19.67h-4.84a5.53,5.53,0,0,1-4.68-2,8.3,8.3,0,0,1-.85,2.13l-.48-.48a13.21,13.21,0,0,0,1.23-5l.62.12a22,22,0,0,1-.32,2.36,3.39,3.39,0,0,0,1.35,1.52V220H94.88v-.61h2.76v-1.73H95.15V217h2.49v-1.54h.64V217h1.81v.65H98.28v1.73h2.12V220H98.28v1.61h1.87v.61H98.28v3a5.08,5.08,0,0,0,2,.39c.86,0,1.89,0,3.1,0S105.34,225.57,105.8,225.54Zm-.08-3.77a5.34,5.34,0,0,1-.11,1.49,1,1,0,0,1-.59.73,5.48,5.48,0,0,1-1.78.19,5.15,5.15,0,0,1-1.78-.19c-.25-.13-.37-.45-.37-1v-7h4.12v4h-3.47v3.19c0,.15.1.24.32.27s.63,0,1.26,0a3.74,3.74,0,0,0,1.45-.13,1.32,1.32,0,0,0,.21-.29,8.7,8.7,0,0,0,.13-1.55Zm-1.16-2.35v-2.75h-2.82v2.75Z"/><path class="cls-34" d="M109.57,222.27a33.3,33.3,0,0,1-1.73,4l-.5-.53a30.2,30.2,0,0,0,1.63-3.83Zm.19-2.06-.42.5a20,20,0,0,0-2-1.44l.48-.48A16,16,0,0,1,109.76,220.21Zm.24-3-.49.48a14.27,14.27,0,0,0-2-1.54l.5-.49A19.18,19.18,0,0,1,110,217.23Zm8.3-.78h-2.94a9.9,9.9,0,0,1-.37,1.32h2.75v4.33h-2.42v3.38a1,1,0,0,1-.25.64c-.16.2-.53.3-1.1.3-.2,0-.41,0-.64,0l-.19-.65a6.55,6.55,0,0,0,.86.06,1.13,1.13,0,0,0,.54-.08.24.24,0,0,0,.1-.19V222.1h-2.33v-4.33h2c.1-.3.23-.74.37-1.32h-3.38v4.06a10.69,10.69,0,0,1-1.61,5.89l-.53-.47a7.33,7.33,0,0,0,1.07-2.33,16.4,16.4,0,0,0,.42-4.28v-3.47h7.68Zm-4.63,6.86a14.6,14.6,0,0,1-2.11,2.41l-.44-.48a14.56,14.56,0,0,0,2-2.42Zm3.38-3.72v-1.21H113v1.21Zm0,1.91v-1.29H113v1.29Zm1.31,3.76-.47.48a16.87,16.87,0,0,0-1.76-2.42l.5-.45A17.83,17.83,0,0,1,118.36,225.26Z"/><path class="cls-34" d="M124.31,226.15h-.63v-1.07H121v1.32h-.64v-8.86h1.16a11.26,11.26,0,0,0,.89-2.15l.63.13c-.15.44-.43,1.11-.85,2h2.13Zm-.63-5.29v-2.69H121v2.69Zm0,3.58v-3H121v3Zm6.9-6.89c-.05,1.88-.14,3.61-.28,5.22a12.42,12.42,0,0,1-.4,2.84,1.31,1.31,0,0,1-.51.61,2.68,2.68,0,0,1-1.19.18l-1,0-.2-.64c.34,0,.71,0,1.1,0h.71a.61.61,0,0,0,.33-.15.88.88,0,0,0,.24-.34,9.23,9.23,0,0,0,.2-1.44c.08-.83.15-1.74.2-2.74s.09-2,.12-2.91h-3.26a16.88,16.88,0,0,1-1.52,2.47l-.51-.36a13.32,13.32,0,0,0,2.33-4.8l.63.16a19.42,19.42,0,0,1-.68,1.91Zm-2.31,5.61-.52.37a13.17,13.17,0,0,0-1.81-2.91l.53-.35A12.21,12.21,0,0,1,128.27,223.16Z"/><path class="cls-34" d="M135,222.39a22.22,22.22,0,0,1-1.92,4.07l-.54-.45a19.68,19.68,0,0,0,1.86-4Zm0-1.89-.46.48a11.4,11.4,0,0,0-2-1.65l.4-.51A13.19,13.19,0,0,1,135,220.5Zm.23-3.36-.44.53a12.59,12.59,0,0,0-1.85-1.73l.44-.51A16.72,16.72,0,0,1,135.19,217.14Zm1.91,4a10.83,10.83,0,0,1-.37,3.31,4.18,4.18,0,0,1-1.59,2l-.51-.49a3.85,3.85,0,0,0,1.28-1.34,7,7,0,0,0,.53-3.44Zm6.39-.51-.55.43a8.44,8.44,0,0,0-.75-1q-3.69.42-6.4.62l-.16-.65a6.78,6.78,0,0,0,2.52-2.62h-2.61v-.66h3a12.87,12.87,0,0,0,.59-1.33l.68.17c-.08.21-.25.6-.51,1.16h4v.66h-4.35a8.22,8.22,0,0,1-2.09,2.54c1.6-.11,3.21-.25,4.84-.44a9.44,9.44,0,0,0-1.11-1.08l.51-.44A15.11,15.11,0,0,1,143.49,220.64Zm-4.28,5.78h-.65v-5.27h.65Zm4.23-.15h-1.66c-.63,0-.94-.3-.94-.89v-4.23h.63v4.14c0,.23.13.34.38.34h1.59Z"/><path class="cls-34" d="M156,226.1H145.19v-.5h5.09v-.82h-4.34v-.49h4.34v-.8h-4v-2.9h8.63v2.9h-4v.8h4.35v.49h-4.35v.82H156Zm-.09-6.23H145.33v-.5h10.59Zm-1-1.21h-8.64v-2.88H155Zm-4.67,3.15v-.72h-3.36v.72Zm0,1.19v-.72h-3.36V223Zm4-6v-.71h-7.35V217Zm0,1.18v-.71h-7.35v.71Zm0,3.64v-.72h-3.37v.72Zm0,1.19v-.72h-3.37V223Z"/><path class="cls-34" d="M168.61,218.18H161.8c0,.66,0,1.38-.06,2.17h5.35a27.23,27.23,0,0,1-.22,3.4,8.09,8.09,0,0,1-.41,2,1.22,1.22,0,0,1-.55.57,4.54,4.54,0,0,1-1.56.17l-.81,0-.2-.7c.39,0,.78,0,1.17,0a3.1,3.1,0,0,0,1.08-.1.61.61,0,0,0,.3-.33,9.41,9.41,0,0,0,.29-1.62c.12-.92.19-1.82.22-2.71h-4.73a6.91,6.91,0,0,1-3.51,5.38l-.53-.52a7.7,7.7,0,0,0,2.05-1.72,5.28,5.28,0,0,0,1.18-2.3,19.45,19.45,0,0,0,.25-3.67h-3.29v-.67H163a8.49,8.49,0,0,0-1.2-1.79l.63-.3a9.31,9.31,0,0,1,1.33,2.09h4.81Z"/><path class="cls-34" d="M180.64,225.4a.91.91,0,0,1-1,1h-1.74l-.24-.65h2.08a.26.26,0,0,0,.19-.1.24.24,0,0,0,.1-.19v-7.69h-8.41v8.66h-.65v-9.31h2.42a8.46,8.46,0,0,0,1.05-1.72l.66.14a8.52,8.52,0,0,1-.94,1.58h6.52ZM178.1,224h-4.68v-4.45h4.68Zm-.66-.64v-3.16h-3.35v3.16Z"/><path class="cls-34" d="M96.92,241.12a8.46,8.46,0,0,1-2-5.76,8.76,8.76,0,0,1,2-5.85h.92a8.92,8.92,0,0,0-2.07,5.84,8.74,8.74,0,0,0,2.06,5.77Z"/><path class="cls-34" d="M100.14,229.51l-.2,3h-.72l-.2-3Zm2.16,0-.2,3h-.71l-.2-3Z"/><path class="cls-34" d="M115.08,235.72h-2.89a8.73,8.73,0,0,1-1.44,1.88,31.69,31.69,0,0,1,4.13,1.48l-.37.57a26.39,26.39,0,0,0-4.35-1.57,12.12,12.12,0,0,1-5.52,1.54l-.35-.66a13,13,0,0,0,5-1.14c-1.18-.29-2.3-.53-3.39-.74.5-.44,1-.89,1.46-1.36h-3.15v-.6h3.73a12,12,0,0,0,1-1.11l.68.2c-.14.19-.38.49-.74.91h2.9c.06-.1.17-.33.33-.67l.66.06a5.51,5.51,0,0,1-.26.61h2.6Zm-.11-6.09h-3.55v1.24h2.87v2.92h-9.23v-2.92h2.87v-1.24h-3.54V229H115Zm-7,3.54v-1.69h-2.21v1.69Zm3.48,2.55h-3.12c-.33.35-.67.68-1,1,.89.19,1.8.41,2.75.66A6.75,6.75,0,0,0,111.41,235.72Zm-.65-4.85v-1.24h-2.19v1.24Zm0,2.3v-1.69h-2.19v1.69Zm2.88,0v-1.69h-2.22v1.69Z"/><path class="cls-34" d="M121.14,235.55a21.47,21.47,0,0,1-4,3.08l-.38-.56a21,21,0,0,0,4-3.11Zm6.5,2.5-.39.57a9.07,9.07,0,0,1-4.65-3.89v3.9a.77.77,0,0,1-.37.74,3.22,3.22,0,0,1-1.41.2c-.23,0-.46,0-.69,0l-.28-.67c.35,0,.92,0,1.73,0a.33.33,0,0,0,.25-.12.42.42,0,0,0,.11-.25v-7.12h-5.09v-.65h5.09v-2.09h.66v2.09h5v.65h-5v1.82a6.82,6.82,0,0,0,.67,1.32,13.63,13.63,0,0,0,3-2.32l.53.45a15.44,15.44,0,0,1-3.2,2.4A8.65,8.65,0,0,0,127.64,238.05Zm-7.47-3.78-.46.5a11.6,11.6,0,0,0-2.22-2l.45-.49A12.53,12.53,0,0,1,120.17,234.27Zm6.06-4.3-.46.5a9.4,9.4,0,0,0-1.67-1.24l.4-.5A10.59,10.59,0,0,1,126.23,230Z"/><path class="cls-34" d="M130.6,229.51l-.2,3h-.72l-.19-3Zm2.16,0-.2,3h-.71l-.2-3Z"/><path class="cls-34" d="M134,241.12a8.69,8.69,0,0,0,2.05-5.77,8.88,8.88,0,0,0-2.07-5.84h.93a8.72,8.72,0,0,1,2.05,5.85,8.41,8.41,0,0,1-2.05,5.76Z"/><path class="cls-34" d="M97.27,256.46q-.13.57-.39,1.41l-.26.78v8.63H96v-6.87a18,18,0,0,1-1,1.78l-.35-.67a19,19,0,0,0,2-5.25Zm8.37,8.52h-1.81v1.27a1.11,1.11,0,0,1-.25.74q-.24.3-1.14.3a4.63,4.63,0,0,1-.71-.05l-.35-.61a9.45,9.45,0,0,0,1,.06,1.76,1.76,0,0,0,.66-.07.22.22,0,0,0,.13-.2V265h-6v-.56h6v-.74h.68v.74h1.81Zm0-1.44-.43.41-.51-.63-7.31.39-.1-.56L101,263v-.86H98v-3.46h3v-.86H97.46v-.57H101v-.94h.66v.94h3.71v.57h-3.71v.86h3.13v3.46h-.43A9.69,9.69,0,0,1,105.68,263.54ZM101,266.37l-.47.49a16.69,16.69,0,0,0-2.21-1.2l.45-.49A16.72,16.72,0,0,1,101,266.37Zm-.07-6.29v-.89H98.6v.89Zm0,1.45v-.91H98.6v.91Zm3.14-1.45v-.89h-2.48v.89Zm0,1.45v-.91h-2.48v.91Zm.08,1.25a4,4,0,0,0-.55-.5l.22-.18h-2.23v.81C102.44,262.85,103.29,262.8,104.17,262.78Z"/><path class="cls-34" d="M117.64,267.27h-.7v-1.08h-8.41v1.08h-.68V256.59h9.79Zm-.7-1.75v-8.26h-8.41v8.26Zm-1.85-1.94h-4.75v-4.49h4.75Zm-.66-.66v-3.17H111v3.17Z"/><path class="cls-34" d="M124.22,267h-.63v-1.08h-2.7v1.33h-.63V258.4h1.16a11.82,11.82,0,0,0,.89-2.14l.62.12c-.15.44-.43,1.12-.85,2h2.14Zm-.63-5.3V259h-2.7v2.69Zm0,3.59v-3h-2.7v3Zm6.89-6.89q-.07,2.81-.27,5.22a13,13,0,0,1-.4,2.83,1.28,1.28,0,0,1-.52.61,2.65,2.65,0,0,1-1.19.18c-.26,0-.59,0-1,0l-.2-.63,1.11,0c.37,0,.6,0,.71,0a.55.55,0,0,0,.32-.15.81.81,0,0,0,.25-.34,9.91,9.91,0,0,0,.19-1.44c.09-.83.15-1.74.21-2.74s.09-2,.11-2.91h-3.26a17.46,17.46,0,0,1-1.51,2.48l-.51-.37a13.22,13.22,0,0,0,2.32-4.8l.64.17c-.21.66-.44,1.3-.69,1.91Zm-2.3,5.6-.52.37a13.24,13.24,0,0,0-1.82-2.91l.54-.35A12.41,12.41,0,0,1,128.18,264Z"/><path class="cls-34" d="M134.9,263.26a22.14,22.14,0,0,1-1.92,4.06l-.55-.45a19.68,19.68,0,0,0,1.86-4Zm0-1.9-.46.49a11.09,11.09,0,0,0-2-1.66l.41-.51A13.69,13.69,0,0,1,134.87,261.36Zm.22-3.35-.43.52a12.41,12.41,0,0,0-1.85-1.72l.43-.52A15.88,15.88,0,0,1,135.09,258Zm1.92,4a11.21,11.21,0,0,1-.37,3.31,4.08,4.08,0,0,1-1.6,1.95l-.51-.48a3.8,3.8,0,0,0,1.28-1.35,6.9,6.9,0,0,0,.53-3.43Zm6.38-.51-.55.42a9.33,9.33,0,0,0-.75-1q-3.69.42-6.39.62l-.17-.65a6.67,6.67,0,0,0,2.53-2.62h-2.61v-.65h3c.16-.3.35-.75.59-1.34l.67.18c-.07.21-.24.59-.51,1.16h4v.65h-4.34a8.24,8.24,0,0,1-2.09,2.54c1.6-.1,3.21-.25,4.83-.44a9.36,9.36,0,0,0-1.11-1.07l.51-.44A14.43,14.43,0,0,1,143.39,261.51Zm-4.27,5.77h-.65V262h.65Zm4.22-.15h-1.66c-.62,0-.94-.29-.94-.88V262h.64v4.14c0,.22.12.33.38.33h1.58Z"/><path class="cls-34" d="M155.92,267H145.09v-.5h5.09v-.83h-4.34v-.48h4.34v-.8h-4v-2.9h8.62v2.9h-4v.8h4.35v.48h-4.35v.83h5.09Zm-.1-6.24H145.23v-.5h10.59Zm-1-1.21h-8.64v-2.87h8.64Zm-4.68,3.15V262h-3.35v.71Zm0,1.2v-.72h-3.35v.72Zm4-6v-.7h-7.35v.7Zm0,1.18v-.71h-7.35V259Zm0,3.64V262h-3.36v.71Zm0,1.2v-.72h-3.36v.72Z"/><path class="cls-34" d="M168.52,259.05h-6.81c0,.65,0,1.38-.06,2.17H167a27.2,27.2,0,0,1-.22,3.39,8.27,8.27,0,0,1-.4,2,1.17,1.17,0,0,1-.55.57,4.57,4.57,0,0,1-1.57.17h-.81l-.19-.7c.39,0,.77,0,1.16,0a3.18,3.18,0,0,0,1.09-.1.7.7,0,0,0,.3-.33,9,9,0,0,0,.29-1.61,25.49,25.49,0,0,0,.21-2.72h-4.72a6.92,6.92,0,0,1-3.51,5.39l-.54-.53a7.74,7.74,0,0,0,2.06-1.72,5.17,5.17,0,0,0,1.17-2.29,19.41,19.41,0,0,0,.26-3.67h-3.3v-.68H163a9.22,9.22,0,0,0-1.21-1.79l.64-.3a9.19,9.19,0,0,1,1.32,2.09h4.82Z"/><path class="cls-34" d="M180.54,266.26a.9.9,0,0,1-1,1h-1.74l-.24-.65h2.07a.31.31,0,0,0,.29-.28v-7.7h-8.41v8.66h-.65V258h2.43a8.51,8.51,0,0,0,1.05-1.73l.66.14A8.66,8.66,0,0,1,174,258h6.52ZM178,264.88h-4.68v-4.45H178Zm-.66-.63v-3.17H174v3.17Z"/><path class="cls-34" d="M96.82,282a8.42,8.42,0,0,1-2-5.76,8.72,8.72,0,0,1,2-5.84h.93a8.9,8.9,0,0,0-2.08,5.83A8.68,8.68,0,0,0,97.74,282Z"/><path class="cls-34" d="M100.05,270.38l-.2,2.95h-.72l-.2-2.95Zm2.15,0-.19,2.95h-.72l-.2-2.95Z"/><path class="cls-34" d="M114.44,280.47h-.7v-1.08h-8.41v1.08h-.68V269.79h9.79Zm-.7-1.75v-8.26h-8.41v8.26Zm-1.85-1.94h-4.75v-4.49h4.75Zm-.66-.66V273H107.8v3.17Z"/><path class="cls-34" d="M119.75,275.94a6.93,6.93,0,0,1-1,1v3.48h-.62v-3c-.25.2-.59.44-1,.73l-.45-.47a9.89,9.89,0,0,0,2.64-2.17Zm0-2.17a9,9,0,0,1-2.67,1.84l-.38-.5a9.45,9.45,0,0,0,2.56-1.67Zm7.79,6.12-.25.54a17.41,17.41,0,0,1-3.58-.68,21.8,21.8,0,0,1-3.8.76l-.3-.54a20.18,20.18,0,0,0,3.25-.54c-.49-.22-1-.48-1.6-.8a10.12,10.12,0,0,1-1.3.5l-.36-.49a11.11,11.11,0,0,0,1.14-.39,3.27,3.27,0,0,1-.56-.52l.41-.31a4.78,4.78,0,0,0,.72.59,9.1,9.1,0,0,0,1.17-.74H121v-2.44c-.23.17-.54.39-.94.64l-.48-.48a5.85,5.85,0,0,0,2.17-2h-4.19v-1.87h2.89v-.78h-3.55v-.55h10.49v.55h-3.53v.78h2.89V273h-4.29a3.09,3.09,0,0,1-.33.67h5.26v.56h-5.73c-.32.32-.52.51-.59.56h5.65v2.46h-3.31l-.59.5h3.75v.51a9.41,9.41,0,0,1-2,1.15A18.22,18.22,0,0,0,127.52,279.89Zm-7.1-7.39v-.83h-2.24v.83Zm2.79-1.35v-.78H121v.78Zm0,1.35v-.83H121v.83Zm2.84,3.28v-.48h-4.44v.48Zm0,1v-.46h-4.44v.46Zm-.52,1.54H122l-.15.08a11.08,11.08,0,0,0,1.85.84A10.44,10.44,0,0,0,125.53,278.28Zm.53-5.78v-.83h-2.21v.83Z"/><path class="cls-34" d="M130.51,270.38l-.2,2.95h-.72l-.2-2.95Zm2.15,0-.19,2.95h-.72l-.2-2.95Z"/><path class="cls-34" d="M133.88,282a8.68,8.68,0,0,0,2.06-5.77,8.81,8.81,0,0,0-2.08-5.83h.94a8.73,8.73,0,0,1,2,5.84,8.46,8.46,0,0,1-2,5.76Z"/></g></svg>