<svg xmlns="http://www.w3.org/2000/svg" xmlns:xlink="http://www.w3.org/1999/xlink" viewBox="0 0 578 216.17"><defs><style>.cls-1,.cls-2{fill:#fff;}.cls-18,.cls-2{stroke:#e6e6e6;stroke-width:0.75px;}.cls-3{fill:#3c3c41;opacity:0.08;}.cls-29,.cls-3,.cls-30,.cls-31,.cls-35,.cls-36,.cls-37,.cls-38,.cls-46,.cls-47,.cls-54,.cls-55,.cls-56{isolation:isolate;}.cls-4{fill:url(#Degradado_sin_nombre);}.cls-5{fill:#b4ec36;}.cls-6{fill:#5ea0ef;}.cls-7{fill:url(#Degradado_sin_nombre_2);}.cls-8{fill:#50e6ff;}.cls-9{fill:#c3f1ff;}.cls-10{fill:#9cebff;}.cls-11{fill:url(#Degradado_sin_nombre_3);}.cls-12{fill:url(#Degradado_sin_nombre_4);}.cls-13{fill:url(#Degradado_sin_nombre_5);}.cls-14{fill:url(#Degradado_sin_nombre_6);}.cls-15{fill:url(#Degradado_sin_nombre_7);}.cls-16{fill:url(#Degradado_sin_nombre_8);}.cls-17{fill:url(#Degradado_sin_nombre_9);}.cls-18{fill:none;}.cls-19{fill:url(#Degradado_sin_nombre_10);}.cls-20{fill:url(#Degradado_sin_nombre_11);}.cls-21{fill:url(#Degradado_sin_nombre_12);}.cls-22{fill:url(#Degradado_sin_nombre_13);}.cls-23{fill:url(#Degradado_sin_nombre_14);}.cls-24{fill:url(#Degradado_sin_nombre_15);}.cls-25{fill:url(#Degradado_sin_nombre_16);}.cls-26{fill:url(#Degradado_sin_nombre_17);}.cls-27{fill:url(#Degradado_sin_nombre_18);}.cls-28{fill:url(#Degradado_sin_nombre_19);}.cls-29,.cls-30,.cls-31,.cls-35,.cls-36,.cls-37,.cls-38,.cls-46,.cls-47,.cls-54,.cls-55,.cls-56{opacity:0.5;}.cls-29{fill:url(#Degradado_sin_nombre_20);}.cls-30{fill:url(#Degradado_sin_nombre_21);}.cls-31{fill:url(#Degradado_sin_nombre_22);}.cls-32{fill:url(#Degradado_sin_nombre_23);}.cls-33{fill:url(#Degradado_sin_nombre_24);}.cls-34{fill:url(#Degradado_sin_nombre_25);}.cls-35{fill:url(#Degradado_sin_nombre_26);}.cls-36{fill:url(#Degradado_sin_nombre_27);}.cls-37{fill:url(#Degradado_sin_nombre_28);}.cls-38{fill:url(#Degradado_sin_nombre_29);}.cls-39{fill:url(#Degradado_sin_nombre_30);}.cls-40{fill:url(#Degradado_sin_nombre_31);}.cls-41{fill:url(#Degradado_sin_nombre_32);}.cls-42{fill:url(#Degradado_sin_nombre_33);}.cls-43{fill:url(#Degradado_sin_nombre_34);}.cls-44{fill:url(#Degradado_sin_nombre_35);}.cls-45{fill:url(#Degradado_sin_nombre_36);}.cls-46{fill:url(#Degradado_sin_nombre_37);}.cls-47{fill:url(#Degradado_sin_nombre_38);}.cls-48{fill:url(#Degradado_sin_nombre_39);}.cls-49{fill:url(#Degradado_sin_nombre_40);}.cls-50{fill:url(#Degradado_sin_nombre_41);}.cls-51{fill:url(#Degradado_sin_nombre_42);}.cls-52{fill:url(#Degradado_sin_nombre_43);}.cls-53{fill:url(#Degradado_sin_nombre_44);}.cls-54{fill:url(#Degradado_sin_nombre_45);}.cls-55{fill:url(#Degradado_sin_nombre_46);}.cls-56{fill:url(#Degradado_sin_nombre_47);}.cls-57{fill:#e62323;}.cls-58{fill:#e6e6e6;}.cls-59{fill:#107c10;}.cls-60{fill:#faa21d;}.cls-61{fill:url(#Degradado_sin_nombre_48);}.cls-62{fill:url(#Degradado_sin_nombre_49);}.cls-63{fill:url(#Degradado_sin_nombre_50);}.cls-64{fill:url(#Degradado_sin_nombre_51);}.cls-65{fill:url(#Degradado_sin_nombre_52);}.cls-66{fill:url(#Degradado_sin_nombre_53);}.cls-67{fill:url(#Degradado_sin_nombre_54);}.cls-68{fill:url(#Degradado_sin_nombre_55);}.cls-69{fill:url(#Degradado_sin_nombre_56);}.cls-70{fill:url(#Degradado_sin_nombre_57);}.cls-71{fill:url(#Degradado_sin_nombre_58);}.cls-72{fill:url(#Degradado_sin_nombre_59);}.cls-73{fill:url(#Degradado_sin_nombre_60);}.cls-74{fill:url(#Degradado_sin_nombre_61);}.cls-75{fill:url(#Degradado_sin_nombre_62);}.cls-76{fill:url(#Degradado_sin_nombre_63);}.cls-77{fill:url(#Degradado_sin_nombre_64);}.cls-78{fill:url(#Degradado_sin_nombre_65);}.cls-79{fill:url(#Degradado_sin_nombre_66);}.cls-80{fill:url(#Degradado_sin_nombre_67);}.cls-81{fill:url(#Degradado_sin_nombre_68);}.cls-82{fill:url(#Degradado_sin_nombre_69);}.cls-83{fill:url(#Degradado_sin_nombre_70);}.cls-84{fill:url(#Degradado_sin_nombre_71);}.cls-85{fill:url(#Degradado_sin_nombre_72);}.cls-86{fill:url(#Degradado_sin_nombre_73);}.cls-87{fill:url(#Degradado_sin_nombre_74);}.cls-88{fill:url(#Degradado_sin_nombre_75);}.cls-89{fill:url(#Degradado_sin_nombre_76);}.cls-90{fill:url(#Degradado_sin_nombre_77);}.cls-91{fill:url(#Degradado_sin_nombre_78);}.cls-92{fill:url(#Degradado_sin_nombre_79);}.cls-93{fill:url(#Degradado_sin_nombre_80);}.cls-94{fill:#6ebcdb;}.cls-95{fill:#5db4d7;}.cls-96{fill:#86d633;}.cls-97{fill:#1e1e1e;}.cls-98{fill:#3b3b3b;}</style><linearGradient id="Degradado_sin_nombre" x1="36.12" y1="210.23" x2="36.12" y2="170.82" gradientTransform="translate(0 -162.33)" gradientUnits="userSpaceOnUse"><stop offset="0" stop-color="#5e9624"/><stop offset="0.02" stop-color="#5f9724"/><stop offset="1" stop-color="#76bc2d"/></linearGradient><linearGradient id="Degradado_sin_nombre_2" x1="85.83" y1="324.45" x2="85.83" y2="312.9" gradientTransform="translate(0 -162.33)" gradientUnits="userSpaceOnUse"><stop offset="0" stop-color="#0078d4"/><stop offset="0.82" stop-color="#5ea0ef"/></linearGradient><linearGradient id="Degradado_sin_nombre_3" x1="85.83" y1="328.9" x2="85.83" y2="324.44" gradientTransform="translate(0 -162.33)" gradientUnits="userSpaceOnUse"><stop offset="0.15" stop-color="#ccc"/><stop offset="1" stop-color="#707070"/></linearGradient><linearGradient id="Degradado_sin_nombre_4" x1="142.21" y1="324.45" x2="142.21" y2="312.9" xlink:href="#Degradado_sin_nombre_2"/><linearGradient id="Degradado_sin_nombre_5" x1="142.21" y1="328.9" x2="142.21" y2="324.44" xlink:href="#Degradado_sin_nombre_3"/><linearGradient id="Degradado_sin_nombre_6" x1="197.38" y1="324.45" x2="197.38" y2="312.9" xlink:href="#Degradado_sin_nombre_2"/><linearGradient id="Degradado_sin_nombre_7" x1="197.38" y1="328.9" x2="197.38" y2="324.44" xlink:href="#Degradado_sin_nombre_3"/><linearGradient id="Degradado_sin_nombre_8" x1="252.4" y1="324.45" x2="252.4" y2="312.9" xlink:href="#Degradado_sin_nombre_2"/><linearGradient id="Degradado_sin_nombre_9" x1="252.4" y1="328.9" x2="252.4" y2="324.44" xlink:href="#Degradado_sin_nombre_3"/><linearGradient id="Degradado_sin_nombre_10" x1="81.17" y1="120.49" x2="81.17" y2="130.49" gradientTransform="matrix(1, 0, 0, -1, 0, 216.66)" gradientUnits="userSpaceOnUse"><stop offset="0" stop-color="#0078d4"/><stop offset="0.16" stop-color="#1380da"/><stop offset="0.53" stop-color="#3c91e5"/><stop offset="0.82" stop-color="#559cec"/><stop offset="1" stop-color="#5ea0ef"/></linearGradient><linearGradient id="Degradado_sin_nombre_11" x1="96.17" y1="120.49" x2="96.17" y2="130.49" xlink:href="#Degradado_sin_nombre_10"/><linearGradient id="Degradado_sin_nombre_12" x1="111.17" y1="120.49" x2="111.17" y2="130.49" xlink:href="#Degradado_sin_nombre_10"/><linearGradient id="Degradado_sin_nombre_13" x1="81.17" y1="105.49" x2="81.17" y2="115.49" xlink:href="#Degradado_sin_nombre_10"/><linearGradient id="Degradado_sin_nombre_14" x1="17.66" y1="7.99" x2="17.66" y2="17.99" xlink:href="#Degradado_sin_nombre_10"/><linearGradient id="Degradado_sin_nombre_15" x1="96.17" y1="105.49" x2="96.17" y2="115.49" xlink:href="#Degradado_sin_nombre_10"/><linearGradient id="Degradado_sin_nombre_16" x1="111.17" y1="105.49" x2="111.17" y2="115.49" xlink:href="#Degradado_sin_nombre_10"/><linearGradient id="Degradado_sin_nombre_17" x1="81.17" y1="135.49" x2="81.17" y2="145.49" xlink:href="#Degradado_sin_nombre_10"/><linearGradient id="Degradado_sin_nombre_18" x1="96.17" y1="135.49" x2="96.17" y2="145.49" xlink:href="#Degradado_sin_nombre_10"/><linearGradient id="Degradado_sin_nombre_19" x1="111.17" y1="135.49" x2="111.17" y2="145.49" xlink:href="#Degradado_sin_nombre_10"/><linearGradient id="Degradado_sin_nombre_20" x1="136.17" y1="120.49" x2="136.17" y2="130.49" xlink:href="#Degradado_sin_nombre_10"/><linearGradient id="Degradado_sin_nombre_21" x1="151.17" y1="120.49" x2="151.17" y2="130.49" xlink:href="#Degradado_sin_nombre_10"/><linearGradient id="Degradado_sin_nombre_22" x1="166.17" y1="120.49" x2="166.17" y2="130.49" xlink:href="#Degradado_sin_nombre_10"/><linearGradient id="Degradado_sin_nombre_23" x1="136.17" y1="105.49" x2="136.17" y2="115.49" xlink:href="#Degradado_sin_nombre_10"/><linearGradient id="Degradado_sin_nombre_24" x1="151.17" y1="105.49" x2="151.17" y2="115.49" xlink:href="#Degradado_sin_nombre_10"/><linearGradient id="Degradado_sin_nombre_25" x1="166.17" y1="105.49" x2="166.17" y2="115.49" xlink:href="#Degradado_sin_nombre_10"/><linearGradient id="Degradado_sin_nombre_26" x1="136.17" y1="135.49" x2="136.17" y2="145.49" xlink:href="#Degradado_sin_nombre_10"/><linearGradient id="Degradado_sin_nombre_27" x1="17.66" y1="22.99" x2="17.66" y2="32.99" xlink:href="#Degradado_sin_nombre_10"/><linearGradient id="Degradado_sin_nombre_28" x1="151.17" y1="135.49" x2="151.17" y2="145.49" xlink:href="#Degradado_sin_nombre_10"/><linearGradient id="Degradado_sin_nombre_29" x1="166.17" y1="135.49" x2="166.17" y2="145.49" xlink:href="#Degradado_sin_nombre_10"/><linearGradient id="Degradado_sin_nombre_30" x1="191.17" y1="120.49" x2="191.17" y2="130.49" xlink:href="#Degradado_sin_nombre_10"/><linearGradient id="Degradado_sin_nombre_31" x1="206.17" y1="120.49" x2="206.17" y2="130.49" xlink:href="#Degradado_sin_nombre_10"/><linearGradient id="Degradado_sin_nombre_32" x1="221.17" y1="120.49" x2="221.17" y2="130.49" xlink:href="#Degradado_sin_nombre_10"/><linearGradient id="Degradado_sin_nombre_33" x1="191.17" y1="105.49" x2="191.17" y2="115.49" xlink:href="#Degradado_sin_nombre_10"/><linearGradient id="Degradado_sin_nombre_34" x1="206.17" y1="105.49" x2="206.17" y2="115.49" xlink:href="#Degradado_sin_nombre_10"/><linearGradient id="Degradado_sin_nombre_35" x1="221.17" y1="105.49" x2="221.17" y2="115.49" xlink:href="#Degradado_sin_nombre_10"/><linearGradient id="Degradado_sin_nombre_36" x1="191.17" y1="135.49" x2="191.17" y2="145.49" xlink:href="#Degradado_sin_nombre_10"/><linearGradient id="Degradado_sin_nombre_37" x1="206.17" y1="135.49" x2="206.17" y2="145.49" xlink:href="#Degradado_sin_nombre_10"/><linearGradient id="Degradado_sin_nombre_38" x1="221.17" y1="135.49" x2="221.17" y2="145.49" xlink:href="#Degradado_sin_nombre_10"/><linearGradient id="Degradado_sin_nombre_39" x1="246.17" y1="120.49" x2="246.17" y2="130.49" xlink:href="#Degradado_sin_nombre_10"/><linearGradient id="Degradado_sin_nombre_40" x1="261.17" y1="120.49" x2="261.17" y2="130.49" xlink:href="#Degradado_sin_nombre_10"/><linearGradient id="Degradado_sin_nombre_41" x1="276.17" y1="120.49" x2="276.17" y2="130.49" xlink:href="#Degradado_sin_nombre_10"/><linearGradient id="Degradado_sin_nombre_42" x1="246.17" y1="105.49" x2="246.17" y2="115.49" xlink:href="#Degradado_sin_nombre_10"/><linearGradient id="Degradado_sin_nombre_43" x1="261.17" y1="105.49" x2="261.17" y2="115.49" xlink:href="#Degradado_sin_nombre_10"/><linearGradient id="Degradado_sin_nombre_44" x1="276.17" y1="105.49" x2="276.17" y2="115.49" xlink:href="#Degradado_sin_nombre_10"/><linearGradient id="Degradado_sin_nombre_45" x1="246.17" y1="135.49" x2="246.17" y2="145.49" xlink:href="#Degradado_sin_nombre_10"/><linearGradient id="Degradado_sin_nombre_46" x1="261.17" y1="135.49" x2="261.17" y2="145.49" xlink:href="#Degradado_sin_nombre_10"/><linearGradient id="Degradado_sin_nombre_47" x1="276.17" y1="135.49" x2="276.17" y2="145.49" xlink:href="#Degradado_sin_nombre_10"/><linearGradient id="Degradado_sin_nombre_48" x1="308.33" y1="324.45" x2="308.33" y2="312.9" xlink:href="#Degradado_sin_nombre_2"/><linearGradient id="Degradado_sin_nombre_49" x1="308.33" y1="328.9" x2="308.33" y2="324.44" xlink:href="#Degradado_sin_nombre_3"/><linearGradient id="Degradado_sin_nombre_50" x1="364.71" y1="324.45" x2="364.71" y2="312.9" xlink:href="#Degradado_sin_nombre_2"/><linearGradient id="Degradado_sin_nombre_51" x1="364.69" y1="328.9" x2="364.69" y2="324.44" xlink:href="#Degradado_sin_nombre_3"/><linearGradient id="Degradado_sin_nombre_52" x1="419.88" y1="324.45" x2="419.88" y2="312.9" xlink:href="#Degradado_sin_nombre_2"/><linearGradient id="Degradado_sin_nombre_53" x1="419.88" y1="328.9" x2="419.88" y2="324.44" xlink:href="#Degradado_sin_nombre_3"/><linearGradient id="Degradado_sin_nombre_54" x1="474.9" y1="324.45" x2="474.9" y2="312.9" xlink:href="#Degradado_sin_nombre_2"/><linearGradient id="Degradado_sin_nombre_55" x1="474.9" y1="328.9" x2="474.9" y2="324.44" xlink:href="#Degradado_sin_nombre_3"/><linearGradient id="Degradado_sin_nombre_56" x1="303.67" y1="120.49" x2="303.67" y2="130.49" xlink:href="#Degradado_sin_nombre_10"/><linearGradient id="Degradado_sin_nombre_57" x1="318.67" y1="120.49" x2="318.67" y2="130.49" xlink:href="#Degradado_sin_nombre_10"/><linearGradient id="Degradado_sin_nombre_58" x1="333.67" y1="120.49" x2="333.67" y2="130.49" xlink:href="#Degradado_sin_nombre_10"/><linearGradient id="Degradado_sin_nombre_59" x1="303.67" y1="105.49" x2="303.67" y2="115.49" xlink:href="#Degradado_sin_nombre_10"/><linearGradient id="Degradado_sin_nombre_60" x1="318.67" y1="105.49" x2="318.67" y2="115.49" xlink:href="#Degradado_sin_nombre_10"/><linearGradient id="Degradado_sin_nombre_61" x1="333.67" y1="105.49" x2="333.67" y2="115.49" xlink:href="#Degradado_sin_nombre_10"/><linearGradient id="Degradado_sin_nombre_62" x1="303.67" y1="135.49" x2="303.67" y2="145.49" xlink:href="#Degradado_sin_nombre_10"/><linearGradient id="Degradado_sin_nombre_63" x1="318.67" y1="135.49" x2="318.67" y2="145.49" xlink:href="#Degradado_sin_nombre_10"/><linearGradient id="Degradado_sin_nombre_64" x1="333.67" y1="135.49" x2="333.67" y2="145.49" xlink:href="#Degradado_sin_nombre_10"/><linearGradient id="Degradado_sin_nombre_65" x1="358.67" y1="105.49" x2="358.67" y2="115.49" xlink:href="#Degradado_sin_nombre_10"/><linearGradient id="Degradado_sin_nombre_66" x1="373.67" y1="105.49" x2="373.67" y2="115.49" xlink:href="#Degradado_sin_nombre_10"/><linearGradient id="Degradado_sin_nombre_67" x1="388.67" y1="105.49" x2="388.67" y2="115.49" xlink:href="#Degradado_sin_nombre_10"/><linearGradient id="Degradado_sin_nombre_68" x1="413.67" y1="120.49" x2="413.67" y2="130.49" xlink:href="#Degradado_sin_nombre_10"/><linearGradient id="Degradado_sin_nombre_69" x1="428.67" y1="120.49" x2="428.67" y2="130.49" xlink:href="#Degradado_sin_nombre_10"/><linearGradient id="Degradado_sin_nombre_70" x1="443.67" y1="120.49" x2="443.67" y2="130.49" xlink:href="#Degradado_sin_nombre_10"/><linearGradient id="Degradado_sin_nombre_71" x1="413.67" y1="105.49" x2="413.67" y2="115.49" xlink:href="#Degradado_sin_nombre_10"/><linearGradient id="Degradado_sin_nombre_72" x1="428.67" y1="105.49" x2="428.67" y2="115.49" xlink:href="#Degradado_sin_nombre_10"/><linearGradient id="Degradado_sin_nombre_73" x1="443.67" y1="105.49" x2="443.67" y2="115.49" xlink:href="#Degradado_sin_nombre_10"/><linearGradient id="Degradado_sin_nombre_74" x1="413.67" y1="135.49" x2="413.67" y2="145.49" xlink:href="#Degradado_sin_nombre_10"/><linearGradient id="Degradado_sin_nombre_75" x1="468.67" y1="120.49" x2="468.67" y2="130.49" xlink:href="#Degradado_sin_nombre_10"/><linearGradient id="Degradado_sin_nombre_76" x1="483.67" y1="120.49" x2="483.67" y2="130.49" xlink:href="#Degradado_sin_nombre_10"/><linearGradient id="Degradado_sin_nombre_77" x1="498.67" y1="120.49" x2="498.67" y2="130.49" xlink:href="#Degradado_sin_nombre_10"/><linearGradient id="Degradado_sin_nombre_78" x1="468.67" y1="105.49" x2="468.67" y2="115.49" xlink:href="#Degradado_sin_nombre_10"/><linearGradient id="Degradado_sin_nombre_79" x1="483.67" y1="105.49" x2="483.67" y2="115.49" xlink:href="#Degradado_sin_nombre_10"/><linearGradient id="Degradado_sin_nombre_80" x1="498.67" y1="105.49" x2="498.67" y2="115.49" xlink:href="#Degradado_sin_nombre_10"/></defs><title>OJ104903204</title><g id="Target"><rect class="cls-1" width="578" height="216.17"/><rect class="cls-2" x="291.17" y="1.17" width="285.67" height="175"/><rect class="cls-2" x="1.17" y="1.17" width="285" height="175"/><rect class="cls-1" x="291.83" y="1.17" width="285" height="55"/><rect class="cls-3" x="291.83" y="1.17" width="285" height="55"/><rect class="cls-1" x="1.17" y="1.17" width="285" height="55"/><rect class="cls-3" x="1.17" y="1.17" width="285" height="55"/><path class="cls-4" d="M19.47,26.6,35.31,10.76a1.15,1.15,0,0,1,1.61,0h0L52.78,26.6a1.15,1.15,0,0,1,0,1.61h0L36.92,44.09a1.14,1.14,0,0,1-1.59,0L19.47,28.23a1.13,1.13,0,0,1,0-1.6h0Z"/><path class="cls-5" d="M40.28,18l-4-4A.24.24,0,0,0,36,14l-4,4a.19.19,0,0,0,0,.27.18.18,0,0,0,.19.07h2.34a.21.21,0,0,1,.21.21V22.3a.21.21,0,0,0,.21.21H37.4a.21.21,0,0,0,.21-.21V18.52a.21.21,0,0,1,.21-.21h2.34a.19.19,0,0,0,.23-.13A.19.19,0,0,0,40.28,18Z"/><path class="cls-5" d="M26.68,22.9l-4,4a.19.19,0,0,0,0,.27h0l4,4a.22.22,0,0,0,.3,0h0A.22.22,0,0,0,27,31V28.72a.23.23,0,0,1,.21-.21H31a.2.2,0,0,0,.19-.19h0V25.81a.2.2,0,0,0-.07-.26H27.31a.19.19,0,0,1-.21-.17h0V23.05a.22.22,0,0,0-.13-.28A.23.23,0,0,0,26.68,22.9Z"/><path class="cls-5" d="M45.72,31.19l4-4a.19.19,0,0,0,0-.27h0l-4-4a.22.22,0,0,0-.3,0,.28.28,0,0,0,0,.12v2.36a.18.18,0,0,1-.17.19H41.4a.2.2,0,0,0-.19.19v2.5a.19.19,0,0,0,.17.21h3.79a.21.21,0,0,1,.21.21v2.34a.2.2,0,0,0,.22.18h0A.16.16,0,0,0,45.72,31.19Z"/><path class="cls-1" d="M41.4,27.42a5.27,5.27,0,1,0-6.69,5v1.79a3.23,3.23,0,1,0,4.35,1.39h0a3.33,3.33,0,0,0-1.39-1.39V32.36A5.24,5.24,0,0,0,41.4,27.42Z"/><circle id="e99c3387-15c3-4f28-bd4b-cb209b430e06" class="cls-6" cx="36.14" cy="27.4" r="3.06"/><rect class="cls-7" x="77.17" y="150.57" width="17.32" height="11.55" rx="0.58"/><polygon class="cls-8" points="88.71 154.66 88.71 158.02 85.83 159.71 85.83 156.34 88.71 154.66"/><polygon class="cls-9" points="88.71 154.66 85.83 156.35 82.94 154.66 85.83 152.98 88.71 154.66"/><polygon class="cls-10" points="85.83 156.35 85.83 159.71 82.94 158.02 82.94 154.66 85.83 156.35"/><polygon class="cls-9" points="82.94 158.02 85.83 156.34 85.83 159.71 82.94 158.02"/><polygon class="cls-10" points="88.71 158.02 85.83 156.34 85.83 159.71 88.71 158.02"/><path class="cls-11" d="M89.3,165.61c-1.71-.27-1.78-1.5-1.78-3.49h-3.4c0,2-.05,3.22-1.77,3.49a1,1,0,0,0-.85,1h8.66A1,1,0,0,0,89.3,165.61Z"/><rect class="cls-12" x="133.55" y="150.57" width="17.32" height="11.55" rx="0.58"/><polygon class="cls-8" points="145.09 154.66 145.09 158.02 142.21 159.71 142.21 156.34 145.09 154.66"/><polygon class="cls-9" points="145.09 154.66 142.21 156.35 139.32 154.66 142.21 152.98 145.09 154.66"/><polygon class="cls-10" points="142.21 156.35 142.21 159.71 139.32 158.02 139.32 154.66 142.21 156.35"/><polygon class="cls-9" points="139.32 158.02 142.21 156.34 142.21 159.71 139.32 158.02"/><polygon class="cls-10" points="145.09 158.02 142.21 156.34 142.21 159.71 145.09 158.02"/><path class="cls-13" d="M145.68,165.61c-1.71-.27-1.78-1.5-1.78-3.49h-3.39c0,2-.06,3.22-1.77,3.49a1,1,0,0,0-.86,1h8.66A1,1,0,0,0,145.68,165.61Z"/><rect class="cls-14" x="188.72" y="150.57" width="17.32" height="11.55" rx="0.58"/><polygon class="cls-8" points="200.26 154.66 200.26 158.02 197.38 159.71 197.38 156.34 200.26 154.66"/><polygon class="cls-9" points="200.26 154.66 197.38 156.35 194.49 154.66 197.38 152.98 200.26 154.66"/><polygon class="cls-10" points="197.38 156.35 197.38 159.71 194.49 158.02 194.49 154.66 197.38 156.35"/><polygon class="cls-9" points="194.49 158.02 197.38 156.34 197.38 159.71 194.49 158.02"/><polygon class="cls-10" points="200.26 158.02 197.38 156.34 197.38 159.71 200.26 158.02"/><path class="cls-15" d="M200.85,165.61c-1.71-.27-1.78-1.5-1.78-3.49h-3.4c0,2-.06,3.22-1.77,3.49a1,1,0,0,0-.85,1h8.65A1,1,0,0,0,200.85,165.61Z"/><rect class="cls-16" x="243.74" y="150.57" width="17.32" height="11.55" rx="0.58"/><polygon class="cls-8" points="255.28 154.66 255.28 158.02 252.4 159.71 252.4 156.34 255.28 154.66"/><polygon class="cls-9" points="255.28 154.66 252.4 156.35 249.51 154.66 252.4 152.98 255.28 154.66"/><polygon class="cls-10" points="252.4 156.35 252.4 159.71 249.51 158.02 249.51 154.66 252.4 156.35"/><polygon class="cls-9" points="249.51 158.02 252.4 156.34 252.4 159.71 249.51 158.02"/><polygon class="cls-10" points="255.28 158.02 252.4 156.34 252.4 159.71 255.28 158.02"/><path class="cls-17" d="M255.87,165.61c-1.71-.27-1.78-1.5-1.78-3.49h-3.4c0,2-.05,3.22-1.77,3.49a1,1,0,0,0-.85,1h8.66A1,1,0,0,0,255.87,165.61Z"/><line class="cls-18" x1="1.17" y1="121.17" x2="286.17" y2="121.17"/><circle class="cls-19" cx="81.17" cy="91.17" r="5"/><circle class="cls-20" cx="96.17" cy="91.17" r="5"/><circle class="cls-21" cx="111.17" cy="91.17" r="5"/><circle class="cls-22" cx="81.17" cy="106.17" r="5"/><circle class="cls-23" cx="17.66" cy="203.67" r="5"/><circle class="cls-24" cx="96.17" cy="106.17" r="5"/><circle class="cls-25" cx="111.17" cy="106.17" r="5"/><circle class="cls-26" cx="81.17" cy="76.17" r="5"/><circle class="cls-27" cx="96.17" cy="76.17" r="5"/><circle class="cls-28" cx="111.17" cy="76.17" r="5"/><circle class="cls-29" cx="136.17" cy="91.17" r="5"/><circle class="cls-30" cx="151.17" cy="91.17" r="5"/><circle class="cls-31" cx="166.17" cy="91.17" r="5"/><circle class="cls-32" cx="136.17" cy="106.17" r="5"/><circle class="cls-33" cx="151.17" cy="106.17" r="5"/><circle class="cls-34" cx="166.17" cy="106.17" r="5"/><circle class="cls-35" cx="136.17" cy="76.17" r="5"/><circle class="cls-36" cx="17.66" cy="188.67" r="5"/><circle class="cls-37" cx="151.17" cy="76.17" r="5"/><circle class="cls-38" cx="166.17" cy="76.17" r="5"/><circle class="cls-39" cx="191.17" cy="91.17" r="5"/><circle class="cls-40" cx="206.17" cy="91.17" r="5"/><circle class="cls-41" cx="221.17" cy="91.17" r="5"/><circle class="cls-42" cx="191.17" cy="106.17" r="5"/><circle class="cls-43" cx="206.17" cy="106.17" r="5"/><circle class="cls-44" cx="221.17" cy="106.17" r="5"/><circle class="cls-45" cx="191.17" cy="76.17" r="5"/><circle class="cls-46" cx="206.17" cy="76.17" r="5"/><circle class="cls-47" cx="221.17" cy="76.17" r="5"/><circle class="cls-48" cx="246.17" cy="91.17" r="5"/><circle class="cls-49" cx="261.17" cy="91.17" r="5"/><circle class="cls-50" cx="276.17" cy="91.17" r="5"/><circle class="cls-51" cx="246.17" cy="106.17" r="5"/><circle class="cls-52" cx="261.17" cy="106.17" r="5"/><circle class="cls-53" cx="276.17" cy="106.17" r="5"/><circle class="cls-54" cx="246.17" cy="76.17" r="5"/><circle class="cls-55" cx="261.17" cy="76.17" r="5"/><circle class="cls-56" cx="276.17" cy="76.17" r="5"/><rect class="cls-57" x="76.53" y="131.17" width="40" height="10"/><rect class="cls-58" x="131.72" y="131.17" width="40" height="10"/><rect class="cls-59" x="131.72" y="131.17" width="10" height="10"/><rect class="cls-58" x="186.72" y="131.17" width="40" height="10"/><rect class="cls-60" x="186.72" y="131.17" width="25" height="10"/><rect class="cls-58" x="241.72" y="131.17" width="40" height="10"/><rect class="cls-59" x="241.72" y="131.17" width="25" height="10"/><line class="cls-18" x1="71.17" y1="56.17" x2="71.17" y2="176.17"/><line class="cls-18" x1="125.04" y1="56.17" x2="125.04" y2="176.17"/><line class="cls-18" x1="178.92" y1="56.17" x2="178.92" y2="176.17"/><line class="cls-18" x1="232.79" y1="56.17" x2="232.79" y2="176.17"/><rect class="cls-61" x="299.67" y="150.57" width="17.32" height="11.55" rx="0.58"/><polygon class="cls-8" points="311.21 154.66 311.21 158.02 308.33 159.71 308.33 156.34 311.21 154.66"/><polygon class="cls-9" points="311.21 154.66 308.33 156.35 305.44 154.66 308.33 152.98 311.21 154.66"/><polygon class="cls-10" points="308.33 156.35 308.33 159.71 305.44 158.02 305.44 154.66 308.33 156.35"/><polygon class="cls-9" points="305.44 158.02 308.33 156.34 308.33 159.71 305.44 158.02"/><polygon class="cls-10" points="311.21 158.02 308.33 156.34 308.33 159.71 311.21 158.02"/><path class="cls-62" d="M311.8,165.61c-1.71-.27-1.78-1.5-1.78-3.49h-3.4c0,2-.05,3.22-1.77,3.49a1,1,0,0,0-.85,1h8.66A1,1,0,0,0,311.8,165.61Z"/><rect class="cls-63" x="356.05" y="150.57" width="17.32" height="11.55" rx="0.58"/><polygon class="cls-8" points="367.6 154.66 367.6 158.02 364.71 159.71 364.71 156.34 367.6 154.66"/><polygon class="cls-9" points="367.6 154.66 364.71 156.35 361.82 154.66 364.71 152.98 367.6 154.66"/><polygon class="cls-10" points="364.71 156.35 364.71 159.71 361.82 158.02 361.82 154.66 364.71 156.35"/><polygon class="cls-9" points="361.82 158.02 364.71 156.34 364.71 159.71 361.82 158.02"/><polygon class="cls-10" points="367.6 158.02 364.71 156.34 364.71 159.71 367.6 158.02"/><path class="cls-64" d="M368.18,165.61c-1.71-.27-1.78-1.5-1.78-3.49H363c0,2-.06,3.22-1.77,3.49a1,1,0,0,0-.86,1H369A1,1,0,0,0,368.18,165.61Z"/><rect class="cls-65" x="411.22" y="150.57" width="17.32" height="11.55" rx="0.58"/><polygon class="cls-8" points="422.76 154.66 422.76 158.02 419.88 159.71 419.88 156.34 422.76 154.66"/><polygon class="cls-9" points="422.76 154.66 419.88 156.35 416.99 154.66 419.88 152.98 422.76 154.66"/><polygon class="cls-10" points="419.88 156.35 419.88 159.71 416.99 158.02 416.99 154.66 419.88 156.35"/><polygon class="cls-9" points="416.99 158.02 419.88 156.34 419.88 159.71 416.99 158.02"/><polygon class="cls-10" points="422.76 158.02 419.88 156.34 419.88 159.71 422.76 158.02"/><path class="cls-66" d="M423.35,165.61c-1.71-.27-1.78-1.5-1.78-3.49h-3.4c0,2-.06,3.22-1.77,3.49a1,1,0,0,0-.85,1h8.65A1,1,0,0,0,423.35,165.61Z"/><rect class="cls-67" x="466.24" y="150.57" width="17.32" height="11.55" rx="0.58"/><polygon class="cls-8" points="477.78 154.66 477.78 158.02 474.9 159.71 474.9 156.34 477.78 154.66"/><polygon class="cls-9" points="477.78 154.66 474.9 156.35 472.01 154.66 474.9 152.98 477.78 154.66"/><polygon class="cls-10" points="474.9 156.35 474.9 159.71 472.01 158.02 472.01 154.66 474.9 156.35"/><polygon class="cls-9" points="472.01 158.02 474.9 156.34 474.9 159.71 472.01 158.02"/><polygon class="cls-10" points="477.78 158.02 474.9 156.34 474.9 159.71 477.78 158.02"/><path class="cls-68" d="M478.37,165.61c-1.71-.27-1.78-1.5-1.78-3.49h-3.4c0,2-.05,3.22-1.77,3.49a1,1,0,0,0-.85,1h8.66A1,1,0,0,0,478.37,165.61Z"/><line class="cls-18" x1="291.17" y1="121.17" x2="576.83" y2="121.17"/><circle class="cls-69" cx="303.67" cy="91.17" r="5"/><circle class="cls-70" cx="318.67" cy="91.17" r="5"/><circle class="cls-71" cx="333.67" cy="91.17" r="5"/><circle class="cls-72" cx="303.67" cy="106.17" r="5"/><circle class="cls-73" cx="318.67" cy="106.17" r="5"/><circle class="cls-74" cx="333.67" cy="106.17" r="5"/><circle class="cls-75" cx="303.67" cy="76.17" r="5"/><circle class="cls-76" cx="318.67" cy="76.17" r="5"/><circle class="cls-77" cx="333.67" cy="76.17" r="5"/><circle class="cls-78" cx="358.67" cy="106.17" r="5"/><circle class="cls-79" cx="373.67" cy="106.17" r="5"/><circle class="cls-80" cx="388.67" cy="106.17" r="5"/><circle class="cls-81" cx="413.67" cy="91.17" r="5"/><circle class="cls-82" cx="428.67" cy="91.17" r="5"/><circle class="cls-83" cx="443.67" cy="91.17" r="5"/><circle class="cls-84" cx="413.67" cy="106.17" r="5"/><circle class="cls-85" cx="428.67" cy="106.17" r="5"/><circle class="cls-86" cx="443.67" cy="106.17" r="5"/><circle class="cls-87" cx="413.67" cy="76.17" r="5"/><circle class="cls-88" cx="468.67" cy="91.17" r="5"/><circle class="cls-89" cx="483.67" cy="91.17" r="5"/><circle class="cls-90" cx="498.67" cy="91.17" r="5"/><circle class="cls-91" cx="468.67" cy="106.17" r="5"/><circle class="cls-92" cx="483.67" cy="106.17" r="5"/><circle class="cls-93" cx="498.67" cy="106.17" r="5"/><rect class="cls-59" x="299.03" y="131.17" width="40" height="10"/><rect class="cls-58" x="354.22" y="131.17" width="40" height="10"/><rect class="cls-59" x="354.22" y="131.17" width="10" height="10"/><rect class="cls-58" x="409.22" y="131.17" width="40" height="10"/><rect class="cls-59" x="409.22" y="131.17" width="25" height="10"/><rect class="cls-58" x="464.22" y="131.17" width="40" height="10"/><rect class="cls-59" x="464.22" y="131.17" width="25" height="10"/><line class="cls-18" x1="347.54" y1="56.17" x2="347.54" y2="176.17"/><line class="cls-18" x1="401.42" y1="56.17" x2="401.42" y2="176.17"/><line class="cls-18" x1="455.29" y1="56.17" x2="455.29" y2="176.17"/><line class="cls-18" x1="511.83" y1="56.17" x2="511.83" y2="176.17"/><g id="ad94e297-0e86-4eaf-aac0-d146ee9aea65"><path class="cls-94" d="M313.87,35.34,308.73,30a2.45,2.45,0,0,1-.85.15,2.66,2.66,0,1,1,2.45-3.64h5.07v1.77h-5a4.51,4.51,0,0,1-.29.63l4.75,4.89,2.57-3.91V17.66H314l4.36-4.42,4.33,4.42h-3.46v9.58l6.5-9.92-6.55-6.56a1.15,1.15,0,0,0-1.61,0h0L301.68,26.61a1.15,1.15,0,0,0,0,1.61h0l15.87,15.87-5.67-5.67Z"/><path class="cls-95" d="M317.44,35.57V29.9l-2.57,3.93,1.89,2A1.88,1.88,0,0,1,317.44,35.57Z"/><path class="cls-95" d="M335,26.61l-9.3-9.29-6.5,9.92v8.35a2.25,2.25,0,0,1,.59.32l6.82-6.9a3,3,0,0,1-.34-.7h-5.12V26.54h5.2a2.64,2.64,0,1,1,2.45,3.64,2.58,2.58,0,0,1-.73-.11l-7.26,7.31a2.25,2.25,0,0,1,.11.68,2.66,2.66,0,0,1-5.32.21h0a2.44,2.44,0,0,1,.15-1l-1.89-1.89-2,3,5.67,5.67a1.14,1.14,0,0,0,1.59,0L335,28.22a1.13,1.13,0,0,0,0-1.6h0Z"/><path class="cls-58" d="M326.36,26.54h-5.2v1.77h5.12a2.67,2.67,0,0,1-.13-.79A2.37,2.37,0,0,1,326.36,26.54Z"/><path class="cls-58" d="M310.41,28.31h5V26.54h-5.07a2.46,2.46,0,0,1,.21,1A2.9,2.9,0,0,1,310.41,28.31Z"/><path class="cls-58" d="M320.82,37.38l7.26-7.31A2.62,2.62,0,0,1,326.62,29l-6.82,6.9A2.54,2.54,0,0,1,320.82,37.38Z"/><path class="cls-58" d="M316.81,35.85l-1.89-2L310.12,29a2.67,2.67,0,0,1-1.39,1l5.14,5.31,1.89,1.89A2.65,2.65,0,0,1,316.81,35.85Z"/><path class="cls-1" d="M322.65,17.66l-4.31-4.42L314,17.66h3.46V35.57a2.09,2.09,0,0,0-.63.28,2.59,2.59,0,0,0-1.05,1.44,2.64,2.64,0,0,0,5.06,1.53h0a2.79,2.79,0,0,0,.11-.76,2.25,2.25,0,0,0-.11-.68,2.49,2.49,0,0,0-1-1.47,2.25,2.25,0,0,0-.59-.32V17.66Zm-4.31,21.88a1.48,1.48,0,1,1,1.48-1.48h0a1.48,1.48,0,0,1-1.48,1.48Z"/><path class="cls-1" d="M310.12,28.94a4.51,4.51,0,0,0,.29-.63,2.67,2.67,0,0,0,.13-.79,2.46,2.46,0,0,0-.21-1,2.65,2.65,0,1,0-2.45,3.64,2.45,2.45,0,0,0,.85-.15A2.69,2.69,0,0,0,310.12,28.94Zm-2.24,0a1.48,1.48,0,1,1,1.47-1.49h0A1.47,1.47,0,0,1,308,29h-.07Z"/><path class="cls-1" d="M328.08,30.07a2.58,2.58,0,0,0,.73.11,2.66,2.66,0,1,0-2.45-3.64,2.46,2.46,0,0,0-.21,1,2.67,2.67,0,0,0,.13.79,3,3,0,0,0,.34.7A2.65,2.65,0,0,0,328.08,30.07Zm.73-4a1.47,1.47,0,1,1-.33,0A.92.92,0,0,1,328.81,26.07Z"/><path class="cls-96" d="M318.34,36.59a1.48,1.48,0,1,0,1.48,1.48h0a1.47,1.47,0,0,0-1.47-1.47Z"/><circle class="cls-96" cx="307.88" cy="27.52" r="1.47"/><path class="cls-96" d="M328.81,29a1.47,1.47,0,1,0-1.47-1.47h0A1.47,1.47,0,0,0,328.81,29Z"/></g></g><g id="Text"><path class="cls-97" d="M74.33,16.77H68.88l.55.66A16.89,16.89,0,0,1,65.79,19l-.65-.94a16.87,16.87,0,0,0,3.32-1.32H66.54V11.41a7.35,7.35,0,0,1-.91.55L65,11.1a13.69,13.69,0,0,0,3.64-2.72l1.17.29a1.72,1.72,0,0,1-.4.42h3.72V10a8.38,8.38,0,0,1-.77.73h1.94ZM71.63,10H68.51c-.37.3-.69.55-1,.73h3.18A7.76,7.76,0,0,0,71.63,10Zm1.65,2.43v-.78H67.59v.78Zm0,1.68v-.8H67.59v.8Zm0,1.72V15H67.59v.83ZM75.73,18l-.49,1a23.9,23.9,0,0,0-3.9-.94l.51-1A29.82,29.82,0,0,1,75.73,18Z"/><path class="cls-97" d="M87.74,16.57a5,5,0,0,1-.47,1.73,1.06,1.06,0,0,1-.94.66.89.89,0,0,1-.59-.23,3.54,3.54,0,0,1-.67-1.11A13,13,0,0,1,83.83,19L83,18.36a2,2,0,0,0,.38-.34H81v.92H80V18H77.28v-.77H80v-.61H77.74V13.33H80v-.55H77.35V12H80v-.64H77.16v-.82H80V9.93H77.51V9.12H80V8.48h1v.64h2.54v.81H81v.62h3.12q0-1,0-2.1h1l0,2.1h2.46v.82H85.18a31.87,31.87,0,0,0,.24,3.68,13,13,0,0,0,.93-3l1,.29a15.3,15.3,0,0,1-1.57,4.17,4.52,4.52,0,0,0,.28.75,2.66,2.66,0,0,0,.22.46.08.08,0,0,0,.07,0c.16,0,.32-.56.45-1.69ZM80,14.64v-.58H78.71v.58Zm0,1.27v-.6H78.71v.6Zm4.65.49a20.71,20.71,0,0,1-.5-5H81V12h2.55v.77H81v.55h2.27v3.31H81v.61h2.51v.59A10.54,10.54,0,0,0,84.64,16.4Zm-2.38-1.78v-.56H81v.56Zm0,1.29v-.6H81v.6Zm5.06-6.12-.8.53a5.24,5.24,0,0,0-1-1.26l.74-.58A5,5,0,0,1,87.32,9.79Z"/><path class="cls-97" d="M99.6,15.25H94.93V19H93.84V15.25H89.16V14.19h4.68V9.88H89.47V8.83h9.88V9.88H94.93v4.31H99.6Zm-7-2-1,.47A14.7,14.7,0,0,0,90,10.91l1-.5A16.57,16.57,0,0,1,92.59,13.27Zm6.26-2.34a13.24,13.24,0,0,1-1.7,2.84l-1-.49a13.59,13.59,0,0,0,1.7-2.85Z"/><path class="cls-97" d="M103.86,12.07a6.86,6.86,0,0,1-.68,1.27V19h-1V14.61l-.65.65-.4-1.07A7.87,7.87,0,0,0,103,11.6Zm.18-3.3a7.08,7.08,0,0,1-2.38,3l-.44-1a7.53,7.53,0,0,0,1.92-2.41Zm4.59,6.38h-4.29V11.52c-.11.1-.23.2-.35.32l-.62-.81a9.4,9.4,0,0,0,2.25-2.63l1,.22a4,4,0,0,1-.32.59h1.93v.91a6.58,6.58,0,0,1-.58.78h.95Zm.48,1.71h-2.24a3.79,3.79,0,0,1-2.63,2.24l-.53-.84a3.06,3.06,0,0,0,2.05-1.4h-2.05v-.93H106c0-.12,0-.27,0-.43h1a2.07,2.07,0,0,1,0,.42h2.12ZM107,10.12h-1.37q-.23.29-.69.78h1.46A5.12,5.12,0,0,0,107,10.12Zm-1,2.48v-.79h-.73v.79Zm0,1.68v-.87h-.73v.87ZM108.82,18l-.53.74a9.91,9.91,0,0,0-1.54-.8l.53-.79A7.33,7.33,0,0,1,108.82,18Zm-1.14-5.36v-.79h-.75v.79Zm0,1.68v-.87h-.75v.87Zm4-1.66H111v5.24a1,1,0,0,1-.31.88,1.42,1.42,0,0,1-.86.23,4.23,4.23,0,0,1-.45,0l-.27-1a4.66,4.66,0,0,0,.54,0c.27,0,.41-.1.41-.29V12.62h-1v-1h2.65Zm-.22-2.83h-2.37v-1h2.37Z"/><path class="cls-97" d="M123.83,15.24l-.47,1-.48-.13V19h-1V18.4H120V19h-1V15.29h2a6.35,6.35,0,0,1-1.76-1.57h-1.45a7,7,0,0,1-2,1.57h2.16V19h-1V18.4h-1.83V19h-1V16.11a2.16,2.16,0,0,1-.43.14l-.54-.89a11,11,0,0,0,3.17-1.64h-3v-.93h3.95a6.77,6.77,0,0,0,.5-.8l1.11.13a5.44,5.44,0,0,1-.38.67H121a4,4,0,0,0-.67-.4l.85-.5a3.41,3.41,0,0,1,.89.61l-.47.29h1.92v.93h-3A6.48,6.48,0,0,0,123.83,15.24Zm-6-3.42H114V8.72h3.87Zm-1-.93V9.63H115v1.26Zm.14,6.58V16.19h-1.83v1.28Zm6-5.65h-4V8.72h4Zm-1-.93V9.63H120v1.26Zm-.1,6.58V16.19H120v1.28Z"/><path class="cls-97" d="M354.33,16.5a8.55,8.55,0,0,1-.76,2.27l-1-.35a6.09,6.09,0,0,0,.41-1h-3.91V18l3.14-.13.05.83-3.19.13v.28c0,.18.09.26.28.26h3.82v.86h-4c-.78,0-1.16-.36-1.16-1.07v-.3l-1.74.07,0-.84,1.77-.06v-.66h-2.22V20.7a8.26,8.26,0,0,1-1.09,4.39l-.84-.72a7.11,7.11,0,0,0,.87-3.56V16.5h3.55v-2h1.06v.52h4.22V16h-4.22v.55Zm.05,8.29h-8.66v-.91h2.94v-.7h-2V21h1v1.39h1V20.69h1v3.19h.83V20.69h1v1.67h.94V21h1v2.21H351.5v.7h2.88Z"/><path class="cls-97" d="M358.79,17.47H358v1.37a4.92,4.92,0,0,0,.68-.55l.07,1.22a6.14,6.14,0,0,1-.75.55v4.11a.88.88,0,0,1-.28.61c-.19.19-.68.27-1.46.22l-.28-1a8.45,8.45,0,0,0,.85,0c.12,0,.18-.06.18-.16v-3a4.74,4.74,0,0,1-.82.52l-.31-1c.5-.3.88-.54,1.13-.73V17.47H355.9v-1H357V14.54h1v1.92h.83Zm3.39,4.12h-1.12a1.36,1.36,0,0,1-.06.24,7.3,7.3,0,0,1,1,1l-.61.87a7.78,7.78,0,0,0-.69-.8A5.91,5.91,0,0,1,359,25.09l-.72-.7a4.17,4.17,0,0,0,1.8-2.8h-1.5v-.95h1.57a7.69,7.69,0,0,0,.06-.95h-.32a6.42,6.42,0,0,1-.53.84l-.78-.45a5.39,5.39,0,0,0,1-2l.84.31a1.73,1.73,0,0,1-.1.35H362v1h-.85c0,.42,0,.74-.06.95h1.06Zm.05-3.63H360a.81.81,0,0,1-.62-.27,1,1,0,0,1-.24-.7V14.54h1v.68h2v1h-2v.52a.33.33,0,0,0,.09.22.26.26,0,0,0,.18.09h1.85Zm4.29,5.9-.29,1a3.59,3.59,0,0,1-3.33-1.23,5.33,5.33,0,0,1-.77,1.43l-.77-.48a7.57,7.57,0,0,0,1.26-4.22l.88.09a10.3,10.3,0,0,1-.27,2.07,2.61,2.61,0,0,0,.54.77V19h-1.3V18h1.58a7.88,7.88,0,0,0-1.34-1.44l.75-.62a10.32,10.32,0,0,1,.82.8,6.23,6.23,0,0,0,.66-1h-2.31v-1h3.48v1a14.19,14.19,0,0,1-1.2,1.81,5.36,5.36,0,0,1,.36.51h1.11a14.94,14.94,0,0,1-.45,2l-.88-.24a7.16,7.16,0,0,0,.22-.76h-.53v1.71h1.39v1h-1.39v2.06a7.33,7.33,0,0,0,1.22.09Z"/><path class="cls-97" d="M369.39,22.19a13.36,13.36,0,0,1-.6,2.83l-.93-.44a12.38,12.38,0,0,0,.58-2.65Zm2.67-5.79a18.3,18.3,0,0,1-2.65,4.16,8.87,8.87,0,0,0,1.38-.32,4.5,4.5,0,0,0-.26-.67l.86-.3a12.09,12.09,0,0,1,.65,2.1l-.88.29c0-.13-.05-.29-.1-.51a28.36,28.36,0,0,1-2.85.59l-.28-.87a14.49,14.49,0,0,0,1.89-2.48c-.57.11-1.11.2-1.6.27l-.18-1a10.76,10.76,0,0,0,1.76-3.26l1,.43a10.17,10.17,0,0,1-1.44,2.63,10,10,0,0,0,1.09-.17A13.39,13.39,0,0,0,371.1,16Zm-1.22,8-1,.18a14,14,0,0,0-.22-2.39l.87-.13A19.53,19.53,0,0,1,370.84,24.43ZM372,24l-.78.15a16.71,16.71,0,0,0-.35-2.12l.78-.16A14.33,14.33,0,0,1,372,24ZM378.1,24a1,1,0,0,1-.3.78,1.87,1.87,0,0,1-1.14.25L376,25l-.36-1,1.21,0a.22.22,0,0,0,.15-.08.21.21,0,0,0,.07-.15v-8h-3.9V25h-1V14.72h5.87Zm-1.33-5.41h-3.22v-.94h.52c-.14-.47-.3-.91-.48-1.35l.92-.24a8.71,8.71,0,0,1,.52,1.59h.24a10.29,10.29,0,0,0,.51-1.54l1,.25a7.68,7.68,0,0,1-.47,1.29h.51Zm0,2.11h-1.89v1.54a.17.17,0,0,0,.08.13.26.26,0,0,0,.15.06h1.54v.93h-1.81a.79.79,0,0,1-.89-.9V20.67h-.38v-.93h1.26a6.19,6.19,0,0,0-.31-.83l1-.17a10.53,10.53,0,0,1,.36,1h.91Z"/><path class="cls-97" d="M384.22,23.63A29.51,29.51,0,0,1,380.16,25l-.27-1,.51-.14V19.21h1v4.35a4.15,4.15,0,0,0,.56-.16v-5h-1.59V14.82h3.6v3.56h-1v1.55h1.15v1h-1.15V23a12.38,12.38,0,0,0,1.23-.45Zm-1.36-6.26V15.83h-1.52v1.54Zm7.68,2.06-.56.93a11.15,11.15,0,0,1-2.73-1.3,17.58,17.58,0,0,1-2.68,1.33l-.58-.95a10.78,10.78,0,0,0,2.41-1.09,4.88,4.88,0,0,1-.94-1.19,9.22,9.22,0,0,1-.78.62l-.63-.8a7.55,7.55,0,0,0,2.29-2.53l1,.29a3.32,3.32,0,0,1-.32.62h2.78v1a8,8,0,0,1-1.67,2A9.07,9.07,0,0,0,390.54,19.43ZM389.79,25h-1.1v-.4h-2.8V25h-1.08V20.56h5Zm-1.1-1.41v-2h-2.8v2Zm-.07-7.2h-2.34l0,.06a4.38,4.38,0,0,0,1,1.34A6.73,6.73,0,0,0,388.62,16.38Z"/><path class="cls-97" d="M402.91,24.38h-1.57L397,17.69a3.51,3.51,0,0,1-.35-.64h0a9.59,9.59,0,0,1,.06,1.33v6H395.3V15.31H397l4.21,6.56c.2.31.33.53.4.65h0a8.32,8.32,0,0,1-.07-1.3V15.31h1.37Z"/><path class="cls-97" d="M412.56,24.38H411L410.16,22h-3.63l-.81,2.36h-1.55l3.43-9.07h1.56Zm-2.79-3.52-1.27-3.58a5.27,5.27,0,0,1-.14-.69h0a3.25,3.25,0,0,1-.14.67l-1.26,3.6Z"/><path class="cls-97" d="M418.62,16.51H416v7.87H414.6V16.51H412v-1.2h6.62Z"/><path class="cls-98" d="M346.33,32.36a5.13,5.13,0,0,1,.82,2.59,2.28,2.28,0,0,1-.31,1.29c-.2.32-.62.46-1.24.44l-.27-1.09a1.63,1.63,0,0,0,.31,0,.5.5,0,0,0,.41-.15.85.85,0,0,0,.12-.54,4.1,4.1,0,0,0-.87-2.46,12.7,12.7,0,0,0,.7-2.55h-.82v9.22h-1V28.87H347v1A13.52,13.52,0,0,1,346.33,32.36ZM354.47,38l-.26,1h-2.83A4,4,0,0,1,348.23,38a10.22,10.22,0,0,1-.9,1.32l-.78-.62a8.34,8.34,0,0,0,1.78-3.76h-.87v-1a11.63,11.63,0,0,0,.71-1.89h-1.09V31h2.1v1c-.22.73-.44,1.37-.66,1.91h.77v1a8.08,8.08,0,0,1-.59,2.13,2.92,2.92,0,0,0,2.23,1Zm-5.21-7.7-.91.48a7.55,7.55,0,0,0-1.08-1.62l.85-.57A6.06,6.06,0,0,1,349.26,30.3Zm5.1-.18h-2.7a2.85,2.85,0,0,1-.28.45H354v.74h-1.23v.48h1.59v.76h-4.11V32a4.6,4.6,0,0,1-.38.37l-.49-.92a6.83,6.83,0,0,0,1.16-1.37h-.84v-.89H351a2.33,2.33,0,0,0,.22-.65l1,.17a4.33,4.33,0,0,1-.16.48h2.28ZM354,36.8a.73.73,0,0,1-.19.53.72.72,0,0,1-.45.24,6.18,6.18,0,0,1-.94,0l-.29-.94.33,0a.88.88,0,0,0,.46-.08.3.3,0,0,0,.1-.24V36.2a10.14,10.14,0,0,1-1.46.4l-.32-.57a5.39,5.39,0,0,1-.75,1.72l-.8-.6a4.2,4.2,0,0,0,.74-2.48V33H354Zm-2.23-5v-.48h-.85l-.42.48Zm1.25,3.5V33.87h-1.62v.34a8.32,8.32,0,0,1,1.36.29l-.19.75a8.11,8.11,0,0,0-1.18-.24,7.51,7.51,0,0,1-.1.75A10.63,10.63,0,0,0,353,35.29Z"/><path class="cls-98" d="M366.44,38l-.3,1c-.77,0-1.61,0-2.53,0s-1.8,0-2.43,0a6.8,6.8,0,0,1-1.88-.32,4,4,0,0,1-1.6-.93,13.74,13.74,0,0,1-1.07,1.47l-.82-.69a6.91,6.91,0,0,0,1.71-3.36H356v-1a12.38,12.38,0,0,0,1.32-2h-1.44v-1h2.6v1a22.22,22.22,0,0,1-1.26,2.08h1.29a3.64,3.64,0,0,1,0,.48,5.41,5.41,0,0,1-.46,2.15,3.73,3.73,0,0,0,1.3.84,5.91,5.91,0,0,0,2,.33c.84,0,1.6,0,2.27,0C364.67,38.08,365.59,38.06,366.44,38Zm-7.95-8-.72.73a11.2,11.2,0,0,0-1.61-1.5l.73-.72A11.25,11.25,0,0,1,358.49,30.07Zm7.77,6h-7.43V35.2h1.78v-.71h-1.52V33.6h1.52V33h1v.59h1.78V33h1v.59h1.51v.89h-1.51v.71h1.83Zm-4-3.67-3.07.6-.22-.89a.34.34,0,0,0,.23-.36v-3h2.94V31h-2v1c.3-.05,1-.18,2.08-.41ZM362,36.84a8.55,8.55,0,0,1-2.22.89l-.75-.81a10.42,10.42,0,0,0,2.2-.75Zm-.82-6.67v-.58h-1v.58Zm2.23,5v-.71h-1.78v.71Zm2.7-2.55h-2.36a1,1,0,0,1-.7-.23,1.13,1.13,0,0,1-.23-.82V28.77h3V31h-2v.62a.19.19,0,0,0,.21.21h2.11Zm.06,4.39-.66.78A14.63,14.63,0,0,0,363.2,37l.65-.78A20.92,20.92,0,0,1,366.17,37Zm-1.37-6.87v-.58h-1v.58Z"/><path class="cls-98" d="M372.17,30.42h-1.56v.73H372v4.74h-1.38v.75h1.55v1h-1.55v1.53h-.94V37.59H368v-1h1.68v-.75H368.3V31.15h1.37v-.73H368v-.9h1.66v-.85h.94v.85h1.56Zm-2.5,2.65V32h-.54v1Zm0,1.94V33.94h-.54V35Zm1.47-1.94V32h-.53v1Zm0,1.94V33.94h-.53V35Zm4.08,3.29q0,.81-1,.81l-.4,0-.28-1,.54,0c.15,0,.23-.06.23-.17V37h-.86a5.56,5.56,0,0,1-.78,2.18l-.74-.61a5.43,5.43,0,0,0,.71-2.85V32.61h2.57Zm3.29-7.09-.52.87a9.62,9.62,0,0,1-1.21-.75V32h-3v-.81c-.32.23-.71.47-1.15.74l-.51-.91a7.13,7.13,0,0,0,2.89-2.47l1,.28a1.23,1.23,0,0,1-.13.2A6.52,6.52,0,0,0,378.51,31.21Zm-4.19,3.14v-.81h-.79v.81Zm0,1.74v-.84h-.79v.84Zm2.16-5a5.75,5.75,0,0,1-1.16-1.25A6.84,6.84,0,0,1,374,31.11Zm.2,6.17h-.87V32.9h.87Zm1.35,1a.92.92,0,0,1-.21.54c-.13.19-.49.28-1.07.28l-.46,0-.31-1a3.75,3.75,0,0,0,.48,0,1.47,1.47,0,0,0,.57-.06.19.19,0,0,0,.08-.18V32.4H378Z"/><path class="cls-98" d="M389.83,39.14h-1.1v-.59H380.5v-4h1.09v2.94h3.05V33.41h-3.59v-4h1.08v2.93h2.51V28.65h1.08v3.72h2.5V29.44h1.09v4h-3.59v4.11h3V34.58h1.08Z"/><path class="cls-98" d="M394.88,36.65a3.75,3.75,0,0,0,2.45.85c1.21,0,1.81-.41,1.81-1.24a1.1,1.1,0,0,0-.2-.64,1.74,1.74,0,0,0-.54-.5,10.85,10.85,0,0,0-1.33-.69,4.88,4.88,0,0,1-1.71-1.19,2.23,2.23,0,0,1-.49-1.42A2.14,2.14,0,0,1,395.8,30a3.93,3.93,0,0,1,2.37-.68,4.83,4.83,0,0,1,2.06.34v1.44a3.57,3.57,0,0,0-2.09-.58,2.3,2.3,0,0,0-1.3.32,1,1,0,0,0-.49.88,1.09,1.09,0,0,0,.36.84,7.21,7.21,0,0,0,1.52.88,5.35,5.35,0,0,1,1.87,1.27,2.27,2.27,0,0,1,.52,1.46,2.19,2.19,0,0,1-.89,1.88,4.09,4.09,0,0,1-2.47.65,6.18,6.18,0,0,1-1.29-.14,3.44,3.44,0,0,1-1.09-.37Z"/><path class="cls-98" d="M409.94,38.53h-1.57L404,31.84a3.87,3.87,0,0,1-.35-.64h0a9.93,9.93,0,0,1,.05,1.32v6h-1.36V29.45H404L408.21,36c.19.31.33.53.39.65h0a10.2,10.2,0,0,1-.06-1.3V29.45h1.37Z"/><path class="cls-98" d="M419.58,38.53H418l-.85-2.36h-3.64l-.8,2.36H411.2l3.42-9.08h1.57ZM416.79,35l-1.26-3.58a3.81,3.81,0,0,1-.14-.68h0a4,4,0,0,1-.15.67L413.94,35Z"/><path class="cls-98" d="M425.65,30.66H423v7.87h-1.41V30.66H419V29.45h6.62Z"/><path class="cls-97" d="M106.07,151.41l-3.39,9.23h-1.1l-3.32-9.23h1.12l2.56,7.38a4.41,4.41,0,0,1,.19.81h0a3.21,3.21,0,0,1,.2-.83l2.62-7.36Z"/><path class="cls-97" d="M115.57,160.64v-6.23c0-.47,0-1.07.09-1.78h0a4.84,4.84,0,0,1-.27.87l-3.17,7.14h-.45l-3.17-7.09a5.59,5.59,0,0,1-.26-.92h0c0,.32,0,.91,0,1.76v6.25h-1v-9.23h1.31l2.85,6.5a9.08,9.08,0,0,1,.43,1.09h0c.11-.32.26-.7.44-1.12l2.91-6.47h1.24v9.23Z"/><path class="cls-97" d="M162.53,151.41l-3.39,9.23H158l-3.32-9.23h1.12l2.57,7.38a4.48,4.48,0,0,1,.18.81h0a3.68,3.68,0,0,1,.2-.83l2.63-7.36Z"/><path class="cls-97" d="M172,160.64v-6.23c0-.47,0-1.07.1-1.78h0a5.86,5.86,0,0,1-.27.87l-3.18,7.14h-.45L165,153.55a5.59,5.59,0,0,1-.26-.92h0c0,.32,0,.91,0,1.76v6.25h-1v-9.23h1.3l2.85,6.5a9.08,9.08,0,0,1,.43,1.09h0c.12-.32.26-.7.44-1.12l2.92-6.47H173v9.23Z"/><path class="cls-97" d="M217.62,151.41l-3.39,9.23h-1.1l-3.32-9.23h1.12l2.57,7.38a4.48,4.48,0,0,1,.18.81h0a3.68,3.68,0,0,1,.2-.83l2.63-7.36Z"/><path class="cls-97" d="M227.12,160.64v-6.23c0-.47,0-1.07.1-1.78h0a5.86,5.86,0,0,1-.27.87l-3.18,7.14h-.45l-3.17-7.09a5.59,5.59,0,0,1-.26-.92h0c0,.32,0,.91,0,1.76v6.25h-1v-9.23h1.3l2.85,6.5a9.08,9.08,0,0,1,.43,1.09h0c.12-.32.26-.7.44-1.12l2.92-6.47h1.23v9.23Z"/><path class="cls-97" d="M272.62,151.41l-3.38,9.23h-1.1l-3.32-9.23h1.12l2.56,7.38a3.77,3.77,0,0,1,.18.81h0a3.74,3.74,0,0,1,.21-.83l2.62-7.36Z"/><path class="cls-97" d="M282.13,160.64v-6.23c0-.47,0-1.07.09-1.78h0a5.86,5.86,0,0,1-.27.87l-3.17,7.14h-.45l-3.17-7.09a6.52,6.52,0,0,1-.27-.92h0a16.92,16.92,0,0,1,.06,1.76v6.25h-1v-9.23h1.31l2.85,6.5a10.47,10.47,0,0,1,.42,1.09h0c.12-.32.27-.7.45-1.12l2.91-6.47h1.24v9.23Z"/><path class="cls-97" d="M328.55,151.41l-3.39,9.23h-1.1l-3.31-9.23h1.11l2.57,7.38a3.77,3.77,0,0,1,.18.81h0a3.74,3.74,0,0,1,.21-.83l2.62-7.36Z"/><path class="cls-97" d="M338.05,160.64v-6.23c0-.47,0-1.07.1-1.78h0a5.86,5.86,0,0,1-.27.87l-3.18,7.14h-.44l-3.17-7.09a4.6,4.6,0,0,1-.27-.92h0c0,.32.05.91.05,1.76v6.25h-1v-9.23h1.3l2.86,6.5a10.47,10.47,0,0,1,.42,1.09h0c.12-.32.27-.7.44-1.12l2.92-6.47h1.23v9.23Z"/><path class="cls-97" d="M385,151.41l-3.39,9.23h-1.1l-3.32-9.23h1.12l2.57,7.38a5.54,5.54,0,0,1,.18.81h0a3.21,3.21,0,0,1,.2-.83l2.63-7.36Z"/><path class="cls-97" d="M394.5,160.64v-6.23c0-.47,0-1.07.1-1.78h0a5.86,5.86,0,0,1-.27.87l-3.18,7.14h-.45l-3.17-7.09a5.59,5.59,0,0,1-.26-.92h0c0,.32.05.91.05,1.76v6.25h-1v-9.23h1.3l2.85,6.5a9.08,9.08,0,0,1,.43,1.09h0c.12-.32.26-.7.44-1.12l2.92-6.47h1.23v9.23Z"/><path class="cls-97" d="M440,151.41l-3.39,9.23h-1.1l-3.31-9.23h1.11l2.57,7.38a3.77,3.77,0,0,1,.18.81h0a3.74,3.74,0,0,1,.21-.83l2.62-7.36Z"/><path class="cls-97" d="M449.46,160.64v-6.23c0-.47,0-1.07.1-1.78h0a5.86,5.86,0,0,1-.27.87l-3.18,7.14h-.44l-3.17-7.09a4.6,4.6,0,0,1-.27-.92h0c0,.32.05.91.05,1.76v6.25h-1v-9.23h1.3l2.86,6.5a10.47,10.47,0,0,1,.42,1.09h0c.12-.32.27-.7.44-1.12l2.92-6.47h1.23v9.23Z"/><path class="cls-97" d="M495.15,151.41l-3.39,9.23h-1.1l-3.32-9.23h1.12l2.56,7.38a4.41,4.41,0,0,1,.19.81h0a3.74,3.74,0,0,1,.21-.83l2.62-7.36Z"/><path class="cls-97" d="M504.65,160.64v-6.23c0-.47,0-1.07.09-1.78h0a5.86,5.86,0,0,1-.27.87l-3.17,7.14h-.45l-3.17-7.09a5.59,5.59,0,0,1-.26-.92h0c0,.32.05.91.05,1.76v6.25h-1v-9.23h1.31l2.85,6.5A8.54,8.54,0,0,1,501,159h.05c.11-.32.26-.7.44-1.12l2.91-6.47h1.24v9.23Z"/><path class="cls-97" d="M31,86.12h-1.8V87.7h1.45v8.08H30v-.71H26.45v.69h-.61V87.7h1.47V86.12H25.48v-.58H31ZM30,94.46V91.33h-.55c-.6,0-.89-.27-.89-.82V88.29h-.74c0,1.86-.36,3.13-1.12,3.83l-.25-.22v2.56Zm-2.75-6.17h-.8v3.19A4.85,4.85,0,0,0,27.27,88.29Zm2.24,4.83h-2.6v-.56h2.6Zm-.93-5.42V86.12h-.7V87.7Zm1.44,3V88.29h-.85v2.12c0,.2.11.31.34.31Zm5.9,2.3a6.67,6.67,0,0,1-.25,2,.91.91,0,0,1-.51.51,5.35,5.35,0,0,1-1.48.13,12.64,12.64,0,0,1-1.5-.05.72.72,0,0,1-.41-.25,1,1,0,0,1-.18-.64V89.29H34.8V86.11H31.41V85.5h4v4.4H32.19v4.72a.33.33,0,0,0,.1.24.48.48,0,0,0,.3.12h1.95q.54,0,.66-.63a8.21,8.21,0,0,0,.12-1.52Z"/><path class="cls-97" d="M47.92,95.56H37.5V95h1.41V89.86h2.81L42,89H37.59v-.55h4.62l.23-.81H38.07V85.45H47.3v2.19H43.09l-.24.81h4.89V89H42.66l-.28.86h4.11V95h1.43Zm-7-8.42V86H38.68v1.16Zm4.94,4v-.75H39.54v.75Zm0,1.26v-.76H39.54v.76Zm0,1.33v-.84H39.54v.84Zm0,1.3v-.79H39.54V95Zm-2-7.88V86H41.56v1.16Zm2.85,0V86H44.45v1.16Z"/><path class="cls-97" d="M36,137H31a8.93,8.93,0,0,1-.49,1.11h4.68v2.72c0,.57-.41.85-1.25.85a5.73,5.73,0,0,1-.65,0l-.18-.59c.24,0,.47,0,.7,0a1.62,1.62,0,0,0,.66-.08.28.28,0,0,0,.11-.25v-2.08H32.45v2.86h-.58v-2.86H29.73v2.85h-.59v-2.85H27v3.08h-.59v-3.65h3.52a8.73,8.73,0,0,0,.48-1.11H25.55v-.56H36Zm-.26-1.6h-.59v-2H31.09v2.72h-.6v-2.72H26.43v2h-.6v-2.58h4.66V132H26.21v-.55h9.12V132H31.09v.91h4.67Zm-5.73,0a13,13,0,0,1-2.83.5l-.29-.55a12.57,12.57,0,0,0,2.88-.44Zm0-1.25-.25.54a14.36,14.36,0,0,0-2.68-.41l.21-.52A17.43,17.43,0,0,1,30,134.22Zm4.68.13a13,13,0,0,1-2.81.39l-.25-.56a13.35,13.35,0,0,0,2.8-.34Zm.1,1.14-.27.53a16.85,16.85,0,0,0-2.84-.5L32,135C33.1,135.15,34,135.32,34.78,135.49Z"/><path class="cls-97" d="M41.7,137.8a20.6,20.6,0,0,1-3.86,3l-.36-.55a19.59,19.59,0,0,0,3.85-3ZM48,140.24l-.38.56A8.8,8.8,0,0,1,43.12,137v3.8a.76.76,0,0,1-.36.72,3.17,3.17,0,0,1-1.36.2l-.66,0-.28-.66c.34,0,.9,0,1.67,0a.31.31,0,0,0,.24-.12.36.36,0,0,0,.1-.24v-6.95H37.58v-.63h4.89v-2h.65v2h4.8v.63h-4.8v1.78a6.29,6.29,0,0,0,.64,1.28,12.93,12.93,0,0,0,2.93-2.25l.51.44a15.1,15.1,0,0,1-3.08,2.34A8.32,8.32,0,0,0,48,140.24Zm-7.19-3.69-.45.49a11.47,11.47,0,0,0-2.14-2l.43-.47A12.1,12.1,0,0,1,40.78,136.55Zm5.83-4.2-.44.49a9.21,9.21,0,0,0-1.61-1.2l.39-.49A10.76,10.76,0,0,1,46.61,132.35Z"/><path class="cls-97" d="M538.18,86.18h-1.81v1.59h1.46v8.07h-.61v-.71h-3.56v.7h-.61V87.77h1.47V86.18h-1.84V85.6h5.5Zm-1,8.34V91.39h-.55c-.59,0-.89-.27-.89-.81V88.36h-.73c0,1.85-.37,3.13-1.13,3.82l-.25-.22v2.56Zm-2.74-6.16h-.81v3.19A4.82,4.82,0,0,0,534.48,88.36Zm2.24,4.82h-2.6v-.56h2.6Zm-.94-5.41V86.18h-.7v1.59Zm1.44,3V88.36h-.85v2.12c0,.2.12.3.35.3Zm5.91,2.3a7.06,7.06,0,0,1-.25,2,1,1,0,0,1-.52.51,4.94,4.94,0,0,1-1.47.13,12.38,12.38,0,0,1-1.5-.05.72.72,0,0,1-.41-.25.91.91,0,0,1-.19-.64V89.36H542V86.17h-3.39v-.61h4V90h-3.24v4.72a.34.34,0,0,0,.11.24.45.45,0,0,0,.29.12h2c.37,0,.59-.21.67-.63a9.43,9.43,0,0,0,.11-1.53Z"/><path class="cls-97" d="M555.13,95.62H544.7v-.54h1.42V89.93h2.8l.3-.87h-4.43v-.55h4.63l.22-.8h-4.37V85.52h9.24v2.19H550.3l-.24.8h4.88v.55h-5.08l-.28.87h4.11v5.15h1.44Zm-7-8.41V86h-2.25v1.17Zm4.94,4v-.76h-6.34v.76Zm0,1.25V91.7h-6.34v.75Zm0,1.33v-.84h-6.34v.84Zm0,1.3v-.79h-6.34v.79ZM551,87.21V86h-2.26v1.17Zm2.85,0V86h-2.22v1.17Z"/><path class="cls-97" d="M543.18,136.09h-5a7.55,7.55,0,0,1-.5,1.11h4.69v2.72c0,.57-.42.85-1.25.85l-.65,0-.18-.6a5.58,5.58,0,0,0,.7,0,1.53,1.53,0,0,0,.65-.08.26.26,0,0,0,.11-.25v-2.08h-2.15v2.86H539v-2.86h-2.13v2.85h-.59v-2.85h-2.18v3.08h-.59V137.2h3.52q.23-.45.48-1.11h-4.82v-.56h10.47Zm-.26-1.59h-.6v-2h-4.07v2.71h-.6V132.5h-4.06v2H533v-2.57h4.67V131h-4.28v-.55h9.12V131h-4.24v.92h4.67Zm-5.73,0a13,13,0,0,1-2.83.5l-.29-.55A12.13,12.13,0,0,0,537,134Zm0-1.24-.24.53a13.59,13.59,0,0,0-2.69-.4l.22-.53A16.15,16.15,0,0,1,537.15,133.28Zm4.69.13a13.09,13.09,0,0,1-2.82.38l-.24-.56a12.64,12.64,0,0,0,2.8-.33Zm.09,1.14-.26.52a17,17,0,0,0-2.84-.5l.3-.52A26.74,26.74,0,0,1,541.93,134.55Z"/><path class="cls-97" d="M548.86,136.85a20.6,20.6,0,0,1-3.86,3l-.37-.55a19.61,19.61,0,0,0,3.86-3Zm6.27,2.45-.38.55a8.78,8.78,0,0,1-4.48-3.79v3.8a.74.74,0,0,1-.35.72,3.17,3.17,0,0,1-1.36.2l-.66,0-.28-.65,1.67,0a.31.31,0,0,0,.24-.12.36.36,0,0,0,.1-.24v-7h-4.9v-.63h4.9v-2h.64v2h4.81v.63h-4.81v1.78a7,7,0,0,0,.65,1.29,13.49,13.49,0,0,0,2.93-2.26l.51.44a14.92,14.92,0,0,1-3.09,2.34A8.42,8.42,0,0,0,555.13,139.3Zm-7.2-3.7-.44.49a11.24,11.24,0,0,0-2.15-2l.44-.47A11.67,11.67,0,0,1,547.93,135.6Zm5.84-4.19-.44.49a9.2,9.2,0,0,0-1.62-1.21l.39-.49A10.25,10.25,0,0,1,553.77,131.41Z"/><path class="cls-98" d="M70.47,30.8a49.18,49.18,0,0,1-5,3l-.42-1c.24-.12.55-.28.91-.49V23.84h1.12v7.82a30.3,30.3,0,0,0,3.19-2Zm1.2-3-1,.59A19.72,19.72,0,0,0,68.46,25l.91-.59A19.32,19.32,0,0,1,71.67,27.77Zm4,5.87-.87.74a23.06,23.06,0,0,0-2.22-2.59,12.57,12.57,0,0,1-3.32,2.64l-.71-.93q3.38-1.77,4.16-4.2a17.74,17.74,0,0,0,.78-5.42h1.1a17,17,0,0,1-1.35,7A28.77,28.77,0,0,1,75.68,33.64Z"/><path class="cls-98" d="M85.38,33.72h-5V24.65h1.41v7.86h3.55Z"/><path class="cls-98" d="M86.72,33.72V24.65h2.83a3.26,3.26,0,0,1,2,.56,1.84,1.84,0,0,1,.74,1.53,2.07,2.07,0,0,1-.45,1.32,2.36,2.36,0,0,1-1.19.8v0a2.33,2.33,0,0,1,1.49.7,2.05,2.05,0,0,1,.56,1.5A2.4,2.4,0,0,1,91.89,33a3.3,3.3,0,0,1-2.24.73Zm1.4-7.92v2.65h1a1.89,1.89,0,0,0,1.25-.38A1.33,1.33,0,0,0,90.84,27c0-.81-.55-1.21-1.66-1.21Zm0,3.81v3h1.33a2,2,0,0,0,1.33-.4,1.38,1.38,0,0,0,.48-1.11c0-1-.65-1.45-2-1.45Z"/><path class="cls-98" d="M101.35,32.75a17.73,17.73,0,0,1-3.79,1.48l-.51-.91A17.73,17.73,0,0,0,100.66,32Zm6.09-2.7h-9V27.17c-.38.39-.6.6-.64.63l-.7-.79a9.76,9.76,0,0,0,2.3-3.3l1,.31a8,8,0,0,1-.39.81h2.42a5,5,0,0,0-.36-.81l1-.24q.31.59.51,1h3.54v.88h-3.7v.61h3.38v.79h-3.38v.61h3.39v.82h-3.39v.62h4Zm.19,1.67h-4.71v2.64h-1.09V31.72H97.2v-.94h4.63V30.3h1.09v.48h4.71Zm-5.23-5.4v-.61H99.52v.61Zm0,1.4v-.61H99.52v.61Zm0,1.44v-.62H99.52v.62Zm5.3,4.22-.61.86a19.88,19.88,0,0,0-3.6-1.44l.67-.84A20.91,20.91,0,0,1,107.7,33.38Z"/><path class="cls-98" d="M119.63,34h-8.81a1,1,0,0,1-.8-.33,1.28,1.28,0,0,1-.29-.86V25.06h-.55v-.92H119.5v.92h-8.72v7.71a.32.32,0,0,0,.1.23.35.35,0,0,0,.23.11h8.52ZM114.8,32.4h-3.33V29.06h3.33Zm3-4h-5.34V25.72h5.34Zm-4,3V30h-1.32v1.52Zm2.93-3.94v-.93h-3.18v.93Zm2.14,4.85h-3.38V29.06h3.38Zm-1-.92V30h-1.39v1.51Z"/><path class="cls-98" d="M131.41,29.58a28.39,28.39,0,0,1-.19,3.32A1.73,1.73,0,0,1,130.7,34a2.15,2.15,0,0,1-1.23.27c-.26,0-.5,0-.7,0l-.31-1c.14,0,.56,0,1.26,0a.39.39,0,0,0,.37-.22,15.47,15.47,0,0,0,.22-2.44h-6.75a7,7,0,0,1-1.8,1.78l-.7-.85a9.29,9.29,0,0,0,3.37-5.07h-3v-1h1.82a6.34,6.34,0,0,0-1.11-1.05l.83-.65a5.5,5.5,0,0,1,1.18,1.1l-.73.6h1.25c.14-.59.26-1.16.34-1.7l1.06.19a12.21,12.21,0,0,1-.3,1.51h4.56c-.12.73-.27,1.41-.44,2.06h1c-.07.55-.18,1.25-.36,2.09Zm-6.9,1.74a11.17,11.17,0,0,1-1.28,3l-.89-.54a14.22,14.22,0,0,0,1.2-2.79Zm5.16-2.84h-4.83c-.16.34-.35.7-.57,1.1h5.19ZM126.29,34l-1,.21a12.09,12.09,0,0,0-.33-2.85l1-.11A11.7,11.7,0,0,1,126.29,34ZM129,26.45h-3.47a8.22,8.22,0,0,1-.33,1h3.57C128.87,27.18,128.94,26.83,129,26.45Zm-.83,7-1,.32a12.59,12.59,0,0,0-.58-2.45l1-.16A11.13,11.13,0,0,1,128.19,33.45Zm1.61-.71-1,.34a8.13,8.13,0,0,0-.63-1.85l.95-.29A8.4,8.4,0,0,1,129.8,32.74Z"/><path class="cls-98" d="M143.81,31.68l-.6.89a7.82,7.82,0,0,1-1.85-1.07v.71H139v1h4.31v.94h-9.61v-.94h4.21v-1h-2.33v-.72a7.88,7.88,0,0,1-1.86,1.09l-.59-.91a5.27,5.27,0,0,0,2.37-1.48H133.2v-1h2V25.6h-1.7v-.94h1.7v-.79h1v.79h4.37v-.79h1.08v.79h1.72v.94h-1.72v3.64h2v1h-2.21A6.84,6.84,0,0,0,143.81,31.68ZM141,31.26A7.91,7.91,0,0,1,140,30.19h-3.26a4.88,4.88,0,0,1-.91,1.07h2.05v-.77H139v.77Zm-.47-5V25.6H136.2v.63Zm0,1.49v-.66H136.2v.66Zm0,1.52v-.69H136.2v.69Z"/><path class="cls-98" d="M148.75,25.31H147.4a23.34,23.34,0,0,1-.56,2.42h1.88v5.38h-1V32.7H147v1h-1v-4a5.63,5.63,0,0,1-.48.72l-.54-1a10.62,10.62,0,0,0,1.33-4.09H145.2v-1h3.55Zm-1,6.42v-3H147v3Zm8,1.59-.31,1h-2.11a6,6,0,0,1-1.89-.29,3.38,3.38,0,0,1-1.34-.8,5,5,0,0,1-.83,1.3l-.82-.58a7.33,7.33,0,0,0,1.41-3.58l1,.2a7.47,7.47,0,0,1-.39,1.75,3.11,3.11,0,0,0,1.22.75V29.84h-2.51v-.92h6.4a15.7,15.7,0,0,1-.55,2l-1-.34c.08-.23.17-.47.25-.75h-1.6v1.23h2.08V32h-2.08v1.28C153.79,33.33,154.81,33.35,155.74,33.32Zm-3.57-6.63-.54.69-.51-.51V28.6h-1V27a8,8,0,0,1-.84,1.1l-.68-.76A5.59,5.59,0,0,0,150,25.79h-.88v-.91h1v-.95h1v.95h.8v.91h-.8v.1A8.42,8.42,0,0,1,152.17,26.69Zm3.54.63-.58.75a11.6,11.6,0,0,0-.88-1v1.51h-.95V27.16a6.27,6.27,0,0,1-1,1.16l-.67-.69a5.78,5.78,0,0,0,1.58-1.84h-.82v-.91h.91v-.95h.95v.95h1.26v.91h-1.26V26A11.26,11.26,0,0,1,155.71,27.32Z"/><path class="cls-98" d="M163.89,29.59l-.81.79a9.59,9.59,0,0,0-2-1.81l.79-.79A10.17,10.17,0,0,1,163.89,29.59Z"/><path class="cls-98" d="M173.9,27.76a10.63,10.63,0,0,1-.69,3.08l-.89-.52a6.91,6.91,0,0,0,.42-1.56H172v4.65a.89.89,0,0,1-.31.66c-.21.2-.82.28-1.83.23l-.31-1a10.24,10.24,0,0,0,1.15,0c.18,0,.27-.1.27-.25V28.76h-1.66v-1h1.86a21.27,21.27,0,0,0-1.4-1.81l.89-.52c.22.26.44.52.64.79a7.54,7.54,0,0,0,.93-1.13h-2.67v-1h3.88v1a11.77,11.77,0,0,1-1.51,2c.19.28.34.51.44.69Zm5.79-2.69h-2.33a9,9,0,0,1-.32,1h2.28v6H176l.54.53A11.09,11.09,0,0,1,174,34.43l-.69-.86A7.74,7.74,0,0,0,175.54,32h-1.33v-6h1.65a7.34,7.34,0,0,0,.35-1H173.8v-1h5.89Zm-1.44,2.63V27h-3v.69Zm0,1.68v-.73h-3v.73Zm0,1.68v-.75h-3v.75Zm1.6,2.47-.68.81A11.45,11.45,0,0,0,177,33.15l.62-.86A11.2,11.2,0,0,1,179.85,33.53Z"/><path class="cls-98" d="M191.75,31.8a8.25,8.25,0,0,1-.34,1.71,1.27,1.27,0,0,1-.52.56,2.44,2.44,0,0,1-1.21.19h-1.23a1.39,1.39,0,0,1-.93-.27,1.3,1.3,0,0,1-.31-1V29.46H185.5a5.37,5.37,0,0,1-1,3.11,6.19,6.19,0,0,1-2.86,1.8l-.5-1c2.16-.67,3.24-2,3.23-3.92h-3v-1h4.57V26.62h-2.28a7.8,7.8,0,0,1-1.19,1.44l-1-.64A9.51,9.51,0,0,0,183.83,24l1,.36-.6,1.26h1.66V23.87H187v1.74h4.14v1H187v1.86h4.57v1h-3.26v3.47a.23.23,0,0,0,.15.24,3.66,3.66,0,0,0,.89.06,2.26,2.26,0,0,0,.83-.09.67.67,0,0,0,.28-.43,5.82,5.82,0,0,0,.2-1.27Z"/><path class="cls-98" d="M198.75,25.12h-1.82v1.22h1.5v8h-1v-.55h-3v.55h-.95v-8H195V25.12h-1.75v-1h5.49Zm-1.29,7.66V30.11h-.56a.72.72,0,0,1-.53-.2.75.75,0,0,1-.19-.53V27.32h-.41A5.53,5.53,0,0,1,195,30.6l-.51-.54v2.72ZM195,27.32h-.49v2.49A4.39,4.39,0,0,0,195,27.32Zm2.15,4.51h-2.31v-.89h2.31Zm-1-5.49V25.12h-.4v1.22Zm1.28,2.82V27.32h-.53v1.56c0,.19.1.28.29.28Zm6.24,2.48a5.76,5.76,0,0,1-.2,1.88,1,1,0,0,1-.54.59,6.45,6.45,0,0,1-1.74.13,4.68,4.68,0,0,1-1.36-.11.86.86,0,0,1-.43-.34,1.13,1.13,0,0,1-.15-.61V27.8h3V25.17h-3.07v-1h4.1v4.66h-3v4.06c0,.17,0,.27.13.31a2.83,2.83,0,0,0,.79.06,3.43,3.43,0,0,0,1.09-.1.61.61,0,0,0,.24-.46,12.57,12.57,0,0,0,.09-1.42Z"/><path class="cls-98" d="M215.73,34.11H205.26v-.79h1.33V28.25h2.91l.14-.55h-4.26v-.83h4.47l.1-.51h-4.16V24h9.36v2.34h-4.08l-.1.51h4.56v.83h-4.75l-.12.55h3.72v5.07h1.35Zm-7.14-8.54v-.71h-1.73v.71Zm4.74,4V29h-5.65v.55Zm0,1.21v-.55h-5.65v.55Zm0,1.26v-.57h-5.65V32Zm0,1.32v-.63h-5.65v.63Zm-2-7.75v-.71h-1.76v.71Zm2.74,0v-.71h-1.73v.71Z"/><path class="cls-98" d="M221.81,34.23h-1v-.8h-2.17v.91h-1.06V25.61h1.07a7.4,7.4,0,0,0,.7-1.83l1.11.19a7.31,7.31,0,0,1-.56,1.64h1.94Zm-1-5.35V26.66h-2.17v2.22Zm0,3.52V29.88h-2.17V32.4Zm6.83-6.73q0,1.72-.12,4.47a14.8,14.8,0,0,1-.33,3.24,1.5,1.5,0,0,1-.66.72,6.22,6.22,0,0,1-2.15.24l-.4-1.05h1.6a.82.82,0,0,0,.49-.2,6.52,6.52,0,0,0,.39-2.6c.08-1.61.12-2.87.12-3.77h-2.41a11.34,11.34,0,0,1-1.27,2.44l-.82-.73a14.35,14.35,0,0,0,1.82-4.66l1,.23q-.12.61-.42,1.68ZM225.87,31l-.94.61a12.31,12.31,0,0,0-1.66-2.59l.94-.58A11.86,11.86,0,0,1,225.87,31Z"/><path class="cls-98" d="M69.3,40H67.74v.73h1.38v4.74H67.74v.75h1.55v1H67.74v1.53h-.93V47.18H65.12v-1h1.69v-.75H65.43V40.74h1.38V40H65.14v-.9h1.67v-.85h.93v.85H69.3Zm-2.49,2.65v-1h-.54v1Zm0,2V43.53h-.54v1.08Zm1.46-2v-1h-.53v1Zm0,2V43.53h-.53v1.08Zm4.08,3.28q0,.81-1,.81a3,3,0,0,1-.4,0l-.27-1,.53,0c.16,0,.23,0,.23-.17v-1H70.6a6,6,0,0,1-.78,2.19l-.75-.62a5.34,5.34,0,0,0,.71-2.85V42.2h2.57Zm3.29-7.09-.52.88a11.78,11.78,0,0,1-1.21-.76v.7H71v-.81c-.32.23-.7.48-1.14.74l-.52-.91a7.16,7.16,0,0,0,2.9-2.47l1,.28a2,2,0,0,1-.12.2A6.4,6.4,0,0,0,75.64,40.8Zm-4.19,3.14v-.81h-.79v.81Zm0,1.74v-.83h-.79v.83Zm2.16-5a5.73,5.73,0,0,1-1.16-1.24A7.09,7.09,0,0,1,71.1,40.7Zm.2,6.17h-.87V42.49h.87Zm1.35,1a1,1,0,0,1-.2.54c-.14.19-.5.28-1.08.28a3.46,3.46,0,0,1-.46,0l-.3-1a3.59,3.59,0,0,0,.47,0,1.4,1.4,0,0,0,.57-.06.2.2,0,0,0,.09-.18V42h.91Z"/><path class="cls-98" d="M87,48.73H85.86v-.59H77.63v-4h1.09v2.94h3V43H78.19V39h1.07V42h2.51V38.24h1.08V42h2.51V39h1.08v4H82.85v4.11h3V44.17H87Z"/><path class="cls-98" d="M92,46.24a3.77,3.77,0,0,0,2.46.85c1.2,0,1.8-.41,1.8-1.24a1.06,1.06,0,0,0-.2-.64,1.82,1.82,0,0,0-.53-.5c-.23-.14-.67-.37-1.33-.69a5,5,0,0,1-1.72-1.19A2.2,2.2,0,0,1,92,41.41a2.16,2.16,0,0,1,.92-1.84,3.93,3.93,0,0,1,2.37-.68,4.8,4.8,0,0,1,2.06.34v1.44a3.53,3.53,0,0,0-2.09-.58,2.37,2.37,0,0,0-1.29.32,1,1,0,0,0-.5.89,1,1,0,0,0,.37.83,6.94,6.94,0,0,0,1.52.88,5.29,5.29,0,0,1,1.86,1.27,2.21,2.21,0,0,1,.52,1.46,2.19,2.19,0,0,1-.89,1.88,4.07,4.07,0,0,1-2.47.65,6.32,6.32,0,0,1-1.29-.14A3.53,3.53,0,0,1,92,47.76Z"/><path class="cls-98" d="M107.07,48.12H105.5l-4.34-6.69a3.87,3.87,0,0,1-.35-.64h0a9.59,9.59,0,0,1,.06,1.33v6H99.46V39.05h1.67l4.21,6.56c.2.31.33.53.4.65h0a8.32,8.32,0,0,1-.07-1.3V39.05h1.37Z"/><path class="cls-98" d="M116.72,48.12h-1.55l-.85-2.36h-3.63l-.81,2.36h-1.55l3.42-9.07h1.57Zm-2.79-3.53L112.66,41a4.69,4.69,0,0,1-.14-.68h0a2.67,2.67,0,0,1-.15.67l-1.25,3.59Z"/><path class="cls-98" d="M122.78,40.25h-2.61v7.87h-1.41V40.25h-2.6v-1.2h6.62Z"/><path class="cls-97" d="M32.29,187.12a7.08,7.08,0,0,1-1,2.72l-.54-.38a4.61,4.61,0,0,0,.74-1.72H30.17v4.92a.83.83,0,0,1-.27.6,3,3,0,0,1-1.7.2l-.17-.61h1.26a.3.3,0,0,0,.21-.13.33.33,0,0,0,.1-.22v-4.75H27.71v-.62h2.62a14.17,14.17,0,0,0-2.2-1.85l.34-.46c.27.17.66.46,1.19.87a11,11,0,0,0,1.41-1.63H28v-.59h3.84v.59a19.73,19.73,0,0,1-1.7,2,6.29,6.29,0,0,1,.78.79l-.21.25Zm5.86-3.2H35.48a8.87,8.87,0,0,1-.38,1.37h2.47v5.83H34.44l.38.38a9.91,9.91,0,0,1-2.51,2.1l-.41-.54a8.58,8.58,0,0,0,2.42-1.94H32.79v-5.83h1.66a7.44,7.44,0,0,0,.4-1.37H32.37v-.6h5.78ZM37,187v-1.08H33.4V187Zm0,1.74v-1.16H33.4v1.16Zm0,1.81v-1.24H33.4v1.24ZM38.11,193l-.39.5a12.21,12.21,0,0,0-2.27-1.6l.39-.47A14.77,14.77,0,0,1,38.11,193Z"/><path class="cls-97" d="M50.07,190.88a6.64,6.64,0,0,1-.32,1.76,1.18,1.18,0,0,1-.54.54,6.53,6.53,0,0,1-1.94.16,5.63,5.63,0,0,1-.94-.05A.77.77,0,0,1,46,193a.82.82,0,0,1-.16-.55v-4.15H43.64c0,2.38-1.16,4.1-3.63,5.14l-.4-.56a6.19,6.19,0,0,0,2.45-1.64,4.09,4.09,0,0,0,.91-2.94H39.75l0-.63h4.79v-2.13H41.85a11.08,11.08,0,0,1-1.29,1.57l-.57-.39a10.63,10.63,0,0,0,2.4-3.53l.63.21a7.12,7.12,0,0,1-.77,1.5h2.27V183h.67v1.93h4.22v.64H45.19v2.13h4.74v.63H46.42v4a.28.28,0,0,0,.15.29,4.68,4.68,0,0,0,1.1.07,3.48,3.48,0,0,0,1.24-.12.87.87,0,0,0,.33-.5,6.9,6.9,0,0,0,.19-1.44Z"/><path class="cls-97" d="M57.09,184h-1.8v1.55h1.45v7.93h-.6v-.7H52.59v.69H52v-7.92h1.46V184H51.62v-.57h5.47Zm-1,8.19v-3.08h-.55c-.59,0-.89-.26-.89-.8V186.1H54c0,1.82-.36,3.08-1.12,3.76l-.25-.22v2.52ZM53.4,186.1h-.8v3.14A4.69,4.69,0,0,0,53.4,186.1Zm2.23,4.74H53.05v-.55h2.58Zm-.93-5.32V184H54v1.55Zm1.44,3V186.1h-.85v2.08c0,.2.11.3.34.3ZM62,190.74a6.9,6.9,0,0,1-.25,1.93.92.92,0,0,1-.51.5,5.46,5.46,0,0,1-1.47.12,13.56,13.56,0,0,1-1.5,0,.72.72,0,0,1-.41-.25,1,1,0,0,1-.18-.63v-5.28h3.2V184H57.52v-.6h4v4.32H58.3v4.64a.32.32,0,0,0,.1.23.4.4,0,0,0,.29.11h2c.36,0,.58-.2.66-.62a8,8,0,0,0,.11-1.49Z"/><path class="cls-97" d="M74,193.23H63.61v-.52H65v-5.06h2.79l.3-.85H63.7v-.54h4.6l.23-.79H64.18v-2.15h9.19v2.15H69.18l-.24.79h4.87v.54H68.75l-.28.85h4.09v5.06H74ZM67,185v-1.15H64.79V185ZM72,188.89v-.74H65.64v.74Zm0,1.23v-.74H65.64v.74Zm0,1.31v-.83H65.64v.83Zm0,1.28v-.78H65.64v.78Zm-2-7.73v-1.15H67.66V185Zm2.84,0v-1.15H70.53V185Z"/><path class="cls-97" d="M79.69,193.26h-.61v-1H76.49v1.27h-.61V185H77a11.27,11.27,0,0,0,.85-2.06l.6.13c-.14.42-.41,1.06-.81,1.93h2Zm-.61-5.08v-2.57H76.49v2.57Zm0,3.44v-2.83H76.49v2.83Zm6.61-6.6c0,1.79-.13,3.46-.26,5a12.11,12.11,0,0,1-.38,2.72,1.3,1.3,0,0,1-.49.58,2.72,2.72,0,0,1-1.15.17l-1,0-.19-.61c.33,0,.68,0,1.06,0H84a.62.62,0,0,0,.32-.15.79.79,0,0,0,.23-.32,8.91,8.91,0,0,0,.19-1.38c.08-.79.14-1.67.19-2.62s.09-1.89.11-2.79H81.9A16,16,0,0,1,80.45,188l-.49-.34a12.86,12.86,0,0,0,2.23-4.6l.61.15a18.72,18.72,0,0,1-.65,1.83Zm-2.2,5.37-.51.35A12.09,12.09,0,0,0,81.24,188l.52-.34A12.07,12.07,0,0,1,83.49,190.39Z"/><path class="cls-97" d="M98,192.42l-.44.49a12.55,12.55,0,0,1-4.36-4.75h-.09v5.35h-.63v-5.35h-.06a11.42,11.42,0,0,1-4.48,4.73l-.43-.52a9.73,9.73,0,0,0,4.22-4.21H87.6v-.61h4.86v-2.33h-4.2v-.62h4.2V183h.62v1.6h4.17v.62H93.08v2.33h4.78v.61h-4A11.51,11.51,0,0,0,98,192.42Z"/><path class="cls-97" d="M102.41,183.26c-.08.26-.24.68-.48,1.24l-.35.83v8.22H101v-7a12.86,12.86,0,0,1-1.26,1.86l-.34-.58a17.32,17.32,0,0,0,2.5-4.78Zm7.5,1.65h-3.54v1.41h2.95v3.09h-3a5.12,5.12,0,0,1-.6,2.3,11.08,11.08,0,0,0,4.19,1.22l-.24.61a11.22,11.22,0,0,1-4.32-1.32,4.62,4.62,0,0,1-3,1.35l-.25-.56a4.55,4.55,0,0,0,2.73-1.15,7.25,7.25,0,0,1-1.71-1.7l.53-.3a6.63,6.63,0,0,0,1.53,1.51,4.27,4.27,0,0,0,.53-2h-3v-3.09h3v-1.41h-3.39v-.59h3.39v-1.21h.64v1.21h3.54Zm-4.2,2h-2.34v1.89h2.32C105.71,188.12,105.72,187.48,105.71,186.92Zm3,1.89v-1.89h-2.32q0,.93,0,1.89Z"/><path class="cls-97" d="M121.29,192.64a.68.68,0,0,1-.35.67,3.82,3.82,0,0,1-1.56.2h-.53l-.2-.66c.3,0,.59,0,.87,0a3.89,3.89,0,0,0,1-.07.24.24,0,0,0,.14-.23v-2.89h-3.39v3.51h-.65v-3.51h-3.42a8,8,0,0,1-1.23,3.77l-.56-.39a7.56,7.56,0,0,0,1.21-4.31v-5.5h8.68Zm-4.68-6.55v-2.18h-3.35v2.18Zm0,3v-2.32h-3.35v2.32Zm4-3v-2.18h-3.39v2.18Zm0,3v-2.32h-3.39v2.32Z"/><path class="cls-97" d="M126.29,191.32a3.13,3.13,0,0,0,1.1.58,4.48,4.48,0,0,0,1.33.23q2,0,2-1.44a1.27,1.27,0,0,0-.21-.72,1.77,1.77,0,0,0-.55-.54,14.1,14.1,0,0,0-1.38-.76,5.25,5.25,0,0,1-1.86-1.32,2.14,2.14,0,0,1-.39-1.26,2.06,2.06,0,0,1,.88-1.75,3.67,3.67,0,0,1,2.24-.66,4.09,4.09,0,0,1,1.93.33v1.15a3.53,3.53,0,0,0-2.06-.55,2.49,2.49,0,0,0-1.4.36,1.17,1.17,0,0,0-.55,1,1.37,1.37,0,0,0,.19.71,1.84,1.84,0,0,0,.52.52,14.16,14.16,0,0,0,1.28.7,6,6,0,0,1,1.87,1.29,2.23,2.23,0,0,1-.31,3.19,3.89,3.89,0,0,1-2.36.63,6.45,6.45,0,0,1-1.21-.15,2.94,2.94,0,0,1-1-.37Z"/><path class="cls-97" d="M140.79,192.89h-1.25l-4.73-7.31a3.55,3.55,0,0,1-.28-.55h0a9.73,9.73,0,0,1,0,1.22v6.64h-1v-9h1.32l4.6,7.23a5.06,5.06,0,0,1,.37.62h0a9.13,9.13,0,0,1-.07-1.36v-6.49h1Z"/><path class="cls-97" d="M150.12,192.89H149l-1-2.57h-3.88l-.92,2.57H142.1l3.49-9h1Zm-2.43-3.48-1.46-3.91a4.23,4.23,0,0,1-.13-.6h0a2.59,2.59,0,0,1-.15.6l-1.43,3.91Z"/><path class="cls-97" d="M155.8,184.75h-2.62v8.14h-1v-8.14h-2.62v-.91h6.24Z"/><path class="cls-97" d="M170.29,192.67l-.19.6h-4.38a5.48,5.48,0,0,1-4.12-1.33,8.62,8.62,0,0,1-1.44,1.62l-.47-.41a7,7,0,0,0,2.38-3.87h-2v-.57q.92-1,1.92-2.43h-2.11v-.6h2.83v.6q-.59.83-1.83,2.4h1.85v.6a8.42,8.42,0,0,1-.8,2.16,4.85,4.85,0,0,0,3.63,1.23Zm-8-7.82-.47.42a8.33,8.33,0,0,0-1.71-1.76l.43-.42A11.17,11.17,0,0,1,162.31,184.85Zm7.9,6h-3.13v1.32h-.63v-1.32H163.3v-.59h3.15v-.93h-2.66v-3.88h2.66v-.93h-3V184h3V183h.63V184h3v.58h-3v.93h2.68v3.88h-2.68v.93h3.13Zm-3.76-3.78v-1h-2v1Zm0,1.69v-1.11h-2v1.11Zm2.7-1.69v-1h-2.07v1Zm0,1.69v-1.11h-2.07v1.11Z"/><path class="cls-97" d="M175.12,185.79H174v2.41a7.37,7.37,0,0,0,1.06-.44l.09.63-1.15.47v3.81a.77.77,0,0,1-.88.87l-.91,0-.21-.66.69,0a1.31,1.31,0,0,0,.59-.08.26.26,0,0,0,.12-.23v-3.46l-1.47.48-.13-.61c.47-.13,1-.31,1.6-.53v-2.66h-1.58v-.62h1.58V183h.6v2.13h1.17Zm7.06,3.8h-1.59a5.39,5.39,0,0,1-1.26,2,22.74,22.74,0,0,1,2.78,1.51l-.36.5a17.54,17.54,0,0,0-2.9-1.57,10.1,10.1,0,0,1-3.76,1.48l-.38-.56a9.43,9.43,0,0,0,3.43-1.19c-.43-.2-1.09-.45-2-.75.23-.34.53-.83.88-1.45h-1.77V189h2.1a12.09,12.09,0,0,0,.6-1.26l.6.17a10.1,10.1,0,0,1-.51,1.09h2.06a4.76,4.76,0,0,0,.2-.68l.59.1a4.26,4.26,0,0,1-.14.58h1.4Zm0-2.1h-6.85v-.6h1.94a9.12,9.12,0,0,0-.6-1.87h-1.14v-.58h2.94a4.4,4.4,0,0,0-.47-1.18l.55-.27a6.93,6.93,0,0,1,.61,1.45h2.78V185h-1c-.21.68-.42,1.31-.64,1.87h1.92Zm-2.24,2.1h-2.16c-.26.47-.48.85-.67,1.14.44.15,1,.37,1.65.64A5.27,5.27,0,0,0,179.92,189.59Zm.3-4.57h-2.9a15,15,0,0,1,.57,1.87h1.72A17.83,17.83,0,0,0,180.22,185Z"/><path class="cls-97" d="M187.09,190.24c-1.23.69-2.33,1.26-3.3,1.69l-.07-.63c.66-.31,1.16-.55,1.48-.74v-3.74h-1.38v-.6h1.38V183h.61v3.21h1.26v.59h-1.26v3.42c.25-.11.64-.33,1.17-.64Zm7.07,1.23h-3.37v2h-.63v-2h-3.24v-.59h3.22v-1.25h-2.57v-5.72h1.78a6.15,6.15,0,0,0,.41-.92l.59.17c-.11.26-.21.51-.32.75h3.39v2.33h-5.25v1h5.36v2.43h-2.74v1.25h3.37Zm-1.37-5.82v-1.13h-4.62v1.13Zm.13,3.4v-1.26h-4.75v1.26Z"/><path class="cls-97" d="M38,206a5.64,5.64,0,0,1-.46,2.53,1.37,1.37,0,0,1-1.07.5q-.72.06-4.17.06H30.11a1.34,1.34,0,0,1-1-.33,1.38,1.38,0,0,1-.29-.95v-5.91h.65v1.52h7v-3.59H28.09v-.64h9V204H29.49v4a.47.47,0,0,0,.12.31.43.43,0,0,0,.3.16c.11,0,.77,0,2,0a35.33,35.33,0,0,0,5-.16c.32-.11.5-1,.53-2.55Z"/><path class="cls-97" d="M42.62,199.05c-.08.26-.24.67-.48,1.24l-.36.83v8.22h-.61v-7a12.86,12.86,0,0,1-1.26,1.86l-.35-.58a17,17,0,0,0,2.51-4.78Zm7.5,1.64H46.58v1.42h3v3.08h-3a5.26,5.26,0,0,1-.6,2.31,11.08,11.08,0,0,0,4.19,1.22l-.24.61A11.22,11.22,0,0,1,45.55,208a4.62,4.62,0,0,1-3,1.35l-.25-.57A4.49,4.49,0,0,0,45,207.65a7.07,7.07,0,0,1-1.71-1.7l.52-.3a6.92,6.92,0,0,0,1.54,1.51,4.28,4.28,0,0,0,.53-2h-3v-3.08h3v-1.42H42.55v-.58h3.39V198.9h.64v1.21h3.54Zm-4.2,2H43.58v1.9H45.9C45.92,203.9,45.93,203.27,45.92,202.7Zm3,1.9v-1.9H46.59c0,.62,0,1.26,0,1.9Z"/><path class="cls-97" d="M61.5,208.43a.69.69,0,0,1-.35.67,3.82,3.82,0,0,1-1.56.2h-.54l-.19-.66c.3,0,.59,0,.87,0a3.89,3.89,0,0,0,1-.07.24.24,0,0,0,.14-.23v-2.89H57.47V209h-.65v-3.51H53.4a8,8,0,0,1-1.23,3.77l-.57-.39a7.49,7.49,0,0,0,1.22-4.31v-5.5H61.5Zm-4.68-6.55V199.7H53.47v2.18Zm0,3v-2.32H53.47v2.32Zm4-3V199.7H57.47v2.18Zm0,3v-2.32H57.47v2.32Z"/><path class="cls-97" d="M67.73,209.05h-.61v-1H64.54v1.27h-.61V200.8H65a10.61,10.61,0,0,0,.85-2.06l.6.13c-.14.42-.41,1.06-.81,1.93h2ZM67.12,204V201.4H64.54V204Zm0,3.44v-2.84H64.54v2.84Zm6.62-6.6c0,1.79-.14,3.46-.26,5a12.48,12.48,0,0,1-.39,2.72,1.3,1.3,0,0,1-.49.58,2.69,2.69,0,0,1-1.15.17l-1,0-.2-.61c.33,0,.68,0,1.06,0H72a.62.62,0,0,0,.32-.15.71.71,0,0,0,.23-.32,8.91,8.91,0,0,0,.19-1.38c.08-.79.14-1.67.19-2.62s.09-1.89.11-2.79H70a16.06,16.06,0,0,1-1.46,2.37l-.49-.35a12.54,12.54,0,0,0,2.23-4.6l.61.16a18.72,18.72,0,0,1-.65,1.83Zm-2.21,5.37-.51.35a12.38,12.38,0,0,0-1.73-2.78l.51-.34A11.74,11.74,0,0,1,71.53,206.18Z"/><path class="cls-97" d="M78.46,207.11a3,3,0,0,0,1.1.58,4.47,4.47,0,0,0,1.32.23q2,0,2-1.44a1.26,1.26,0,0,0-.2-.72,1.89,1.89,0,0,0-.55-.54,15.47,15.47,0,0,0-1.38-.76,5.42,5.42,0,0,1-1.87-1.32,2.14,2.14,0,0,1-.39-1.26,2.07,2.07,0,0,1,.89-1.75,3.67,3.67,0,0,1,2.24-.66,4.25,4.25,0,0,1,1.93.32V201a3.55,3.55,0,0,0-2.06-.55,2.54,2.54,0,0,0-1.41.36,1.18,1.18,0,0,0-.54,1,1.28,1.28,0,0,0,.19.71,1.84,1.84,0,0,0,.52.52,12.83,12.83,0,0,0,1.28.7A6,6,0,0,1,83.37,205a2.22,2.22,0,0,1-.31,3.2,3.87,3.87,0,0,1-2.36.63,6.36,6.36,0,0,1-1.2-.15,2.94,2.94,0,0,1-1-.37Z"/><path class="cls-97" d="M93,208.68H91.71L87,201.37a4.77,4.77,0,0,1-.29-.55h0a9.73,9.73,0,0,1,0,1.22v6.64h-1v-9.05H87l4.6,7.23c.23.37.36.58.37.62h0a11.2,11.2,0,0,1-.06-1.36v-6.49h1Z"/><path class="cls-97" d="M102.28,208.68h-1.1l-1-2.57H96.3l-.92,2.57H94.27l3.49-9.05h1Zm-2.43-3.49-1.45-3.91a3.7,3.7,0,0,1-.13-.59h0a2.9,2.9,0,0,1-.15.59l-1.43,3.91Z"/><path class="cls-97" d="M108,200.54h-2.61v8.14h-1v-8.14h-2.61v-.91H108Z"/><path class="cls-97" d="M122.46,208.46l-.2.6h-4.38a5.46,5.46,0,0,1-4.11-1.33,9,9,0,0,1-1.44,1.62l-.47-.41a6.91,6.91,0,0,0,2.37-3.87h-2v-.57q.92-1,1.92-2.43H112v-.6h2.83v.6c-.39.55-1,1.35-1.83,2.39h1.85v.61a9,9,0,0,1-.8,2.16,4.83,4.83,0,0,0,3.63,1.23Zm-8-7.82-.46.42a8.33,8.33,0,0,0-1.71-1.76l.42-.42A10,10,0,0,1,114.47,200.64Zm7.91,6h-3.13V208h-.64v-1.32h-3.14v-.59h3.14v-.93H116v-3.88h2.65v-.93h-3v-.58h3v-.95h.64v.95h3v.58h-3v.93h2.67v3.88h-2.67v.93h3.13Zm-3.77-3.78v-1h-2v1Zm0,1.68v-1.1h-2v1.1Zm2.7-1.68v-1h-2.06v1Zm0,1.68v-1.1h-2.06v1.1Z"/><path class="cls-97" d="M127.29,201.58h-1.17V204a7.53,7.53,0,0,0,1.06-.43l.08.63c-.13.06-.51.22-1.14.46v3.82a.77.77,0,0,1-.88.87l-.92,0-.2-.66.69,0a1.31,1.31,0,0,0,.59-.08.25.25,0,0,0,.11-.23V204.9l-1.46.48-.14-.61c.48-.13,1-.31,1.6-.53v-2.66h-1.57V201h1.57v-2.14h.61V201h1.17Zm7.06,3.8h-1.59a5.65,5.65,0,0,1-1.26,2,23.51,23.51,0,0,1,2.78,1.51l-.36.5a17.54,17.54,0,0,0-2.9-1.57,10.09,10.09,0,0,1-3.77,1.48l-.37-.56a9.43,9.43,0,0,0,3.43-1.19c-.44-.2-1.09-.45-2-.76.23-.33.52-.82.88-1.44h-1.77v-.59h2.09a12.17,12.17,0,0,0,.61-1.26l.59.17a10.77,10.77,0,0,1-.5,1.09h2.06a3.8,3.8,0,0,0,.19-.68l.6.1a3.32,3.32,0,0,1-.15.58h1.41Zm0-2.1h-6.85v-.6h1.94a10.54,10.54,0,0,0-.6-1.87h-1.14v-.58h2.94a4.76,4.76,0,0,0-.47-1.18l.55-.27a7.51,7.51,0,0,1,.61,1.45h2.78v.58H133c-.2.68-.41,1.31-.63,1.87h1.92Zm-2.25,2.1h-2.16q-.37.7-.66,1.14c.44.15,1,.37,1.65.64A5.2,5.2,0,0,0,132.08,205.38Zm.3-4.57h-2.9a13.68,13.68,0,0,1,.58,1.87h1.71A15.76,15.76,0,0,0,132.38,200.81Z"/><path class="cls-97" d="M139.26,206c-1.24.69-2.34,1.26-3.3,1.69l-.08-.63c.67-.31,1.17-.55,1.49-.74v-3.74H136V202h1.39v-3.2H138V202h1.25v.59H138V206c.24-.11.63-.33,1.17-.64Zm7.07,1.23H143v2h-.62v-2h-3.24v-.59h3.21v-1.25h-2.56V199.7h1.77a5.28,5.28,0,0,0,.41-.92l.6.17-.32.75h3.39V202h-5.26v1h5.37v2.43H143v1.25h3.38ZM145,201.44v-1.13h-4.63v1.13Zm.12,3.4v-1.26h-4.75v1.26Z"/></g></svg>