<svg xmlns="http://www.w3.org/2000/svg" xmlns:xlink="http://www.w3.org/1999/xlink" viewBox="0 0 240.5 395.47"><defs><style>.cls-1{fill:#fff;}.cls-2,.cls-3,.cls-9{fill:#3c3c41;}.cls-2{opacity:0.05;}.cls-2,.cls-9{isolation:isolate;}.cls-4{fill:url(#linear-gradient);}.cls-5{fill:url(#linear-gradient-2);}.cls-6{fill:url(#linear-gradient-3);}.cls-7{fill:#50e6ff;}.cls-8{fill:#1490df;}.cls-9{opacity:0.25;}.cls-10{fill:url(#linear-gradient-4);}.cls-11{fill:url(#linear-gradient-5);}.cls-12{fill:#b4ec36;}.cls-13{fill:#5ea0ef;}.cls-14{fill:url(#linear-gradient-6);}.cls-15{fill:#c3f1ff;}.cls-16{fill:#9cebff;}.cls-17{fill:url(#linear-gradient-7);}.cls-18{fill:url(#linear-gradient-8);}.cls-19{fill:url(#linear-gradient-9);}.cls-20{fill:url(#linear-gradient-10);}.cls-21{fill:url(#linear-gradient-11);}.cls-22{fill:none;stroke:#3c3c41;stroke-miterlimit:10;}.cls-23{fill:url(#linear-gradient-12);}.cls-24{fill:url(#linear-gradient-13);}.cls-25{fill:url(#linear-gradient-14);}.cls-26{fill:url(#linear-gradient-15);}.cls-27{fill:url(#linear-gradient-16);}.cls-28{fill:url(#linear-gradient-17);}.cls-29{fill:url(#linear-gradient-18);}.cls-30{fill:#1e1e1e;}</style><linearGradient id="linear-gradient" x1="21.67" y1="639.04" x2="24.04" y2="641.41" gradientTransform="translate(2.11 -270.55) rotate(-0.08)" gradientUnits="userSpaceOnUse"><stop offset="0" stop-color="#86d633"/><stop offset="0.24" stop-color="#83d232"/><stop offset="0.5" stop-color="#7cc52f"/><stop offset="0.76" stop-color="#6fb02a"/><stop offset="1" stop-color="#5e9624"/></linearGradient><linearGradient id="linear-gradient-2" x1="16.33" y1="639.04" x2="18.69" y2="641.41" xlink:href="#linear-gradient"/><linearGradient id="linear-gradient-3" x1="10.99" y1="639.04" x2="13.35" y2="641.4" xlink:href="#linear-gradient"/><linearGradient id="linear-gradient-4" x1="149.14" y1="265.29" x2="149.14" y2="301.06" gradientTransform="translate(0 -269.39)" gradientUnits="userSpaceOnUse"><stop offset="0.18" stop-color="#5ea0ef"/><stop offset="1" stop-color="#0078d4"/></linearGradient><linearGradient id="linear-gradient-5" x1="149.14" y1="380.98" x2="149.14" y2="343.89" gradientTransform="translate(0 -269.39)" gradientUnits="userSpaceOnUse"><stop offset="0" stop-color="#5e9624"/><stop offset="0.02" stop-color="#5f9724"/><stop offset="1" stop-color="#76bc2d"/></linearGradient><linearGradient id="linear-gradient-6" x1="148.74" y1="438.34" x2="148.74" y2="416.7" gradientTransform="translate(0 -269.39)" gradientUnits="userSpaceOnUse"><stop offset="0" stop-color="#0078d4"/><stop offset="0.82" stop-color="#5ea0ef"/></linearGradient><linearGradient id="linear-gradient-7" x1="148.74" y1="446.7" x2="148.74" y2="438.34" gradientTransform="translate(0 -269.39)" gradientUnits="userSpaceOnUse"><stop offset="0.15" stop-color="#ccc"/><stop offset="1" stop-color="#707070"/></linearGradient><linearGradient id="linear-gradient-8" x1="96.24" y1="438.34" x2="96.24" y2="416.7" xlink:href="#linear-gradient-6"/><linearGradient id="linear-gradient-9" x1="96.24" y1="446.7" x2="96.24" y2="438.34" xlink:href="#linear-gradient-7"/><linearGradient id="linear-gradient-10" x1="201.24" y1="438.34" x2="201.24" y2="416.7" xlink:href="#linear-gradient-6"/><linearGradient id="linear-gradient-11" x1="201.24" y1="446.7" x2="201.24" y2="438.34" xlink:href="#linear-gradient-7"/><linearGradient id="linear-gradient-12" x1="149.14" y1="533.3" x2="149.14" y2="496.2" xlink:href="#linear-gradient-5"/><linearGradient id="linear-gradient-13" x1="148.74" y1="588.34" x2="148.74" y2="566.7" xlink:href="#linear-gradient-6"/><linearGradient id="linear-gradient-14" x1="148.74" y1="596.7" x2="148.74" y2="588.34" xlink:href="#linear-gradient-7"/><linearGradient id="linear-gradient-15" x1="96.24" y1="588.34" x2="96.24" y2="566.7" xlink:href="#linear-gradient-6"/><linearGradient id="linear-gradient-16" x1="96.24" y1="596.7" x2="96.24" y2="588.34" xlink:href="#linear-gradient-7"/><linearGradient id="linear-gradient-17" x1="201.24" y1="588.34" x2="201.24" y2="566.7" xlink:href="#linear-gradient-6"/><linearGradient id="linear-gradient-18" x1="201.24" y1="596.7" x2="201.24" y2="588.34" xlink:href="#linear-gradient-7"/></defs><title>OJ104939016</title><g id="shapes"><rect class="cls-1" width="240.5" height="395.47"/><rect class="cls-1" x="0.5" y="64.8" width="240" height="305" rx="5"/><rect class="cls-2" x="0.5" y="64.8" width="240" height="305" rx="5"/><path class="cls-3" d="M234.34,370.3h-1v-1h1Zm-3,0h-1v-1h1Zm-3,0h-1v-1h1Zm-3,0h-1v-1h1Zm-3,0h-1v-1h1Zm-3,0h-1v-1h1Zm-3,0h-1v-1h1Zm-3,0h-1v-1h1Zm-3,0h-1v-1h1Zm-3,0h-1v-1h1Zm-3,0h-1v-1h1Zm-3,0h-1v-1h1Zm-3,0h-1v-1h1Zm-3,0h-1v-1h1Zm-3,0h-1v-1h1Zm-3,0h-1v-1h1Zm-3,0h-1v-1h1Zm-3,0h-1v-1h1Zm-3,0h-1v-1h1Zm-3,0h-1v-1h1Zm-3,0h-1v-1h1Zm-3,0h-1v-1h1Zm-3,0h-1v-1h1Zm-3,0h-1v-1h1Zm-3,0h-1v-1h1Zm-3,0h-1v-1h1Zm-3,0h-1v-1h1Zm-3,0h-1v-1h1Zm-3,0h-1v-1h1Zm-3,0h-1v-1h1Zm-3,0h-1v-1h1Zm-3,0h-1v-1h1Zm-3,0h-1v-1h1Zm-3,0h-1v-1h1Zm-3,0h-1v-1h1Zm-3,0h-1v-1h1Zm-3,0h-1v-1h1Zm-3,0h-1v-1h1Zm-3,0h-1v-1h1Zm-3,0h-1v-1h1Zm-3,0h-1v-1h1Zm-3,0h-1v-1h1Zm-3,0h-1v-1h1Zm-3,0h-1v-1h1Zm-3,0h-1v-1h1Zm-3,0h-1v-1h1Zm-3,0h-1v-1h1Zm-3,0h-1v-1h1Zm-3,0h-1v-1h1Zm-3,0h-1v-1h1Zm-3,0h-1v-1h1Zm-3,0h-1v-1h1Zm-3,0h-1v-1h1Zm-3,0h-1v-1h1Zm-3,0h-1v-1h1Zm-3,0h-1v-1h1Zm-3,0h-1v-1h1Zm-3,0h-1v-1h1Zm-3,0h-1v-1h1Zm-3,0h-1v-1h1Zm-3,0h-1v-1h1Zm-3,0h-1v-1h1Zm-3,0h-1v-1h1Zm-3,0h-1v-1h1Zm-3,0h-1v-1h1Zm-3,0h-1v-1h1Zm-3,0h-1v-1h1Zm-30,0H5.5a4,4,0,0,1-.49,0l.09-1h1Zm230.36-.07-.16-1a4.4,4.4,0,0,0,.86-.24l.36.93a5.37,5.37,0,0,1-1.06.3ZM2.91,369.65A6,6,0,0,1,2,369l.64-.77a4.26,4.26,0,0,0,.75.5Zm236.41-.9-.69-.72a4.82,4.82,0,0,0,.58-.69l.82.57a5.64,5.64,0,0,1-.71.84ZM.63,367.34a5.09,5.09,0,0,1-.42-1l1-.27a4.48,4.48,0,0,0,.33.83Zm240.26-1.44-1-.2a4.58,4.58,0,0,0,.09-.9l1-.05v.05A5.78,5.78,0,0,1,240.89,365.9ZM1,364.2H0v-1H1Zm240-1.46h-1v-1h1ZM1,361.2H0v-1H1Zm240-1.46h-1v-1h1ZM1,358.19H0v-1H1Zm240-1.45h-1v-1h1ZM1,355.19H0v-1H1Zm240-1.46h-1v-1h1ZM1,352.19H0v-1H1Zm240-1.46h-1v-1h1ZM1,349.18H0v-1H1Zm240-1.46h-1v-1h1ZM1,346.18H0v-1H1Zm240-1.46h-1v-1h1ZM1,343.17H0v-1H1Zm240-1.45h-1v-1h1ZM1,340.17H0v-1H1Zm240-1.46h-1v-1h1ZM1,337.17H0v-1H1Zm240-1.46h-1v-1h1ZM1,334.16H0v-1H1Zm240-1.46h-1v-1h1ZM1,331.16H0v-1H1Zm240-1.46h-1v-1h1ZM1,328.16H0v-1H1Zm240-1.46h-1v-1h1ZM1,325.15H0v-1H1Zm240-1.46h-1v-1h1ZM1,322.15H0v-1H1Zm240-1.46h-1v-1h1ZM1,319.14H0v-1H1Zm240-1.45h-1v-1h1ZM1,316.14H0v-1H1Zm240-1.46h-1v-1h1ZM1,313.14H0v-1H1Zm240-1.46h-1v-1h1ZM1,310.13H0v-1H1Zm240-1.46h-1v-1h1ZM1,307.13H0v-1H1Zm240-1.46h-1v-1h1ZM1,304.13H0v-1H1Zm240-1.46h-1v-1h1ZM1,301.12H0v-1H1Zm240-1.46h-1v-1h1ZM1,298.12H0v-1H1Zm240-1.46h-1v-1h1ZM1,295.11H0v-1H1Zm240-1.45h-1v-1h1ZM1,292.11H0v-1H1Zm240-1.46h-1v-1h1ZM1,289.11H0v-1H1Zm240-1.46h-1v-1h1ZM1,286.1H0v-1H1Zm240-1.46h-1v-1h1ZM1,283.1H0v-1H1Zm240-1.46h-1v-1h1ZM1,280.1H0v-1H1Zm240-1.46h-1v-1h1ZM1,277.09H0v-1H1Zm240-1.46h-1v-1h1ZM1,274.09H0v-1H1Zm240-1.46h-1v-1h1ZM1,271.08H0v-1H1Zm240-1.45h-1v-1h1ZM1,268.08H0v-1H1Zm240-1.46h-1v-1h1ZM1,265.08H0v-1H1Zm240-1.46h-1v-1h1ZM1,262.07H0v-1H1Zm240-1.45h-1v-1h1ZM1,259.07H0v-1H1Zm240-1.46h-1v-1h1ZM1,256.07H0v-1H1Zm240-1.46h-1v-1h1ZM1,253.06H0v-1H1Zm240-1.46h-1v-1h1ZM1,250.06H0v-1H1Zm240-1.46h-1v-1h1ZM1,247.05H0v-1H1Zm240-1.45h-1v-1h1ZM1,244.05H0v-1H1Zm240-1.46h-1v-1h1ZM1,241.05H0v-1H1Zm240-1.46h-1v-1h1ZM1,238H0v-1H1Zm240-1.46h-1v-1h1ZM1,235H0v-1H1Zm240-1.46h-1v-1h1ZM1,232H0v-1H1Zm240-1.46h-1v-1h1ZM1,229H0v-1H1Zm240-1.46h-1v-1h1ZM1,226H0v-1H1Zm240-1.46h-1v-1h1ZM1,223H0v-1H1Zm240-1.45h-1v-1h1ZM1,220H0v-1H1Zm240-1.46h-1v-1h1ZM1,217H0v-1H1Zm240-1.46h-1v-1h1ZM1,214H0v-1H1Zm240-1.45h-1v-1h1ZM1,211H0v-1H1Zm240-1.46h-1v-1h1ZM1,208H0v-1H1Zm240-1.46h-1v-1h1ZM1,205H0v-1H1Zm240-1.46h-1v-1h1ZM1,202H0v-1H1Zm240-1.46h-1v-1h1ZM1,199H0v-1H1Zm240-1.45h-1v-1h1ZM1,196H0v-1H1Zm240-1.46h-1v-1h1ZM1,193H0v-1H1Zm240-1.46h-1v-1h1ZM1,190H0v-1H1Zm240-1.46h-1v-1h1ZM1,187H0v-1H1Zm240-1.46h-1v-1h1ZM1,184H0v-1H1Zm240-1.46h-1v-1h1ZM1,181H0v-1H1Zm240-1.46h-1v-1h1ZM1,178H0v-1H1Zm240-1.46h-1v-1h1ZM1,175H0v-1H1Zm240-1.45h-1v-1h1ZM1,172H0v-1H1Zm240-1.46h-1v-1h1ZM1,169H0v-1H1Zm240-1.46h-1v-1h1ZM1,166H0v-1H1Zm240-1.45h-1v-1h1ZM1,163H0v-1H1Zm240-1.46h-1v-1h1ZM1,160H0v-1H1Zm240-1.46h-1v-1h1ZM1,156.94H0v-1H1Zm240-1.46h-1v-1h1ZM1,153.94H0v-1H1Zm240-1.46h-1v-1h1ZM1,150.93H0v-1H1Zm240-1.45h-1v-1h1ZM1,147.93H0v-1H1Zm240-1.46h-1v-1h1ZM1,144.93H0v-1H1Zm240-1.46h-1v-1h1ZM1,141.92H0v-1H1Zm240-1.46h-1v-1h1ZM1,138.92H0v-1H1Zm240-1.46h-1v-1h1ZM1,135.92H0v-1H1Zm240-1.46h-1v-1h1ZM1,132.91H0v-1H1Zm240-1.46h-1v-1h1ZM1,129.91H0v-1H1Zm240-1.46h-1v-1h1ZM1,126.9H0v-1H1Zm240-1.45h-1v-1h1ZM1,123.9H0v-1H1Zm240-1.46h-1v-1h1ZM1,120.9H0v-1H1Zm240-1.46h-1v-1h1ZM1,117.89H0v-1H1Zm240-1.46h-1v-1h1ZM1,114.89H0v-1H1Zm240-1.46h-1v-1h1ZM1,111.89H0v-1H1Zm240-1.46h-1v-1h1ZM1,108.88H0v-1H1Zm240-1.46h-1v-1h1ZM1,105.88H0v-1H1Zm240-1.46h-1v-1h1ZM1,102.87H0v-1H1Zm240-1.45h-1v-1h1ZM1,99.87H0v-1H1Zm240-1.46h-1v-1h1ZM1,96.87H0v-1H1Zm240-1.46h-1v-1h1ZM1,93.86H0v-1H1ZM241,92.4h-1v-1h1ZM1,90.86H0v-1H1ZM241,89.4h-1v-1h1ZM1,87.86H0v-1H1ZM241,86.4h-1v-1h1ZM1,84.85H0v-1H1Zm240-1.46h-1v-1h1ZM1,81.85H0v-1H1Zm240-1.46h-1v-1h1ZM1,78.84H0v-1H1Zm240-1.45h-1v-1h1ZM1,75.84H0v-1H1Zm240-1.46h-1v-1h1ZM1,72.84H0v-1H1Zm240-1.46h-1v-1h1ZM0,69.83v0a5.44,5.44,0,0,1,.1-1.06l1,.2A4.91,4.91,0,0,0,1,69.8Zm239.82-1.29a5.09,5.09,0,0,0-.34-.84l.88-.46a6,6,0,0,1,.42,1Zm-238-1.25L1,66.72a6.24,6.24,0,0,1,.7-.84l.7.71A5.45,5.45,0,0,0,1.78,67.29Zm236.56-1a4.26,4.26,0,0,0-.75-.5l.47-.88a5,5,0,0,1,.91.61ZM3.86,65.62l-.37-.93a4.84,4.84,0,0,1,1-.3l.18,1A4.06,4.06,0,0,0,3.86,65.62Zm232-.3-.37,0h-.59v-1h.59l.46,0Zm-3,0h-1v-1h1Zm-3,0h-1v-1h1Zm-3,0h-1v-1h1Zm-3,0h-1v-1h1Zm-3,0h-1v-1h1Zm-3,0h-1v-1h1Zm-3,0h-1v-1h1Zm-3,0h-1v-1h1Zm-3,0h-1v-1h1Zm-3,0h-1v-1h1Zm-3,0h-1v-1h1Zm-3,0h-1v-1h1Zm-3,0h-1v-1h1Zm-3,0h-1v-1h1Zm-3,0h-1v-1h1Zm-3,0h-1v-1h1Zm-3,0h-1v-1h1Zm-3,0h-1v-1h1Zm-3,0h-1v-1h1Zm-3,0h-1v-1h1Zm-3,0h-1v-1h1Zm-3,0h-1v-1h1Zm-3,0h-1v-1h1Zm-3,0h-1v-1h1Zm-3,0h-1v-1h1Zm-3,0h-1v-1h1Zm-3,0h-1v-1h1Zm-3,0h-1v-1h1Zm-3,0h-1v-1h1Zm-3,0h-1v-1h1Zm-3,0h-1v-1h1Zm-3,0h-1v-1h1Zm-3,0h-1v-1h1Zm-3,0h-1v-1h1Zm-3,0h-1v-1h1Zm-3,0h-1v-1h1Zm-3,0h-1v-1h1Zm-3,0h-1v-1h1Zm-3,0h-1v-1h1Zm-3,0h-1v-1h1Zm-3,0h-1v-1h1Zm-3,0h-1v-1h1Zm-3,0h-1v-1h1Zm-3,0h-1v-1h1Zm-3,0h-1v-1h1Zm-3,0h-1v-1h1Zm-3,0h-1v-1h1Zm-3,0h-1v-1h1Zm-3,0h-1v-1h1Zm-3,0h-1v-1h1Zm-3,0h-1v-1h1Zm-3,0h-1v-1h1Zm-3,0h-1v-1h1Zm-3,0h-1v-1h1Zm-3,0h-1v-1h1Zm-3,0h-1v-1h1Zm-3,0h-1v-1h1Zm-3,0h-1v-1h1Zm-3,0h-1v-1h1Zm-3,0h-1v-1h1Zm-3,0h-1v-1h1Zm-3,0h-1v-1h1Zm-3,0h-1v-1h1Zm-3,0h-1v-1h1Zm-3,0h-1v-1h1Zm-3,0h-1v-1h1Zm-3,0h-1v-1h1Zm-3,0h-1v-1h1Zm-3,0h-1v-1h1Zm-3,0h-1v-1h1Zm-3,0h-1v-1h1Zm-3,0h-1v-1h1Zm-3,0h-1v-1h1Zm-3,0h-1v-1h1Zm-3,0h-1v-1h1Zm-3,0h-1v-1h1Z"/><circle class="cls-4" cx="25.86" cy="369.64" r="1.67"/><circle class="cls-5" cx="20.52" cy="369.65" r="1.67"/><circle class="cls-6" cx="15.18" cy="369.65" r="1.67"/><path class="cls-7" d="M16.39,376.35l-1,1a.44.44,0,0,1-.62,0h0l-7.09-7.07a.87.87,0,0,1,0-1.23h0l.95-1h0l7.71,7.69a.43.43,0,0,1,0,.61Z"/><path class="cls-8" d="M15.29,362l1,1a.43.43,0,0,1,0,.61l-7.57,7.6h0l-1-1a.87.87,0,0,1,0-1.22h0l7-7A.43.43,0,0,1,15.29,362Z"/><path class="cls-7" d="M32.24,368l1,1a.86.86,0,0,1,0,1.22h0l-7.1,7.08a.43.43,0,0,1-.61,0h0l-1-1a.43.43,0,0,1,0-.61h0L32.24,368Z"/><path class="cls-8" d="M33.2,370.21l-1,1h0l-7.58-7.6a.43.43,0,0,1,0-.61h0l1-1a.44.44,0,0,1,.61,0h0l7,7a.86.86,0,0,1,0,1.22h0Z"/><rect class="cls-1" x="10" y="139.3" width="220" height="65"/><rect class="cls-9" x="10" y="139.3" width="220" height="65"/><path class="cls-10" d="M167,17.85a8.16,8.16,0,0,0-7-7.91A10.26,10.26,0,0,0,149.59,0a10.52,10.52,0,0,0-9.94,7,9.67,9.67,0,0,0-8.4,9.45A10,10,0,0,0,141.34,26H159A8.25,8.25,0,0,0,167,17.85Z"/><path class="cls-11" d="M133.47,91.54l14.91-14.91a1.05,1.05,0,0,1,1.51,0l0,0,14.91,14.91a1.07,1.07,0,0,1,0,1.51l0,0L149.89,108a1.08,1.08,0,0,1-1.49,0L133.47,93.07a1.06,1.06,0,0,1,0-1.51Z"/><path class="cls-12" d="M153.05,83.42l-3.76-3.75a.21.21,0,0,0-.29,0l-3.77,3.75a.18.18,0,0,0,0,.24.22.22,0,0,0,.2.08h2.2a.19.19,0,0,1,.2.19v3.56a.19.19,0,0,0,.19.19h2.35a.19.19,0,0,0,.19-.19V83.93a.19.19,0,0,1,.2-.19h2.2a.19.19,0,0,0,.22-.13.16.16,0,0,0-.08-.19Z"/><path class="cls-12" d="M140.26,88.06l-3.74,3.78a.2.2,0,0,0,0,.27l3.74,3.75a.19.19,0,0,0,.27,0,.18.18,0,0,0,.06-.15V93.53a.2.2,0,0,1,.2-.2h3.55a.17.17,0,0,0,.18-.17V90.79a.18.18,0,0,0-.06-.24l-.06,0h-3.56a.18.18,0,0,1-.19-.16V88.2a.21.21,0,0,0-.13-.27A.2.2,0,0,0,140.26,88.06Z"/><path class="cls-12" d="M158.17,95.86,162,92.09a.2.2,0,0,0,0-.27l-3.79-3.76a.19.19,0,0,0-.27,0,.22.22,0,0,0-.05.12v2.22a.18.18,0,0,1-.17.18H154.1a.18.18,0,0,0-.18.17h0v2.37a.19.19,0,0,0,.16.19h3.58a.19.19,0,0,1,.19.2h0v2.2a.19.19,0,0,0,.22.17A.18.18,0,0,0,158.17,95.86Z"/><path class="cls-1" d="M154.1,92.3a5,5,0,1,0-6.29,4.75v1.69a3.05,3.05,0,1,0,2.79,0V97A4.92,4.92,0,0,0,154.1,92.3Z"/><circle id="e99c3387-15c3-4f28-bd4b-cb209b430e06" class="cls-13" cx="149.16" cy="92.29" r="2.88"/><rect class="cls-14" x="132.5" y="147.3" width="32.47" height="21.65" rx="1.08"/><polygon class="cls-7" points="154.15 154.97 154.15 161.27 148.74 164.44 148.74 158.13 154.15 154.97"/><polygon class="cls-15" points="154.15 154.97 148.74 158.15 143.32 154.97 148.74 151.81 154.15 154.97"/><polygon class="cls-16" points="148.74 158.15 148.74 164.44 143.32 161.27 143.32 154.97 148.74 158.15"/><polygon class="cls-15" points="143.32 161.27 148.74 158.13 148.74 164.44 143.32 161.27"/><polygon class="cls-16" points="154.15 161.27 148.74 158.13 148.74 164.44 154.15 161.27"/><path class="cls-17" d="M155.25,175.5c-3.21-.51-3.34-2.81-3.34-6.55h-6.37c0,3.74-.11,6-3.32,6.55a1.8,1.8,0,0,0-1.6,1.8h16.23A1.79,1.79,0,0,0,155.25,175.5Z"/><rect class="cls-18" x="80" y="147.3" width="32.47" height="21.65" rx="1.08"/><polygon class="cls-7" points="101.65 154.97 101.65 161.27 96.24 164.44 96.24 158.13 101.65 154.97"/><polygon class="cls-15" points="101.65 154.97 96.24 158.15 90.82 154.97 96.24 151.81 101.65 154.97"/><polygon class="cls-16" points="96.24 158.15 96.24 164.44 90.82 161.27 90.82 154.97 96.24 158.15"/><polygon class="cls-15" points="90.82 161.27 96.24 158.13 96.24 164.44 90.82 161.27"/><polygon class="cls-16" points="101.65 161.27 96.24 158.13 96.24 164.44 101.65 161.27"/><path class="cls-19" d="M102.75,175.5c-3.21-.51-3.34-2.81-3.34-6.55H93c0,3.74-.11,6-3.32,6.55a1.8,1.8,0,0,0-1.6,1.8h16.23A1.79,1.79,0,0,0,102.75,175.5Z"/><rect class="cls-20" x="185" y="147.3" width="32.47" height="21.65" rx="1.08"/><polygon class="cls-7" points="206.65 154.97 206.65 161.27 201.24 164.44 201.24 158.13 206.65 154.97"/><polygon class="cls-15" points="206.65 154.97 201.24 158.15 195.82 154.97 201.24 151.81 206.65 154.97"/><polygon class="cls-16" points="201.24 158.15 201.24 164.44 195.82 161.27 195.82 154.97 201.24 158.15"/><polygon class="cls-15" points="195.82 161.27 201.24 158.13 201.24 164.44 195.82 161.27"/><polygon class="cls-16" points="206.65 161.27 201.24 158.13 201.24 164.44 206.65 161.27"/><path class="cls-21" d="M207.75,175.5c-3.21-.51-3.34-2.81-3.34-6.55H198c0,3.74-.11,6-3.32,6.55a1.8,1.8,0,0,0-1.6,1.8h16.23A1.79,1.79,0,0,0,207.75,175.5Z"/><line class="cls-22" x1="149.14" y1="29.3" x2="149.14" y2="41.8"/><line class="cls-22" x1="149.14" y1="59.3" x2="149.14" y2="73.3"/><path class="cls-23" d="M133.47,243.86l14.91-14.92a1.07,1.07,0,0,1,1.51,0l0,0,14.91,14.92a1.06,1.06,0,0,1,0,1.5l0,0-14.93,14.94a1.08,1.08,0,0,1-1.49,0l-14.93-14.94a1.05,1.05,0,0,1,0-1.5h0Z"/><path class="cls-12" d="M153.05,235.73,149.29,232a.23.23,0,0,0-.29,0l-3.77,3.75a.18.18,0,0,0,.15.32h2.2a.2.2,0,0,1,.2.2v3.55a.19.19,0,0,0,.19.2h2.35a.19.19,0,0,0,.19-.2v-3.55a.2.2,0,0,1,.2-.2h2.2a.18.18,0,0,0,.22-.13.17.17,0,0,0-.08-.19Z"/><path class="cls-12" d="M140.26,240.37l-3.74,3.79a.19.19,0,0,0,0,.26l3.74,3.76a.19.19,0,0,0,.27,0,.17.17,0,0,0,.06-.15v-2.18a.2.2,0,0,1,.2-.2h3.55a.18.18,0,0,0,.18-.18h0v-2.35a.17.17,0,0,0-.06-.24s0,0-.06,0h-3.56a.18.18,0,0,1-.19-.16v-2.17a.2.2,0,0,0-.13-.26.2.2,0,0,0-.26.12Z"/><path class="cls-12" d="M158.17,248.18l3.79-3.77a.2.2,0,0,0,0-.27l-3.79-3.77a.18.18,0,0,0-.27,0,.16.16,0,0,0-.05.11v2.23a.18.18,0,0,1-.17.17H154.1a.18.18,0,0,0-.18.18h0v2.37a.19.19,0,0,0,.16.19h3.58a.19.19,0,0,1,.19.2h0v2.2a.2.2,0,0,0,.22.17l.1,0Z"/><path class="cls-1" d="M154.1,244.62a5,5,0,1,0-6.29,4.75v1.68a3,3,0,1,0,2.79,0v-1.77A4.92,4.92,0,0,0,154.1,244.62Z"/><circle id="e99c3387-15c3-4f28-bd4b-cb209b430e06-2" class="cls-13" cx="149.16" cy="244.6" r="2.88"/><line class="cls-22" x1="149.14" y1="197.12" x2="149.14" y2="226.44"/><line class="cls-22" x1="149.14" y1="132.69" x2="149.14" y2="144.8"/><line class="cls-22" x1="149.14" y1="112.99" x2="149.14" y2="121.66"/><path class="cls-22" d="M100.91,128.09l-2.45,1a4.62,4.62,0,0,0-2.44,4V144.8"/><line class="cls-22" x1="143.96" y1="110.3" x2="115.93" y2="121.88"/><path class="cls-22" d="M144,228.79l-25.25-10.43-5.55-2.29-9.48-3.92L98.46,210A4.6,4.6,0,0,1,96,206v-8.86"/><path class="cls-22" d="M156,228.79l25.26-10.43,5.54-2.29,9.48-3.92L201.5,210a4.58,4.58,0,0,0,2.44-4v-8.86"/><path class="cls-22" d="M199.05,128.09l2.45,1a4.6,4.6,0,0,1,2.44,4V144.8"/><line class="cls-22" x1="156" y1="110.3" x2="184.03" y2="121.88"/><rect class="cls-1" x="10" y="289.3" width="220" height="65"/><rect class="cls-9" x="10" y="289.3" width="220" height="65"/><rect class="cls-24" x="132.5" y="297.3" width="32.47" height="21.65" rx="1.08"/><polygon class="cls-7" points="154.15 304.97 154.15 311.27 148.74 314.44 148.74 308.13 154.15 304.97"/><polygon class="cls-15" points="154.15 304.97 148.74 308.14 143.32 304.97 148.74 301.81 154.15 304.97"/><polygon class="cls-16" points="148.74 308.14 148.74 314.44 143.32 311.27 143.32 304.97 148.74 308.14"/><polygon class="cls-15" points="143.32 311.27 148.74 308.13 148.74 314.44 143.32 311.27"/><polygon class="cls-16" points="154.15 311.27 148.74 308.13 148.74 314.44 154.15 311.27"/><path class="cls-25" d="M155.25,325.5c-3.21-.51-3.34-2.81-3.34-6.55h-6.37c0,3.74-.11,6-3.32,6.55a1.8,1.8,0,0,0-1.6,1.8h16.23A1.79,1.79,0,0,0,155.25,325.5Z"/><rect class="cls-26" x="80" y="297.3" width="32.47" height="21.65" rx="1.08"/><polygon class="cls-7" points="101.65 304.97 101.65 311.27 96.24 314.44 96.24 308.13 101.65 304.97"/><polygon class="cls-15" points="101.65 304.97 96.24 308.14 90.82 304.97 96.24 301.81 101.65 304.97"/><polygon class="cls-16" points="96.24 308.14 96.24 314.44 90.82 311.27 90.82 304.97 96.24 308.14"/><polygon class="cls-15" points="90.82 311.27 96.24 308.13 96.24 314.44 90.82 311.27"/><polygon class="cls-16" points="101.65 311.27 96.24 308.13 96.24 314.44 101.65 311.27"/><path class="cls-27" d="M102.75,325.5c-3.21-.51-3.34-2.81-3.34-6.55H93c0,3.74-.11,6-3.32,6.55a1.8,1.8,0,0,0-1.6,1.8h16.23A1.79,1.79,0,0,0,102.75,325.5Z"/><rect class="cls-28" x="185" y="297.3" width="32.47" height="21.65" rx="1.08"/><polygon class="cls-7" points="206.65 304.97 206.65 311.27 201.24 314.44 201.24 308.13 206.65 304.97"/><polygon class="cls-15" points="206.65 304.97 201.24 308.14 195.82 304.97 201.24 301.81 206.65 304.97"/><polygon class="cls-16" points="201.24 308.14 201.24 314.44 195.82 311.27 195.82 304.97 201.24 308.14"/><polygon class="cls-15" points="195.82 311.27 201.24 308.13 201.24 314.44 195.82 311.27"/><polygon class="cls-16" points="206.65 311.27 201.24 308.13 201.24 314.44 206.65 311.27"/><path class="cls-29" d="M207.75,325.5c-3.21-.51-3.34-2.81-3.34-6.55H198c0,3.74-.11,6-3.32,6.55a1.8,1.8,0,0,0-1.6,1.8h16.23A1.79,1.79,0,0,0,207.75,325.5Z"/><line class="cls-22" x1="149.14" y1="284.6" x2="149.14" y2="296.71"/><line class="cls-22" x1="149.14" y1="262.1" x2="149.14" y2="272.71"/><path class="cls-22" d="M100.91,280l-2.45,1A4.6,4.6,0,0,0,96,285v11.69"/><line class="cls-22" x1="143.96" y1="262.21" x2="121.18" y2="271.62"/><path class="cls-22" d="M195.32,280l2.44,1a4.59,4.59,0,0,1,2.45,4v11.69"/><line class="cls-22" x1="152.27" y1="262.21" x2="175.04" y2="271.62"/></g><g id="text"><path class="cls-30" d="M18.58,383.32a8.41,8.41,0,0,1-.67,2.12l-.58-.19a6.47,6.47,0,0,0,.47-1.33H13.31v.95l3.06-.23,0,.58-3.09.21V386a.3.3,0,0,0,.11.23.39.39,0,0,0,.23.1h4.18v.57H13.47a.68.68,0,0,1-.77-.76v-.61l-2.06.14-.05-.59,2.11-.14v-1H10v2.58a10.58,10.58,0,0,1-1.11,5.36l-.55-.33a8.44,8.44,0,0,0,.84-2.35,16.19,16.19,0,0,0,.2-2.7v-3.16h3.65v-2h.62V382h4.6v.58h-4.6v.76Zm.22,8.17H10.16v-.6h3.05v-1H11.12v-1.92h.64v1.29h1.45v-1.81h.62v3.47H15v-3.47h.62v1.81h1.47v-1.3h.61v1.93H15.65v1H18.8Z"/><path class="cls-30" d="M23.28,384h-1v2c.34-.21.6-.38.77-.51l.06.66c-.44.31-.71.49-.83.56v4.23c0,.55-.34.83-1,.83l-.61,0-.19-.61,1,0c.17,0,.25-.1.25-.3v-3.79c-.31.18-.69.38-1.11.59l-.21-.56c.57-.29,1-.54,1.32-.73V384H20.49v-.58h1.22v-2.13h.59v2.13h1Zm3.34,4.24H25.2a3.69,3.69,0,0,1-.1.52,10.87,10.87,0,0,1,1.09,1.19l-.42.39q-.4-.49-.87-1a5.41,5.41,0,0,1-1.81,2.42l-.43-.4a4.72,4.72,0,0,0,1.93-3.16H23.12v-.54h1.54c0-.34.05-.8.07-1.39h-.59a7.82,7.82,0,0,1-.7.94l-.49-.33a5.8,5.8,0,0,0,1.19-2l.51.19a5,5,0,0,1-.21.68h2v.56H25.31c0,.45,0,.92,0,1.39h1.36Zm.1-3.6H24.66a.83.83,0,0,1-.62-.24.87.87,0,0,1-.23-.61v-2.49h.59v.88h2.17v.58H24.4v1c0,.2.12.3.35.3h2Zm4.2,6.33-.11.6-.63,0a3.05,3.05,0,0,1-2.94-1.43,7.29,7.29,0,0,1-1.19,1.7l-.46-.38a5.26,5.26,0,0,0,1.51-4.19h.6a12,12,0,0,1-.22,2.12,2,2,0,0,0,.93,1.15v-4.94H26.9V385h2.23a10.68,10.68,0,0,0-1.86-1.73l.41-.42,1,.8A11.44,11.44,0,0,0,30,382.13H27.13v-.55h3.5v.55A11.06,11.06,0,0,1,29,384.08a7.73,7.73,0,0,1,.55.63l-.31.33h1.5a9,9,0,0,1-.52,2l-.5-.27a6.84,6.84,0,0,0,.33-1.24H29v2.18h1.44v.56H29v2.45A5.3,5.3,0,0,0,30.92,390.93Z"/><path class="cls-30" d="M33.64,389a15.1,15.1,0,0,1-.67,2.84l-.6-.26a13.07,13.07,0,0,0,.71-2.7Zm2.94-.76-.57.19a6.9,6.9,0,0,0-.18-.68c-1.21.33-2.28.59-3.2.75l-.19-.66a13,13,0,0,0,2.28-2.73c-1.06.17-1.73.28-2,.31l-.16-.6a12.13,12.13,0,0,0,1.93-3.49l.58.19a14.33,14.33,0,0,1-1.68,3.19,13,13,0,0,0,1.72-.25,13.56,13.56,0,0,0,.84-1.53l.57.22a17.61,17.61,0,0,1-3.11,4.57,16.66,16.66,0,0,0,2.24-.52,5.6,5.6,0,0,0-.32-.82l.54-.19A10.55,10.55,0,0,1,36.58,388.19Zm-1.43,3.11-.62.12a14.7,14.7,0,0,0-.33-2.5l.58-.09A14.22,14.22,0,0,1,35.15,391.3Zm1.41-.56L36,391a11.08,11.08,0,0,0-.52-2.15l.57-.18A11.92,11.92,0,0,1,36.56,390.74Zm6.06.14a.84.84,0,0,1-.21.55.82.82,0,0,1-.48.3,6.54,6.54,0,0,1-1.09,0l-.26-.65h.65a1.93,1.93,0,0,0,.66-.07.27.27,0,0,0,.12-.25v-8.6H37.46v9.55h-.61V381.6h5.77Zm-1-5.7H37.81v-.59h1a9.24,9.24,0,0,0-.59-1.52l.56-.23a14.2,14.2,0,0,1,.67,1.75h.68a12.37,12.37,0,0,0,.8-1.77l.55.21a14.19,14.19,0,0,1-.67,1.56h.89Zm0,2.18H39.09v1.78c0,.21.1.31.29.31h2.11V390H39.32a.75.75,0,0,1-.84-.86v-1.79h-.67v-.57h1.87a9.88,9.88,0,0,0-.46-1.1l.59-.2c.14.3.31.73.52,1.3h1.33Z"/><path class="cls-30" d="M48.7,390.32a40.16,40.16,0,0,1-4.14,1.36l-.17-.63c.28-.07.5-.13.64-.18V386h.6v4.71c.17,0,.5-.13,1-.29v-5.32H44.9v-3.41h3.43v3.41H47.24v1.85h1.32v.61H47.24v2.64a13.2,13.2,0,0,0,1.46-.56Zm-1-5.83v-2.21H45.52v2.21Zm7.24,1.95-.38.56a14,14,0,0,1-2.74-1.37A9.59,9.59,0,0,1,48.88,387l-.41-.58a10.36,10.36,0,0,0,2.83-1.2A6.56,6.56,0,0,1,50,383.63a8.65,8.65,0,0,1-1,.73l-.5-.47A6,6,0,0,0,51,381.21l.61.19a5.57,5.57,0,0,1-.48.9h3v.56a8.35,8.35,0,0,1-1.85,2.35A11.45,11.45,0,0,0,54.94,386.44Zm-.86,5.31h-.63v-.55H50.14v.55h-.63v-4.4h4.57Zm-.63-1.15V388H50.14v2.64Zm0-7.72H50.7l-.14.17-.13.16a4.54,4.54,0,0,0,1.4,1.63A6.64,6.64,0,0,0,53.43,382.88Z"/><path class="cls-30" d="M147,331.73l-3.38,9.07h-1.09l-3.31-9.07h1.11l2.56,7.25a3.8,3.8,0,0,1,.18.8h0a4,4,0,0,1,.2-.81l2.62-7.24Z"/><path class="cls-30" d="M156.51,340.8v-6.13c0-.46,0-1,.1-1.75h0a5.25,5.25,0,0,1-.27.86l-3.17,7h-.44l-3.16-7a5.41,5.41,0,0,1-.26-.91h0c0,.32.05.9.05,1.74v6.14h-1v-9.07h1.3l2.84,6.39a9.79,9.79,0,0,1,.42,1.07h0l.44-1.1,2.91-6.36h1.23v9.07Z"/><path class="cls-30" d="M94.33,331.73,91,340.8h-1.1l-3.3-9.07h1.11L90.22,339a3.8,3.8,0,0,1,.18.8h0a3.41,3.41,0,0,1,.2-.81l2.62-7.24Z"/><path class="cls-30" d="M103.84,340.8v-6.13c0-.46,0-1,.1-1.75h0a5.25,5.25,0,0,1-.27.86l-3.17,7H100l-3.16-7a5.41,5.41,0,0,1-.26-.91h0c0,.32,0,.9,0,1.74v6.14h-1v-9.07H97l2.84,6.39a9.79,9.79,0,0,1,.42,1.07h0l.44-1.1,2.91-6.36h1.23v9.07Z"/><path class="cls-30" d="M103.21,269.06v6.08h1.36V276h-1.36v2.17h-1V276H98v-.82a28.88,28.88,0,0,0,2.3-3,28,28,0,0,0,1.85-3.09Zm-1,6.08v-4.49l-.13,0a31,31,0,0,1-3.06,4.52Z"/><path class="cls-30" d="M110.17,269.06v6.08h1.37V276h-1.37v2.17h-1V276H105v-.82a28.88,28.88,0,0,0,2.3-3,28,28,0,0,0,1.85-3.09Zm-1,6.08v-4.49l-.13,0a30.15,30.15,0,0,1-3,4.52Z"/><path class="cls-30" d="M112.62,276.72a3.3,3.3,0,0,0,2.1.74,2.35,2.35,0,0,0,1.53-.48,1.58,1.58,0,0,0,.59-1.3c0-1.22-.86-1.82-2.56-1.82h-.75V273h.71c1.52,0,2.27-.56,2.27-1.7s-.57-1.57-1.73-1.57a2.91,2.91,0,0,0-1.81.66v-1a3.92,3.92,0,0,1,2.06-.52,2.71,2.71,0,0,1,1.78.59,2,2,0,0,1,.71,1.57,2.24,2.24,0,0,1-1.83,2.31v0a2.4,2.4,0,0,1,1.56.68,2.06,2.06,0,0,1,.59,1.49,2.42,2.42,0,0,1-.9,2,3.45,3.45,0,0,1-2.28.74,3.71,3.71,0,0,1-2-.49Z"/><path class="cls-30" d="M144.16,274.12v6.07h1.36V281h-1.36v2.16h-1V281h-4.25v-.82a32.22,32.22,0,0,0,4.15-6.09Zm-1,6.07v-4.48l-.12,0a30.4,30.4,0,0,1-3.06,4.51Z"/><path class="cls-30" d="M151.12,274.12v6.07h1.37V281h-1.37v2.16h-1V281h-4.25v-.82a32.22,32.22,0,0,0,4.15-6.09Zm-1,6.07v-4.48l-.13,0a28.94,28.94,0,0,1-3.06,4.51Z"/><path class="cls-30" d="M153.57,281.78a3.29,3.29,0,0,0,2.1.73,2.37,2.37,0,0,0,1.53-.47,1.6,1.6,0,0,0,.59-1.31c0-1.21-.86-1.81-2.57-1.81h-.75v-.84h.72c1.52,0,2.27-.57,2.27-1.7s-.58-1.58-1.73-1.58a2.86,2.86,0,0,0-1.81.67v-1A3.91,3.91,0,0,1,156,274a2.67,2.67,0,0,1,1.79.59,1.94,1.94,0,0,1,.7,1.57,2.23,2.23,0,0,1-1.82,2.31v0a2.35,2.35,0,0,1,1.56.68,2,2,0,0,1,.59,1.49,2.42,2.42,0,0,1-.9,2,3.45,3.45,0,0,1-2.28.74,3.8,3.8,0,0,1-2-.49Z"/><path class="cls-30" d="M181.11,269.06v6.08h1.37V276h-1.37v2.17h-1V276H175.9v-.82a28.88,28.88,0,0,0,2.3-3,29.59,29.59,0,0,0,1.85-3.09Zm-1,6.08v-4.49l-.13,0a29.49,29.49,0,0,1-3.06,4.52Z"/><path class="cls-30" d="M188.08,269.06v6.08h1.37V276h-1.37v2.17h-1V276h-4.25v-.82a30.33,30.33,0,0,0,2.3-3,27.78,27.78,0,0,0,1.84-3.09Zm-1,6.08v-4.49l-.13,0a29.49,29.49,0,0,1-3.06,4.52Z"/><path class="cls-30" d="M190.53,276.72a3.3,3.3,0,0,0,2.1.74,2.33,2.33,0,0,0,1.52-.48,1.55,1.55,0,0,0,.59-1.3c0-1.22-.85-1.82-2.56-1.82h-.75V273h.72c1.51,0,2.27-.56,2.27-1.7s-.58-1.57-1.73-1.57a2.87,2.87,0,0,0-1.81.66v-1a3.88,3.88,0,0,1,2.05-.52,2.72,2.72,0,0,1,1.79.59,1.94,1.94,0,0,1,.7,1.57,2.24,2.24,0,0,1-1.82,2.31v0a2.44,2.44,0,0,1,1.56.68,2.05,2.05,0,0,1,.58,1.49,2.42,2.42,0,0,1-.89,2,3.49,3.49,0,0,1-2.28.74,3.71,3.71,0,0,1-2-.49Z"/><path class="cls-30" d="M143.1,128.81a2.39,2.39,0,0,1,.49-1.44,2.72,2.72,0,0,1,1.27-1,3,3,0,0,1-1-.89,1.91,1.91,0,0,1-.37-1.13,2.22,2.22,0,0,1,.31-1.16,2.19,2.19,0,0,1,.9-.83,2.67,2.67,0,0,1,1.27-.3,2.74,2.74,0,0,1,1.28.3,2.14,2.14,0,0,1,.89.82,2.29,2.29,0,0,1,.32,1.17,1.93,1.93,0,0,1-.37,1.13,3.16,3.16,0,0,1-1,.89,2.75,2.75,0,0,1,1.28,1,2.46,2.46,0,0,1,.47,1.42,2.68,2.68,0,0,1-.36,1.38,2.5,2.5,0,0,1-1,.94,3.48,3.48,0,0,1-3,0,2.47,2.47,0,0,1-1-.94A2.55,2.55,0,0,1,143.1,128.81Zm1-.05a1.81,1.81,0,0,0,.53,1.37,2.14,2.14,0,0,0,2.76,0,1.84,1.84,0,0,0,.53-1.36,1.8,1.8,0,0,0-.54-1.33,2,2,0,0,0-2.74,0A1.79,1.79,0,0,0,144.08,128.76Zm.33-4.29a1.47,1.47,0,0,0,.46,1.1,1.58,1.58,0,0,0,2.23,0,1.52,1.52,0,0,0,0-2.21,1.57,1.57,0,0,0-2.7,1.11Z"/><path class="cls-30" d="M150,127a6.85,6.85,0,0,1,.78-3.63,2.52,2.52,0,0,1,2.26-1.24q2.83,0,2.83,4.65a6.66,6.66,0,0,1-.77,3.5,2.51,2.51,0,0,1-2.26,1.23,2.32,2.32,0,0,1-2.11-1.18A6.33,6.33,0,0,1,150,127Zm1,0c0,2.49.65,3.73,1.94,3.73s1.93-1.26,1.93-3.78-.63-3.93-1.88-3.93S151,124.26,151,126.91Z"/><path class="cls-30" d="M183.7,128.81a2.44,2.44,0,0,1,.48-1.44,2.75,2.75,0,0,1,1.28-1,3,3,0,0,1-1-.89,1.91,1.91,0,0,1-.37-1.13,2.22,2.22,0,0,1,1.21-2,2.74,2.74,0,0,1,1.28-.3,2.7,2.7,0,0,1,1.27.3,2.17,2.17,0,0,1,.9.82,2.29,2.29,0,0,1,.32,1.17,2,2,0,0,1-.37,1.13,3.16,3.16,0,0,1-1,.89,2.72,2.72,0,0,1,1.27,1,2.4,2.4,0,0,1,.48,1.42,2.59,2.59,0,0,1-.37,1.38,2.47,2.47,0,0,1-1,.94,3.51,3.51,0,0,1-3,0,2.53,2.53,0,0,1-1-.94A2.63,2.63,0,0,1,183.7,128.81Zm1-.05a1.81,1.81,0,0,0,.52,1.37,2.14,2.14,0,0,0,2.76,0,1.94,1.94,0,0,0,0-2.69,1.87,1.87,0,0,0-1.38-.54,1.89,1.89,0,0,0-1.37.53A1.82,1.82,0,0,0,184.68,128.76Zm.32-4.29a1.57,1.57,0,0,0,1.58,1.56,1.55,1.55,0,0,0,1.12-.46,1.55,1.55,0,0,0,0-2.21,1.58,1.58,0,0,0-1.13-.44,1.54,1.54,0,0,0-1.13.44A1.51,1.51,0,0,0,185,124.47Z"/><path class="cls-30" d="M190.62,127a6.85,6.85,0,0,1,.78-3.63,2.5,2.5,0,0,1,2.26-1.24q2.84,0,2.83,4.65a6.55,6.55,0,0,1-.78,3.5,2.5,2.5,0,0,1-2.26,1.23,2.33,2.33,0,0,1-2.11-1.18A6.43,6.43,0,0,1,190.62,127Zm1,0c0,2.49.65,3.73,1.95,3.73s1.93-1.26,1.93-3.78-.63-3.93-1.88-3.93S191.61,124.26,191.61,126.91Z"/><path class="cls-30" d="M103.41,128.81a2.44,2.44,0,0,1,.48-1.44,2.77,2.77,0,0,1,1.27-1,3,3,0,0,1-1-.89,1.91,1.91,0,0,1-.37-1.13,2.22,2.22,0,0,1,.31-1.16,2.26,2.26,0,0,1,.9-.83,2.86,2.86,0,0,1,2.55,0,2.14,2.14,0,0,1,.89.82,2.19,2.19,0,0,1,.32,1.17,1.93,1.93,0,0,1-.37,1.13,3,3,0,0,1-1,.89,2.75,2.75,0,0,1,1.28,1,2.4,2.4,0,0,1,.48,1.42,2.69,2.69,0,0,1-.37,1.38,2.47,2.47,0,0,1-1,.94,3.33,3.33,0,0,1-1.49.33,3.28,3.28,0,0,1-1.48-.33,2.53,2.53,0,0,1-1-.94A2.63,2.63,0,0,1,103.41,128.81Zm1-.05a1.81,1.81,0,0,0,.53,1.37,2.14,2.14,0,0,0,2.76,0,1.8,1.8,0,0,0,.53-1.36,1.83,1.83,0,0,0-.53-1.33,2,2,0,0,0-2.75,0A1.79,1.79,0,0,0,104.38,128.76Zm.33-4.29a1.57,1.57,0,0,0,1.58,1.56,1.55,1.55,0,0,0,1.12-.46,1.51,1.51,0,0,0,.47-1.1,1.45,1.45,0,0,0-.47-1.11,1.54,1.54,0,0,0-1.12-.44,1.58,1.58,0,0,0-1.14.44A1.54,1.54,0,0,0,104.71,124.47Z"/><path class="cls-30" d="M110.33,127a6.85,6.85,0,0,1,.78-3.63,2.5,2.5,0,0,1,2.26-1.24c1.88,0,2.83,1.55,2.83,4.65a6.55,6.55,0,0,1-.78,3.5,2.51,2.51,0,0,1-2.26,1.23,2.33,2.33,0,0,1-2.11-1.18A6.43,6.43,0,0,1,110.33,127Zm1,0c0,2.49.65,3.73,2,3.73s1.93-1.26,1.93-3.78-.63-3.93-1.89-3.93S111.32,124.26,111.32,126.91Z"/><path class="cls-30" d="M199.33,331.73,196,340.8h-1.1l-3.3-9.07h1.11l2.56,7.25a3.8,3.8,0,0,1,.18.8h0a3.41,3.41,0,0,1,.2-.81l2.62-7.24Z"/><path class="cls-30" d="M208.84,340.8v-6.13c0-.46,0-1,.1-1.75h0a5.25,5.25,0,0,1-.27.86l-3.17,7H205l-3.16-7a5.41,5.41,0,0,1-.26-.91h0c0,.32,0,.9,0,1.74v6.14h-1v-9.07H202l2.84,6.39a9.79,9.79,0,0,1,.42,1.07h0l.44-1.1,2.91-6.36h1.23v9.07Z"/><path class="cls-30" d="M147,181.73l-3.38,9.07h-1.09l-3.31-9.07h1.11l2.56,7.25a3.8,3.8,0,0,1,.18.8h0a4,4,0,0,1,.2-.81l2.62-7.24Z"/><path class="cls-30" d="M156.51,190.8v-6.13c0-.46,0-1,.1-1.75h0a5.25,5.25,0,0,1-.27.86l-3.17,7h-.44l-3.16-7a5.41,5.41,0,0,1-.26-.91h0c0,.32.05.9.05,1.74v6.14h-1v-9.07h1.3l2.84,6.39a9.79,9.79,0,0,1,.42,1.07h0l.44-1.1,2.91-6.36h1.23v9.07Z"/><path class="cls-30" d="M94.33,181.73,91,190.8h-1.1l-3.3-9.07h1.11L90.22,189a3.8,3.8,0,0,1,.18.8h0a3.41,3.41,0,0,1,.2-.81l2.62-7.24Z"/><path class="cls-30" d="M103.84,190.8v-6.13c0-.46,0-1,.1-1.75h0a5.25,5.25,0,0,1-.27.86l-3.17,7H100l-3.16-7a5.41,5.41,0,0,1-.26-.91h0c0,.32,0,.9,0,1.74v6.14h-1v-9.07H97l2.84,6.39a9.79,9.79,0,0,1,.42,1.07h0c.12-.31.27-.68.44-1.1l2.91-6.36h1.23v9.07Z"/><path class="cls-30" d="M199.33,181.73,196,190.8h-1.1l-3.3-9.07h1.11l2.56,7.25a3.8,3.8,0,0,1,.18.8h0a3.41,3.41,0,0,1,.2-.81l2.62-7.24Z"/><path class="cls-30" d="M208.84,190.8v-6.13c0-.46,0-1,.1-1.75h0a5.25,5.25,0,0,1-.27.86l-3.17,7H205l-3.16-7a5.41,5.41,0,0,1-.26-.91h0c0,.32,0,.9,0,1.74v6.14h-1v-9.07H202l2.84,6.39a9.79,9.79,0,0,1,.42,1.07h0l.44-1.1,2.91-6.36h1.23v9.07Z"/><path class="cls-30" d="M32.21,311.87H29l.47.39a9.58,9.58,0,0,1-.67,1.45h2.68V320a.84.84,0,0,1-.26.64,1.65,1.65,0,0,1-1.11.26l-.51,0-.22-.62,1.21,0c.19,0,.28-.1.28-.29v-5.67H28.46v1.06c0,.2.11.3.32.3h1.55v.57H28.55a.77.77,0,0,1-.48-.19.55.55,0,0,1-.24-.43v-1.31H26.21a2.41,2.41,0,0,1-.67,1.56,3.15,3.15,0,0,1-1.58.91l-.3-.58q1.8-.44,1.92-1.89H23.19v6.61h-.63v-7.18h2.61a7.46,7.46,0,0,0-.65-1.46l.39-.38H21.82v-.59h4.89a5.65,5.65,0,0,0-.4-.83l.64-.19a5.49,5.49,0,0,1,.42,1h4.84Zm-2.77,7.65H24.63V317h4.81Zm-.55-7.65H25.1c.32.74.57,1.35.74,1.84h2.31A13.81,13.81,0,0,0,28.89,311.87Zm-.1,7.06v-1.35H25.25v1.35Z"/><path class="cls-30" d="M38.38,314.28a5.13,5.13,0,0,1-.93,2.76l-.46-.43a5.2,5.2,0,0,0,.72-1.73H36.59v5.27a.8.8,0,0,1-.19.49c-.13.17-.45.25-1,.25a4.68,4.68,0,0,1-.55,0l-.35-.65c.51,0,.9.06,1.19.06a.3.3,0,0,0,.19-.09A.24.24,0,0,0,36,320v-4.33a14.59,14.59,0,0,1-1.83,3.44l-.41-.48a13.8,13.8,0,0,0,1.91-3.76H33.82v-.6h2.65a9.78,9.78,0,0,0-1.84-1.61l.44-.4q.42.28,1.08.84a10.94,10.94,0,0,0,1.32-1.81H34.24v-.6h3.92v.6a13.59,13.59,0,0,1-1.54,2.2L37,314l-.37.32ZM43.54,317a17.53,17.53,0,0,1-.19,2.21,3.43,3.43,0,0,1-.32,1.19,1.44,1.44,0,0,1-.41.36,4.27,4.27,0,0,1-1.54.1l-.29-.64q.38,0,.81,0a2.31,2.31,0,0,0,.78-.07.39.39,0,0,0,.19-.19,3,3,0,0,0,.17-.79c.06-.45.12-1,.17-1.6h-2a4.47,4.47,0,0,1-3,3.3l-.46-.49a4.25,4.25,0,0,0,1.79-1.09,3.58,3.58,0,0,0,1-1.72H38.38V317h2.06a8.72,8.72,0,0,0,.1-1.2l.6,0A8.58,8.58,0,0,1,41,317Zm.71-1.45-.35.54a8.44,8.44,0,0,1-2.58-1.29,8.86,8.86,0,0,1-2.3,1.26l-.42-.51a7.74,7.74,0,0,0,2.23-1.14,7,7,0,0,1-1.08-1.33l.53-.3a4.91,4.91,0,0,0,1,1.25,4.63,4.63,0,0,0,1.27-1.94H40a9.29,9.29,0,0,1-1.4,1.48l-.47-.43a8.48,8.48,0,0,0,2.26-2.82l.6.23a8.44,8.44,0,0,1-.57.94h3.65v.6h-.85a5.65,5.65,0,0,1-1.42,2.31A8,8,0,0,0,44.25,315.58Z"/><path class="cls-30" d="M55.66,312.92H47.34a36.29,36.29,0,0,1-.27,5.3,10.3,10.3,0,0,1-.75,2.61l-.5-.41a9.51,9.51,0,0,0,.64-2.28,27,27,0,0,0,.26-4.47v-3h8.94Zm-.61-.57v-1.07H47.34v1.07Zm.47,4.4H48.1v-2.56h7.42Zm-.36,4.12h-.63v-.54H49.15v.54h-.62v-3.59h6.63Zm-3.67-4.69v-1.43H48.73v1.43Zm3,2.29v-.61H49.15v.61Zm0,1.3V319H49.15v.75Zm-3.88-4-.47.31a5.74,5.74,0,0,0-.76-.84l.5-.31A5.65,5.65,0,0,1,50.65,315.76Zm.16-2-.56.28a5.44,5.44,0,0,0-.81-.7l.57-.28A7.79,7.79,0,0,1,50.81,313.78Zm4.1,2.4v-1.43H52.1v1.43Zm-.75-2.76a4.94,4.94,0,0,1-1,.66l-.51-.37a4.77,4.77,0,0,0,1-.62Zm.05,1.77a5.4,5.4,0,0,1-.84.87l-.47-.3a5.33,5.33,0,0,0,.83-.84Z"/><path class="cls-30" d="M68.26,316H63.43v4a.91.91,0,0,1-.27.68,1,1,0,0,1-.73.27l-1.55,0-.24-.64,1.86,0a.23.23,0,0,0,.2-.1.35.35,0,0,0,.09-.22v-4H57.86v-.63h4.93v-1.56a18.56,18.56,0,0,0,3.26-2.43H59.18v-.64H67v.64a23.78,23.78,0,0,1-3.53,2.77v1.22h4.83Z"/><path class="cls-30" d="M35,331.29a14.19,14.19,0,0,1-.67,2.84l-.6-.26a12.73,12.73,0,0,0,.71-2.7Zm2.94-.76-.57.19a5.32,5.32,0,0,0-.18-.68c-1.21.34-2.28.59-3.19.75l-.2-.66a12.78,12.78,0,0,0,2.28-2.73c-1,.17-1.73.28-2,.31l-.17-.59a12.33,12.33,0,0,0,1.93-3.5l.58.19A14.11,14.11,0,0,1,34.76,327a13.35,13.35,0,0,0,1.73-.25,14.22,14.22,0,0,0,.83-1.53l.57.23A18,18,0,0,1,34.78,330a18.68,18.68,0,0,0,2.25-.53,7,7,0,0,0-.33-.82l.54-.19A9.93,9.93,0,0,1,38,330.53Zm-1.43,3.11-.62.12a15.71,15.71,0,0,0-.32-2.5l.58-.09A15.44,15.44,0,0,1,36.54,333.64Zm1.41-.55-.57.2a11.8,11.8,0,0,0-.52-2.14l.56-.19A11,11,0,0,1,38,333.09Zm6.06.13a.91.91,0,0,1-.69.85,6.54,6.54,0,0,1-1.09,0l-.26-.65h.66a1.6,1.6,0,0,0,.65-.07.27.27,0,0,0,.12-.25v-8.6H38.85v9.55h-.61V324H44Zm-1-5.7H39.2v-.59h1a9.24,9.24,0,0,0-.59-1.52l.57-.23a14.21,14.21,0,0,1,.66,1.75h.68a12.37,12.37,0,0,0,.8-1.77l.55.22a14.25,14.25,0,0,1-.67,1.55h.89Zm0,2.19H40.48v1.77c0,.21.1.31.29.31h2.11v.56H40.71a.75.75,0,0,1-.84-.86v-1.78H39.2v-.58h1.87a9.1,9.1,0,0,0-.46-1.09l.59-.21c.14.3.31.73.52,1.3h1.33Z"/><path class="cls-30" d="M50.09,332.66A40.77,40.77,0,0,1,46,334l-.17-.63.63-.18v-4.89H47V333a10.27,10.27,0,0,0,1-.29v-5.31H46.29V324h3.43v3.41H48.63v1.84H50v.62H48.63v2.63a13.2,13.2,0,0,0,1.46-.56Zm-1-5.83v-2.21H46.92v2.21Zm7.23,1.95-.38.56A13.91,13.91,0,0,1,53.22,328a10,10,0,0,1-2.95,1.4l-.41-.58a10.06,10.06,0,0,0,2.83-1.2A6.56,6.56,0,0,1,51.34,326a9,9,0,0,1-1,.74l-.49-.47a6.09,6.09,0,0,0,2.56-2.69l.61.19a6.56,6.56,0,0,1-.49.9h3v.57a8.44,8.44,0,0,1-1.85,2.34A11.45,11.45,0,0,0,56.33,328.78Zm-.86,5.31h-.63v-.55H51.53v.55H50.9v-4.4h4.57ZM54.84,333V330.3H51.53V333Zm0-7.73H52.1l-.14.18-.14.15a4.58,4.58,0,0,0,1.41,1.64A7,7,0,0,0,54.82,325.22Z"/><path class="cls-30" d="M116.94,46.14h-2.62V54.3h-1V46.14H110.7v-.91h6.24Z"/><path class="cls-30" d="M124,53.92a5.2,5.2,0,0,1-2.5.54,4,4,0,0,1-3.08-1.26,4.61,4.61,0,0,1-1.17-3.26,4.9,4.9,0,0,1,1.29-3.48,4.33,4.33,0,0,1,3.33-1.39,5.24,5.24,0,0,1,2.13.38v1.08a4.37,4.37,0,0,0-2.15-.54,3.25,3.25,0,0,0-2.58,1.09,4,4,0,0,0-1,2.8,3.84,3.84,0,0,0,.91,2.65,3.06,3.06,0,0,0,2.42,1,4.45,4.45,0,0,0,2.37-.61Z"/><path class="cls-30" d="M126.84,50.86V54.3h-1V45.23h2.45a3.23,3.23,0,0,1,2.23.71,2.52,2.52,0,0,1,.8,2,2.72,2.72,0,0,1-.94,2.15,3.25,3.25,0,0,1-2.33.78Zm0-4.71v3.78H128a2.53,2.53,0,0,0,1.71-.51,1.81,1.81,0,0,0,.59-1.44q0-1.83-2.16-1.83Z"/><path class="cls-30" d="M146.21,54.09l-.2.6h-4.38a5.44,5.44,0,0,1-4.11-1.34A9.07,9.07,0,0,1,136.08,55l-.47-.41A6.93,6.93,0,0,0,138,50.68h-2v-.57c.61-.69,1.25-1.5,1.93-2.43h-2.11v-.6h2.83v.6c-.39.55-1,1.35-1.84,2.4h1.86v.6a9.35,9.35,0,0,1-.8,2.17,4.83,4.83,0,0,0,3.63,1.24Zm-8-7.85-.46.43A8.43,8.43,0,0,0,136,44.9l.43-.42A10.37,10.37,0,0,1,138.22,46.24Zm7.91,6H143v1.33h-.64V52.29h-3.14V51.7h3.14v-.94h-2.65V46.87h2.65v-.93h-3v-.58h3v-1H143v1h3v.58h-3v.93h2.67v3.89H143v.94h3.13Zm-3.77-3.79v-1h-2v1Zm0,1.69V49.08h-2v1.11Zm2.71-1.69v-1H143v1Zm0,1.69V49.08H143v1.11Z"/><path class="cls-30" d="M151.09,47.19h-1.17V49.6a7.37,7.37,0,0,0,1.06-.44l.09.63c-.14.07-.52.22-1.15.47v3.83A.77.77,0,0,1,149,55l-.92,0-.2-.65.69,0a1.31,1.31,0,0,0,.59-.08.28.28,0,0,0,.11-.24V50.51l-1.46.48-.14-.6c.48-.14,1-.32,1.6-.54V47.19h-1.57v-.63h1.57V44.42h.61v2.14h1.17Zm7.07,3.8h-1.6a5.36,5.36,0,0,1-1.26,2,24.19,24.19,0,0,1,2.78,1.51l-.36.51a16.82,16.82,0,0,0-2.9-1.57A9.92,9.92,0,0,1,151.05,55l-.37-.55a9.24,9.24,0,0,0,3.43-1.2c-.44-.2-1.09-.45-2-.75.23-.34.53-.83.88-1.46h-1.77V50.4h2.09a12.17,12.17,0,0,0,.61-1.26l.6.17A9.28,9.28,0,0,1,154,50.4h2.06a4.76,4.76,0,0,0,.2-.68l.6.11q0,.21-.15.57h1.41Zm0-2.1h-6.85v-.6h1.94a9.12,9.12,0,0,0-.6-1.87h-1.14v-.59h2.94a4.4,4.4,0,0,0-.47-1.18l.55-.27a6.93,6.93,0,0,1,.61,1.45h2.78v.59h-1c-.2.68-.42,1.31-.64,1.87h1.92ZM155.89,51h-2.16c-.26.48-.48.86-.67,1.15.44.15,1,.37,1.65.64A5.31,5.31,0,0,0,155.89,51Zm.3-4.57h-2.9a15,15,0,0,1,.57,1.87h1.72A17.83,17.83,0,0,0,156.19,46.42Z"/><path class="cls-30" d="M163.11,51.65c-1.23.69-2.33,1.26-3.3,1.69l-.07-.63c.67-.31,1.16-.55,1.49-.74V48.22h-1.39v-.6h1.39V44.41h.6v3.22h1.26v.59h-1.26v3.43A12.08,12.08,0,0,0,163,51Zm7.08,1.24h-3.38v2h-.63v-2h-3.24v-.6h3.22V51h-2.57V45.3h1.78a5.28,5.28,0,0,0,.41-.92l.6.17q-.16.39-.33.75h3.4v2.34h-5.26v1h5.37V51h-2.75v1.25h3.38ZM168.81,47V45.91h-4.62V47Zm.13,3.41V49.19h-4.75v1.26Z"/><path class="cls-30" d="M174.52,51.8a2.34,2.34,0,0,1,.49-1.44,2.74,2.74,0,0,1,1.27-1,2.92,2.92,0,0,1-1-.88,1.92,1.92,0,0,1-.38-1.13,2.23,2.23,0,0,1,.32-1.17,2.21,2.21,0,0,1,.89-.82,2.84,2.84,0,0,1,2.56,0,2.16,2.16,0,0,1,.89.83,2.26,2.26,0,0,1,.32,1.17,1.9,1.9,0,0,1-.37,1.12,3,3,0,0,1-1,.89,2.89,2.89,0,0,1,1.28,1,2.46,2.46,0,0,1,.47,1.42,2.62,2.62,0,0,1-.36,1.37,2.52,2.52,0,0,1-1,.95,3.48,3.48,0,0,1-3,0,2.48,2.48,0,0,1-1-.94A2.59,2.59,0,0,1,174.52,51.8Zm1-.06a1.79,1.79,0,0,0,.52,1.37,2.12,2.12,0,0,0,2.77,0,2,2,0,0,0,0-2.69,2,2,0,0,0-2.74,0A1.81,1.81,0,0,0,175.5,51.74Zm.33-4.28a1.49,1.49,0,0,0,.46,1.1,1.57,1.57,0,0,0,2.23,0,1.51,1.51,0,0,0,0-2.2,1.57,1.57,0,0,0-1.13-.45,1.52,1.52,0,0,0-1.13.45A1.54,1.54,0,0,0,175.83,47.46Z"/><path class="cls-30" d="M181.44,50a6.91,6.91,0,0,1,.78-3.64,2.54,2.54,0,0,1,2.26-1.24c1.89,0,2.83,1.56,2.83,4.66a6.64,6.64,0,0,1-.77,3.49,2.52,2.52,0,0,1-2.26,1.24,2.33,2.33,0,0,1-2.11-1.19A6.29,6.29,0,0,1,181.44,50Zm1-.05c0,2.48.65,3.72,1.94,3.72s1.93-1.26,1.93-3.78-.63-3.93-1.88-3.93S182.44,47.24,182.44,49.9Z"/><path class="cls-30" d="M33.86,159l-2.57,9.08H30.11l-1.89-6.69a4.53,4.53,0,0,1-.15-.92h0a4.57,4.57,0,0,1-.17.91l-1.9,6.7H24.83L22.15,159h1.1l2,7a4.93,4.93,0,0,1,.15.91h0a4.47,4.47,0,0,1,.19-.91l2-7h.94l2,7.07a5.81,5.81,0,0,1,.15.85h0a4.35,4.35,0,0,1,.18-.87L32.76,159Z"/><path class="cls-30" d="M40,165.06H35.36a2.52,2.52,0,0,0,.59,1.71,2,2,0,0,0,1.54.6,3.21,3.21,0,0,0,2-.73v.94a3.7,3.7,0,0,1-2.25.63,2.7,2.7,0,0,1-2.14-.89,3.64,3.64,0,0,1-.78-2.49,3.6,3.6,0,0,1,.84-2.44,2.72,2.72,0,0,1,2.12-1,2.46,2.46,0,0,1,1.95.82,3.46,3.46,0,0,1,.69,2.29Zm-1-.86a2.2,2.2,0,0,0-.44-1.43,1.55,1.55,0,0,0-1.22-.5,1.75,1.75,0,0,0-1.24.51,2.41,2.41,0,0,0-.68,1.42Z"/><path class="cls-30" d="M42.54,167.11v.95h-1v-9.59h1v4.26h0a2.46,2.46,0,0,1,2.24-1.31,2.38,2.38,0,0,1,1.95.88,3.55,3.55,0,0,1,.72,2.33,4,4,0,0,1-.8,2.6,2.66,2.66,0,0,1-2.17,1,2.14,2.14,0,0,1-1.94-1.1Zm0-1.68a1.87,1.87,0,0,0,.55,1.38,1.88,1.88,0,0,0,2.84-.17,3.39,3.39,0,0,0,.55-2,2.64,2.64,0,0,0-.51-1.71,1.68,1.68,0,0,0-1.38-.63,1.89,1.89,0,0,0-1.47.63,2.29,2.29,0,0,0-.58,1.61Z"/><path class="cls-30" d="M61.77,160.69H53.45a34.57,34.57,0,0,1-.28,5.3,10.15,10.15,0,0,1-.74,2.62l-.5-.42a10,10,0,0,0,.64-2.28,28,28,0,0,0,.26-4.46v-3h8.94Zm-.62-.57v-1.06h-7.7v1.06Zm.47,4.4H54.21V162h7.41Zm-.35,4.12h-.63v-.54H55.25v.54h-.61v-3.58h6.63ZM57.59,164v-1.43H54.83V164Zm3,2.29v-.62H55.25v.62Zm0,1.29v-.74H55.25v.74Zm-3.89-4-.46.31a5.17,5.17,0,0,0-.76-.83l.49-.31A4.29,4.29,0,0,1,56.75,163.53Zm.17-2-.56.28a6.83,6.83,0,0,0-.82-.7l.58-.27A9.12,9.12,0,0,1,56.92,161.55ZM61,164v-1.43H58.2V164Zm-.74-2.76a4.85,4.85,0,0,1-1,.65l-.52-.37a5.61,5.61,0,0,0,1-.61Zm0,1.76a6,6,0,0,1-.85.87l-.46-.3a6.4,6.4,0,0,0,.83-.83Z"/><path class="cls-30" d="M35.78,176.93H30.94v4a.9.9,0,0,1-.27.67,1,1,0,0,1-.72.27l-1.56,0-.24-.64,1.87,0a.26.26,0,0,0,.2-.11.32.32,0,0,0,.08-.22v-4H25.37v-.64H30.3v-1.56a18.27,18.27,0,0,0,3.27-2.43H26.69v-.64h7.78v.64a23.36,23.36,0,0,1-3.53,2.78v1.21h4.84Z"/><path class="cls-30" d="M38.58,179.06a14.46,14.46,0,0,1-.67,2.85l-.6-.27a12.16,12.16,0,0,0,.71-2.7Zm3-.76-.58.2a5,5,0,0,0-.18-.69c-1.21.34-2.28.59-3.19.76l-.2-.67a12.17,12.17,0,0,0,2.28-2.72l-2,.31-.17-.6a12.27,12.27,0,0,0,1.93-3.49l.58.18a14.39,14.39,0,0,1-1.68,3.2,15.5,15.5,0,0,0,1.73-.26,16.33,16.33,0,0,0,.84-1.53l.56.23a17.79,17.79,0,0,1-3.11,4.57,17,17,0,0,0,2.25-.53,6.19,6.19,0,0,0-.33-.81l.54-.2A10.81,10.81,0,0,1,41.53,178.3Zm-1.43,3.12-.63.11a15.59,15.59,0,0,0-.32-2.49l.58-.1A16.58,16.58,0,0,1,40.1,181.42Zm1.4-.56-.57.2a11.8,11.8,0,0,0-.52-2.14l.56-.18A10.76,10.76,0,0,1,41.5,180.86Zm6.06.13a.85.85,0,0,1-.2.55.89.89,0,0,1-.48.3,5.38,5.38,0,0,1-1.09,0l-.27-.66h.66a1.6,1.6,0,0,0,.65-.07.27.27,0,0,0,.12-.25v-8.6H42.4v9.55h-.61V171.72h5.77Zm-1-5.7H42.75v-.58h1a9.32,9.32,0,0,0-.59-1.53l.57-.23a16.2,16.2,0,0,1,.67,1.76H45a12.53,12.53,0,0,0,.8-1.78l.55.22a15.08,15.08,0,0,1-.67,1.56h.89Zm0,2.19H44v1.77c0,.21.1.31.29.31h2.12v.57H44.26a.75.75,0,0,1-.84-.86v-1.79h-.67v-.58h1.87a8.22,8.22,0,0,0-.46-1.09l.59-.21c.14.3.31.73.52,1.3H46.6Z"/><path class="cls-30" d="M53.64,180.43a40.78,40.78,0,0,1-4.13,1.37l-.17-.64A3.64,3.64,0,0,0,50,181V176.1h.6v4.7a10.27,10.27,0,0,0,1-.29V175.2H49.84v-3.41h3.43v3.41H52.18V177H53.5v.62H52.18v2.64a13.31,13.31,0,0,0,1.46-.57Zm-1-5.82v-2.22H50.47v2.22Zm7.23,1.94-.38.56a13.91,13.91,0,0,1-2.73-1.36,9.77,9.77,0,0,1-3,1.41l-.41-.58a10.35,10.35,0,0,0,2.83-1.21,6.51,6.51,0,0,1-1.35-1.62,8.65,8.65,0,0,1-1,.73l-.49-.47A6.09,6.09,0,0,0,56,171.32l.61.19a7.15,7.15,0,0,1-.48.91h3V173a8.64,8.64,0,0,1-1.85,2.35A12.12,12.12,0,0,0,59.88,176.55ZM59,181.87h-.63v-.55H55.08v.55h-.63v-4.4H59Zm-.63-1.15v-2.64H55.08v2.64Zm0-7.73H55.65s-.07.1-.14.18l-.14.15A4.5,4.5,0,0,0,56.78,175,6.81,6.81,0,0,0,58.37,173Z"/><path class="cls-30" d="M79.08,241.66a.87.87,0,0,1-.24.65.89.89,0,0,1-.6.27q-.36,0-1,0h-.79l-.26-.67c.62.06,1.21.09,1.76.09a.41.41,0,0,0,.3-.13.42.42,0,0,0,.14-.33v-6.51H75a8.06,8.06,0,0,0,3.08,5l-.45.44a9.34,9.34,0,0,1-3-4.44,11.56,11.56,0,0,1-3.09,4.39L71,240a10.21,10.21,0,0,0,3.22-4.91H70.5v7.66h-.64V234.4h4.42c0-.37-.07-.89-.1-1.56H73.05v-.63H74.8c0,.19,0,.39,0,.59a14,14,0,0,0,.11,1.6h4.19Z"/><path class="cls-30" d="M87.37,237.3H81.28v-.59H83a12.94,12.94,0,0,0-.69-2.19l.46-.35h-1.2v-.6h2.66a7.26,7.26,0,0,0-.68-1.21l.57-.22a7.15,7.15,0,0,1,.76,1.43h2.32v.6H86l.46.32a14.54,14.54,0,0,1-.81,2.22h1.77Zm-.71,5.39H86v-.8H82.68v.8h-.63v-4.2h4.61ZM86,241.28V239.1H82.68v2.18Zm-.2-7.11h-3a15.54,15.54,0,0,1,.78,2.54H85A11.81,11.81,0,0,0,85.82,234.17Zm4.6,2.67a4.76,4.76,0,0,1,1.21,3,1.56,1.56,0,0,1-.36,1.14,2.19,2.19,0,0,1-1.48.36l-.39,0-.17-.63a6.39,6.39,0,0,0,.68,0,2.67,2.67,0,0,0,.7-.06.68.68,0,0,0,.31-.28,1.37,1.37,0,0,0,.12-.64,4.4,4.4,0,0,0-1.26-2.8,36.76,36.76,0,0,0,1.08-3.7h-2.3v9.45H88V232.63h3.48v.61C91.13,234.52,90.78,235.71,90.42,236.84Z"/><path class="cls-30" d="M102.28,240.49H96.93l.37.41a13.35,13.35,0,0,1-3.67,1.82l-.42-.56a12.81,12.81,0,0,0,3.53-1.67h-2v-5.56a12.41,12.41,0,0,1-1.1.72l-.38-.55A13.91,13.91,0,0,0,97,232.17l.67.26-.52.58h4.07v.45a13.47,13.47,0,0,1-1,1.11h2Zm-2.06-6.89H96.5c-.44.36-.84.69-1.23,1h4C99.49,234.4,99.79,234.07,100.22,233.6Zm1.43,2.72v-1.15H95.37v1.15Zm0,1.79v-1.18H95.37v1.18Zm0,1.77v-1.16H95.37v1.16Zm2.06,2.22-.29.58a20.18,20.18,0,0,0-3.75-1.34l.31-.59A19.12,19.12,0,0,1,103.71,242.1Z"/><path class="cls-30" d="M115.73,235h-2.67a25.2,25.2,0,0,0,.37,4.66,13.4,13.4,0,0,0,1.21-3.73l.57.21a13.6,13.6,0,0,1-1.56,4.34,3.7,3.7,0,0,0,.47,1.2c.18.28.32.42.41.42s.26-.18.38-.54a6.35,6.35,0,0,0,.23-1.42l.57.32c-.16,1.53-.54,2.3-1.12,2.3s-1-.55-1.38-1.64a12.55,12.55,0,0,1-1.45,1.51l-.47-.39a9.28,9.28,0,0,0,1.7-1.84,25.47,25.47,0,0,1-.52-5.4h-7.15v-.54h3.05v-.88h-2.62V233h2.62v-.78h.6V233h2.77v.54H109v.88h3.48c0-.68,0-1.41,0-2.17h.62c0,1,0,1.68,0,2.17h2.69Zm-4,1.55H109v.75h2.42v3.16H109v.7h2.4v.56H109v1h-.6v-1h-3v-.56h3v-.7h-2.49v-3.16h2.49v-.75h-2.88v-.57h2.88v-.62h.6v.62h2.78Zm-3.38,2.06v-.8h-1.89v.8Zm0,1.31v-.79h-1.89v.79Zm2.42-1.31v-.8H109v.8Zm0,1.31v-.79H109v.79Zm4.44-6.09-.52.32a8.21,8.21,0,0,0-.92-1.44l.5-.31A6.44,6.44,0,0,1,115.23,233.78Z"/><path class="cls-30" d="M127.75,238.84h-4.9v3.94h-.65v-3.94h-4.91v-.64h4.91v-5h-4.61v-.63h9.88v.63h-4.62v5h4.9Zm-7.25-1.76-.59.3a11,11,0,0,0-1.51-2.82l.52-.29A9.87,9.87,0,0,1,120.5,237.08Zm6.26-2.57a9,9,0,0,1-1.69,2.82l-.6-.32a9,9,0,0,0,1.71-2.74Z"/><path class="cls-30" d="M107.88,249a5.22,5.22,0,0,1-.7,1.23v5.69h-.56v-5a12,12,0,0,1-1.11,1.07l-.29-.55a7.84,7.84,0,0,0,2.15-2.77Zm.15-3.37a8.52,8.52,0,0,1-2.46,2.93l-.28-.54a7.33,7.33,0,0,0,2.19-2.62Zm4.65,6.46h-4.22v-3.86l-.47.4-.39-.42a8.81,8.81,0,0,0,2.39-2.86l.55.23a4.84,4.84,0,0,1-.36.65h1.92v.58c-.23.4-.46.76-.7,1.1h1.28Zm.51,1.33h-2.61a3.09,3.09,0,0,1-.84,1.55,3.5,3.5,0,0,1-1.54,1l-.4-.48a3,3,0,0,0,2.17-2.05h-2.19v-.55h2.3a2.14,2.14,0,0,0,.06-.5h.58a1.77,1.77,0,0,1,0,.5h2.52Zm-1.79-6.61h-1.62c-.37.45-.7.82-1,1.1h1.88A9.06,9.06,0,0,0,111.4,246.81Zm-1.13,2.89v-1.22H109v1.22Zm0,1.84v-1.31H109v1.31Zm2.44,3.43-.41.44a6.16,6.16,0,0,0-1.49-1l.45-.45A8.33,8.33,0,0,1,112.71,255Zm-.63-5.27v-1.22h-1.22v1.22Zm0,1.84v-1.31h-1.22v1.31Zm3.68-2.21h-.89v5.77a.65.65,0,0,1-.34.63,2.75,2.75,0,0,1-1.25.19l-.22-.6h.7a.63.63,0,0,0,.43-.1.4.4,0,0,0,.1-.3v-5.6h-1.12v-.59h2.59Zm-.28-2.89h-2.22v-.58h2.22Z"/><path class="cls-30" d="M127.83,252.37l-.34.58-.73-.28v3.25h-.6v-.66H123.8v.66h-.62v-3.67h2.67a9.23,9.23,0,0,1-2.62-1.86h-1.4a8.22,8.22,0,0,1-2.45,1.86h2.49v3.67h-.63v-.66h-2.35v.66h-.64v-3.19a6.07,6.07,0,0,1-.72.24l-.27-.56a9,9,0,0,0,3.77-2h-3.68v-.57h4.19a8.21,8.21,0,0,0,.71-1.1l.56.16a3.76,3.76,0,0,1-.52.94h5.36v.57h-3.52A8.9,8.9,0,0,0,127.83,252.37Zm-6.1-3.82h-3.48v-2.84h3.48Zm-.6-.58v-1.69h-2.26V248Zm.11,6.67v-1.82h-2.35v1.82Zm5.55-6.09h-3.54v-2.84h3.54Zm-.63,6.09v-1.82H123.8v1.82Zm0-6.67v-1.69h-2.28V248Zm-.06,1.28-.36.46a5.27,5.27,0,0,0-1-.46l.31-.5A4.69,4.69,0,0,1,126.1,249.25Z"/><path class="cls-30" d="M73.43,80.08a10.09,10.09,0,0,1-3.81,5.25l-.48-.48a9.28,9.28,0,0,0,3.67-5Zm5.45,10.06-.56.32a10.84,10.84,0,0,0-.74-1.52,42.55,42.55,0,0,1-6.76,1.17l-.18-.61a23.57,23.57,0,0,0,3.5-6.17l.61.26a27.12,27.12,0,0,1-3.17,5.8,32.35,32.35,0,0,0,5.68-1,25,25,0,0,0-1.46-2.23l.55-.32A21.92,21.92,0,0,1,78.88,90.14Zm.9-5.38-.4.53a9.52,9.52,0,0,1-3.45-4.63h-.8V80h1.29A8.61,8.61,0,0,0,79.78,84.76Z"/><path class="cls-30" d="M91.16,89.49a.72.72,0,0,1-.35.68,3.91,3.91,0,0,1-1.57.19h-.53l-.19-.66a8.38,8.38,0,0,0,.86,0,3.53,3.53,0,0,0,1-.07.24.24,0,0,0,.14-.23V86.54H87.13v3.51h-.65V86.54H83.06a8.11,8.11,0,0,1-1.24,3.77l-.56-.39a7.49,7.49,0,0,0,1.21-4.32V80.09h8.69Zm-4.68-6.56V80.74H83.12v2.19Zm0,3V83.58H83.12v2.33Zm4-3V80.74H87.13v2.19Zm0,3V83.58H87.13v2.33Z"/><path class="cls-30" d="M102.28,88.12H96.93l.37.42a13.64,13.64,0,0,1-3.67,1.82l-.42-.56a12.59,12.59,0,0,0,3.53-1.68h-2V82.56a9.09,9.09,0,0,1-1.1.72l-.38-.55A13.72,13.72,0,0,0,97,79.8l.67.27-.52.58h4.07v.45a13.47,13.47,0,0,1-1,1.11h2Zm-2.06-6.89H96.5c-.44.37-.84.69-1.23,1h4C99.49,82,99.79,81.71,100.22,81.23ZM101.65,84V82.8H95.37V84Zm0,1.78V84.57H95.37v1.17Zm0,1.78V86.35H95.37v1.17Zm2.06,2.22-.29.57A20.93,20.93,0,0,0,99.67,89l.31-.58A19.12,19.12,0,0,1,103.71,89.74Z"/><path class="cls-30" d="M115.73,82.59h-2.67a25,25,0,0,0,.37,4.65,13.29,13.29,0,0,0,1.21-3.73l.57.22a13.7,13.7,0,0,1-1.56,4.34,3.63,3.63,0,0,0,.47,1.19c.18.29.32.43.41.43s.26-.18.38-.54a6.45,6.45,0,0,0,.23-1.43l.57.33c-.16,1.53-.54,2.29-1.12,2.29s-1-.54-1.38-1.63a13.34,13.34,0,0,1-1.45,1.51l-.47-.4A9.56,9.56,0,0,0,113,88a25.61,25.61,0,0,1-.52-5.4h-7.15v-.54h3.05v-.89h-2.62v-.54h2.62v-.77h.6v.77h2.77v.54H109v.89h3.48c0-.69,0-1.41,0-2.17h.62c0,1,0,1.68,0,2.17h2.69Zm-4,1.55H109v.74h2.42v3.17H109v.69h2.4v.57H109v1h-.6v-1h-3v-.57h3v-.69h-2.49V84.88h2.49v-.74h-2.88v-.57h2.88V83h.6v.62h2.78Zm-3.38,2.06v-.8h-1.89v.8Zm0,1.31v-.79h-1.89v.79Zm2.42-1.31v-.8H109v.8Zm0,1.31v-.79H109v.79Zm4.44-6.1-.52.33a8.68,8.68,0,0,0-.92-1.45l.5-.31A6.93,6.93,0,0,1,115.23,81.41Z"/><path class="cls-30" d="M127.75,86.48h-4.9v3.93h-.65V86.48h-4.91v-.64h4.91v-5h-4.61v-.63h9.88v.63h-4.62v5h4.9Zm-7.25-1.77-.59.3a11.33,11.33,0,0,0-1.51-2.82l.52-.28A10,10,0,0,1,120.5,84.71Zm6.26-2.56A9,9,0,0,1,125.07,85l-.6-.32a8.85,8.85,0,0,0,1.71-2.73Z"/><path class="cls-30" d="M107.88,96.64a5.65,5.65,0,0,1-.7,1.23v5.69h-.56v-5a13.48,13.48,0,0,1-1.11,1.07l-.29-.56a7.76,7.76,0,0,0,2.15-2.77Zm.15-3.37a8.62,8.62,0,0,1-2.46,2.93l-.28-.54A7.41,7.41,0,0,0,107.48,93Zm4.65,6.45h-4.22V95.86c-.2.19-.36.32-.47.41l-.39-.42A8.92,8.92,0,0,0,110,93l.55.23a5.54,5.54,0,0,1-.36.65h1.92v.57c-.23.4-.46.77-.7,1.11h1.28Zm.51,1.33h-2.61a3.12,3.12,0,0,1-.84,1.56,3.59,3.59,0,0,1-1.54,1l-.4-.48a3,3,0,0,0,2.17-2.06h-2.19v-.55h2.3a2.05,2.05,0,0,0,.06-.49h.58a1.7,1.7,0,0,1,0,.49h2.52Zm-1.79-6.61h-1.62c-.37.46-.7.82-1,1.11h1.88A8.39,8.39,0,0,0,111.4,94.44Zm-1.13,2.9V96.11H109v1.23Zm0,1.83v-1.3H109v1.3Zm2.44,3.44-.41.44a6.16,6.16,0,0,0-1.49-1l.45-.45A7.82,7.82,0,0,1,112.71,102.61Zm-.63-5.27V96.11h-1.22v1.23Zm0,1.83v-1.3h-1.22v1.3ZM115.76,97h-.89v5.78a.67.67,0,0,1-.34.63,2.75,2.75,0,0,1-1.25.19l-.22-.61.7,0a.63.63,0,0,0,.43-.1.4.4,0,0,0,.1-.3V97h-1.12v-.58h2.59Zm-.28-2.88h-2.22V93.5h2.22Z"/><path class="cls-30" d="M127.83,100l-.34.58-.73-.28v3.25h-.6v-.67H123.8v.67h-.62V99.88h2.67A9.22,9.22,0,0,1,123.23,98h-1.4a8,8,0,0,1-2.45,1.85h2.49v3.68h-.63v-.67h-2.35v.67h-.64v-3.2a3.8,3.8,0,0,1-.72.24l-.27-.55A9.27,9.27,0,0,0,121,98h-3.68v-.57h4.19a8.31,8.31,0,0,0,.71-1.11l.56.17a3.94,3.94,0,0,1-.52.94h5.36V98h-3.52A8.9,8.9,0,0,0,127.83,100Zm-6.1-3.83h-3.48V93.34h3.48Zm-.6-.57V93.92h-2.26v1.69Zm.11,6.67v-1.82h-2.35v1.82Zm5.55-6.1h-3.54V93.34h3.54Zm-.63,6.1v-1.82H123.8v1.82Zm0-6.67V93.92h-2.28v1.69Zm-.06,1.27-.36.47a5.29,5.29,0,0,0-1-.47l.31-.49A5.19,5.19,0,0,1,126.1,96.88Z"/></g></svg>